<svg version="1.1" id="_x33_" xmlns="http://www.w3.org/2000/svg" xmlns:xlink="http://www.w3.org/1999/xlink" x="0px" y="0px" viewBox="0 0 720 720" style="enable-background:new 0 0 720 720;" xml:space="preserve">
<!-- Generator: Adobe Illustrator 15.0.0, SVG Export Plug-In . SVG Version: 6.00 Build 0)  -->
<svg version="1.1" id="&#x30EC;&#x30A4;&#x30E4;&#x30FC;_1"
	 xmlns="http://www.w3.org/2000/svg" xmlns:xlink="http://www.w3.org/1999/xlink" x="0px" y="0px" width="141.732px"
	 height="141.732px" viewBox="0 0 141.732 141.732" style="enable-background:new 0 0 141.732 141.732;" xml:space="preserve">
<g>
	<ellipse style="fill-rule:evenodd;clip-rule:evenodd;fill:#EBEBEB;" cx="70.85" cy="81.014" rx="60.475" ry="32.911"/>
	<ellipse style="fill-rule:evenodd;clip-rule:evenodd;fill:#F3F3F3;" cx="70.866" cy="75.255" rx="64.496" ry="37.023"/>
	<path style="fill-rule:evenodd;clip-rule:evenodd;fill:#9AB661;" d="M52.977,60.422c0,0-1.613-0.513-1.786-0.765
		c-0.173-0.255-0.729-0.25-0.51-1.023c0.22-0.771,0.527-0.716,0.255-1.278c-0.272-0.56-0.971-1.245-2.041-1.021
		c-1.07,0.223-0.845,1.709-1.786,0.255s-1.182-0.976-0.765-2.043c0.417-1.07,0.958-0.697,0.51-1.533
		c-0.45-0.839-0.211-1.363-1.275-1.278c-1.067,0.085-2.232-0.628-1.53-1.278c0.702-0.652,1.448-2.526,1.786-2.301
		c0.334,0.228,1.113,0.611,1.02-0.765c-0.094-1.376-0.106-2.979,0.255-3.067c0.362-0.087-0.567-1.357,1.021-1.788
		c1.588-0.431,1.978,0.074,2.55,0c0.576-0.077,1.306,0.71,1.531-0.513c0.228-1.223-0.071-0.85,0.255-2.043
		c0.327-1.193,0.179-1.555,1.021-1.788c0.845-0.233,0.444,0.115,1.53,0c1.089-0.115,0.993-0.241,1.275,0
		c0.285,0.238,0.655,0.345,0.765,0.765c0.113,0.422-1.572,1.267,0.51,1.023c2.084-0.244,2.82-1.667,2.809-2.556
		c-0.014-0.889-0.582-1.146,0-1.789c0.579-0.639,0.826-0.929,1.531-1.02c0.705-0.093,0.464-0.384,1.53,0
		c1.066,0.381,0.65,1.07,2.041,1.02c1.39-0.046,1.701-0.342,2.55-0.255c0.851,0.091,2.041,1.278,2.041,1.278
		s0.283,0.233,0.255,0.765c-0.024,0.535,0.45,1.349,1.275,1.533c0.828,0.186,1.051,0.521,1.53,0.768
		c0.479,0.247,0.423-0.173,0.51,0.511c0.088,0.685-0.441,0.806,0,1.278c0.444,0.472,0.728,1.017,1.534,1.278
		c0.803,0.26,1.426,0.205,1.529,0.765c0.103,0.563-0.139,0.886-0.255,1.791c-0.118,0.902,0.198,1.369-0.255,1.789
		c-0.452,0.419-0.532,1.105-0.256,1.533c0.275,0.425,0.391,0.115,0.511,1.277c0.118,1.161,0.434,1.539-0.255,2.298
		c-0.691,0.76-0.088,0.456-1.278,1.023c-1.188,0.565-1.398,0.411-1.53,1.021c-0.129,0.611-0.379,1.978-0.255,2.301
		c0.126,0.323,1.294-0.096,0,0.765c-1.295,0.861-0.894,1.185-2.04,1.023c-1.147-0.162-2.765-0.705-3.316-0.255
		c-0.548,0.45-0.699,0.875-1.275,1.789c-0.576,0.914-0.557,1.242-1.275,1.788c-0.719,0.546-2.291,0.321-2.806,0.255
		c-0.516-0.065-0.343-0.208-1.02-0.255c-0.678-0.047-0.848,0.003-1.531,0.511c-0.685,0.51-0.803,0.946-1.275,1.022
		c-0.475,0.08-0.305,0.751-1.278,0c-0.971-0.751-2.041-1.788-2.041-1.788s0.042,0.378-0.51,0.766
		c-0.549,0.389-0.425,0.872-1.021,0.513C53.149,62.364,52.806,61.325,52.977,60.422z"/>
	<path style="fill-rule:evenodd;clip-rule:evenodd;fill:#91AF52;" d="M69.638,36.134c0,0,0.647-1.572,0.916-1.723
		c0.269-0.151,0.31-0.71,1.062-0.422c0.751,0.288,0.672,0.592,1.253,0.367c0.582-0.222,1.324-0.864,1.193-1.956
		c-0.132-1.091-1.632-0.998-0.102-1.813c1.527-0.814,1.075-1.097,2.104-0.587c1.028,0.51,0.611,1.021,1.484,0.645
		c0.875-0.376,1.377-0.091,1.385-1.166c0.006-1.075,0.814-2.183,1.404-1.421c0.59,0.76,2.394,1.673,2.142,1.991
		c-0.255,0.315-0.704,1.062,0.675,1.089c1.382,0.027,2.98,0.153,3.036,0.524c0.058,0.37,1.404-0.45,1.697,1.179
		c0.294,1.629-0.244,1.975-0.216,2.556c0.024,0.584-0.823,1.245,0.378,1.58s0.856,0.003,2.016,0.434
		c1.163,0.433,1.536,0.315,1.698,1.179c0.161,0.867-0.154,0.436-0.132,1.536c0.021,1.1,0.156,1.015-0.106,1.278
		c-0.267,0.263-0.401,0.625-0.832,0.699c-0.43,0.074-1.129-1.689-1.062,0.422c0.066,2.109,1.421,2.971,2.308,3.036
		c0.888,0.066,1.195-0.479,1.785,0.157s0.855,0.91,0.889,1.624c0.03,0.713,0.34,0.499-0.132,1.533
		c-0.472,1.037-1.122,0.556-1.193,1.955s0.198,1.736,0.038,2.581c-0.161,0.845-1.447,1.932-1.447,1.932s-0.258,0.263-0.787,0.189
		c-0.53-0.071-1.383,0.332-1.638,1.144c-0.255,0.814-0.608,1.01-0.897,1.467c-0.285,0.461,0.138,0.439-0.551,0.466
		c-0.691,0.027-0.766-0.513-1.275-0.112c-0.507,0.403-1.075,0.639-1.404,1.423c-0.329,0.785-0.326,1.413-0.894,1.468
		c-0.567,0.052-0.87-0.217-1.764-0.414c-0.892-0.195-1.383,0.08-1.761-0.412c-0.381-0.491-1.059-0.627-1.509-0.389
		c-0.447,0.238-0.148,0.381-1.315,0.397c-1.172,0.019-1.575,0.302-2.271-0.455c-0.332-0.359-0.449-0.406-0.532-0.491
		c-0.091-0.09-0.138-0.225-0.379-0.877c-0.463-1.24-0.293-1.44-0.888-1.624c-0.599-0.183-1.939-0.554-2.274-0.458
		c-0.332,0.099-0.016,1.306-0.762-0.066c-0.749-1.374-1.105-1.001-0.847-2.136c0.26-1.133,0.94-2.71,0.54-3.3
		c-0.403-0.592-0.814-0.779-1.676-1.435c-0.861-0.658-1.193-0.666-1.675-1.437c-0.483-0.769-0.124-2.324-0.014-2.833
		c0.11-0.51,0.236-0.327,0.34-1.001c0.107-0.675,0.069-0.847-0.378-1.577c-0.447-0.732-0.872-0.889-0.911-1.369
		c-0.038-0.483-0.724-0.37,0.11-1.278c0.831-0.911,1.958-1.89,1.958-1.89s-0.382,0.009-0.722-0.579
		c-0.343-0.584-0.831-0.502-0.422-1.067C67.688,36.134,68.751,35.884,69.638,36.134z"/>
	<path style="fill-rule:evenodd;clip-rule:evenodd;fill:#9AB661;" d="M106.011,46.251c0,0,1.056,1.33,1.056,1.638
		c0.003,0.307,0.469,0.617-0.143,1.135c-0.611,0.521-0.837,0.302-0.925,0.922c-0.085,0.617,0.115,1.577,1.127,1.988
		c1.013,0.409,1.652-0.949,1.622,0.782c-0.027,1.73,0.436,1.47-0.503,2.126c-0.938,0.653-1.179,0.043-1.272,0.987
		c-0.093,0.943-0.584,1.248,0.346,1.769c0.93,0.521,1.503,1.758,0.56,1.909s-2.603,1.289-2.754,0.914
		c-0.153-0.374-0.586-1.122-1.272,0.071c-0.685,1.189-1.563,2.525-1.911,2.396c-0.346-0.125-0.28,1.44-1.838,0.917
		c-1.555-0.521-1.599-1.158-2.117-1.413c-0.518-0.258-0.688-1.314-1.555-0.425c-0.867,0.888-0.412,0.743-1.344,1.552
		c-0.933,0.809-1.01,1.19-1.84,0.916c-0.832-0.274-0.305-0.34-1.275-0.847c-0.969-0.508-0.958-0.351-1.063-0.708
		c-0.104-0.359-0.354-0.65-0.214-1.062c0.143-0.412,2.017-0.179,0.143-1.133c-1.876-0.954-3.274-0.184-3.757,0.563
		c-0.483,0.746-0.153,1.275-0.99,1.486c-0.84,0.208-1.207,0.313-1.846-0.003c-0.64-0.315-0.598,0.061-1.278-0.85
		c-0.683-0.911,0.049-1.251-1.144-1.986c-1.19-0.735-1.612-0.661-2.276-1.209c-0.663-0.549-1.004-2.203-1.004-2.203
		s-0.107-0.351,0.211-0.778c0.318-0.431,0.373-1.374-0.219-1.991c-0.593-0.617-0.596-1.023-0.862-1.498
		c-0.266-0.475-0.449-0.091-0.145-0.71c0.307-0.623,0.819-0.425,0.71-1.067c-0.109-0.645-0.046-1.256-0.575-1.925
		c-0.533-0.672-1.09-0.977-0.864-1.5c0.228-0.527,0.608-0.661,1.209-1.352c0.601-0.691,0.595-1.256,1.21-1.352
		c0.611-0.096,1.062-0.628,1.066-1.142c0.006-0.51-0.263-0.315,0.28-1.354c0.546-1.042,0.493-1.536,1.495-1.783
		c1-0.247,0.329-0.332,1.64-0.134c1.313,0.194,1.406,0.444,1.856,0.005c0.447-0.436,1.418-1.437,1.492-1.78
		c0.076-0.343-1.139-0.652,0.428-0.642c1.566,0.011,1.41-0.485,2.282,0.296c0.869,0.782,1.925,2.15,2.636,2.084
		c0.71-0.066,1.072-0.34,2.063-0.778c0.99-0.437,1.157-0.725,2.063-0.776c0.904-0.049,2.092,1.023,2.487,1.368
		c0.392,0.346,0.17,0.365,0.708,0.788c0.539,0.419,0.707,0.472,1.561,0.433c0.855-0.038,1.195-0.337,1.631-0.134
		c0.439,0.2,0.673-0.458,1.064,0.716c0.39,1.174,0.702,2.638,0.702,2.638s0.176-0.337,0.851-0.354
		c0.675-0.017,0.839-0.485,1.133,0.146C106.948,44.54,106.655,45.596,106.011,46.251z"/>
	<path style="fill-rule:evenodd;clip-rule:evenodd;fill:#91AF52;" d="M83.817,50.596c0,0,1.055,1.33,1.055,1.637
		c0.004,0.308,0.467,0.618-0.145,1.136s-0.836,0.302-0.922,0.919c-0.085,0.62,0.112,1.58,1.125,1.991
		c1.012,0.408,1.65-0.949,1.624,0.782c-0.028,1.73,0.436,1.47-0.503,2.123c-0.938,0.656-1.18,0.044-1.275,0.99
		c-0.093,0.943-0.581,1.245,0.349,1.769c0.93,0.521,1.501,1.758,0.56,1.909c-0.943,0.151-2.603,1.286-2.756,0.914
		c-0.15-0.374-0.584-1.125-1.27,0.068c-0.687,1.193-1.563,2.529-1.912,2.4c-0.349-0.126-0.282,1.439-1.838,0.916
		c-1.558-0.521-1.599-1.158-2.117-1.413c-0.519-0.258-0.688-1.317-1.555-0.428c-0.867,0.889-0.414,0.746-1.347,1.555
		c-0.933,0.806-1.007,1.19-1.838,0.916s-0.307-0.34-1.275-0.848c-0.968-0.507-0.957-0.351-1.061-0.708
		c-0.105-0.359-0.354-0.65-0.214-1.061c0.143-0.412,2.014-0.179,0.143-1.133c-1.876-0.955-3.274-0.184-3.757,0.562
		c-0.483,0.744-0.154,1.275-0.993,1.484c-0.836,0.211-1.204,0.315-1.843,0c-0.639-0.316-0.6,0.058-1.281-0.85
		c-0.68-0.911,0.049-1.251-1.141-1.986c-1.19-0.735-1.616-0.661-2.279-1.209c-0.664-0.549-1.001-2.203-1.001-2.203
		s-0.107-0.351,0.211-0.782c0.315-0.428,0.37-1.374-0.222-1.991c-0.592-0.614-0.592-1.02-0.858-1.495
		c-0.267-0.475-0.45-0.093-0.146-0.713c0.305-0.62,0.82-0.422,0.71-1.064c-0.109-0.644-0.047-1.256-0.578-1.928
		c-0.533-0.669-1.086-0.974-0.862-1.5c0.225-0.524,0.609-0.658,1.209-1.349c0.601-0.694,0.595-1.259,1.207-1.355
		c0.614-0.096,1.064-0.625,1.067-1.138c0.005-0.51-0.264-0.315,0.282-1.355c0.546-1.042,0.494-1.536,1.495-1.783
		s0.326-0.332,1.641-0.137c1.313,0.198,1.407,0.447,1.854,0.008c0.45-0.436,1.421-1.44,1.495-1.78
		c0.077-0.343-1.138-0.653,0.428-0.642c1.566,0.008,1.41-0.485,2.282,0.297c0.87,0.781,1.923,2.149,2.636,2.084
		c0.71-0.068,1.073-0.34,2.063-0.779c0.989-0.439,1.156-0.727,2.063-0.776c0.904-0.049,2.092,1.023,2.484,1.366
		c0.395,0.346,0.17,0.368,0.71,0.79c0.538,0.419,0.708,0.472,1.562,0.433c0.853-0.038,1.192-0.337,1.631-0.137
		c0.439,0.203,0.672-0.456,1.063,0.718c0.392,1.171,0.704,2.636,0.704,2.636s0.176-0.334,0.851-0.351
		c0.675-0.016,0.839-0.485,1.133,0.146C84.755,48.884,84.462,49.94,83.817,50.596z"/>
	<path style="fill-rule:evenodd;clip-rule:evenodd;fill:#9AB661;" d="M104.99,57.751c0,0,1.056,1.328,1.056,1.637
		c0.003,0.307,0.47,0.615-0.143,1.136c-0.611,0.519-0.836,0.302-0.924,0.918c-0.086,0.617,0.115,1.58,1.127,1.989
		c1.012,0.411,1.65-0.946,1.621,0.784c-0.027,1.731,0.436,1.47-0.502,2.123c-0.938,0.653-1.18,0.044-1.272,0.987
		c-0.093,0.947-0.585,1.248,0.346,1.77c0.93,0.521,1.503,1.761,0.56,1.909c-0.944,0.151-2.604,1.29-2.754,0.916
		c-0.154-0.372-0.587-1.124-1.273,0.069c-0.686,1.192-1.563,2.525-1.911,2.399c-0.345-0.129-0.282,1.438-1.838,0.916
		c-1.555-0.523-1.599-1.157-2.116-1.415c-0.52-0.255-0.689-1.313-1.556-0.425c-0.867,0.889-0.412,0.746-1.344,1.552
		c-0.933,0.81-1.009,1.192-1.841,0.919c-0.83-0.273-0.304-0.343-1.275-0.851c-0.968-0.507-0.957-0.348-1.062-0.707
		c-0.104-0.356-0.354-0.649-0.214-1.062c0.143-0.411,2.017-0.176,0.143-1.13c-1.876-0.958-3.274-0.184-3.757,0.562
		c-0.483,0.744-0.154,1.275-0.99,1.484c-0.839,0.212-1.206,0.313-1.846,0c-0.64-0.314-0.602,0.058-1.278-0.853
		c-0.683-0.911,0.047-1.251-1.144-1.983c-1.19-0.735-1.612-0.661-2.276-1.209c-0.664-0.548-1.004-2.202-1.004-2.202
		s-0.107-0.351,0.211-0.782s0.373-1.374-0.219-1.991c-0.593-0.617-0.596-1.02-0.861-1.495c-0.266-0.477-0.449-0.094-0.146-0.713
		c0.308-0.62,0.82-0.423,0.71-1.067c-0.109-0.642-0.047-1.257-0.578-1.926c-0.529-0.669-1.086-0.974-0.861-1.5
		c0.228-0.526,0.609-0.661,1.21-1.353c0.601-0.69,0.595-1.256,1.209-1.352c0.612-0.096,1.062-0.628,1.067-1.139
		c0.006-0.513-0.267-0.315,0.279-1.357c0.546-1.04,0.494-1.534,1.494-1.781c1.002-0.246,0.33-0.334,1.641-0.137
		c1.313,0.197,1.406,0.444,1.856,0.008c0.448-0.439,1.418-1.44,1.492-1.783c0.077-0.34-1.139-0.65,0.428-0.642
		c1.566,0.011,1.41-0.485,2.282,0.296c0.869,0.782,1.926,2.15,2.636,2.084c0.71-0.066,1.072-0.337,2.063-0.776
		c0.99-0.439,1.157-0.727,2.063-0.776c0.905-0.053,2.093,1.021,2.487,1.366c0.393,0.346,0.17,0.368,0.707,0.787
		c0.541,0.422,0.708,0.475,1.561,0.436c0.854-0.041,1.197-0.337,1.633-0.137c0.438,0.2,0.672-0.455,1.064,0.716
		c0.389,1.174,0.701,2.639,0.701,2.639s0.176-0.337,0.851-0.354c0.675-0.014,0.839-0.485,1.133,0.148
		C105.929,56.037,105.635,57.095,104.99,57.751z"/>
	<path style="fill-rule:evenodd;clip-rule:evenodd;fill:#91AF52;" d="M121.35,66.591c0,0-0.013,1.714-0.205,1.955
		c-0.194,0.241-0.024,0.779-0.831,0.795c-0.809,0.014-0.845-0.302-1.303,0.129c-0.459,0.428-0.91,1.306-0.379,2.277
		c0.532,0.971,1.893,0.314,0.773,1.654c-1.116,1.338-0.587,1.434-1.736,1.343c-1.148-0.091-0.951-0.727-1.623-0.046
		c-0.67,0.68-1.245,0.603-0.848,1.612c0.395,1.007,0.058,2.345-0.773,1.857c-0.834-0.489-2.853-0.667-2.734-1.057
		c0.118-0.393,0.258-1.259-1.034-0.765c-1.292,0.493-2.821,0.976-3.011,0.652c-0.192-0.323-1.133,0.945-2.014-0.464
		c-0.878-1.409-0.508-1.934-0.748-2.468c-0.242-0.532,0.299-1.468-0.938-1.328c-1.234,0.138-0.792,0.318-2.027,0.352
		c-1.233,0.036-1.535,0.285-2.005-0.461c-0.471-0.746-0.021-0.463-0.449-1.479c-0.425-1.015-0.519-0.886-0.373-1.229
		c0.148-0.346,0.14-0.732,0.507-0.962c0.37-0.233,1.671,1.146,0.829-0.793c-0.845-1.939-2.414-2.227-3.259-1.956
		c-0.842,0.271-0.925,0.895-1.702,0.524c-0.78-0.371-1.125-0.521-1.419-1.174c-0.294-0.65-0.499-0.334-0.447-1.473
		c0.055-1.138,0.831-0.938,0.379-2.262c-0.45-1.325-0.823-1.533-0.985-2.377c-0.162-0.845,0.623-2.337,0.623-2.337
		s0.14-0.34,0.652-0.472c0.516-0.131,1.152-0.829,1.09-1.676c-0.066-0.85,0.186-1.163,0.282-1.698
		c0.097-0.532-0.288-0.354,0.337-0.639c0.625-0.288,0.895,0.187,1.215-0.378c0.321-0.565,0.758-0.998,0.771-1.846
		c0.013-0.851-0.223-1.435,0.281-1.698c0.506-0.263,0.884-0.128,1.778-0.285c0.896-0.156,1.245-0.592,1.776-0.282
		c0.533,0.31,1.213,0.181,1.537-0.211c0.326-0.39-0.003-0.409,1.068-0.866c1.073-0.461,1.345-0.875,2.27-0.439
		c0.438,0.208,0.564,0.208,0.672,0.252c0.117,0.052,0.211,0.159,0.677,0.672c0.889,0.973,0.807,1.223,1.427,1.168
		c0.622-0.057,1.999-0.222,2.273-0.439c0.274-0.213-0.472-1.214,0.732-0.224c1.203,0.989,1.396,0.507,1.579,1.659
		c0.185,1.152,0.14,2.875,0.733,3.269c0.592,0.398,1.047,0.417,2.089,0.702c1.045,0.283,1.358,0.167,2.093,0.7
		c0.735,0.532,0.987,2.115,1.075,2.633c0.091,0.516-0.099,0.392,0.058,1.062c0.153,0.667,0.252,0.814,0.943,1.327
		c0.691,0.51,1.144,0.494,1.36,0.93c0.217,0.434,0.812,0.072,0.378,1.234c-0.433,1.16-1.113,2.501-1.113,2.501
		s0.352-0.151,0.889,0.266c0.537,0.42,0.963,0.157,0.793,0.837C123.166,65.853,122.269,66.489,121.35,66.591z"/>
	<path style="fill-rule:evenodd;clip-rule:evenodd;fill:#F8DC7C;" d="M17.95,78.291c0,0-5.362-14.55,5.968-22.844
		c0.002-0.305,14.694-7.954,26.176,1.069C49.967,56.808,17.95,78.291,17.95,78.291z"/>
	<path style="fill-rule:evenodd;clip-rule:evenodd;fill:#F8EBC0;" d="M19.39,77.325c5.842-3.922,27.604-18.548,30.404-20.578
		c-10.918-7.677-24.393-0.699-24.395-0.414C16.09,63.099,18.487,74.215,19.39,77.325z"/>
	<path style="fill-rule:evenodd;clip-rule:evenodd;fill:#F8DC7C;" d="M21.778,75.721l11.687-7.866c-2.581-0.534-9.19-1.9-9.155-1.87
		c-1.391-0.321-2.181,0.554-2.181,0.554l-0.021-0.027C21.09,69.975,21.356,73.401,21.778,75.721z M34.523,67.142l0.406-0.274
		c-1.149-1.67-5.519-8.011-5.538-7.932c-0.425-0.428-1.325-0.345-1.827-0.258c-2.038,1.539-3.442,3.313-4.391,5.154
		c-0.154,1.706,1.136,1.418,1.136,1.418L34.523,67.142z M48.292,57.798c-3.146-1.706-6.43-2.247-9.422-2.189
		c-0.746,0.233-0.762,0.749-0.762,0.749l-1.338,9.267C41.512,62.425,45.925,59.432,48.292,57.798z M37.382,56.788
		c0.101-0.584-0.593-0.974-0.711-1.034c-2.562,0.291-4.794,0.952-6.385,1.558c-0.252,0.587-0.167,1.193-0.167,1.193l5.504,7.896
		l0.415-0.28C36.378,63.809,37.425,56.725,37.382,56.788z"/>
	<path style="fill-rule:evenodd;clip-rule:evenodd;fill:#B39253;" d="M64.69,53.862c0.102,2.254,0.12,2.94,0.195,4.287
		c0.074,1.347,0.283,1.284,0.142,2.411c-0.137,1.127,0.247,1.309-0.175,2.159c-0.422,0.85-0.977,1.624-1.725,2.756
		c-0.752,1.133-0.425,1.336-1.726,2.757c-1.303,1.423,0.392,1.563-3.272,3.348c-3.653,1.783-5.107,2.273-6.391,2.645
		c-1.281,0.373-2.759,0.516-3.706,0.666c-0.943,0.151-1.881,0.044-3.466,0.387c-1.583,0.34-3.088,1.098-4.449,0.955
		c-1.358-0.144-3.832-1.554-4.421-2.255c-0.59-0.702-1.733-1.715-1.818-2.869c-0.085-1.152-0.631-3.719-0.34-5.31
		c0.291-1.588-0.03-1.226,0.546-3.209c0.573-1.983,0.883-2.605,1.609-3.25c0.727-0.642,1.353-1.418,2.323-2.219
		c0.971-0.801,1.231-1.177,2.411-1.695c1.182-0.516,2.307-0.988,2.729-1.443s-0.958,0.313,1.659-1.401
		c2.62-1.714,2.924-1.815,3.725-2.024c0.797-0.208,1.478-0.296,1.752-0.875c0.274-0.579,0.26-2.063-0.135-2.386
		c-0.397-0.324-0.255-1.429,0.269-1.607c0.524-0.179,0.88-0.318,1.618-0.074c0.738,0.244,3.464-0.104,4.013-0.452
		c0.548-0.349,0.485-0.45,1.308-0.327s1.245,0.589,1.904,1.511c0.658,0.921,0.526,1.662,1.454,2.07
		c0.927,0.406,1.692,0.927,2.227,1.772C63.489,51.031,64.509,49.811,64.69,53.862z"/>
	<path style="fill-rule:evenodd;clip-rule:evenodd;fill:#A7884D;" d="M56.059,45.163c-0.543,0.345-3.223,0.691-3.99,0.458
		c0.061,0.093,0.121,0.194,0.26,0.304c0.365,0.293,0.318,0.499,0.48,0.749c0.159,0.25,0.513,0.409,1.062,0.483
		c0.546,0.071,1.006-0.047,1.821-0.003c0.815,0.042,0.604-1.339,1.037-1.722c0.192-0.167,0.258-0.39,0.311-0.636
		C56.55,44.751,56.52,44.872,56.059,45.163z M50.458,51.341c0.264-0.436-0.09-0.803-0.296-1.451
		c-0.326,0.397-0.929,0.488-1.62,0.666c-0.801,0.209-1.105,0.31-3.725,2.024c-2.616,1.714-1.236,0.946-1.659,1.401
		s-1.547,0.927-2.729,1.443c-1.18,0.518-1.44,0.894-2.411,1.695c-0.971,0.801-1.597,1.577-2.323,2.219
		c-0.727,0.645-1.036,1.267-1.609,3.25c-0.576,1.983-0.255,1.621-0.546,3.209c-0.021,0.121-0.039,0.244-0.052,0.376
		c0.203-0.346,0.433-0.71,0.688-1.067c0.877-1.226,0.304-0.965,0.636-1.664c0.33-0.703,1.024-2.444,1.704-2.981
		c0.68-0.541,1.048-0.845,2.257-1.443c1.207-0.595,0.667-0.672,1.286-1.139c0.623-0.465,0.875-0.627,1.687-1.182
		c0.815-0.557,0.946-0.57,1.947-0.612c0.999-0.041,0.754-0.482,1.111-0.921l1.075-1.319c0.417-0.513,0.523-0.79,1.072-1.319
		C47.502,52,47.59,52.191,48.105,52C48.624,51.811,50.113,51.912,50.458,51.341z M63.362,50.524
		c-0.151-0.063-0.293-0.151-0.411-0.335c-0.535-0.845-1.3-1.366-2.227-1.772c-0.206-0.09-0.357-0.197-0.477-0.318
		c-0.107,0.126-0.17,0.258-0.157,0.37c0.046,0.387-0.998,0.302-1.387,0.354c-0.387,0.053-3.706,1.416-3.706,1.416
		s0.453,0.159,0.842,0.307c0.387,0.151,2.677-0.592,3.39-0.573c0.713,0.02,1.462-0.313,1.609-0.179
		c0.146,0.135-0.66,0.615-0.721,0.883c-0.061,0.271-0.332,0.093-2.329,1.062s-0.362,0.442-0.362,0.442l-0.14,0.617
		c0,0-0.686,0.449-0.941,0.707c-0.255,0.259-0.76,0.486-0.76,0.486s-2.433,3.247-1.401,2.161c1.034-1.083,1.037-1.212,1.843-1.807
		c0.807-0.596,1.336-0.491,2.146-0.84c0.812-0.345,0.847-0.258,1.568-0.573c0.721-0.315,1.094-0.839,2.068-1.634
		C62.488,50.743,63.072,50.576,63.362,50.524z M44.567,75.276c1.102-0.238,1.892-0.261,2.591-0.302
		c-0.672-0.636-1.289-1.113-1.355-1.832c-0.063-0.735-0.159-1.596-0.159-1.596s-0.524-0.7-0.519-1.155
		c0.003-0.455,0.944-1.604,1.215-1.939c0.271-0.337,1.018-0.025,0.76-0.482c-0.258-0.456-0.521-1.152-0.521-1.152
		s-0.384,0.168,0.318-0.839c0.705-1.007,0.894-1.111,1.259-1.542c0.364-0.428,1.944-0.697,1.116-0.921
		c-0.826-0.222,0.499-1.059,0.499-1.059s-2.449,0.996-3.294,1.355c-0.842,0.357-0.968-0.085-1.154,0.521
		c-0.189,0.609-0.277,0.626-0.279,1.237c-0.003,0.612,0.098,1.149-0.239,1.632c-0.337,0.485-0.203,0.573-1.294,1.141
		c-1.089,0.57-2.032,0.971-2.488,1.265c-0.455,0.291-1.088,0.636-0.538,0.658c0.236,0.008,0.307-0.039,0.378-0.039
		c0.096,0.003,0.187,0.096,0.675,0.532c0.853,0.759,0.639,2.406,1.075,2.707c0.436,0.305,1.171,0.207,1.673,0.637
		c0.422,0.362,0.074,0.848,0.198,1.19L44.567,75.276z M60.378,70.17c0.59-0.637,0.184-1.021,1.023-1.939
		c0.252-0.277,0.444-0.508,0.595-0.708c-1.022,0.049-2.378,0.099-2.896,0.099c-0.826-0.003-1.75-0.088-2.476-0.012l-0.011,0.003
		c0.219,0,0.42,0.08-2.106,0.771c-3.821,1.044-5.606,1.415-5.606,1.415s3.138,0.395,4.139,0.379c1.004-0.014,1.972-0.39,2.959-0.587
		c0.988-0.194,0.59-0.519,1.63-0.172C58.272,69.632,59.517,69.953,60.378,70.17z M64.939,58.796
		c-0.022-0.176-0.041-0.384-0.055-0.647c-0.052-0.957-0.077-1.58-0.124-2.671c-0.146-0.159-0.252-0.252-0.293-0.236
		c-0.195,0.091-0.705,0.414-1.53,0.974c-0.826,0.56-0.552-0.074-1.029-0.09c-0.477-0.017-1.015,0.041-1.431-0.046
		c-0.417-0.091-0.557,0.529-0.905,1.105c-0.346,0.574-0.614,0.604-1.706,1.19c-1.092,0.587-0.743,0.014-2.008,0.217
		c-1.264,0.2-1.177,0.392-1.484,1.366c-0.304,0.971-1.527,1.572-2.021,2.026c-0.494,0.456,0.102,0.327,0.623,0.138
		c0.521-0.192,2.476-1.542,2.866-1.717c0.386-0.176,1.399-0.214,2.591-0.478c1.193-0.261,0.584-0.264,1.166-0.527
		c0.584-0.263,0.53-0.798,1.893-1.412c1.363-0.618,0.814,0.652,1.738,1.025C64.081,59.355,63.861,58.842,64.939,58.796z
		 M56.604,67.613c-0.063,0.003-0.124,0.009-0.124,0.012C56.48,67.625,56.514,67.625,56.604,67.613z"/>
	<path style="fill-rule:evenodd;clip-rule:evenodd;fill:#B39253;" d="M73.179,51.882c-1.682,1.138-3.327,3.823-3.327,3.823
		s-1.594,0.499-2.666,1.483c-1.072,0.985-0.776,0.609-1.223,0.894c-0.447,0.283-2.521,1.396-3.058,2.233
		c-0.534,0.836-0.804,2.142-1.873,3.22c-1.067,1.078-2.337,2.63-2.26,3.963c0.077,1.33-0.242,2.775-0.077,3.746
		c0.162,0.974-0.165,0.922,0.702,2.249c0.864,1.331,3.288,3.383,4.786,3.396c1.495,0.014,1.322-0.717,2.562-0.949
		c1.24-0.233,0.892-0.738,2.778-0.65c1.884,0.091,3.261-0.126,4.465,0.408c1.201,0.533,2.66,0.837,3.547,1.067
		c0.885,0.233,3.63,0.549,3.63,0.549s1.94-0.2,3.377-1.089c1.438-0.892,2.715-2.079,3.13-2.729c0.416-0.65,1.952-1.216,2.312-2.592
		c0.358-1.374,0.024-2.598,1.031-4.396c1.009-1.802,1.453-2.831,2.381-4.474c0.924-1.646,1.64-0.995,1.895-3.208
		c0.255-2.222,0.573-1.717,0.552-3.157c-0.022-1.437-0.578-2.794-0.578-2.794s0.172-1.36-1.287-1.827
		c-1.459-0.466-0.31-1.352-2.819-0.713c-2.51,0.642-2.651,0.011-2.825-0.71c-0.173-0.724-1.769-1.125-3.872-0.877
		c-2.106,0.247-1.042,0.293-3.321,0.57c-2.277,0.277-3.426,0.664-3.934,1.018C76.696,50.686,74.865,50.741,73.179,51.882z"/>
	<path style="fill-rule:evenodd;clip-rule:evenodd;fill:#A7884D;" d="M89.884,71.201c0.038-0.093,0.071-0.192,0.099-0.296
		c0.358-1.374,0.024-2.598,1.031-4.396c1.009-1.802,1.453-2.831,2.381-4.474c0.751-1.338,1.366-1.157,1.706-2.235l-0.442,0.088
		c0,0-0.872,0.313-1.67,0.68c-0.796,0.368-0.905,0.063-1.401,0.38c-0.499,0.319-0.57,1.32-1.286,2.077s-0.431,0.886-0.491,1.171
		c-0.063,0.282-0.039,0.584,0.077,1.129c0.114,0.549-0.681,1.528-1.001,2.057c-0.321,0.532-0.346,1.237-0.151,2
		c0.198,0.765,0.461,0.757,0.952,1.354C89.831,70.916,89.884,71.063,89.884,71.201z M62.268,61.624
		c-0.255,0.559-0.562,1.163-1.053,1.72l-0.008,0.526c0,0,1.003,0.395,2.355,0.977c1.353,0.584,0.897,0.263,1.462,0.469
		c0.563,0.206,0.751,0.34,1.462,0.469c0.708,0.129,0.738-0.318,1.097-0.642c0.359-0.327,1.1-0.645,1.1-0.645
		s-0.439-0.102-0.894-0.507c-0.456-0.406-1.18,0.518-1.668,0.683c-0.488,0.161-0.699-0.176-1.176-0.488
		c-0.477-0.316-1.703-0.81-2.375-1.262C62.197,62.674,62.193,62.092,62.268,61.624z M88.833,50.475
		c-0.343-0.173-0.416-0.502-0.502-0.85c-0.011-0.042-0.024-0.083-0.043-0.121l-0.059,0.011c0,0-1.143,0.963-1.346,1.229
		c-0.201,0.267-0.505,0.579-1.081,0.927c-0.573,0.348-0.779,0.845-1.363,0.946s-1.761,0.389-1.952,0.702
		c-0.192,0.315-0.491,1.173-0.491,1.173s-0.267,0.642-1.081,0.927c-0.814,0.283-1.138,0.077-1.138,0.077s0.14-0.442-0.571,0.039
		c-0.707,0.48-1.185,0.244-1.362,0.946c-0.179,0.702,1.261,0.288,0.079,1.133c-1.185,0.844-0.441,0.873-1.365,0.946
		c-0.925,0.074-1.973,0.419-1.973,0.419s-0.981,2.063-0.979,2.339c0,0.28-1.873,1.835-1.873,1.835s2.38-0.48,2.806-0.76
		c0.422-0.283,0.713-0.189,1.077-0.928c0.365-0.737,0.311-1.078,0.777-1.19c0.463-0.11,0.564-0.428,1.115-0.359
		c0.555,0.066,0.672-0.214,1.404-0.381c0.732-0.167,1.758-1.13,1.893-1.549c0.135-0.423,0.164-0.461,1.061-1.21
		c0.897-0.751,1.191-1.064,1.63-1.25c0.438-0.187,1.533-1.278,1.896-1.55c0.359-0.273,0.34-0.636,1.059-1.212
		c0.721-0.573,2.125-0.984,2.199-1.286C88.704,51.254,88.792,50.732,88.833,50.475z M82.909,65.146c0.02-0.107-0.03-0.014-0.121,0.2
		C82.854,65.274,82.897,65.205,82.909,65.146z M81.567,69.018c0.109-0.672,0.908-2.921,1.221-3.672
		c-0.461,0.504-2.07,1.286-2.474,2.054c-0.464,0.88-0.902,1.438-1.324,1.512c-0.423,0.074-0.581-0.094-0.853,0.057
		c-0.271,0.154-1.704-0.409-2.012-0.148c-0.307,0.264-0.783,0.279-1.077,0.927c-0.294,0.644,0.236,0.178-0.795,0.905
		c-1.028,0.729-1.679,0.505-2.235,0.722c-0.557,0.216-1.281,0.375-1.363,0.943c-0.082,0.567-0.006,0.74,0.079,1.133
		c0.011,0.043,0.008,0.115-0.002,0.205c-0.178,0.126-0.351,0.274-0.526,0.397c-0.437,0.305-1.023,0.187-1.421,0.097
		c-0.398-0.091-0.7,0.165-1.423,0.096c-0.722-0.066-0.686,0.165-1.665,0.683c-0.979,0.519-0.845,0.39-1.382,0.661
		c-0.538,0.275-0.593,0.431-1.383,0.664c-0.137,0.038-0.261,0.071-0.373,0.099c0.582,0.324,1.149,0.534,1.624,0.538
		c1.495,0.014,1.322-0.717,2.562-0.949c1.24-0.233,0.892-0.738,2.778-0.65c0.269,0.014,0.529,0.02,0.779,0.025
		c1.497,0.019,2.654-0.074,3.686,0.383c0.168,0.074,0.34,0.144,0.515,0.209c0.201,0.077,0.409,0.148,0.615,0.214
		c0.897,0.286,1.796,0.482,2.417,0.645c0.493,0.132,1.568,0.285,2.421,0.398c0.675,0.09,1.209,0.15,1.209,0.15l0.133-0.017
		l-0.014-0.025c-0.732-1.444-0.906-2.013-1.295-2.183c-0.39-0.17-0.963-0.458-1.234-1.335c-0.274-0.878-0.422-1.462-0.138-1.979
		c0.285-0.518,1.811-1.316,1.894-1.549C80.592,69.994,81.429,69.885,81.567,69.018z"/>
	<path style="fill-rule:evenodd;clip-rule:evenodd;fill:#B99A60;" d="M107.036,59.265c-0.182-0.785-1.374-2.23-2.771-2.814
		c-1.397-0.587-2.161-1.399-3.425-0.825c-1.265,0.573-1.893,0.337-2.633,1.023c-0.744,0.686-0.579,0.699-1.992,1.459
		c-1.412,0.76-1.752,0.208-2.685,1.363c-0.933,1.152-1.473,1.805-1.547,3.255s0.461,3.464,0.979,5.34
		c0.518,1.876-0.044,2.965-0.209,3.785c-0.164,0.821-0.559,1.46-0.749,2.669c-0.191,1.212-0.595,2.167-1.099,2.619
		c-0.505,0.455-1.85,0.943-2.335,1.409c-0.485,0.467-0.402,3.747-0.507,5.818c-0.107,2.067,3.67,3.784,5.241,5.225
		c1.574,1.439,1.89,2.619,3.461,2.901s2.172,0.395,3.47,0.482c1.294,0.085,3.406-1.114,4.168-1.843
		c0.761-0.729,0.456-0.785,1.395-2.23c0.938-1.445,1.261-2.58,2.191-2.811c0.926-0.228,3.425-1.599,3.425-1.599
		s0.478,0.642,0.143,1.403c-0.332,0.763-0.848,0.914-1.048,2.277s0.686,2.518,0.686,2.518s1.229,0.886,1.733,0.241
		c0.502-0.647,0.729,0.104,1.243-1.213c0.513-1.316,0.334-1.354,1.05-2.276c0.716-0.921,1.095-1.3,1.396-2.229
		s0.817-1.012,1.347-1.89c0.526-0.88,1.048-2.279,1.048-2.279s0.924-3.922,1.755-4.607s1.689-0.211,0.949-1.599
		c-0.744-1.391-0.459-0.878-1.084-2.232c-0.625-1.353-1.127-1.942-1.429-2.279c-0.302-0.337,0.431,0.019-1.234-1.213
		c-1.667-1.229-2.677-1.063-2.677-1.063s-1.198-0.201-1.236-1.213c-0.039-1.015,0.147-1.609-0.338-2.477
		c-0.485-0.866-0.041-1.308-1.776-2.328c-1.739-1.023-3.321-1.503-3.321-1.503S107.217,60.052,107.036,59.265z"/>
	<path style="fill-rule:evenodd;clip-rule:evenodd;fill:#AC8F58;" d="M88.601,85.827c1.08,1.435,3.521,2.68,4.706,3.764
		c1.574,1.439,1.89,2.619,3.461,2.901l0.984,0.176c-0.117-0.184-0.232-0.387-0.326-0.617c-0.343-0.826-0.101-0.085-0.587-0.241
		c-0.488-0.157-0.318-0.453-0.343-0.829c-0.024-0.375-0.702-0.519-0.91-0.787c-0.209-0.269-0.505-0.438-0.626-0.806
		c-0.12-0.37-0.227-0.552-0.645-1.092c-0.416-0.538-0.285,0.02-0.586-0.244c-0.305-0.261-0.684-0.236-0.911-0.787
		s0.282-0.02,0.567-0.038c0.285-0.02,0.359-0.308,0.226-0.867c-0.132-0.557-0.253-0.927-0.36-1.107
		c-0.109-0.184-0.948,0.063-1.138,0.076C91.957,85.339,89.936,85.671,88.601,85.827z M104.766,90.742
		c0.329-0.425,0.293-0.699,1.034-1.841c0.938-1.445,1.261-2.58,2.191-2.811c0.926-0.228,3.425-1.599,3.425-1.599
		s0.077,0.104,0.148,0.279c0.146-0.188,0.299-0.368,0.455-0.516c0.538-0.511,0.335-0.686,0.228-0.866
		c-0.107-0.182-1.042,0.07-1.687,0.397c-0.642,0.329-0.825,0.436-1.646,0.963c-0.82,0.528-1.227,0.178-1.726-0.165
		s-0.263,0.302-0.529,0.604c-0.266,0.302-0.334,0.683-0.49,1.166c-0.159,0.484-0.146,0.672-0.476,1.451
		c-0.326,0.777-0.501,0.979-0.754,1.467C104.771,89.602,104.76,90.344,104.766,90.742z M116.402,85.762
		c0.079-0.165,0.147-0.343,0.217-0.549c0.302-0.93,0.817-1.012,1.347-1.89c0.526-0.88,1.048-2.279,1.048-2.279
		s0.924-3.922,1.755-4.607c0.661-0.545,1.341-0.356,1.218-0.957c-0.501-0.311-1.154-0.496-1.462-0.595
		c-0.485-0.157-1.174-0.489-1.174-0.489s0.195,1.501-0.17,1.715c-0.367,0.214-0.834,1.758-0.701,2.317
		c0.131,0.56,0.183,1.311,0.111,1.694c-0.068,0.382-0.985,0.917-1.039,1.49c-0.058,0.57-0.305,1.154-0.722,2.031
		c-0.417,0.881-0.491,1.169-0.437,2.017L116.402,85.762z M107.036,59.265c-0.097-0.415-0.475-1.012-1.018-1.572
		c0.006,0.096-0.011,0.192-0.058,0.285c-0.22,0.438-0.249,0.708-0.776,1.19c-0.529,0.485-0.222,0.371-1.062,1.209
		c-0.839,0.839-1.497,1.519-1.573,2.098c-0.077,0.576,0.052,2.474,0.191,2.828c0.143,0.354,0.702,2.098,0.762,2.79
		c0.062,0.691,0.313,0.573,0.549-0.321c0.239-0.895,0.406-1.116,0.719-2.038c0.313-0.925,0.059-1.714,0.7-2.321
		c0.644-0.608-1.175-0.488-1.175-0.488s0.217-0.46,0.529-0.606c0.313-0.145,0.253-0.334,0.529-0.603
		c0.28-0.271,0.324-0.107,0.837-0.343c0.513-0.233,1.138-1.116,1.934-0.985c0.065,0.011,0.143,0.022,0.226,0.031
		C107.933,60.239,107.168,59.833,107.036,59.265z M117.061,68.535c-1.119-0.593-1.767-0.485-1.767-0.485s-1.198-0.201-1.236-1.213
		c-0.039-1.015,0.147-1.609-0.338-2.477c-0.244-0.433-0.252-0.762-0.42-1.107c-0.073,0.082-0.137,0.228-0.093,0.485
		c0.088,0.513,0.323,0.984,0.097,1.415c-0.229,0.431-0.64,0.998-1.043,1.492c-0.406,0.491-0.611,0.611-0.775,1.188
		c-0.165,0.579,0.287,0.889-0.455,1.736c-0.744,0.845-0.479,1.125-1.857,2.114c-1.38,0.99-1.477,0.96-1.896,1.547
		c-0.417,0.59-1.192,1.306-1.021,1.774c0.17,0.466,1.627-0.776,1.912-1.267c0.288-0.491,1.089-1.101,1.629-1.245
		c0.541-0.148,0.5,0.126,1.119-0.362c0.62-0.485,0.951-0.499,1.629-1.245c0.681-0.749-0.902-0.271,0.776-1.19
		c1.679-0.916,1.849-1.517,2.768-1.322C116.312,68.417,116.657,68.475,117.061,68.535z M92.006,74.52
		c-0.152,0.957-0.436,1.753-0.794,2.271c0.452-0.153,1.25-0.287,1.439-0.293c0.233-0.006,1.171,0.065,1.687-0.397
		c0.513-0.464,0.521-0.302,0.796-0.905c0.271-0.604,0.4-0.913,0.734-1.752c0.334-0.843,0.779-1.093,1.324-1.512
		c0.549-0.42,0.99-1.001,0.796-0.905c-0.195,0.093-1.204-1.237-1.536-1.599s-0.302-0.911-0.667-1.376
		c-0.364-0.464-1.834-1.01-2.388-1.542c-0.511-0.485-1.154-1.678-1.259-1.874c0.187,1.089,0.507,2.285,0.825,3.431
		c0.518,1.876-0.044,2.965-0.209,3.785C92.591,72.672,92.196,73.311,92.006,74.52z"/>
	<path style="fill-rule:evenodd;clip-rule:evenodd;fill:#B99A60;" d="M88.106,83.616c-1.623-2.805-3.259-3.905-3.259-3.905
		s-1.033-0.178-1.417-1.209c-0.385-1.031-0.096-1.473-1.383-2.021c-1.286-0.552-2.06-1.327-2.871-1.61
		c-0.813-0.285-1.689-0.76-3.226-0.979c-1.536-0.217-4.199-1.13-5.529-0.604c-1.33,0.523-1.602,0.79-3.475,0.963
		c-1.87,0.172-4.271-0.608-5.244,0.384c-0.974,0.996-1.607,4.098-2.828,5.065c-1.22,0.965-1.604,0.146-1.876,1.857
		c-0.272,1.708,0.206,3.279,0.115,5.046c-0.09,1.763-0.526,3.173-0.206,4.862c0.323,1.693,0.184,1.805,0.998,3.462
		c0.815,1.659,1.374,2.935,2.625,3.543c1.251,0.609,2.493,0.916,4.323,2.003c1.827,1.086,3.229,2.108,5.628,1.908
		c2.403-0.203,3.609-0.264,4.777-1.059c1.169-0.795,1.618-1.476,2.866-2.129c1.248-0.649,2.301-1.299,3.291-0.644
		s2.328,1.256,2.691,1.923c0.361,0.663-0.271,0.94,1.271,0.713c1.548-0.23,4.367-1.175,4.496-2.047
		c0.131-0.871,0.117-0.592,0.743-2.073c0.628-1.48,2.692-1.634,1.949-3.475c-0.743-1.837-0.984-1.98-1.982-3.185
		c-0.999-1.206-1.859-2.468-1.983-3.189C88.479,86.499,88.271,84.552,88.106,83.616z"/>
	<path style="fill-rule:evenodd;clip-rule:evenodd;fill:#AC8F58;" d="M59.468,97.64c0.299,0.346,0.642,0.625,1.064,0.831
		c1.251,0.609,2.493,0.916,4.323,2.003c1.827,1.086,3.229,2.108,5.628,1.908c2.403-0.203,3.609-0.264,4.777-1.059
		c1.169-0.795,1.618-1.476,2.866-2.129c1.248-0.649,2.301-1.299,3.291-0.644s2.328,1.256,2.691,1.923
		c0.298,0.548-0.08,0.83,0.641,0.786c0.123-0.501,0.195-0.981,0.099-1.271c-0.241-0.739-1.28-0.667-2.122-1.838
		c-0.842-1.169-0.154-0.84-0.949-1.35c-0.798-0.513-0.285,0.019-1.988,0.134c-1.703,0.116-1.117,0.359-1.665,0.681
		c-0.549,0.321-1.034,0.165-1.703,0.115s-0.578-1.471-0.686-1.651c-0.107-0.184-0.927,0.346-1.321,1.506
		c-0.396,1.16-0.305,1.059-1.605,1.525c-1.3,0.466-0.608,0.795-1.037,1.486c-0.427,0.688-0.649,0.232-1.135,0.076
		c-0.488-0.155-0.96-0.123-1.744-0.446c-0.781-0.323-0.702-0.519-0.93-1.07c-0.228-0.551,0.063-0.477-0.06-0.845
		c-0.121-0.369-0.985-0.499-1.155-0.205c-0.17,0.296-0.162,0.389-0.508,0.883c-0.346,0.496-0.184,0.107-0.834,0.341
		c-0.647,0.232-0.891-0.505-0.891-0.505s-0.702-0.52-1.478-0.749c-0.776-0.23-0.883-0.411-1.742-0.447
		C60.696,97.604,60.061,97.673,59.468,97.64z M88.106,83.616l-0.132-0.224c-0.17,0.271-0.425,0.666-0.716,1.074
		c-0.521,0.735-0.817,1.729-1.224,2.126c-0.405,0.397-1.297,1.338-1.609,1.471c-0.313,0.131-1.144,0.838-1.999,0.816
		c-0.346-0.011-2.12-0.455-1.101,0.038c1.023,0.497-0.946,0.103-0.946,0.103l0.072,1.015c0,0,2.073-1.064,3.725-0.596
		c1.653,0.472,2.515-0.074,3.434,0.107c0.918,0.181,1.327,0.605,1.774,0.899c0.384,0.255,1.661,1.22,2.507,1.676
		c-0.344-0.615-0.672-0.949-1.306-1.715c-0.999-1.206-1.859-2.468-1.983-3.189C88.479,86.499,88.271,84.552,88.106,83.616z
		 M83.751,79.056c-0.126-0.148-0.238-0.332-0.32-0.554c-0.28-0.755-0.203-1.193-0.645-1.591l-0.102-0.019
		c0,0-0.109,0.188-0.529,0.605c-0.42,0.414-1.456,0.598-1.932,0.981c-0.477,0.385-1.708,0.606-1.911,1.265
		c-0.206,0.661,0.4,1.725-0.696,2.317c-1.098,0.592-1.122,0.911-2.762,1.322c-1.643,0.414-4.63-0.088-3.695,0.252
		c0.933,0.34,1.482,0.382,2.617,0.672c1.133,0.291,2.375,0.561,2.898,0.653c0.523,0.096,1.298,0.438,1.685-0.397
		c0.39-0.837,0.091-0.691,0.796-0.906c0.704-0.21-0.056-0.32,0.754-1.469c0.809-1.146,0.543-1.271,1.321-1.51
		c0.782-0.235,2.087-1.467,2.46-1.585C83.716,79.089,83.734,79.075,83.751,79.056z M61.599,74.75c-0.916,1.1-1.546,4.018-2.723,4.95
		c-0.296,0.233-0.546,0.362-0.752,0.449c0.447,0.221,1.183,0.64,1.714,0.854c0.73,0.291,0.417,0.826,1.767,0.729
		c1.35-0.093,2.408-0.773,3.126-0.211c0.718,0.562,1.479,0.749,1.479,0.749s0.392,0.145-0.343-0.826
		c-0.735-0.974-1.81-1.774-2.186-2.69c-0.378-0.913-0.538-0.853-0.993-1.917C62.381,76.116,61.887,75.241,61.599,74.75z
		 M57.104,85.415c0.022,0.388,0.03,0.782,0.011,1.188c-0.028,0.519-0.085,1.003-0.143,1.476c0.669,0.027,1.547,0.115,2.063,0.373
		c0.921,0.455,0.762,0.053,1.442,0.017s1.369,0.455,1.958,0.616c0.586,0.162,0.611,0.984,2.06,2.408
		c1.445,1.422,0.853,0.519,0.853,0.519l0.587-0.502c0,0,0.724,0.042,1.618,0.7s1.037,0.313,1.53,0.355
		c0.494,0.047,2.118-0.145,2.118-0.145l-0.71-0.324c-1.023-0.466-2.968-1.344-4.569-2.035c-2.291-0.984-1.056-0.948-1.457-1.461
		c-0.403-0.516-3.735-1.495-5.623-2.279C58.075,86,57.507,85.682,57.104,85.415z"/>
	<path style="fill-rule:evenodd;clip-rule:evenodd;fill:#B99A60;" d="M42.085,94.56c0,0,0.812,0.631,1.854,0.357
		c1.045-0.274,1.248,0.507,2.551-0.274c1.302-0.782,2.46-1.811,2.899-2.109c0.436-0.302,0.936-0.905,1.157-2.065
		c0.225-1.16,0.702-2.178,1.218-3.39c0.519-1.21,1.385-1.72,2.263-2.806c0.88-1.086,1.262-1.01,2.147-3.215
		c0.883-2.202,0.957-3.993,1.975-5.346c1.015-1.352,2.101-2.275,2.669-2.923c0.57-0.647,1.409-1.454,2.09-1.89
		c0.68-0.436,1.604-1.234,2.208-1.487c0.601-0.252,1.788-0.411,2.435-0.677c0.647-0.266,1.385-0.461,1.917-0.968
		c0.529-0.51,1.234-0.647,0.873-1.552c-0.365-0.908-1.874-2.772-2.666-3.19c-0.792-0.417-1.464-0.831-2.205-1.571
		c-0.738-0.741-4.012-2.584-4.408-3.143c-0.395-0.563-1.708-1.462-2.496-1.056c-0.787,0.405-2.224,1.11-3.02,1.714
		c-0.796,0.604-0.403,1.108-2.09,1.892c-1.687,0.785-1.843,0.165-3.02,1.714c-1.173,1.55-1.056,2-2.958,3.445
		c-1.904,1.445-1.679,1.637-4.12,2.455c-2.443,0.817-4.827,1.022-6.094,1.695c-1.267,0.669-3.201,1.753-4.408,2.97
		c-1.207,1.221-4.797,3.198-4.986,4.008c-0.189,0.806-0.694,1.473-0.925,2.874c-0.229,1.401-0.077,1.755,0.121,3.455
		c0.198,1.703,0.806,3.025,1.047,3.634c0.239,0.609,1.007,1.418,2.03,2.488c1.022,1.069-0.378,0.655,1.16,0.984
		c1.541,0.329,1.286-0.096,2.784,0.535s1.347,0.288,2.899,0.938C38.536,92.706,41.975,94.236,42.085,94.56z"/>
	<path style="fill-rule:evenodd;clip-rule:evenodd;fill:#AC8F58;" d="M50.291,91.343c0.104-0.249,0.192-0.541,0.255-0.875
		c0.225-1.16,0.702-2.178,1.218-3.39c0.519-1.21,1.385-1.72,2.263-2.806c0.88-1.086,1.262-1.01,2.147-3.215
		c0.883-2.202,0.957-3.993,1.975-5.346c1.015-1.352,2.101-2.275,2.669-2.923c0.57-0.647,1.409-1.454,2.09-1.89
		c0.285-0.184,0.612-0.428,0.938-0.669c-0.276,0.005-0.501,0.022-0.749,0.087c-0.488,0.132-1.289,0.088-2.356,0.456
		c-1.069,0.368-0.576,1.716-0.45,2.104c0.126,0.383-1.41,1.179-1.7,1.297c-0.288,0.118-0.686,0.146-1.166,0.376
		c-0.483,0.23-0.398,1.406-0.469,1.807c-0.072,0.398-0.514,1.219-0.514,1.219s-0.323-0.373-0.655-0.845
		c-0.332-0.47-0.943,2.136-1.001,2.731c-0.058,0.595,0.071,0.979-0.746,2.12c-0.812,1.138-0.316-0.274-0.634-0.549
		c-0.318-0.274-0.34-0.567-0.34-0.567s-0.722,1.033-0.51,1.217c0.211,0.182,0.431,0.465,0.974,1.117
		c0.545,0.652-0.241,0.803-0.51,1.215c-0.269,0.414-0.749,0.642-1.125,0.963c-0.375,0.32-0.367,0.419-1.316,2.454
		c-0.949,2.035-0.511,1.218-0.469,1.805C50.148,89.788,50.351,90.155,50.291,91.343z M30.3,89.771
		c0.713,0.851-0.444,0.501,1.004,0.812c1.541,0.329,1.286-0.096,2.784,0.535s1.347,0.288,2.899,0.938
		c1.209,0.508,3.57,1.553,4.602,2.14c-0.145-0.332-0.313-0.729-0.45-1.101c-0.247-0.671-0.776-1.129-1.61-1.664
		c-0.833-0.532-1.13-0.513-1.843-0.76c-0.713-0.247-1.641-0.678-2.797-1.582c-1.161-0.905-0.905-0.135-1.805-0.174
		c-0.896-0.038-1.166,0.377-2.331,0.749C30.588,89.717,30.437,89.752,30.3,89.771z M35.782,76.612
		c-0.282,0.578-1.069,1.852-1.042,2.139c0.03,0.291-0.524,1.231,0.148,2.061c0.672,0.831,1.511,1.363,1.93,1.938
		c0.42,0.579,0.798,1.193,1.273,1.097c0.475-0.096,0.784-0.06,0.848-0.649c0.063-0.59,0.123-1.28,0.828-0.94
		c0.705,0.337,0.434,0.337,1.229,0.507s0.869,0.82,1.805,0.173c0.933-0.65,0.752-0.555,1.421-0.984
		c0.669-0.428,3.856-1.355,4.086-2.202c0.014-0.05-4.347,0.839-4.764,1.067c-0.417,0.227-0.855,0.619-1.761,0.413
		c-0.905-0.205-0.2,0.118-0.913-0.232c-0.711-0.352-1.207-0.214-1.207-0.214s-1.852-0.274-2.101-0.153
		c-0.25,0.123-1.031-0.352-1.251-0.802c-0.222-0.449-0.436-0.252-0.063-0.883C36.619,78.315,36.062,76.03,35.782,76.612z
		 M42.743,73.771c0.022,0.011,0.068,0.014,0.135,0.008C42.751,73.757,42.697,73.752,42.743,73.771z M46.246,72.646
		c-0.4,0.403-2.746,1.092-3.368,1.132c0.556,0.103,2.523,0.527,3.472,0.341c1.16-0.23,1.5-0.055,2.057-0.437
		c0.56-0.384,0.949-0.232,1.764-0.416c0.814-0.185,3.324-1.119,4.394-1.186c1.067-0.066,0.806-1.239,0.806-1.239
		s-0.392,0.386-1.739,0.71c-0.688,0.167-2.471,1.163-1.733,0.39c0.738-0.776-0.853,0.123-1.218,0.106
		c-0.746-0.033,1.487-1.141,2.803-2.558c1.316-1.416,1.306-0.911,1.679-1.593c0.373-0.684,1.429-1.588,1.955-1.909
		c0.529-0.321,0.738-0.79,1.105-1.259c0.37-0.472,1.401-0.776,2-1.322c0.595-0.546,0.228-0.943,1.083-1.555
		c0.858-0.608,0.894-0.941,1.108-1.259c0.148-0.222,0.397-0.502,0.798-0.729c-0.987-0.639-1.947-1.265-2.15-1.552
		c-0.098-0.143-0.258-0.305-0.45-0.461c-0.121,0.138-0.194,0.307-0.148,0.504c0.137,0.595-0.891,1.915-1.023,2.438
		c-0.131,0.526-0.672,1.272-1.064,1.851c-0.395,0.579-2.575,1.262-3.187,1.402s-1.335,2.959-1.874,3.088
		c-0.535,0.126-1.9,0.447-2.63,0.771c-0.732,0.324-0.664,0.387-0.831,0.943c-0.165,0.56-0.62,1.44-1.635,2.183
		C47.206,71.776,46.687,72.199,46.246,72.646z"/>
</g>
</svg>
