<?xml version="1.0" standalone="no"?>
<!DOCTYPE svg PUBLIC "-//W3C//DTD SVG 20010904//EN"
 "http://www.w3.org/TR/2001/REC-SVG-20010904/DTD/svg10.dtd">
<svg version="1.0" xmlns="http://www.w3.org/2000/svg"
 width="931.000000pt" height="438.000000pt" viewBox="0 0 931.000000 438.000000"
 preserveAspectRatio="xMidYMid meet">

<g transform="translate(0.000000,438.000000) scale(0.100000,-0.100000)"
fill="#000000" stroke="none">
<path d="M600 4080 c0 -5 -7 -10 -15 -10 -13 0 -15 -12 -12 -71 2 -38 -1 -73
-5 -75 -5 -3 -5 -11 1 -17 5 -7 9 -30 9 -52 2 -111 5 -156 13 -161 5 -3 5 -13
-1 -24 -7 -13 -5 -24 10 -43 11 -14 20 -29 19 -34 -4 -23 5 -28 44 -28 23 0
45 5 49 10 11 14 10 93 -1 100 -5 3 -8 16 -5 30 2 13 0 26 -5 30 -15 9 -25
113 -12 128 6 8 9 16 6 19 -10 9 -12 68 -4 74 5 3 6 11 2 17 -7 12 -10 30 -14
83 -2 28 -5 30 -41 33 -21 1 -38 -3 -38 -9z"/>
<path d="M1000 4075 c0 -8 -8 -12 -20 -10 -11 2 -24 -3 -29 -13 -5 -9 -13 -14
-16 -10 -10 9 -38 -19 -31 -31 7 -11 -22 -23 -35 -15 -5 3 -9 -2 -9 -10 0 -8
-9 -20 -20 -26 -16 -8 -20 -21 -20 -60 0 -27 -4 -51 -8 -54 -7 -4 -8 -91 -2
-91 2 0 4 -13 5 -30 2 -16 4 -32 5 -35 1 -3 2 -8 1 -12 0 -5 6 -8 14 -8 8 0
15 -8 15 -18 0 -32 127 -65 157 -40 7 6 13 7 13 2 0 -5 6 -2 13 6 7 8 29 23
50 32 20 10 37 22 37 27 0 5 8 12 18 16 22 6 45 49 47 83 0 13 7 27 14 31 7 5
11 21 10 37 -2 16 0 34 4 40 7 12 -13 64 -25 64 -5 0 -8 9 -8 20 0 11 -7 20
-16 20 -8 0 -13 4 -9 9 3 6 -4 15 -15 21 -11 6 -20 18 -20 26 0 8 -5 12 -10 9
-6 -3 -14 4 -18 16 -6 15 -11 19 -16 11 -4 -7 -13 -9 -19 -5 -21 13 -57 12
-57 -2z m78 -135 c7 0 12 -9 12 -21 0 -11 4 -28 10 -38 6 -13 5 -24 -5 -37 -8
-11 -15 -27 -15 -36 0 -10 -5 -18 -11 -18 -6 0 -9 -6 -6 -14 5 -13 -9 -25 -24
-22 -3 0 -13 -5 -22 -12 -9 -8 -20 -11 -26 -8 -5 4 -16 -1 -25 -9 -13 -14 -17
-13 -34 5 -32 34 -13 180 24 180 7 0 17 6 21 13 4 7 19 21 32 30 22 15 27 15
41 2 9 -8 22 -15 28 -15z"/>
<path d="M7287 4083 c-2 -5 -4 -23 -3 -41 0 -17 -2 -32 -6 -32 -5 0 -8 -7 -8
-15 0 -8 6 -15 13 -15 7 0 8 -3 2 -8 -12 -8 -13 -52 -2 -69 5 -7 5 -19 0 -25
-4 -7 -6 -23 -4 -35 1 -13 -3 -23 -9 -23 -7 0 -7 -7 2 -22 7 -13 14 -41 15
-63 3 -84 6 -105 17 -105 7 0 12 -10 11 -22 0 -13 2 -24 5 -25 3 -1 17 -6 32
-12 18 -7 29 -7 33 0 4 5 10 7 15 4 10 -6 22 23 14 36 -3 5 0 9 6 9 7 0 7 7
-2 23 -7 12 -13 36 -15 52 -1 17 -4 55 -6 86 -2 31 -8 62 -12 68 -3 7 -2 18 5
26 6 7 7 16 2 19 -12 7 -13 105 -1 128 6 12 6 18 -1 18 -5 0 -10 7 -10 15 0
26 -80 50 -93 28z"/>
<path d="M7680 4075 c0 -8 -5 -15 -11 -15 -7 0 -20 -9 -30 -21 -10 -11 -23
-18 -28 -14 -6 3 -11 1 -11 -4 0 -6 -7 -11 -16 -11 -8 0 -13 -4 -9 -9 3 -5 -6
-18 -20 -29 -14 -11 -25 -25 -25 -32 0 -7 -8 -18 -17 -25 -14 -10 -15 -17 -7
-36 7 -15 8 -38 2 -62 -5 -22 -6 -48 -3 -58 4 -11 2 -19 -6 -19 -9 0 -9 -3 1
-15 6 -8 9 -18 6 -23 -3 -6 2 -12 13 -15 10 -2 20 -17 24 -34 7 -34 34 -45
117 -48 58 -2 80 4 80 21 0 7 12 17 27 20 34 9 110 85 119 118 3 13 13 27 21
30 10 4 12 11 7 19 -5 6 -9 38 -9 69 0 32 -3 58 -7 58 -5 0 -7 3 -6 8 4 21
-31 72 -51 72 -5 0 -13 9 -16 20 -3 11 -13 20 -21 20 -8 0 -14 5 -14 12 0 6
-3 9 -6 5 -3 -3 -17 -2 -29 3 -16 6 -25 5 -28 -3 -3 -9 -9 -9 -26 1 -18 10
-21 10 -21 -3z m100 -126 c0 -14 3 -22 17 -49 11 -21 11 -27 0 -35 -8 -5 -14
-17 -14 -25 -1 -25 -7 -44 -20 -58 -7 -7 -13 -20 -13 -28 0 -8 -6 -14 -12 -12
-7 1 -23 -3 -36 -10 -12 -7 -27 -10 -32 -7 -6 3 -10 1 -10 -4 0 -23 -28 -9
-34 17 -15 59 -17 110 -7 116 6 4 11 18 11 32 0 16 6 24 17 24 9 0 13 3 10 7
-10 9 25 32 51 33 13 0 21 4 18 8 -3 5 8 6 25 4 16 -2 29 -8 29 -13z"/>
<path d="M1875 4071 c-11 -5 -25 -6 -32 -4 -6 3 -23 -3 -37 -12 -14 -9 -27
-16 -30 -16 -18 3 -28 0 -23 -5 4 -4 -1 -14 -11 -23 -19 -17 -55 -101 -43
-101 4 0 7 -9 8 -20 1 -11 -2 -18 -8 -15 -13 8 -11 -9 2 -22 8 -8 8 -13 0 -17
-8 -5 -8 -14 1 -29 7 -12 12 -26 13 -30 0 -4 7 -12 15 -17 11 -7 11 -10 2 -10
-10 0 -10 -5 -2 -20 6 -11 17 -20 26 -20 8 0 19 -11 24 -25 5 -14 13 -24 17
-23 5 0 21 -4 37 -11 39 -16 107 -10 130 12 11 9 25 17 31 17 24 0 51 37 70
93 11 31 22 57 25 57 4 0 6 27 6 60 -1 42 -5 60 -14 60 -9 0 -10 5 -3 18 12
23 4 35 -37 56 -19 10 -30 21 -26 28 5 7 3 8 -5 4 -7 -5 -21 0 -32 10 -16 14
-24 15 -44 6 -15 -7 -25 -8 -25 -2 0 12 -7 12 -35 1z m-98 -73 c-3 -8 -6 -5
-6 6 -1 11 2 17 5 13 3 -3 4 -12 1 -19z m14 -51 c-7 -7 -15 -6 -25 3 -22 17
-9 32 16 19 14 -8 17 -14 9 -22z m164 13 c-3 -6 1 -13 9 -16 18 -7 23 -79 6
-89 -5 -3 -6 -13 -3 -22 3 -9 0 -21 -8 -27 -9 -6 -18 -19 -22 -28 -5 -14 -18
-18 -52 -18 -26 0 -44 4 -41 9 3 4 -3 16 -14 26 -16 14 -20 31 -20 81 0 61 1
63 30 69 16 4 34 4 40 0 5 -3 13 1 16 9 4 10 18 16 36 16 17 0 27 -4 23 -10z
m-225 -30 c0 -5 -4 -10 -10 -10 -5 0 -10 5 -10 10 0 6 5 10 10 10 6 0 10 -4
10 -10z"/>
<path d="M8127 4065 c-8 -8 -24 -11 -36 -8 -11 3 -21 1 -21 -5 0 -6 -16 -16
-35 -23 -22 -8 -35 -20 -35 -31 0 -10 -7 -18 -16 -18 -12 0 -15 -7 -12 -30 3
-17 1 -33 -4 -36 -5 -3 -4 -12 2 -19 7 -9 7 -15 1 -19 -11 -7 -4 -94 9 -111 4
-5 6 -19 4 -30 -1 -11 5 -27 14 -36 9 -9 24 -26 32 -38 8 -11 22 -21 32 -21
10 0 18 -4 18 -10 0 -5 9 -10 19 -10 11 0 23 -5 26 -10 5 -8 11 -8 19 -1 7 6
28 12 47 13 29 3 69 25 62 35 -4 5 44 50 61 56 11 5 16 19 16 51 0 25 5 48 10
51 6 4 10 14 9 23 -1 10 1 25 6 34 4 10 4 26 -1 35 -4 10 -6 23 -5 30 3 23
-28 83 -44 83 -9 0 -14 4 -10 9 5 10 -6 15 -62 26 -18 4 -33 12 -33 18 0 7 -4
6 -10 -3 -8 -12 -13 -13 -29 -3 -16 10 -23 10 -34 -2z m103 -127 c11 -12 18
-29 15 -39 -3 -10 0 -23 8 -30 12 -12 12 -15 0 -28 -8 -7 -12 -20 -9 -28 3 -8
1 -11 -4 -8 -6 3 -13 -2 -17 -12 -4 -10 -9 -20 -12 -23 -3 -3 -11 -14 -17 -25
-23 -40 -112 -8 -99 35 3 8 -1 27 -9 41 -8 16 -10 33 -4 48 4 13 5 27 2 32 -3
5 -3 17 0 27 5 13 16 17 46 17 23 0 46 3 53 7 18 12 25 10 47 -14z m103 -70
c-9 -20 -10 -20 -10 10 0 22 4 29 10 23 7 -7 7 -18 0 -33z"/>
<path d="M8534 4068 c-2 -3 -18 -9 -34 -13 -17 -4 -30 -11 -30 -16 0 -5 -9 -9
-21 -9 -15 0 -19 -5 -15 -15 3 -8 1 -15 -4 -15 -5 0 -12 -10 -16 -22 -12 -36
-13 -48 -3 -48 5 0 9 -4 9 -10 0 -5 -6 -10 -13 -10 -20 0 -16 -99 5 -114 12
-8 15 -20 11 -36 -4 -16 -3 -21 5 -16 7 4 12 1 12 -8 0 -9 5 -16 11 -16 5 0 7
-4 4 -10 -3 -5 -1 -10 4 -10 6 0 11 -7 11 -15 0 -9 9 -15 25 -15 13 0 28 -7
33 -16 7 -13 20 -15 63 -10 85 9 88 10 86 21 -1 5 6 9 16 7 21 -4 46 24 47 51
0 10 4 16 9 13 5 -3 11 8 15 24 3 16 14 48 25 70 11 23 15 42 10 46 -5 3 -9
22 -8 42 6 93 -82 163 -196 159 -31 -1 -59 -5 -61 -9z m100 -107 c3 -5 15 -7
25 -4 26 7 49 -32 25 -41 -12 -5 -15 -14 -11 -35 3 -15 1 -33 -6 -40 -8 -8 -8
-11 1 -11 24 0 -5 -41 -45 -66 l-41 -24 -32 26 c-17 15 -29 29 -26 31 2 3 -2
19 -9 37 -15 35 -15 53 0 76 5 8 10 22 10 30 0 10 11 15 38 16 20 1 40 4 44 8
9 9 21 8 27 -3z"/>
<path d="M1391 4057 c-5 -5 -19 -10 -30 -11 -12 0 -21 -5 -21 -9 1 -11 -27
-37 -40 -37 -7 0 -9 -8 -5 -20 5 -16 2 -20 -14 -20 -12 0 -21 -4 -21 -10 0 -5
5 -10 11 -10 6 0 8 -9 4 -20 -3 -11 -2 -20 4 -20 6 0 4 -11 -4 -27 -9 -18 -11
-32 -4 -44 5 -10 9 -34 9 -53 0 -24 8 -44 22 -58 12 -12 23 -30 23 -40 2 -22
33 -47 58 -48 9 0 17 -4 17 -9 0 -12 72 -10 87 2 7 5 19 7 28 4 15 -6 55 39
69 76 3 11 15 21 25 24 22 6 31 29 36 91 1 23 8 49 15 57 8 10 8 19 1 33 -6
11 -7 22 -4 26 3 3 -1 6 -10 6 -9 0 -17 7 -17 15 0 8 6 15 14 15 24 0 6 38
-28 59 -18 12 -41 18 -53 15 -12 -4 -22 0 -26 9 -6 17 -129 21 -146 4z m119
-108 c0 -15 5 -19 15 -15 19 7 32 -40 17 -64 -7 -12 -7 -21 0 -28 12 -12 -18
-69 -42 -77 -8 -3 -23 -17 -32 -32 -10 -16 -18 -22 -18 -15 0 7 -4 11 -9 7
-14 -8 -51 49 -51 78 0 14 5 29 11 33 7 4 8 9 1 13 -16 10 -18 77 -2 96 10 12
22 15 46 10 18 -3 35 -1 39 5 11 17 25 11 25 -11z m100 -155 c0 -2 -7 -4 -15
-4 -8 0 -15 4 -15 10 0 5 7 7 15 4 8 -4 15 -8 15 -10z m-180 -104 c0 -5 -5
-10 -11 -10 -5 0 -7 5 -4 10 3 6 8 10 11 10 2 0 4 -4 4 -10z"/>
<path d="M6470 4049 c0 -6 -6 -9 -14 -6 -9 4 -19 -5 -26 -24 -7 -16 -16 -26
-21 -23 -5 3 -9 -2 -9 -11 0 -9 -4 -13 -10 -10 -12 7 -55 -21 -55 -36 0 -6
-24 -24 -54 -39 -47 -25 -62 -28 -133 -26 -53 2 -82 7 -88 16 -4 7 -15 10 -24
7 -10 -4 -25 2 -36 13 -11 11 -43 30 -70 42 -28 12 -50 28 -50 35 0 11 -5 11
-20 3 -12 -7 -20 -7 -20 -1 0 5 -13 9 -30 9 -19 -1 -30 -6 -30 -15 0 -8 -4
-11 -10 -8 -5 3 -10 2 -10 -3 0 -5 -18 -15 -41 -22 -22 -8 -45 -22 -50 -31 -5
-10 -16 -16 -23 -13 -8 3 -17 0 -21 -5 -3 -6 -11 -9 -16 -6 -5 4 -27 7 -49 7
-24 0 -40 5 -40 12 0 8 -11 11 -29 8 -22 -3 -32 1 -40 16 -7 14 -17 18 -31 15
-12 -3 -22 1 -26 11 -3 9 -11 16 -18 16 -6 0 -18 8 -25 19 -8 11 -21 16 -32
14 -11 -3 -19 -1 -19 4 0 10 -78 10 -102 -1 -9 -4 -22 -5 -28 -1 -5 3 -10 1
-10 -4 0 -6 -12 -11 -26 -11 -16 0 -34 -10 -46 -26 -11 -14 -26 -23 -33 -20
-7 2 -23 -3 -35 -11 -13 -9 -42 -17 -65 -18 -24 -2 -48 -6 -54 -9 -6 -4 -11
-3 -11 2 0 12 -98 45 -110 37 -5 -3 -17 6 -26 20 -9 13 -20 23 -24 20 -5 -3
-11 3 -14 13 -7 20 -27 24 -129 24 -46 0 -76 -6 -93 -16 -13 -9 -24 -13 -24
-9 0 4 -7 -3 -16 -15 -8 -12 -26 -22 -40 -22 -13 0 -24 -4 -24 -10 0 -5 -7
-10 -15 -10 -8 0 -15 -4 -15 -9 0 -6 -28 -10 -62 -10 -36 1 -64 -4 -66 -10 -2
-7 -14 -6 -32 4 -16 8 -33 14 -37 13 -4 -1 -18 3 -31 10 -12 7 -26 10 -31 7
-5 -3 -16 2 -25 10 -19 20 -94 48 -123 46 -12 0 -25 4 -28 9 -4 6 -11 7 -17 3
-7 -3 -25 -7 -42 -8 -40 -2 -117 -25 -136 -40 -15 -12 -45 -25 -56 -24 -4 0
-10 -5 -15 -13 -5 -7 -16 -14 -26 -15 -10 -2 -40 -6 -68 -11 -69 -10 -90 -9
-87 6 1 8 -10 12 -31 12 -21 0 -44 9 -62 24 -16 14 -33 22 -38 19 -5 -3 -13 0
-17 7 -4 7 -30 14 -56 15 -27 2 -49 4 -49 5 0 1 -8 3 -17 5 -10 2 -18 -1 -18
-6 0 -6 -4 -7 -10 -4 -5 3 -10 0 -10 -7 0 -9 -3 -9 -10 2 -8 12 -10 12 -10 1
0 -8 -7 -11 -20 -8 -10 3 -24 -1 -31 -9 -6 -8 -18 -14 -26 -14 -23 0 -117 -34
-125 -45 -4 -5 -8 -6 -8 -1 0 5 -6 4 -12 -1 -7 -6 -25 -13 -40 -17 -16 -3 -28
-11 -28 -16 0 -6 -7 -10 -15 -10 -8 0 -15 -6 -15 -12 0 -7 -7 -4 -16 7 -12 16
-18 17 -33 8 -15 -10 -22 -9 -31 2 -7 8 -16 13 -20 10 -11 -7 -80 61 -80 79 0
9 -9 17 -20 17 -11 1 -27 2 -36 3 -9 0 -26 -11 -37 -26 -16 -22 -18 -30 -8
-42 7 -8 10 -20 6 -26 -4 -7 6 -16 24 -23 18 -7 30 -18 28 -27 -1 -8 8 -19 21
-25 12 -5 20 -15 18 -22 -3 -7 1 -10 11 -6 8 3 19 0 24 -8 5 -9 24 -13 51 -12
24 0 48 -3 55 -9 7 -6 14 -5 18 2 3 6 10 8 15 5 9 -6 141 25 150 35 12 12 51
30 65 30 8 0 15 5 15 10 0 6 11 10 25 10 14 0 24 5 22 11 -7 32 180 34 215 2
11 -10 21 -16 22 -14 2 7 100 -42 104 -51 2 -5 15 -5 28 -2 13 3 30 1 37 -4
14 -12 35 -11 54 1 7 4 23 6 37 3 15 -3 43 5 68 18 24 13 49 21 56 19 6 -3 12
2 12 11 0 9 8 16 19 16 10 0 22 7 25 16 3 8 11 12 17 8 7 -4 17 0 24 9 13 19
120 32 130 17 3 -6 12 -10 20 -10 8 0 25 -10 38 -22 26 -24 100 -50 153 -53
17 -1 36 -5 42 -9 6 -3 47 -4 92 -1 62 5 86 11 100 25 11 11 27 20 36 20 9 0
34 13 57 30 32 22 55 30 97 33 58 3 74 -2 130 -44 19 -15 52 -30 73 -33 20 -4
37 -11 37 -15 0 -5 12 -12 28 -16 40 -10 162 -15 162 -7 0 4 27 18 60 31 33
13 57 28 54 32 -3 5 4 9 15 9 11 0 23 5 26 10 3 6 14 10 24 10 10 0 24 7 31
15 9 11 16 13 24 5 5 -5 16 -10 24 -10 8 0 25 -9 39 -20 14 -11 34 -20 44 -20
10 0 21 -9 24 -20 4 -11 15 -20 26 -20 11 0 22 -6 25 -12 2 -8 25 -14 55 -15
28 -1 56 -7 64 -13 8 -6 39 -9 81 -5 54 4 72 9 83 25 7 11 20 20 27 20 8 0 23
5 34 10 11 6 29 15 40 20 29 15 48 12 67 -9 9 -11 21 -17 26 -14 6 3 7 1 3 -5
-3 -6 -1 -14 5 -18 6 -3 15 0 20 7 7 12 9 11 9 -1 0 -11 11 -17 33 -18 17 -1
39 -11 47 -21 13 -16 28 -18 105 -16 50 2 95 -2 102 -7 9 -7 18 -5 29 7 10 10
27 15 40 12 13 -2 23 -1 22 2 -2 21 4 32 15 28 16 -5 93 48 107 74 6 11 15 17
21 14 5 -4 9 0 9 7 0 8 13 18 29 24 21 8 30 19 33 43 2 17 1 31 -3 31 -4 0
-10 8 -13 18 -7 21 -46 48 -46 31z"/>
<path d="M6270 3551 c0 -6 -20 -11 -44 -11 -54 0 -76 -8 -76 -27 0 -8 -4 -11
-10 -8 -5 3 -10 5 -11 3 0 -2 -3 -24 -5 -49 -5 -42 -2 -49 26 -72 27 -23 29
-29 20 -47 -9 -18 -17 -20 -43 -14 -39 9 -47 8 -71 -2 -15 -5 -17 -4 -11 6 5
9 4 11 -3 6 -7 -4 -12 -16 -12 -27 0 -11 -7 -22 -15 -25 -24 -10 -13 -67 23
-112 38 -47 40 -56 11 -49 -15 4 -23 0 -26 -14 -3 -10 -13 -19 -22 -19 -10 0
-25 -21 -40 -52 -22 -49 -22 -53 -7 -79 9 -15 16 -37 16 -48 0 -12 5 -21 10
-21 6 0 10 -7 10 -16 0 -15 23 -44 35 -44 4 0 12 -6 20 -12 7 -7 25 -22 41
-33 15 -11 33 -26 40 -32 7 -7 17 -13 23 -13 6 0 11 -4 11 -10 0 -5 7 -10 15
-10 9 0 18 -7 21 -15 4 -8 11 -15 18 -15 7 0 12 31 13 92 2 88 6 100 38 111 6
2 5 10 -3 19 -10 12 -10 18 1 27 8 6 12 22 9 36 -2 14 0 25 6 25 11 0 60 45
63 58 1 4 15 15 30 24 16 10 29 21 29 26 0 4 10 8 22 9 11 1 24 6 27 12 3 5
31 11 62 13 30 3 60 7 65 11 6 3 17 5 25 4 22 -4 90 -53 82 -60 -3 -4 -2 -7 3
-7 6 0 15 5 22 12 8 8 15 8 26 -1 27 -22 136 -30 304 -21 29 2 55 7 58 12 3 4
9 6 14 3 5 -3 23 1 40 10 16 8 30 12 30 8 0 -5 5 0 11 10 6 10 22 17 40 17 22
0 32 6 36 19 8 32 62 25 103 -14 19 -18 45 -36 58 -40 12 -3 20 -10 17 -15 -3
-5 5 -19 18 -32 13 -13 27 -40 31 -60 3 -20 13 -41 21 -48 8 -7 12 -16 9 -21
-3 -5 -1 -9 4 -9 6 0 9 -13 8 -30 -1 -16 1 -31 6 -32 13 -5 31 -155 19 -162
-4 -3 1 -45 12 -93 10 -48 19 -116 20 -150 2 -61 2 -62 27 -56 44 10 94 11
113 1 10 -5 26 -6 35 -2 9 4 26 7 37 8 13 1 21 9 23 26 2 14 10 28 18 33 7 4
16 23 20 42 3 19 11 35 16 35 6 0 7 8 4 17 -4 9 -2 19 4 23 12 7 15 46 7 102
-3 26 -1 38 9 42 15 6 10 49 -7 72 -5 6 -6 14 -2 17 3 4 0 13 -7 22 -7 9 -10
18 -7 21 3 3 -1 27 -9 52 -7 26 -14 57 -14 70 0 12 -4 22 -9 22 -9 0 -20 32
-28 85 -2 17 -11 35 -19 41 -8 6 -14 16 -14 23 0 6 -4 11 -9 11 -5 0 -11 14
-14 30 -4 17 -13 30 -22 30 -8 0 -17 11 -21 24 -3 13 -15 26 -26 29 -11 3 -22
15 -25 26 -3 12 -10 21 -15 21 -6 0 -8 7 -5 14 4 9 1 13 -6 10 -7 -2 -23 12
-36 31 -13 19 -27 32 -32 29 -5 -3 -12 1 -15 9 -3 9 -20 21 -37 28 -18 7 -38
17 -46 23 -7 6 -23 11 -35 11 -11 0 -27 4 -33 8 -7 5 -18 5 -24 2 -6 -4 -16 0
-22 9 -7 9 -30 18 -52 20 -22 3 -50 8 -62 12 -15 4 -23 2 -23 -5 0 -7 -5 -9
-11 -6 -13 8 -121 8 -169 0 -19 -3 -50 -7 -68 -9 -18 -2 -38 -8 -43 -13 -6 -6
-29 -8 -50 -6 -35 5 -41 3 -46 -16 -5 -21 -22 -25 -80 -23 -13 1 -23 -3 -23
-7 0 -15 -53 -29 -88 -23 -18 2 -39 -1 -47 -8 -12 -10 -15 -9 -15 8 0 15 -5
20 -15 16 -9 -4 -15 0 -15 9 0 17 -34 32 -50 22 -5 -3 -10 0 -10 8 0 30 -77
58 -190 71 -9 1 -21 5 -28 10 -6 4 -12 2 -12 -3z"/>
<path d="M8550 3365 c0 -14 5 -25 11 -25 5 0 7 -4 4 -10 -3 -5 1 -10 10 -10
11 0 15 -5 11 -15 -3 -10 1 -18 12 -22 53 -21 192 -176 184 -206 -2 -5 5 -11
15 -13 15 -4 18 -15 17 -62 -1 -31 -5 -65 -9 -75 -5 -11 -2 -24 8 -35 12 -13
13 -22 5 -35 -5 -10 -6 -26 -3 -35 8 -18 9 -27 19 -115 3 -32 7 -61 8 -65 1
-4 -2 -14 -6 -23 -4 -8 -2 -29 4 -45 10 -25 13 -27 23 -13 7 8 21 19 32 23 16
6 17 9 5 16 -12 7 -12 11 1 26 7 9 12 27 11 39 -2 13 1 26 6 29 11 6 4 54 -9
61 -4 3 -5 21 -2 40 3 21 1 35 -5 35 -12 0 -23 48 -12 55 12 7 9 168 -4 195
-6 14 -11 67 -10 120 1 52 -3 101 -9 108 -5 6 -6 12 -3 12 4 0 -3 10 -15 23
-14 14 -23 18 -26 10 -3 -7 -14 -9 -31 -5 -15 3 -44 6 -64 6 -20 0 -34 4 -32
8 3 4 -2 5 -10 2 -9 -4 -16 -1 -16 6 0 8 -12 10 -39 5 -23 -4 -48 -2 -60 5
-19 9 -21 8 -21 -15z m303 -310 c-3 -9 -8 -14 -10 -11 -3 3 -2 9 2 15 9 16 15
13 8 -4z"/>
<path d="M690 3301 c-8 -6 -18 -7 -22 -4 -5 2 -15 0 -22 -6 -7 -6 -28 -12 -47
-14 -22 -2 -34 -8 -34 -17 -1 -17 -36 -92 -47 -100 -10 -8 -8 -48 4 -89 8 -26
7 -35 -3 -42 -9 -5 -10 -9 -3 -9 12 0 13 -14 17 -167 1 -45 6 -63 15 -63 16 0
42 24 42 39 0 5 9 17 21 25 12 8 18 19 14 25 -3 7 2 11 15 11 12 0 19 4 16 8
-3 5 4 15 15 22 10 8 19 20 19 28 0 7 5 10 10 7 6 -3 10 1 10 9 0 9 4 16 8 16
9 0 40 23 84 63 16 15 38 27 48 27 10 0 28 12 39 26 11 14 25 23 31 19 5 -3
10 -1 10 6 0 7 3 10 6 7 3 -4 15 3 25 13 12 12 27 18 37 15 10 -4 35 3 57 14
22 11 50 20 62 20 13 0 23 4 23 9 0 5 9 12 19 16 23 7 103 69 105 80 2 12 -83
15 -90 4 -3 -5 -10 -6 -16 -3 -19 12 -202 6 -223 -7 -15 -10 -183 -1 -204 11
-23 12 -22 12 -41 1z"/>
<path d="M1766 2815 c-3 -9 -19 -18 -36 -21 -16 -4 -30 -10 -30 -15 0 -5 -9
-9 -19 -9 -10 0 -22 -7 -25 -16 -3 -8 -10 -13 -15 -10 -16 10 -41 -5 -41 -25
0 -10 -3 -18 -7 -17 -5 1 -27 -10 -50 -26 -23 -16 -49 -26 -58 -22 -9 3 -15 0
-15 -10 0 -8 -11 -19 -24 -24 -13 -5 -27 -13 -30 -18 -3 -4 -23 -14 -45 -22
-30 -9 -41 -19 -41 -33 0 -16 -3 -17 -15 -7 -8 7 -15 11 -16 9 -5 -23 -3 -59
3 -59 4 0 8 -7 8 -15 0 -24 35 -37 67 -23 15 6 31 11 36 10 4 -1 7 4 7 12 0
13 20 26 50 32 8 2 21 12 29 23 19 29 61 28 62 -1 0 -13 1 -69 2 -125 l2 -103
-47 2 c-27 1 -48 6 -48 10 0 5 -11 1 -26 -8 -18 -12 -28 -14 -36 -6 -7 7 -16
7 -29 -1 -14 -9 -22 -8 -37 6 -10 9 -22 14 -25 10 -9 -8 -67 -12 -67 -3 0 12
-70 5 -75 -7 -2 -7 -12 -13 -21 -13 -11 0 -14 -5 -10 -17 4 -9 2 -19 -4 -23
-7 -4 -2 -16 12 -31 18 -18 32 -24 63 -22 22 1 54 -2 72 -7 22 -5 33 -4 36 3
3 9 12 9 35 0 19 -6 34 -7 38 -2 5 9 46 10 127 2 41 -4 47 -7 42 -24 -4 -10
-2 -19 3 -19 6 0 10 -24 10 -52 0 -29 1 -56 3 -60 1 -5 3 -12 4 -18 1 -5 4
-11 5 -12 1 -2 4 -43 6 -93 3 -77 7 -93 25 -107 28 -24 54 -23 83 3 24 21 25
46 3 60 -5 4 -5 15 2 27 7 13 8 30 2 44 -4 13 -6 40 -3 60 3 28 0 39 -12 44
-20 8 -21 33 -1 40 16 6 21 34 7 34 -5 0 -9 14 -10 30 -1 26 2 30 19 25 11 -4
25 -2 32 3 14 12 126 22 131 13 4 -6 25 -6 69 -2 5 1 5 6 1 13 -4 7 -3 8 4 4
17 -11 82 -15 82 -6 0 5 9 12 21 15 11 4 24 18 29 31 8 19 5 29 -11 45 -11 11
-24 17 -29 14 -6 -4 -10 -1 -10 5 0 7 -6 8 -18 1 -10 -6 -29 -7 -41 -4 -12 3
-42 0 -67 -7 -37 -11 -47 -11 -54 0 -5 9 -9 9 -15 1 -4 -8 -28 -10 -68 -7 -97
7 -95 5 -96 104 -2 135 -5 180 -13 188 -5 4 -8 10 -8 14 0 10 76 60 90 60 6 0
35 19 64 43 44 35 53 47 51 72 -1 42 -13 59 -30 45 -10 -8 -19 -8 -33 -1 -16
8 -21 7 -26 -4z"/>
<path d="M2158 2752 c-23 -24 -26 -34 -22 -81 2 -29 -1 -62 -7 -72 -8 -15 -6
-19 7 -19 14 0 14 -3 4 -15 -10 -12 -10 -21 -1 -42 7 -15 8 -29 3 -32 -9 -6
-9 -97 0 -107 4 -3 2 -20 -3 -39 -6 -21 -6 -42 1 -59 6 -17 6 -26 0 -26 -14 0
-6 -327 8 -362 6 -15 9 -34 6 -41 -13 -34 79 -60 101 -30 14 19 12 58 -4 98
-7 18 -10 47 -6 72 4 26 2 44 -5 48 -8 5 -8 10 0 20 10 12 7 61 -4 73 -3 3 -1
11 4 18 6 6 10 16 8 20 -1 5 3 19 10 31 10 19 16 20 44 12 21 -6 44 -5 65 2
17 5 57 8 87 5 31 -2 56 -1 56 4 0 8 59 -2 78 -14 6 -3 13 -2 17 3 3 5 56 10
118 10 61 0 130 0 152 1 51 2 95 -15 96 -37 1 -10 2 -33 4 -51 1 -18 -1 -34
-5 -37 -4 -2 -6 -34 -5 -70 1 -36 -1 -65 -5 -65 -8 0 -5 -51 6 -107 3 -18 12
-33 19 -33 7 0 15 -6 18 -12 7 -21 79 22 74 43 -3 12 0 16 10 12 13 -5 13 -2
4 15 -6 11 -16 24 -21 27 -6 4 -7 11 -3 18 4 6 8 49 10 97 4 96 5 110 16 128
5 7 3 12 -4 12 -7 0 -9 10 -6 26 3 16 0 28 -9 31 -11 4 -11 8 2 20 8 8 12 23
10 32 -9 27 -10 127 -2 140 4 6 4 17 -1 24 -13 17 -15 77 -3 77 14 0 13 26 -2
42 -8 8 -13 41 -13 85 0 52 -4 73 -12 73 -7 0 -13 5 -13 10 0 6 -11 10 -24 10
-14 0 -28 5 -31 11 -4 5 -32 10 -63 9 -32 -1 -65 -1 -74 -1 -10 1 -26 1 -35 2
-102 2 -132 5 -138 11 -4 3 -19 3 -34 -2 -16 -4 -33 -5 -40 -1 -12 8 -147 6
-226 -4 -27 -3 -59 -6 -70 -6 -62 0 -95 3 -100 12 -9 14 -17 10 -47 -19z m286
-43 c-3 -5 -10 -7 -15 -3 -5 3 -7 10 -3 15 3 5 10 7 15 3 5 -3 7 -10 3 -15z
m-154 -4 c0 -8 -9 -15 -20 -15 -25 0 -26 17 -2 23 9 3 18 5 20 6 1 0 2 -6 2
-14z m220 -9 c0 -3 -4 -8 -10 -11 -5 -3 -10 -1 -10 4 0 6 5 11 10 11 6 0 10
-2 10 -4z m-65 -37 c3 6 20 10 38 9 46 -2 68 -33 57 -81 -6 -27 -4 -39 7 -48
12 -11 12 -14 0 -27 -11 -11 -13 -22 -6 -45 5 -17 5 -33 1 -36 -8 -7 -11 -20
-14 -56 -3 -32 -25 -37 -170 -40 l-118 -3 5 56 c6 72 -3 122 -22 122 -8 0 -11
5 -8 11 4 6 13 8 19 6 9 -4 12 10 11 49 -1 35 3 58 11 65 8 6 43 12 79 13 35
1 68 5 71 9 4 4 13 2 20 -4 8 -7 14 -7 19 0z m501 -24 c9 -9 13 -22 10 -30 -3
-8 -2 -15 2 -15 9 0 7 -94 -3 -109 -3 -6 1 -14 9 -17 9 -3 13 -11 9 -18 -4 -6
-6 -21 -5 -33 2 -13 -4 -36 -14 -52 -15 -26 -21 -28 -63 -24 -91 9 -214 4
-222 -9 -12 -20 -16 -8 -22 74 -4 64 -3 79 10 86 11 7 13 16 7 33 -11 32 -11
39 -3 77 4 17 4 32 0 32 -4 0 -8 6 -8 14 0 21 272 13 293 -9z m96 -267 c-7 -7
-12 -8 -12 -2 0 14 12 26 19 19 2 -3 -1 -11 -7 -17z m-812 -88 c0 -5 -4 -10
-10 -10 -5 0 -10 5 -10 10 0 6 5 10 10 10 6 0 10 -4 10 -10z"/>
<path d="M6666 2646 c5 -27 3 -41 -7 -47 -11 -7 -10 -11 6 -23 23 -18 51 -20
60 -6 4 6 3 10 -2 9 -31 -5 -39 2 -37 35 2 18 -4 42 -12 52 -13 17 -14 16 -8
-20z"/>
<path d="M6701 2663 c-1 -25 6 -28 29 -13 13 8 13 10 -2 10 -9 0 -19 6 -21 13
-3 6 -6 2 -6 -10z"/>
<path d="M7080 2670 c0 -5 7 -10 16 -10 8 0 12 5 9 10 -3 6 -10 10 -16 10 -5
0 -9 -4 -9 -10z"/>
<path d="M7182 2653 c-20 -25 -22 -26 -40 -9 -19 16 -19 16 -9 -31 6 -26 12
-49 13 -51 7 -10 48 47 45 63 -2 10 4 24 14 31 9 7 12 15 7 18 -5 3 -18 -7
-30 -21z"/>
<path d="M6560 2659 c0 -5 9 -14 20 -21 25 -16 26 -28 0 -28 -10 0 -24 -8 -29
-18 -9 -17 -5 -19 39 -19 28 -1 47 3 44 8 -3 5 2 16 10 25 24 24 19 34 -16 34
-25 0 -29 3 -18 10 8 5 11 10 5 11 -40 6 -55 5 -55 -2z"/>
<path d="M6413 2640 c-2 -23 26 -35 34 -14 6 16 -1 27 -20 30 -7 1 -14 -6 -14
-16z"/>
<path d="M6530 2630 c0 -5 7 -10 15 -10 8 0 15 5 15 10 0 6 -7 10 -15 10 -8 0
-15 -4 -15 -10z"/>
<path d="M6493 2606 c3 -7 0 -19 -6 -25 -8 -8 -7 -11 6 -11 9 0 17 4 17 9 0 5
8 12 18 14 16 4 16 5 0 6 -10 0 -18 6 -18 11 0 6 -5 10 -11 10 -6 0 -9 -6 -6
-14z"/>
<path d="M6710 2609 c0 -5 5 -7 10 -4 6 3 10 8 10 11 0 2 -4 4 -10 4 -5 0 -10
-5 -10 -11z"/>
<path d="M6410 2576 c0 -2 7 -7 16 -10 8 -3 12 -2 9 4 -6 10 -25 14 -25 6z"/>
<path d="M6590 2398 c0 -16 29 -20 49 -6 18 13 18 14 -15 14 -19 0 -34 -4 -34
-8z"/>
<path d="M7040 2401 c0 -5 6 -14 14 -20 11 -9 18 -8 30 4 15 15 16 15 16 -4 0
-28 17 -35 23 -9 4 12 4 24 2 26 -8 8 -85 11 -85 3z"/>
<path d="M6800 2296 c0 -2 7 -9 15 -16 12 -10 15 -10 15 4 0 9 -7 16 -15 16
-8 0 -15 -2 -15 -4z"/>
<path d="M6761 2254 c-25 -25 -23 -41 4 -30 9 3 13 10 10 16 -3 6 1 13 9 16 9
3 16 10 16 15 0 14 -13 9 -39 -17z"/>
<path d="M464 2243 c-4 -16 -11 -34 -17 -41 -6 -7 -7 -37 -4 -70 5 -44 3 -64
-9 -80 -14 -20 -14 -23 1 -28 12 -5 13 -10 5 -19 -8 -10 -7 -20 6 -40 12 -18
14 -29 6 -37 -7 -7 -7 -19 0 -39 6 -16 8 -47 6 -69 -2 -22 -1 -40 3 -40 5 0
17 -37 23 -72 1 -3 4 -10 8 -14 4 -4 3 -13 -3 -21 -8 -9 -8 -13 -1 -13 6 0 18
-15 27 -34 9 -18 24 -42 33 -52 31 -35 53 -84 47 -103 -3 -11 -2 -22 4 -25 9
-6 6 -33 -7 -66 -3 -8 -6 -18 -6 -22 -1 -3 -4 -10 -8 -14 -5 -4 -8 -17 -8 -30
0 -12 -6 -24 -12 -27 -10 -3 -10 -7 -1 -18 9 -11 8 -30 -4 -84 -9 -39 -17 -79
-18 -90 -1 -11 -7 -30 -13 -42 -16 -29 -15 -43 3 -43 8 0 15 -4 15 -10 0 -5 5
-10 10 -10 6 0 20 -9 32 -19 26 -25 47 -17 43 15 -1 14 4 28 13 33 10 6 13 20
11 48 -3 26 0 39 6 36 12 -4 21 11 51 84 10 23 22 41 28 40 6 -1 12 10 14 26
2 15 8 27 13 27 15 0 79 68 79 84 0 8 15 25 33 37 41 29 49 41 34 51 -7 4 -7
8 -2 9 6 0 -5 6 -24 13 -19 7 -39 21 -45 32 -6 10 -19 25 -29 32 -9 7 -15 18
-12 23 4 5 -4 9 -17 9 -17 0 -28 10 -40 38 -9 20 -32 55 -52 77 -20 22 -36 45
-36 51 0 7 -7 25 -15 40 -8 16 -15 39 -15 52 0 12 -4 22 -10 22 -5 0 -10 6
-10 14 0 8 -8 29 -17 48 -44 87 -40 77 -59 181 -1 9 -6 22 -10 28 -4 6 -8 23
-9 38 -1 14 -5 41 -9 59 -5 21 -4 32 4 32 6 0 8 5 5 10 -12 19 -35 10 -41 -17z
m176 -603 c0 -5 -2 -10 -4 -10 -3 0 -8 5 -11 10 -3 6 -1 10 4 10 6 0 11 -4 11
-10z"/>
<path d="M6815 2200 c3 -5 11 -10 16 -10 6 0 7 5 4 10 -3 6 -11 10 -16 10 -6
0 -7 -4 -4 -10z"/>
<path d="M6650 2075 c-7 -8 -8 -15 -2 -15 5 0 15 7 22 15 7 8 8 15 2 15 -5 0
-15 -7 -22 -15z"/>
<path d="M6848 2073 c7 -3 16 -2 19 1 4 3 -2 6 -13 5 -11 0 -14 -3 -6 -6z"/>
<path d="M7030 2060 c0 -5 4 -10 9 -10 6 0 13 5 16 10 3 6 -1 10 -9 10 -9 0
-16 -4 -16 -10z"/>
<path d="M6987 2049 c-9 -6 -17 -17 -17 -25 0 -8 -4 -12 -10 -9 -5 3 -20 -1
-32 -10 l-23 -17 28 5 c16 2 27 0 27 -7 0 -6 8 1 17 16 21 33 53 45 45 16 -4
-15 -1 -19 13 -17 30 6 28 27 -2 43 -20 10 -34 11 -46 5z"/>
<path d="M6630 2030 c-12 -8 -11 -10 8 -10 12 0 22 5 22 10 0 13 -11 13 -30 0z"/>
<path d="M7100 2022 c0 -5 -11 -13 -25 -16 -14 -4 -25 -11 -25 -16 0 -14 23
-25 27 -13 2 6 12 9 22 6 26 -7 36 14 17 33 -9 8 -16 11 -16 6z"/>
<path d="M6670 2011 c0 -36 25 -52 48 -29 9 9 7 14 -6 24 -20 16 -42 18 -42 5z"/>
<path d="M6770 2010 c0 -5 5 -10 10 -10 6 0 10 5 10 10 0 6 -4 10 -10 10 -5 0
-10 -4 -10 -10z"/>
<path d="M6604 1986 c-3 -14 -13 -27 -22 -29 -12 -3 -10 -5 6 -6 14 -1 22 5
22 15 0 9 6 14 13 11 8 -3 20 -1 28 5 11 8 10 9 -3 4 -12 -3 -18 0 -18 9 0 24
-19 17 -26 -9z"/>
<path d="M6832 1998 c-16 -16 -15 -28 3 -28 8 0 15 9 15 20 0 23 -2 24 -18 8z"/>
<path d="M6887 1876 c-3 -8 0 -17 8 -19 7 -3 12 0 11 8 -3 22 -13 27 -19 11z"/>
<path d="M7438 1879 c-9 -5 -15 -16 -12 -23 3 -8 -6 -26 -20 -41 -14 -15 -26
-36 -26 -45 0 -9 -11 -22 -25 -28 -14 -6 -24 -15 -23 -19 1 -5 -4 -19 -11 -32
-7 -12 -11 -32 -8 -42 3 -11 1 -34 -4 -52 -6 -18 -12 -50 -15 -72 -8 -76 -11
-90 -18 -107 -4 -9 -5 -22 -1 -28 4 -6 0 -17 -10 -24 -10 -7 -17 -29 -19 -57
-2 -26 -8 -54 -13 -64 -6 -10 -8 -26 -6 -36 3 -11 0 -19 -6 -19 -6 0 -11 -11
-11 -25 0 -14 -5 -25 -11 -25 -6 0 -8 -8 -4 -19 3 -12 0 -21 -10 -24 -8 -4
-12 -13 -9 -21 7 -19 -25 -86 -42 -86 -18 0 -26 16 -27 56 -1 19 -6 34 -12 34
-6 0 -12 14 -13 31 -1 17 -11 48 -22 69 -11 22 -20 52 -20 69 0 16 -6 31 -15
34 -8 4 -12 15 -10 28 3 13 -2 27 -13 35 -16 12 -16 13 3 20 36 14 60 49 56
82 -1 6 2 27 7 46 13 45 3 60 -32 46 -16 -6 -34 -6 -44 -2 -21 11 -102 3 -102
-9 0 -4 -6 -6 -14 -3 -12 4 -13 -3 -9 -38 6 -45 30 -87 50 -88 6 0 15 -9 18
-20 3 -11 10 -20 14 -20 11 0 7 -28 -7 -63 -7 -16 -12 -32 -12 -37 0 -5 -5
-21 -12 -37 -6 -15 -10 -36 -9 -45 1 -10 -2 -18 -7 -18 -5 0 -12 -11 -14 -25
-3 -14 -1 -25 4 -25 5 0 4 -9 -2 -19 -5 -11 -10 -32 -10 -46 0 -20 -4 -26 -17
-23 -14 3 -18 14 -18 53 0 31 -5 54 -14 61 -10 8 -12 21 -8 43 4 18 3 40 -2
50 -9 16 -17 73 -25 175 -2 22 -10 42 -19 48 -12 6 -14 14 -7 32 5 13 6 32 4
42 -7 26 -111 77 -132 65 -10 -6 -22 -3 -36 10 -19 19 -20 19 -43 -3 -14 -13
-22 -30 -20 -40 3 -10 1 -18 -4 -18 -5 0 -9 -7 -9 -15 0 -8 -4 -15 -9 -15 -5
0 -12 -20 -15 -45 -4 -25 -12 -45 -17 -45 -5 0 -9 -6 -8 -12 3 -26 -1 -39 -11
-33 -6 4 -10 3 -9 -2 4 -19 -14 -93 -23 -93 -6 0 -7 -11 -4 -25 4 -14 2 -25
-4 -25 -5 0 -10 -9 -10 -20 0 -10 -7 -23 -15 -28 -14 -7 -20 -84 -15 -192 0
-8 -2 -39 -5 -69 -3 -33 0 -60 6 -68 8 -9 8 -17 1 -26 -7 -7 -9 -41 -6 -82 2
-39 7 -108 10 -155 3 -47 6 -90 6 -96 1 -7 18 -10 47 -8 24 1 53 -2 62 -7 12
-6 20 -5 24 1 4 7 32 9 73 6 37 -3 108 -7 157 -9 50 -2 95 -5 100 -6 20 -6 85
-6 85 0 0 3 19 4 43 3 23 -2 42 -4 42 -5 0 -2 228 -9 393 -12 56 -1 102 -5
102 -9 0 -9 106 -5 116 4 3 4 16 1 28 -7 12 -7 35 -11 54 -8 26 4 30 8 21 19
-9 10 -9 25 -1 57 19 74 20 86 9 90 -14 4 -20 47 -8 61 9 11 15 45 11 59 -1 4
-4 12 -5 17 -1 6 -4 12 -5 15 -8 15 -5 32 8 48 14 15 13 17 -4 17 -17 0 -19 9
-20 90 -1 50 -6 96 -13 103 -6 8 -9 16 -6 19 8 7 14 117 6 116 -17 -2 -19 4
-11 34 5 17 6 36 1 42 -4 6 -7 25 -7 41 1 17 -6 35 -14 42 -12 9 -13 14 -2 24
14 15 16 33 3 25 -11 -7 -24 41 -16 54 4 6 1 10 -5 10 -7 0 -9 7 -6 16 3 8 -1
28 -9 43 -8 16 -11 31 -8 35 4 3 1 6 -5 6 -7 0 -11 8 -10 18 3 44 -2 64 -17
59 -10 -4 -17 5 -25 31 -5 20 -10 43 -10 50 0 6 -4 12 -10 12 -5 0 -9 6 -7 13
1 6 -4 11 -12 9 -10 -2 -12 4 -7 22 3 14 2 28 -4 31 -5 3 -10 15 -10 26 0 12
-7 19 -20 19 -17 0 -19 5 -14 25 5 19 2 25 -10 25 -9 0 -15 5 -13 11 3 16 -15
20 -35 8z m-908 -598 c0 -6 -8 -9 -17 -9 -10 0 -26 -3 -35 -7 -11 -4 -18 -3
-18 3 0 11 21 19 53 21 9 0 17 -3 17 -8z m328 -640 c1 -1 -7 -10 -19 -22 -19
-19 -19 -22 -5 -38 22 -25 21 -27 -19 -28 -24 -1 -35 3 -35 13 0 8 -7 14 -16
14 -11 0 -14 5 -10 16 3 9 6 22 6 30 0 10 8 12 32 7 19 -4 29 -2 25 4 -5 7 22
10 41 4z m-28 -111 c0 -5 -4 -10 -10 -10 -5 0 -10 5 -10 10 0 6 5 10 10 10 6
0 10 -4 10 -10z m-140 -20 c0 -5 -4 -10 -10 -10 -5 0 -10 5 -10 10 0 6 5 10
10 10 6 0 10 -4 10 -10z"/>
<path d="M6801 604 c0 -11 3 -14 6 -6 3 7 2 16 -1 19 -3 4 -6 -2 -5 -13z"/>
<path d="M6782 1845 c-6 -14 -8 -25 -4 -25 13 0 28 15 35 33 10 27 -18 20 -31
-8z"/>
<path d="M6950 1840 c13 -11 26 -17 29 -14 7 6 -28 34 -42 34 -6 0 0 -9 13
-20z"/>
<path d="M7010 1855 c0 -14 40 -46 49 -40 18 10 13 25 -9 25 -11 0 -20 5 -20
10 0 6 -4 10 -10 10 -5 0 -10 -2 -10 -5z"/>
<path d="M6730 1831 c0 -6 5 -13 10 -16 6 -3 10 1 10 9 0 9 -4 16 -10 16 -5 0
-10 -4 -10 -9z"/>
<path d="M8795 1690 c-3 -5 -3 -15 1 -22 4 -6 3 -8 -4 -4 -6 3 -15 -8 -22 -29
-6 -19 -16 -35 -22 -35 -6 0 -8 -8 -5 -19 2 -10 -4 -29 -14 -42 -13 -18 -15
-27 -6 -37 8 -10 7 -16 -2 -21 -10 -7 -10 -13 -2 -29 13 -24 11 -72 -2 -72 -5
0 -7 -9 -4 -20 3 -11 1 -20 -4 -20 -5 0 -7 -30 -4 -68 2 -37 0 -73 -4 -81 -6
-9 -5 -21 2 -32 8 -13 8 -24 -2 -43 -8 -13 -11 -34 -8 -45 3 -11 -1 -25 -9
-32 -8 -6 -14 -24 -14 -40 0 -16 -4 -29 -8 -29 -5 0 -7 -18 -6 -40 1 -22 -2
-37 -7 -34 -5 3 -6 -2 -3 -10 3 -9 2 -16 -3 -16 -5 0 -9 -15 -9 -32 -1 -54
-23 -120 -38 -115 -10 4 -12 -1 -9 -14 3 -12 0 -19 -8 -19 -8 -1 -23 -15 -35
-33 -14 -23 -27 -31 -43 -30 -12 2 -20 -1 -17 -6 3 -4 -11 -17 -32 -27 -20
-10 -40 -23 -43 -28 -4 -5 -12 -5 -18 -1 -7 4 -18 1 -26 -5 -12 -10 -23 -5
-57 21 -24 19 -45 36 -48 40 -3 4 -14 8 -24 10 -15 3 -20 13 -20 36 -1 19 -8
38 -19 45 -16 12 -16 15 3 48 11 19 23 42 26 52 7 20 33 27 69 21 16 -4 24
-11 21 -18 -3 -8 3 -17 12 -21 19 -9 81 -12 79 -4 -3 15 16 50 28 50 16 0 31
40 19 49 -5 3 -10 13 -12 21 -2 8 -8 17 -13 18 -5 2 -7 8 -3 13 3 5 -6 9 -20
9 -14 0 -28 5 -31 10 -3 6 -17 7 -31 4 -16 -4 -24 -2 -24 7 0 10 -3 10 -12 1
-7 -7 -20 -12 -30 -12 -10 0 -30 -7 -43 -16 -13 -9 -29 -13 -34 -9 -16 9 -51
-13 -51 -33 0 -10 -8 -34 -18 -54 -13 -24 -16 -41 -10 -52 5 -9 6 -21 2 -28
-10 -15 -9 -65 2 -103 4 -16 7 -36 6 -42 -2 -7 5 -27 15 -45 9 -18 16 -40 15
-50 -3 -17 47 -48 77 -48 14 0 14 -2 1 -10 -12 -8 -12 -10 3 -16 9 -3 24 -3
33 0 9 4 23 1 31 -6 32 -26 175 -18 235 13 10 5 24 6 33 3 9 -4 15 -1 15 9 0
9 15 20 35 27 19 6 35 18 35 26 0 8 4 14 9 14 5 0 26 16 45 35 20 19 41 35 46
35 15 0 12 20 -2 20 -7 0 0 12 16 26 15 14 26 27 23 30 -2 3 7 17 22 33 15 16
27 41 28 61 1 18 9 43 18 56 8 13 15 37 15 53 0 16 5 33 10 36 7 5 8 11 1 19
-5 6 -11 23 -13 36 -2 14 -6 30 -10 35 -8 13 -23 97 -19 110 2 6 5 75 7 155 3
79 7 146 9 148 2 3 0 13 -5 23 -7 12 -7 20 1 24 6 4 7 19 3 38 -8 34 -11 60
-18 120 -6 52 -34 84 -51 57z"/>
<path d="M3450 1531 c0 -9 81 -31 89 -24 9 7 -9 16 -34 16 -14 0 -28 3 -31 8
-7 12 -24 11 -24 0z"/>
<path d="M3400 1520 c0 -6 -4 -9 -9 -6 -4 3 -16 -3 -26 -14 -9 -10 -23 -16
-31 -13 -10 3 -14 -2 -14 -20 0 -19 5 -25 23 -25 12 0 38 -4 57 -10 28 -7 32
-11 17 -17 -9 -4 -30 -5 -45 -2 -16 3 -33 0 -43 -9 -14 -13 -18 -12 -29 2 -12
13 -11 17 1 24 11 7 11 12 2 21 -17 17 -34 -29 -21 -55 7 -12 7 -16 0 -12 -5
3 -15 -1 -22 -9 -10 -13 -9 -15 9 -15 17 0 21 -6 21 -32 0 -17 3 -28 7 -25 7
7 33 -11 33 -23 0 -10 -43 -5 -46 6 -1 5 -5 21 -8 37 -4 15 -10 27 -15 27 -11
0 -32 -73 -23 -80 9 -7 12 -40 3 -40 -4 0 -8 -7 -8 -16 0 -9 12 -18 29 -21 30
-6 39 -33 12 -33 -12 0 -10 -5 9 -20 14 -11 33 -20 44 -19 14 0 15 2 3 7 -30
14 -21 32 15 32 19 0 35 5 35 10 0 6 -13 10 -29 10 -23 0 -30 5 -35 26 -4 15
-5 29 -2 31 7 8 26 -7 26 -20 0 -7 11 -13 25 -13 14 -1 25 2 25 7 0 5 5 9 10
9 16 0 12 -32 -7 -52 -22 -24 -10 -34 15 -13 86 73 102 98 49 74 -21 -9 -30
-9 -42 1 -13 11 -12 15 10 32 31 24 24 40 -13 32 l-27 -6 23 23 23 24 25 -28
c17 -20 30 -27 42 -22 16 6 16 7 0 19 -28 21 -21 28 20 22 20 -3 49 -5 65 -6
16 0 27 -6 27 -14 0 -7 7 -19 16 -27 13 -11 14 -9 8 17 -11 45 -22 56 -47 43
-17 -10 -19 -9 -14 5 4 11 1 16 -9 16 -10 0 -14 6 -10 15 3 8 1 15 -4 15 -10
0 -14 -15 -11 -35 1 -5 -5 -2 -15 7 -14 14 -15 19 -3 30 8 7 20 13 27 14 6 1
22 2 33 3 19 1 20 3 8 18 -12 14 -12 16 1 11 8 -2 16 -14 18 -26 2 -12 11 -22
20 -22 12 0 13 3 4 12 -17 17 -15 26 6 31 14 4 14 5 -3 6 -11 0 -26 10 -33 21
-11 18 -10 20 10 20 24 -1 70 -42 81 -72 4 -10 11 -18 17 -18 6 0 4 10 -5 23
-8 13 -12 27 -8 30 8 8 -29 37 -39 31 -3 -2 -9 4 -12 14 -4 13 -17 18 -42 19
-24 1 -33 -2 -26 -9 11 -11 4 -48 -9 -48 -5 0 -9 -7 -9 -16 0 -8 -5 -12 -10
-9 -7 4 -7 12 0 25 14 26 13 33 -5 26 -8 -3 -19 2 -24 12 -5 9 -13 14 -17 10
-4 -4 -2 -14 5 -21 12 -15 7 -22 -28 -42 -11 -6 -13 -3 -9 13 7 25 -7 30 -16
7 -9 -25 -76 -16 -76 10 0 10 10 12 38 9 30 -4 34 -3 20 6 -10 6 -18 17 -18
25 0 8 -4 17 -10 20 -5 3 -10 1 -10 -5z m127 -96 c-3 -3 -12 -4 -19 -1 -8 3
-5 6 6 6 11 1 17 -2 13 -5z m-102 -60 c-32 -26 -45 -30 -45 -14 0 6 5 10 10
10 6 0 10 6 10 14 0 8 10 16 23 18 34 6 35 -2 2 -28z m-69 -121 c-10 -10 -19
5 -10 18 6 11 8 11 12 0 2 -7 1 -15 -2 -18z"/>
<path d="M3663 1386 c9 -7 15 -20 12 -27 -7 -19 34 -44 48 -30 8 8 16 6 30 -7
19 -17 19 -16 4 14 -9 17 -13 34 -10 38 4 3 -1 6 -11 6 -9 0 -14 -4 -11 -10 3
-5 -1 -10 -9 -10 -9 0 -21 9 -28 20 -7 11 -20 20 -28 20 -12 -1 -12 -3 3 -14z"/>
<path d="M3640 1341 c0 -12 5 -21 10 -21 6 0 10 6 10 14 0 8 -4 18 -10 21 -5
3 -10 -3 -10 -14z"/>
<path d="M3677 1296 c-4 -10 0 -12 14 -9 10 3 16 9 13 14 -8 13 -21 11 -27 -5z"/>
<path d="M3737 1291 c4 -17 1 -21 -20 -21 -19 0 -27 -6 -30 -22 l-4 -23 -8 23
c-4 12 -12 22 -17 22 -5 0 -6 -9 -3 -20 7 -22 -14 -50 -39 -50 -20 0 -21 -19
-2 -26 8 -3 13 -11 10 -19 -7 -17 32 -26 63 -14 14 5 29 7 34 3 5 -3 9 2 9 10
0 9 -6 15 -12 14 -7 -2 -13 4 -13 12 0 8 -4 21 -9 29 -7 10 -4 12 12 7 15 -5
24 -1 32 14 8 14 8 20 0 20 -6 0 -4 7 5 16 17 17 16 35 -2 41 -7 3 -9 -4 -6
-16z m-49 -111 c3 -8 0 -10 -8 -5 -10 6 -12 4 -7 -8 5 -12 1 -17 -13 -17 -15
0 -20 7 -20 25 0 20 4 24 22 22 12 -2 24 -10 26 -17z"/>
<path d="M3565 1280 c-3 -5 -1 -10 4 -10 6 0 11 5 11 10 0 6 -2 10 -4 10 -3 0
-8 -4 -11 -10z"/>
<path d="M3600 1271 c0 -9 30 -24 36 -18 2 1 -6 8 -16 15 -11 7 -20 8 -20 3z"/>
<path d="M3533 1243 c-7 -3 -13 -8 -13 -12 0 -4 6 -8 13 -8 6 0 20 -4 30 -8
12 -5 17 -3 17 8 0 16 -27 27 -47 20z"/>
<path d="M1975 1190 c-4 -6 -13 -9 -21 -6 -7 3 -16 1 -19 -4 -4 -6 -17 -7 -31
-4 -13 3 -37 1 -53 -6 -21 -8 -44 -9 -89 0 -52 9 -66 8 -93 -5 -17 -9 -38 -13
-47 -9 -29 12 -51 14 -56 5 -8 -13 -108 -4 -117 10 -5 9 -16 8 -42 -5 -20 -9
-39 -16 -44 -15 -18 4 -63 -21 -63 -36 0 -8 -9 -32 -20 -52 -11 -21 -20 -43
-20 -50 0 -6 -4 -13 -10 -15 -5 -2 -10 -18 -12 -35 -1 -18 -5 -33 -9 -33 -3 0
-6 -10 -5 -22 1 -13 -3 -26 -9 -30 -6 -5 -6 -8 3 -8 13 0 18 -30 5 -30 -12 0
-14 -78 -3 -85 6 -4 7 -23 4 -45 -4 -26 -2 -45 9 -60 8 -12 13 -30 10 -41 -3
-10 0 -19 6 -19 6 0 11 -9 11 -20 0 -11 5 -20 10 -20 6 0 10 -10 10 -23 0 -13
8 -32 18 -43 11 -11 22 -26 25 -34 4 -12 6 -12 6 -1 1 19 31 -6 31 -26 0 -12
3 -13 15 -3 8 6 19 9 24 5 6 -3 19 -1 30 5 13 7 22 7 26 0 4 -6 11 -8 16 -4 5
3 16 0 24 -6 8 -6 20 -8 27 -4 25 16 122 12 141 -4 11 -10 21 -12 25 -6 9 12
72 18 72 7 0 -5 30 -8 68 -7 37 1 91 -5 121 -12 47 -13 55 -13 65 1 10 13 14
13 40 0 22 -11 32 -12 42 -4 8 7 53 11 110 11 85 0 97 2 101 18 4 15 10 17 28
10 14 -5 37 -5 55 0 17 5 37 7 45 4 24 -10 52 47 61 123 2 18 8 51 14 72 6 22
8 52 4 66 -4 16 -2 25 6 25 6 0 8 5 3 13 -4 6 -8 48 -8 92 -1 44 -5 87 -10 95
-8 13 -15 51 -16 85 -1 6 2 29 6 52 7 43 -2 70 -35 106 -15 15 -22 17 -40 7
-12 -7 -26 -8 -33 -3 -7 5 -32 8 -56 7 -24 -1 -54 2 -67 6 -13 5 -26 6 -28 1
-3 -4 -29 -4 -58 0 -34 6 -56 5 -65 -3 -9 -7 -13 -7 -13 0 0 7 -19 9 -52 6
-33 -3 -54 -1 -58 7 -6 8 -9 8 -15 -1z"/>
<path d="M3446 1154 c-27 -27 -14 -34 19 -11 11 9 14 16 7 21 -6 3 -18 -1 -26
-10z"/>
<path d="M3597 1134 c-7 -8 17 -34 32 -34 17 0 13 27 -5 34 -19 7 -19 7 -27 0z"/>
<path d="M3677 1113 c-4 -3 -7 -11 -7 -17 0 -6 5 -5 12 2 6 6 9 14 7 17 -3 3
-9 2 -12 -2z"/>
<path d="M3436 1095 c-8 -8 -22 -15 -31 -15 -15 0 -15 -1 0 -17 14 -14 18 -14
26 -2 5 8 9 9 9 4 0 -7 15 -9 35 -7 40 5 46 17 13 28 -22 7 -22 7 -3 15 18 7
17 8 -7 8 -15 1 -33 -6 -42 -14z"/>
<path d="M3208 742 c-16 -2 -28 -8 -28 -13 0 -6 -4 -8 -10 -4 -5 3 -17 1 -27
-5 -10 -5 -31 -14 -46 -20 -16 -5 -25 -14 -22 -20 3 -5 -1 -10 -9 -10 -9 0
-16 -4 -16 -9 0 -5 -13 -12 -29 -16 -16 -3 -32 -12 -34 -19 -3 -8 -22 -17 -42
-20 -23 -5 -35 -12 -32 -20 3 -6 -10 -22 -28 -35 -33 -22 -37 -47 -12 -79 19
-24 79 -11 116 25 18 18 39 33 47 33 8 0 14 5 14 10 0 6 6 10 14 10 8 0 17 7
20 16 4 9 13 14 21 10 8 -3 15 -2 15 3 0 4 7 8 15 9 8 1 22 3 30 4 8 1 16 7
19 14 4 9 15 12 36 8 20 -5 30 -3 30 6 0 8 9 10 28 6 39 -10 82 -30 82 -38 0
-4 7 -5 15 -2 11 5 15 -1 15 -21 0 -22 4 -26 19 -22 15 3 27 -5 46 -34 14 -21
32 -39 39 -39 8 0 22 -7 30 -16 9 -8 16 -12 16 -8 0 4 6 1 13 -8 14 -19 82
-29 114 -17 12 4 40 9 63 11 22 1 40 6 40 10 0 4 10 8 23 8 12 0 29 9 37 20 8
11 22 20 30 20 9 0 25 7 36 15 10 8 29 15 41 15 12 0 23 6 25 12 3 7 19 13 37
14 19 1 36 6 40 12 10 15 49 24 56 12 3 -5 14 -10 24 -10 10 0 25 -7 32 -16 7
-9 22 -20 34 -25 32 -16 66 -36 78 -48 6 -6 26 -11 44 -11 20 0 36 -6 39 -14
4 -10 15 -13 40 -9 28 5 35 2 41 -16 8 -18 11 -19 33 -8 14 8 31 12 38 9 6 -2
12 0 12 5 0 5 15 10 32 11 18 2 36 9 40 16 7 13 54 31 70 28 4 -1 12 7 18 18
6 11 16 20 22 20 6 0 16 7 22 15 6 8 22 17 35 20 12 2 29 9 37 16 8 6 14 9 14
6 0 -3 19 -1 41 4 28 7 45 6 55 -2 7 -6 23 -8 36 -5 13 3 17 3 10 0 -18 -8 36
-57 55 -50 7 3 13 0 12 -7 -3 -29 2 -37 26 -37 14 0 38 -9 53 -20 21 -16 47
-21 118 -23 87 -4 93 -3 130 24 49 36 84 51 100 45 7 -3 15 1 17 8 7 17 73 19
89 2 7 -7 19 -11 26 -8 6 2 12 -1 12 -8 0 -6 4 -8 10 -5 5 3 25 -5 43 -19 19
-15 41 -26 50 -26 10 0 17 -5 17 -11 0 -5 5 -7 10 -4 6 4 34 9 63 12 29 3 63
12 77 21 14 9 42 25 63 35 20 11 37 25 37 32 0 7 7 18 16 26 14 12 14 14 -2
26 -10 7 -15 16 -11 19 8 8 -11 34 -25 34 -5 0 -6 -6 -2 -13 5 -9 4 -9 -6 0
-16 15 -58 0 -77 -27 -8 -11 -20 -20 -28 -20 -8 0 -18 -8 -24 -17 -8 -15 -13
-16 -29 -6 -12 7 -23 8 -29 2 -14 -14 -70 7 -99 38 -14 15 -34 27 -44 25 -10
-2 -20 4 -23 11 -6 16 -102 14 -122 -3 -6 -5 -41 -19 -77 -30 -36 -11 -71 -27
-78 -35 -7 -8 -23 -15 -35 -15 -13 0 -25 -4 -27 -9 -5 -13 -68 0 -68 14 0 8
-8 11 -19 8 -12 -3 -24 3 -34 17 -9 13 -26 23 -41 23 -18 0 -26 5 -26 16 0 10
-9 17 -21 18 -12 1 -29 9 -38 17 -10 9 -22 16 -28 16 -6 0 -13 5 -15 10 -5 16
-147 15 -193 0 -21 -7 -48 -21 -59 -31 -11 -11 -27 -19 -36 -19 -9 0 -26 -11
-38 -25 -12 -14 -29 -25 -37 -25 -8 0 -15 -4 -15 -9 0 -5 -23 -16 -52 -25 -44
-13 -54 -13 -72 -1 -11 8 -30 12 -42 9 -15 -4 -30 1 -45 15 -17 16 -25 18 -30
9 -6 -9 -14 -7 -31 8 -13 12 -43 32 -68 45 -25 13 -49 29 -55 35 -12 14 -111
28 -128 17 -6 -4 -30 -9 -52 -10 -22 -2 -46 -11 -52 -20 -7 -9 -13 -13 -13 -9
0 4 -11 -4 -23 -18 -13 -14 -27 -23 -30 -20 -3 4 -13 -1 -22 -10 -9 -9 -24
-16 -34 -16 -9 0 -26 -7 -37 -15 -10 -8 -30 -15 -43 -15 -14 0 -32 -7 -41 -15
-13 -12 -23 -13 -44 -5 -15 5 -38 10 -51 10 -12 0 -26 7 -29 16 -3 8 -10 12
-16 9 -5 -3 -10 3 -10 14 0 12 -7 21 -15 21 -8 0 -22 11 -31 25 -9 13 -24 27
-34 30 -11 3 -22 15 -25 26 -4 12 -15 19 -31 19 -13 0 -29 9 -36 19 -9 15 -16
17 -30 10 -10 -6 -23 -7 -29 -3 -18 11 -72 20 -101 16z m112 -52 c0 -5 -4 -10
-10 -10 -5 0 -10 5 -10 10 0 6 5 10 10 10 6 0 10 -4 10 -10z m160 -59 c0 -6
-4 -13 -10 -16 -5 -3 -10 1 -10 9 0 9 5 16 10 16 6 0 10 -4 10 -9z"/>
</g>
</svg>
