<!--?xml version="1.0" encoding="utf-8"?-->
<!-- Generator: Adobe Illustrator 22.1.0, SVG Export Plug-In . SVG Version: 6.00 Build 0)  -->
<svg version="1.1" id="_x35_" xmlns="http://www.w3.org/2000/svg" xmlns:xlink="http://www.w3.org/1999/xlink" x="0px" y="0px" viewBox="0 0 720 388" style="enable-background:new 0 0 720 388;" xml:space="preserve">
<style type="text/css">
	.st0{fill:#BEBDBC;}
	.st1{fill:#D8D6D4;}
	.st2{fill:#EAE4DF;}
	.st3{fill:#A3A3A3;}
</style>
<g>
	<g>
		<rect class="st0" width="720" height="388" style="opacity: 1;"></rect>
		<path class="st1" d="M640.805,193.995c0-31.376,21.722-57.672,50.957-64.743V28.205H28.238v101.646
			c28.07,7.863,48.665,33.594,48.665,64.144c0,30.559-20.594,56.292-48.665,64.155v101.645h663.525V258.75
			C662.527,251.678,640.805,225.38,640.805,193.995z" style="opacity: 1;"></path>
		<ellipse class="st0" cx="340.438" cy="194" rx="111.987" ry="125.2" style="opacity: 1;"></ellipse>
		<ellipse class="st2" cx="340.438" cy="194" rx="101.126" ry="114.352" style="opacity: 1;"></ellipse>
		<g>
			<g>
				<path class="st3" d="M69.825,50.578c2.152,0,3.228,0.638,3.228,1.915v52.19h0.107l5.597-0.456
					c0.358,1.583,0.538,2.965,0.538,4.151c0,1.187-0.467,1.78-1.399,1.78h-17.22l-5.597,0.457c-0.36-1.582-0.538-2.965-0.538-4.152
					c0-1.187,0.466-1.78,1.399-1.78h9.041V57.237l-3.013,0.457c-2.513,0.365-4.557,1.004-6.135,1.916
					c-1.005-0.973-1.687-2.403-2.045-4.288c0-0.182,0-0.334,0-0.457c0-0.668,0.431-1.094,1.291-1.277l13.669-2.92
					C69.107,50.608,69.464,50.578,69.825,50.578z" style="opacity: 1;"></path>
				<path class="st3" d="M84.03,101.763V59.61c0-3.04,1.112-5.413,3.337-7.117c2.223-1.702,5.236-2.555,9.041-2.555
					c3.802,0,6.761,0.792,8.879,2.373c2.115,1.583,3.174,3.893,3.174,6.935v42.153c0,3.043-1.13,5.415-3.39,7.117
					c-2.26,1.701-5.292,2.554-9.095,2.554c-3.804,0-6.745-0.791-8.825-2.372C85.069,107.117,84.03,104.806,84.03,101.763z
					 M92.102,59.246v42.518c0,1.035,0.393,1.903,1.184,2.601c0.789,0.7,1.775,1.05,2.96,1.05c1.184,0,2.169-0.35,2.959-1.05
					c0.789-0.698,1.184-1.566,1.184-2.601V59.246c0-1.034-0.395-1.901-1.184-2.601c-0.79-0.698-1.775-1.05-2.959-1.05
					c-1.185,0-2.171,0.352-2.96,1.05C92.495,57.345,92.102,58.212,92.102,59.246z" style="opacity: 1;"></path>
				<path class="st3" d="M116.209,101.763V59.61c0-3.04,1.112-5.413,3.337-7.117c2.223-1.702,5.236-2.555,9.041-2.555
					c3.802,0,6.761,0.792,8.879,2.373c2.115,1.583,3.174,3.893,3.174,6.935v42.153c0,3.043-1.13,5.415-3.39,7.117
					c-2.26,1.701-5.292,2.554-9.095,2.554c-3.804,0-6.745-0.791-8.825-2.372C117.249,107.117,116.209,104.806,116.209,101.763z
					 M124.281,59.246v42.518c0,1.035,0.393,1.903,1.184,2.601c0.789,0.7,1.775,1.05,2.96,1.05c1.184,0,2.169-0.35,2.959-1.05
					c0.789-0.698,1.184-1.566,1.184-2.601V59.246c0-1.034-0.395-1.901-1.184-2.601c-0.79-0.698-1.775-1.05-2.959-1.05
					c-1.185,0-2.171,0.352-2.96,1.05C124.675,57.345,124.281,58.212,124.281,59.246z" style="opacity: 1;"></path>
				<path class="st3" d="M148.389,101.763V59.61c0-3.04,1.112-5.413,3.337-7.117c2.223-1.702,5.236-2.555,9.041-2.555
					c3.802,0,6.761,0.792,8.879,2.373c2.115,1.583,3.174,3.893,3.174,6.935v42.153c0,3.043-1.13,5.415-3.39,7.117
					c-2.26,1.701-5.292,2.554-9.095,2.554c-3.804,0-6.745-0.791-8.825-2.372C149.428,107.117,148.389,104.806,148.389,101.763z
					 M156.461,59.246v42.518c0,1.035,0.393,1.903,1.184,2.601c0.789,0.7,1.775,1.05,2.96,1.05c1.184,0,2.169-0.35,2.959-1.05
					c0.789-0.698,1.184-1.566,1.184-2.601V59.246c0-1.034-0.395-1.901-1.184-2.601c-0.79-0.698-1.775-1.05-2.959-1.05
					c-1.185,0-2.171,0.352-2.96,1.05C156.855,57.345,156.461,58.212,156.461,59.246z" style="opacity: 1;"></path>
			</g>
		</g>
		<g>
			<ellipse class="st1" cx="28.238" cy="194" rx="11.704" ry="11.691" style="opacity: 1;"></ellipse>
			<ellipse class="st1" cx="691.762" cy="194" rx="11.704" ry="11.691" style="opacity: 1;"></ellipse>
		</g>
		<path class="st0" d="M186.901,300.818H113.9c-8.895,0-16.172-7.277-16.172-16.172v-9.412c0-8.895,7.277-16.172,16.172-16.172
			h73.001c8.895,0,16.172,7.277,16.172,16.172v9.412C203.073,293.54,195.796,300.818,186.901,300.818z" style="opacity: 1;"></path>
		<rect x="62.613" y="332.642" class="st0" width="357.839" height="7.226" style="opacity: 1;"></rect>
		<rect x="292.555" y="46.684" class="st0" width="357.839" height="7.226" style="opacity: 1;"></rect>
	</g>
	<g>
		<path class="st0" d="M509.597,227.658l-3.375,19.112l-8.226,24.923l8.508,37.854c0,0,51.046-73.391,49.499-83.434
			c-1.547-10.043-10.055-19.313-10.055-19.313L509.597,227.658z" style="opacity: 1;"></path>
		<path class="st3" d="M506.463,227.965c1.517,2.728,5.766,12.428,17.904,12.428s24.884-9.093,28.829-13.64
			C547.734,233.118,506.463,227.965,506.463,227.965z" style="opacity: 1;"></path>
		<path class="st0" d="M515.55,105.208c-17.358,7.3-32.889,13.688-31.976,46.54c0.914,32.852,2.741,54.753,13.704,68.441
			c10.963,13.688,31.062,17.338,48.42,10.038s27.408-23.726,27.408-30.114c0-6.388,3.654-17.338,3.654-17.338
			s10.049-14.601,4.568-35.589S553.921,104.296,515.55,105.208z" style="opacity: 1;"></path>
		<path class="st3" d="M483.575,151.748c-9.136,0.913-13.704-12.776-13.704-12.776c-10.963-2.738-13.704-39.239,4.568-46.54
			c4.568-14.601,18.272-16.426,27.408-10.951c11.877-3.65,26.494-1.825,31.062,2.738c15.531-4.563,25.58,6.388,30.148,12.776
			c11.877,6.388,36.543,22.814,22.84,58.403c1.827,11.863-5.482,27.376-9.136,27.376c7.309-17.338,0-37.414-6.395-29.201
			c-6.395,8.213-7.309-3.65-10.049-13.688c-2.741-10.038-10.963-24.639-21.926-20.076c-10.963,4.563-27.408,3.65-40.198,1.825
			C485.402,119.809,483.575,151.748,483.575,151.748z" style="opacity: 1;"></path>
		<path class="st3" d="M455.695,309.473c0-9.176-1.531-32.116,9.187-39.763c10.718-7.647,41.339-22.94,41.339-22.94l-1.531,48.939
			c0,0,44.561-68.653,52.451-73.503s15.965-22.093,15.965-22.093s2.546-3.066,5.884,1.178s11.532,21.218,11.532,21.218
			s52.195,47.589,56.747,64.261c4.552,16.671-3.049,25.956-8.511,30.502c-5.462,4.547-62.282,8.611-103.639,6.18
			C491.747,320.903,458.64,318.839,455.695,309.473z" style="opacity: 1;"></path>
		<path class="st3" d="M517.084,251.608c0,0,6.069,8.79,4.855,9.397c-1.214,0.606-5.159,3.637-5.159,3.637l-10.925,33.646
			l-8.497-1.516l13.656-34.858c0,0-1.821-4.85-0.91-5.153C511.015,256.458,517.084,251.608,517.084,251.608z" style="opacity: 1;"></path>
	</g>
</g>
</svg>
