<?xml version="1.0" standalone="no"?>
<!DOCTYPE svg PUBLIC "-//W3C//DTD SVG 20010904//EN"
 "http://www.w3.org/TR/2001/REC-SVG-20010904/DTD/svg10.dtd">
<svg version="1.0" xmlns="http://www.w3.org/2000/svg"
 width="462.000000pt" height="462.000000pt" viewBox="0 0 462.000000 462.000000"
 preserveAspectRatio="xMidYMid meet">

<g transform="translate(0.000000,462.000000) scale(0.100000,-0.100000)"
fill="#000000" stroke="none">
<path d="M2160 4469 c-8 -5 -37 -9 -65 -9 -27 -1 -70 -6 -95 -11 -25 -6 -59
-12 -77 -13 -17 -1 -35 -5 -39 -9 -4 -4 -22 -7 -40 -7 -18 0 -36 -4 -39 -10
-3 -5 -18 -10 -33 -10 -15 -1 -45 -8 -67 -16 -22 -9 -49 -17 -60 -18 -11 -1
-35 -9 -54 -19 -19 -9 -41 -17 -49 -17 -8 0 -36 -10 -61 -21 -25 -12 -75 -35
-111 -51 -92 -42 -122 -58 -146 -80 -11 -10 -23 -15 -27 -12 -4 4 -9 -1 -13
-10 -4 -9 -35 -30 -70 -47 -35 -16 -64 -34 -64 -40 0 -5 -9 -13 -19 -17 -11
-4 -68 -52 -127 -107 -58 -55 -119 -107 -135 -117 -16 -10 -29 -21 -29 -26 0
-9 -21 -36 -72 -94 -21 -23 -38 -48 -38 -55 0 -7 -13 -22 -30 -35 -16 -12 -30
-25 -30 -28 0 -4 -25 -44 -55 -90 -30 -46 -55 -91 -55 -101 0 -9 -7 -22 -15
-29 -8 -7 -15 -17 -15 -22 0 -5 -14 -27 -32 -49 -17 -22 -33 -47 -34 -57 -8
-50 -18 -79 -35 -97 -10 -12 -22 -36 -26 -55 -3 -19 -12 -41 -20 -48 -7 -8
-11 -23 -7 -37 3 -12 1 -26 -5 -29 -6 -4 -11 -15 -11 -25 0 -10 -6 -24 -14
-30 -10 -8 -13 -23 -9 -46 4 -23 0 -43 -11 -60 -9 -14 -15 -34 -12 -43 3 -9 1
-42 -4 -72 -18 -95 -20 -113 -24 -205 -2 -49 -7 -97 -11 -106 -3 -10 -2 -20 4
-24 8 -4 8 -12 1 -25 -5 -10 -8 -31 -5 -47 3 -15 7 -62 10 -103 11 -180 16
-228 29 -270 8 -25 17 -61 21 -80 4 -19 13 -44 20 -55 7 -11 16 -44 20 -72 4
-29 13 -57 20 -63 8 -6 17 -26 20 -43 4 -18 17 -54 30 -82 12 -27 32 -76 45
-107 12 -32 28 -62 36 -69 8 -6 14 -20 14 -31 0 -24 54 -104 80 -118 12 -6 20
-21 20 -36 0 -14 10 -35 23 -47 34 -33 107 -124 107 -133 0 -10 208 -214 218
-214 4 0 39 -30 77 -66 39 -36 84 -71 100 -78 17 -7 50 -30 73 -50 24 -20 50
-36 56 -36 7 0 21 -9 31 -20 10 -11 25 -20 33 -20 21 0 100 -38 137 -66 17
-12 47 -25 67 -29 20 -4 39 -13 41 -20 3 -6 24 -15 47 -18 23 -3 50 -13 60
-22 10 -9 24 -14 30 -10 7 4 24 -2 39 -13 19 -14 38 -19 66 -16 37 3 58 -2
107 -27 10 -5 33 -9 51 -9 18 0 78 -6 133 -14 97 -14 185 -20 294 -17 165 3
247 8 263 15 9 5 27 6 39 3 12 -4 28 -1 35 4 7 6 29 12 50 13 48 4 89 14 130
32 18 8 39 14 47 12 8 -2 21 5 28 14 8 11 29 18 53 20 22 1 57 12 77 25 21 13
51 23 67 23 16 0 34 6 40 14 6 7 24 16 40 19 15 3 46 21 69 41 25 20 58 37 82
41 22 4 44 14 49 24 5 9 22 23 38 31 25 13 70 46 113 84 8 7 41 29 72 50 62
41 218 183 218 199 0 14 71 91 92 99 10 4 18 13 18 20 0 13 22 43 78 108 17
21 32 44 32 52 0 8 9 23 19 32 11 10 17 24 15 31 -3 8 6 21 20 30 13 9 28 30
31 46 4 16 15 34 25 39 10 5 21 25 24 44 4 20 20 61 36 92 17 31 30 66 30 78
0 11 7 30 15 40 8 11 15 29 15 41 0 11 6 30 14 41 8 12 18 44 22 72 3 29 13
57 20 63 8 6 14 29 14 50 0 21 4 49 10 63 5 15 13 63 16 109 4 45 10 87 14 92
4 6 6 120 5 255 -2 203 -5 253 -19 294 -10 27 -16 59 -13 72 2 13 -2 29 -9 35
-8 6 -14 29 -14 50 0 21 -5 41 -11 45 -6 3 -8 16 -5 28 3 13 -4 41 -19 69 -14
25 -25 53 -25 62 0 9 -13 46 -30 82 -16 35 -30 72 -30 82 0 10 -15 38 -34 62
-18 24 -36 54 -40 66 -4 11 -13 27 -21 33 -8 7 -15 22 -15 34 0 11 -9 32 -20
46 -11 14 -20 30 -20 37 0 7 -9 17 -20 23 -11 6 -22 21 -26 35 -3 13 -12 26
-20 29 -8 3 -14 14 -14 25 0 12 -11 27 -23 36 -13 8 -30 27 -38 42 -16 32 -85
103 -98 103 -5 0 -18 11 -29 25 -11 14 -25 25 -31 25 -6 0 -11 4 -11 9 0 15
-116 128 -149 145 -17 9 -31 21 -31 26 0 9 -85 70 -99 70 -4 0 -16 9 -26 20
-10 11 -23 20 -28 20 -6 0 -20 9 -31 19 -24 22 -76 54 -126 77 -19 9 -42 20
-50 25 -14 9 -25 14 -95 45 -59 26 -161 66 -195 76 -19 5 -66 19 -105 31 -38
11 -87 21 -108 22 -21 0 -41 6 -45 11 -4 6 -38 11 -76 13 -39 1 -76 7 -83 13
-7 6 -29 8 -50 4 -21 -4 -45 -6 -53 -6 -70 2 -200 10 -220 14 -14 3 -32 1 -40
-5z m457 -694 c-5 -30 -3 -35 15 -35 18 0 20 4 14 31 -5 27 -4 29 10 15 8 -9
23 -16 32 -15 11 0 12 2 5 6 -13 5 -19 33 -7 33 5 0 45 -20 53 -26 5 -4 -21
-29 -39 -37 -18 -8 31 0 54 9 11 4 16 1 16 -11 0 -9 5 -13 11 -10 6 4 8 13 5
20 -15 40 138 -63 158 -106 5 -10 13 -19 17 -19 4 0 28 -37 53 -82 32 -60 43
-90 39 -110 -3 -18 1 -32 16 -47 12 -12 21 -28 21 -36 0 -8 4 -15 9 -15 5 0 9
-11 9 -25 0 -14 -4 -28 -9 -31 -5 -3 -9 -10 -9 -15 0 -6 5 -7 10 -4 9 5 16
-32 11 -59 -1 -4 3 -14 9 -20 14 -18 0 -28 -18 -13 -13 10 -15 9 -10 -10 4
-16 2 -23 -9 -23 -8 0 -12 -4 -9 -9 3 -5 15 -7 26 -4 11 3 20 1 20 -5 0 -6 3
-17 6 -26 9 -22 -22 -21 -35 1 -8 15 -10 14 -16 -10 -8 -30 -32 -32 -27 -3 3
14 0 15 -16 7 -10 -5 -27 -8 -38 -5 -12 3 -33 -8 -57 -29 -36 -32 -41 -52 -11
-40 10 3 14 -3 14 -20 0 -14 6 -27 13 -30 6 -2 -5 -6 -26 -9 -33 -4 -38 -2
-34 14 3 10 1 18 -3 18 -10 0 -23 -36 -17 -47 2 -5 -5 -16 -16 -27 -19 -19
-20 -18 -12 30 11 68 13 167 3 180 -5 7 -2 18 7 28 9 9 14 20 11 25 -8 12 39
23 69 15 26 -6 36 10 13 20 -7 3 1 3 18 1 28 -4 32 -1 41 28 8 27 7 37 -8 55
-26 33 -49 28 -50 -10 -1 -18 -1 -36 0 -40 0 -5 -3 -8 -9 -8 -9 0 -15 45 -10
80 2 18 40 59 40 44 0 -7 21 -11 50 -11 33 1 50 5 50 13 0 18 -17 26 -24 12
-5 -10 -7 -10 -12 0 -3 6 -15 12 -25 12 -11 0 -17 -4 -14 -10 3 -6 -1 -7 -9
-4 -8 3 -18 14 -21 24 -7 22 -45 15 -45 -9 -1 -14 -2 -14 -14 1 -12 17 -14 17
-31 -2 -21 -23 -45 -26 -45 -6 0 16 27 29 41 20 5 -3 9 0 9 5 0 14 -53 14 -66
1 -12 -12 -39 4 -30 19 4 6 12 8 18 5 7 -5 8 -2 3 5 -4 8 -16 10 -29 6 -11 -4
-43 -9 -69 -11 -42 -3 -50 -1 -54 16 -3 11 -12 20 -20 20 -8 0 -11 -5 -7 -12
5 -8 2 -9 -11 -5 -9 4 -24 2 -31 -4 -11 -9 -14 -8 -14 4 0 11 -6 14 -15 11
-14 -6 -13 -8 2 -20 17 -13 15 -17 -24 -53 -34 -31 -45 -49 -54 -92 -12 -59
-28 -87 -39 -69 -4 6 -7 -5 -8 -25 -1 -22 4 -38 12 -41 10 -4 11 -16 6 -45 -4
-22 -4 -42 1 -44 9 -6 -3 -52 -22 -84 -12 -19 -12 -24 2 -34 19 -14 33 -53 24
-67 -4 -6 -12 -5 -21 5 -9 8 -24 15 -34 15 -28 0 -36 21 -14 38 13 10 15 16 7
19 -8 3 -13 25 -14 56 l0 52 -16 -32 c-18 -37 -42 -46 -60 -23 -16 21 -27 7
-19 -25 4 -14 14 -26 24 -26 16 -1 16 -2 0 -6 -10 -2 -15 -10 -11 -19 4 -10
-2 -14 -22 -14 -14 0 -24 -4 -20 -9 3 -5 1 -12 -5 -16 -5 -3 -10 -12 -10 -18
0 -8 3 -8 8 -2 4 6 20 16 36 23 24 11 31 11 38 0 8 -10 11 -10 15 0 7 17 23
15 23 -4 0 -12 -7 -15 -25 -12 -14 3 -28 1 -31 -3 -3 -5 0 -9 6 -9 7 0 9 -9 6
-22 -3 -13 -3 -17 0 -10 5 10 10 9 25 -4 18 -16 19 -16 19 2 0 20 32 54 50 54
6 0 13 -7 17 -16 3 -8 21 -32 40 -52 19 -20 30 -38 24 -40 -6 -2 -11 -8 -11
-13 0 -6 5 -7 10 -4 15 9 51 -37 39 -50 -16 -16 -10 -25 16 -25 16 0 25 -6 25
-15 0 -8 4 -15 10 -15 5 0 7 6 4 14 -4 10 2 12 23 8 15 -3 22 -7 14 -10 -11
-4 -11 -6 0 -13 11 -7 10 -9 -3 -9 -10 0 -18 -7 -18 -16 0 -13 -7 -15 -31 -10
-37 7 -36 -12 2 -31 13 -7 23 -17 22 -23 -2 -5 4 -7 13 -3 8 3 21 -2 29 -13
13 -18 13 -18 12 1 -1 13 4 20 14 19 11 -1 15 5 12 17 -3 11 -14 19 -24 19
-25 0 -24 27 1 35 11 3 20 11 20 17 0 7 5 7 14 -1 7 -6 11 -22 9 -35 -3 -13 0
-27 6 -30 7 -4 11 1 11 13 0 13 7 21 18 21 13 0 14 2 4 9 -11 7 -9 13 9 30 15
13 18 21 9 21 -9 0 -6 7 8 20 12 12 23 25 23 30 2 15 5 23 18 50 l11 25 -5
-27 c-3 -15 -1 -30 5 -33 5 -3 10 -17 10 -29 0 -24 25 -54 32 -37 3 10 21 14
59 12 23 -1 25 -5 23 -33 -3 -49 6 -80 22 -74 8 3 14 -1 14 -9 0 -8 -6 -15
-12 -15 -10 0 -10 -2 0 -8 7 -5 10 -16 6 -26 -6 -15 -3 -17 14 -12 21 7 20 5
-5 -34 -21 -32 -29 -37 -35 -25 -11 19 -28 20 -28 2 0 -17 -28 -75 -40 -82 -8
-5 -18 45 -12 63 2 7 10 12 18 12 8 0 14 6 14 14 0 8 6 17 13 20 19 8 -22 36
-54 36 -15 0 -31 -4 -34 -10 -3 -5 -24 -10 -46 -10 l-40 0 25 -37 c28 -41 27
-56 -2 -29 -19 16 -57 12 -46 -5 3 -5 9 -7 14 -4 5 3 11 1 15 -5 6 -10 -6 -14
-37 -11 -11 2 -16 -3 -13 -11 3 -8 -6 -18 -25 -25 -24 -9 -30 -9 -30 3 0 11
-4 10 -20 -3 -11 -10 -20 -21 -20 -25 0 -5 9 -8 20 -8 25 0 26 -12 1 -27 -14
-9 -22 -9 -33 0 -20 16 -48 90 -48 125 0 31 -14 57 -26 49 -13 -8 -47 20 -40
32 6 9 -22 31 -38 31 -3 0 -5 -19 -3 -42 l2 -43 -40 0 c-32 0 -40 -4 -39 -17
3 -28 -35 -22 -60 9 -11 15 -26 47 -32 71 -10 40 -10 45 7 49 29 8 19 55 -16
73 -38 19 -47 32 -33 45 7 7 12 6 15 -2 8 -21 22 -15 16 6 -6 23 -34 36 -43
20 -4 -6 -9 0 -12 15 -5 22 -2 26 13 21 13 -5 19 -1 19 10 0 11 -5 15 -15 11
-10 -4 -15 1 -15 14 0 11 6 20 14 20 8 0 17 14 21 31 9 40 0 47 -17 13 -7 -15
-19 -30 -27 -32 -8 -3 -11 0 -7 7 4 6 4 17 -1 24 -4 6 -8 24 -9 39 -1 19 2 25
13 21 9 -3 11 -13 7 -27 -6 -18 -3 -17 15 6 26 32 26 38 4 38 -26 1 -67 35
-60 51 4 11 6 10 6 -2 1 -21 50 -44 64 -30 7 7 2 14 -16 20 -21 8 -27 17 -27
39 0 16 -3 32 -7 35 -3 4 -7 41 -7 82 l-1 75 32 0 c18 0 33 5 33 11 0 7 -11 8
-30 4 -23 -5 -30 -3 -30 9 0 9 6 16 14 16 7 0 16 9 19 20 3 11 1 20 -5 20 -5
0 -7 4 -3 9 3 5 1 12 -4 15 -13 9 -1 46 15 46 8 0 13 -3 12 -7 -1 -5 5 -20 12
-35 11 -23 16 -26 27 -16 11 9 17 9 24 -3 5 -8 9 -19 9 -26 0 -18 17 -25 37
-14 10 5 26 12 36 15 18 6 24 36 7 36 -5 0 -10 7 -10 15 0 9 9 15 25 15 27 0
33 14 13 26 -9 6 -6 10 9 14 22 5 21 5 -7 40 -30 37 -50 37 -30 0 13 -24 4
-43 -9 -21 -7 11 -13 10 -35 -4 -14 -10 -26 -21 -26 -26 0 -13 34 -11 48 3 16
16 15 -2 -1 -23 -19 -24 -63 -9 -59 21 1 12 -3 29 -9 37 -17 20 -2 30 22 14
25 -15 37 -7 20 13 -13 15 4 26 40 26 13 0 19 7 19 21 0 18 -5 21 -29 17 -19
-3 -28 -1 -24 6 11 16 12 106 2 106 -5 0 -9 -20 -9 -45 0 -41 -2 -45 -24 -45
-13 0 -33 -3 -43 -6 -14 -5 -13 -2 5 13 14 12 21 25 17 35 -4 9 -2 19 4 23 7
4 11 -3 11 -17 1 -20 2 -21 11 -5 5 9 8 21 5 26 -3 4 6 19 19 31 14 13 25 28
25 34 0 12 64 66 77 66 4 0 -1 -7 -11 -15 -18 -13 -18 -15 -2 -15 23 0 69 -47
62 -65 -6 -16 28 -30 45 -19 9 5 8 10 -3 18 -23 17 -28 42 -13 63 8 10 15 26
15 36 0 18 36 25 42 7 2 -6 9 -5 18 1 11 8 12 12 3 16 -7 2 -13 11 -13 19 0
11 -4 12 -19 4 -24 -12 -41 -13 -41 -2 0 14 39 28 82 29 l40 2 -5 -34z m-804
6 c-3 -12 -11 -17 -19 -14 -8 3 -14 0 -14 -6 0 -6 -11 -17 -25 -23 -29 -13
-32 -24 -7 -32 19 -6 46 -61 44 -88 -2 -24 12 -23 29 2 13 19 17 19 41 8 16
-7 28 -18 28 -24 0 -21 44 -25 63 -5 18 18 18 19 -12 29 -35 12 -41 32 -10 32
19 0 49 21 49 34 0 3 -12 6 -26 6 -19 0 -25 -4 -20 -15 9 -25 -8 -17 -20 10
-13 27 -9 35 17 35 16 0 17 4 8 26 -11 30 -8 37 12 29 22 -8 39 -82 35 -152
-2 -35 0 -63 5 -63 14 0 10 -30 -4 -36 -8 -3 -14 -17 -15 -32 -1 -25 -31 -99
-32 -77 0 6 -6 3 -13 -5 -12 -16 -23 -19 -94 -27 -51 -6 -57 -23 -9 -23 19 0
42 -3 50 -6 12 -5 15 -2 10 10 -4 11 -1 16 10 16 40 0 -11 -64 -52 -66 -24 -1
-30 12 -9 19 6 2 9 7 5 11 -3 4 -16 1 -28 -6 -18 -11 -23 -11 -34 5 -7 9 -18
17 -25 17 -6 0 -11 5 -11 10 0 6 4 10 9 10 5 0 11 9 14 20 8 30 -5 24 -30 -15
-21 -32 -22 -35 -5 -43 9 -5 22 -7 29 -5 8 3 6 -14 -4 -56 -14 -57 -17 -60
-37 -49 -11 6 -23 11 -26 10 -10 -2 0 53 10 56 14 5 12 21 -5 39 -11 11 -13
19 -5 27 7 9 4 16 -13 25 -12 6 -33 27 -46 46 -26 39 -50 38 -25 -1 17 -25 7
-33 -14 -12 -19 19 -22 5 -5 -29 10 -21 25 -34 44 -38 28 -6 38 -19 22 -28
-22 -12 -69 15 -88 49 -10 20 -21 31 -23 25 -5 -14 -39 -14 -47 -1 -3 6 -1 10
5 10 16 0 70 59 70 76 0 7 11 16 24 20 13 3 26 14 29 25 3 11 11 18 17 17 7
-2 15 3 17 10 3 6 -1 12 -8 12 -8 0 -3 7 9 16 12 8 27 12 32 9 6 -3 10 -2 10
3 0 6 -6 12 -14 15 -17 7 -28 47 -13 48 7 1 20 1 30 0 19 -2 21 7 8 28 -9 13
-24 12 -63 -4 -27 -11 -22 12 8 40 15 14 22 25 16 25 -6 0 -9 7 -6 15 8 20 44
19 44 -1 0 -11 5 -14 17 -10 9 4 20 1 24 -5 4 -8 13 -3 24 15 20 31 46 35 38
7z m37 -31 c0 -5 6 -9 13 -7 6 1 12 -7 12 -18 0 -11 4 -23 8 -26 5 -3 5 -18 1
-33 -5 -22 -9 -24 -21 -15 -11 10 -11 14 -1 20 10 7 9 9 -4 9 -25 0 -33 -4
-30 -13 1 -5 -3 -7 -10 -5 -7 3 -14 14 -16 26 -2 12 -8 22 -13 22 -18 0 -9 27
14 38 28 14 47 15 47 2z m-235 -120 c4 -6 11 -7 17 -4 7 4 8 2 4 -4 -4 -7 -16
-12 -27 -12 -24 0 -45 -19 -51 -46 -2 -13 -13 -20 -36 -22 -23 -2 -36 -10 -44
-27 -12 -26 -38 -42 -38 -22 1 16 36 57 49 57 6 0 11 7 11 15 0 9 9 15 25 15
23 0 24 2 15 20 -9 17 -8 20 9 20 11 0 23 5 26 10 8 13 32 13 40 0z m683 -140
c11 -18 10 -20 -18 -20 -23 0 -30 4 -30 20 0 12 7 20 18 20 9 0 23 -9 30 -20z
m-785 -28 c-3 -12 -9 -22 -14 -22 -12 0 -11 7 3 30 15 24 19 21 11 -8z m737
-46 c0 -20 -5 -36 -11 -36 -6 0 -9 7 -5 15 3 10 -1 15 -13 15 -17 0 -18 4 -9
34 9 29 13 32 24 21 8 -7 14 -30 14 -49z m-780 -46 l-11 -25 6 25 c2 14 5 34
6 45 2 19 2 19 6 0 2 -12 -1 -32 -7 -45z m-20 40 c0 -5 -4 -10 -10 -10 -5 0
-10 5 -10 10 0 6 5 10 10 10 6 0 10 -4 10 -10z m1320 -11 c15 -27 8 -32 -24
-18 -28 13 -33 24 -13 32 21 9 26 7 37 -14z m190 -3 c0 -3 -4 -8 -10 -11 -5
-3 -10 -1 -10 4 0 6 5 11 10 11 6 0 10 -2 10 -4z m-1430 -26 c0 -5 -7 -10 -16
-10 -8 0 -12 5 -9 10 3 6 10 10 16 10 5 0 9 -4 9 -10z m24 -5 c3 -8 1 -15 -4
-15 -6 0 -10 7 -10 15 0 8 2 15 4 15 2 0 6 -7 10 -15z m396 6 c0 -6 -4 -13
-10 -16 -5 -3 -10 1 -10 9 0 9 5 16 10 16 6 0 10 -4 10 -9z m-460 -41 c-7 -4
-9 -13 -6 -19 4 -6 3 -11 -3 -11 -15 0 -26 23 -13 28 7 2 12 13 12 25 1 21 1
21 11 3 9 -14 8 -20 -1 -26z m510 31 c0 -6 -5 -13 -11 -16 -6 -4 -8 -14 -4
-23 3 -8 0 -19 -6 -23 -6 -4 -8 -12 -4 -19 4 -7 9 -52 11 -101 2 -79 1 -87
-14 -83 -13 5 -14 4 -4 -4 17 -12 22 -45 8 -55 -8 -6 -7 -10 2 -14 6 -2 12
-11 12 -19 0 -8 -6 -14 -12 -14 -10 0 -10 -2 0 -8 20 -13 23 -54 7 -79 -13
-19 -13 -23 -2 -23 10 0 14 -16 13 -65 -1 -52 -5 -67 -21 -80 -19 -15 -19 -15
-1 -13 10 2 21 -3 24 -11 3 -10 0 -12 -12 -8 -18 7 -22 -8 -5 -18 6 -4 8 -13
5 -21 -7 -18 11 -18 21 0 5 9 9 -7 10 -41 2 -31 -1 -61 -7 -68 -6 -7 -4 -21 5
-39 15 -27 10 -86 -6 -86 -5 0 -9 -6 -9 -13 0 -7 -14 -18 -32 -25 -40 -15 -30
-28 11 -14 25 9 29 8 24 -4 -3 -8 -9 -14 -14 -14 -4 0 -6 -6 -3 -14 5 -13 -40
-24 -157 -40 -44 -5 -105 7 -102 21 1 6 -8 14 -22 17 -23 6 -24 9 -22 84 2 71
-5 149 -19 245 -5 35 -4 37 20 37 31 0 33 11 6 35 -21 19 -27 69 -10 80 14 8
13 65 -1 65 -7 0 -9 13 -5 38 3 20 6 56 7 80 1 31 5 42 18 43 14 1 13 2 -1 6
-25 6 -22 17 7 33 14 7 25 19 25 26 0 6 7 14 15 18 9 3 15 18 15 36 0 19 8 37
22 48 11 9 29 25 40 35 10 9 20 17 22 17 7 0 15 -71 9 -86 -9 -25 -24 -15 -18
14 3 15 2 21 -1 14 -5 -10 -9 -10 -20 -1 -11 9 -14 8 -14 -4 0 -8 -7 -17 -15
-21 -8 -3 -15 -14 -15 -25 0 -14 5 -19 15 -15 8 4 15 12 15 20 0 8 5 14 10 14
6 0 10 -7 10 -15 0 -8 9 -15 21 -15 12 0 17 -4 14 -11 -4 -6 -13 -8 -21 -5 -8
3 -14 1 -14 -5 0 -7 12 -9 30 -7 20 3 30 0 30 -9 0 -17 16 -17 23 1 3 8 16 16
28 18 12 2 24 8 26 15 3 7 -3 9 -15 6 -22 -5 -62 12 -62 27 0 6 9 10 21 10 19
0 49 21 49 34 0 3 -18 6 -40 6 -38 0 -39 1 -28 20 7 11 19 20 26 20 7 0 10 -4
7 -10 -3 -5 -1 -10 4 -10 15 0 14 6 -4 34 -24 36 -5 64 38 57 4 0 7 6 7 14 0
8 9 15 20 15 11 0 20 -4 20 -9z m840 -26 c15 -19 22 -45 12 -45 -17 1 -43 30
-37 40 4 6 -1 18 -11 26 -18 14 -18 15 2 5 11 -5 27 -17 34 -26z m76 -2 c-3
-8 -6 -19 -6 -24 0 -5 -4 -9 -10 -9 -5 0 -9 3 -9 8 4 21 -3 31 -16 26 -8 -4
-15 -2 -15 3 0 16 10 20 36 15 17 -3 23 -9 20 -19z m-1251 -28 c0 -5 -17 -11
-37 -12 -29 -2 -36 1 -31 13 6 17 68 16 68 -1z m185 -15 c0 -5 -7 -10 -15 -10
-8 0 -15 5 -15 10 0 6 7 10 15 10 8 0 15 -4 15 -10z m-159 -69 c-7 -5 -10 -14
-7 -20 4 -6 2 -11 -3 -11 -12 0 -15 23 -4 33 3 4 11 7 17 7 6 0 5 -4 -3 -9z
m764 -20 c3 -5 1 -12 -5 -16 -5 -3 -10 1 -10 9 0 18 6 21 15 7z m-737 -78 c-5
-26 -33 -28 -35 -3 -1 14 4 20 18 20 14 0 19 -6 17 -17z m-575 -9 c20 -7 10
-54 -12 -54 -36 0 -56 45 -23 53 9 3 18 5 19 6 1 0 8 -1 16 -5z m-53 -49 c0
-9 9 -15 25 -15 21 0 25 -5 25 -30 0 -19 -5 -30 -15 -31 -23 -2 -29 -4 -40
-10 -5 -4 -20 -5 -32 -4 -13 1 -23 -2 -23 -7 0 -4 0 -11 0 -15 0 -5 11 -9 25
-10 14 -1 23 2 20 7 -9 14 15 23 29 11 7 -6 17 -7 21 -3 5 4 5 -2 1 -13 -4
-11 -10 -35 -13 -52 -3 -18 -10 -33 -14 -33 -5 0 -9 -9 -9 -21 0 -12 -5 -19
-12 -17 -14 5 -30 58 -18 58 4 0 11 7 14 16 4 10 2 13 -7 7 -6 -4 -16 -9 -22
-10 -51 -13 -65 -14 -65 -4 0 6 4 11 9 11 11 0 22 40 14 53 -3 5 -6 27 -7 48
-2 34 2 42 28 59 37 23 66 26 66 5z m1917 -22 c7 -15 11 -28 10 -30 -9 -9 -57
24 -57 40 0 27 33 20 47 -10z m545 -21 c-5 -15 -3 -15 11 -4 18 15 37 8 37
-13 0 -7 6 -16 13 -18 9 -4 9 -8 -3 -16 -8 -5 -18 -7 -23 -4 -4 3 -15 -3 -23
-13 -11 -14 -17 -15 -20 -6 -6 14 -24 17 -24 4 0 -5 12 -15 28 -22 l27 -13
-30 -8 c-16 -4 -40 -11 -52 -14 -19 -6 -23 -3 -23 13 0 12 5 24 10 27 8 5 7
11 -1 21 -13 15 3 44 25 44 6 0 18 5 26 10 12 8 12 12 2 18 -7 5 -10 16 -6 27
7 17 8 17 20 0 7 -9 10 -24 6 -33z m-112 -6 c0 -3 -4 -8 -10 -11 -5 -3 -10 -1
-10 4 0 6 5 11 10 11 6 0 10 -2 10 -4z m18 -33 c0 -5 2 -16 7 -26 11 -26 -4
-35 -21 -13 -18 26 -18 46 1 46 8 0 14 -3 13 -7z m-2671 -32 c-3 -13 1 -21 14
-24 11 -3 19 -13 19 -22 0 -9 -5 -13 -11 -9 -6 3 -15 1 -19 -6 -11 -19 -29 -3
-23 20 4 15 0 20 -13 20 -16 0 -16 3 6 20 31 24 34 25 27 1z m1573 -1 c0 -11
-4 -20 -10 -20 -5 0 -10 9 -10 20 0 11 5 20 10 20 6 0 10 -9 10 -20z m667 14
c-3 -3 -12 -4 -19 -1 -8 3 -5 6 6 6 11 1 17 -2 13 -5z m784 -14 c11 -6 19 -21
19 -35 0 -20 -5 -25 -25 -25 -28 0 -34 -17 -10 -26 11 -5 13 -10 5 -19 -6 -7
-8 -21 -4 -31 5 -16 4 -16 -5 -4 -18 25 -30 -6 -19 -53 12 -54 13 -54 47 -49
26 4 29 2 24 -17 -4 -15 -1 -21 10 -21 9 0 19 -5 23 -11 4 -8 0 -9 -15 -4 -14
4 -21 2 -21 -7 0 -10 -11 -13 -42 -11 -24 2 -53 4 -65 4 -13 -1 -23 4 -23 9 0
5 -8 14 -18 19 -14 7 -19 6 -19 -4 0 -8 4 -12 8 -9 4 2 10 0 14 -6 3 -5 1 -10
-4 -10 -18 0 -13 -18 6 -22 17 -3 3 -12 -64 -39 -22 -10 -29 -17 -22 -25 6 -8
5 -14 -6 -18 -17 -6 -21 24 -5 40 6 6 -1 11 -21 12 -39 3 -69 -6 -69 -20 0 -6
6 -6 15 2 13 11 15 8 15 -16 0 -15 9 -38 21 -50 22 -24 18 -47 -6 -37 -8 3
-15 0 -15 -6 0 -6 7 -11 15 -11 8 0 15 -4 15 -10 0 -5 20 -10 45 -10 33 0 45
4 45 15 0 8 -4 15 -10 15 -5 0 -7 6 -4 14 3 8 1 17 -5 21 -17 10 -13 28 4 21
12 -4 14 0 9 18 -3 14 -1 27 7 31 8 5 10 4 5 -3 -11 -18 30 -56 51 -47 16 6
16 8 -4 16 -13 4 -23 13 -23 19 0 16 12 12 37 -12 30 -28 30 -56 1 -60 -19 -2
-23 -9 -21 -36 1 -29 -2 -33 -18 -29 -29 8 -40 -15 -19 -40 18 -23 37 -32 25
-13 -3 6 3 10 15 10 17 0 20 4 15 20 -5 14 -2 20 10 20 15 0 15 1 1 16 -20 20
-20 34 0 34 11 0 14 -5 10 -16 -4 -10 -1 -14 6 -11 7 2 13 19 13 37 -1 43 24
69 59 63 14 -3 23 -9 21 -14 -3 -4 1 -11 9 -16 13 -7 13 -11 0 -27 -10 -14
-14 -15 -14 -6 0 9 -6 5 -16 -9 -12 -17 -13 -26 -5 -34 8 -8 11 -6 11 7 0 10
6 16 13 14 6 -3 12 -11 12 -19 0 -8 -6 -15 -12 -15 -7 -1 -21 -2 -30 -3 -17
-2 -17 -2 0 -15 28 -22 21 -39 -13 -31 -18 4 -30 3 -30 -4 0 -6 -7 -8 -15 -5
-8 4 -15 1 -15 -5 0 -6 -7 -11 -15 -11 -26 0 -38 -38 -21 -65 15 -22 14 -24
-4 -30 -24 -8 -62 28 -53 51 5 13 2 15 -15 10 -15 -5 -22 -2 -26 12 -6 17 -16
32 -56 79 -5 6 -17 16 -26 21 -9 5 -16 23 -17 43 -1 23 -7 34 -17 34 -8 0 -16
8 -18 18 -4 20 27 24 46 5 22 -22 12 -2 -13 28 -39 45 -30 58 40 56 33 -1 54
1 48 4 -18 8 -16 24 2 24 8 0 15 -7 15 -16 0 -11 5 -14 16 -10 9 3 25 6 36 6
17 0 18 2 8 15 -9 11 -16 13 -24 5 -15 -15 -29 -12 -22 6 5 13 1 14 -26 8 -18
-3 -44 -14 -57 -23 -23 -15 -25 -15 -18 2 4 11 2 17 -7 17 -8 0 -16 -7 -20
-15 -3 -8 -12 -12 -19 -9 -9 3 -16 -3 -20 -15 -3 -12 -2 -21 2 -21 4 0 7 -9 8
-20 1 -11 -2 -20 -8 -20 -5 0 -9 6 -9 13 0 9 -2 9 -8 0 -4 -7 -12 -9 -18 -5
-17 12 -54 69 -48 75 3 3 2 12 -2 19 -5 7 -9 18 -11 23 -1 6 -4 20 -7 33 -7
31 33 47 81 31 19 -6 40 -8 48 -5 18 6 20 49 4 78 -13 24 -5 35 14 20 10 -9
18 -8 33 4 18 15 18 15 -3 11 -13 -3 -26 -1 -29 4 -3 5 1 10 8 10 7 1 20 2 28
3 9 0 15 10 14 24 0 12 3 22 8 22 4 0 8 -4 8 -10 0 -5 7 -10 15 -10 16 0 16
20 0 33 -6 4 0 10 13 13 12 4 22 10 22 16 0 5 8 4 19 -2 12 -6 17 -17 14 -29
-3 -10 0 -22 6 -25 22 -14 12 -45 -16 -52 -16 -3 -33 -7 -40 -9 -7 -2 -15 1
-19 6 -4 7 -10 7 -16 1 -6 -6 -7 -15 -4 -21 9 -14 43 -14 51 -1 3 6 17 10 30
10 21 0 37 18 39 45 1 6 6 10 12 10 6 0 18 8 28 18 10 9 32 17 52 17 42 0 45
18 4 26 -16 4 -27 10 -24 15 7 12 31 11 55 -1z m-743 -15 c12 -4 22 -14 22
-21 0 -17 17 -18 23 -1 2 6 4 1 4 -13 1 -49 -58 -57 -109 -17 -17 13 -24 47
-13 58 5 6 44 3 73 -6z m-2106 -13 c15 -6 15 -9 1 -27 -13 -16 -15 -17 -10 -2
7 19 -3 23 -19 7 -6 -6 -18 -8 -28 -4 -15 6 -15 7 1 20 20 15 30 16 55 6z
m-216 -32 c0 -11 -4 -20 -8 -20 -4 0 -8 9 -8 20 0 11 4 20 8 20 4 0 8 -9 8
-20z m2224 0 c6 -11 18 -20 27 -20 24 0 3 -19 -25 -23 -12 -2 -33 -14 -47 -27
-25 -24 -47 -22 -27 3 6 7 9 23 5 35 -6 26 5 29 23 5 17 -24 32 -8 16 17 -16
25 -15 30 3 30 8 0 19 -9 25 -20z m550 -10 c0 -5 -5 -10 -11 -10 -5 0 -7 5 -4
10 3 6 8 10 11 10 2 0 4 -4 4 -10z m-2670 -15 c0 -8 -4 -15 -10 -15 -5 0 -10
7 -10 15 0 8 5 15 10 15 6 0 10 -7 10 -15z m-60 -5 c-19 -13 -30 -13 -30 0 0
6 10 10 23 10 18 0 19 -2 7 -10z m89 -21 c-7 -13 -7 -19 -1 -15 6 3 13 2 16
-3 10 -15 -22 -21 -34 -6 -9 11 -9 18 2 29 19 22 30 19 17 -5z m81 -9 c0 -5
-9 -10 -21 -10 -11 0 -17 5 -14 10 3 6 13 10 21 10 8 0 14 -4 14 -10z m2129 0
c4 0 7 -9 7 -20 0 -12 -7 -20 -17 -20 -9 0 -22 -7 -29 -16 -11 -12 -11 -15 1
-12 8 2 13 -4 13 -14 -1 -10 1 -18 5 -18 4 0 6 -13 3 -30 -4 -31 -12 -34 -46
-21 -18 7 -18 8 -1 25 15 15 16 19 4 27 -8 5 -17 9 -21 9 -12 0 28 65 40 65
19 0 27 16 12 26 -12 9 -12 10 3 5 10 -3 22 -6 26 -6z m756 -40 c-3 -6 -10
-10 -16 -10 -10 0 -12 33 -2 44 9 9 26 -22 18 -34z m-2765 10 c0 -5 -5 -10
-11 -10 -5 0 -7 5 -4 10 3 6 8 10 11 10 2 0 4 -4 4 -10z m-339 -16 c11 -10 23
-13 31 -8 20 13 42 14 58 4 12 -7 12 -12 2 -22 -19 -19 -14 -27 14 -25 15 1
29 -3 31 -9 2 -7 -4 -11 -14 -10 -10 0 -17 -5 -15 -11 2 -15 -14 -17 -23 -3
-3 6 -17 10 -30 10 -13 0 -27 -4 -30 -10 -6 -9 8 -14 28 -11 12 2 8 -17 -5
-23 -7 -3 -1 -4 15 -1 15 3 27 1 27 -5 0 -5 7 -10 16 -10 8 0 12 5 9 10 -3 6
3 10 13 10 11 0 22 7 26 15 8 22 26 18 26 -7 0 -11 12 -36 26 -55 26 -34 26
-70 1 -60 -8 3 -20 1 -28 -4 -11 -7 -10 -9 6 -9 41 0 63 12 70 38 4 16 2 28
-4 30 -13 4 -15 32 -2 32 5 0 12 -7 15 -16 5 -12 10 -14 20 -5 15 12 27 5 20
-13 -3 -7 6 -22 19 -35 21 -19 25 -20 30 -7 5 11 0 16 -13 16 -17 0 -19 5 -13
33 3 17 10 34 14 37 5 3 0 14 -11 23 -11 9 -20 26 -20 37 0 11 -4 20 -9 20 -8
0 -8 14 -1 40 1 3 7 -11 13 -30 10 -30 16 -35 39 -32 20 2 32 -4 49 -27 13
-17 26 -31 31 -31 13 0 9 20 -7 36 -21 21 -19 31 7 38 31 8 38 -3 31 -47 -4
-29 -10 -37 -27 -38 -18 -1 -18 -2 -3 -6 25 -7 18 -45 -11 -59 -16 -8 -19 -13
-11 -16 10 -3 6 -12 -12 -29 -14 -13 -33 -37 -42 -54 -8 -16 -36 -50 -61 -75
-25 -24 -46 -49 -46 -55 -1 -13 -54 -65 -82 -79 -15 -8 -22 -19 -20 -33 2 -12
-4 -43 -12 -68 -21 -62 -21 -66 10 -55 14 6 35 10 47 10 18 0 19 -2 7 -10 -13
-8 -12 -10 3 -10 21 0 22 28 1 58 -8 12 -12 22 -8 22 4 0 -1 7 -12 15 -10 8
-15 15 -10 15 5 0 2 8 -5 17 -12 15 -12 16 3 10 9 -3 22 1 28 9 7 8 19 14 27
14 7 0 24 6 36 14 12 8 39 17 60 20 32 6 37 4 37 -12 0 -11 3 -35 7 -53 6 -31
5 -33 -10 -20 -9 7 -17 10 -17 5 0 -4 -7 1 -15 12 -8 10 -15 13 -15 7 0 -9 -7
-10 -25 -3 -26 10 -31 4 -16 -19 5 -8 16 -11 25 -8 9 4 16 3 16 -1 -1 -18 -18
-30 -55 -38 l-40 -8 38 -4 c21 -2 45 2 52 8 24 20 65 20 65 0 0 -24 -26 -44
-46 -36 -11 4 -25 -2 -37 -15 -20 -21 -20 -22 -2 -35 18 -13 18 -15 1 -33 -10
-11 -24 -17 -31 -15 -9 4 -12 -3 -11 -20 1 -33 21 -40 59 -21 43 22 47 20 47
-26 0 -62 -12 -76 -65 -77 -25 -1 -45 3 -45 8 0 6 13 10 28 10 19 0 29 5 29
15 0 8 -7 15 -14 15 -8 0 -11 -4 -8 -10 3 -5 -2 -10 -12 -10 -33 0 -46 -15
-34 -38 9 -18 15 -19 39 -10 54 21 70 -7 47 -86 -5 -19 -4 -31 4 -36 7 -4 -13
-10 -45 -13 -37 -4 -61 -12 -66 -22 -6 -10 -14 -13 -24 -7 -9 5 -30 4 -50 -2
-40 -13 -46 -29 -7 -20 15 4 32 7 38 6 23 -2 45 -9 51 -15 4 -3 15 -2 25 3 13
8 20 6 28 -7 9 -16 10 -14 11 8 0 29 12 37 50 35 16 -1 26 -8 28 -20 3 -15 0
-18 -21 -12 -14 3 -29 2 -32 -4 -6 -10 6 -14 38 -10 18 1 18 0 2 -24 -10 -14
-21 -24 -25 -21 -4 3 -13 -2 -20 -10 -7 -8 -21 -15 -31 -15 -11 0 -19 -6 -20
-12 0 -7 -4 -3 -9 10 -5 12 -7 29 -4 37 4 8 1 15 -4 15 -18 0 -24 -20 -12 -35
10 -13 8 -15 -14 -15 -14 0 -26 -5 -26 -11 0 -5 -4 -7 -10 -4 -5 3 -10 -1 -10
-10 0 -9 5 -13 10 -10 6 3 10 -1 10 -9 0 -8 -4 -18 -10 -21 -5 -3 -10 -11 -10
-16 0 -6 4 -8 8 -5 4 2 9 -5 9 -17 1 -12 7 -23 13 -25 13 -5 13 -22 1 -22 -5
0 -13 9 -16 20 -3 11 -15 20 -26 20 -10 0 -19 5 -19 10 0 6 -7 10 -15 10 -8 0
-15 -5 -15 -11 0 -5 -5 -7 -10 -4 -6 4 -8 14 -6 23 7 20 -13 53 -20 35 -3 -7
-23 5 -50 31 -32 30 -43 46 -38 59 3 9 13 17 21 17 9 0 12 6 8 19 -7 22 16 44
39 35 19 -7 21 7 4 25 -11 11 -10 13 2 9 17 -6 50 8 50 22 0 4 -12 23 -27 42
-15 18 -20 27 -13 21 21 -20 32 -15 20 7 -6 11 -18 20 -27 20 -9 0 -13 3 -9 8
4 4 12 7 18 7 6 0 14 9 18 21 7 17 2 24 -22 39 l-31 18 23 12 c23 12 22 13
-12 17 -25 3 -34 0 -31 -8 3 -9 -3 -11 -24 -5 -20 5 -29 14 -31 34 -2 19 -8
25 -20 21 -15 -5 -15 -4 1 9 20 16 23 63 5 71 -10 3 -8 8 4 16 25 15 12 41
-17 34 -16 -4 -27 0 -35 13 -8 13 -13 14 -16 5 -3 -6 -10 -9 -16 -6 -5 3 0 13
12 21 12 8 19 21 16 29 -7 18 18 18 33 0 7 -8 23 -13 37 -11 41 4 40 15 -2 16
-21 1 -31 3 -21 6 12 3 17 15 17 44 0 27 4 39 14 39 18 0 29 33 21 61 -5 14
-2 25 6 30 12 7 12 9 0 9 -8 0 -5 9 10 25 29 30 39 31 39 5 0 -17 3 -19 19
-10 26 13 31 13 31 -5 0 -8 6 -15 13 -15 14 0 16 27 3 48 -4 7 -11 10 -16 7
-5 -3 -13 3 -19 12 -6 10 -11 13 -11 6 0 -8 -12 -11 -34 -8 -27 4 -35 0 -44
-18 -8 -17 -11 -18 -11 -5 -1 9 6 23 14 32 19 19 19 30 1 23 -11 -5 -17 5 -22
39 -3 25 -4 47 -1 50 3 4 1 18 -4 32 -9 22 -6 29 18 48 28 23 28 23 5 24 -20
0 -22 4 -16 23 4 12 12 26 18 30 8 6 8 10 -1 14 -13 5 -18 33 -6 33 3 0 14 -7
24 -16z m2226 4 c25 4 41 -17 23 -28 -7 -4 -10 -12 -6 -18 4 -7 -19 -10 -69
-9 -41 1 -75 5 -75 9 0 5 16 8 35 8 27 0 35 4 35 18 0 24 10 33 24 25 6 -4 21
-6 33 -5z m-1976 -21 c-1 -12 -15 -9 -19 4 -3 6 1 10 8 8 6 -3 11 -8 11 -12z
m-31 -37 c0 -5 -10 -10 -22 -10 -19 0 -20 2 -8 10 19 13 30 13 30 0z m38 -53
c5 -23 -10 -21 -26 4 -12 18 -11 20 5 17 10 -2 19 -11 21 -21z m2882 -47 c0
-5 -7 -10 -16 -10 -8 0 -12 5 -9 10 3 6 10 10 16 10 5 0 9 -4 9 -10z m-116
-52 c12 20 48 15 44 -5 -2 -10 -10 -17 -18 -15 -7 2 -16 -2 -20 -8 -5 -8 -12
-7 -23 4 -8 9 -21 16 -27 16 -7 0 -6 5 2 14 11 11 14 11 24 -2 8 -11 13 -12
18 -4z m-184 -8 c0 -5 -5 -10 -11 -10 -5 0 -7 5 -4 10 3 6 8 10 11 10 2 0 4
-4 4 -10z m-129 -67 c13 -16 12 -17 -3 -4 -17 13 -22 21 -14 21 2 0 10 -8 17
-17z m-581 -7 c0 -3 -4 -8 -10 -11 -5 -3 -10 -1 -10 4 0 6 5 11 10 11 6 0 10
-2 10 -4z m-370 -16 c0 -5 -4 -10 -10 -10 -5 0 -10 5 -10 10 0 6 5 10 10 10 6
0 10 -4 10 -10z m-35 -40 c3 -5 1 -10 -4 -10 -6 0 -11 5 -11 10 0 6 2 10 4 10
3 0 8 -4 11 -10z m-70 -13 c11 -11 10 -15 -4 -23 -12 -8 -20 -6 -33 7 -26 28
9 43 37 16z m73 -45 c1 -5 -1 -12 -5 -15 -11 -7 -53 10 -53 22 0 13 53 7 58
-7z m62 8 c0 -5 -7 -10 -16 -10 -8 0 -12 5 -9 10 3 6 10 10 16 10 5 0 9 -4 9
-10z m-1891 -44 c7 -8 21 -12 31 -9 23 6 27 -16 8 -35 -9 -9 -15 -9 -26 0 -19
16 -42 19 -36 4 2 -6 -5 -17 -17 -24 -19 -12 -20 -11 -14 7 4 12 2 21 -4 21
-12 0 -15 33 -4 43 11 12 50 7 62 -7z m1871 10 c0 -11 -19 -15 -25 -6 -3 5 1
10 9 10 9 0 16 -2 16 -4z m1460 -21 c0 -14 5 -25 11 -25 6 0 9 7 5 15 -6 17 9
21 19 4 4 -5 0 -18 -9 -28 -9 -10 -16 -23 -16 -29 0 -7 -6 -12 -14 -12 -9 0
-12 8 -8 25 2 14 -1 32 -8 40 -6 8 -9 19 -5 25 11 18 25 11 25 -15z m-148 -5
c8 -13 24 -20 44 -20 32 0 60 -22 50 -39 -3 -5 7 -15 23 -22 38 -17 30 -29
-14 -24 -27 4 -35 1 -35 -11 0 -12 -8 -14 -36 -9 -29 4 -35 2 -31 -10 4 -8 2
-17 -3 -20 -6 -4 -10 3 -10 14 0 14 -5 19 -15 15 -10 -4 -15 0 -15 10 0 13 6
15 28 10 42 -10 43 -10 55 8 9 13 8 20 -2 30 -11 10 -14 10 -18 1 -5 -15 -29
-17 -37 -4 -3 5 2 8 11 7 9 0 18 5 21 13 3 10 -1 12 -17 8 -24 -6 -45 21 -35
47 8 22 21 20 36 -4z m45 -6 c-3 -3 -12 -4 -19 -1 -8 3 -5 6 6 6 11 1 17 -2
13 -5z m-97 -25 c0 -6 -4 -7 -10 -4 -5 3 -10 11 -10 16 0 6 5 7 10 4 6 -3 10
-11 10 -16z m-250 -6 c8 -3 24 -6 35 -7 10 -1 24 -11 31 -23 6 -13 14 -20 17
-16 4 3 7 1 7 -5 0 -7 5 -12 10 -12 6 0 10 7 10 15 0 9 6 12 15 9 11 -5 12
-10 4 -26 -11 -20 0 -37 24 -38 12 0 8 18 -5 23 -8 4 -7 6 3 6 9 1 19 -8 22
-19 3 -11 2 -20 -3 -20 -4 0 -11 -7 -14 -16 -3 -8 -2 -12 4 -9 20 13 50 -7 58
-38 6 -23 14 -31 26 -29 12 2 16 -2 14 -10 -7 -19 -50 -10 -67 13 -17 23 -33
25 -24 2 4 -11 3 -14 -5 -9 -7 4 -12 14 -12 22 0 9 -11 14 -30 14 -16 0 -30
-4 -30 -10 0 -5 8 -10 17 -10 14 0 13 -3 -6 -17 -22 -15 -23 -17 -6 -29 10 -7
18 -25 18 -39 0 -18 5 -25 19 -25 10 0 21 -7 24 -15 8 -21 25 -8 17 13 -5 13
-3 14 7 5 8 -7 21 -8 34 -3 25 9 30 10 57 10 15 0 19 5 15 16 -3 8 -2 12 4 9
5 -3 15 3 22 15 7 11 18 20 25 20 7 0 13 7 13 15 0 9 9 15 25 15 31 0 24 26
-10 34 -30 8 -58 -3 -51 -19 3 -8 -2 -16 -10 -19 -9 -4 -14 1 -14 14 0 21 -15
27 -25 10 -7 -11 -25 -4 -25 9 0 11 70 31 107 31 16 0 35 -6 41 -12 10 -10 17
-10 32 0 36 22 42 8 11 -25 -10 -11 -21 -29 -23 -39 -2 -13 -13 -20 -36 -22
-20 -2 -36 -11 -43 -25 -16 -29 -50 -56 -71 -57 -11 0 -18 -8 -18 -20 0 -23
-4 -24 -29 -9 -13 9 -26 9 -51 1 -33 -12 -64 -4 -83 22 -8 10 -3 -9 9 -40 3
-6 -1 -11 -8 -11 -7 0 -25 -4 -40 -8 -25 -6 -28 -5 -28 19 0 30 8 33 26 9 12
-17 13 -17 20 0 8 22 2 29 -28 32 -37 4 -38 4 -38 17 0 6 3 8 7 5 3 -4 12 -2
19 4 8 7 14 7 19 -1 9 -15 25 -12 25 5 0 8 -4 15 -10 15 -5 0 -7 7 -4 15 4 8
1 15 -5 15 -6 0 -11 7 -11 15 0 8 -8 15 -17 15 -23 1 -64 30 -42 30 9 0 5 8
-11 21 -14 11 -20 18 -14 15 7 -3 15 1 18 10 4 9 13 14 21 10 10 -3 17 3 21
19 3 14 10 25 15 25 5 0 9 9 9 20 0 11 -7 20 -16 20 -8 0 -12 4 -9 10 3 5 -2
9 -12 8 -42 -3 -53 2 -53 26 0 24 13 26 60 9z m235 -33 c3 -6 -1 -7 -9 -4 -18
7 -21 14 -7 14 6 0 13 -4 16 -10z m-254 -46 c15 -18 21 -44 10 -44 -13 0 -51
46 -44 53 10 11 19 8 34 -9z m-2856 -85 c3 -4 1 -10 -5 -14 -17 -10 -11 -25
10 -25 24 0 24 0 7 -34 -15 -28 -27 -25 -27 8 0 12 -7 34 -15 50 -8 15 -15 30
-15 31 0 6 41 -8 45 -16z m440 -31 c15 -67 14 -76 -6 -71 -19 5 -21 11 -21 58
0 34 0 35 12 35 5 0 12 -10 15 -22z m2625 -58 c0 -21 -20 -38 -21 -18 0 10 -2
10 -6 1 -7 -18 -23 -16 -23 2 0 8 5 15 10 15 6 0 10 7 10 15 0 9 6 12 15 9 8
-4 15 -14 15 -24z m50 0 c0 -5 -2 -10 -4 -10 -3 0 -8 5 -11 10 -3 6 -1 10 4
10 6 0 11 -4 11 -10z m-250 -29 c0 -14 -18 -23 -31 -15 -8 4 -7 9 2 15 18 11
29 11 29 0z m-2751 -70 c8 -5 11 -16 6 -30 -5 -18 -9 -20 -21 -10 -11 9 -12
14 -3 19 8 6 8 9 0 14 -6 4 -15 4 -21 1 -5 -3 -10 -1 -10 4 0 13 30 14 49 2z
m3061 -22 c0 -14 -37 -10 -43 4 -4 10 2 13 19 9 13 -2 24 -8 24 -13z m-69 1
c15 -9 17 -15 9 -30 -8 -15 -8 -20 3 -20 7 0 18 5 25 12 6 6 15 8 19 4 5 -5
-2 -15 -14 -23 -13 -9 -23 -22 -23 -29 0 -12 -6 -12 -36 1 -20 8 -40 12 -46 9
-14 -9 11 -34 35 -34 20 0 20 0 1 -21 -15 -17 -28 -20 -75 -17 -32 2 -56 1
-53 -1 2 -2 -4 -10 -14 -18 -16 -12 -15 -13 8 -12 47 4 62 -1 57 -15 -3 -7 -1
-18 5 -24 6 -6 0 -8 -19 -4 -15 3 -30 8 -33 12 -3 4 -16 3 -29 -1 -31 -12 -21
-21 23 -21 20 0 36 -1 36 -2 0 -20 -37 -67 -56 -72 -26 -7 -33 -24 -9 -24 8 0
15 5 15 10 0 6 9 10 20 10 11 0 20 5 20 11 0 6 9 8 22 4 16 -6 20 -4 15 8 -8
22 21 77 41 77 15 0 15 -2 2 -11 -12 -9 -12 -10 3 -5 10 3 25 6 33 6 9 0 12 5
9 10 -8 12 8 13 21 1 5 -5 20 -12 34 -16 19 -5 21 -4 10 4 -12 8 -12 13 -2 23
9 9 15 9 24 0 7 -7 20 -12 31 -12 10 0 16 -4 13 -9 -4 -5 -1 -11 5 -13 18 -6
-36 -93 -59 -96 -12 -2 -34 -18 -50 -36 -23 -27 -35 -33 -56 -29 -24 5 -38 23
-17 23 5 0 11 11 13 25 3 14 1 25 -6 25 -6 0 -21 3 -33 6 -20 5 -23 2 -23 -20
0 -30 -14 -34 -29 -8 -8 14 -12 15 -22 5 -22 -22 -109 -16 -135 8 -14 13 -24
17 -29 10 -3 -6 1 -11 9 -11 9 0 16 -7 16 -15 0 -8 7 -15 15 -15 33 0 115 -22
110 -30 -10 -16 13 -20 28 -5 9 8 23 12 32 9 14 -6 14 -8 -1 -25 -9 -11 -23
-19 -29 -19 -16 0 -26 -25 -19 -45 10 -26 -35 -18 -47 9 -17 38 -61 54 -94 35
-5 -4 -20 -5 -32 -4 -13 1 -23 -2 -23 -7 0 -4 0 -11 0 -15 0 -5 11 -9 25 -10
14 -1 23 2 20 7 -7 12 12 23 26 14 8 -4 7 -9 -2 -15 -7 -4 -10 -11 -6 -15 4
-4 13 1 21 11 12 17 14 17 44 -5 l32 -24 -22 -23 c-12 -13 -39 -26 -60 -30
-50 -7 -57 -21 -19 -34 17 -6 36 -20 42 -31 8 -15 13 -17 19 -8 6 9 11 7 19
-9 7 -12 16 -19 22 -16 5 4 9 1 9 -4 0 -6 7 -11 15 -11 16 0 20 -27 7 -46 -22
-32 -248 -112 -266 -94 -7 7 -3 10 10 10 10 0 15 4 9 8 -5 4 -11 18 -13 30 -3
20 0 23 17 17 12 -3 21 -2 21 3 0 5 -9 12 -20 15 -11 3 -20 2 -20 -3 0 -4 -6
-10 -13 -13 -15 -6 -74 39 -64 49 4 4 14 -1 22 -12 13 -18 14 -17 12 12 -2 24
-6 30 -19 26 -10 -2 -18 0 -18 6 0 6 8 13 18 15 10 3 5 5 -12 6 -24 1 -27 3
-16 16 10 13 9 15 -8 15 -23 0 -42 -22 -24 -28 25 -8 -1 -22 -39 -22 -22 0
-38 -4 -35 -9 3 -4 28 -6 56 -3 47 4 66 -7 40 -23 -6 -4 -8 -11 -5 -16 4 -5
-3 -9 -14 -9 -12 0 -21 -5 -21 -11 0 -6 9 -8 20 -4 25 8 25 0 1 -33 -10 -15
-20 -36 -22 -47 -6 -27 -58 -53 -70 -34 -6 11 -11 11 -21 1 -6 -6 -20 -12 -31
-12 -10 0 -15 -5 -12 -10 4 -6 22 -8 43 -4 37 6 37 6 14 -11 -14 -10 -32 -15
-47 -11 -27 7 -45 -11 -21 -20 20 -8 20 -23 1 -30 -16 -7 -58 33 -50 46 3 4
-2 13 -10 20 -19 15 -65 5 -65 -15 0 -17 16 -20 25 -5 3 6 17 -1 31 -16 24
-23 25 -26 10 -49 -20 -30 -20 -35 0 -35 8 0 13 -4 10 -9 -8 -12 -83 -6 -99 8
-16 13 -10 64 7 58 6 -2 10 -16 9 -30 -2 -32 17 -27 35 10 16 35 15 46 -3 40
-8 -4 -17 -2 -20 3 -3 5 -11 7 -18 4 -10 -4 -11 10 -6 63 5 37 8 81 8 98 l1
29 16 -22 c8 -12 21 -22 27 -22 8 0 7 3 -2 9 -7 5 -10 14 -7 20 4 6 1 14 -7
17 -10 3 -12 15 -8 42 5 30 11 37 31 39 14 1 19 0 12 -3 -16 -8 -5 -25 12 -18
19 7 32 -13 38 -61 2 -15 -2 -20 -17 -18 -19 1 -19 1 -2 -11 9 -7 28 -11 42
-8 21 4 24 8 18 31 -6 24 -5 25 10 9 9 -9 14 -24 11 -32 -4 -11 -1 -16 10 -16
9 0 16 4 16 9 0 5 3 16 6 25 4 10 1 16 -9 16 -32 0 -34 30 -9 108 29 89 29 89
44 74 15 -15 38 -16 38 -2 0 6 -9 10 -20 10 -30 0 -30 41 -1 75 10 11 21 28
24 38 4 9 14 17 23 17 22 0 76 -60 70 -77 -3 -8 -1 -11 5 -8 5 4 17 1 25 -6
19 -15 29 -3 44 53 7 26 7 44 -2 62 -10 23 -9 28 8 41 17 13 17 14 2 15 -10 0
-18 4 -18 9 0 5 8 12 18 16 16 6 16 7 -2 20 -22 16 -13 35 17 35 17 0 19 2 8
9 -8 5 -20 7 -28 4 -16 -6 -16 1 -2 50 5 20 14 37 19 37 13 0 13 -17 0 -25 -5
-3 -10 -12 -10 -18 0 -7 4 -6 10 3 7 12 12 12 28 -4 16 -14 18 -24 12 -46 -7
-24 -4 -29 16 -39 34 -15 39 -14 23 6 -13 15 -11 16 14 9 16 -4 27 -2 27 4 0
5 -7 10 -15 10 -8 0 -17 11 -21 25 -3 14 -10 22 -15 19 -5 -3 -9 2 -9 11 0 8
-6 18 -14 21 -8 3 -12 12 -9 20 6 18 18 18 35 1 7 -7 27 -19 44 -27 26 -11 29
-17 26 -43 -3 -20 -1 -28 6 -23 6 4 9 13 5 21 -3 11 2 15 18 15 24 1 24 1 -5
24 -35 29 -29 42 27 58 l42 12 -45 6 c-42 6 -43 7 -17 14 15 5 37 6 50 3 12
-4 29 -2 37 3 8 5 11 10 6 10 -6 0 -1 7 10 15 11 8 14 15 7 15 -7 0 -13 7 -13
16 0 10 6 13 18 10 9 -3 24 -1 32 4 20 13 37 12 61 0z m-238 -40 c-3 -11 -9
-20 -14 -20 -10 0 -12 24 -2 33 13 13 21 7 16 -13z m-2303 -79 c16 -2 12 -21
-5 -21 -8 0 -15 -4 -15 -9 0 -5 7 -11 15 -15 23 -8 21 -86 -2 -87 -14 -1 -14
-2 -3 -5 31 -9 38 -47 23 -120 -11 -54 -12 -73 -2 -91 9 -16 16 -20 24 -13 9
8 14 6 19 -5 4 -13 15 -15 48 -10 56 9 65 18 13 13 -30 -2 -40 1 -43 13 -3 18
61 79 83 79 18 0 54 -60 57 -94 2 -17 8 -26 19 -26 12 0 16 -6 12 -21 -4 -12
3 -32 16 -50 16 -21 22 -43 21 -72 -2 -46 8 -87 20 -87 5 0 11 -8 13 -17 4
-16 6 -16 12 2 8 23 65 63 83 57 9 -3 9 -9 2 -23 -6 -11 -10 -27 -8 -37 2 -13
-6 -18 -37 -23 -22 -3 -35 -8 -30 -9 16 -5 68 -11 93 -10 26 0 29 -6 36 -77 3
-29 7 -56 8 -60 4 -16 -14 -53 -23 -47 -6 3 -17 3 -26 0 -12 -5 -13 -9 -3 -21
9 -11 8 -14 -7 -14 -10 1 -29 -2 -43 -6 -14 -4 -20 -3 -14 2 12 8 24 93 14 93
-3 0 -16 -13 -30 -30 -28 -34 -40 -38 -40 -14 0 10 -6 14 -14 11 -9 -4 -19 5
-26 24 -7 16 -18 29 -25 29 -8 0 -20 3 -29 6 -11 4 -16 1 -16 -10 0 -9 -4 -16
-10 -16 -11 0 -13 33 -4 68 6 22 7 22 25 5 27 -27 47 -43 55 -43 3 0 17 -9 31
-20 27 -21 59 -27 48 -9 -4 6 2 13 14 16 12 3 21 7 21 10 0 10 -24 48 -34 55
-8 5 -7 11 2 20 17 17 15 25 -8 31 -15 4 -20 0 -20 -13 0 -10 -6 -20 -12 -23
-9 -3 -8 -10 6 -26 15 -16 17 -24 8 -33 -9 -9 -12 -9 -12 0 0 15 -40 52 -57
52 -7 0 -10 -7 -7 -17 4 -13 0 -11 -15 6 -26 28 -27 43 -3 39 11 -2 18 4 20
19 3 17 0 21 -12 17 -11 -4 -16 -1 -16 10 0 9 -6 16 -14 16 -8 0 -21 3 -30 6
-9 3 -16 1 -16 -5 0 -7 10 -15 22 -20 l23 -8 -24 -8 c-16 -5 -26 -3 -32 6 -6
11 -11 11 -21 1 -6 -6 -21 -12 -31 -12 -12 0 -17 -5 -14 -14 3 -8 -1 -17 -9
-20 -18 -7 -37 35 -21 46 6 4 -8 4 -31 1 -28 -4 -42 -2 -42 6 0 6 -4 11 -10
11 -5 0 -10 -7 -10 -15 0 -20 -19 -19 -42 1 -10 10 -30 18 -45 19 -58 4 -59 5
-40 19 23 18 21 27 -5 25 -43 -4 -69 1 -63 11 3 6 15 10 26 10 11 0 19 7 19
18 0 9 7 25 14 35 14 18 15 18 25 0 6 -10 11 -13 11 -8 0 14 59 18 75 5 9 -8
11 -4 7 15 -2 14 0 25 6 25 6 0 10 12 9 28 -2 18 -8 27 -20 27 -10 0 -22 6
-26 14 -7 11 -10 10 -13 -5 -5 -18 -5 -18 -13 0 -5 12 -3 21 6 27 9 6 10 9 2
9 -6 0 -14 -4 -18 -10 -6 -10 -25 -6 -72 18 -35 18 -40 27 -20 36 9 5 9 7 -1
12 -19 9 -4 24 24 24 13 0 23 3 22 8 -1 4 4 21 11 37 12 29 13 29 26 10 8 -11
19 -25 25 -32 5 -7 10 -17 10 -23 0 -5 8 -10 18 -10 9 0 24 -5 32 -10 13 -9
12 -13 -5 -26 -19 -16 -19 -16 9 -10 21 5 31 2 41 -11 7 -10 17 -14 22 -9 4 4
-2 15 -14 23 -13 9 -23 25 -23 37 0 15 -13 29 -45 46 -49 27 -51 30 -33 48 8
8 8 15 0 25 -8 9 -8 23 2 50 14 43 26 58 26 34 0 -9 7 -17 15 -17 19 0 20 54
2 71 -7 7 -11 24 -9 38 3 25 16 29 72 22z m-100 -51 c-8 -5 -19 -10 -25 -10
-5 0 -3 5 5 10 8 5 20 10 25 10 6 0 3 -5 -5 -10z m-357 -15 c-3 -9 -8 -14 -10
-11 -3 3 -2 9 2 15 9 16 15 13 8 -4z m207 -160 c0 -8 -7 -15 -15 -15 -13 0
-14 3 -3 15 16 18 18 18 18 0z m120 5 c0 -5 -2 -10 -4 -10 -3 0 -8 5 -11 10
-3 6 -1 10 4 10 6 0 11 -4 11 -10z m-113 -46 c-3 -3 -12 -4 -19 -1 -8 3 -5 6
6 6 11 1 17 -2 13 -5z m2720 -50 c-2 -2 -12 -1 -22 2 -17 7 -17 8 1 21 17 12
19 12 22 -2 2 -9 2 -19 -1 -21z m-58 -25 c-9 -17 -13 -19 -19 -8 -11 16 -4 29
16 29 12 0 13 -4 3 -21z m-2536 -134 c4 -8 2 -17 -3 -20 -6 -4 -10 1 -10 10 0
10 -5 13 -12 9 -7 -4 -8 -3 -4 4 10 16 23 15 29 -3z m507 -40 c-6 -8 -9 -18
-6 -24 3 -5 -1 -11 -9 -15 -20 -7 -19 13 2 36 19 21 31 25 13 3z m26 -32 c-10
-10 -19 5 -10 18 6 11 8 11 12 0 2 -7 1 -15 -2 -18z m1682 -89 c11 -19 4 -54
-9 -54 -5 0 -9 4 -9 9 0 5 -9 11 -20 14 -11 3 -20 1 -20 -4 0 -5 7 -9 16 -9 8
0 12 -5 9 -11 -4 -6 -14 -8 -23 -4 -8 3 -19 0 -24 -7 -5 -9 -8 -5 -8 12 0 31
8 42 40 57 34 16 38 15 48 -3z m-1350 -11 c18 -4 20 -8 10 -14 -9 -6 -8 -9 7
-9 11 0 31 -8 45 -17 22 -16 23 -16 17 0 -8 21 7 22 27 2 8 -8 22 -15 30 -15
19 0 22 -20 4 -20 -7 0 -5 -5 5 -11 13 -8 22 -7 33 1 9 9 14 9 14 2 0 -6 6 -9
14 -6 7 3 23 -6 34 -20 11 -14 24 -26 30 -26 5 0 9 -8 8 -17 -1 -13 5 -17 19
-15 16 2 17 1 6 -7 -12 -7 -12 -13 -3 -24 7 -8 10 -22 6 -30 -5 -15 -8 -14
-23 1 -10 9 -21 25 -24 35 -4 9 -11 17 -17 17 -6 0 -6 -7 2 -20 7 -10 9 -22 6
-26 -12 -11 -26 6 -33 39 -4 17 -12 35 -18 39 -6 4 -9 10 -5 13 3 4 15 -4 27
-16 24 -26 38 -20 22 9 -12 23 -36 30 -71 22 -26 -5 -40 -30 -17 -30 7 0 20
-9 30 -20 14 -17 14 -20 2 -20 -15 0 -8 -25 26 -92 6 -12 2 -18 -18 -23 -31
-8 -57 -37 -41 -46 13 -9 1 -29 -17 -29 -9 0 -12 8 -10 20 2 11 0 18 -6 15 -5
-4 -9 -1 -9 6 0 9 -4 8 -15 -1 -10 -8 -12 -17 -5 -30 7 -13 4 -20 -16 -29 -14
-6 -37 -8 -51 -5 -17 5 -24 3 -19 -4 4 -7 -3 -10 -20 -8 -19 2 -30 12 -40 36
-20 47 -18 52 16 35 16 -8 33 -15 38 -15 13 0 22 39 11 46 -5 3 -9 -2 -9 -10
0 -10 -9 -16 -21 -16 -15 0 -19 5 -15 15 3 8 0 14 -7 12 -7 -1 -11 6 -11 15 1
11 -4 14 -14 10 -12 -4 -14 -1 -7 14 4 10 7 27 7 37 -1 21 15 23 20 1 3 -13 6
-13 22 -1 23 17 13 37 -18 37 -17 0 -25 7 -28 24 -6 32 11 147 24 164 12 14
14 14 46 5z m672 -13 c-6 -11 -17 -20 -25 -20 -13 0 -13 3 -3 20 7 11 19 20
26 20 10 0 10 -5 2 -20z m-51 -22 c12 -25 17 -27 52 -22 32 6 39 4 39 -10 0
-12 -6 -16 -17 -13 -49 14 -93 17 -93 7 0 -5 16 -10 35 -10 20 0 35 -5 35 -12
0 -6 3 -8 6 -5 4 3 15 2 25 -4 13 -7 19 -21 19 -47 0 -27 -3 -33 -10 -22 -5 8
-12 11 -16 8 -3 -4 -13 -1 -21 7 -8 8 -25 15 -39 15 -13 0 -24 5 -24 10 0 7
-7 7 -21 0 -15 -9 -18 -15 -9 -25 8 -10 8 -15 0 -20 -6 -4 -12 -5 -13 -4 -1 2
-8 15 -15 28 -8 13 -10 26 -5 30 11 8 30 40 44 71 7 17 7 26 0 28 -15 5 -14
23 1 20 7 -2 19 -15 27 -30z m-1225 -4 c22 -9 10 -24 -20 -24 -15 0 -24 6 -24
15 0 16 17 19 44 9z m1090 -66 c21 -41 21 -41 -15 -33 -23 5 -34 3 -44 -12
-13 -17 -14 -17 -21 1 -5 12 -3 21 4 24 6 2 8 10 5 19 -4 11 -2 14 8 11 8 -3
20 1 27 9 18 18 18 17 36 -19z m56 8 c0 -3 -4 -8 -10 -11 -5 -3 -10 -1 -10 4
0 6 5 11 10 11 6 0 10 -2 10 -4z m685 -36 c0 -7 -11 -15 -25 -17 -13 -2 -28
-9 -33 -16 -6 -8 -7 -6 -3 6 3 10 6 25 6 32 0 9 10 13 28 11 15 -2 27 -9 27
-16z m-839 -57 c-3 -4 -6 -1 -6 6 0 8 -7 11 -15 7 -17 -6 -18 -4 -9 19 6 14 8
13 21 -5 8 -12 12 -24 9 -27z m144 22 c-2 -14 30 -24 80 -24 41 0 43 1 20 11
-16 6 -20 12 -12 15 19 7 73 -18 69 -31 -2 -6 -31 -12 -65 -14 -61 -3 -91 -21
-32 -20 38 1 43 -4 26 -27 -13 -17 -15 -17 -60 13 -41 28 -46 29 -46 12 0 -34
12 -50 39 -51 l26 -1 -25 -7 c-31 -8 -33 -39 -5 -63 24 -20 19 -22 -24 -7 -22
8 -36 22 -46 46 -14 33 -35 38 -35 7 0 -8 -4 -14 -10 -14 -5 0 -10 5 -10 11 0
6 -9 22 -20 36 -22 28 -27 64 -8 61 6 -2 15 8 19 22 5 17 7 19 8 7 1 -10 6
-15 11 -12 6 4 8 11 5 16 -4 5 -2 9 4 9 5 0 18 3 28 6 16 6 15 5 -2 -9 -25
-19 -18 -27 18 -20 17 3 26 10 23 18 -2 7 -2 16 2 19 8 9 24 2 22 -9z m740 11
c0 -11 -19 -15 -25 -6 -3 5 1 10 9 10 9 0 16 -2 16 -4z m-43 -12 c-3 -3 -12
-4 -19 -1 -8 3 -5 6 6 6 11 1 17 -2 13 -5z m77 -9 c-7 -16 -24 -21 -24 -6 0 8
7 13 27 20 1 1 0 -6 -3 -14z m-1901 -35 c26 0 54 -24 39 -34 -5 -3 -18 1 -28
9 -10 8 -29 15 -40 15 -13 0 -24 8 -27 20 -6 25 16 33 25 8 4 -10 17 -18 31
-18z m80 13 c-4 -9 -10 -10 -24 -2 -25 13 -24 17 5 15 14 0 22 -6 19 -13z
m847 7 c0 -5 7 -10 15 -10 21 0 19 -16 -6 -41 l-21 -21 3 29 c2 15 0 34 -4 41
-5 6 -4 12 2 12 6 0 11 -4 11 -10z m840 -3 c0 -6 8 -15 17 -22 15 -11 14 -14
-11 -30 -23 -15 -32 -16 -47 -7 -12 8 -19 8 -19 2 0 -7 -6 -7 -20 0 -11 6 -19
18 -19 28 1 16 2 16 6 0 5 -21 8 -21 34 -7 22 11 17 31 -6 22 -15 -5 -21 8 -8
21 10 10 73 4 73 -7z m46 -14 c-10 -10 -19 5 -10 18 6 11 8 11 12 0 2 -7 1
-15 -2 -18z m-1896 2 c11 -13 10 -14 -4 -9 -9 3 -16 10 -16 15 0 13 6 11 20
-6z m2001 -12 c-8 -15 -10 -15 -11 -2 0 17 10 32 18 25 2 -3 -1 -13 -7 -23z
m-1783 -15 c-2 -5 -8 -8 -13 -7 -37 9 -43 12 -38 24 4 11 10 11 29 3 14 -6 23
-16 22 -20z m1732 16 c0 -8 -4 -12 -10 -9 -5 3 -10 10 -10 16 0 5 5 9 10 9 6
0 10 -7 10 -16z m-550 -53 c0 -11 -9 -21 -21 -24 -15 -4 -20 -11 -15 -22 3 -9
2 -13 -4 -10 -6 3 -10 -1 -10 -10 0 -9 4 -13 10 -10 6 3 7 -1 4 -9 -4 -11 0
-16 12 -16 16 0 16 -1 -1 -18 -24 -22 -65 -27 -65 -8 0 8 7 16 15 20 22 8 19
43 -4 49 -15 4 -18 1 -14 -12 5 -13 3 -13 -15 2 -19 18 -20 53 -1 41 5 -3 16
2 25 10 8 9 24 16 34 16 10 0 22 5 25 10 10 17 25 11 25 -9z m-320 -21 c0 -5
-2 -10 -4 -10 -3 0 -8 5 -11 10 -3 6 -1 10 4 10 6 0 11 -4 11 -10z m-180 -30
c-20 -13 -33 -13 -25 0 3 6 14 10 23 10 15 0 15 -2 2 -10z m400 -65 c0 -3 -12
-5 -27 -5 -23 0 -25 2 -13 11 11 8 12 12 3 16 -7 2 -13 12 -13 21 0 13 6 10
25 -10 14 -15 25 -30 25 -33z"/>
<path d="M2725 3720 c-3 -5 1 -10 9 -10 9 0 16 5 16 10 0 6 -4 10 -9 10 -6 0
-13 -4 -16 -10z"/>
<path d="M2666 3693 c-11 -11 -6 -23 9 -23 8 0 15 4 15 9 0 13 -16 22 -24 14z"/>
<path d="M2760 3685 c0 -8 9 -15 20 -15 24 0 26 -13 5 -30 -18 -15 -49 -5 -39
12 4 7 -1 6 -11 -3 -15 -15 -16 -21 -4 -55 11 -29 11 -38 2 -41 -7 -3 -13 -12
-13 -21 0 -14 -2 -15 -10 -2 -12 20 -21 9 -13 -18 4 -18 8 -20 20 -11 11 9 18
7 36 -10 25 -22 47 -28 47 -11 0 6 6 10 14 10 21 0 27 28 9 45 -14 15 -14 17
3 30 15 11 17 16 7 26 -7 7 -13 22 -13 32 0 15 5 18 25 13 18 -5 25 -2 25 9 0
8 -8 15 -19 15 -10 0 -24 7 -31 15 -7 8 -16 13 -20 10 -5 -3 -11 -1 -15 5 -9
15 -25 12 -25 -5z m44 -131 c-5 -24 -10 -29 -35 -29 -16 0 -27 5 -26 10 2 6
14 8 27 7 18 -3 21 0 16 14 -4 10 -1 21 6 25 17 11 19 7 12 -27z"/>
<path d="M2620 3656 c0 -2 7 -9 15 -16 13 -11 14 -10 9 4 -5 14 -24 23 -24 12z"/>
<path d="M2346 3615 c4 -8 8 -15 10 -15 2 0 4 7 4 15 0 8 -4 15 -10 15 -5 0
-7 -7 -4 -15z"/>
<path d="M2555 3620 c-8 -13 9 -20 24 -11 10 6 9 10 -3 14 -8 3 -18 2 -21 -3z"/>
<path d="M2860 3601 c0 -19 48 -51 77 -51 10 0 11 -5 4 -19 -17 -30 1 -34 26
-5 30 35 29 46 -2 38 -19 -5 -25 -2 -25 11 0 13 -6 16 -24 13 -18 -4 -26 0
-29 14 -7 24 -27 23 -27 -1z"/>
<path d="M2918 3613 c7 -3 16 -2 19 1 4 3 -2 6 -13 5 -11 0 -14 -3 -6 -6z"/>
<path d="M2430 3601 c0 -5 9 -13 20 -16 23 -7 27 -25 5 -25 -8 0 -15 5 -15 10
0 6 -4 10 -10 10 -5 0 -10 -9 -10 -20 0 -11 5 -20 11 -20 5 0 7 -4 4 -10 -3
-6 4 -9 17 -8 40 3 32 88 -8 88 -8 0 -14 -4 -14 -9z"/>
<path d="M2520 3586 c0 -9 5 -16 10 -16 6 0 10 4 10 9 0 6 -4 13 -10 16 -5 3
-10 -1 -10 -9z"/>
<path d="M2345 3571 c-3 -5 -1 -12 5 -16 5 -3 10 1 10 9 0 18 -6 21 -15 7z"/>
<path d="M2631 3566 c-9 -11 -9 -16 0 -21 6 -4 14 -3 18 3 4 6 18 15 31 21 25
10 24 10 -6 10 -17 1 -37 -5 -43 -13z"/>
<path d="M2577 3557 c22 -12 20 -30 -4 -38 -8 -3 -6 -12 7 -29 19 -25 19 -25
13 -2 -4 16 0 27 13 36 15 12 16 16 5 30 -7 9 -23 16 -35 16 l-21 -1 22 -12z"/>
<path d="M2490 3546 c0 -9 7 -16 15 -16 9 0 18 -7 21 -15 4 -8 10 -15 15 -15
18 0 8 19 -21 40 -25 18 -30 19 -30 6z"/>
<path d="M2872 3498 c2 -17 11 -24 32 -26 l29 -4 -28 26 c-34 32 -37 32 -33 4z"/>
<path d="M2446 3492 c-3 -6 -1 -14 5 -17 15 -10 25 3 12 16 -7 7 -13 7 -17 1z"/>
<path d="M2950 3470 c0 -5 7 -10 16 -10 8 0 12 5 9 10 -3 6 -10 10 -16 10 -5
0 -9 -4 -9 -10z"/>
<path d="M2500 3440 c0 -11 5 -20 10 -20 6 0 10 9 10 20 0 11 -4 20 -10 20 -5
0 -10 -9 -10 -20z"/>
<path d="M2867 3453 c-9 -2 -15 -9 -12 -14 9 -14 22 -11 29 6 3 8 4 14 3 14
-1 -1 -10 -3 -20 -6z"/>
<path d="M2910 3448 c0 -4 6 -8 14 -8 8 0 21 -3 30 -6 9 -3 16 -2 16 4 0 5
-13 12 -30 14 -16 3 -30 1 -30 -4z"/>
<path d="M2455 3434 c-20 -16 -20 -16 3 -9 13 4 22 2 22 -4 0 -6 -8 -11 -17
-11 -13 0 -14 -3 -6 -11 19 -19 41 -4 36 25 -6 30 -11 31 -38 10z"/>
<path d="M2450 3325 c0 -8 5 -15 10 -15 6 0 10 7 10 15 0 8 -4 15 -10 15 -5 0
-10 -7 -10 -15z"/>
<path d="M2245 3264 c9 -9 18 -14 21 -11 9 9 -6 27 -22 27 -13 0 -13 -2 1 -16z"/>
<path d="M2355 3260 c3 -5 8 -10 11 -10 2 0 4 5 4 10 0 6 -5 10 -11 10 -5 0
-7 -4 -4 -10z"/>
<path d="M2370 3240 c-15 -5 -18 -8 -8 -9 9 -1 23 -4 32 -7 11 -4 16 -1 16 10
0 17 -3 18 -40 6z"/>
<path d="M3030 3250 c-8 -26 -7 -41 2 -32 6 6 8 16 5 24 -3 7 -6 11 -7 8z"/>
<path d="M3061 3240 c-14 -8 -7 -30 9 -30 11 0 21 28 12 34 -5 3 -14 1 -21 -4z"/>
<path d="M2240 3218 c0 -10 -14 -20 -37 -27 l-38 -11 39 5 c46 5 59 15 46 35
-8 13 -10 13 -10 -2z"/>
<path d="M2270 3180 c0 -5 7 -10 15 -10 23 0 18 -18 -5 -22 -12 -2 -22 -7 -23
-13 -4 -18 41 -17 62 2 27 22 28 47 2 38 -11 -3 -22 -1 -26 5 -8 13 -25 13
-25 0z"/>
<path d="M2890 3170 c0 -5 6 -10 14 -10 8 0 18 5 21 10 3 6 -3 10 -14 10 -12
0 -21 -4 -21 -10z"/>
<path d="M2171 3165 c1 -22 16 -48 22 -38 3 5 0 19 -8 29 -8 10 -14 15 -14 9z"/>
<path d="M2867 3143 c-9 -2 -15 -9 -12 -14 9 -14 22 -11 29 6 3 8 4 14 3 14
-1 -1 -10 -3 -20 -6z"/>
<path d="M2930 3146 c0 -2 7 -7 16 -10 8 -3 12 -2 9 4 -6 10 -25 14 -25 6z"/>
<path d="M2330 3126 c0 -9 7 -16 16 -16 17 0 14 22 -4 28 -7 2 -12 -3 -12 -12z"/>
<path d="M2181 3094 c0 -11 3 -14 6 -6 3 7 2 16 -1 19 -3 4 -6 -2 -5 -13z"/>
<path d="M2285 3100 c3 -5 10 -10 16 -10 5 0 9 5 9 10 0 6 -7 10 -16 10 -8 0
-12 -4 -9 -10z"/>
<path d="M2250 3065 c0 -8 4 -15 10 -15 5 0 7 7 4 15 -4 8 -8 15 -10 15 -2 0
-4 -7 -4 -15z"/>
<path d="M2327 3074 c-8 -8 1 -24 14 -24 5 0 9 7 9 15 0 15 -12 20 -23 9z"/>
<path d="M2390 3031 c0 -5 7 -12 16 -15 22 -9 24 -8 24 9 0 8 -9 15 -20 15
-11 0 -20 -4 -20 -9z"/>
<path d="M2870 3031 c0 -5 5 -13 10 -16 6 -3 10 -2 10 4 0 5 -4 13 -10 16 -5
3 -10 2 -10 -4z"/>
<path d="M2258 2953 c7 -3 16 -2 19 1 4 3 -2 6 -13 5 -11 0 -14 -3 -6 -6z"/>
<path d="M2275 2890 c-3 -5 -1 -10 4 -10 6 0 11 5 11 10 0 6 -2 10 -4 10 -3 0
-8 -4 -11 -10z"/>
<path d="M2245 2850 c-3 -5 -1 -10 4 -10 6 0 11 5 11 10 0 6 -2 10 -4 10 -3 0
-8 -4 -11 -10z"/>
<path d="M2395 2850 c-3 -5 -1 -10 4 -10 6 0 11 5 11 10 0 6 -2 10 -4 10 -3 0
-8 -4 -11 -10z"/>
<path d="M2425 2820 c3 -5 11 -10 16 -10 6 0 7 5 4 10 -3 6 -11 10 -16 10 -6
0 -7 -4 -4 -10z"/>
<path d="M2230 2809 c0 -5 5 -7 10 -4 6 3 10 8 10 11 0 2 -4 4 -10 4 -5 0 -10
-5 -10 -11z"/>
<path d="M2377 2798 c11 -13 19 -29 17 -36 -1 -7 0 -8 3 -2 2 5 16 10 29 10
13 0 24 5 24 11 0 7 -9 9 -24 5 -18 -4 -25 -1 -29 14 -3 11 -13 20 -23 20 -16
0 -16 -2 3 -22z"/>
<path d="M2260 2780 c0 -5 5 -10 11 -10 5 0 7 5 4 10 -3 6 -8 10 -11 10 -2 0
-4 -4 -4 -10z"/>
<path d="M2298 2773 c7 -3 16 -2 19 1 4 3 -2 6 -13 5 -11 0 -14 -3 -6 -6z"/>
<path d="M2351 2763 c0 -7 -6 -13 -12 -13 -17 0 -43 -30 -33 -40 15 -14 57 24
51 46 -2 10 -5 13 -6 7z"/>
<path d="M2340 2700 c0 -5 7 -10 16 -10 8 0 12 5 9 10 -3 6 -10 10 -16 10 -5
0 -9 -4 -9 -10z"/>
<path d="M2860 2696 c0 -2 7 -6 15 -10 8 -3 15 -1 15 4 0 6 -7 10 -15 10 -8 0
-15 -2 -15 -4z"/>
<path d="M2761 2679 c-13 -5 -21 -12 -18 -15 8 -9 67 6 67 17 0 11 -18 11 -49
-2z"/>
<path d="M2844 2655 c8 -8 19 -15 24 -15 5 0 9 7 9 15 0 9 -10 15 -24 15 -22
0 -23 -2 -9 -15z"/>
<path d="M2350 2621 c0 -4 12 -13 26 -20 20 -9 25 -9 22 0 -5 14 -48 32 -48
20z"/>
<path d="M2485 2620 c-3 -5 -17 -10 -31 -10 -13 0 -24 -4 -24 -10 0 -5 9 -10
21 -10 11 0 18 -4 14 -9 -3 -6 4 -15 15 -21 20 -11 25 -5 21 25 -1 6 5 1 14
-9 22 -29 29 -13 10 23 -16 32 -29 39 -40 21z"/>
<path d="M2783 2623 c-26 -5 -31 -23 -8 -23 8 0 15 -4 15 -10 0 -5 -9 -10 -20
-10 -11 0 -23 -7 -26 -15 -8 -20 -34 -19 -34 1 0 8 -4 13 -9 10 -5 -3 -7 -15
-4 -26 6 -24 60 -28 69 -5 4 9 19 15 40 15 34 0 47 21 24 35 -8 5 -7 11 1 21
12 15 1 16 -48 7z"/>
<path d="M2870 2610 c13 -9 12 -12 -4 -25 -17 -13 -17 -15 -3 -21 9 -3 24 -1
34 5 10 6 13 11 7 11 -7 0 -14 9 -17 20 -3 11 -11 20 -19 20 -10 0 -9 -3 2
-10z"/>
<path d="M2306 2565 c-29 -12 -29 -13 -7 -20 22 -7 51 8 51 26 0 11 -8 10 -44
-6z"/>
<path d="M2660 2560 c0 -5 5 -10 11 -10 5 0 7 5 4 10 -3 6 -8 10 -11 10 -2 0
-4 -4 -4 -10z"/>
<path d="M2562 2542 c-18 -2 -30 -7 -27 -12 3 -4 14 -6 26 -3 15 4 22 0 26
-16 4 -15 13 -21 32 -21 20 0 23 2 11 10 -10 6 -11 10 -2 10 6 0 12 3 12 8 0
13 -44 27 -78 24z"/>
<path d="M2920 2540 c0 -5 7 -10 15 -10 8 0 15 5 15 10 0 6 -7 10 -15 10 -8 0
-15 -4 -15 -10z"/>
<path d="M2295 2519 c-19 -7 -19 -8 3 -8 13 -1 20 -5 17 -11 -3 -5 1 -10 9
-10 8 0 18 5 21 10 3 6 0 10 -9 10 -8 0 -16 4 -18 9 -1 4 -12 5 -23 0z"/>
<path d="M2678 2513 c6 -2 12 -11 12 -19 0 -8 7 -14 15 -14 13 0 14 4 5 20 -6
11 -18 20 -28 19 -10 0 -12 -3 -4 -6z"/>
<path d="M2554 2471 c-13 -13 -1 -31 22 -31 14 0 23 4 19 10 -3 6 -1 10 4 10
6 0 11 4 11 9 0 9 -47 10 -56 2z"/>
<path d="M2628 2474 c-11 -10 16 -64 32 -63 10 0 11 2 3 6 -7 2 -13 12 -13 20
0 9 6 13 14 10 20 -8 28 4 15 20 -12 13 -41 18 -51 7z"/>
<path d="M2570 2410 c0 -5 7 -10 15 -10 8 0 15 5 15 10 0 6 -7 10 -15 10 -8 0
-15 -4 -15 -10z"/>
<path d="M1710 3610 c0 -5 5 -10 10 -10 6 0 10 5 10 10 0 6 -4 10 -10 10 -5 0
-10 -4 -10 -10z"/>
<path d="M1850 3596 c0 -2 7 -7 16 -10 8 -3 12 -2 9 4 -6 10 -25 14 -25 6z"/>
<path d="M1790 3562 c0 -5 7 -9 15 -9 8 0 15 4 15 9 0 4 -7 8 -15 8 -8 0 -15
-4 -15 -8z"/>
<path d="M1840 3520 c-10 -18 -9 -24 1 -31 24 -15 30 -10 23 19 -9 36 -11 37
-24 12z"/>
<path d="M1870 3530 c0 -5 7 -10 16 -10 8 0 12 5 9 10 -3 6 -10 10 -16 10 -5
0 -9 -4 -9 -10z"/>
<path d="M1791 3514 c0 -11 3 -14 6 -6 3 7 2 16 -1 19 -3 4 -6 -2 -5 -13z"/>
<path d="M1591 3507 c2 -1 12 -9 22 -16 15 -12 17 -12 11 3 -3 9 -13 16 -22
16 -8 0 -13 -1 -11 -3z"/>
<path d="M1757 3489 c-10 -35 -9 -39 8 -39 16 0 18 14 6 44 -7 18 -8 18 -14
-5z"/>
<path d="M1812 3444 c-7 -8 -17 -12 -22 -9 -4 3 -6 -4 -3 -15 7 -26 19 -26 26
0 3 11 12 20 21 20 9 0 16 5 16 10 0 15 -23 11 -38 -6z"/>
<path d="M1716 3273 c-6 -14 -5 -15 5 -6 7 7 10 15 7 18 -3 3 -9 -2 -12 -12z"/>
<path d="M1815 3710 c4 -6 11 -8 16 -5 14 9 11 15 -7 15 -8 0 -12 -5 -9 -10z"/>
<path d="M1850 3074 c0 -8 5 -12 10 -9 6 3 10 10 10 16 0 5 -4 9 -10 9 -5 0
-10 -7 -10 -16z"/>
<path d="M1816 3062 c-4 -7 -1 -15 8 -18 9 -3 14 -9 12 -13 -3 -4 4 -7 14 -7
10 0 16 6 13 13 -3 7 -11 13 -18 13 -7 0 -15 5 -17 12 -3 9 -6 9 -12 0z"/>
<path d="M1703 3013 c-15 -5 -17 -23 -4 -23 5 0 11 7 15 15 3 8 4 15 3 14 -1
0 -8 -3 -14 -6z"/>
<path d="M1735 3011 c-6 -11 9 -23 19 -14 9 9 7 23 -3 23 -6 0 -12 -4 -16 -9z"/>
<path d="M1916 3001 c-4 -7 -5 -15 -2 -18 9 -9 19 4 14 18 -4 11 -6 11 -12 0z"/>
<path d="M1800 2985 c-7 -9 -8 -15 -2 -15 5 0 12 7 16 15 3 8 4 15 2 15 -2 0
-9 -7 -16 -15z"/>
<path d="M1836 2985 c4 -8 10 -12 15 -9 14 8 10 24 -6 24 -9 0 -12 -6 -9 -15z"/>
<path d="M1890 2950 c0 -5 4 -10 9 -10 6 0 13 5 16 10 3 6 -1 10 -9 10 -9 0
-16 -4 -16 -10z"/>
<path d="M1850 2930 c0 -5 9 -10 21 -10 11 0 17 5 14 10 -3 6 -13 10 -21 10
-8 0 -14 -4 -14 -10z"/>
<path d="M1905 2910 c3 -5 12 -7 20 -3 21 7 19 13 -6 13 -11 0 -18 -4 -14 -10z"/>
<path d="M1774 2871 c18 -7 66 -3 66 5 0 2 -19 4 -42 3 -31 0 -37 -3 -24 -8z"/>
<path d="M1828 2853 c6 -2 18 -2 25 0 6 3 1 5 -13 5 -14 0 -19 -2 -12 -5z"/>
<path d="M1775 2840 c-3 -5 -1 -10 4 -10 6 0 11 5 11 10 0 6 -2 10 -4 10 -3 0
-8 -4 -11 -10z"/>
<path d="M1845 2820 c-3 -5 -1 -10 4 -10 6 0 11 5 11 10 0 6 -2 10 -4 10 -3 0
-8 -4 -11 -10z"/>
<path d="M1927 2812 c-4 -6 -14 -9 -21 -6 -8 3 -17 1 -20 -5 -4 -6 -13 -8 -21
-4 -26 9 -16 -15 14 -36 37 -27 36 -27 51 8 13 31 10 65 -3 43z"/>
<path d="M1768 2781 c-10 -11 -13 -23 -8 -26 5 -3 12 -1 15 5 5 7 19 4 41 -10
41 -24 54 -25 54 -6 0 8 -8 13 -17 12 -12 -1 -17 5 -15 18 3 15 -1 17 -21 12
-14 -3 -27 -1 -29 4 -2 6 -11 2 -20 -9z"/>
<path d="M1768 2703 c7 -3 16 -2 19 1 4 3 -2 6 -13 5 -11 0 -14 -3 -6 -6z"/>
<path d="M1824 2695 c-10 -8 -14 -14 -9 -14 6 0 19 6 29 14 11 8 15 15 10 15
-6 0 -19 -7 -30 -15z"/>
<path d="M1880 2690 c0 -5 5 -10 10 -10 6 0 10 5 10 10 0 6 -4 10 -10 10 -5 0
-10 -4 -10 -10z"/>
<path d="M1825 2650 c-3 -5 -2 -10 4 -10 5 0 13 5 16 10 3 6 2 10 -4 10 -5 0
-13 -4 -16 -10z"/>
<path d="M1943 2623 c-14 -5 -17 -29 -5 -36 4 -3 15 6 25 19 18 24 10 30 -20
17z"/>
<path d="M1860 2550 c-24 -8 -23 -8 8 -9 20 -1 31 3 27 9 -3 6 -7 10 -8 9 -1
-1 -13 -5 -27 -9z"/>
<path d="M1738 2533 c7 -3 16 -2 19 1 4 3 -2 6 -13 5 -11 0 -14 -3 -6 -6z"/>
<path d="M1850 2490 c0 -5 5 -10 10 -10 6 0 10 5 10 10 0 6 -4 10 -10 10 -5 0
-10 -4 -10 -10z"/>
<path d="M1048 3043 c7 -3 16 -2 19 1 4 3 -2 6 -13 5 -11 0 -14 -3 -6 -6z"/>
<path d="M1090 2940 c0 -5 5 -10 10 -10 6 0 10 5 10 10 0 6 -4 10 -10 10 -5 0
-10 -4 -10 -10z"/>
<path d="M3608 2863 c7 -3 16 -2 19 1 4 3 -2 6 -13 5 -11 0 -14 -3 -6 -6z"/>
<path d="M3744 2842 c-6 -4 -11 -15 -11 -26 0 -15 2 -16 12 -5 6 8 17 20 25
27 12 10 12 12 0 12 -8 0 -20 -4 -26 -8z"/>
<path d="M3669 2789 c19 -18 25 -19 32 -8 15 23 10 29 -23 29 l-32 0 23 -21z"/>
<path d="M3580 2760 c0 -6 10 -15 23 -20 21 -8 20 -9 -7 -9 -29 -1 -29 -1 -11
-21 18 -20 18 -21 -3 -27 -25 -6 -30 -33 -6 -33 8 0 12 4 9 10 -4 6 5 7 23 4
19 -4 32 -1 41 10 11 13 11 16 -1 16 -8 0 -19 -5 -26 -12 -19 -19 -24 -3 -8
26 8 15 13 35 12 44 -3 19 -46 30 -46 12z"/>
<path d="M3500 2715 l-25 -15 34 2 c19 2 36 9 39 16 5 16 -17 15 -48 -3z"/>
<path d="M3702 2705 c-25 -14 -15 -29 12 -19 9 3 16 1 16 -5 0 -6 4 -11 10
-11 5 0 7 7 4 15 -4 8 -1 15 6 15 6 0 8 5 5 10 -8 13 -24 11 -53 -5z"/>
<path d="M3800 2680 c0 -5 7 -10 16 -10 8 0 12 5 9 10 -3 6 -10 10 -16 10 -5
0 -9 -4 -9 -10z"/>
<path d="M3805 2510 c-3 -5 -3 -10 1 -10 4 0 -1 -7 -12 -16 -18 -15 -18 -15 6
-9 14 4 30 7 37 7 8 1 9 7 2 20 -11 20 -25 23 -34 8z"/>
<path d="M3766 2432 c-3 -6 -1 -14 5 -17 15 -10 25 3 12 16 -7 7 -13 7 -17 1z"/>
<path d="M726 2642 c-3 -5 6 -21 21 -36 27 -27 43 -33 43 -16 0 5 6 7 14 4 27
-10 26 15 -1 29 -43 22 -71 29 -77 19z"/>
<path d="M1006 2541 c-4 -5 -2 -12 3 -15 5 -4 12 -2 15 3 4 5 2 12 -3 15 -5 4
-12 2 -15 -3z"/>
<path d="M1040 2538 c0 -7 5 -20 10 -28 8 -12 10 -11 10 7 0 12 -4 25 -10 28
-5 3 -10 0 -10 -7z"/>
<path d="M797 2520 c-3 -11 -1 -20 4 -20 5 0 9 2 9 4 0 2 3 11 6 20 3 9 2 16
-4 16 -5 0 -12 -9 -15 -20z"/>
<path d="M760 2516 c0 -9 5 -16 10 -16 6 0 10 4 10 9 0 6 -4 13 -10 16 -5 3
-10 -1 -10 -9z"/>
<path d="M950 2450 c0 -6 -11 -15 -25 -20 -22 -9 -37 -34 -16 -27 4 1 17 -9
29 -23 17 -21 22 -22 36 -11 24 20 19 32 -9 25 -19 -5 -25 -2 -25 11 0 12 6
15 23 10 15 -4 18 -3 9 3 -11 7 -10 10 3 16 9 3 13 10 10 16 -8 13 -35 13 -35
0z"/>
<path d="M760 2380 c-12 -8 -9 -10 13 -10 15 0 27 5 27 10 0 13 -20 13 -40 0z"/>
<path d="M896 2375 c-3 -9 0 -15 9 -15 16 0 20 16 6 24 -5 3 -11 -1 -15 -9z"/>
<path d="M837 2350 c3 -11 7 -20 9 -20 2 0 4 9 4 20 0 11 -4 20 -9 20 -5 0 -7
-9 -4 -20z"/>
<path d="M741 2270 c-13 -11 -18 -20 -12 -20 6 0 11 -7 11 -16 0 -8 5 -12 11
-9 6 4 8 14 5 22 -4 10 0 14 17 13 45 -4 52 0 23 15 -34 18 -26 18 -55 -5z"/>
<path d="M785 2220 c-3 -5 1 -10 9 -10 9 0 16 5 16 10 0 6 -4 10 -9 10 -6 0
-13 -4 -16 -10z"/>
<path d="M930 2220 c0 -5 7 -7 15 -4 8 4 15 8 15 10 0 2 -7 4 -15 4 -8 0 -15
-4 -15 -10z"/>
<path d="M830 2183 c0 -22 2 -25 10 -13 13 20 13 40 0 40 -5 0 -10 -12 -10
-27z"/>
<path d="M750 2082 c0 -6 -9 -14 -20 -17 -24 -8 -27 -24 -4 -21 18 3 39 34 30
43 -3 4 -6 1 -6 -5z"/>
<path d="M798 2058 c-16 -5 -28 -13 -28 -18 0 -5 -10 -11 -22 -13 -13 -3 3 -4
34 -2 51 3 57 1 49 -13 -11 -22 6 -81 25 -89 13 -5 13 -8 2 -15 -9 -7 -4 -8
14 -4 22 5 26 3 22 -9 -4 -8 -1 -15 5 -15 16 0 13 30 -4 36 -8 3 -21 19 -29
35 -13 26 -13 30 2 39 10 5 12 10 5 10 -7 0 -13 5 -13 10 0 6 10 8 24 4 21 -5
24 -3 19 15 -4 15 -11 20 -23 16 -9 -3 -23 1 -30 10 -14 17 -15 17 -52 3z"/>
<path d="M868 2063 c7 -3 16 -2 19 1 4 3 -2 6 -13 5 -11 0 -14 -3 -6 -6z"/>
<path d="M925 1910 c-3 -5 -2 -10 4 -10 5 0 13 5 16 10 3 6 2 10 -4 10 -5 0
-13 -4 -16 -10z"/>
<path d="M943 1822 c-13 -2 -23 -8 -23 -13 0 -13 37 -11 45 2 9 14 5 16 -22
11z"/>
<path d="M910 1779 c0 -5 5 -7 10 -4 6 3 10 8 10 11 0 2 -4 4 -10 4 -5 0 -10
-5 -10 -11z"/>
<path d="M825 1709 c-4 -6 -5 -12 -2 -15 2 -3 7 2 10 11 7 17 1 20 -8 4z"/>
<path d="M765 1670 c3 -5 8 -10 11 -10 2 0 4 5 4 10 0 6 -5 10 -11 10 -5 0 -7
-4 -4 -10z"/>
<path d="M920 1670 c0 -6 7 -10 15 -10 8 0 15 2 15 4 0 2 -7 6 -15 10 -8 3
-15 1 -15 -4z"/>
<path d="M805 1640 c3 -5 10 -10 16 -10 5 0 9 5 9 10 0 6 -7 10 -16 10 -8 0
-12 -4 -9 -10z"/>
<path d="M840 1636 c0 -17 27 -29 35 -16 4 6 3 15 0 20 -9 15 -35 12 -35 -4z"/>
<path d="M838 1588 c5 -5 16 -8 23 -6 8 3 3 7 -10 11 -17 4 -21 3 -13 -5z"/>
<path d="M830 1550 c0 -5 5 -10 11 -10 5 0 7 5 4 10 -3 6 -8 10 -11 10 -2 0
-4 -4 -4 -10z"/>
<path d="M3560 2174 c0 -7 7 -14 15 -18 8 -3 15 -12 15 -21 0 -13 2 -14 14 -3
9 9 11 17 4 25 -5 7 -7 17 -3 22 4 7 -4 10 -19 9 -15 -1 -26 -8 -26 -14z"/>
<path d="M3640 1950 c0 -5 5 -10 10 -10 6 0 10 5 10 10 0 6 -4 10 -10 10 -5 0
-10 -4 -10 -10z"/>
<path d="M3686 1900 c6 -6 21 -6 39 -1 30 9 30 9 -9 10 -26 1 -37 -2 -30 -9z"/>
<path d="M3645 1820 c-3 -5 1 -10 9 -10 9 0 16 5 16 10 0 6 -4 10 -9 10 -6 0
-13 -4 -16 -10z"/>
<path d="M3538 1773 c7 -3 16 -2 19 1 4 3 -2 6 -13 5 -11 0 -14 -3 -6 -6z"/>
<path d="M3470 1726 c0 -9 7 -16 16 -16 17 0 14 22 -4 28 -7 2 -12 -3 -12 -12z"/>
<path d="M3739 1679 c-8 -4 -26 -12 -41 -20 -35 -16 -35 -20 2 -41 19 -11 30
-25 30 -39 0 -15 4 -19 16 -15 9 3 20 6 25 6 6 0 7 5 4 10 -4 6 -10 8 -15 5
-5 -3 -11 -1 -15 5 -3 5 0 10 7 10 7 0 2 6 -11 13 -34 17 -36 32 -6 45 29 13
83 16 71 5 -4 -5 -13 -8 -19 -8 -6 0 -11 -10 -10 -22 1 -37 3 -39 13 -23 9 13
11 13 20 0 5 -8 10 -13 11 -10 6 37 6 58 1 67 -9 13 -64 21 -83 12z"/>
<path d="M3510 1653 c0 -6 -8 -14 -17 -16 -14 -4 -13 -5 4 -6 12 0 25 4 28 9
3 6 15 10 26 10 10 0 19 4 19 9 0 4 -13 8 -30 7 -16 -1 -30 -6 -30 -13z"/>
<path d="M3418 1553 c7 -3 16 -2 19 1 4 3 -2 6 -13 5 -11 0 -14 -3 -6 -6z"/>
<path d="M3536 1524 c-4 -10 -1 -14 6 -12 15 5 23 28 10 28 -5 0 -13 -7 -16
-16z"/>
<path d="M3565 1490 c-3 -5 -1 -10 4 -10 6 0 11 5 11 10 0 6 -2 10 -4 10 -3 0
-8 -4 -11 -10z"/>
<path d="M3190 1470 c0 -5 5 -10 11 -10 5 0 7 5 4 10 -3 6 -8 10 -11 10 -2 0
-4 -4 -4 -10z"/>
<path d="M3435 1410 c-4 -6 -15 -8 -26 -5 -27 9 -43 -3 -28 -21 9 -11 8 -14
-7 -14 -12 0 -15 -3 -8 -10 13 -13 54 -1 54 16 0 8 4 14 9 14 5 0 11 7 15 15
6 17 0 20 -9 5z"/>
<path d="M3395 1330 c-3 -6 4 -14 17 -19 29 -11 35 -6 18 14 -14 17 -26 19
-35 5z"/>
<path d="M3310 1315 c0 -8 4 -15 10 -15 5 0 7 7 4 15 -4 8 -8 15 -10 15 -2 0
-4 -7 -4 -15z"/>
<path d="M3371 1294 c10 -12 8 -17 -7 -29 -10 -8 -14 -15 -7 -15 6 0 18 -6 25
-14 12 -12 18 -11 39 5 20 15 22 20 10 31 -11 10 -14 10 -18 1 -8 -21 -25 -15
-18 6 4 13 0 20 -15 24 -18 5 -19 3 -9 -9z"/>
<path d="M3335 1290 c-3 -5 -1 -10 4 -10 6 0 11 5 11 10 0 6 -2 10 -4 10 -3 0
-8 -4 -11 -10z"/>
<path d="M3300 1250 c0 -5 5 -10 11 -10 5 0 7 5 4 10 -3 6 -8 10 -11 10 -2 0
-4 -4 -4 -10z"/>
<path d="M3429 1232 c-8 -10 -21 -21 -29 -24 -11 -4 -6 -9 14 -17 16 -7 37 -9
45 -5 9 4 18 7 21 6 3 0 5 11 5 24 0 13 -3 24 -7 24 -3 0 -13 3 -21 6 -8 3
-21 -3 -28 -14z"/>
<path d="M3155 1230 c3 -5 10 -10 16 -10 5 0 9 5 9 10 0 6 -7 10 -16 10 -8 0
-12 -4 -9 -10z"/>
<path d="M3120 1157 c0 -23 2 -24 25 -14 29 14 28 31 -3 35 -18 3 -22 -2 -22
-21z"/>
<path d="M3024 1148 c-8 -13 20 -19 46 -10 24 9 23 9 -8 14 -18 3 -35 1 -38
-4z"/>
<path d="M3010 1049 c0 -5 5 -7 10 -4 6 3 10 8 10 11 0 2 -4 4 -10 4 -5 0 -10
-5 -10 -11z"/>
<path d="M1120 1633 c0 -29 24 -35 39 -11 11 18 11 20 -2 15 -8 -3 -20 0 -26
6 -8 8 -11 6 -11 -10z"/>
<path d="M1130 1581 c0 -17 18 -21 24 -6 3 9 0 15 -9 15 -8 0 -15 -4 -15 -9z"/>
<path d="M1164 1559 c-13 -15 -14 -20 -4 -15 8 3 23 9 33 12 9 4 17 10 17 15
0 17 -27 9 -46 -12z"/>
<path d="M1055 1530 c-3 -5 -1 -10 4 -10 6 0 11 5 11 10 0 6 -2 10 -4 10 -3 0
-8 -4 -11 -10z"/>
<path d="M1070 1461 c0 -11 -10 -22 -22 -25 -22 -7 -22 -7 -3 -15 12 -5 24 -3
32 5 15 15 17 54 3 54 -5 0 -10 -8 -10 -19z"/>
<path d="M1295 1470 c-4 -6 5 -10 19 -10 14 0 26 5 26 10 0 6 -9 10 -19 10
-11 0 -23 -4 -26 -10z"/>
<path d="M1229 1358 c-7 -22 -3 -48 8 -48 7 0 12 5 11 11 -5 22 17 19 27 -3 6
-12 17 -23 25 -26 12 -3 13 -2 1 6 -7 5 -11 15 -7 20 4 6 -7 18 -23 27 -29 14
-40 18 -42 13z"/>
<path d="M1418 1334 c2 -14 12 -28 21 -32 9 -3 19 -10 23 -16 4 -6 6 2 4 17
-2 24 -29 56 -47 57 -3 0 -4 -12 -1 -26z"/>
<path d="M1182 1329 c2 -7 10 -15 17 -17 8 -3 12 1 9 9 -2 7 -10 15 -17 17 -8
3 -12 -1 -9 -9z"/>
<path d="M1380 1324 c-7 -8 -20 -12 -29 -9 -11 3 -10 1 3 -10 19 -15 56 -5 56
15 0 17 -18 20 -30 4z"/>
<path d="M1170 1284 c0 -14 3 -14 15 -4 8 7 15 14 15 16 0 2 -7 4 -15 4 -8 0
-15 -7 -15 -16z"/>
<path d="M1352 1259 c2 -6 8 -10 13 -10 5 0 11 4 13 10 2 6 -4 11 -13 11 -9 0
-15 -5 -13 -11z"/>
<path d="M1390 1260 c0 -5 7 -10 15 -10 8 0 15 5 15 10 0 6 -7 10 -15 10 -8 0
-15 -4 -15 -10z"/>
<path d="M1454 1250 c-6 -6 -30 -14 -55 -19 -31 -6 -36 -9 -17 -10 20 -1 26
-5 22 -16 -4 -8 -2 -15 3 -15 10 0 73 56 73 64 0 9 -15 7 -26 -4z"/>
<path d="M1077 1244 c-8 -8 1 -24 14 -24 5 0 9 7 9 15 0 15 -12 20 -23 9z"/>
<path d="M1187 1241 c-25 -9 -26 -26 -2 -26 15 0 20 -6 19 -27 0 -26 3 -28 35
-27 20 1 29 3 20 6 -9 2 -24 21 -35 42 -15 29 -24 36 -37 32z"/>
<path d="M1125 1207 c-8 -19 -2 -31 13 -26 5 2 6 13 2 24 -7 19 -8 19 -15 2z"/>
<path d="M1637 1004 c3 -7 9 -14 14 -14 14 0 10 17 -5 23 -10 4 -13 1 -9 -9z"/>
<path d="M1961 1034 c6 -8 18 -14 26 -14 12 0 13 -3 4 -14 -10 -12 -7 -15 18
-14 30 1 46 18 16 18 -7 0 -18 6 -22 13 -4 8 -18 16 -31 20 -19 4 -21 3 -11
-9z"/>
<path d="M2067 1044 c-4 -4 -7 -17 -7 -28 1 -19 1 -20 11 -3 11 19 8 43 -4 31z"/>
<path d="M1930 990 c0 -5 5 -10 10 -10 6 0 10 5 10 10 0 6 -4 10 -10 10 -5 0
-10 -4 -10 -10z"/>
<path d="M2051 971 c-10 -7 -10 -10 -1 -16 6 -4 16 -3 22 3 13 13 -4 23 -21
13z"/>
<path d="M1951 915 c-30 -33 -8 -32 27 0 18 17 22 25 12 25 -8 0 -26 -12 -39
-25z"/>
<path d="M1985 890 c3 -5 8 -10 11 -10 2 0 4 5 4 10 0 6 -5 10 -11 10 -5 0 -7
-4 -4 -10z"/>
<path d="M1960 780 c0 -5 5 -10 11 -10 5 0 7 5 4 10 -3 6 -8 10 -11 10 -2 0
-4 -4 -4 -10z"/>
<path d="M1920 769 c0 -5 5 -7 10 -4 6 3 10 8 10 11 0 2 -4 4 -10 4 -5 0 -10
-5 -10 -11z"/>
<path d="M2590 1042 c0 -10 41 -24 49 -17 6 7 0 11 -26 19 -13 4 -23 3 -23 -2z"/>
<path d="M2410 930 c0 -5 5 -10 11 -10 5 0 7 5 4 10 -3 6 -8 10 -11 10 -2 0
-4 -4 -4 -10z"/>
<path d="M2442 910 c0 -14 2 -19 5 -12 2 6 2 18 0 25 -3 6 -5 1 -5 -13z"/>
<path d="M2360 900 c0 -5 5 -10 11 -10 5 0 7 5 4 10 -3 6 -8 10 -11 10 -2 0
-4 -4 -4 -10z"/>
<path d="M2451 854 c0 -11 3 -14 6 -6 3 7 2 16 -1 19 -3 4 -6 -2 -5 -13z"/>
</g>
</svg>
