<!--?xml version="1.0" encoding="utf-8"?-->
<!-- Generator: Adobe Illustrator 25.2.3, SVG Export Plug-In . SVG Version: 6.00 Build 0)  -->
<svg version="1.1" id="_x32_" xmlns="http://www.w3.org/2000/svg" xmlns:xlink="http://www.w3.org/1999/xlink" x="0px" y="0px" viewBox="0 0 720 720" style="enable-background:new 0 0 720 720;" xml:space="preserve">
<style type="text/css">
	.st0{fill:#EDEDED;}
	.st1{fill:#CACACA;}
	.st2{fill:#888888;}
	.st3{fill:#BABABA;}
	.st4{fill:#727272;}
	.st5{fill:#F2F2F2;}
</style>
<g>
	<circle class="st0" cx="360" cy="360" r="352.773" style="opacity: 1;"></circle>
	<circle class="st1" cx="358.848" cy="362.613" r="346.192" style="opacity: 1;"></circle>
	<circle class="st2" cx="354.619" cy="361.794" r="323.492" style="opacity: 1;"></circle>
	<circle class="st3" cx="355.919" cy="363.493" r="317.604" style="opacity: 1;"></circle>
	<path class="st4" d="M136.827,520.5c-0.358,0-0.714-0.099-1.027-0.294c-0.569-0.355-0.915-0.978-0.915-1.649v-35.781
		c0-0.736,0.416-1.408,1.074-1.737l27.77-13.885V216.487l-32.168,16.084c-0.274,0.137-0.572,0.205-0.869,0.205
		c-0.355,0-0.709-0.097-1.021-0.29c-0.573-0.354-0.921-0.979-0.921-1.652v-42.358c0-0.741,0.422-1.418,1.088-1.744l94.747-46.426
		c0.27-0.132,0.563-0.198,0.855-0.198c0.358,0,0.715,0.099,1.028,0.294c0.569,0.355,0.915,0.978,0.915,1.648v294.225l14.072-7.036
		c0.274-0.137,0.572-0.205,0.868-0.205c0.355,0,0.709,0.098,1.021,0.29c0.573,0.354,0.921,0.979,0.921,1.652v35.781
		c0,0.741-0.421,1.417-1.086,1.744l-105.495,51.8C137.412,520.434,137.119,520.5,136.827,520.5z" style="opacity: 1;"></path>
	<path class="st4" d="M310.804,516.701c-10.714,0-25.324-11.758-34.579-21.828c-8.019-8.724-21.473-26.264-21.473-45.713V189.85
		c0-0.736,0.416-1.408,1.074-1.737l97.787-48.893c0.275-0.138,0.573-0.205,0.868-0.205c0.46,0,0.915,0.163,1.277,0.478l2.805,2.446
		c1.01,0.88,3.412,2.969,3.412,2.969c13.244,11.513,22.81,19.829,29.384,30.163c6.977,10.966,9.954,23.263,9.954,41.119v255.081
		c0,0.736-0.416,1.408-1.074,1.737l-86.862,43.431c-0.247,0.123-0.517,0.193-0.792,0.203l-1.195,0.047
		C311.202,516.697,311.005,516.701,310.804,516.701z M326.277,198.69c-4.274,0-9.551,2.438-10.358,9.308
		c-0.233,1.98-0.351,3.835-0.351,5.513v218.861c0,14.817,5.006,20.59,10.802,27.273c1.881,2.169,4.481,3.364,7.322,3.364
		c3.56,0,7.777-2.061,9.196-6.662c0.245-1.065,0.667-7.756,0.667-10.018V230.312c0-12.384-2.377-21.154-7.268-26.813
		C333.606,200.398,330.051,198.69,326.277,198.69z" style="opacity: 1;"></path>
	<path class="st4" d="M480.829,516.701c-10.714,0-25.324-11.758-34.579-21.828c-8.019-8.725-21.473-26.264-21.473-45.713V189.85
		c0-0.736,0.416-1.408,1.074-1.737l97.787-48.893c0.276-0.138,0.573-0.205,0.868-0.205c0.46,0,0.915,0.163,1.277,0.478l2.806,2.446
		c1.036,0.902,3.411,2.968,3.412,2.968c13.243,11.513,22.81,19.829,29.385,30.164c6.977,10.966,9.953,23.264,9.953,41.119v255.081
		c0,0.736-0.416,1.408-1.074,1.737l-86.861,43.431c-0.247,0.123-0.517,0.193-0.792,0.203l-1.196,0.047
		C481.226,516.697,481.029,516.701,480.829,516.701z M496.301,198.69c-4.274,0-9.551,2.438-10.358,9.308
		c-0.233,1.98-0.351,3.835-0.351,5.513v218.861c0,14.818,5.006,20.59,10.801,27.273c1.882,2.17,4.482,3.364,7.322,3.364
		c3.56,0,7.777-2.061,9.196-6.662c0.245-1.064,0.667-7.756,0.667-10.018V230.312c0-12.384-2.377-21.154-7.268-26.813
		C503.631,200.398,500.076,198.69,496.301,198.69z" style="opacity: 1;"></path>
	<g>
		<path class="st4" d="M716.31,360h-3.69c-0.002,97.385-39.463,185.516-103.28,249.339C545.516,673.156,457.385,712.617,360,712.619
			c-97.385-0.002-185.516-39.463-249.339-103.28C46.843,545.516,7.383,457.385,7.381,360
			c0.002-97.385,39.462-185.516,103.28-249.339C174.484,46.843,262.615,7.383,360,7.381c97.385,0.002,185.516,39.462,249.339,103.28
			C673.157,174.484,712.617,262.615,712.619,360H716.31H720c0.002-99.4-40.3-189.423-105.442-254.558
			C549.423,40.3,459.4-0.002,360,0c-99.4-0.002-189.423,40.3-254.559,105.441C40.3,170.577-0.002,260.6,0,360
			c-0.002,99.4,40.3,189.423,105.442,254.559C170.577,679.7,260.6,720.002,360,720c99.4,0.002,189.423-40.3,254.558-105.442
			C679.7,549.423,720.002,459.4,720,360H716.31z" style="opacity: 1;"></path>
	</g>
	<polygon class="st5" points="218.718,447.241 218.718,149.872 135.081,190.743 135.081,220.68 170.061,203.191 170.061,470.622 
		141.217,485.044 141.217,508.404 235.602,462.158 235.602,438.799 	" style="opacity: 1;"></polygon>
	<path class="st1" d="M145.101,488.907l28.844-14.422v-274.38l-34.979,17.489v-21.914c0-0.658,0.372-1.26,0.961-1.555l75.61-36.858
		c0.391-0.195,0.85,0.089,0.85,0.525v296.418l16.883-8.442v16.41l-88.169,43.138V488.907z" style="opacity: 1;"></path>
	<path class="st5" d="M352.471,146.424l-91.387,45.693c0,0,0,227.345,0,255.877s36.355,60.532,48.845,60.038l82.721-41.36V215.024
		C392.65,179.891,380.494,170.851,352.471,146.424z M349.887,445.164c0,1.608-0.365,10.135-0.975,12.145
		c-3.897,12.861-20.567,16.237-29.372,6.084c-6.625-7.639-12.635-15.089-12.635-32.186c0-13.158,0-218.861,0-218.861
		c0-2.061,0.145-4.207,0.402-6.389c1.981-16.858,22.387-21.368,33.487-8.526c7.3,8.445,9.093,20.312,9.093,31.715
		C349.887,246.69,349.887,435.515,349.887,445.164z" style="opacity: 1;"></path>
	<path class="st1" d="M309.993,506.856c-5.059-0.373-16.059-7.189-26.349-18.383c-11.869-12.912-18.675-26.958-18.675-38.536
		V196.979c0-0.612,0.346-1.172,0.893-1.445l86.914-43.457c0.626,0.544,1.243,1.081,1.852,1.61
		c25.242,21.943,35.69,31.026,35.69,63.28v248.972c0,0.463-0.261,0.885-0.675,1.092L309.993,506.856z M325.888,188.862
		c-11.008,0-19.599,7.68-20.891,18.676c-0.281,2.388-0.423,4.659-0.423,6.751V433.15c0,18.775,7.116,26.981,13.395,34.222
		c3.926,4.527,9.372,7.02,15.334,7.02c8.999,0,16.779-5.722,19.36-14.239c0.827-2.73,1.108-12.286,1.108-13.047V231.089
		c0-15.041-3.222-26.08-9.849-33.747C339.264,191.953,332.691,188.862,325.888,188.862z" style="opacity: 1;"></path>
	<path class="st5" d="M522.496,146.424l-91.387,45.693c0,0,0,227.345,0,255.877s36.355,60.532,48.845,60.038l82.721-41.36V215.024
		C562.675,179.891,550.518,170.851,522.496,146.424z M519.911,445.164c0,1.608-0.365,10.135-0.975,12.145
		c-3.897,12.861-20.567,16.237-29.372,6.084c-6.625-7.639-12.635-15.089-12.635-32.186c0-13.158,0-218.861,0-218.861
		c0-2.061,0.145-4.207,0.402-6.389c1.981-16.858,22.387-21.368,33.487-8.526c7.3,8.445,9.093,20.312,9.093,31.715
		C519.911,246.69,519.911,435.515,519.911,445.164z" style="opacity: 1;"></path>
	<path class="st1" d="M480.018,506.856c-5.059-0.373-16.059-7.189-26.349-18.383c-11.869-12.912-18.675-26.958-18.675-38.536
		V197.078c0-0.673,0.38-1.288,0.982-1.589l86.826-43.413c0.625,0.544,1.243,1.081,1.851,1.61
		c25.243,21.943,35.691,31.026,35.691,63.28v248.741c0,0.604-0.342,1.157-0.882,1.427L480.018,506.856z M495.913,188.862
		c-11.008,0-19.599,7.68-20.891,18.676c-0.281,2.388-0.423,4.659-0.423,6.751V433.15c0,18.776,7.116,26.982,13.395,34.222
		c3.926,4.527,9.372,7.02,15.334,7.02c8.999,0,16.779-5.722,19.36-14.239c0.827-2.73,1.108-12.286,1.108-13.047V231.089
		c0-15.041-3.222-26.08-9.849-33.747C509.289,191.953,502.716,188.862,495.913,188.862z" style="opacity: 1;"></path>
	<g>
		<path class="st4" d="M196.951,601.817c-2.204,0-4.343-0.833-6.357-2.477l-10.597-8.65c-0.711-0.58-0.902-1.588-0.453-2.388
			l6.336-11.302c0.273-0.487,0.748-0.828,1.296-0.932c0.117-0.022,0.235-0.033,0.353-0.033c0.432,0,0.855,0.148,1.195,0.426
			l6.325,5.163l3.274-4.011l-7.984-6.516l-16.735,20.504c-0.317,0.388-0.775,0.635-1.274,0.685c-0.063,0.006-0.127,0.01-0.19,0.01
			c-0.434,0-0.856-0.149-1.195-0.426l-10.64-8.686c-0.809-0.66-0.929-1.85-0.269-2.659l16.735-20.503l-15.155-12.37
			c-0.388-0.317-0.635-0.775-0.685-1.274c-0.05-0.499,0.099-0.997,0.416-1.385l4.502-5.515l-0.219-0.073
			c-0.889-0.297-1.426-1.203-1.26-2.126l2.644-14.745c0.101-0.562,0.45-1.048,0.951-1.323c0.282-0.155,0.595-0.233,0.91-0.233
			c0.243,0,0.487,0.047,0.717,0.141l4.026,1.651c8.124,3.331,15.901,5.02,23.115,5.02c5.226,0,10.309-0.889,15.107-2.642
			l2.289-0.837c0.212-0.078,0.432-0.115,0.649-0.115c0.542,0,1.07,0.233,1.436,0.661l7.779,9.084c0.23,0.269,0.38,0.596,0.433,0.946
			l0.151,0.996c0.298,1.962-0.157,3.784-1.281,5.147c1.382,10.149,5.708,20.509,12.868,30.81l2.327,3.348
			c0.314,0.451,0.415,1.017,0.279,1.55c-0.137,0.532-0.499,0.979-0.992,1.223l-12.984,6.427c-0.268,0.133-0.555,0.196-0.837,0.196
			c-0.621,0-1.224-0.306-1.583-0.857l-1.706-2.612c-0.387-0.592-0.766-1.185-1.139-1.781l-15.28,18.721
			C201.708,601.164,198.878,601.817,196.951,601.817z M207.217,547.942c-0.183-1.122-0.34-2.243-0.468-3.361
			c-1.031,0.168-2.075,0.31-3.128,0.426L207.217,547.942z" style="opacity: 1;"></path>
		<path class="st4" d="M342.847,655.571c-0.113,0-0.226-0.01-0.338-0.03l-13.513-2.455c-1.027-0.187-1.708-1.171-1.522-2.198
			l0.363-1.999l-7.502-1.363l-0.687,3.78c-0.166,0.913-0.961,1.553-1.857,1.553c-0.112,0-0.226-0.01-0.34-0.031l-13.513-2.455
			c-1.027-0.187-1.708-1.171-1.522-2.198l2.945-16.214l-0.124,0.114c-0.35,0.32-0.806,0.496-1.276,0.496
			c-0.07,0-0.141-0.004-0.211-0.012c-0.542-0.061-1.032-0.353-1.342-0.802l-2.293-3.309c-0.498-0.718-0.994-1.413-1.486-2.081
			l-3.984,21.93c-0.09,0.493-0.371,0.931-0.784,1.216c-0.318,0.22-0.694,0.336-1.076,0.336c-0.113,0-0.226-0.01-0.338-0.03
			l-13.514-2.455c-1.027-0.187-1.708-1.171-1.522-2.198l2.874-15.821c-1.398,1.018-2.835,1.984-4.301,2.889l-2.948,1.821
			c-0.309,0.191-0.652,0.282-0.992,0.282c-0.625,0-1.236-0.31-1.596-0.875l-7.808-12.255c-0.277-0.434-0.364-0.962-0.242-1.463
			c0.122-0.5,0.442-0.929,0.888-1.188l3.17-1.839c5.898-3.422,10.877-7.502,14.839-12.156l-10.259-1.863
			c-1.027-0.187-1.708-1.171-1.522-2.198l2.281-12.557c0.09-0.493,0.371-0.931,0.783-1.216c0.318-0.22,0.694-0.336,1.076-0.336
			c0.113,0,0.226,0.01,0.338,0.03l1.35,0.245l-3.096-10.81c-0.172-0.6-0.037-1.246,0.362-1.727c0.361-0.435,0.896-0.684,1.455-0.684
			c0.058,0,0.116,0.003,0.174,0.008l5.117,0.472c4.748,0.437,9.366,0.659,13.726,0.659c5.659,0,11.07-0.373,16.082-1.109
			l2.532-0.372c0.092-0.013,0.184-0.02,0.275-0.02c0.711,0,1.373,0.402,1.695,1.055l4.501,9.134
			c0.121,0.244,0.187,0.512,0.194,0.784l35.948,6.53c1.027,0.187,1.708,1.171,1.522,2.198l-11.123,61.233
			c-0.09,0.493-0.371,0.931-0.784,1.216C343.605,655.455,343.229,655.571,342.847,655.571z M330.794,632.613l5.185-28.541
			l-7.501-1.362l-5.185,28.541L330.794,632.613z M306.962,609.225c0.759,0.653,1.482,1.315,2.17,1.986l0.28-1.54L306.962,609.225z
			 M312.368,593.395l0.345-1.902c-0.167,0.014-0.334,0.021-0.502,0.021c-0.917,0-1.837-0.204-2.742-0.608l-4.443,0.248l-0.159,0.877
			L312.368,593.395z" style="opacity: 1;"></path>
		<path class="st4" d="M412.515,643.474c-3.758,0-7.305-0.919-10.544-2.731c-5.048-2.813-8.217-6.914-9.415-12.186l-1.315-5.78
			c-0.231-1.018,0.406-2.031,1.424-2.262l12.537-2.852l-2.218-9.754l-11.231,2.554c-0.139,0.031-0.279,0.047-0.419,0.047
			c-0.353,0-0.703-0.099-1.007-0.291c-0.424-0.267-0.725-0.692-0.836-1.181l-0.779-3.429c-1.375-6.047-0.293-11.634,3.215-16.607
			c3.036-4.303,7.345-7.115,12.807-8.357c2.127-0.483,4.196-0.728,6.152-0.728c3.65,0,7.01,0.841,9.987,2.501
			c4.533,2.53,7.461,6.583,8.702,12.044c1.028,4.519,0.717,8.501-0.924,11.867c3.899,2.554,6.447,6.371,7.583,11.366
			c1.331,5.852,0.314,11.216-3.021,15.945c-3.209,4.548-8.265,7.633-15.028,9.172C416.257,643.252,414.349,643.474,412.515,643.474
			L412.515,643.474z M410.548,624.158c0.242,1.062,0.741,1.703,1.779,2.282c0.423,0.237,0.851,0.352,1.309,0.352
			c0.268,0,0.564-0.037,0.879-0.108c1.974-0.449,2.699-1.176,3.111-1.759c0.433-0.614,0.467-1.973,0.089-3.635
			c-0.354-1.554-0.91-2.052-1.458-2.359c-0.649-0.361-1.274-0.546-1.85-0.546c-0.233,0-0.477,0.029-0.727,0.086l-4.208,0.957
			L410.548,624.158z M409.374,596.351c-0.301,0-0.65,0.045-1.038,0.133c-0.671,0.152-1.088,0.448-1.543,1.093
			c-0.19,0.269-0.77,1.374-0.286,4.324l0.294,1.787l2.69-0.612c0.275-0.062,0.919-0.209,1.803-1.462
			c0.189-0.268,0.692-0.98,0.222-3.045c-0.278-1.224-0.757-1.711-1.391-2.066C409.947,596.404,409.686,596.351,409.374,596.351z" style="opacity: 1;"></path>
		<path class="st4" d="M483.123,609.892c-0.101,0-0.202-0.008-0.303-0.024c-0.495-0.08-0.937-0.354-1.231-0.761l-7.461-10.354
			c-0.61-0.847-0.418-2.028,0.428-2.638l10.703-7.714l-2.795-3.878c-0.26,0.877-0.537,1.747-0.833,2.607l-1.036,3.016
			c-0.267,0.777-0.996,1.276-1.787,1.276c-0.145,0-0.292-0.017-0.438-0.052l-13.982-3.327c-0.529-0.126-0.979-0.474-1.233-0.955
			c-0.255-0.481-0.289-1.048-0.096-1.557l1.425-3.744c3.417-8.973,3.363-18.575-0.162-28.54l-1.111-3.139
			c-0.335-0.947,0.129-1.99,1.056-2.376l11.224-4.666c0.231-0.096,0.477-0.145,0.726-0.145c0.07,0,0.139,0.004,0.209,0.011
			l0.901,0.1c3.48,0.39,4.837,2.659,5.295,3.76l33.559-24.186c0.334-0.241,0.721-0.357,1.103-0.357c0.587,0,1.166,0.272,1.535,0.785
			l7.462,10.353c0.293,0.407,0.413,0.913,0.332,1.408c-0.08,0.495-0.354,0.938-0.761,1.231l-2.451,1.766
			c0.477,0.078,0.925,0.337,1.23,0.761l7.461,10.354c0.61,0.847,0.418,2.028-0.428,2.638L516.886,562.2l1.616,2.242l21.308-15.357
			c0.324-0.233,0.711-0.357,1.105-0.357c0.101,0,0.202,0.008,0.303,0.024c0.495,0.081,0.937,0.354,1.23,0.76l7.462,10.354
			c0.61,0.847,0.419,2.028-0.428,2.638l-21.308,15.356l9.477,13.151c0.61,0.847,0.419,2.028-0.428,2.638l-11.142,8.03
			c-0.324,0.233-0.711,0.357-1.105,0.357c-0.101,0-0.202-0.008-0.303-0.024c-0.495-0.081-0.937-0.354-1.231-0.761l-9.477-13.15
			l-29.738,21.433C483.904,609.769,483.517,609.892,483.123,609.892z M499.468,578.161l4.826-3.478l-1.616-2.243l-4.826,3.478
			L499.468,578.161z" style="opacity: 1;"></path>
		<g>
			<g>
				<path class="st5" d="M165.778,544.298l16.619,13.564l-17.93,21.968l6.541,5.339l17.93-21.968l15.012,12.253l-8.797,10.778
					c-0.101,0.124-0.178,0.17-0.202,0.17c-0.046,0-0.176-0.044-0.376-0.207l-7.034-5.741l-3.709,6.616l8.875,7.244
					c1.183,0.966,2.357,1.455,3.489,1.455c1.374,0,2.646-0.705,3.781-2.096l15.237-18.668l-44.711-36.494L165.778,544.298z" style="opacity: 1;"></path>
				<path class="st1" d="M196.951,595.769c-0.774,0-1.627-0.375-2.533-1.114l-7.891-6.442l2.207-3.938l5.639,4.603
					c0.446,0.363,0.893,0.547,1.332,0.547c0.357,0,0.886-0.126,1.375-0.727l9.752-11.948l-17.355-14.165l-17.93,21.968l-4.198-3.427
					l17.93-21.968l-16.619-13.564l2.811-3.444l42.369,34.581l-14.281,17.497C198.715,595.265,197.862,595.769,196.951,595.769z" style="opacity: 1;"></path>
				<path class="st5" d="M217.71,537.07c0.103,0.017,0.201,0.025,0.297,0.025c0.408,0,0.769-0.159,1.017-0.447
					c0.317-0.368,0.418-0.892,0.311-1.6l-0.037-0.246l-6.092-7.114l-0.566,0.207c-5.298,1.935-10.904,2.917-16.664,2.917
					c-7.808,0-16.164-1.803-24.836-5.36l-0.996-0.408l-1.662,9.271l0.712,0.238c6.241,2.089,12.253,3.496,17.968,4.218l-3.627,4.444
					l27.573,22.506l4.039-4.949c2.167,5.475,5.021,10.932,8.559,16.347l0.422,0.646l8.129-4.024l-0.576-0.828
					C223.387,560.979,218.691,548.927,217.71,537.07z M190.308,539.102c1.877,0.156,3.721,0.239,5.525,0.239
					c4.98,0,9.779-0.595,14.286-1.771c0.262,7.047,1.687,14.123,4.257,21.176L190.308,539.102z" style="opacity: 1;"></path>
				<path class="st1" d="M225.418,577.327c-3.32-5.144-6.047-10.389-8.108-15.598l-0.411-1.038l-0.346-0.951
					c-2.511-6.89-3.913-13.86-4.167-20.715l-0.07-1.883l-1.823,0.476c-4.38,1.143-9.058,1.722-13.904,1.722
					c-1.719,0-3.536-0.079-5.4-0.234l-1.535-0.128l-1.546-0.195c-5.459-0.689-11.226-2.027-17.151-3.977l1.102-6.145
					c8.592,3.434,16.89,5.174,24.673,5.174c5.785,0,11.421-0.961,16.762-2.857l5.122,5.981c0.003,0.045,0.004,0.083,0.004,0.116
					l-1.821-0.301l0.16,1.933c0.986,11.92,5.633,24.019,13.815,35.97L225.418,577.327z M186.419,544.513l2.811-3.444l25.231,20.593
					l-2.812,3.445L186.419,544.513z" style="opacity: 1;"></path>
				<path class="st5" d="M309.846,618.526c-2.818-4.367-7.263-8.472-13.214-12.208l0.871-4.795l14.84,2.695l1.335-7.35l-14.84-2.696
					l1.609-8.859l9.327-0.522c0.65,0.459,1.189,0.674,1.681,0.674c0.362,0,1.545-0.149,1.593-2.069l0.005-0.214l-3.361-6.821
					l-0.626,0.092c-5.228,0.767-10.86,1.157-16.74,1.157c-4.501,0-9.259-0.228-14.142-0.678l-1.265-0.117l2.177,7.601l0.575,0.067
					c2.919,0.341,7.019,0.617,12.198,0.82l-1.337,7.36l-15.5-2.816l-1.335,7.35l14.78,2.685
					c-4.795,7.664-11.685,14.136-20.497,19.248l-0.784,0.455l4.924,7.728l0.729-0.45c5.024-3.101,9.556-6.865,13.508-11.213
					l-4.762,26.212l8.307,1.509l5.211-28.686c2.537,2.436,5.214,5.681,7.977,9.669l0.567,0.818l6.588-6.029L309.846,618.526z" style="opacity: 1;"></path>
				<path class="st1" d="M284.107,642.156l5.435-29.917l-3.55,3.906c-3.713,4.085-7.965,7.652-12.646,10.608l-3.275-5.141
					c8.747-5.181,15.622-11.711,20.443-19.416l1.183-1.891l-15.487-2.813l0.795-4.375l15.5,2.816l1.918-10.56l-1.74-0.068
					c-4.891-0.191-8.808-0.447-11.656-0.762l-1.291-4.508c4.603,0.399,9.088,0.601,13.346,0.601c5.78,0,11.328-0.372,16.497-1.106
					l2.707,5.493c-0.02,0.26-0.071,0.39-0.098,0.442c-0.078-0.008-0.315-0.063-0.785-0.396l-0.43-0.304l-11.044,0.618l-2.093,11.519
					l14.84,2.696l-0.795,4.374l-14.84-2.695l-1.324,7.29l0.867,0.544c5.554,3.487,9.739,7.285,12.449,11.295l-4.366,3.995
					c-2.668-3.791-5.274-6.916-7.752-9.295l-2.032-1.951l-5.444,29.97L284.107,642.156z" style="opacity: 1;"></path>
				<path class="st5" d="M306.597,644.871l8.306,1.509l1.025-5.639l16.427,2.983l-0.701,3.859l8.307,1.509l10.177-56.026
					l-33.04-6.002L306.597,644.871z M340.497,598.908l-6.807,37.467l-16.427-2.984l6.806-37.467L340.497,598.908z" style="opacity: 1;"></path>
				<path class="st1" d="M334.168,647.878l0.701-3.859l-19.402-3.524l-1.025,5.639l-5.331-0.969l9.96-54.831l30.065,5.462
					l-9.637,53.051L334.168,647.878z M316.261,636.12l19.402,3.525l7.347-40.442l-19.402-3.525L316.261,636.12z" style="opacity: 1;"></path>
				<path class="st5" d="M424.567,608.103c-1.196-0.664-2.492-1.147-3.874-1.445c0.845-0.648,1.615-1.463,2.304-2.44
					c1.873-2.655,2.343-6.107,1.399-10.261c-0.944-4.154-3.127-7.212-6.487-9.088c-2.294-1.278-4.911-1.927-7.779-1.927
					c-1.618,0-3.35,0.207-5.146,0.615c-4.336,0.986-7.736,3.19-10.107,6.549c-2.735,3.878-3.576,8.247-2.498,12.987l0.193,0.848
					l8.836-2.01l-0.133-0.807c-0.547-3.326-0.192-5.908,1.055-7.674c1.095-1.553,2.483-2.502,4.243-2.902
					c0.717-0.163,1.405-0.246,2.044-0.246c1.1,0,2.099,0.246,2.969,0.732c1.894,1.061,3.07,2.702,3.597,5.017
					c0.618,2.715,0.31,4.896-0.939,6.666c-1.27,1.8-2.743,2.87-4.504,3.27l-2.809,0.639l1.523,6.697l3.462-0.788
					c0.579-0.132,1.162-0.199,1.733-0.199c1.358,0,2.727,0.379,4.067,1.124c1.893,1.061,3.092,2.798,3.664,5.311
					c0.697,3.068,0.427,5.509-0.805,7.255c-1.27,1.801-3.171,2.968-5.811,3.567c-0.645,0.147-1.28,0.221-1.887,0.221
					c-1.238,0-2.422-0.312-3.521-0.928c-2.157-1.205-3.462-2.918-3.99-5.237l-0.661-2.907l-9.212,2.096l0.728,3.2
					c0.901,3.964,3.326,7.07,7.207,9.233c2.554,1.429,5.357,2.153,8.329,2.153c0,0,0.001,0,0.001,0c1.496,0,3.066-0.185,4.664-0.548
					c5.637-1.282,9.785-3.76,12.327-7.364c2.563-3.633,3.338-7.78,2.305-12.324C430.11,613.037,427.928,609.98,424.567,608.103z" style="opacity: 1;"></path>
				<path class="st1" d="M412.516,637.426c-2.712,0-5.266-0.66-7.592-1.961c-3.492-1.946-5.668-4.721-6.47-8.248l-0.393-1.726
					l6.264-1.425l0.326,1.432c0.619,2.722,2.21,4.815,4.727,6.221c1.325,0.743,2.759,1.12,4.258,1.12
					c0.719,0,1.467-0.087,2.222-0.259c3.02-0.686,5.215-2.051,6.71-4.17c1.489-2.111,1.841-4.958,1.044-8.461
					c-0.663-2.913-2.143-5.031-4.399-6.295c-1.572-0.875-3.188-1.317-4.806-1.317c-0.684,0-1.38,0.079-2.069,0.236l-1.987,0.452
					l-0.852-3.748l1.335-0.303c2.141-0.487,3.908-1.753,5.404-3.873c1.511-2.141,1.896-4.716,1.178-7.873
					c-0.618-2.718-2.076-4.736-4.332-6.001c-1.1-0.614-2.347-0.925-3.708-0.925c-0.752,0-1.552,0.095-2.379,0.284
					c-2.111,0.48-3.842,1.659-5.144,3.505c-1.403,1.989-1.874,4.743-1.401,8.193l-5.971,1.358c-0.769-4.062,0.034-7.811,2.39-11.151
					c2.148-3.045,5.246-5.045,9.207-5.946c1.687-0.383,3.305-0.578,4.811-0.578c2.607,0,4.976,0.584,7.043,1.735
					c2.969,1.657,4.904,4.384,5.749,8.102c0.846,3.718,0.456,6.765-1.16,9.055c-0.598,0.848-1.267,1.558-1.989,2.111l-2.596,1.99
					l3.198,0.688c1.234,0.266,2.398,0.699,3.458,1.288c2.968,1.658,4.903,4.384,5.748,8.102c0.934,4.109,0.239,7.849-2.066,11.117
					c-2.321,3.289-6.165,5.564-11.427,6.761C415.354,637.255,413.898,637.426,412.516,637.426L412.516,637.426z" style="opacity: 1;"></path>
				<path class="st5" d="M543.927,558.861l-4.368-6.061l-22.841,16.461l-6.92-9.602l16.315-11.758l-4.367-6.061l-16.315,11.758
					l-4.98-6.91l19.85-14.306l-4.368-6.06l-37.961,27.358l-0.982-4.691c0.494-0.529,0.94-1.214,0.704-1.93
					c-0.193-0.584-0.738-0.931-1.621-1.03l-0.223-0.025l-8.28,3.442l0.275,0.776c3.893,11.006,3.935,21.661,0.125,31.667
					l-0.353,0.926l8.713,2.073l0.256-0.746c2.462-7.169,3.521-14.744,3.15-22.525l13.866-9.993l4.98,6.91l-19.034,13.719
					l11.288,15.662l-12.236,8.819l4.367,6.061l31.271-22.538l10.582,14.684l6.849-4.936l-10.582-14.684L543.927,558.861z
					 M497.684,582.981l-6.92-9.602l12.185-8.783l6.921,9.602L497.684,582.981z" style="opacity: 1;"></path>
				<path class="st1" d="M481.466,598.59l12.236-8.82l-11.288-15.662l19.034-13.719l-6.748-9.363l-15.758,11.357l0.039,0.819
					c0.353,7.388-0.617,14.588-2.883,21.409l-5.705-1.357c3.62-9.975,3.564-20.548-0.167-31.448l6.59-2.739
					c0.047,0.008,0.087,0.018,0.12,0.027c-0.052,0.086-0.141,0.21-0.296,0.376l-0.535,0.574l1.619,7.736l38.621-27.834l2.6,3.607
					l-19.85,14.306l6.748,9.363l16.315-11.758l2.6,3.607l-16.315,11.758l8.689,12.055l22.841-16.461l2.6,3.607l-22.841,16.461
					l10.582,14.684l-4.396,3.168l-10.582-14.684l-31.271,22.538L481.466,598.59z M489.409,574.548l8.688,12.055l14.639-10.551
					l-8.689-12.055L489.409,574.548z" style="opacity: 1;"></path>
			</g>
		</g>
	</g>
</g>
</svg>
