<!--?xml version="1.0" encoding="utf-8"?-->
<!-- Generator: Adobe Illustrator 25.2.3, SVG Export Plug-In . SVG Version: 6.00 Build 0)  -->
<svg version="1.1" id="_x33_" xmlns="http://www.w3.org/2000/svg" xmlns:xlink="http://www.w3.org/1999/xlink" x="0px" y="0px" viewBox="0 0 720 720" style="enable-background:new 0 0 720 720;" xml:space="preserve">
<style type="text/css">
	.st0{fill:#FFFFFF;}
	.st1{fill:#D7DEEB;}
	.st2{fill:#737A87;}
	.st3{fill:#9198A5;}
	.st4{fill:#9BA2AF;}
	.st5{fill:#878E9B;}
	.st6{fill:#E6EDFA;}
	.st7{fill:#B9C0CD;}
	.st8{fill:#7F8693;}
	.st9{fill:#727272;}
	.st10{fill:#F2F2F2;}
	.st11{fill:#CACACA;}
</style>
<g>
	<circle class="st0" cx="360" cy="360" r="357.007" style="opacity: 1;"></circle>
	<circle class="st1" cx="362.22" cy="361.022" r="349.945" style="opacity: 1;"></circle>
	<circle class="st2" cx="360" cy="360" r="329.729" style="opacity: 1;"></circle>
	<circle class="st3" cx="358.803" cy="356.408" r="317.478" style="opacity: 1;"></circle>
	<circle class="st4" cx="365.483" cy="371.387" r="309.613" style="opacity: 1;"></circle>
	<circle class="st5" cx="362.395" cy="364.789" r="211.817" style="opacity: 1;"></circle>
	<circle class="st6" cx="360" cy="360" r="211.817" style="opacity: 1;"></circle>
	<circle class="st7" cx="363.06" cy="363.06" r="204.475" style="opacity: 1;"></circle>
	<path class="st8" d="M360,0C161.176,0.002,0.002,161.176,0,360c0.002,198.824,161.176,359.998,360,360
		c198.824-0.002,359.998-161.176,360-360C719.998,161.176,558.824,0.002,360,0z M609.504,607.487
		c-64.073,64.068-152.558,103.687-250.325,103.688c-97.768-0.002-186.252-39.62-250.325-103.688
		C44.786,543.413,5.167,454.929,5.166,357.161c0.001-97.768,39.62-186.252,103.688-250.325
		C172.927,42.767,261.411,3.149,359.179,3.148c97.768,0.001,186.252,39.62,250.325,103.688
		c64.068,64.073,103.686,152.557,103.688,250.325C713.191,454.929,673.573,543.413,609.504,607.487z" style="opacity: 1;"></path>
	<circle class="st4" cx="360" cy="360" r="101.573" style="opacity: 1;"></circle>
	<path class="st4" d="M277.81,531.449c-4.629,0-8.381-3.752-8.381-8.381v-47.923c0-4.629,3.752-8.381,8.381-8.381h22.682
		c2.803,0,5.083-2.28,5.083-5.083V265.836c-9.767,4.141-17.09,6.739-17.508,6.887c-0.908,0.32-1.852,0.478-2.791,0.478
		c-1.712,0-6.175,0.49-7.61-0.525c-2.221-1.571-4.228-5.136-4.228-7.857v-39.606c0-2.944-0.037-7.714,2.818-8.434
		c17.38-4.384,27.029-19.878,30.943-25.205c1.58-2.151,4.092-3.422,6.757-3.422c0.044,0,93.524,1.366,93.524,1.366
		c4.577,0.071,8.25,3.803,8.25,8.38v263.781c0,2.803,2.28,5.083,5.083,5.083h16.059c4.629,0,8.381,3.752,8.381,8.381v47.923
		c0,4.629-3.752,8.381-8.381,8.381H277.81z" style="opacity: 1;"></path>
	<path class="st8" d="M280.204,524.835c-2.645,0-4.789-2.144-4.789-4.789v-43.704c0-2.645,2.145-4.789,4.789-4.789h22.682
		c4.784,0,8.675-3.891,8.675-8.675V261.562c-12.057,5.338-21.815,8.799-22.297,8.97c-0.519,0.184-1.058,0.274-1.594,0.274
		c-0.978,0-1.947-0.299-2.767-0.879c-1.269-0.897-2.023-2.356-2.023-3.91V226.41c0-1.683,0.883-3.241,2.326-4.107
		c12.658-7.594,27.138-27.209,27.283-27.406c0.903-1.23,2.338-1.956,3.862-1.956c0.025,0,87.482,1.366,87.482,1.366
		c2.616,0.041,4.715,2.173,4.715,4.789v263.781c0,4.784,3.891,8.675,8.675,8.675h22.046c2.645,0,4.789,2.144,4.789,4.789v43.704
		c0,2.645-2.144,4.789-4.789,4.789H280.204z" style="opacity: 1;"></path>
	<path class="st0" d="M401.363,461.679V197.898l-87.407-1.365c0,0-15.023,20.486-28.681,28.68v39.606
		c0,0,13.736-4.851,28.681-11.909v208.769c0,7.436-6.028,13.464-13.464,13.464h-22.682v43.704h159.063v-43.704h-22.046
		C407.391,475.144,401.363,469.115,401.363,461.679z" style="opacity: 1;"></path>
	<g>
		<path class="st1" d="M407.975,482.327c-6.342,0-10.57-7.399-10.57-20.647c0-13.249,0-253.105,0-253.105H316.02
			c-2.928,4.099-11.051,12.091-20.407,18.944v29.653c0,0,12.285-4.914,17.69-7.862c5.405-2.948,11.302-1.966,11.302,3.931
			c0,5.896,0,183.286,0,205.889s-9.336,28.482-22.112,28.482c-12.776,0-15.01,0-15.01,0v28.538h144.803v-33.823
			C432.285,482.327,414.317,482.327,407.975,482.327z" style="opacity: 1;"></path>
	</g>
	<g>
		<path class="st9" d="M202.311,606.516c-2.048-0.024-4.025-0.821-5.878-2.37l-9.75-8.151c-0.654-0.547-0.821-1.485-0.395-2.224
			l6.009-10.431c0.259-0.449,0.703-0.761,1.214-0.852c0.109-0.019,0.219-0.028,0.328-0.027c0.401,0.005,0.793,0.147,1.106,0.409
			l5.82,4.865l3.085-3.691l-7.346-6.14l-15.768,18.866c-0.299,0.357-0.727,0.581-1.191,0.623c-0.059,0.005-0.118,0.008-0.177,0.007
			c-0.403-0.005-0.794-0.148-1.106-0.409l-9.79-8.184c-0.744-0.622-0.843-1.729-0.221-2.473l15.769-18.865l-13.944-11.656
			c-0.357-0.298-0.581-0.727-0.623-1.191c-0.041-0.464,0.103-0.925,0.402-1.282l4.242-5.075l-0.203-0.071
			c-0.823-0.286-1.312-1.133-1.148-1.989l2.616-13.669c0.1-0.521,0.43-0.969,0.898-1.219c0.264-0.141,0.556-0.21,0.847-0.207
			c0.226,0.003,0.452,0.049,0.665,0.139l3.722,1.577c7.51,3.183,14.716,4.836,21.418,4.914c4.855,0.057,9.587-0.714,14.062-2.29
			l2.135-0.753c0.198-0.07,0.402-0.102,0.604-0.1c0.503,0.006,0.991,0.228,1.327,0.629l7.128,8.523
			c0.211,0.252,0.347,0.558,0.392,0.884l0.129,0.926c0.255,1.826-0.187,3.514-1.245,4.767c1.174,9.443,5.08,19.114,11.619,28.761
			l2.125,3.135c0.287,0.423,0.375,0.95,0.242,1.443c-0.133,0.493-0.474,0.904-0.935,1.125l-12.131,5.83
			c-0.251,0.121-0.517,0.176-0.78,0.173c-0.576-0.007-1.134-0.298-1.462-0.813l-1.557-2.445c-0.353-0.554-0.699-1.109-1.038-1.667
			l-14.398,17.225C206.737,605.961,204.101,606.537,202.311,606.516z M212.432,556.581c-0.158-1.044-0.291-2.088-0.399-3.127
			c-0.96,0.145-1.931,0.265-2.91,0.361L212.432,556.581z" style="opacity: 1;"></path>
		<path class="st9" d="M337.258,658.035c-0.105-0.001-0.209-0.012-0.313-0.032l-12.526-2.427c-0.952-0.185-1.574-1.106-1.39-2.058
			l0.359-1.853l-6.954-1.347l-0.679,3.504c-0.164,0.846-0.91,1.432-1.742,1.422c-0.104-0.001-0.21-0.012-0.316-0.032l-12.526-2.427
			c-0.952-0.185-1.574-1.106-1.39-2.058l2.912-15.03l-0.117,0.104c-0.329,0.294-0.754,0.452-1.19,0.447
			c-0.065-0.001-0.131-0.005-0.196-0.013c-0.503-0.062-0.955-0.339-1.238-0.759l-2.094-3.099c-0.454-0.673-0.908-1.323-1.358-1.95
			l-3.939,20.329c-0.089,0.457-0.355,0.86-0.741,1.121c-0.298,0.201-0.648,0.305-1.003,0.301c-0.105-0.001-0.209-0.012-0.313-0.032
			l-12.527-2.427c-0.952-0.185-1.574-1.106-1.39-2.058l2.842-14.665c-1.31,0.931-2.655,1.812-4.027,2.637l-2.759,1.66
			c-0.289,0.174-0.609,0.255-0.924,0.252c-0.58-0.007-1.145-0.301-1.473-0.83l-7.12-11.469c-0.252-0.406-0.328-0.898-0.209-1.362
			c0.119-0.463,0.421-0.858,0.838-1.094l2.965-1.674c5.516-3.114,10.186-6.851,13.917-11.131l-9.51-1.842
			c-0.952-0.185-1.574-1.106-1.39-2.058l2.255-11.641c0.089-0.457,0.355-0.86,0.741-1.121c0.298-0.201,0.648-0.305,1.003-0.301
			c0.105,0.001,0.209,0.012,0.313,0.032l1.252,0.243l-2.759-10.076c-0.153-0.559-0.02-1.158,0.355-1.6
			c0.34-0.4,0.839-0.626,1.359-0.62c0.054,0.001,0.107,0.004,0.161,0.009l4.748,0.494c4.405,0.458,8.693,0.713,12.743,0.761
			c5.257,0.061,10.288-0.226,14.951-0.855l2.356-0.318c0.086-0.011,0.171-0.016,0.256-0.016c0.661,0.008,1.271,0.389,1.563,0.998
			l4.082,8.534c0.109,0.228,0.168,0.478,0.172,0.73l33.323,6.457c0.952,0.185,1.574,1.106,1.39,2.058l-10.998,56.762
			c-0.089,0.457-0.355,0.86-0.741,1.121C337.963,657.935,337.613,658.039,337.258,658.035z M326.31,636.577l5.127-26.457
			l-6.953-1.347l-5.126,26.457L326.31,636.577z M304.425,614.592c0.698,0.615,1.363,1.238,1.994,1.868l0.277-1.428L304.425,614.592z
			 M309.619,599.945l0.342-1.763c-0.155,0.012-0.311,0.016-0.467,0.014c-0.851-0.01-1.704-0.21-2.541-0.595l-4.13,0.183
			l-0.158,0.813L309.619,599.945z" style="opacity: 1;"></path>
		<path class="st9" d="M402.108,647.554c-3.491-0.041-6.776-0.933-9.765-2.651c-4.659-2.668-7.558-6.512-8.614-11.423l-1.159-5.384
			c-0.204-0.948,0.399-1.882,1.347-2.086l11.678-2.513l-1.955-9.085l-10.461,2.251c-0.129,0.028-0.26,0.04-0.39,0.039
			c-0.328-0.004-0.652-0.1-0.932-0.281c-0.391-0.253-0.666-0.651-0.764-1.106l-0.687-3.193c-1.212-5.632-0.146-10.811,3.167-15.392
			c2.867-3.965,6.901-6.53,11.988-7.625c1.981-0.426,3.906-0.631,5.723-0.61c3.39,0.04,6.502,0.858,9.25,2.431
			c4.184,2.4,6.859,6.196,7.953,11.283c0.906,4.209,0.573,7.905-0.987,11.014c3.594,2.415,5.919,5.988,6.921,10.641
			c1.173,5.451,0.17,10.423-2.979,14.779c-3.03,4.19-7.76,7.001-14.06,8.357C405.586,647.388,403.811,647.574,402.108,647.554
			L402.108,647.554z M400.49,629.588c0.213,0.99,0.669,1.59,1.627,2.139c0.391,0.225,0.787,0.336,1.212,0.341
			c0.249,0.003,0.524-0.028,0.818-0.091c1.839-0.395,2.52-1.063,2.909-1.601c0.409-0.566,0.455-1.828,0.122-3.375
			c-0.312-1.447-0.823-1.916-1.329-2.207c-0.599-0.342-1.177-0.521-1.713-0.527c-0.216-0.003-0.444,0.022-0.676,0.072l-3.919,0.844
			L400.49,629.588z M399.701,603.744c-0.28-0.003-0.605,0.034-0.965,0.112c-0.625,0.134-1.016,0.405-1.445,0.999
			c-0.179,0.248-0.73,1.268-0.312,4.014l0.253,1.663l2.505-0.539c0.256-0.055,0.856-0.184,1.691-1.339
			c0.179-0.247,0.653-0.903,0.239-2.826c-0.245-1.14-0.685-1.598-1.27-1.935C400.233,603.8,399.991,603.747,399.701,603.744z" style="opacity: 1;"></path>
		<path class="st9" d="M468.063,617.124c-0.094-0.001-0.188-0.01-0.281-0.026c-0.459-0.08-0.867-0.339-1.135-0.72l-6.819-9.699
			c-0.558-0.793-0.367-1.888,0.426-2.446l10.026-7.05l-2.554-3.633c-0.251,0.812-0.518,1.617-0.802,2.413l-0.995,2.791
			c-0.256,0.719-0.939,1.175-1.674,1.166c-0.135-0.002-0.271-0.019-0.407-0.053l-12.952-3.242c-0.49-0.123-0.904-0.451-1.135-0.9
			c-0.231-0.45-0.257-0.977-0.072-1.447l1.365-3.462c3.272-8.298,3.326-17.219,0.16-26.514l-0.998-2.928
			c-0.301-0.883,0.141-1.848,1.007-2.196l10.478-4.213c0.215-0.086,0.445-0.129,0.676-0.127c0.065,0.001,0.129,0.005,0.194,0.013
			l0.836,0.103c3.229,0.4,4.464,2.523,4.878,3.55l31.437-22.103c0.313-0.22,0.673-0.323,1.029-0.319
			c0.545,0.006,1.08,0.266,1.417,0.746l6.82,9.698c0.268,0.381,0.373,0.853,0.294,1.311c-0.08,0.459-0.339,0.867-0.72,1.135
			l-2.296,1.614c0.443,0.077,0.856,0.323,1.134,0.72l6.819,9.699c0.558,0.793,0.367,1.888-0.427,2.446l-13.847,9.735l1.477,2.101
			l19.961-14.034c0.303-0.213,0.664-0.323,1.03-0.319c0.094,0.001,0.188,0.01,0.281,0.026c0.459,0.08,0.867,0.339,1.135,0.72
			l6.819,9.699c0.558,0.793,0.367,1.888-0.426,2.446l-19.961,14.034l8.661,12.319c0.558,0.793,0.367,1.888-0.426,2.446
			l-10.438,7.339c-0.303,0.213-0.664,0.324-1.03,0.319c-0.094-0.001-0.188-0.01-0.281-0.026c-0.459-0.08-0.867-0.339-1.135-0.72
			l-8.661-12.319l-27.858,19.587C468.791,617.018,468.429,617.128,468.063,617.124z M483.592,587.824l4.521-3.179l-1.477-2.101
			l-4.521,3.179L483.592,587.824z" style="opacity: 1;"></path>
		<g>
			<g>
				<path class="st10" d="M173.977,552.746l15.291,12.781l-16.895,20.212l6.018,5.031l16.895-20.213l13.812,11.545l-8.289,9.917
					c-0.095,0.114-0.167,0.156-0.19,0.156c-0.042,0-0.163-0.042-0.347-0.196l-6.472-5.41l-3.517,6.105l8.166,6.826
					c1.089,0.91,2.174,1.377,3.225,1.39c1.276,0.015,2.465-0.626,3.535-1.906l14.357-17.177l-41.139-34.386L173.977,552.746z" style="opacity: 1;"></path>
				<path class="st11" d="M202.376,600.898c-0.719-0.008-1.507-0.366-2.341-1.063l-7.261-6.07l2.093-3.634l5.188,4.337
					c0.41,0.342,0.824,0.518,1.231,0.523c0.332,0.004,0.824-0.108,1.285-0.661l9.188-10.993l-15.968-13.347L178.9,590.204
					l-3.863-3.229l16.895-20.212l-15.291-12.781l2.649-3.169l38.983,32.584l-13.456,16.099
					C204.02,600.449,203.222,600.908,202.376,600.898z" style="opacity: 1;"></path>
				<path class="st10" d="M222.297,546.594c0.095,0.017,0.187,0.026,0.276,0.027c0.379,0.004,0.716-0.139,0.95-0.405
					c0.298-0.339,0.398-0.824,0.306-1.483l-0.032-0.229l-5.582-6.674l-0.528,0.186c-4.943,1.74-10.161,2.591-15.511,2.529
					c-7.253-0.085-14.996-1.851-23.013-5.248l-0.92-0.39l-1.645,8.595l0.659,0.229c5.775,2.009,11.345,3.381,16.646,4.113
					l-3.418,4.089l25.37,21.206l3.806-4.554c1.953,5.109,4.546,10.21,7.773,15.279l0.385,0.605l7.595-3.65l-0.526-0.775
					C227.311,568.867,223.08,557.62,222.297,546.594z M196.82,548.184c1.742,0.165,3.454,0.262,5.13,0.282
					c4.626,0.054,9.091-0.447,13.29-1.49c0.166,6.549,1.414,13.138,3.725,19.718L196.82,548.184z" style="opacity: 1;"></path>
				<path class="st11" d="M229.021,584.075c-3.028-4.815-5.504-9.717-7.363-14.578l-0.37-0.969l-0.312-0.887
					c-2.257-6.428-3.484-12.918-3.646-19.289l-0.044-1.75l-1.698,0.422c-4.081,1.014-8.433,1.501-12.935,1.449
					c-1.597-0.019-3.284-0.111-5.013-0.276l-1.425-0.135l-1.434-0.198c-5.063-0.699-10.407-2.004-15.889-3.88l1.09-5.697
					c7.945,3.283,15.634,4.99,22.864,5.074c5.374,0.063,10.62-0.769,15.602-2.473l4.693,5.612c0.003,0.042,0.003,0.078,0.003,0.107
					l-1.688-0.3l0.127,1.798c0.787,11.084,4.973,22.374,12.443,33.564L229.021,584.075z M193.148,553.169l2.649-3.169l23.215,19.404
					l-2.649,3.17L193.148,553.169z" style="opacity: 1;"></path>
				<path class="st10" d="M307.003,623.263c-2.571-4.087-6.655-7.949-12.143-11.484l0.861-4.445l13.757,2.665l1.32-6.813
					l-13.757-2.666l1.591-8.212l8.67-0.383c0.599,0.433,1.098,0.639,1.554,0.645c0.336,0.004,1.437-0.122,1.502-1.905l0.007-0.199
					l-3.049-6.373l-0.583,0.079c-4.865,0.656-10.101,0.956-15.564,0.893c-4.181-0.049-8.599-0.312-13.13-0.783l-1.174-0.122
					l1.94,7.084l0.534,0.069c2.708,0.349,6.513,0.649,11.322,0.894l-1.322,6.822l-14.368-2.784l-1.32,6.814l13.701,2.654
					c-4.538,7.068-11.008,13.005-19.25,17.659l-0.733,0.414l4.49,7.232l0.682-0.41c4.7-2.826,8.951-6.273,12.67-10.27l-4.708,24.298
					l7.7,1.492l5.152-26.592c2.33,2.29,4.782,5.334,7.305,9.068l0.518,0.766l6.186-5.529L307.003,623.263z" style="opacity: 1;"></path>
				<path class="st11" d="M282.837,644.936l5.374-27.733l-3.34,3.59c-3.493,3.754-7.482,7.021-11.863,9.717l-2.987-4.812
					c8.182-4.718,14.639-10.709,19.201-17.814l1.12-1.744l-14.356-2.781l0.786-4.056l14.368,2.784l1.897-9.789l-1.615-0.082
					c-4.541-0.231-8.178-0.511-10.82-0.835l-1.151-4.202c4.271,0.42,8.436,0.657,12.391,0.703c5.37,0.063,10.527-0.223,15.337-0.848
					l2.455,5.132c-0.022,0.241-0.07,0.362-0.096,0.41c-0.073-0.008-0.292-0.062-0.725-0.376l-0.397-0.287l-10.266,0.454
					l-2.069,10.678l13.757,2.666l-0.786,4.055l-13.757-2.665l-1.309,6.758l0.799,0.515c5.122,3.299,8.968,6.873,11.442,10.628
					l-4.099,3.664c-2.438-3.551-4.825-6.482-7.1-8.719l-1.866-1.834l-5.383,27.781L282.837,644.936z" style="opacity: 1;"></path>
				<path class="st10" d="M303.699,647.702l7.7,1.492l1.013-5.227l15.228,2.95l-0.693,3.577l7.7,1.492l10.062-51.935l-30.628-5.934
					L303.699,647.702z M335.689,605.372l-6.73,34.731l-15.228-2.95l6.73-34.731L335.689,605.372z" style="opacity: 1;"></path>
				<path class="st11" d="M329.279,650.794l0.693-3.577l-17.986-3.484l-1.013,5.227l-4.942-0.958l9.848-50.828l27.87,5.4
					l-9.528,49.177L329.279,650.794z M312.772,639.677l17.986,3.485l7.264-37.489l-17.986-3.485L312.772,639.677z" style="opacity: 1;"></path>
				<path class="st10" d="M413.687,614.826c-1.103-0.63-2.302-1.093-3.583-1.384c0.792-0.592,1.516-1.341,2.167-2.241
					c1.769-2.446,2.243-5.648,1.411-9.517c-0.832-3.869-2.827-6.733-5.928-8.513c-2.117-1.212-4.541-1.843-7.205-1.874
					c-1.503-0.018-3.114,0.156-4.787,0.516c-4.039,0.869-7.221,2.879-9.46,5.974c-2.583,3.572-3.411,7.622-2.461,12.037l0.17,0.79
					l8.23-1.771l-0.115-0.751c-0.472-3.095-0.114-5.49,1.063-7.118c1.034-1.43,2.334-2.297,3.973-2.65
					c0.668-0.144,1.308-0.213,1.902-0.206c1.022,0.012,1.947,0.252,2.75,0.712c1.747,1.006,2.823,2.543,3.287,4.7
					c0.544,2.529,0.235,4.551-0.944,6.182c-1.199,1.659-2.579,2.636-4.219,2.989l-2.616,0.563l1.342,6.237l3.225-0.694
					c0.539-0.116,1.082-0.172,1.612-0.166c1.261,0.015,2.529,0.381,3.766,1.089c1.747,1.006,2.842,2.633,3.346,4.973
					c0.615,2.858,0.336,5.122-0.827,6.731c-1.199,1.659-2.978,2.722-5.437,3.251c-0.601,0.129-1.191,0.192-1.755,0.185
					c-1.15-0.013-2.247-0.316-3.261-0.9c-1.991-1.143-3.184-2.748-3.649-4.908l-0.582-2.708l-8.581,1.847l0.641,2.981
					c0.794,3.692,3.013,6.604,6.594,8.655c2.357,1.355,4.953,2.058,7.714,2.091c0,0,0.001,0,0.001,0
					c1.39,0.016,2.85-0.138,4.338-0.458c5.251-1.13,9.13-3.386,11.532-6.707c2.42-3.347,3.185-7.191,2.275-11.423
					C418.783,619.47,416.789,616.607,413.687,614.826z" style="opacity: 1;"></path>
				<path class="st11" d="M402.174,641.936c-2.519-0.03-4.885-0.67-7.031-1.904c-3.223-1.846-5.214-4.447-5.921-7.733l-0.346-1.608
					l5.834-1.255l0.287,1.334c0.546,2.536,2,4.497,4.323,5.831c1.223,0.704,2.551,1.07,3.944,1.086
					c0.668,0.008,1.364-0.065,2.067-0.217c2.813-0.605,4.867-1.848,6.279-3.801c1.407-1.945,1.764-4.585,1.062-7.849
					c-0.585-2.713-1.937-4.697-4.019-5.895c-1.451-0.83-2.947-1.258-4.45-1.276c-0.635-0.007-1.283,0.059-1.925,0.197l-1.851,0.398
					l-0.751-3.491l1.243-0.267c1.994-0.429,3.65-1.586,5.062-3.539c1.426-1.972,1.812-4.36,1.179-7.301
					c-0.545-2.531-1.877-4.422-3.959-5.621c-1.015-0.582-2.17-0.884-3.434-0.899c-0.698-0.008-1.443,0.072-2.214,0.238
					c-1.966,0.423-3.587,1.499-4.816,3.2c-1.325,1.832-1.792,4.385-1.391,7.595l-5.561,1.197c-0.67-3.782,0.116-7.256,2.341-10.333
					c2.029-2.805,4.928-4.63,8.617-5.424c1.571-0.338,3.077-0.501,4.475-0.484c2.422,0.028,4.616,0.597,6.523,1.689
					c2.74,1.572,4.508,4.125,5.253,7.589c0.745,3.463,0.35,6.289-1.176,8.399c-0.565,0.781-1.194,1.434-1.87,1.94l-2.433,1.82
					l2.963,0.674c1.144,0.26,2.22,0.676,3.198,1.234c2.739,1.572,4.507,4.126,5.252,7.589c0.823,3.827,0.137,7.294-2.04,10.305
					c-2.191,3.03-5.788,5.102-10.689,6.156C404.813,641.807,403.458,641.951,402.174,641.936L402.174,641.936z" style="opacity: 1;"></path>
				<path class="st10" d="M525.102,570.378l-3.992-5.677l-21.397,15.044l-6.325-8.995l15.284-10.745l-3.991-5.677l-15.284,10.745
					l-4.551-6.473l18.595-13.075l-3.992-5.677l-35.561,25.002l-0.861-4.368c0.464-0.486,0.887-1.117,0.675-1.785
					c-0.173-0.545-0.676-0.873-1.494-0.974l-0.207-0.025l-7.729,3.107l0.247,0.724c3.497,10.267,3.42,20.165-0.228,29.418
					l-0.338,0.856l8.071,2.02l0.246-0.69c2.365-6.633,3.431-13.658,3.17-20.89l12.989-9.133l4.551,6.473l-17.831,12.538
					l10.316,14.672l-11.463,8.06l3.991,5.677l29.294-20.597l9.671,13.755l6.416-4.511l-9.671-13.755L525.102,570.378z
					 M481.882,592.283l-6.325-8.995l11.415-8.026l6.325,8.995L481.882,592.283z" style="opacity: 1;"></path>
				<path class="st11" d="M466.647,606.607l11.463-8.06l-10.316-14.672l17.831-12.537l-6.167-8.771l-14.762,10.379l0.027,0.761
					c0.248,6.867-0.731,13.545-2.911,19.857l-5.285-1.323c3.471-9.227,3.533-19.049,0.186-29.215l6.152-2.473
					c0.044,0.008,0.081,0.017,0.112,0.026c-0.049,0.079-0.134,0.194-0.279,0.346l-0.503,0.527l1.42,7.204l36.18-25.437l2.376,3.378
					l-18.595,13.075l6.167,8.771l15.284-10.745l2.376,3.379l-15.284,10.745l7.941,11.293l21.397-15.044l2.376,3.379l-21.397,15.044
					l9.671,13.755l-4.118,2.895l-9.671-13.755l-29.294,20.597L466.647,606.607z M474.287,584.359l7.94,11.293l13.713-9.642
					L488,574.717L474.287,584.359z" style="opacity: 1;"></path>
			</g>
		</g>
	</g>
</g>
</svg>
