<!--?xml version="1.0" encoding="utf-8"?-->
<!-- Generator: Adobe Illustrator 25.2.3, SVG Export Plug-In . SVG Version: 6.00 Build 0)  -->
<svg version="1.1" id="_x33_" xmlns="http://www.w3.org/2000/svg" xmlns:xlink="http://www.w3.org/1999/xlink" x="0px" y="0px" viewBox="0 0 720 720" style="enable-background:new 0 0 720 720;" xml:space="preserve">
<style type="text/css">
	.st0{fill:#FAF7FF;}
	.st1{fill:#EBE9F1;}
	.st2{fill:#A5A3AB;}
	.st3{fill:#B7B4BC;}
	.st4{fill:#DBD9E1;}
	.st5{fill:#A09DA5;}
	.st6{fill:#7F7C84;}
	.st7{fill:#FFFCFF;}
	.st8{fill:#D7D4DC;}
	.st9{fill:#9B98A0;}
</style>
<g>
	<g>
		<path class="st0" d="M360.001,2.901c-197.221,0-357.1,159.879-357.1,357.1s159.879,357.1,357.1,357.1
			C557.221,717.1,717.1,557.221,717.1,360S557.221,2.901,360.001,2.901z M360.001,441.082c-44.78,0-81.081-36.301-81.081-81.081
			c0-44.779,36.301-81.081,81.081-81.081s81.08,36.302,81.08,81.081C441.081,404.781,404.78,441.082,360.001,441.082z" style="opacity: 1;"></path>
		<path class="st1" d="M362.226,13.635c-192.522,0-348.591,156.07-348.591,348.592c0,192.521,156.069,348.59,348.591,348.59
			c192.521,0,348.591-156.07,348.591-348.59C710.816,169.704,554.747,13.635,362.226,13.635z M362.226,441.374
			c-43.713,0-79.149-35.436-79.149-79.148c0-43.713,35.436-79.149,79.149-79.149c43.712,0,79.149,35.436,79.149,79.149
			C441.374,405.938,405.938,441.374,362.226,441.374z" style="opacity: 1;"></path>
		<path class="st2" d="M360.001,34.535C180.251,34.535,34.535,180.251,34.535,360s145.716,325.467,325.465,325.467
			S685.465,539.75,685.465,360S539.75,34.535,360.001,34.535z M360.001,439.743c-44.04,0-79.742-35.703-79.742-79.743
			s35.702-79.741,79.742-79.741S439.742,315.96,439.742,360S404.041,439.743,360.001,439.743z" style="opacity: 1;"></path>
		<path class="st3" d="M360.742,682.499c-43.438,0-85.575-8.506-125.241-25.283c-38.314-16.205-72.724-39.407-102.275-68.956
			c-29.55-29.551-52.751-63.962-68.956-102.276c-16.777-39.665-25.284-81.802-25.284-125.241s8.507-85.577,25.284-125.241
			c16.205-38.315,39.406-72.725,68.956-102.276c29.551-29.551,63.962-52.751,102.275-68.956
			c39.666-16.777,81.803-25.283,125.241-25.283c43.439,0,85.576,8.506,125.241,25.283c38.314,16.205,72.725,39.405,102.275,68.956
			s52.752,63.962,68.957,102.276c16.777,39.664,25.283,81.802,25.283,125.241s-8.506,85.575-25.283,125.241
			c-16.205,38.315-39.407,72.725-68.957,102.276c-29.55,29.55-63.962,52.751-102.275,68.956
			C446.318,673.993,404.181,682.499,360.742,682.499z M360.742,277.293c-46.014,0-83.45,37.435-83.45,83.45
			s37.435,83.45,83.45,83.45s83.45-37.435,83.45-83.45S406.756,277.293,360.742,277.293z" style="opacity: 1;"></path>
		<path class="st4" d="M361.592,42.493c-176.233,0-319.098,142.865-319.098,319.1c0,176.233,142.865,319.098,319.098,319.098
			S680.69,537.826,680.69,361.593C680.69,185.358,537.824,42.493,361.592,42.493z M361.592,439.774
			c-43.178,0-78.181-35.004-78.181-78.181c0-43.179,35.003-78.183,78.181-78.183c43.179,0,78.182,35.004,78.182,78.183
			C439.773,404.77,404.77,439.774,361.592,439.774z" style="opacity: 1;"></path>
		<path class="st5" d="M362.084,272.397c-50.683,0-91.77,41.087-91.77,91.77s41.087,91.77,91.77,91.77
			c50.683,0,91.769-41.087,91.769-91.77S412.767,272.397,362.084,272.397z M362.084,434.417c-38.798,0-70.25-31.452-70.25-70.25
			s31.452-70.248,70.25-70.248c38.797,0,70.249,31.45,70.249,70.248S400.881,434.417,362.084,434.417z" style="opacity: 1;"></path>
		<path class="st0" d="M360.001,270.6c-49.374,0-89.401,40.026-89.401,89.4c0,49.375,40.026,89.4,89.401,89.4s89.4-40.025,89.4-89.4
			C449.4,310.627,409.375,270.6,360.001,270.6z M360.001,430.25c-38.798,0-70.25-31.452-70.25-70.25s31.452-70.248,70.25-70.248
			c38.797,0,70.249,31.45,70.249,70.248S398.798,430.25,360.001,430.25z" style="opacity: 1;"></path>
		<path class="st1" d="M362.225,448.66c-47.25,0-85.691-38.442-85.691-85.693c0-47.25,38.441-85.691,85.691-85.691
			c47.251,0,85.692,38.442,85.692,85.691C447.917,410.218,409.476,448.66,362.225,448.66z M362.225,289.01
			c-40.781,0-73.957,33.178-73.957,73.957c0,40.781,33.177,73.958,73.957,73.958s73.958-33.178,73.958-73.958
			C436.183,322.188,403.006,289.01,362.225,289.01z" style="opacity: 1;"></path>
		<path class="st6" d="M219.274,539.302l0.237-0.249c0.734-0.83,1.541-2.297,1.229-4.571c-0.116-0.85-0.469-1.648-1.026-2.314
			l-5.654-6.732c-0.848-1.007-2.092-1.599-3.473-1.622c-0.546,0-1.079,0.094-1.571,0.276c-5.12,1.864-10.531,2.81-16.081,2.81
			l-0.62-0.005c-7.433-0.096-15.397-1.879-23.674-5.306c-0.541-0.222-1.108-0.338-1.74-0.344c-0.761,0-1.516,0.194-2.151,0.541
			c-1.215,0.651-2.06,1.8-2.32,3.152l-1.499,7.773c-0.338,1.761,0.416,3.51,1.809,4.53l-3.554,4.293
			c-0.767,0.925-1.141,2.141-1.029,3.328c0.111,1.197,0.706,2.322,1.63,3.086l13.54,11.211l-16.021,19.345
			c-0.77,0.934-1.132,2.113-1.021,3.328c0.115,1.204,0.689,2.294,1.63,3.08l5.329,4.413c0.794,0.655,1.799,1.026,2.898,1.044
			c1.369,0,2.652-0.606,3.513-1.651l16.015-19.338l9.766,8.086l-4.857,5.867l-3.952-3.272c-0.802-0.663-1.815-1.035-2.907-1.046
			c-0.26,0-0.522,0.023-0.809,0.073c-1.328,0.24-2.472,1.049-3.14,2.217l-3.024,5.278c-1.104,1.924-0.668,4.35,1.046,5.775
			l8.525,7.059c1.86,1.538,3.825,2.331,5.836,2.355h0.101c1.761,0,4.362-0.606,6.754-3.495l15.5-18.716
			c0.686-0.829,1.029-1.854,1.024-2.923c0.782,1.355,1.586,2.708,2.441,4.048c0.83,1.301,2.245,2.088,3.772,2.105h0.072
			c0.682,0,1.371-0.16,2.008-0.468l6.815-3.355c1.19-0.583,2.066-1.65,2.399-2.919c0.341-1.272,0.112-2.629-0.632-3.732
			C224.913,561.286,220.503,550.191,219.274,539.302z M204.113,542.066c0.214,2.474,0.559,4.956,1.034,7.442l-7.957-6.59
			C199.542,542.76,201.854,542.475,204.113,542.066z M176.69,542.332l-1.622-1.343c0.643,0.143,1.287,0.291,1.926,0.42
			C176.856,541.703,176.76,542.015,176.69,542.332z M209.822,569.769c0.587-0.253,1.125-0.612,1.566-1.094
			c0.623,1.352,1.297,2.699,1.995,4.043L209.822,569.769z" style="opacity: 1;"></path>
		<path class="st6" d="M339.98,590.769l-31.97-7.447c-0.343-0.084-0.696-0.125-1.061-0.125c-0.361,0-0.716,0.051-1.065,0.136
			c0.019-0.143,0.056-0.266,0.067-0.415c0.055-0.72-0.064-1.453-0.35-2.13l-2.752-6.469c-0.705-1.664-2.328-2.754-4.18-2.776
			l-0.341,0.011l-0.13,0.012c-3.452,0.349-7.106,0.527-10.86,0.527c-0.51,0-1.022-0.005-1.536-0.011
			c-5.841-0.074-12.097-0.575-18.68-1.501c-0.178-0.02-0.357-0.031-0.547-0.031c-1.274,0-2.498,0.538-3.354,1.472
			c-1.013,1.103-1.42,2.634-1.087,4.093l1.407,6.167c0.166,0.723,0.499,1.376,0.956,1.918l-0.069-0.017
			c-0.327-0.073-0.661-0.11-1.004-0.11c-0.849,0-1.678,0.237-2.408,0.689c-1.033,0.643-1.753,1.65-2.027,2.83l-1.362,5.846
			c-0.273,1.18-0.071,2.396,0.569,3.433c0.644,1.036,1.652,1.758,2.835,2.031l8.688,2.023c-4.634,5.375-10.505,9.944-17.51,13.621
			c-1.087,0.565-1.912,1.565-2.262,2.745c-0.346,1.17-0.203,2.452,0.396,3.52l3.761,6.706c0.794,1.419,2.298,2.31,3.977,2.328
			c0.778,0,1.548-0.201,2.223-0.581c2.3-1.289,4.522-2.706,6.654-4.245l-3.596,15.432c-0.277,1.187-0.074,2.41,0.569,3.444
			c0.644,1.035,1.651,1.754,2.832,2.028l6.715,1.566c0.317,0.074,0.647,0.118,0.997,0.122h0.059c0.848,0,1.678-0.235,2.408-0.688
			c1.034-0.644,1.754-1.653,2.027-2.832l5.001-21.469c0.9,1.292,1.811,2.689,2.729,4.187c0.692,1.139,1.846,1.915,3.21,2.135
			c0.224,0.033,0.445,0.05,0.682,0.05c0.778,0,1.538-0.206,2.207-0.578l-3.819,16.394c-0.274,1.182-0.071,2.403,0.571,3.433
			c0.634,1.019,1.668,1.76,2.833,2.029l6.715,1.565c0.342,0.082,0.692,0.122,1.058,0.122c2.123,0,3.945-1.445,4.431-3.52
			l0.328-1.404l9.674,2.252c-0.3,2.29,1.185,4.486,3.482,5.025l6.71,1.562c0.321,0.079,0.654,0.121,1.002,0.127h0.059
			c0.856,0,1.692-0.24,2.4-0.685c1.019-0.63,1.759-1.662,2.035-2.836l13.106-56.25c0.273-1.18,0.072-2.398-0.574-3.441
			C342.171,591.77,341.132,591.031,339.98,590.769z M292.12,587.646l5.66-0.056c0.923,0.508,1.858,0.762,2.856,0.776
			c0.52,0,1.043-0.094,1.551-0.251l-1.074,4.615l-9.653-2.248L292.12,587.646z M289.995,605.65l7.691,1.792l-1.091,4.677
			C294.735,609.897,292.54,607.735,289.995,605.65z M317.995,634.575l-9.653-2.249l7.385-31.698l9.652,2.249L317.995,634.575z" style="opacity: 1;"></path>
		<path class="st6" d="M432.158,607.162c1.912-3.5,2.272-7.726,1.068-12.58c-1.309-5.283-4.32-9.335-8.715-11.718
			c-2.774-1.496-5.87-2.277-9.206-2.321l-0.287-0.002c-2.068,0-4.257,0.282-6.505,0.84c-5.368,1.331-9.556,4.204-12.448,8.54
			c-3.324,4.99-4.259,10.543-2.779,16.508c0.498,2.015,2.294,3.438,4.424,3.461c0.366,0,0.73-0.043,1.094-0.133l7.384-1.831
			c2.335-0.578,3.822-2.885,3.383-5.25c-0.451-2.434-0.324-4.336,0.358-5.357c0.587-0.881,1.229-1.354,2.151-1.583
			c0.488-0.121,0.938-0.183,1.383-0.183h0.002c0.457,0.005,0.838,0.094,1.164,0.273c1.074,0.584,1.683,1.439,2.036,2.857
			c0.587,2.373,0.106,3.472-0.308,4.09c-0.985,1.479-1.845,1.834-2.403,1.974l-2.012,0.497c-1.181,0.291-2.178,1.024-2.816,2.077
			c-0.625,1.044-0.807,2.268-0.514,3.439l1.291,5.21c0.499,2.006,2.29,3.427,4.42,3.456c0.343,0,0.69-0.04,1.094-0.132l2.691-0.666
			c0.347-0.087,0.692-0.13,1.072-0.13h0.005c0.728,0.009,1.503,0.232,2.298,0.663c0.713,0.387,1.598,1.098,2.111,3.168
			c0.369,1.486,0.64,3.506-0.157,4.702c-0.471,0.706-1.372,1.715-3.749,2.304c-0.414,0.102-0.809,0.153-1.232,0.153h-0.005
			c-0.601-0.006-1.167-0.158-1.733-0.465c-1.359-0.737-2.089-1.661-2.442-3.084l-0.531-2.138c-0.496-2.011-2.288-3.434-4.422-3.464
			c-0.345,0-0.695,0.04-1.095,0.132l-7.715,1.915c-1.18,0.291-2.178,1.024-2.816,2.079c-0.625,1.043-0.807,2.266-0.514,3.438
			l0.607,2.451c1.263,5.09,4.533,9.189,9.453,11.851c3.04,1.65,6.339,2.508,9.803,2.553l0.283,0.002
			c1.942,0,3.958-0.257,5.992-0.761c6.705-1.661,11.659-4.832,14.724-9.428c3.108-4.663,4.005-10.13,2.596-15.815
			C439.357,613.561,436.428,609.561,432.158,607.162z" style="opacity: 1;"></path>
		<path class="st6" d="M566.302,544.94l-3.803-4.643c-0.769-0.936-1.856-1.518-3.122-1.647l-0.396-0.017
			c-1.049,0-2.073,0.364-2.889,1.032l-18.947,15.528l-3.228-3.941l12.525-10.263c1.943-1.591,2.229-4.466,0.638-6.41l-3.806-4.646
			c-0.769-0.934-1.855-1.517-3.117-1.644l-0.398-0.017c-1.051,0-2.078,0.366-2.89,1.032l-12.526,10.266l-1.027-1.255l16.007-13.116
			c0.94-0.771,1.523-1.864,1.642-3.07c0.12-1.21-0.237-2.393-1.009-3.335l-3.801-4.64c-0.854-1.041-2.118-1.648-3.52-1.667
			c-1.051,0-2.076,0.367-2.888,1.032l-31.405,25.732c-0.067-0.434-0.181-0.806-0.297-1.095c-0.366-0.92-1.581-3.081-4.932-3.267
			l-0.257-0.009c-0.675,0-1.356,0.155-1.991,0.458l-7.358,3.58c-2.186,1.067-3.146,3.654-2.187,5.89
			c4.467,10.399,5.224,20.622,2.252,30.383c-0.38,1.244-0.211,2.593,0.467,3.704c0.675,1.106,1.795,1.874,3.078,2.108l7.368,1.331
			c0.263,0.046,0.521,0.067,0.788,0.067c2.053,0,3.861-1.385,4.398-3.372c0.423-1.572,0.785-3.162,1.087-4.76l5.265,6.426
			l-8.522,6.983c-0.94,0.775-1.522,1.867-1.637,3.056c-0.122,1.197,0.246,2.418,1.009,3.348l3.788,4.621
			c0.857,1.057,2.13,1.67,3.465,1.681h0.073c1.043,0,2.063-0.364,2.884-1.03l27.237-22.32l9.117,11.124
			c0.769,0.936,1.856,1.518,3.122,1.647l0.397,0.017c1.057,0,2.087-0.369,2.888-1.032l5.348-4.383
			c0.941-0.771,1.526-1.862,1.647-3.073c0.12-1.211-0.239-2.397-1.01-3.337l-9.114-11.121l18.946-15.527
			c0.941-0.77,1.527-1.862,1.647-3.073S567.072,545.878,566.302,544.94z M501.776,558.064c-0.038-0.658-0.087-1.318-0.145-1.978
			l9.289-7.612l1.029,1.255L501.776,558.064z M518.421,570.537l-3.228-3.941l6.33-5.186l3.228,3.939L518.421,570.537z" style="opacity: 1;"></path>
		<path class="st7" d="M167.126,537.883c-0.175-0.146-0.387-0.217-0.598-0.22c-0.28-0.003-0.559,0.115-0.752,0.349l-3.824,4.618
			c-0.162,0.195-0.24,0.448-0.216,0.7c0.024,0.253,0.147,0.486,0.343,0.649l16.309,13.504l-18.308,22.109
			c-0.163,0.197-0.24,0.448-0.216,0.702c0.023,0.253,0.147,0.486,0.342,0.649l5.327,4.41c0.175,0.146,0.387,0.217,0.599,0.22
			c0.28,0.003,0.558-0.116,0.751-0.349l18.308-22.106l15.304,12.672l-9.251,11.171l-0.178,0.163c-0.005-0.002-0.115-0.011-0.342-0.2
			l-6.393-5.293c-0.17-0.141-0.382-0.217-0.6-0.22l-0.183,0.015c-0.278,0.051-0.521,0.222-0.661,0.468l-3.025,5.279
			c-0.232,0.404-0.139,0.917,0.22,1.215l8.523,7.059c1.21,1.001,2.418,1.515,3.592,1.531c1.459,0.019,2.819-0.719,4.039-2.194
			l15.499-18.715c0.162-0.197,0.239-0.448,0.216-0.702c-0.024-0.253-0.147-0.486-0.343-0.649L167.126,537.883z" style="opacity: 1;"></path>
		<path class="st7" d="M215.466,535.928l0.238,0.019c0.443,0.005,0.838-0.163,1.112-0.474c0.347-0.392,0.465-0.95,0.361-1.704
			c-0.025-0.18-0.099-0.349-0.215-0.486l-5.654-6.731c-0.184-0.217-0.448-0.338-0.722-0.341l-0.34,0.057
			c-5.723,2.084-11.772,3.1-17.978,3.021c-7.894-0.099-16.305-1.977-25-5.575l-0.355-0.073c-0.161-0.002-0.321,0.036-0.467,0.115
			c-0.253,0.136-0.432,0.381-0.487,0.663l-1.498,7.772c-0.091,0.473,0.18,0.937,0.635,1.091c6.413,2.166,12.595,3.616,18.487,4.373
			l-3.192,3.854c-0.162,0.195-0.239,0.446-0.216,0.7c0.024,0.254,0.147,0.486,0.343,0.649l26.903,22.28
			c0.17,0.139,0.381,0.215,0.6,0.218l0.101-0.003c0.253-0.025,0.486-0.149,0.649-0.344l3.627-4.382
			c2.166,5.67,5.029,11.321,8.605,16.927c0.179,0.28,0.483,0.438,0.797,0.443c0.146,0.002,0.295-0.031,0.435-0.099l6.826-3.362
			c0.249-0.121,0.433-0.345,0.503-0.615c0.071-0.268,0.022-0.553-0.133-0.784C221.015,560.745,216.321,548.235,215.466,535.928z
			 M187.088,538.023c1.613,0.132,3.209,0.226,4.771,0.246c5.442,0.07,10.686-0.541,15.607-1.814
			c0.178,7.259,1.549,14.549,4.073,21.816L187.088,538.023z" style="opacity: 1;"></path>
		<path class="st7" d="M339.164,593.072l-31.998-7.454l-0.205-0.025c-0.182-0.002-0.362,0.046-0.518,0.144
			c-0.216,0.135-0.37,0.35-0.428,0.596l-13.532,58.089c-0.058,0.248-0.015,0.508,0.119,0.723c0.134,0.217,0.349,0.37,0.597,0.428
			l6.736,1.569l0.206,0.025c0.44,0.006,0.84-0.294,0.944-0.74l1.143-4.906l16.657,3.879l-0.713,3.063
			c-0.12,0.516,0.2,1.032,0.716,1.151l6.736,1.571l0.206,0.025c0.182,0.002,0.362-0.046,0.518-0.146
			c0.216-0.133,0.37-0.349,0.428-0.595l13.104-56.246c0.057-0.248,0.015-0.508-0.119-0.723
			C339.627,593.283,339.412,593.13,339.164,593.072z M304.025,633.814l9.016-38.702l16.657,3.879l-9.017,38.703L304.025,633.814z" style="opacity: 1;"></path>
		<path class="st7" d="M297.161,617.948c-2.67-4.694-7.027-9.194-12.955-13.383l1.139-4.891l14.223,3.315l0.206,0.025
			c0.182,0.003,0.362-0.046,0.519-0.144c0.215-0.135,0.369-0.349,0.427-0.596l1.36-5.842c0.12-0.514-0.201-1.03-0.716-1.151
			l-14.223-3.312l2.118-9.09l9.574-0.093c0.674,0.527,1.245,0.779,1.778,0.785c0.477,0.006,1.605-0.189,1.754-2.127
			c0.012-0.153-0.014-0.307-0.074-0.448l-2.753-6.474c-0.15-0.353-0.493-0.579-0.87-0.584l-0.109,0.005
			c-4.07,0.412-8.377,0.59-12.803,0.534c-5.994-0.076-12.402-0.589-19.049-1.523l-0.122-0.009c-0.27-0.003-0.532,0.108-0.718,0.31
			c-0.213,0.232-0.299,0.556-0.229,0.861l1.405,6.159c0.088,0.381,0.394,0.669,0.778,0.734c2.981,0.494,7.17,0.978,12.466,1.439
			l-1.75,7.515l-14.897-3.472l-0.204-0.025c-0.182-0.002-0.362,0.047-0.519,0.146c-0.216,0.133-0.369,0.349-0.427,0.595l-1.361,5.84
			c-0.057,0.248-0.015,0.51,0.12,0.725c0.134,0.215,0.349,0.37,0.596,0.426l14.14,3.295c-5.352,7.743-12.786,14.143-22.118,19.042
			c-0.229,0.119-0.4,0.327-0.474,0.575c-0.073,0.249-0.043,0.516,0.084,0.742l3.763,6.709c0.174,0.31,0.493,0.485,0.826,0.488
			c0.162,0.003,0.328-0.036,0.479-0.122c5.287-2.962,10.114-6.622,14.387-10.907l-6.069,26.052c-0.12,0.516,0.201,1.032,0.716,1.151
			l6.736,1.571l0.206,0.025c0.182,0.002,0.362-0.047,0.518-0.144c0.216-0.135,0.37-0.349,0.428-0.596l6.69-28.718
			c2.455,2.651,5.011,6.135,7.614,10.384c0.146,0.239,0.389,0.4,0.665,0.445l0.141,0.012c0.228,0.003,0.452-0.074,0.629-0.225
			l5.739-4.821C297.299,618.859,297.39,618.351,297.161,617.948z" style="opacity: 1;"></path>
		<path class="st7" d="M430.22,609.001c-1.226-0.661-2.548-1.14-3.953-1.43c0.831-0.685,1.586-1.534,2.258-2.539
			c1.879-2.821,2.286-6.449,1.211-10.783c-1.075-4.339-3.407-7.507-6.933-9.42c-2.255-1.218-4.792-1.853-7.543-1.888
			c-1.843-0.023-3.822,0.223-5.88,0.733c-4.472,1.111-7.944,3.479-10.321,7.044c-2.74,4.111-3.509,8.705-2.282,13.651
			c0.108,0.434,0.493,0.723,0.918,0.728l0.244-0.026l7.385-1.833c0.492-0.122,0.804-0.606,0.712-1.105
			c-0.641-3.456-0.338-6.15,0.902-8.006c1.083-1.627,2.48-2.634,4.272-3.077c0.813-0.203,1.588-0.3,2.304-0.291
			c1.037,0.014,1.991,0.251,2.833,0.708c1.968,1.07,3.214,2.756,3.809,5.154c0.698,2.816,0.434,5.09-0.806,6.949
			c-1.26,1.89-2.743,3.022-4.531,3.467l-2.015,0.499c-0.246,0.06-0.459,0.217-0.591,0.435c-0.131,0.218-0.17,0.479-0.109,0.727
			l1.292,5.207c0.107,0.432,0.492,0.722,0.918,0.727l0.242-0.026l2.686-0.665c0.663-0.166,1.333-0.245,1.991-0.235
			c1.316,0.016,2.652,0.386,3.97,1.098c1.968,1.07,3.238,2.857,3.884,5.461c0.789,3.183,0.569,5.729-0.655,7.561
			c-1.259,1.888-3.18,3.132-5.874,3.798c-0.735,0.183-1.457,0.271-2.146,0.262c-1.185-0.014-2.331-0.319-3.404-0.902
			c-2.243-1.216-3.623-2.976-4.218-5.379l-0.531-2.144c-0.107-0.432-0.493-0.722-0.918-0.728l-0.243,0.028l-7.721,1.913
			c-0.247,0.062-0.459,0.22-0.59,0.437c-0.132,0.218-0.171,0.479-0.11,0.725l0.607,2.451c1.026,4.139,3.61,7.355,7.679,9.555
			c2.521,1.369,5.258,2.081,8.134,2.118c1.721,0.022,3.527-0.198,5.365-0.654c5.808-1.438,10.045-4.107,12.597-7.932
			c2.568-3.853,3.273-8.212,2.098-12.955C436.078,614.08,433.746,610.912,430.22,609.001z" style="opacity: 1;"></path>
		<path class="st7" d="M563.52,546.019l-3.801-4.638c-0.161-0.197-0.393-0.321-0.647-0.347l-0.082-0.005
			c-0.225-0.003-0.445,0.073-0.62,0.217l-21.728,17.807l-7.785-9.501l15.308-12.543c0.41-0.336,0.469-0.94,0.134-1.351l-3.8-4.638
			c-0.161-0.197-0.394-0.321-0.647-0.347l-0.083-0.005c-0.225-0.003-0.445,0.073-0.62,0.217l-15.308,12.546l-5.585-6.818
			l18.785-15.394c0.197-0.161,0.321-0.393,0.346-0.648c0.026-0.253-0.051-0.505-0.212-0.702l-3.8-4.637
			c-0.187-0.228-0.457-0.347-0.73-0.35c-0.218-0.003-0.437,0.068-0.619,0.217l-36.583,29.974l-1.324-4.72
			c0.474-0.584,0.88-1.326,0.585-2.068c-0.245-0.615-0.848-0.956-1.792-1.008l-0.043-0.002c-0.149-0.003-0.297,0.031-0.431,0.096
			l-7.352,3.577c-0.46,0.223-0.664,0.77-0.461,1.241c4.811,11.2,5.613,22.253,2.386,32.852c-0.08,0.262-0.043,0.547,0.099,0.779
			c0.143,0.234,0.379,0.395,0.648,0.445l7.345,1.325l0.159,0.016c0.431,0.006,0.823-0.282,0.938-0.711
			c2.036-7.583,2.594-15.51,1.658-23.567l13.563-11.115l5.586,6.816l-17.983,14.737c-0.197,0.161-0.321,0.393-0.347,0.648
			c-0.025,0.253,0.051,0.505,0.213,0.7l12.194,14.881l-11.295,9.256c-0.197,0.163-0.321,0.395-0.346,0.648
			c-0.026,0.253,0.051,0.505,0.212,0.702l3.801,4.637c0.187,0.229,0.457,0.349,0.73,0.352c0.218,0.003,0.438-0.068,0.62-0.217
			l30.02-24.599l11.394,13.902c0.161,0.197,0.393,0.321,0.647,0.345l0.083,0.005c0.225,0.003,0.445-0.071,0.62-0.215l5.35-4.386
			c0.409-0.335,0.469-0.939,0.134-1.349l-11.395-13.902l21.729-17.806C563.796,547.032,563.856,546.428,563.52,546.019z
			 M517.919,574.398l-7.786-9.501l11.891-9.746l7.786,9.501L517.919,574.398z" style="opacity: 1;"></path>
		<path class="st8" d="M192.959,596.978c-0.826-0.011-1.723-0.412-2.664-1.191l-8.182-6.774l2.496-4.358l5.912,4.895
			c0.343,0.287,0.679,0.457,1.026,0.517l0.263,0.023c0.27,0,0.534-0.073,0.764-0.212c0.2-0.118,0.383-0.277,0.556-0.488
			l9.251-11.171c0.251-0.302,0.372-0.692,0.335-1.084c-0.037-0.392-0.228-0.753-0.531-1.004l-15.304-12.672
			c-0.277-0.229-0.613-0.341-0.946-0.341c-0.427,0-0.85,0.183-1.143,0.538l-17.974,21.703l-4.518-3.741l17.974-21.706
			c0.251-0.302,0.371-0.692,0.334-1.084c-0.036-0.392-0.228-0.753-0.531-1.004l-15.906-13.169l3.156-3.811l43.674,36.166
			l-15.164,18.312c-0.909,1.098-1.866,1.656-2.842,1.656H192.959z" style="opacity: 1;"></path>
		<path class="st8" d="M222.744,577.841c-3.369-5.337-6.134-10.805-8.219-16.261c-0.179-0.468-0.582-0.813-1.069-0.92
			c0.299-0.387,0.393-0.909,0.226-1.391c-2.475-7.131-3.819-14.319-3.991-21.367c-0.012-0.452-0.229-0.875-0.589-1.148
			c-0.26-0.197-0.575-0.299-0.894-0.299l-0.371,0.046c-4.549,1.177-9.395,1.772-14.405,1.772c-0.27,0-0.542-0.002-0.814-0.005
			c-1.376-0.019-2.903-0.098-4.668-0.242l-0.122-0.005c-0.599,0-1.144,0.361-1.373,0.923c-0.245,0.6-0.072,1.289,0.427,1.703
			l24.451,20.249c0.187,0.155,0.403,0.259,0.629,0.307l-3.26,3.938l-26.094-21.609l2.858-3.45c0.345-0.417,0.435-0.987,0.237-1.49
			c-0.198-0.503-0.655-0.858-1.191-0.926c-5.698-0.733-11.673-2.132-17.768-4.163l1.29-6.692c8.66,3.512,17.052,5.344,24.954,5.445
			c0.229,0.003,0.688,0.005,0.689,0.005c6.018,0,11.894-1.007,17.47-2.991l5.316,6.328c0.023,0.284-0.022,0.381-0.023,0.383
			l-0.05-0.042l-0.184-0.011c-0.376,0-0.742,0.144-1.019,0.406c-0.322,0.305-0.491,0.737-0.46,1.18
			c0.862,12.404,5.532,24.997,13.881,37.439L222.744,577.841z" style="opacity: 1;"></path>
		<path class="st8" d="M320.478,649.772l0.594-2.551c0.09-0.383,0.023-0.787-0.184-1.12c-0.208-0.335-0.541-0.572-0.923-0.661
			l-16.657-3.879l-0.338-0.039c-0.674,0-1.284,0.462-1.444,1.146l-1.023,4.395l-5.715-1.331l13.295-57.065l30.976,7.216
			l-12.866,55.222L320.478,649.772z M313.782,595.113c-0.674,0-1.283,0.462-1.443,1.146l-9.017,38.702
			c-0.186,0.798,0.31,1.596,1.108,1.781l16.657,3.881l0.336,0.039c0.275,0,0.547-0.076,0.784-0.225
			c0.334-0.208,0.572-0.539,0.661-0.922l9.017-38.703c0.089-0.383,0.022-0.785-0.185-1.12c-0.208-0.335-0.54-0.572-0.923-0.661
			l-16.657-3.879L313.782,595.113z" style="opacity: 1;"></path>
		<path class="st8" d="M269.169,641.382l5.951-25.54c0.15-0.646-0.146-1.312-0.725-1.634c-0.226-0.125-0.473-0.186-0.72-0.186
			c-0.385,0-0.765,0.149-1.05,0.435c-4.051,4.062-8.626,7.56-13.607,10.404l-3.242-5.78c9.317-4.974,16.774-11.451,22.171-19.259
			c0.279-0.404,0.34-0.92,0.163-1.379c-0.177-0.457-0.569-0.798-1.047-0.909l-13.628-3.176l1.122-4.818l14.386,3.352l0.338,0.039
			c0.674,0,1.284-0.463,1.443-1.148l1.751-7.513c0.098-0.418,0.009-0.86-0.243-1.207c-0.253-0.349-0.644-0.57-1.073-0.607
			c-5.052-0.44-9.088-0.9-12.004-1.369l-1.159-5.08c6.398,0.877,12.635,1.363,18.483,1.438c0.537,0.008,1.071,0.011,1.604,0.011
			c3.78,0,7.472-0.173,10.982-0.514l2.551,5.998c-0.05,0.432-0.163,0.603-0.193,0.626h-0.019c-0.126,0.002-0.388-0.053-0.913-0.463
			c-0.261-0.206-0.583-0.316-0.915-0.316l-9.589,0.093c-0.685,0.006-1.276,0.48-1.431,1.146l-2.117,9.09
			c-0.09,0.383-0.023,0.787,0.185,1.12c0.208,0.335,0.54,0.572,0.923,0.661l13.711,3.193l-1.122,4.819l-13.711-3.196l-0.337-0.039
			c-0.275,0-0.547,0.076-0.784,0.225c-0.334,0.208-0.572,0.539-0.661,0.922l-1.139,4.891c-0.137,0.589,0.095,1.201,0.588,1.549
			c5.588,3.947,9.724,8.159,12.302,12.528l-4.936,4.145c-2.541-4.093-5.052-7.487-7.471-10.099
			c-0.284-0.307-0.681-0.474-1.088-0.474l-0.38,0.048c-0.531,0.141-0.94,0.564-1.065,1.098l-6.571,28.206L269.169,641.382z" style="opacity: 1;"></path>
		<path class="st8" d="M417.854,639.958c-2.634-0.034-5.138-0.685-7.445-1.936c-3.688-1.997-6.025-4.892-6.946-8.61l-0.481-1.941
			l6.702-1.661l0.405,1.636c0.692,2.79,2.358,4.918,4.951,6.324c1.29,0.7,2.668,1.064,4.094,1.081l0.112,0.002
			c0.783,0,1.594-0.102,2.41-0.305c3.068-0.761,5.276-2.206,6.751-4.417c1.464-2.195,1.754-5.135,0.86-8.74
			c-0.751-3.032-2.261-5.128-4.615-6.409c-1.532-0.829-3.099-1.259-4.661-1.278l-0.115-0.002c-0.745,0-1.503,0.094-2.25,0.28
			l-2.177,0.539l-1.039-4.189l1.506-0.373c2.165-0.538,3.935-1.873,5.409-4.083c1.485-2.226,1.816-4.886,1.012-8.13
			c-0.691-2.785-2.218-4.836-4.539-6.099c-1.056-0.575-2.242-0.872-3.523-0.889h-0.115c-0.816,0-1.681,0.113-2.568,0.335
			c-2.133,0.53-3.867,1.772-5.147,3.693c-1.397,2.094-1.804,4.991-1.211,8.613l-6.393,1.585c-0.948-4.33-0.211-8.351,2.195-11.961
			c2.165-3.247,5.343-5.41,9.444-6.427c1.85-0.458,3.628-0.691,5.284-0.691l0.22,0.002c2.507,0.033,4.814,0.607,6.856,1.712
			c3.142,1.702,5.228,4.553,6.197,8.469c0.971,3.915,0.632,7.146-1.005,9.605c-0.589,0.88-1.251,1.628-1.967,2.217
			c-0.441,0.362-0.634,0.947-0.497,1.501c0.137,0.555,0.581,0.982,1.14,1.097c1.258,0.26,2.452,0.692,3.55,1.284
			c3.14,1.702,5.226,4.551,6.197,8.468c1.072,4.322,0.435,8.283-1.891,11.776c-2.339,3.506-6.282,5.967-11.719,7.313
			c-1.639,0.406-3.246,0.612-4.776,0.612L417.854,639.958z" style="opacity: 1;"></path>
		<path class="st8" d="M501.878,591.551l10.89-8.924c0.304-0.248,0.497-0.609,0.536-1.001c0.039-0.39-0.079-0.782-0.328-1.086
			l-11.861-14.475l17.577-14.402c0.304-0.249,0.496-0.61,0.536-1.002c0.039-0.39-0.08-0.782-0.329-1.086l-5.586-6.816
			c-0.249-0.305-0.61-0.497-1.001-0.536l-0.146-0.008c-0.342,0-0.674,0.118-0.94,0.336l-13.563,11.115
			c-0.391,0.321-0.592,0.816-0.534,1.318c0.895,7.705,0.392,15.288-1.495,22.546l-6.292-1.136
			c3.092-10.627,2.28-21.671-2.414-32.846l6.77-3.293c0.236,0.028,0.345,0.071,0.383,0.091c-0.029,0.019-0.084,0.206-0.37,0.559
			c-0.303,0.373-0.406,0.872-0.276,1.334l1.323,4.722c0.136,0.482,0.505,0.863,0.982,1.013c0.146,0.047,0.297,0.07,0.447,0.07
			c0.338,0,0.671-0.116,0.94-0.336l36.177-29.643l3.135,3.825l-18.38,15.061c-0.634,0.519-0.727,1.455-0.208,2.088l5.585,6.818
			c0.249,0.304,0.61,0.496,1.001,0.536l0.146,0.006c0.342,0,0.675-0.118,0.94-0.336l14.903-12.213l3.135,3.828l-14.902,12.212
			c-0.304,0.248-0.497,0.609-0.536,1.001c-0.039,0.39,0.079,0.782,0.328,1.086l7.786,9.501c0.249,0.305,0.61,0.497,1.001,0.536
			l0.146,0.008c0.342,0,0.674-0.118,0.94-0.336l21.322-17.474l3.135,3.828L541.46,565.51c-0.304,0.249-0.497,0.609-0.536,1.001
			c-0.039,0.392,0.079,0.782,0.328,1.087l11.062,13.496l-4.537,3.719l-11.061-13.497c-0.294-0.358-0.719-0.542-1.148-0.542
			c-0.331,0-0.665,0.11-0.94,0.335l-29.614,24.267L501.878,591.551z M522.766,555.151c-0.342,0-0.674,0.118-0.94,0.336
			l-11.892,9.746c-0.634,0.519-0.726,1.453-0.207,2.087l7.786,9.501c0.249,0.305,0.61,0.497,1.001,0.536l0.146,0.008
			c0.342,0,0.674-0.118,0.94-0.336l11.891-9.746c0.634-0.519,0.727-1.453,0.208-2.087l-7.786-9.501
			c-0.249-0.305-0.61-0.497-1.001-0.536L522.766,555.151z" style="opacity: 1;"></path>
		<path class="st9" d="M360.001,2.901V0C161.176,0.002,0.002,161.176,0,360c0.002,198.823,161.176,359.998,360.001,360
			C558.824,719.998,719.998,558.824,720,360C719.998,161.176,558.824,0.002,360.001,0V2.901v2.9
			c97.818,0.002,186.349,39.641,250.456,103.743C674.558,173.65,714.197,262.181,714.199,360
			c-0.002,97.818-39.641,186.35-103.742,250.456c-64.107,64.101-152.638,103.74-250.456,103.743
			c-97.819-0.002-186.351-39.641-250.457-103.743C45.442,546.35,5.803,457.818,5.801,360c0.002-97.819,39.64-186.35,103.742-250.457
			C173.65,45.441,262.181,5.802,360.001,5.801V2.901z" style="opacity: 1;"></path>
		<path class="st9" d="M360.001,270.6v-1.451c-50.176,0.001-90.85,40.675-90.851,90.851c0.001,50.176,40.675,90.849,90.851,90.85
			c50.176-0.001,90.849-40.674,90.85-90.85c-0.001-50.175-40.674-90.85-90.85-90.851V270.6v1.45
			c24.291,0.001,46.269,9.842,62.19,25.76c15.918,15.92,25.759,37.899,25.76,62.19c-0.001,24.291-9.842,46.269-25.76,62.19
			c-15.92,15.918-37.898,25.759-62.19,25.76c-24.291-0.001-46.27-9.842-62.19-25.76c-15.918-15.92-25.76-37.899-25.76-62.19
			c0.001-24.291,9.842-46.269,25.76-62.19c15.92-15.919,37.899-25.76,62.19-25.76V270.6z M360.001,426.986v-1.451
			c-18.102-0.001-34.476-7.333-46.34-19.195c-11.862-11.864-19.194-28.239-19.195-46.34c0.001-18.102,7.333-34.476,19.195-46.34
			c11.864-11.862,28.239-19.194,46.34-19.194c18.101,0.001,34.476,7.333,46.34,19.194c11.862,11.864,19.194,28.238,19.195,46.34
			c-0.001,18.101-7.333,34.476-19.195,46.34c-11.864,11.862-28.239,19.194-46.34,19.195V426.986v1.45
			c37.796-0.001,68.434-30.64,68.435-68.436c-0.001-37.796-30.639-68.434-68.435-68.435c-37.796,0.001-68.434,30.639-68.435,68.435
			c0.001,37.796,30.639,68.435,68.435,68.436V426.986z" style="opacity: 1;"></path>
		<path class="st6" d="M274.646,273.943c-1.149,0-2.299-0.113-3.421-0.336c-8.457-1.661-24.058-6.858-33.461-22.97
			c-6.672-11.44-8.584-19.855-9.014-24.901c-0.197-2.256-0.059-3.592-0.012-3.949c0.232-1.758,1.416-3.242,3.077-3.864
			l33.102-12.345c0.544-0.203,1.111-0.302,1.675-0.302c0.965,0,1.92,0.291,2.734,0.855c1.29,0.897,2.06,2.369,2.06,3.939
			c0,19.517,7.746,28.406,14.945,28.406c0.332,0,0.663-0.02,0.984-0.06c7.251-0.911,12.079-3.791,12.079-14.887v-53.862
			c0-0.067-0.013-0.688-0.477-2.02l-0.026-0.076c-1.86-5.258-7.902-12.993-14.03-13.31c-0.344-0.019-0.678-0.028-1.011-0.028
			c-2.957,0-5.908,0.68-8.533,1.967c-3.743,1.848-6.172,4.716-6.172,7.296v11.217c0,2.071-1.331,3.908-3.3,4.554l-34.226,11.23
			c-0.489,0.161-0.994,0.24-1.496,0.24c-0.998,0-1.983-0.311-2.812-0.911c-1.245-0.902-1.983-2.345-1.983-3.884V99.534
			c0-2.2,1.498-4.118,3.632-4.652c2.618-0.764,58.585-20.146,95.541-32.979c0.513-0.178,1.044-0.265,1.572-0.265
			c0.984,0,1.957,0.301,2.779,0.886c1.265,0.9,2.015,2.355,2.015,3.907v20.194c0,2.036-1.285,3.848-3.204,4.523l-59.082,20.758
			v20.904l27.476-8.757c1.644-0.527,3.36-0.795,5.094-0.795c2.896,0,5.76,0.756,8.282,2.187l13.295,7.564
			c9.637,5.501,15.982,15.374,16.978,26.413l0.008,0.101c0.088,0.928,0.131,1.913,0.131,2.931v80.156
			c0,1.87-1.087,3.571-2.786,4.355l-30.493,14.058l-0.322,0.16l-0.719,0.324l-23.283,10.756
			C279.866,273.361,277.238,273.943,274.646,273.943z" style="opacity: 1;"></path>
		<path class="st8" d="M333.568,160.972v80.155l-30.777,14.19v0.012l-0.72,0.324l-0.719,0.336l-22.604,10.438
			c-2.517,1.163-5.345,1.535-8.078,0.996c-7.31-1.439-21.716-6.065-30.25-20.687c-6.472-11.098-8.042-18.949-8.378-22.891
			c-0.168-1.918-0.036-2.912-0.036-2.912l33.102-12.345c0,25.804,12.344,34.229,21.321,33.103
			c8.976-1.126,16.275-5.609,16.275-19.644v-53.86c0-0.982-0.263-2.217-0.743-3.596l-0.012-0.036
			c-2.277-6.508-9.54-16.108-18.325-16.563c-4.255-0.228-8.426,0.719-11.901,2.421c-5.214,2.576-8.857,6.891-8.857,11.601
			c0,7.849,0,11.217,0,11.217l-30.694,10.068l-3.535,1.162V98.05c2.252-0.562,95.952-33.103,95.952-33.103v20.196l-62.286,21.884
			v30.862l33.726-10.751c3.176-1.019,6.64-0.66,9.552,0.995l13.291,7.563c8.317,4.747,13.723,13.243,14.573,22.676v0.023
			C333.532,159.245,333.568,160.109,333.568,160.972z" style="opacity: 1;"></path>
		<path class="st6" d="M423.332,263.659c-2.94,0-5.781-0.606-8.445-1.8c-11.681-5.224-28.918-17.446-37.843-29.805
			c-3.87-5.34-5.834-10.286-5.834-14.695V99.162c0-3.815,2.279-7.219,5.806-8.675L436.46,65.93c0.584-0.242,1.206-0.362,1.83-0.362
			c0.4,0,0.8,0.05,1.192,0.15c23.041,5.913,47.06,30.654,47.371,61.824v102.365c0,4.492-2.652,8.581-6.757,10.416l-48.11,21.479
			C429.241,263.033,426.326,263.659,423.332,263.659L423.332,263.659z M414.64,208.814c2.423,12.1,12.38,21.824,19.054,21.824
			l0.293-0.008c9.618-0.443,10.656-10.997,10.656-15.513v-78.143c0-8.45-0.937-15.789-2.785-21.807
			c-3.102-10.164-8.344-15.558-15.583-16.04c-0.251-0.019-0.473-0.026-0.689-0.026h-0.385c-11.018,0.175-11.576,17.631-11.576,21.13
			c0.005,0.643,0.516,68.152,0.516,83.727c0,1.543,0.158,3.125,0.471,4.7L414.64,208.814z" style="opacity: 1;"></path>
		<path class="st8" d="M436.807,68.878l-59.446,24.557c-1.713,0.708-2.84,2.386-2.84,4.243v118.197c0,3.572,1.87,7.671,4.926,11.89
			c8.006,11.086,24.15,22.975,35.919,28.236c4.195,1.882,8.989,1.822,13.184-0.059l15.976-7.132l32.132-14.345
			c2.385-1.067,3.919-3.428,3.919-6.042V126.131v-0.023C480.277,96.096,456.33,73.888,436.807,68.878z M407.348,118.747
			c0-9.337,2.685-25.743,16.336-25.923h0.419c0.324,0,0.659,0.012,1.007,0.036c9.72,0.648,16.335,7.91,19.847,19.415
			c2.001,6.52,2.996,14.407,2.996,23.215v78.143c0,9.648-4.063,19.789-15.233,20.303c-9.815,0.445-21.609-12.08-24.293-25.815
			v-0.012c-0.371-1.87-0.563-3.752-0.563-5.634C407.863,186.738,407.348,118.747,407.348,118.747z" style="opacity: 1;"></path>
		<path class="st7" d="M324.592,64.946v3.944l-92.417,32.12v82.29l-3.535,1.162V98.05C230.892,97.487,324.592,64.946,324.592,64.946
			z" style="opacity: 1;"></path>
		<path class="st7" d="M333.448,158.371c-1.75-4.268-4.051-9.025-6.364-11.866c-3.44-4.231-21.501-18.373-26.978-16.394
			c-5.489,1.977-33.331,10.319-33.331,10.319l-4.47-2.541l33.726-10.751c3.176-1.019,6.64-0.66,9.552,0.995l13.291,7.563
			C327.192,140.441,332.597,148.938,333.448,158.371z" style="opacity: 1;"></path>
		<path class="st7" d="M304.863,175.078v53.956c0,6.748-3.643,10.893-8.09,13.256c-3.044,1.617-6.471,2.396-9.372,2.612
			c-7.131,0.528-13.747-2.384-19.044-9.527c-5.286-7.143-6.604-22.208-6.604-22.208l-29.711,10.678
			c-0.168-1.918-0.036-2.912-0.036-2.912l33.102-12.345c0,25.804,12.344,34.229,21.321,33.103
			c8.976-1.126,16.275-5.609,16.275-19.644v-53.86c0-0.982-0.263-2.217-0.743-3.596C303.57,167.419,304.863,171.002,304.863,175.078
			z" style="opacity: 1;"></path>
		<path class="st7" d="M480.577,126.107c-3.56-16.396-9.552-26.939-15.364-33.986c-7.406-8.988-21.916-21.575-28.268-19.716
			c-6.341,1.845-58.442,24.76-58.442,24.76s0,104.524,0,128.337c-3.056-4.218-3.981-6.056-3.981-9.628V97.678
			c0-1.857,1.127-3.535,2.84-4.243l59.446-24.557C456.33,73.888,480.277,96.096,480.577,126.107z" style="opacity: 1;"></path>
		<path class="st7" d="M450.865,131.955v86.232c0,9.78-7.143,19.572-18.517,20.363c-11.374,0.79-24.593-17.99-24.066-29.088
			c0.012-0.359,0.06-0.815,0.143-1.342c2.685,13.735,14.478,26.259,24.293,25.815c11.171-0.514,15.233-10.655,15.233-20.303V135.49
			c0-8.808-0.995-16.695-2.996-23.215C448.517,118.509,450.865,125.387,450.865,131.955z" style="opacity: 1;"></path>
	</g>
</g>
</svg>
