<!--?xml version="1.0" encoding="utf-8"?-->
<!-- Generator: Adobe Illustrator 25.2.3, SVG Export Plug-In . SVG Version: 6.00 Build 0)  -->
<svg version="1.1" id="_x33_" xmlns="http://www.w3.org/2000/svg" xmlns:xlink="http://www.w3.org/1999/xlink" x="0px" y="0px" viewBox="0 0 720 720" style="enable-background:new 0 0 720 720;" xml:space="preserve">
<style type="text/css">
	.st0{fill:#FFFF99;}
	.st1{fill:#FEC853;}
	.st2{fill:#BD8712;}
	.st3{fill:#E0AA35;}
	.st4{fill:#EAB43F;}
</style>
<g>
	<path class="st0" d="M359.999,0.858C161.967,0.858,0.858,161.97,0.858,360.001s161.109,359.141,359.141,359.141
		c198.033,0,359.144-161.109,359.144-359.141S558.032,0.858,359.999,0.858z M360,461.302c-55.948,0-101.302-45.354-101.302-101.302
		S304.052,258.698,360,258.698S461.302,304.053,461.302,360S415.947,461.302,360,461.302z" style="opacity: 1;"></path>
	<path class="st1" d="M363.338,9.621c-194.68,0-353.063,158.386-353.063,353.066S168.657,715.75,363.338,715.75
		c194.682,0,353.066-158.383,353.066-353.064S558.019,9.621,363.338,9.621z M363.339,462.273c-55.001,0-99.588-44.587-99.588-99.588
		s44.587-99.588,99.588-99.588s99.588,44.587,99.588,99.588S418.34,462.273,363.339,462.273z" style="opacity: 1;"></path>
	<path class="st2" d="M359.999,30.939c-181.445,0-329.06,147.618-329.06,329.062s147.615,329.06,329.06,329.06
		c181.446,0,329.062-147.615,329.062-329.06S541.445,30.939,359.999,30.939z M360,459.006c-54.68,0-99.006-44.327-99.006-99.006
		S305.32,260.994,360,260.994s99.006,44.327,99.006,99.006S414.679,459.006,360,459.006z" style="opacity: 1;"></path>
	<path class="st3" d="M359.999,39.961c-176.47,0-320.038,143.57-320.038,320.04s143.568,320.038,320.038,320.038
		c176.471,0,320.04-143.568,320.04-320.038S536.47,39.961,359.999,39.961z M360,456.292c-53.18,0-96.291-43.111-96.291-96.292
		S306.82,263.709,360,263.709S456.291,306.82,456.291,360S413.18,456.292,360,456.292z" style="opacity: 1;"></path>
	<path class="st2" d="M348.928,491.223c-1.762,0-3.207-1.396-3.267-3.157l-0.652-18.972c-4.023-0.568-8.009-1.354-11.908-2.349
		l-7.855,17.261c-0.546,1.201-1.732,1.916-2.977,1.916c-0.417,0-0.841-0.08-1.25-0.25l-21.665-8.974
		c-1.628-0.674-2.428-2.517-1.81-4.167l6.657-17.773c-3.481-2.064-6.857-4.323-10.085-6.748l-13.879,12.957
		c-0.629,0.587-1.431,0.879-2.231,0.879c-0.838,0-1.675-0.321-2.312-0.958l-16.582-16.582c-1.246-1.246-1.28-3.255-0.078-4.543
		l12.956-13.879c-2.425-3.228-4.683-6.604-6.747-10.085l-17.774,6.657c-0.377,0.141-0.765,0.208-1.146,0.208
		c-1.286,0-2.501-0.763-3.021-2.019l-8.974-21.665c-0.674-1.628,0.063-3.497,1.666-4.227l17.261-7.855
		c-0.995-3.899-1.782-7.885-2.349-11.908l-18.972-0.652c-1.761-0.061-3.157-1.506-3.157-3.267v-23.45
		c0-1.762,1.396-3.207,3.157-3.267l18.972-0.652c0.568-4.023,1.354-8.009,2.35-11.908l-17.261-7.855
		c-1.604-0.73-2.341-2.599-1.666-4.227l8.974-21.665c0.52-1.256,1.735-2.019,3.021-2.019c0.381,0,0.768,0.067,1.146,0.208
		l17.774,6.656c2.063-3.48,4.322-6.855,6.747-10.084l-12.956-13.879c-1.202-1.288-1.168-3.297,0.078-4.543l16.582-16.582
		c0.637-0.637,1.474-0.958,2.312-0.958c0.8,0,1.601,0.292,2.231,0.879l13.879,12.957c3.228-2.425,6.604-4.683,10.085-6.748
		l-6.657-17.773c-0.618-1.65,0.183-3.493,1.81-4.167l21.665-8.974c0.409-0.169,0.833-0.25,1.25-0.25c1.245,0,2.43,0.715,2.977,1.916
		l7.855,17.261c3.898-0.995,7.884-1.782,11.908-2.35l0.652-18.972c0.061-1.761,1.506-3.157,3.267-3.157h23.45
		c1.762,0,3.207,1.396,3.267,3.157l0.652,18.972c4.023,0.568,8.01,1.354,11.908,2.35l7.855-17.261
		c0.547-1.201,1.732-1.916,2.977-1.916c0.417,0,0.841,0.08,1.25,0.25l21.665,8.974c1.628,0.674,2.428,2.517,1.811,4.167
		l-6.657,17.773c3.48,2.064,6.856,4.323,10.084,6.748l13.879-12.957c0.629-0.587,1.431-0.879,2.231-0.879
		c0.838,0,1.675,0.321,2.312,0.958l16.582,16.582c1.246,1.246,1.28,3.255,0.078,4.543l-12.956,13.879
		c2.425,3.228,4.683,6.604,6.747,10.084l17.774-6.656c0.377-0.141,0.765-0.208,1.146-0.208c1.286,0,2.501,0.763,3.021,2.019
		l8.974,21.665c0.674,1.628-0.063,3.497-1.666,4.227l-17.261,7.855c0.995,3.9,1.782,7.886,2.35,11.908l18.972,0.652
		c1.761,0.061,3.157,1.506,3.157,3.267v23.45c0,1.762-1.396,3.207-3.157,3.267l-18.972,0.652c-0.568,4.022-1.354,8.009-2.35,11.908
		l17.261,7.855c1.604,0.73,2.341,2.599,1.666,4.227l-8.974,21.665c-0.52,1.255-1.736,2.019-3.021,2.019
		c-0.381,0-0.768-0.067-1.146-0.208l-17.774-6.657c-2.063,3.481-4.322,6.857-6.747,10.085l12.956,13.879
		c1.202,1.288,1.168,3.297-0.078,4.543l-16.582,16.582c-0.637,0.637-1.474,0.958-2.312,0.958c-0.8,0-1.601-0.292-2.231-0.879
		l-13.879-12.957c-3.228,2.425-6.604,4.684-10.084,6.748l6.657,17.773c0.618,1.65-0.183,3.493-1.811,4.167l-21.665,8.974
		c-0.409,0.169-0.833,0.25-1.25,0.25c-1.245,0-2.43-0.715-2.977-1.916l-7.855-17.261c-3.899,0.995-7.885,1.782-11.908,2.349
		l-0.652,18.972c-0.061,1.761-1.506,3.157-3.267,3.157H348.928z M360.654,278.109c-44.794,0-81.237,36.443-81.237,81.238
		c0,44.794,36.443,81.237,81.237,81.237c44.795,0,81.238-36.443,81.238-81.237C441.891,314.552,405.448,278.109,360.654,278.109z" style="opacity: 1;"></path>
	<path class="st2" d="M228.963,617.118c-1.805,0-3.269-1.464-3.269-3.269v-16.68c0-1.806,1.464-3.269,3.269-3.269h23.174
		l8.114-21.555h-14.608c-1.805,0-3.269-1.464-3.269-3.269v-16.68c0-1.806,1.464-3.269,3.269-3.269h23.349l6.792-18.043H238.62
		c-1.805,0-3.269-1.464-3.269-3.269v-16.681c0-1.806,1.464-3.269,3.269-3.269h96.131c1.806,0,3.269,1.464,3.269,3.269v16.681
		c0,1.806-1.464,3.269-3.269,3.269h-34.157l-6.792,18.043h28.971c1.531,0,2.856,1.062,3.19,2.555l9.446,42.218h16.461
		c1.805,0,3.269,1.464,3.269,3.269v16.68c0,1.806-1.464,3.269-3.269,3.269H228.963z M311.617,593.899l-4.823-21.555h-21.733
		l-8.114,21.555H311.617z" style="opacity: 1;"></path>
	<path class="st2" d="M487.947,617.118c-1.806,0-3.269-1.464-3.269-3.269v-30.53h-72.025v30.53c0,1.806-1.464,3.269-3.269,3.269
		h-18.884c-1.805,0-3.269-1.464-3.269-3.269V511.133c0-1.806,1.464-3.269,3.269-3.269h116.332c1.805,0,3.269,1.464,3.269,3.269
		v102.716c0,1.806-1.464,3.269-3.269,3.269H487.947z M484.678,560.1v-29.017h-23.301V560.1H484.678z M435.954,560.1v-29.017h-23.301
		V560.1H435.954z" style="opacity: 1;"></path>
	<path class="st2" d="M183.561,455.047c-1.263,0-2.413-0.728-2.954-1.869c-6.453-13.616-21.417-50.601-20.984-99.837
		c0.012-2.348,0.071-4.808,0.179-7.554c2.251-55.533,27.154-92.456,47.648-113.653c23.243-24.039,47.007-34.713,52.117-34.713
		c4.192,0,10.558-3.444,16.714-6.776c4.294-2.324,8.734-4.727,12.78-6.144c0.35-0.123,0.716-0.184,1.081-0.184
		c0.398,0,0.796,0.073,1.174,0.218c8.871,3.412,20.297,5.142,33.96,5.142c23.826-0.001,46.317-5.346,46.541-5.4
		c0.254-0.061,0.511-0.091,0.765-0.091c1.058,0,2.071,0.515,2.69,1.411c0.768,1.112,0.773,2.582,0.012,3.698
		c-0.34,0.499-0.686,0.991-1.04,1.476c-15.152,21.116-37.336,31.832-65.923,31.832c-10.391,0-21.834-1.441-34.034-4.284
		c-65.762,50.552-81.629,110.647-83.32,152.272c-1.851,45.551,12.348,79.568,12.492,79.906c0.429,1.01,0.323,2.169-0.283,3.083
		c-0.605,0.915-1.629,1.466-2.726,1.466H183.561z M189.483,444.949c-3.826-11.363-6.78-21.633-8.975-31.244
		c-0.617-0.294-1.136-0.778-1.469-1.393c3.795,16.466,8.257,28.327,9.972,32.6C189.163,444.925,189.321,444.938,189.483,444.949z
		 M257.187,210.894c-6.65,2.85-38.685,18.587-64.592,66.386c-22.009,40.599-21.646,84.405-17.466,114.004
		c0.824,5.837,1.825,11.369,2.912,16.513c-0.569-3.558-1.316-9.553-1.569-17.593c-1.372-12.349-1.445-24.131-0.224-36.013
		c1.985-19.415,7.443-38.929,16.685-59.656c14.042-31.487,32.752-52.858,45.975-65.241c8.879-8.315,16.489-13.802,21.23-16.901
		L257.187,210.894z M283.667,205.774c5.907,1.536,13.887,3.311,19.547,3.418c0.415,0.008,0.84,0.011,1.275,0.011
		c8.107,0,17.105-1.358,24.691-3.727c0.453-0.153,0.897-0.307,1.331-0.463c-1.165,0.02-2.311,0.029-3.411,0.029
		c-11.995,0-27.359-1.115-36.362-3.586c-1.182,0.969-3.035,2.187-5.97,3.745C284.433,205.38,284.064,205.573,283.667,205.774z" style="opacity: 1;"></path>
	<path class="st2" d="M560.625,180.914c-4.048,0-8.251-1.016-12.154-2.938c-10.625-5.234-16.241-15.886-13.118-24.341
		c-0.434-0.238-0.897-0.503-1.393-0.796c-2.583,1.601-5.716,2.437-9.198,2.437c-5.198,0-10.651-1.894-15.354-5.334
		c-4.724-3.454-8.192-8.097-9.766-13.072c-0.996-3.149-1.178-6.215-0.571-9.005c-3.021,1.707-6.739,2.645-10.801,2.645
		c-0.001,0-0.001,0-0.002,0c-3.135,0-6.296-0.551-9.394-1.638c-11.757-4.124-18.731-14.867-15.546-23.948
		c0.501-1.426,1.232-2.76,2.174-3.965c3.297-4.232,8.96-6.661,15.533-6.661c3.135,0,6.295,0.551,9.393,1.638
		c9.187,3.223,15.593,10.364,16.27,17.99c1.595,0.947,2.894,1.913,3.922,2.916c1.286-0.271,2.634-0.407,4.029-0.407
		c5.203,0,10.658,1.894,15.362,5.333c7.86,5.747,11.921,14.438,10.359,21.933c0.708,0.775,1.324,1.527,1.851,2.262
		c2.722-1.456,5.991-2.232,9.535-2.232c4.044,0,8.241,1.015,12.138,2.934c8.735,4.303,14.237,12.16,13.994,19.813
		c2.043,1.573,3.514,3.113,4.472,4.677c1.128,1.841,1.296,3.497,0.498,4.922c-0.34,0.607-1.387,2.02-3.76,2.02
		c-1.341,0-3.129-0.446-5.927-1.504C570.045,179.363,565.607,180.914,560.625,180.914z" style="opacity: 1;"></path>
	<path class="st2" d="M592.844,219.816c-1.874,0-3.489-1.112-6.369-4.572c-0.952,0.194-1.938,0.292-2.949,0.292
		c-6.582,0-13.464-4.118-17.96-10.747c-3.11-4.586-4.723-9.834-4.539-14.777c0.197-5.32,2.415-9.681,6.245-12.279
		c1.193-0.809,2.51-1.416,3.917-1.806c1.237-0.344,2.547-0.519,3.891-0.519c6.582,0,13.464,4.118,17.96,10.747
		c5.156,7.601,6.017,16.612,2.283,22.815c0.922,2.219,1.401,4.154,1.457,5.877c0.02,0.614,0.081,2.483-1.212,3.818
		C594.851,219.407,593.883,219.816,592.844,219.816L592.844,219.816z" style="opacity: 1;"></path>
	<path class="st2" d="M613.162,263.086c-1.841-0.001-3.595-1.13-6.734-4.485c-1.328,0.367-2.729,0.552-4.189,0.552
		c-6.613,0-13.734-3.917-18.584-10.224c-0.751-0.976-1.432-1.983-2.04-3.012c-1.06,1.448-2.633,1.55-3.051,1.55
		c-2.195,0-3.861-1.683-6.136-5.194c-0.365,0.029-0.733,0.043-1.102,0.043c-6.952,0-14.01-4.964-17.98-12.646
		c-3.467-6.71-3.84-14.28-1.177-19.823c-0.887,0.169-1.803,0.254-2.741,0.254c-6.383,0-13.101-3.942-17.531-10.289
		c-6.629-9.496-6.034-21.402,1.328-26.542c1.161-0.811,2.448-1.425,3.824-1.826c1.272-0.372,2.625-0.562,4.019-0.562
		c6.383,0,13.1,3.942,17.531,10.288c4.826,6.913,5.974,15.091,3.155,21.137c0.149-0.028,0.298-0.053,0.448-0.076
		c0.68-0.105,1.387-0.158,2.096-0.158c6.952,0,14.009,4.964,17.979,12.646c0.875,1.693,1.56,3.446,2.047,5.215
		c1.038-0.711,2.17-1.278,3.377-1.692c1.575-0.541,3.272-0.817,5.039-0.817c6.613,0,13.734,3.918,18.584,10.224
		c5.936,7.718,7.401,17.199,3.802,23.957c1.138,2.315,1.778,4.346,1.947,6.172c0.06,0.649,0.242,2.622-1.073,4.064
		c-0.73,0.801-1.738,1.243-2.837,1.243C613.163,263.086,613.163,263.086,613.162,263.086z" style="opacity: 1;"></path>
	<path class="st2" d="M563.605,359.896c-1.186,0-2.283-0.538-3.01-1.474c-1.163-1.501-1.264-3.491-0.244-7.972
		c-5.615-4.858-7.527-14.197-4.494-23.309c3.136-9.422,10.772-16.001,18.569-16.001c1.458,0,2.892,0.231,4.261,0.686
		c0.2,0.066,0.398,0.138,0.594,0.213c0.002-0.258,0.008-0.516,0.018-0.775c0.282-7.811,3.639-14.565,8.604-18.221
		c-5.999-2.147-11.198-8.009-13.49-15.695c-0.071-0.238-0.139-0.477-0.203-0.715c-3.041,2.902-6.652,4.757-10.317,5.174
		c-1.222,2.124-2.489,3.711-3.846,4.821c-0.732,0.6-1.875,1.397-3.342,1.397c-1.186,0-2.283-0.538-3.01-1.474
		c-1.164-1.501-1.264-3.491-0.244-7.973c-5.616-4.857-7.527-14.197-4.494-23.309c3.136-9.422,10.772-16.001,18.569-16.001
		c1.458,0,2.892,0.231,4.261,0.686c1.386,0.462,2.686,1.147,3.865,2.038c3.196,2.409,5.36,6.23,6.23,10.712
		c0.776-0.41,1.592-0.744,2.443-0.998c1.239-0.369,2.529-0.557,3.832-0.557c0.167,0,0.335,0.003,0.503,0.009
		c7.766,0.27,15.171,7.086,18,16.575c2.666,8.942,0.738,17.932-4.784,22.783c0.025,0.275,0.045,0.545,0.06,0.808
		c6.848,3.052,11.335,11.606,10.99,21.155c-0.337,9.325-5.042,17.225-11.826,20.052c-0.575,2.38-1.344,4.258-2.334,5.706
		c-1.105,1.617-2.416,2.437-3.896,2.437c0,0,0,0,0,0c-3.763,0-4.483-4.181-4.712-8.31c-0.365-0.166-0.723-0.348-1.076-0.545
		c-0.207,1.974-0.64,3.973-1.298,5.949c-2.947,8.853-9.685,15.111-16.991,15.915c-1.222,2.122-2.488,3.707-3.844,4.818
		C566.215,359.099,565.073,359.896,563.605,359.896z" style="opacity: 1;"></path>
	<path class="st2" d="M560.056,323.524c-1.186-0.001-2.283-0.538-3.009-1.475c-1.163-1.5-1.264-3.49-0.244-7.972
		c-5.615-4.858-7.527-14.197-4.494-23.31c3.136-9.422,10.772-16.001,18.569-16.001c1.458,0,2.892,0.23,4.261,0.686
		c1.386,0.461,2.686,1.147,3.865,2.038c6.206,4.677,8.359,14.508,5.232,23.903c-2.947,8.853-9.685,15.111-16.991,15.915
		c-1.222,2.122-2.488,3.707-3.844,4.818C562.667,322.727,561.524,323.524,560.056,323.524
		C560.056,323.524,560.056,323.524,560.056,323.524z" style="opacity: 1;"></path>
	<path class="st2" d="M526.098,285.362c-1.186,0-2.283-0.538-3.01-1.474c-1.163-1.501-1.264-3.491-0.244-7.973
		c-5.616-4.857-7.527-14.197-4.494-23.309c2.219-6.667,6.693-11.911,11.883-14.406c-2.425-2.744-4.315-6.225-5.398-10.086
		c-1.466-5.225-1.335-10.6,0.37-15.135c1.837-4.889,5.258-8.258,9.633-9.485c1.14-0.319,2.321-0.481,3.511-0.481
		c0.233,0,0.467,0.006,0.7,0.019c7.506,0.383,14.556,7.081,17.139,16.287c2.426,8.647,0.438,17.273-4.938,21.887
		c0.164,2.332,0.006,4.269-0.474,5.881c-0.047,0.158-0.097,0.31-0.149,0.456c1.533,4.744,1.421,10.369-0.351,15.692
		c-2.947,8.853-9.685,15.11-16.99,15.914c-1.222,2.122-2.488,3.708-3.845,4.818C528.708,284.565,527.566,285.362,526.098,285.362z" style="opacity: 1;"></path>
	<path class="st2" d="M517.937,224.834c-3.216-0.001-4.442-3.35-5.334-7.138c-6.914-1.82-12.553-9.044-13.853-18.184
		c-1.058-7.437,0.999-14.557,5.226-18.921c-0.297-0.381-0.584-0.771-0.861-1.168c-3.984-5.705-5.485-12.51-4.165-18.147
		c-0.087-0.051-0.177-0.103-0.267-0.156c-2.382,1.434-5.249,2.183-8.425,2.183c-4.831,0-9.896-1.761-14.261-4.959
		c-2.233-1.636-4.195-3.596-5.765-5.747c-1.259-0.21-2.797-0.889-5.131-2.27c-2.381,1.434-5.248,2.183-8.424,2.183
		c-4.831,0-9.896-1.762-14.261-4.96c-4.377-3.207-7.59-7.518-9.048-12.139c-1.571-4.981-0.957-9.743,1.728-13.408
		c0.836-1.141,1.855-2.138,3.028-2.963c2.529-1.783,5.729-2.726,9.25-2.726c4.841,0,9.914,1.764,14.287,4.967
		c3.798,2.782,6.638,6.309,8.281,10.036c0.54-0.543,1.13-1.039,1.763-1.484c2.528-1.782,5.728-2.726,9.25-2.726
		c4.841,0,9.915,1.764,14.287,4.968c7.244,5.308,11.002,13.322,9.618,20.27c0.049,0.055,0.099,0.109,0.147,0.164
		c1.01-0.629,2.103-1.116,3.258-1.453c1.272-0.372,2.625-0.562,4.019-0.562c6.383,0,13.1,3.942,17.531,10.288
		c5.141,7.364,6.108,16.164,2.553,22.292c0.923,2.147,1.413,4.027,1.491,5.708c0.028,0.612,0.114,2.473-1.172,3.819
		c-0.523,0.548-1.181,0.916-1.904,1.075c0.078,0.414,0.147,0.831,0.207,1.25c1.265,8.891-1.844,17.18-7.781,21.045
		c-0.145,2.333-0.556,4.23-1.246,5.767C520.814,224.297,519.14,224.834,517.937,224.834
		C517.938,224.834,517.937,224.834,517.937,224.834z" style="opacity: 1;"></path>
	<path class="st2" d="M488.555,207.445c-3.216-0.001-4.443-3.35-5.335-7.138c-6.914-1.82-12.553-9.044-13.853-18.184
		c-1.631-11.466,4.274-21.822,13.163-23.087c0.602-0.086,1.215-0.129,1.82-0.129c0.803,0,1.615,0.076,2.415,0.225
		c7.391,1.37,13.496,8.938,14.842,18.404c1.265,8.891-1.843,17.18-7.781,21.045c-0.145,2.333-0.556,4.231-1.246,5.767
		C491.431,206.907,489.757,207.445,488.555,207.445L488.555,207.445z" style="opacity: 1;"></path>
	<path class="st2" d="M116.546,455.047c-1.08,0-2.09-0.533-2.699-1.424c-0.857-1.254-21.066-31.3-27.57-83.034
		c-5.135-40.857-0.217-83.316,14.618-126.197c16.999-49.139,47.973-88.521,92.06-117.053c35.271-22.827,69.589-32.493,86.906-36.222
		c6.282-1.352,9.901-1.825,10.052-1.845c0.141-0.018,0.282-0.027,0.421-0.027c1.477,0,2.796,1.002,3.167,2.468
		c0.406,1.604-0.451,3.259-1.995,3.853c-0.179,0.069-18.215,7.078-42.259,22.35c-21.833,13.869-53.355,37.669-79.543,72.297
		c-50.526,66.805-57.237,144.545-53.238,179.947c3.915,34.706,21.668,79.963,21.848,80.417c0.397,1.006,0.271,2.145-0.338,3.039
		c-0.609,0.895-1.621,1.43-2.703,1.43H116.546z M163.607,174.429c-20.183,21.832-39.835,51.235-51.398,89.591
		c-13.677,45.351-12.373,86.199-8.871,112.481c3.616,27.142,10.669,48.552,17.153,61.898c-2.943-7.806-6.955-19.632-10.519-34.209
		c-5.981-24.461-11.692-61.493-4.94-98.995c9.239-51.295,24.142-79.55,34.558-96.345c2.203-3.799,4.476-7.463,6.759-10.891
		c1.657-2.782,4.43-6.706,8.031-11.362l0.443-0.683C156.92,182.654,159.897,178.77,163.607,174.429z" style="opacity: 1;"></path>
	<path class="st2" d="M171.221,430.41c-1.389,0-2.672-0.891-3.114-2.278c-0.36-1.13-8.813-28.083-8.733-64.582
		c0.004-1.771,1.418-3.217,3.188-3.261c0.027-0.001,0.055-0.001,0.083-0.001c1.734,0,3.173,1.359,3.263,3.1
		c1.797,34.606,8.222,61.851,8.494,62.994c0.408,1.711-0.61,3.437-2.304,3.909C171.806,430.371,171.511,430.41,171.221,430.41z" style="opacity: 1;"></path>
	<path class="st2" d="M154.921,455.047c-1.302,0-2.48-0.773-2.999-1.967c-0.233-0.536-23.237-54.367-19.817-120.469
		c1.538-29.76,8.151-57.714,19.655-83.084c43.329-95.585,96.699-116.063,132.015-129.614c0.894-0.343,1.777-0.682,2.648-1.018
		c2.157-5.85,10.872-27.188,27.005-38.65c15.18-10.781,34.899-14.622,48.292-14.622c4.067,0,7.707,0.339,10.821,1.007
		c1.442,0.309,2.499,1.546,2.579,3.019c0.08,1.473-0.836,2.817-2.236,3.281c-1.07,0.354-2.185,0.766-3.315,1.222
		c-16.111,6.417-37.095,20.955-48.282,38.869c6.421-0.682,16.722-1.578,26.53-1.578c0.96,0,1.904,0.009,2.819,0.026l17.893-14.853
		c0.135-1.356,0.465-2.69,0.983-3.973c2.93-7.284,11.622-12.181,21.627-12.181c0.596,0,1.202,0.018,1.801,0.052
		c10.124,0.587,18.58,5.904,21.41,13.347c0.584,0.152,1.139,0.313,1.667,0.485c0.049-0.159,0.102-0.317,0.157-0.474
		c0.517-1.473,1.273-2.853,2.247-4.099c3.415-4.383,9.286-6.899,16.105-6.899c3.257,0,6.54,0.573,9.759,1.702
		c9.569,3.357,16.232,10.799,16.898,18.734c2.332,1.378,4.058,2.79,5.247,4.291c1.79,2.259,1.543,4.023,1.02,5.104
		c-0.419,0.866-1.539,2.319-4.336,2.319c-1.272,0-3-0.277-5.463-0.885c-3.457,3.956-9.091,6.256-15.572,6.256
		c-3.257,0-6.541-0.573-9.761-1.702c-1.349-0.473-2.641-1.028-3.869-1.656c3.298,3.451,5.255,7.63,5.357,11.839
		c1.91,1.348,3.31,2.695,4.254,4.088c1.489,2.194,1.172,3.843,0.644,4.839c-0.153,0.289-0.455,0.752-0.976,1.17
		c4.647,3.004,7.838,7.299,8.68,11.997c2.093,1.041,3.682,2.158,4.828,3.391c1.929,2.073,1.756,3.837,1.27,4.951
		c-0.716,1.643-2.3,2.476-4.708,2.476c-1.005,0-2.255-0.123-3.918-0.39c-1.152,1.494-2.627,2.774-4.353,3.799
		c3.284,2.602,6.02,6.377,7.715,10.889c2.692,7.165,2.188,14.591-1.091,19.759c6.288,1.384,12.032,6.832,14.883,14.421
		c3.159,8.407,1.918,17.172-3.044,22.23c0.363,2.31,0.373,4.252,0.032,5.9c-0.765,3.696-3.309,3.983-4.07,3.983
		c-2.398,0-3.961-1.912-5.929-5.903c-7.263-0.276-14.235-6.136-17.473-14.756c-2.691-7.164-2.158-14.607,1.098-19.758
		c-6.291-1.381-12.038-6.832-14.89-14.422c-0.112-0.298-0.218-0.595-0.318-0.894c-0.298,0.37-0.612,0.723-0.943,1.061
		c0.363,2.308,0.372,4.251,0.032,5.899c-0.764,3.696-3.309,3.983-4.07,3.983c-2.398,0-3.961-1.911-5.928-5.903
		c-7.263-0.276-14.235-6.136-17.474-14.756c-2.32-6.177-2.274-12.646-0.006-17.684c-0.066-0.047-0.133-0.094-0.201-0.142
		c-2.07,1.02-4.45,1.551-7.008,1.551c-5.242,0-10.844-2.253-15.371-6.179c-6.866-5.956-9.915-14.391-7.864-21.182
		c-3.093-4.39-4.9-6.575-5.697-7.398c-1.284-0.079-2.774-0.119-4.446-0.119c-10.982,0-27.044,1.703-31.819,2.238
		c-1.386,1.871-4.252,5.809-6.593,9.488c-0.456,0.716-1.173,1.228-1.999,1.425c-70.151,16.767-116.962,61.943-143.108,138.111
		c-16.628,48.432-14.01,92.936-8.886,121.742c5.567,31.295,15.215,51.367,15.312,51.566c0.493,1.013,0.429,2.209-0.168,3.165
		c-0.598,0.955-1.645,1.536-2.771,1.536H154.921z M418.872,166.406c0.047-0.059,0.094-0.118,0.141-0.176
		c-0.078-0.03-0.155-0.059-0.232-0.089C418.812,166.229,418.842,166.317,418.872,166.406z M394.73,150.869
		c0.229,0.299,0.445,0.595,0.649,0.886c0.176-0.075,0.354-0.147,0.534-0.214c1.324-0.497,2.722-0.774,4.154-0.822
		c0.153-0.005,0.309-0.008,0.467-0.008c1.619,0,3.228,0.28,4.789,0.81c-0.302-1.847-0.22-3.709,0.26-5.527
		c0.361-1.368,0.946-2.669,1.736-3.864c0.16-0.243,0.329-0.481,0.506-0.715c-0.291-0.115-0.58-0.236-0.868-0.361
		c-7.808-3.406-13.096-10.015-13.754-16.658c-2.787-0.064-6.186-0.146-9.776-0.232c-2.893-0.07-5.919-0.143-8.852-0.212
		c4.277,0.7,8.602,2.774,12.235,5.926C393.594,135.761,396.681,144.058,394.73,150.869z M367.439,124.148
		c0.57-0.138,1.154-0.245,1.752-0.321c-0.692-0.015-1.369-0.03-2.026-0.045L367.439,124.148z M332.398,84.16
		c-3.649,1.586-7.406,3.677-10.799,6.428c-8.304,6.735-15.214,18.211-18.84,24.987l4.578-0.655
		C316.17,100.353,325.09,90.577,332.398,84.16z M369.445,112.772c2.778,0.016,5.733,0.057,8.682,0.118
		c-1.783-1.034-3.386-2.258-4.751-3.639L369.445,112.772z M411.435,109.051c2.865,0.217,5.786,0.951,8.543,2.154
		c0.431,0.188,0.855,0.386,1.271,0.593c-1.979-2.024-3.528-4.303-4.541-6.732c-0.797,0.081-1.711,0.14-2.767,0.179
		C413.302,106.609,412.456,107.884,411.435,109.051z" style="opacity: 1;"></path>
	<path class="st2" d="M88.508,469.19c-1.35,0-2.561-0.829-3.048-2.088c-1.001-2.584-1.993-5.278-2.948-8.007
		c-0.35-1-0.193-2.107,0.42-2.971c0.613-0.864,1.607-1.377,2.666-1.377h177.395c1.476,0,2.769,0.989,3.155,2.413l2.145,7.905
		c0.267,0.983,0.06,2.034-0.558,2.842c-0.619,0.809-1.579,1.283-2.597,1.283H88.508z" style="opacity: 1;"></path>
	<path class="st2" d="M95.406,485.641c-1.279,0-2.441-0.746-2.973-1.909c-1.238-2.706-2.419-5.402-3.509-8.012
		c-0.421-1.009-0.311-2.162,0.296-3.072c0.606-0.911,1.628-1.457,2.721-1.457h197.822c1.477,0,2.771,0.99,3.156,2.416l2.138,7.912
		c0.266,0.983,0.058,2.033-0.56,2.841c-0.619,0.808-1.578,1.282-2.596,1.282H95.406z" style="opacity: 1;"></path>
	<path class="st2" d="M103.534,502.086c-1.206,0-2.314-0.664-2.883-1.727c-1.364-2.55-2.75-5.242-4.12-8
		c-0.503-1.013-0.446-2.214,0.15-3.176c0.596-0.962,1.647-1.547,2.779-1.547h241.664c1.805,0,3.269,1.464,3.269,3.269v7.912
		c0,1.806-1.464,3.269-3.269,3.269H103.534z" style="opacity: 1;"></path>
	<path class="st2" d="M113.021,518.531c-1.128,0-2.176-0.582-2.774-1.538c-1.605-2.572-3.22-5.267-4.8-8.011
		c-0.582-1.011-0.581-2.257,0.003-3.267c0.584-1.011,1.663-1.633,2.83-1.633h114.806c1.805,0,3.269,1.464,3.269,3.269v7.912
		c0,1.806-1.464,3.269-3.269,3.269H113.021z" style="opacity: 1;"></path>
	<path class="st2" d="M124.013,534.976c-1.051,0-2.037-0.505-2.652-1.357c-1.85-2.565-3.719-5.259-5.558-8.007
		c-0.671-1.003-0.735-2.294-0.166-3.358c0.568-1.064,1.677-1.729,2.884-1.729h107.039c1.805,0,3.269,1.464,3.269,3.269v7.912
		c0,1.806-1.464,3.269-3.269,3.269H124.013z" style="opacity: 1;"></path>
	<path class="st2" d="M136.718,551.421c-0.972,0-1.893-0.432-2.514-1.179c-2.166-2.605-4.322-5.295-6.409-7.997
		c-0.762-0.987-0.897-2.32-0.348-3.44c0.55-1.119,1.688-1.828,2.935-1.828h99.624c1.805,0,3.269,1.464,3.269,3.269v7.905
		c0,1.806-1.464,3.269-3.269,3.269H136.718z" style="opacity: 1;"></path>
	<path class="st2" d="M151.456,567.866c-0.886,0-1.734-0.359-2.35-0.996c-2.519-2.605-5.023-5.295-7.442-7.998
		c-0.86-0.961-1.075-2.338-0.549-3.515c0.526-1.177,1.695-1.935,2.985-1.935h87.383c1.805,0,3.269,1.464,3.269,3.269v7.905
		c0,1.806-1.464,3.269-3.269,3.269H151.456z" style="opacity: 1;"></path>
	<path class="st2" d="M168.679,584.31c-0.795,0-1.562-0.289-2.159-0.814c-2.946-2.591-5.883-5.28-8.728-7.995
		c-0.967-0.922-1.275-2.34-0.779-3.581c0.497-1.241,1.699-2.054,3.035-2.054h72.423c1.805,0,3.269,1.464,3.269,3.269v7.905
		c0,1.806-1.464,3.269-3.269,3.269H168.679z" style="opacity: 1;"></path>
	<path class="st2" d="M189.119,600.755c-0.694,0-1.371-0.221-1.931-0.632c-3.512-2.571-7.017-5.262-10.416-7.995
		c-1.081-0.869-1.496-2.326-1.035-3.634c0.461-1.308,1.697-2.183,3.084-2.183h35.381c1.805,0,3.269,1.464,3.269,3.269v7.905
		c0,1.806-1.464,3.269-3.269,3.269H189.119z" style="opacity: 1;"></path>
	<path class="st2" d="M215.764,618.174c-0.575,0-1.14-0.151-1.637-0.439c-3.495-2.022-6.976-4.133-10.346-6.274
		c-1.586-1.008-2.299-2.898-1.774-4.705c0.526-1.81,2.145-3.025,4.027-3.025h10.841c1.805,0,3.269,1.464,3.269,3.269v7.905
		c0,1.806-1.464,3.269-3.269,3.269H215.764z" style="opacity: 1;"></path>
	<path class="st2" d="M459.469,469.19c-1.018,0-1.978-0.474-2.597-1.283c-0.618-0.809-0.825-1.86-0.558-2.843l2.145-7.905
		c0.387-1.424,1.679-2.413,3.155-2.413h176.715c1.059,0,2.053,0.513,2.666,1.377c0.613,0.864,0.769,1.971,0.42,2.971
		c-0.954,2.728-1.946,5.423-2.948,8.007c-0.488,1.259-1.699,2.088-3.048,2.088H459.469z" style="opacity: 1;"></path>
	<path class="st2" d="M432.705,485.641c-1.018,0-1.977-0.474-2.596-1.282c-0.618-0.808-0.826-1.858-0.56-2.841l2.138-7.912
		c0.385-1.426,1.679-2.416,3.156-2.416h197.142c1.094,0,2.115,0.547,2.721,1.457c0.606,0.91,0.717,2.063,0.296,3.072
		c-1.09,2.61-2.271,5.306-3.509,8.012c-0.532,1.163-1.694,1.909-2.973,1.909H432.705z" style="opacity: 1;"></path>
	<path class="st2" d="M383.482,502.086c-1.805,0-3.269-1.464-3.269-3.269v-7.912c0-1.806,1.464-3.269,3.269-3.269h240.984
		c1.132,0,2.182,0.585,2.779,1.547c0.596,0.962,0.653,2.163,0.15,3.176c-1.279,2.578-2.664,5.267-4.117,7.995
		c-0.568,1.066-1.677,1.733-2.886,1.733H383.482z" style="opacity: 1;"></path>
	<path class="st2" d="M523.947,518.531c-1.805,0-3.269-1.464-3.269-3.269v-7.912c0-1.806,1.464-3.269,3.269-3.269h91.699
		c1.167,0,2.246,0.623,2.83,1.633c0.584,1.01,0.585,2.256,0.003,3.267c-1.501,2.607-3.115,5.3-4.797,8.006
		c-0.597,0.96-1.647,1.543-2.777,1.543H523.947z" style="opacity: 1;"></path>
	<path class="st2" d="M523.947,534.976c-1.805,0-3.269-1.464-3.269-3.269v-7.912c0-1.806,1.464-3.269,3.269-3.269h81.453
		c1.206,0,2.313,0.663,2.882,1.727c0.569,1.063,0.507,2.353-0.162,3.356c-1.804,2.706-3.673,5.401-5.554,8.011
		c-0.615,0.852-1.601,1.357-2.652,1.357H523.947z" style="opacity: 1;"></path>
	<path class="st2" d="M523.947,551.421c-1.805,0-3.269-1.464-3.269-3.269v-7.905c0-1.806,1.464-3.269,3.269-3.269h69.592
		c1.246,0,2.383,0.708,2.934,1.826s0.417,2.451-0.344,3.438c-1.998,2.594-4.156,5.286-6.412,8c-0.621,0.747-1.542,1.179-2.514,1.179
		H523.947z" style="opacity: 1;"></path>
	<path class="st2" d="M523.947,567.866c-1.805,0-3.269-1.464-3.269-3.269v-7.905c0-1.806,1.464-3.269,3.269-3.269h55.873
		c1.29,0,2.459,0.758,2.985,1.935c0.526,1.177,0.311,2.554-0.549,3.515c-2.419,2.702-4.923,5.393-7.442,7.998
		c-0.616,0.637-1.464,0.996-2.35,0.996H523.947z" style="opacity: 1;"></path>
	<path class="st2" d="M523.947,584.31c-1.805,0-3.269-1.464-3.269-3.269v-7.905c0-1.806,1.464-3.269,3.269-3.269h39.925
		c1.336,0,2.538,0.814,3.035,2.054c0.497,1.241,0.188,2.659-0.779,3.581c-2.848,2.716-5.784,5.405-8.729,7.995
		c-0.597,0.525-1.364,0.814-2.159,0.814H523.947z" style="opacity: 1;"></path>
	<path class="st2" d="M523.947,600.755c-1.805,0-3.269-1.464-3.269-3.269v-7.905c0-1.806,1.464-3.269,3.269-3.269h21.153
		c1.387,0,2.623,0.875,3.083,2.183c0.461,1.308,0.046,2.765-1.035,3.634c-3.4,2.734-6.904,5.424-10.416,7.995
		c-0.56,0.411-1.237,0.632-1.932,0.632H523.947z" style="opacity: 1;"></path>
	<path class="st2" d="M424.779,618.175c-1.805,0-3.269-1.464-3.269-3.269v-7.907c0-1.806,1.464-3.269,3.269-3.269h48.46
		c1.805,0,3.269,1.464,3.269,3.269v7.907c0,1.806-1.464,3.269-3.269,3.269H424.779z" style="opacity: 1;"></path>
	<path class="st2" d="M424.779,600.801c-1.805,0-3.269-1.464-3.269-3.269v-6.599c0-1.806,1.464-3.269,3.269-3.269h48.46
		c1.805,0,3.269,1.464,3.269,3.269v6.599c0,1.806-1.464,3.269-3.269,3.269H424.779z" style="opacity: 1;"></path>
	<path class="st2" d="M246.431,633.586c-0.444,0-0.884-0.091-1.292-0.266c-4.541-1.953-9.092-4.051-13.525-6.233
		c-1.76-0.867-2.678-2.805-2.233-4.713c0.444-1.906,2.121-3.237,4.079-3.237h260.121c1.805,0,3.269,1.464,3.269,3.269v0.386
		c0,1.231-0.692,2.358-1.79,2.916c-5.299,2.688-10.774,5.25-16.274,7.614c-0.408,0.175-0.847,0.266-1.291,0.266H246.431z" style="opacity: 1;"></path>
	<path class="st2" d="M298.087,650.332c-0.239,0-0.478-0.026-0.711-0.079c-7.931-1.767-15.868-3.888-23.588-6.305
		c-1.957-0.613-3.152-2.53-2.842-4.559c0.31-2.029,2.025-3.502,4.076-3.502h174.291c2.018,0,3.706,1.449,4.013,3.445
		c0.307,1.996-0.868,3.885-2.794,4.491c-7.846,2.468-15.916,4.631-23.986,6.43c-0.234,0.052-0.472,0.079-0.711,0.079H298.087z" style="opacity: 1;"></path>
	<path class="st2" d="M351.66,518.53c-1.805,0-3.269-1.464-3.269-3.269v-7.907c0-1.806,1.464-3.269,3.269-3.269h25.049
		c1.805,0,3.269,1.464,3.269,3.269v7.907c0,1.806-1.464,3.269-3.269,3.269H351.66z" style="opacity: 1;"></path>
	<path class="st2" d="M351.66,534.975c-1.805,0-3.269-1.464-3.269-3.269v-7.907c0-1.806,1.464-3.269,3.269-3.269h25.049
		c1.805,0,3.269,1.464,3.269,3.269v7.907c0,1.806-1.464,3.269-3.269,3.269H351.66z" style="opacity: 1;"></path>
	<path class="st2" d="M339.463,551.42c-1.499,0-2.806-1.019-3.171-2.473l-1.986-7.907c-0.245-0.977-0.027-2.013,0.593-2.807
		c0.62-0.794,1.571-1.259,2.578-1.259h39.232c1.805,0,3.269,1.464,3.269,3.269v7.907c0,1.806-1.464,3.269-3.269,3.269H339.463z" style="opacity: 1;"></path>
	<path class="st2" d="M342.583,568.156c-1.499,0-2.806-1.019-3.171-2.473l-1.986-7.907c-0.245-0.977-0.026-2.013,0.593-2.807
		c0.62-0.794,1.571-1.259,2.578-1.259h36.111c1.805,0,3.269,1.464,3.269,3.269v7.907c0,1.806-1.464,3.269-3.269,3.269H342.583z" style="opacity: 1;"></path>
	<path class="st2" d="M345.987,583.757c-1.499,0-2.806-1.019-3.171-2.473l-1.986-7.907c-0.245-0.977-0.026-2.013,0.593-2.807
		c0.62-0.794,1.571-1.259,2.578-1.259h32.708c1.805,0,3.269,1.464,3.269,3.269v7.907c0,1.806-1.464,3.269-3.269,3.269H345.987z" style="opacity: 1;"></path>
	<path class="st2" d="M361.122,600.756c-1.805,0-3.269-1.464-3.269-3.269v-7.907c0-1.806,1.464-3.269,3.269-3.269h15.586
		c1.805,0,3.269,1.464,3.269,3.269v7.907c0,1.806-1.464,3.269-3.269,3.269H361.122z" style="opacity: 1;"></path>
	<path class="st2" d="M361.122,618.176c-1.805,0-3.269-1.464-3.269-3.269v-7.907c0-1.806,1.464-3.269,3.269-3.269h15.586
		c1.805,0,3.269,1.464,3.269,3.269v7.907c0,1.806-1.464,3.269-3.269,3.269H361.122z" style="opacity: 1;"></path>
	<g>
		<path class="st2" d="M359.999,0C161.487,0.004,0.004,161.49,0,360.002C0.004,558.513,161.487,719.996,359.999,720
			C558.511,719.996,719.996,558.513,720,360.002C719.996,161.49,558.511,0.004,359.999,0z M610.792,608.963
			c-64.367,64.363-153.21,104.218-251.205,104.219c-97.994-0.001-186.837-39.856-251.203-104.219
			C44.022,544.597,4.167,455.755,4.166,357.761c0.001-97.995,39.856-186.838,104.219-251.205
			C172.751,42.193,261.592,2.337,359.587,2.336c97.995,0.001,186.838,39.857,251.205,104.22
			c64.363,64.367,104.219,153.21,104.22,251.205C715.011,455.755,675.155,544.597,610.792,608.963z" style="opacity: 1;"></path>
	</g>
	<path class="st0" d="M487.299,369.764v-23.45l-21.748-0.748c-0.668-5.787-1.789-11.437-3.338-16.907l19.784-9.003l-8.974-21.665
		l-20.37,7.629c-2.816-5.036-6.021-9.824-9.582-14.32l14.851-15.908l-16.582-16.582l-15.908,14.851
		c-4.495-3.56-9.284-6.766-14.32-9.582l7.629-20.37l-21.665-8.974l-9.003,19.784c-5.47-1.549-11.12-2.67-16.907-3.338l-0.748-21.749
		h-23.45l-0.748,21.749c-5.787,0.668-11.437,1.788-16.907,3.338l-9.003-19.784l-21.665,8.974l7.629,20.37
		c-5.036,2.816-9.824,6.021-14.32,9.582l-15.908-14.851l-16.582,16.582l14.851,15.908c-3.561,4.495-6.766,9.284-9.582,14.32
		l-20.37-7.629l-8.974,21.665l19.784,9.003c-1.549,5.47-2.669,11.12-3.338,16.907l-21.748,0.748v23.45l21.748,0.748
		c0.668,5.787,1.788,11.437,3.338,16.907l-19.784,9.003l8.974,21.665l20.37-7.629c2.816,5.036,6.021,9.824,9.582,14.32
		l-14.851,15.908l16.582,16.582l15.908-14.851c4.496,3.561,9.284,6.766,14.32,9.582l-7.629,20.37l21.665,8.974l9.003-19.784
		c5.47,1.549,11.12,2.67,16.907,3.338l0.748,21.749h23.45l0.748-21.749c5.787-0.668,11.437-1.788,16.907-3.338l9.003,19.784
		l21.665-8.974l-7.629-20.37c5.036-2.816,9.825-6.021,14.32-9.582l15.908,14.851l16.582-16.582l-14.851-15.908
		c3.561-4.495,6.766-9.284,9.582-14.32l20.37,7.629l8.974-21.665l-19.784-9.003c1.549-5.47,2.67-11.12,3.338-16.907L487.299,369.764
		z M443.199,358.039c0,46.672-37.835,84.507-84.507,84.507s-84.507-37.835-84.507-84.507c0-46.672,37.835-84.507,84.507-84.507
		S443.199,311.367,443.199,358.039z" style="opacity: 1;"></path>
	<path class="st1" d="M351.434,485.338l-0.639-18.592c-0.056-1.617-1.285-2.95-2.893-3.135c-5.566-0.642-11.08-1.731-16.391-3.236
		c-0.296-0.084-0.596-0.125-0.892-0.125c-1.254,0-2.434,0.725-2.975,1.916l-7.695,16.909l-15.828-6.557l6.521-17.411
		c0.566-1.513-0.057-3.212-1.466-4c-4.863-2.719-9.534-5.845-13.885-9.292c-0.597-0.473-1.314-0.706-2.029-0.706
		c-0.804,0-1.606,0.296-2.232,0.879l-13.599,12.696l-12.115-12.115l12.695-13.599c1.103-1.182,1.177-2.993,0.173-4.261
		c-3.447-4.352-6.573-9.023-9.291-13.886c-0.592-1.059-1.699-1.674-2.855-1.674c-0.382,0-0.77,0.068-1.146,0.208l-17.412,6.521
		l-6.556-15.828l16.908-7.694c1.471-0.669,2.232-2.312,1.791-3.866c-1.504-5.311-2.593-10.826-3.236-16.391
		c-0.185-1.607-1.518-2.837-3.135-2.893l-18.592-0.639v-17.132l18.592-0.639c1.617-0.056,2.95-1.285,3.135-2.893
		c0.643-5.565,1.731-11.08,3.236-16.391c0.44-1.554-0.321-3.197-1.791-3.866l-16.908-7.694l6.556-15.828l17.412,6.52
		c0.376,0.141,0.764,0.208,1.146,0.208c1.156,0,2.262-0.615,2.855-1.674c2.718-4.861,5.844-9.533,9.291-13.885
		c1.004-1.268,0.93-3.079-0.173-4.261l-12.695-13.6l12.115-12.114l13.599,12.696c0.626,0.584,1.427,0.879,2.232,0.879
		c0.715,0,1.433-0.234,2.029-0.706c4.351-3.446,9.023-6.573,13.885-9.292c1.41-0.789,2.033-2.488,1.466-4l-6.521-17.411
		l15.828-6.557l7.695,16.909c0.542,1.19,1.721,1.916,2.975,1.916c0.296,0,0.595-0.04,0.892-0.125
		c5.31-1.504,10.824-2.593,16.391-3.236c1.607-0.186,2.837-1.518,2.892-3.135l0.639-18.591h17.133l0.639,18.591
		c0.056,1.617,1.285,2.949,2.892,3.135c5.567,0.643,11.082,1.732,16.391,3.236c0.296,0.084,0.596,0.125,0.892,0.125
		c1.254,0,2.434-0.725,2.975-1.916l7.695-16.909l15.829,6.557l-6.521,17.411c-0.566,1.513,0.056,3.213,1.466,4
		c4.862,2.718,9.534,5.845,13.885,9.292c0.597,0.473,1.314,0.706,2.029,0.706c0.804,0,1.606-0.296,2.232-0.879l13.599-12.696
		l12.115,12.114l-12.695,13.6c-1.103,1.182-1.177,2.993-0.173,4.261c3.447,4.353,6.573,9.025,9.291,13.885
		c0.592,1.059,1.699,1.674,2.855,1.674c0.382,0,0.769-0.068,1.146-0.208l17.412-6.52l6.556,15.828l-16.908,7.694
		c-1.471,0.669-2.232,2.312-1.791,3.866c1.505,5.313,2.593,10.828,3.236,16.391c0.186,1.607,1.518,2.837,3.135,2.893l18.591,0.639
		v17.132l-18.591,0.639c-1.617,0.056-2.95,1.285-3.135,2.893c-0.643,5.564-1.731,11.079-3.236,16.391
		c-0.44,1.554,0.321,3.197,1.791,3.866l16.908,7.694l-6.556,15.828l-17.412-6.521c-0.376-0.141-0.763-0.208-1.146-0.208
		c-1.156,0-2.262,0.615-2.855,1.674c-2.719,4.863-5.844,9.535-9.291,13.886c-1.004,1.268-0.93,3.079,0.173,4.261l12.695,13.599
		l-12.115,12.115l-13.599-12.696c-0.626-0.584-1.427-0.879-2.232-0.879c-0.715,0-1.433,0.234-2.029,0.706
		c-4.352,3.447-9.023,6.573-13.885,9.292c-1.41,0.788-2.033,2.488-1.466,4l6.521,17.411l-15.829,6.557l-7.695-16.909
		c-0.542-1.19-1.721-1.916-2.975-1.916c-0.296,0-0.595,0.04-0.892,0.125c-5.311,1.504-10.825,2.593-16.391,3.236
		c-1.607,0.185-2.837,1.518-2.893,3.135l-0.639,18.592H351.434z M360,272.224c-48.4,0-87.776,39.377-87.776,87.776
		S311.6,447.776,360,447.776c48.4,0,87.776-39.376,87.776-87.776S408.4,272.224,360,272.224z" style="opacity: 1;"></path>
	<path class="st0" d="M330.83,595.861l-10.018-44.773h-33.695l9.254-24.581h36.42v-16.68h-96.131v16.68h41.888l-9.254,24.581
		h-25.611v16.68h19.332l-10.576,28.093h-25.437v16.68h122.908v-16.68H330.83z M280.837,567.768h26.614l6.286,28.093h-43.476
		L280.837,567.768z" style="opacity: 1;"></path>
	<path class="st0" d="M388.538,509.825v102.716h18.884v-33.8h78.564v33.8h18.884V509.825H388.538z M407.422,526.506h29.84v35.555
		h-29.84V526.506z M485.986,562.061h-29.84v-35.555h29.84V562.061z" style="opacity: 1;"></path>
	<path class="st1" d="M177.689,382.925c-0.418-8.755-0.602-19.008-0.15-29.705c-1.242,12.09-1.066,23.807,0.235,35.446
		C177.715,386.861,177.689,384.945,177.689,382.925z M288.18,186.279c-9.704,3.4-22.323,13.104-30.575,13.104
		c-8.252,0-92.294,41.501-96.498,145.225c-0.098,2.491-0.163,4.963-0.176,7.408v0.046c-0.373,42.397,10.854,77.7,20.669,98.408
		h16.89c0,0-58.391-137.11,73.083-236.996c32.595,7.866,72.946,9.076,98.068-25.933c0.333-0.458,0.66-0.922,0.981-1.393
		C370.62,186.149,319.73,198.415,288.18,186.279z M264.883,210.839c-0.68,0.36-44.215,23.827-70.925,83.722
		c-9.403,21.087-14.542,40.305-16.419,58.659c-1.242,12.09-1.066,23.807,0.235,35.446c0.157,1.425,0.333,2.851,0.53,4.276
		c0.006,0.02,0.006,0.039,0.006,0.059c2.387,17.648,7.291,35.191,13.699,53.663c-0.255,0.262-1.144,0.347-2.217,0.347
		c-2.145,0-5.015-0.347-5.015-0.347s-40.514-92.013,2.982-172.249C217.719,219.137,255.382,206,255.382,206l0.157,0.078l9.35,4.754
		C264.889,210.832,264.889,210.832,264.883,210.839z M305.599,211.29c-22.467,0.66-36.342-6.938-33.04-6.938
		c3.302,0,14.869-6.277,15.196-7.931c13.548,4.623,51.538,5.283,57.155,1.981C343.262,200.717,328.06,210.63,305.599,211.29z" style="opacity: 1;"></path>
	<path class="st1" d="M378.806,102.071l-7.587-4.411l-0.667-1.412l-20.732,17.21c-16.347-0.471-36.46,2.249-36.46,2.249
		c11.279-22.99,37.048-39.533,53.022-45.895c1.229-0.497,2.406-0.928,3.511-1.295c-13.077-2.805-38.774,0.471-56.534,13.084
		c-17.753,12.613-26.318,38.493-26.318,38.493c-34.877,13.509-89.803,31.386-134.266,129.473
		c-12.574,27.731-18.021,55.847-19.368,81.904c-3.42,66.1,19.551,118.998,19.551,118.998h12.509c0,0-39.272-80.577-6.578-175.8
		c32.687-95.223,91.902-127.433,145.441-140.229c3.315-5.211,7.578-10.822,7.578-10.822s27.011-3.224,39.154-2.23
		c1.491,0.118,9.154,11.456,9.154,11.456l4.557-5.493l-8.01-10.677l13.601-12.182C370.365,104.493,375.53,99.737,378.806,102.071z
		 M307.378,116.629l-12.306,1.759c0,0,9.494-21.094,22.506-31.647c13.012-10.547,30.594-11.953,30.594-11.953
		S327.426,82.876,307.378,116.629z" style="opacity: 1;"></path>
	<g>
		<path class="st1" d="M410.077,98.421c-0.474,8.164-9.876,14.26-21.004,13.614c-11.124-0.646-19.762-7.788-19.288-15.952
			c0.071-1.228,0.345-2.406,0.797-3.525c2.542-6.318,10.756-10.638,20.207-10.09c9.27,0.538,16.814,5.586,18.796,11.978
			C409.981,95.727,410.156,97.061,410.077,98.421z" style="opacity: 1;"></path>
		<path class="st1" d="M388.802,100.721c-5.222,0.309-3.399-6.363,0.376-6.486c3.775-0.123,21.285-0.82,27.533,3.653
			C422.96,102.361,400.488,100.029,388.802,100.721z" style="opacity: 1;"></path>
		<path class="st0" d="M409.585,94.447c-0.429,0.045-0.954-0.227-1.557-0.927c-3.173-3.685-9.802-7.164-17.675-7.621
			c-7.87-0.457-13.569,1.558-15.993,4.417c-1.653,1.949-2.968,2.642-3.778,2.242c2.542-6.318,10.756-10.638,20.207-10.09
			C400.059,83.007,407.603,88.055,409.585,94.447z" style="opacity: 1;"></path>
		<path class="st0" d="M407.552,96.805c-3.421-0.533-24.921-1.53-27.817-1.88c-2.896-0.35-3.963-1.018,0.365-1.708
			c7.315-1.165,21.048,0.148,29.93,2.299C415.524,96.848,416.115,98.138,407.552,96.805z" style="opacity: 1;"></path>
		<path class="st0" d="M408.31,100.95c0,0-26.702-2.649-28.469-1.966c-1.767,0.683,1.363,0.864,3.371,1.452
			S401.112,103.202,408.31,100.95z" style="opacity: 1;"></path>
	</g>
	<g>
		<path class="st1" d="M455.381,107.006c-2.707,7.717-13.426,10.983-23.944,7.293c-10.514-3.688-16.848-12.936-14.14-20.653
			c0.407-1.161,0.995-2.218,1.738-3.168c4.186-5.372,13.273-7.259,22.206-4.125c8.762,3.074,14.621,10.007,14.764,16.698
			C456.032,104.39,455.833,105.72,455.381,107.006z" style="opacity: 1;"></path>
		<path class="st1" d="M434.297,103.349c-5.105-1.143-1.512-7.053,2.151-6.131c3.663,0.922,20.685,5.082,25.458,11.105
			C466.678,114.346,445.721,105.907,434.297,103.349z" style="opacity: 1;"></path>
		<path class="st0" d="M456.005,103.051c-0.425-0.075-0.855-0.481-1.241-1.321c-2.034-4.417-7.446-9.589-14.888-12.2
			c-7.438-2.609-13.473-2.245-16.591-0.165c-2.126,1.417-3.582,1.721-4.25,1.113c4.186-5.372,13.273-7.259,22.206-4.125
			C450.003,89.427,455.862,96.36,456.005,103.051z" style="opacity: 1;"></path>
		<path class="st0" d="M453.4,104.756c-3.142-1.455-23.533-8.344-26.22-9.479s-3.529-2.072,0.822-1.541
			c7.353,0.898,20.191,5.947,28.135,10.465C461.051,106.996,461.263,108.399,453.4,104.756z" style="opacity: 1;"></path>
		<path class="st0" d="M452.985,108.949c0,0-24.936-9.91-26.823-9.742c-1.887,0.169,1.072,1.207,2.84,2.325
			C430.77,102.651,445.445,109.128,452.985,108.949z" style="opacity: 1;"></path>
	</g>
	<g>
		<path class="st1" d="M500.927,117.494c-2.593,7.391-12.859,10.519-22.933,6.985c-10.07-3.532-16.136-12.39-13.543-19.781
			c0.39-1.112,0.953-2.124,1.664-3.034c4.009-5.145,12.712-6.952,21.268-3.951c8.392,2.944,14.004,9.584,14.14,15.992
			C501.55,114.989,501.359,116.262,500.927,117.494z" style="opacity: 1;"></path>
		<path class="st1" d="M480.733,113.992c-4.889-1.095-1.448-6.755,2.06-5.872s19.811,4.867,24.382,10.636
			S491.674,116.442,480.733,113.992z" style="opacity: 1;"></path>
		<path class="st0" d="M501.524,113.706c-0.407-0.072-0.818-0.461-1.189-1.265c-1.948-4.231-7.131-9.184-14.259-11.684
			c-7.124-2.499-12.903-2.15-15.891-0.158c-2.036,1.357-3.431,1.649-4.07,1.066c4.009-5.145,12.712-6.952,21.268-3.951
			C495.776,100.658,501.387,107.298,501.524,113.706z" style="opacity: 1;"></path>
		<path class="st0" d="M499.029,115.34c-3.009-1.394-22.538-7.991-25.112-9.079c-2.574-1.088-3.38-1.984,0.787-1.476
			c7.042,0.86,19.338,5.696,26.946,10.023C506.357,117.484,506.56,118.829,499.029,115.34z" style="opacity: 1;"></path>
		<path class="st0" d="M498.632,119.355c0,0-23.883-9.492-25.69-9.33s1.027,1.156,2.72,2.227S491.41,119.527,498.632,119.355z" style="opacity: 1;"></path>
	</g>
	<g>
		<path class="st1" d="M533.35,145.956c-4.623,6.323-15.355,6.341-23.973,0.04c-8.614-6.299-11.853-16.534-7.23-22.856
			c0.695-0.951,1.528-1.757,2.472-2.422c5.328-3.763,14.181-2.97,21.5,2.382c7.179,5.25,10.626,13.231,8.899,19.404
			C534.672,143.738,534.12,144.902,533.35,145.956z" style="opacity: 1;"></path>
		<path class="st1" d="M515.037,136.752c-4.362-2.464,0.572-6.885,3.673-5.023c3.101,1.862,17.551,10.399,20.254,17.245
			S524.799,142.267,515.037,136.752z" style="opacity: 1;"></path>
		<path class="st0" d="M535.019,142.503c-0.369-0.187-0.65-0.678-0.771-1.555c-0.639-4.614-4.164-10.857-10.261-15.315
			c-6.094-4.456-11.727-5.797-15.163-4.756c-2.342,0.709-3.761,0.584-4.204-0.159c5.328-3.763,14.181-2.97,21.5,2.382
			C533.299,128.349,536.745,136.33,535.019,142.503z" style="opacity: 1;"></path>
		<path class="st0" d="M532.158,143.344c-2.476-2.206-19.256-14.179-21.404-15.966c-2.148-1.787-2.659-2.879,1.181-1.184
			c6.491,2.864,16.857,11.055,22.886,17.401C538.55,147.52,538.355,148.866,532.158,143.344z" style="opacity: 1;"></path>
		<path class="st0" d="M530.614,147.072c0,0-20.107-16.005-21.884-16.374c-1.777-0.369,0.648,1.404,1.958,2.92
			C511.998,135.133,523.652,145.144,530.614,147.072z" style="opacity: 1;"></path>
	</g>
	<g>
		<path class="st1" d="M571.56,169.553c-3.461,7.027-14.028,8.9-23.605,4.183c-9.573-4.715-14.532-14.236-11.071-21.263
			c0.521-1.057,1.201-1.994,2.017-2.813c4.598-4.627,13.454-5.377,21.588-1.37c7.978,3.93,12.752,11.195,12.119,17.574
			C572.479,167.14,572.137,168.382,571.56,169.553z" style="opacity: 1;"></path>
		<path class="st1" d="M551.932,163.653c-4.722-1.673-0.627-6.88,2.75-5.582s19.084,7.21,22.93,13.485
			C581.457,177.83,562.501,167.398,551.932,163.653z" style="opacity: 1;"></path>
		<path class="st0" d="M572.607,165.864c-0.395-0.12-0.757-0.556-1.028-1.398c-1.426-4.434-5.977-9.974-12.754-13.311
			c-6.773-3.336-12.552-3.683-15.757-2.064c-2.184,1.103-3.604,1.225-4.169,0.57c4.598-4.627,13.454-5.377,21.588-1.37
			C568.467,152.22,573.241,159.486,572.607,165.864z" style="opacity: 1;"></path>
		<path class="st0" d="M569.934,167.186c-2.82-1.745-21.417-10.638-23.841-12.027c-2.425-1.389-3.117-2.376,0.958-1.37
			c6.888,1.699,18.514,7.976,25.549,13.184C576.952,170.195,576.992,171.554,569.934,167.186z" style="opacity: 1;"></path>
		<path class="st0" d="M569.058,171.125c0,0-22.571-12.289-24.384-12.346c-1.814-0.056,0.881,1.271,2.433,2.537
			S561.868,170.429,569.058,171.125z" style="opacity: 1;"></path>
	</g>
	<g>
		<path class="st1" d="M587.538,209.198c-6.092,4.132-15.595,0.752-21.227-7.551c-5.63-8.3-5.257-18.383,0.835-22.515
			c0.916-0.622,1.908-1.071,2.954-1.361c5.906-1.644,13.49,1.859,18.273,8.912c4.692,6.918,5.216,15.071,1.734,19.987
			C589.41,207.654,588.553,208.509,587.538,209.198z" style="opacity: 1;"></path>
		<path class="st1" d="M574.245,195.258c-3.08-3.561,2.685-5.912,4.84-3.283c2.155,2.629,12.24,14.757,12.466,21.671
			S581.138,203.228,574.245,195.258z" style="opacity: 1;"></path>
		<path class="st0" d="M590.107,206.67c-0.267-0.282-0.36-0.806-0.19-1.62c0.895-4.285-0.249-10.925-4.234-16.8
			c-3.983-5.872-8.543-8.841-11.913-9.007c-2.297-0.114-3.513-0.674-3.67-1.472c5.906-1.644,13.49,1.859,18.273,8.912
			C593.065,193.6,593.589,201.754,590.107,206.67z" style="opacity: 1;"></path>
		<path class="st0" d="M587.31,206.509c-1.493-2.736-12.553-18.642-13.888-20.903c-1.336-2.261-1.443-3.389,1.42-0.674
			c4.838,4.588,11.419,15.118,14.746,22.642C591.644,212.228,591.046,213.357,587.31,206.509z" style="opacity: 1;"></path>
		<path class="st0" d="M584.764,209.319c0,0-12.729-20.527-14.184-21.416s0.129,1.447,0.808,3.203
			C572.068,192.863,579.213,205.41,584.764,209.319z" style="opacity: 1;"></path>
	</g>
	<g>
		<path class="st1" d="M607.311,252.303c-6.209,4.775-16.517,1.787-23.025-6.676c-6.505-8.459-6.748-19.192-0.539-23.967
			c0.934-0.718,1.958-1.259,3.052-1.632c6.169-2.12,14.445,1.12,19.973,8.308c5.422,7.05,6.495,15.677,3.109,21.12
			C609.202,250.545,608.346,251.507,607.311,252.303z" style="opacity: 1;"></path>
		<path class="st1" d="M592.309,238.339c-3.497-3.587,2.477-6.45,4.933-3.793s13.936,14.899,14.614,22.227
			C612.534,264.102,600.136,246.368,592.309,238.339z" style="opacity: 1;"></path>
		<path class="st0" d="M609.88,249.456c-0.302-0.282-0.434-0.833-0.305-1.709c0.679-4.608-0.957-11.588-5.561-17.576
			c-4.602-5.985-9.634-8.849-13.224-8.812c-2.447,0.025-3.774-0.493-3.992-1.33c6.169-2.12,14.445,1.12,19.973,8.308
			C612.193,235.387,613.266,244.014,609.88,249.456z" style="opacity: 1;"></path>
		<path class="st0" d="M606.898,249.462c-1.759-2.811-14.514-19.005-16.076-21.322c-1.562-2.317-1.747-3.508,1.465-0.806
			c5.429,4.567,13.086,15.334,17.096,23.114C611.865,255.261,611.301,256.498,606.898,249.462z" style="opacity: 1;"></path>
		<path class="st0" d="M604.372,252.608c0,0-14.82-20.996-16.422-21.848c-1.602-0.852,0.229,1.529,1.062,3.351
			C589.845,235.934,598.229,248.808,604.372,252.608z" style="opacity: 1;"></path>
	</g>
	<g>
		<path class="st1" d="M593.482,329.023c-7.481-0.27-13.247-8.753-12.879-18.95c0.368-10.193,6.732-18.241,14.213-17.97
			c1.125,0.041,2.209,0.267,3.241,0.659c5.833,2.2,9.95,9.63,9.637,18.291c-0.307,8.494-4.776,15.499-10.586,17.441
			C595.945,328.881,594.729,329.068,593.482,329.023z" style="opacity: 1;"></path>
		<path class="st1" d="M590.952,309.599c-0.387-4.772,5.755-3.237,5.943,0.215c0.188,3.452,1.176,19.462-2.793,25.27
			C590.134,340.891,591.818,320.279,590.952,309.599z" style="opacity: 1;"></path>
		<path class="st0" d="M597.109,328.493c-0.05-0.392,0.189-0.878,0.817-1.443c3.309-2.978,6.36-9.113,6.621-16.327
			c0.261-7.211-1.697-12.387-4.362-14.548c-1.816-1.474-2.478-2.664-2.127-3.413c5.833,2.2,9.95,9.63,9.637,18.291
			C607.388,319.547,602.919,326.551,597.109,328.493z" style="opacity: 1;"></path>
		<path class="st0" d="M594.91,326.679c0.419-3.142,0.902-22.837,1.165-25.494c0.263-2.658,0.853-3.647,1.57,0.3
			c1.212,6.671,0.285,19.265-1.506,27.436C595.031,333.976,593.861,334.543,594.91,326.679z" style="opacity: 1;"></path>
		<path class="st0" d="M591.133,327.456c0,0,1.89-24.489,1.23-26.093s-0.764,1.265-1.261,3.114
			C590.604,306.326,588.928,320.913,591.133,327.456z" style="opacity: 1;"></path>
	</g>
	<g>
		<path class="st1" d="M564.024,348.672c-7.103-2.364-10.249-12.127-7.027-21.808c3.221-9.677,11.592-15.61,18.695-13.245
			c1.068,0.356,2.044,0.878,2.925,1.544c4.979,3.752,6.839,12.041,4.102,20.263c-2.685,8.065-8.944,13.529-15.066,13.758
			C566.428,349.229,565.208,349.066,564.024,348.672z" style="opacity: 1;"></path>
		<path class="st1" d="M567.061,329.321c0.971-4.689,6.433-1.487,5.643,1.878c-0.79,3.366-4.347,19.007-9.79,23.463
			C557.472,359.119,564.888,339.814,567.061,329.321z" style="opacity: 1;"></path>
		<path class="st0" d="M567.653,349.184c0.062-0.39,0.428-0.789,1.19-1.155c4.013-1.927,8.667-6.956,10.947-13.805
			c2.279-6.846,1.857-12.364-0.093-15.188c-1.328-1.925-1.628-3.253-1.081-3.873c4.979,3.752,6.839,12.041,4.102,20.263
			C580.034,343.491,573.775,348.956,567.653,349.184z" style="opacity: 1;"></path>
		<path class="st0" d="M566.054,346.825c1.286-2.897,7.291-21.661,8.291-24.137c1-2.476,1.844-3.26,1.422,0.73
			c-0.714,6.743-5.147,18.567-9.164,25.904C564.117,353.861,562.835,354.076,566.054,346.825z" style="opacity: 1;"></path>
		<path class="st0" d="M562.211,346.507c0,0,8.704-22.968,8.522-24.693c-0.182-1.725-1.089,0.999-2.087,2.633
			C567.648,326.082,561.935,339.609,562.211,346.507z" style="opacity: 1;"></path>
	</g>
	<g>
		<path class="st1" d="M560.475,312.3c-7.103-2.364-10.249-12.127-7.027-21.808c3.221-9.677,11.592-15.61,18.695-13.245
			c1.068,0.356,2.044,0.878,2.925,1.544c4.979,3.752,6.839,12.041,4.102,20.263c-2.685,8.065-8.944,13.529-15.066,13.758
			C562.88,312.857,561.659,312.694,560.475,312.3z" style="opacity: 1;"></path>
		<path class="st1" d="M563.512,292.949c0.971-4.689,6.433-1.487,5.643,1.878c-0.79,3.366-4.347,19.007-9.79,23.463
			S561.339,303.442,563.512,292.949z" style="opacity: 1;"></path>
		<path class="st0" d="M564.105,312.813c0.062-0.39,0.428-0.789,1.19-1.155c4.013-1.927,8.667-6.956,10.947-13.805
			c2.279-6.846,1.857-12.364-0.093-15.188c-1.328-1.925-1.628-3.253-1.081-3.873c4.979,3.752,6.839,12.041,4.102,20.263
			C576.486,307.12,570.226,312.584,564.105,312.813z" style="opacity: 1;"></path>
		<path class="st0" d="M562.505,310.454c1.286-2.897,7.291-21.661,8.291-24.137c1-2.476,1.844-3.26,1.422,0.73
			c-0.714,6.743-5.147,18.567-9.164,25.904C560.568,317.489,559.287,317.704,562.505,310.454z" style="opacity: 1;"></path>
		<path class="st0" d="M558.662,310.136c0,0,8.704-22.968,8.522-24.693c-0.182-1.725-1.089,0.999-2.087,2.633
			C564.1,289.711,558.387,303.237,558.662,310.136z" style="opacity: 1;"></path>
	</g>
	<g>
		<path class="st1" d="M557.122,276.799c-7.103-2.364-10.249-12.127-7.027-21.808c3.221-9.677,11.592-15.61,18.695-13.245
			c1.068,0.356,2.044,0.878,2.925,1.544c4.979,3.752,6.839,12.041,4.102,20.263c-2.685,8.065-8.944,13.529-15.066,13.758
			C559.526,277.356,558.306,277.193,557.122,276.799z" style="opacity: 1;"></path>
		<path class="st1" d="M560.159,257.448c0.971-4.689,6.433-1.487,5.643,1.878c-0.79,3.366-4.347,19.007-9.79,23.463
			S557.986,267.941,560.159,257.448z" style="opacity: 1;"></path>
		<path class="st0" d="M560.752,277.312c0.062-0.39,0.428-0.789,1.19-1.155c4.013-1.927,8.667-6.956,10.947-13.805
			c2.279-6.846,1.857-12.364-0.093-15.188c-1.328-1.925-1.628-3.253-1.081-3.873c4.979,3.752,6.839,12.041,4.102,20.263
			C573.133,271.619,566.873,277.083,560.752,277.312z" style="opacity: 1;"></path>
		<path class="st0" d="M559.152,274.953c1.286-2.897,7.291-21.661,8.291-24.137c1-2.476,1.844-3.26,1.422,0.73
			c-0.714,6.743-5.147,18.567-9.164,25.904C557.215,281.988,555.934,282.203,559.152,274.953z" style="opacity: 1;"></path>
		<path class="st0" d="M555.309,274.635c0,0,8.704-22.968,8.522-24.693s-1.089,0.999-2.087,2.633
			C560.747,254.209,555.034,267.736,555.309,274.635z" style="opacity: 1;"></path>
	</g>
	<g>
		<path class="st1" d="M526.517,274.138c-7.103-2.364-10.249-12.127-7.027-21.808c3.221-9.677,11.592-15.61,18.695-13.245
			c1.068,0.356,2.044,0.878,2.925,1.544c4.979,3.752,6.839,12.041,4.102,20.263c-2.685,8.065-8.944,13.529-15.066,13.758
			C528.921,274.695,527.701,274.532,526.517,274.138z" style="opacity: 1;"></path>
		<path class="st1" d="M529.554,254.787c0.971-4.689,6.433-1.487,5.643,1.878c-0.79,3.366-4.347,19.007-9.79,23.463
			C519.965,284.585,527.381,265.28,529.554,254.787z" style="opacity: 1;"></path>
		<path class="st0" d="M530.146,274.65c0.062-0.39,0.428-0.789,1.19-1.155c4.013-1.927,8.667-6.956,10.947-13.805
			c2.279-6.846,1.857-12.364-0.093-15.188c-1.328-1.925-1.628-3.253-1.081-3.873c4.979,3.752,6.839,12.041,4.102,20.263
			C542.527,268.957,536.268,274.422,530.146,274.65z" style="opacity: 1;"></path>
		<path class="st0" d="M528.547,272.291c1.286-2.897,7.291-21.661,8.291-24.137c1-2.476,1.844-3.26,1.422,0.73
			c-0.714,6.743-5.147,18.567-9.164,25.904C526.61,279.327,525.328,279.542,528.547,272.291z" style="opacity: 1;"></path>
		<path class="st0" d="M524.704,271.973c0,0,8.704-22.968,8.522-24.693s-1.089,0.999-2.087,2.633
			C530.141,251.548,524.429,265.075,524.704,271.973z" style="opacity: 1;"></path>
	</g>
	<g>
		<path class="st1" d="M543.34,239.482c-6.92,1.941-14.674-4.128-17.32-13.559c-2.645-9.428,0.819-18.648,7.739-20.589
			c1.041-0.292,2.098-0.402,3.157-0.346c5.977,0.305,11.916,5.895,14.163,13.905c2.204,7.857,0.167,15.569-4.577,19.044
			C545.551,238.631,544.493,239.158,543.34,239.482z" style="opacity: 1;"></path>
		<path class="st1" d="M535.344,222.461c-1.75-4.251,4.315-4.644,5.497-1.542c1.182,3.101,6.769,17.452,4.839,23.923
			S539.261,231.974,535.344,222.461z" style="opacity: 1;"></path>
		<path class="st0" d="M546.501,237.937c-0.16-0.344-0.084-0.858,0.325-1.559c2.154-3.691,3.149-10.193,1.277-16.866
			c-1.871-6.67-5.175-10.83-8.244-12.026c-2.092-0.816-3.045-1.711-2.943-2.498c5.977,0.305,11.916,5.895,14.163,13.905
			C553.283,226.749,551.246,234.462,546.501,237.937z" style="opacity: 1;"></path>
		<path class="st0" d="M543.96,236.921c-0.536-2.995-5.856-21.145-6.393-23.652c-0.537-2.507-0.287-3.584,1.523-0.185
			c3.06,5.745,5.897,17.532,6.649,25.527C546.205,243.558,545.302,244.418,543.96,236.921z" style="opacity: 1;"></path>
		<path class="st0" d="M540.733,238.736c0,0-5.436-22.945-6.508-24.218c-1.073-1.273-0.328,1.38-0.242,3.216
			C534.068,219.57,536.803,233.399,540.733,238.736z" style="opacity: 1;"></path>
	</g>
	<g>
		<path class="st1" d="M573.991,236.641c-6.385,3.299-15.205-1.079-19.702-9.781c-4.495-8.699-2.965-18.429,3.42-21.728
			c0.96-0.496,1.974-0.817,3.022-0.977c5.916-0.909,12.861,3.366,16.68,10.757c3.746,7.25,3.309,15.215-0.636,19.576
			C575.985,235.361,575.055,236.091,573.991,236.641z" style="opacity: 1;"></path>
		<path class="st1" d="M562.722,221.587c-2.573-3.809,3.288-5.42,5.072-2.621c1.784,2.799,10.155,15.724,9.572,22.452
			C576.784,248.146,568.48,230.112,562.722,221.587z" style="opacity: 1;"></path>
		<path class="st0" d="M576.775,234.489c-0.226-0.304-0.256-0.823,0.003-1.592c1.364-4.05,1.025-10.619-2.156-16.777
			c-3.18-6.154-7.256-9.561-10.504-10.113c-2.214-0.377-3.327-1.06-3.387-1.852c5.916-0.909,12.861,3.366,16.68,10.757
			C581.157,222.162,580.72,230.127,576.775,234.489z" style="opacity: 1;"></path>
		<path class="st0" d="M574.082,234.008c-1.13-2.825-10.007-19.526-11.039-21.873c-1.033-2.347-1.005-3.452,1.454-0.489
			c4.158,5.009,9.317,15.979,11.669,23.658C577.621,240.054,576.91,241.079,574.082,234.008z" style="opacity: 1;"></path>
		<path class="st0" d="M571.288,236.438c0,0-9.959-21.374-11.267-22.404c-1.308-1.03-0.043,1.418,0.412,3.199
			S566.361,232.005,571.288,236.438z" style="opacity: 1;"></path>
	</g>
	<g>
		<path class="st1" d="M553.438,203.724c-5.893,4.114-15.214,0.94-20.821-7.092c-5.605-8.029-5.374-17.876,0.519-21.99
			c0.886-0.619,1.848-1.071,2.866-1.367c5.744-1.682,13.193,1.637,17.955,8.459c4.671,6.691,5.29,14.644,1.956,19.489
			C555.245,202.192,554.42,203.039,553.438,203.724z" style="opacity: 1;"></path>
		<path class="st1" d="M540.278,190.291c-3.054-3.436,2.543-5.807,4.682-3.268c2.139,2.538,12.143,14.245,12.455,20.99
			C557.726,214.759,547.112,197.981,540.278,190.291z" style="opacity: 1;"></path>
		<path class="st0" d="M555.913,201.223c-0.265-0.272-0.362-0.782-0.207-1.579c0.817-4.195-0.387-10.662-4.354-16.344
			c-3.965-5.68-8.456-8.518-11.748-8.636c-2.244-0.081-3.438-0.611-3.602-1.388c5.744-1.682,13.193,1.637,17.955,8.459
			C558.628,188.426,559.247,196.378,555.913,201.223z" style="opacity: 1;"></path>
		<path class="st0" d="M553.18,201.102c-1.493-2.651-12.499-18.033-13.833-20.222c-1.334-2.19-1.453-3.289,1.377-0.677
			c4.783,4.415,11.346,14.608,14.693,21.909C557.487,206.628,556.918,207.738,553.18,201.102z" style="opacity: 1;"></path>
		<path class="st0" d="M550.732,203.88c0,0-12.696-19.871-14.128-20.719c-1.432-0.848,0.145,1.411,0.831,3.116
			C538.121,187.982,545.262,200.137,550.732,203.88z" style="opacity: 1;"></path>
	</g>
	<g>
		<path class="st1" d="M524.655,183.336c-5.893,4.114-15.214,0.94-20.821-7.092c-5.605-8.029-5.374-17.876,0.519-21.99
			c0.886-0.619,1.848-1.071,2.866-1.367c5.744-1.682,13.193,1.637,17.955,8.459c4.671,6.691,5.29,14.644,1.956,19.489
			C526.462,181.804,525.637,182.651,524.655,183.336z" style="opacity: 1;"></path>
		<path class="st1" d="M511.495,169.903c-3.054-3.436,2.543-5.807,4.682-3.268s12.143,14.245,12.455,20.99
			C528.943,194.371,518.329,177.593,511.495,169.903z" style="opacity: 1;"></path>
		<path class="st0" d="M527.13,180.835c-0.265-0.272-0.362-0.782-0.207-1.579c0.817-4.195-0.387-10.662-4.354-16.344
			c-3.965-5.68-8.456-8.518-11.748-8.636c-2.244-0.081-3.438-0.611-3.602-1.388c5.744-1.682,13.193,1.637,17.955,8.459
			C529.845,168.038,530.464,175.99,527.13,180.835z" style="opacity: 1;"></path>
		<path class="st0" d="M524.397,180.714c-1.493-2.651-12.499-18.033-13.833-20.222c-1.334-2.19-1.453-3.289,1.377-0.677
			c4.783,4.415,11.346,14.608,14.693,21.909C528.704,186.24,528.135,187.35,524.397,180.714z" style="opacity: 1;"></path>
		<path class="st0" d="M521.949,183.492c0,0-12.696-19.871-14.128-20.719s0.145,1.411,0.831,3.116S516.479,179.749,521.949,183.492z
			" style="opacity: 1;"></path>
	</g>
	<g>
		<path class="st1" d="M515.406,213.469c-7.115,1.012-14.001-6.027-15.38-15.725c-1.379-9.694,3.271-18.377,10.386-19.389
			c1.07-0.152,2.133-0.121,3.175,0.073c5.885,1.091,11.034,7.415,12.206,15.651c1.149,8.079-1.887,15.455-7.049,18.274
			C517.71,212.917,516.591,213.3,515.406,213.469z" style="opacity: 1;"></path>
		<path class="st1" d="M509.724,195.542c-1.175-4.444,4.89-4.034,5.653-0.804c0.763,3.23,4.409,18.192,1.642,24.352
			S512.353,205.489,509.724,195.542z" style="opacity: 1;"></path>
		<path class="st0" d="M518.743,212.354c-0.114-0.362,0.029-0.861,0.528-1.502c2.622-3.375,4.466-9.689,3.49-16.551
			c-0.975-6.858-3.702-11.417-6.587-13.008c-1.966-1.085-2.792-2.097-2.588-2.864c5.885,1.091,11.034,7.415,12.206,15.651
			C526.941,202.158,523.904,209.535,518.743,212.354z" style="opacity: 1;"></path>
		<path class="st0" d="M516.358,211.012c-0.136-3.04-3.017-21.733-3.219-24.289c-0.202-2.556,0.188-3.591,1.534,0.017
			c2.276,6.099,3.533,18.156,3.225,26.181C517.708,217.887,516.7,218.621,516.358,211.012z" style="opacity: 1;"></path>
		<path class="st0" d="M512.92,212.386c0,0-2.363-23.462-3.258-24.865c-0.895-1.403-0.507,1.325-0.664,3.156
			C508.841,192.509,509.728,206.577,512.92,212.386z" style="opacity: 1;"></path>
	</g>
	<g>
		<path class="st1" d="M486.023,196.079c-7.115,1.012-14.001-6.027-15.38-15.725c-1.379-9.694,3.271-18.377,10.386-19.389
			c1.07-0.152,2.133-0.121,3.175,0.073c5.885,1.091,11.034,7.415,12.206,15.651c1.149,8.079-1.887,15.455-7.049,18.274
			C488.327,195.527,487.209,195.91,486.023,196.079z" style="opacity: 1;"></path>
		<path class="st1" d="M480.341,178.153c-1.175-4.444,4.89-4.034,5.653-0.804c0.763,3.23,4.409,18.192,1.642,24.352
			C484.87,207.861,482.97,188.099,480.341,178.153z" style="opacity: 1;"></path>
		<path class="st0" d="M489.36,194.964c-0.113-0.362,0.03-0.861,0.528-1.502c2.622-3.375,4.466-9.689,3.49-16.551
			c-0.975-6.858-3.702-11.417-6.587-13.008c-1.966-1.085-2.792-2.097-2.588-2.864c5.885,1.091,11.034,7.415,12.206,15.651
			C497.558,184.768,494.522,192.145,489.36,194.964z" style="opacity: 1;"></path>
		<path class="st0" d="M486.976,193.623c-0.136-3.04-3.017-21.733-3.219-24.289c-0.202-2.556,0.188-3.591,1.534,0.017
			c2.276,6.099,3.533,18.156,3.225,26.181C488.326,200.497,487.317,201.231,486.976,193.623z" style="opacity: 1;"></path>
		<path class="st0" d="M483.538,194.996c0,0-2.363-23.462-3.258-24.865c-0.895-1.403-0.507,1.325-0.664,3.156
			C479.458,175.119,480.346,189.188,483.538,194.996z" style="opacity: 1;"></path>
	</g>
	<g>
		<path class="st1" d="M497.964,154.382c-4.247,5.797-14.095,5.805-21.996,0.016c-7.898-5.787-10.862-15.18-6.614-20.978
			c0.639-0.872,1.403-1.611,2.271-2.22c4.892-3.448,13.014-2.713,19.725,2.204c6.583,4.823,9.738,12.149,8.149,17.811
			C499.179,152.348,498.671,153.416,497.964,154.382z" style="opacity: 1;"></path>
		<path class="st1" d="M481.169,145.921c-4-2.265,0.53-6.317,3.374-4.606s16.095,9.557,18.569,15.84
			C505.587,163.439,490.121,150.99,481.169,145.921z" style="opacity: 1;"></path>
		<path class="st0" d="M499.498,151.215c-0.338-0.172-0.596-0.623-0.706-1.427c-0.582-4.234-3.811-9.965-9.402-14.061
			c-5.588-4.094-10.755-5.329-13.908-4.377c-2.15,0.649-3.451,0.532-3.858-0.15c4.892-3.448,13.014-2.713,19.725,2.204
			C497.932,138.227,501.087,145.553,499.498,151.215z" style="opacity: 1;"></path>
		<path class="st0" d="M496.872,151.984c-2.27-2.026-17.656-13.027-19.625-14.668c-1.97-1.641-2.438-2.643,1.085-1.086
			c5.953,2.633,15.458,10.158,20.984,15.986C502.733,155.821,502.553,157.056,496.872,151.984z" style="opacity: 1;"></path>
		<path class="st0" d="M495.452,155.403c0,0-18.435-14.703-20.065-15.043c-1.63-0.34,0.593,1.289,1.794,2.681
			C478.382,144.433,489.067,153.628,495.452,155.403z" style="opacity: 1;"></path>
	</g>
	<g>
		<path class="st1" d="M464.383,143.588c-4.247,5.797-14.095,5.805-21.996,0.016c-7.898-5.787-10.862-15.18-6.614-20.978
			c0.639-0.872,1.403-1.61,2.271-2.22c4.892-3.448,13.014-2.713,19.725,2.204c6.583,4.823,9.738,12.149,8.149,17.811
			C465.598,141.554,465.091,142.622,464.383,143.588z" style="opacity: 1;"></path>
		<path class="st1" d="M447.589,135.128c-4-2.265,0.53-6.317,3.374-4.606c2.844,1.711,16.095,9.557,18.569,15.84
			C472.007,152.645,456.541,140.197,447.589,135.128z" style="opacity: 1;"></path>
		<path class="st0" d="M465.918,140.421c-0.338-0.172-0.596-0.623-0.706-1.427c-0.582-4.234-3.811-9.965-9.402-14.061
			c-5.588-4.094-10.755-5.329-13.908-4.377c-2.15,0.649-3.451,0.532-3.858-0.15c4.892-3.448,13.014-2.713,19.725,2.204
			C464.351,127.433,467.507,134.759,465.918,140.421z" style="opacity: 1;"></path>
		<path class="st0" d="M463.292,141.19c-2.27-2.026-17.656-13.027-19.625-14.668c-1.97-1.641-2.438-2.643,1.085-1.086
			c5.953,2.633,15.458,10.158,20.984,15.986C469.153,145.028,468.973,146.262,463.292,141.19z" style="opacity: 1;"></path>
		<path class="st0" d="M461.872,144.61c0,0-18.435-14.703-20.065-15.043s0.593,1.289,1.794,2.681
			C444.801,133.64,455.486,142.835,461.872,144.61z" style="opacity: 1;"></path>
	</g>
	<g>
		<path class="st1" d="M450.068,231.285c-6.728,2.528-14.974-2.855-18.418-12.024c-3.444-9.166-0.783-18.65,5.945-21.177
			c1.012-0.38,2.056-0.58,3.115-0.615c5.981-0.209,12.377,4.851,15.303,12.639c2.87,7.639,1.502,15.498-2.927,19.367
			C452.198,230.248,451.189,230.864,450.068,231.285z" style="opacity: 1;"></path>
		<path class="st1" d="M440.642,215.013c-2.108-4.085,3.901-4.997,5.345-2.008s8.24,16.807,6.873,23.42
			C451.492,243.038,445.36,224.154,440.642,215.013z" style="opacity: 1;"></path>
		<path class="st0" d="M453.085,229.474c-0.189-0.329-0.158-0.847,0.19-1.581c1.83-3.862,2.264-10.426-0.174-16.914
			c-2.436-6.485-6.085-10.346-9.245-11.275c-2.154-0.634-3.18-1.443-3.147-2.236c5.981-0.209,12.377,4.851,15.303,12.639
			C458.883,217.747,457.514,225.605,453.085,229.474z" style="opacity: 1;"></path>
		<path class="st0" d="M450.467,228.681c-0.791-2.938-7.648-20.565-8.398-23.017c-0.75-2.452-0.594-3.547,1.502-0.315
			c3.542,5.462,7.378,16.961,8.814,24.863C453.272,235.1,452.446,236.035,450.467,228.681z" style="opacity: 1;"></path>
		<path class="st0" d="M447.407,230.766c0,0-7.383-22.395-8.561-23.571c-1.178-1.176-0.209,1.403,0.034,3.225
			S443.034,225.785,447.407,230.766z" style="opacity: 1;"></path>
	</g>
	<g>
		<path class="st1" d="M436.276,197.105c-6.728,2.528-14.974-2.855-18.419-12.024c-3.444-9.166-0.783-18.65,5.945-21.177
			c1.012-0.38,2.056-0.58,3.115-0.615c5.981-0.209,12.377,4.851,15.303,12.639c2.87,7.639,1.501,15.498-2.927,19.367
			C438.406,196.068,437.397,196.684,436.276,197.105z" style="opacity: 1;"></path>
		<path class="st1" d="M426.85,180.833c-2.108-4.085,3.901-4.997,5.345-2.008c1.444,2.989,8.24,16.807,6.873,23.42
			C437.7,208.858,431.569,189.975,426.85,180.833z" style="opacity: 1;"></path>
		<path class="st0" d="M439.293,195.294c-0.189-0.329-0.158-0.847,0.19-1.581c1.83-3.862,2.264-10.426-0.174-16.914
			c-2.436-6.485-6.085-10.346-9.245-11.275c-2.154-0.634-3.18-1.443-3.147-2.236c5.981-0.209,12.377,4.851,15.303,12.639
			C445.091,183.567,443.722,191.425,439.293,195.294z" style="opacity: 1;"></path>
		<path class="st0" d="M436.675,194.501c-0.791-2.938-7.648-20.565-8.398-23.017c-0.75-2.452-0.594-3.547,1.502-0.315
			c3.542,5.462,7.378,16.961,8.814,24.863C439.48,200.92,438.654,201.855,436.675,194.501z" style="opacity: 1;"></path>
		<path class="st0" d="M433.615,196.586c0,0-7.383-22.395-8.561-23.571s-0.209,1.403,0.034,3.225
			C425.331,178.062,429.242,191.605,433.615,196.586z" style="opacity: 1;"></path>
	</g>
	<g>
		<path class="st1" d="M407.574,186.496c-6.728,2.528-14.974-2.855-18.418-12.024c-3.444-9.166-0.783-18.65,5.945-21.177
			c1.012-0.38,2.056-0.58,3.115-0.615c5.981-0.209,12.377,4.851,15.303,12.639c2.87,7.639,1.501,15.498-2.927,19.367
			C409.704,185.458,408.695,186.074,407.574,186.496z" style="opacity: 1;"></path>
		<path class="st1" d="M398.148,170.223c-2.108-4.085,3.901-4.997,5.345-2.008c1.444,2.989,8.24,16.807,6.873,23.42
			C408.998,198.248,402.867,179.365,398.148,170.223z" style="opacity: 1;"></path>
		<path class="st0" d="M410.591,184.685c-0.189-0.329-0.158-0.847,0.19-1.581c1.83-3.862,2.264-10.426-0.174-16.914
			c-2.436-6.485-6.085-10.346-9.245-11.275c-2.154-0.634-3.18-1.443-3.147-2.236c5.981-0.209,12.377,4.851,15.303,12.639
			C416.389,172.957,415.02,180.816,410.591,184.685z" style="opacity: 1;"></path>
		<path class="st0" d="M407.973,183.891c-0.791-2.938-7.648-20.565-8.398-23.017c-0.75-2.452-0.594-3.547,1.502-0.315
			c3.542,5.462,7.378,16.961,8.814,24.863C410.778,190.311,409.952,191.245,407.973,183.891z" style="opacity: 1;"></path>
		<path class="st0" d="M404.913,185.976c0,0-7.383-22.395-8.561-23.571c-1.178-1.176-0.209,1.403,0.034,3.225
			S400.54,180.996,404.913,185.976z" style="opacity: 1;"></path>
	</g>
	<g>
		<path class="st1" d="M387.574,152.489c-4.709,5.429-14.524,4.628-21.923-1.791c-7.396-6.416-9.578-16.022-4.868-21.45
			c0.708-0.817,1.531-1.49,2.445-2.026c5.159-3.034,13.193-1.635,19.478,3.817c6.164,5.347,8.707,12.908,6.658,18.42
			C388.952,150.562,388.359,151.584,387.574,152.489z" style="opacity: 1;"></path>
		<path class="st1" d="M371.532,142.677c-3.801-2.586,1.048-6.252,3.741-4.313c2.694,1.939,15.255,10.847,17.205,17.312
			S380.037,148.464,371.532,142.677z" style="opacity: 1;"></path>
		<path class="st0" d="M389.364,149.459c-0.323-0.199-0.542-0.67-0.586-1.481c-0.232-4.267-2.98-10.244-8.215-14.786
			c-5.233-4.539-10.28-6.195-13.502-5.505c-2.196,0.47-3.484,0.247-3.832-0.466c5.159-3.034,13.193-1.635,19.478,3.817
			C388.87,136.386,391.413,143.946,389.364,149.459z" style="opacity: 1;"></path>
		<path class="st0" d="M386.683,150.009c-2.096-2.206-16.526-14.433-18.354-16.231c-1.828-1.798-2.212-2.835,1.17-0.993
			c5.717,3.113,14.571,11.394,19.599,17.656C392.21,154.315,391.929,155.531,386.683,150.009z" style="opacity: 1;"></path>
		<path class="st0" d="M384.988,153.3c0,0-17.165-16.168-18.761-16.64c-1.596-0.473,0.485,1.333,1.567,2.819
			C368.876,140.965,378.769,151.007,384.988,153.3z" style="opacity: 1;"></path>
	</g>
	<g>
		<path class="st1" d="M441.074,154.578c-1.835,6.948-10.998,10.554-20.469,8.053c-9.467-2.5-15.658-10.162-13.823-17.11
			c0.276-1.045,0.718-2.012,1.302-2.896c3.294-4.997,11.123-7.281,19.166-5.157c7.89,2.084,13.504,7.75,14.094,13.602
			C441.462,152.241,441.379,153.42,441.074,154.578z" style="opacity: 1;"></path>
		<path class="st1" d="M422.349,152.839c-4.551-0.647-1.815-6.074,1.458-5.52s18.474,3.015,23.073,7.959
			C451.48,160.223,432.534,154.286,422.349,152.839z" style="opacity: 1;"></path>
		<path class="st0" d="M441.345,151.069c-0.377-0.036-0.782-0.362-1.179-1.071c-2.089-3.728-7.189-7.883-13.89-9.653
			c-6.698-1.769-11.958-1.031-14.546,1.008c-1.764,1.389-3.018,1.757-3.646,1.27c3.294-4.997,11.123-7.281,19.166-5.157
			C435.141,139.551,440.755,145.218,441.345,151.069z" style="opacity: 1;"></path>
		<path class="st0" d="M439.181,152.745c-2.853-1.057-21.195-5.674-23.628-6.482c-2.433-0.808-3.235-1.57,0.613-1.407
			c6.504,0.276,18.101,3.807,25.374,7.212C446.04,154.175,446.323,155.389,439.181,152.745z" style="opacity: 1;"></path>
		<path class="st0" d="M439.109,156.446c0,0-22.533-6.949-24.174-6.67s1.023,0.983,2.649,1.84
			C419.211,152.473,432.517,157.127,439.109,156.446z" style="opacity: 1;"></path>
	</g>
	<g>
		<path class="st1" d="M427.76,131.912c-2.874,6.587-12.48,8.753-21.458,4.836c-8.975-3.915-13.925-12.431-11.051-19.018
			c0.432-0.991,1.016-1.879,1.729-2.664c4.017-4.436,12.103-5.5,19.729-2.173c7.48,3.263,12.164,9.719,11.854,15.592
			C428.5,129.662,428.239,130.814,427.76,131.912z" style="opacity: 1;"></path>
		<path class="st1" d="M409.52,127.338c-4.399-1.333-0.867-6.28,2.283-5.233s17.798,5.797,21.589,11.385
			C437.184,139.078,419.365,130.322,409.52,127.338z" style="opacity: 1;"></path>
		<path class="st0" d="M428.563,128.486c-0.367-0.093-0.718-0.477-1.002-1.238c-1.496-4.003-5.902-8.887-12.255-11.659
			c-6.349-2.77-11.661-2.843-14.53-1.222c-1.955,1.104-3.251,1.276-3.797,0.699c4.017-4.436,12.103-5.5,19.729-2.173
			C424.189,116.157,428.873,122.613,428.563,128.486z" style="opacity: 1;"></path>
		<path class="st0" d="M426.17,129.812c-2.659-1.48-20.081-8.841-22.363-10.01c-2.281-1.17-2.958-2.045,0.82-1.297
			c6.386,1.264,17.308,6.523,23.977,10.998C432.73,132.271,432.825,133.515,426.17,129.812z" style="opacity: 1;"></path>
		<path class="st0" d="M425.534,133.459c0,0-21.209-10.305-22.874-10.279c-1.665,0.025,0.861,1.127,2.338,2.222
			S418.915,133.127,425.534,133.459z" style="opacity: 1;"></path>
	</g>
	<g>
		<path class="st1" d="M593.851,288.934c-7.174,2.139-15.352-4.051-18.268-13.829c-2.914-9.774,0.537-19.436,7.711-21.575
			c1.079-0.322,2.178-0.454,3.282-0.414c6.23,0.217,12.51,5.938,14.986,14.242c2.429,8.146,0.438,16.212-4.445,19.912
			C596.139,288.01,595.046,288.577,593.851,288.934z" style="opacity: 1;"></path>
		<path class="st1" d="M585.235,271.342c-1.895-4.397,4.415-4.91,5.699-1.699c1.284,3.21,7.345,18.061,5.445,24.834
			S589.476,281.183,585.235,271.342z" style="opacity: 1;"></path>
		<path class="st0" d="M597.117,287.271c-0.173-0.355-0.102-0.892,0.312-1.629c2.181-3.881,3.107-10.67,1.045-17.588
			c-2.062-6.915-5.573-11.191-8.79-12.386c-2.192-0.814-3.2-1.73-3.108-2.552c6.23,0.217,12.51,5.938,14.986,14.242
			C603.991,275.504,602,283.571,597.117,287.271z" style="opacity: 1;"></path>
		<path class="st0" d="M594.454,286.256c-0.609-3.11-6.457-21.923-7.059-24.525c-0.602-2.602-0.36-3.728,1.583-0.219
			c3.284,5.932,6.438,18.159,7.358,26.474C596.904,293.13,595.978,294.041,594.454,286.256z" style="opacity: 1;"></path>
		<path class="st0" d="M591.124,288.201c0,0-6.05-23.805-7.189-25.113s-0.319,1.443-0.198,3.354
			C583.857,268.353,586.94,282.709,591.124,288.201z" style="opacity: 1;"></path>
	</g>
	<path class="st1" d="M354.408,115.102c4.241-0.909,41.505,0,44.535,0.909c3.03,0.909,2.424,3.938-0.909,3.938
		s-36.658-0.909-42.414-0.909C349.864,119.04,354.408,115.102,354.408,115.102z" style="opacity: 1;"></path>
	<path class="st1" d="M278.588,93.005c-32.576,7.016-137.418,37.99-176.565,151.149c-16.961,49.027-18.655,91.372-14.464,124.719
		c6.48,51.545,27.025,81.597,27.025,81.597h18.727c0,0-18.047-45.712-22.055-81.25c-4.015-35.538,2.289-114.074,53.879-182.286
		c51.185-67.682,122.13-95.302,123.235-95.727C288.115,91.239,284.571,91.717,278.588,93.005z M155.608,186.378
		c-12.881,19.995-36.44,46.575-49.321,118.089c-12.875,71.507,19.453,141.648,19.453,141.648h-6.029
		c-15.641-25.416-37.696-101.108-12.594-184.346c25.344-84.068,91.195-129.421,122.673-143.669
		C213.345,125.548,168.483,166.376,155.608,186.378z" style="opacity: 1;"></path>
	<path class="st1" d="M330.446,598.632l-10.313-44.578c0,0-30.273,0-33.6,0c-3.327,0-2.34-1.263-2.34-1.263l10.686-27.536h36.167
		v-11.919h-91.24v11.097l-0.014,0.679h41.584l-11.81,29.442h-23.287v11.976h19.461l-12.475,31.604h-23.287v13.628H348.91v-13.129
		H330.446z M315.558,598.652l-43.647,0.203h-2.14c-1.001,0-1.688-1.009-1.32-1.94l11.91-30.173h27.466h2.113l6.993,30.171
		C317.139,597.799,316.468,598.647,315.558,598.652z" style="opacity: 1;"></path>
	<path class="st1" d="M391.335,512.971v98.365h15.306v-33.265h81.835v33.469h15.306v-98.569H391.335z M440.019,563.473
		c0,0.723-0.586,1.308-1.308,1.308H408.32c-0.723,0-1.308-0.586-1.308-1.308v-36.228c0-0.723,0.586-1.308,1.308-1.308h30.391
		c0.723,0,1.308,0.586,1.308,1.308V563.473z M488.122,563.473c0,0.723-0.586,1.308-1.308,1.308h-30.391
		c-0.723,0-1.308-0.586-1.308-1.308v-36.228c0-0.723,0.586-1.308,1.308-1.308h30.391c0.723,0,1.308,0.586,1.308,1.308V563.473z" style="opacity: 1;"></path>
	<path class="st1" d="M160.682,362.249c1.824,35.132,8.343,62.595,8.579,63.582C168.973,424.929,160.604,398.369,160.682,362.249z" style="opacity: 1;"></path>
	<path class="st0" d="M370.62,186.149c-0.32,0.471-0.647,0.935-0.981,1.393c-0.687,0.379-1.406,0.778-2.158,1.19
		c-25.54,13.986-82.087,1.824-82.087,1.824s-10.939,6.081-14.588,8.513c-3.648,2.432-10.338,3.041-10.338,3.041
		s-1.236,0.294-3.439,1.033c-10.07,3.381-40.331,16.066-65.269,52.473c-21.846,31.896-29.431,66.656-30.83,96.4
		c0.013-2.445,0.078-4.917,0.176-7.408c4.204-103.724,88.247-145.225,96.498-145.225c8.252,0,20.872-9.703,30.575-13.104
		C319.73,198.415,370.62,186.149,370.62,186.149z" style="opacity: 1;"></path>
	<path class="st0" d="M272.515,205.255c3.254,2.644,15.251,7.931,30.506,7.931c21.761,0,34.37-7.321,39.251-12.202
		c-13.016,8.135-30.302,10.372-41.081,10.169S272.515,205.255,272.515,205.255z" style="opacity: 1;"></path>
	<path class="st0" d="M177.774,388.666c-0.059-1.805-0.085-3.721-0.085-5.741c0.177,3.622,0.392,6.983,0.615,10.017
		c0.006,0.02,0.006,0.039,0.006,0.059c0.726,9.697,1.582,15.987,1.641,16.445C179.834,408.929,178.166,401.429,177.774,388.666z" style="opacity: 1;"></path>
	<path class="st0" d="M264.883,210.839c-0.752,0.51-48.753,33.393-71.9,93.811c-12.312,32.138-15.255,59.555-15.294,78.275
		c-0.418-8.755-0.602-19.008-0.15-29.705c1.877-18.354,7.016-37.571,16.419-58.659C220.668,234.666,264.203,211.199,264.883,210.839
		z" style="opacity: 1;"></path>
	<path class="st0" d="M278.588,93.005c-6.532,2.446-14.908,5.061-24.501,7.729c-34.289,9.527-111.825,55.913-141.249,124.327
		c-21.911,50.93-26.691,107.17-25.279,143.812c-4.191-33.347-2.498-75.692,14.464-124.719
		C141.171,130.995,246.012,100.021,278.588,93.005z" style="opacity: 1;"></path>
	<path class="st0" d="M147.153,198.394c7.246-12.228,37.589-48.005,56.157-61.138c-34.419,37.589-76.536,69.743-96.462,172.093
		C106.848,295.762,119.075,240.512,147.153,198.394z" style="opacity: 1;"></path>
	<path class="st0" d="M369.895,68.517c-1.105,0.366-2.282,0.798-3.511,1.295c-8.075-0.288-21.61-0.85-32.844,3.701
		c-13.326,5.408-26.658,11.894-35.669,29.182c-9.004,17.295-10.809,20.898-10.809,20.898s-60.882,11.168-111.322,87.187
		c-27.155,40.932-38.232,85.827-42.332,120.692c1.347-26.057,6.794-54.173,19.368-81.904
		c44.463-98.087,99.388-115.964,134.266-129.473c0,0,8.566-25.88,26.318-38.493C331.12,68.988,356.817,65.712,369.895,68.517z" style="opacity: 1;"></path>
	<path class="st4" d="M282.021,129.359c-19.815,6.485-68.453,25.94-109.525,94.033c-34.226,59.086-35.307,110.966-34.947,121.774
		c4.323-45.035,33.146-148.795,99.437-188.426c48.638-31.344,61.968-30.624,61.968-30.624S291.028,126.837,282.021,129.359z" style="opacity: 1;"></path>
	<path class="st0" d="M371.219,97.661c-4.165,4.237-13.049,11.992-20.378,17.203c-21.172,1.589-38.905,3.707-38.905,3.707
		l1.425-2.864c0,0,20.113-2.72,36.46-2.249l20.732-17.21L371.219,97.661z" style="opacity: 1;"></path>
	<path class="st0" d="M359.422,114.801c-1.661,1.107,0.185,1.292,0.738,1.292c0.554,0,34.329,0.923,34.329,0.923
		s0.923-1.107-0.185-1.107C393.197,115.909,359.422,114.801,359.422,114.801z" style="opacity: 1;"></path>
	<g>
		<g>
			<g>
				<path class="st0" d="M263.176,464.613H86.546c-1.014-2.615-1.981-5.251-2.91-7.905h177.395L263.176,464.613z" style="opacity: 1;"></path>
				<path class="st0" d="M289.939,481.064H93.444c-1.196-2.616-2.354-5.251-3.465-7.912h197.822L289.939,481.064z" style="opacity: 1;"></path>
				<path class="st0" d="M339.163,489.597v7.912H101.572c-1.399-2.615-2.753-5.251-4.074-7.912H339.163z" style="opacity: 1;"></path>
				<path class="st0" d="M221.126,506.042v7.912H111.06c-1.628-2.609-3.204-5.244-4.741-7.912H221.126z" style="opacity: 1;"></path>
				<path class="st0" d="M223.597,522.487v7.912H122.051c-1.877-2.602-3.707-5.244-5.492-7.912H223.597z" style="opacity: 1;"></path>
				<path class="st0" d="M228.044,538.938v7.905h-93.288c-2.158-2.596-4.27-5.231-6.336-7.905H228.044z" style="opacity: 1;"></path>
				<path class="st0" d="M229.521,555.383v7.905h-80.027c-2.504-2.589-4.956-5.224-7.356-7.905H229.521z" style="opacity: 1;"></path>
				<path class="st0" d="M230.509,571.828v7.905h-63.792c-2.929-2.576-5.806-5.211-8.631-7.905H230.509z" style="opacity: 1;"></path>
				<path class="st0" d="M212.24,588.273v7.905h-25.083c-3.492-2.557-6.925-5.192-10.298-7.905H212.24z" style="opacity: 1;"></path>
				<path class="st0" d="M214.914,605.692v7.905h-1.112c-3.453-1.998-6.865-4.066-10.23-6.204c-0.777-0.494-0.421-1.701,0.5-1.701
					H214.914z" style="opacity: 1;"></path>
			</g>
			<g>
				<path class="st0" d="M636.367,456.708c-0.928,2.655-1.896,5.29-2.91,7.905h-175.95l2.145-7.905H636.367z" style="opacity: 1;"></path>
				<path class="st0" d="M630.024,473.152c-1.112,2.661-2.269,5.296-3.466,7.912H430.744l2.138-7.912H630.024z" style="opacity: 1;"></path>
				<path class="st0" d="M622.505,489.597c-1.321,2.661-2.681,5.296-4.074,7.912H381.52v-7.912H622.505z" style="opacity: 1;"></path>
				<path class="st0" d="M613.684,506.042c-1.537,2.668-3.119,5.303-4.741,7.912h-86.958v-7.912H613.684z" style="opacity: 1;"></path>
				<path class="st0" d="M603.438,522.487c-1.779,2.668-3.609,5.309-5.486,7.912h-75.967v-7.912H603.438z" style="opacity: 1;"></path>
				<path class="st0" d="M591.577,538.938c-2.06,2.674-4.178,5.309-6.336,7.905h-63.255v-7.905H591.577z" style="opacity: 1;"></path>
				<path class="st0" d="M577.858,555.383c-2.4,2.681-4.852,5.316-7.356,7.905h-48.517v-7.905H577.858z" style="opacity: 1;"></path>
				<path class="st0" d="M561.91,571.828c-2.825,2.694-5.702,5.329-8.631,7.905h-31.294v-7.905H561.91z" style="opacity: 1;"></path>
				<path class="st0" d="M543.138,588.273c-3.374,2.714-6.807,5.349-10.298,7.905h-10.854v-7.905H543.138z" style="opacity: 1;"></path>
				<rect x="422.818" y="605.691" class="st0" width="48.46" height="7.907" style="opacity: 1;"></rect>
				<rect x="422.818" y="589.625" class="st0" width="48.46" height="6.599" style="opacity: 1;"></rect>
			</g>
			<path class="st0" d="M491.619,621.097v0.386c-5.27,2.674-10.638,5.185-16.085,7.526H244.469
				c-4.515-1.942-8.977-3.999-13.373-6.164c-0.876-0.431-0.575-1.748,0.402-1.748H491.619z" style="opacity: 1;"></path>
			<path class="st0" d="M447.587,639.397c-7.771,2.445-15.683,4.567-23.716,6.357H296.125c-7.898-1.76-15.678-3.841-23.323-6.234
				c-0.931-0.292-0.719-1.671,0.257-1.671H447.35C448.254,637.849,448.45,639.126,447.587,639.397z" style="opacity: 1;"></path>
		</g>
		<rect x="349.698" y="506.046" class="st0" width="25.049" height="7.907" style="opacity: 1;"></rect>
		<rect x="349.698" y="522.491" class="st0" width="25.049" height="7.907" style="opacity: 1;"></rect>
		<polygon class="st0" points="337.501,546.843 374.747,546.843 374.747,538.936 335.515,538.936 		" style="opacity: 1;"></polygon>
		<polygon class="st0" points="340.621,563.579 374.747,563.579 374.747,555.671 338.636,555.671 		" style="opacity: 1;"></polygon>
		<polygon class="st0" points="344.025,579.179 374.747,579.179 374.747,571.272 342.039,571.272 		" style="opacity: 1;"></polygon>
		<rect x="359.161" y="588.272" class="st0" width="15.586" height="7.907" style="opacity: 1;"></rect>
		<rect x="359.161" y="605.691" class="st0" width="15.586" height="7.907" style="opacity: 1;"></rect>
	</g>
	<path class="st1" d="M88.097,463.959c-0.661-1.725-1.316-3.496-1.958-5.29h174.545l1.435,5.29H88.097z" style="opacity: 1;"></path>
	<path class="st1" d="M94.939,480.41c-0.808-1.782-1.59-3.554-2.335-5.297h194.849l1.431,5.297H94.939z" style="opacity: 1;"></path>
	<path class="st1" d="M103.011,496.855c-0.909-1.712-1.827-3.485-2.741-5.296h238.239v5.296H103.011z" style="opacity: 1;"></path>
	<path class="st1" d="M112.44,513.3c-1.066-1.72-2.135-3.493-3.194-5.296h111.225v5.296H112.44z" style="opacity: 1;"></path>
	<path class="st1" d="M123.376,529.745c-1.231-1.717-2.471-3.49-3.702-5.297h103.27v5.297H123.376z" style="opacity: 1;"></path>
	<path class="st1" d="M136.024,546.19c-1.435-1.734-2.865-3.506-4.271-5.29h95.637v5.29H136.024z" style="opacity: 1;"></path>
	<path class="st1" d="M150.703,562.635c-1.67-1.734-3.332-3.505-4.964-5.29h83.129v5.29H150.703z" style="opacity: 1;"></path>
	<path class="st1" d="M167.865,579.079c-1.958-1.728-3.91-3.499-5.832-5.29h67.822v5.29H167.865z" style="opacity: 1;"></path>
	<path class="st1" d="M188.239,595.524c-2.34-1.718-4.674-3.49-6.974-5.29h30.321v5.29H188.239z" style="opacity: 1;"></path>
	<path class="st1" d="M214.26,612.625c-2.767-1.614-5.52-3.281-8.208-4.971h8.208V612.625z" style="opacity: 1;"></path>
	<path class="st1" d="M459.87,463.959l1.435-5.29h173.866c-0.642,1.794-1.297,3.565-1.958,5.29H459.87z" style="opacity: 1;"></path>
	<path class="st1" d="M433.106,480.41l1.431-5.297h194.169c-0.745,1.742-1.526,3.515-2.334,5.297H433.106z" style="opacity: 1;"></path>
	<path class="st1" d="M383.482,496.855v-5.296h237.559c-0.875,1.73-1.793,3.504-2.742,5.296H383.482z" style="opacity: 1;"></path>
	<path class="st1" d="M523.947,513.3v-5.296h88.117c-1.024,1.742-2.093,3.515-3.194,5.296H523.947z" style="opacity: 1;"></path>
	<path class="st1" d="M523.947,529.745v-5.297h77.688c-1.215,1.787-2.453,3.559-3.699,5.297H523.947z" style="opacity: 1;"></path>
	<path class="st1" d="M523.947,546.19v-5.29h65.607c-1.367,1.736-2.798,3.506-4.274,5.29H523.947z" style="opacity: 1;"></path>
	<path class="st1" d="M523.947,562.635v-5.29h51.618c-1.632,1.785-3.294,3.556-4.964,5.29H523.947z" style="opacity: 1;"></path>
	<path class="st1" d="M523.947,579.079v-5.29h35.324c-1.923,1.792-3.875,3.562-5.832,5.29H523.947z" style="opacity: 1;"></path>
	<path class="st1" d="M523.947,595.524v-5.29h16.093c-2.3,1.8-4.635,3.571-6.974,5.29H523.947z" style="opacity: 1;"></path>
	<rect x="424.779" y="607.652" class="st1" width="45.845" height="5.292" style="opacity: 1;"></rect>
	<rect x="424.779" y="591.586" class="st1" width="45.845" height="3.984" style="opacity: 1;"></rect>
	<path class="st1" d="M245.393,628.355c-3.877-1.672-7.759-3.45-11.566-5.296h253.65c-3.802,1.848-7.673,3.622-11.558,5.296H245.393
		z" style="opacity: 1;"></path>
	<path class="st1" d="M296.923,645.101c-6.776-1.513-13.554-3.289-20.195-5.29h167.849c-6.644,2.001-13.422,3.777-20.195,5.29
		H296.923z" style="opacity: 1;"></path>
	<rect x="351.66" y="508.007" class="st1" width="22.433" height="5.292" style="opacity: 1;"></rect>
	<rect x="351.66" y="524.452" class="st1" width="22.433" height="5.292" style="opacity: 1;"></rect>
	<polygon class="st1" points="339.175,546.189 337.846,540.897 374.093,540.897 374.093,546.189 	" style="opacity: 1;"></polygon>
	<polygon class="st1" points="342.295,562.925 340.966,557.633 374.093,557.633 374.093,562.925 	" style="opacity: 1;"></polygon>
	<polygon class="st1" points="345.699,578.526 344.37,573.234 374.093,573.234 374.093,578.526 	" style="opacity: 1;"></polygon>
	<rect x="361.122" y="590.233" class="st1" width="12.971" height="5.292" style="opacity: 1;"></rect>
	<rect x="361.122" y="607.653" class="st1" width="12.971" height="5.292" style="opacity: 1;"></rect>
</g>
</svg>
