<!--?xml version="1.0" encoding="utf-8"?-->
<!-- Generator: Adobe Illustrator 25.2.3, SVG Export Plug-In . SVG Version: 6.00 Build 0)  -->
<svg version="1.1" id="_x35_" xmlns="http://www.w3.org/2000/svg" xmlns:xlink="http://www.w3.org/1999/xlink" x="0px" y="0px" viewBox="0 0 714 720" style="enable-background:new 0 0 714 720;" xml:space="preserve">
<style type="text/css">
	.st0{fill:#B15500;}
	.st1{fill:#F2960B;}
	.st2{fill:#B25000;}
	.st3{fill:#943200;}
	.st4{fill:#DA7800;}
	.st5{fill:#F2C83D;}
	.st6{fill:#A25A00;}
	.st7{fill:#EE8C01;}
	.st8{fill:#D06E00;}
	.st9{fill:#F2AA1F;}
	.st10{fill:#F2A015;}
</style>
<g>
	<ellipse class="st0" cx="359.473" cy="365.553" rx="354.527" ry="354.447" style="opacity: 1;"></ellipse>
	<path class="st1" d="M709.054,354.447c0,195.757-158.726,354.447-354.527,354.447c-140.51,0-261.929-81.723-319.298-200.223
		C12.657,462.045,0,409.722,0,354.447C0,158.693,158.729,0,354.527,0c113.827,0,215.125,53.632,279.991,136.998
		C681.232,197.035,709.054,272.494,709.054,354.447z" style="opacity: 1;"></path>
	<ellipse class="st2" cx="354.528" cy="354.448" rx="324.816" ry="324.742" style="opacity: 1;"></ellipse>
	<ellipse class="st3" cx="354.808" cy="362.739" rx="319.249" ry="319.177" style="opacity: 1;"></ellipse>
	<ellipse class="st4" cx="354.808" cy="357.532" rx="314.016" ry="313.945" style="opacity: 1;"></ellipse>
	<path class="st5" d="M634.518,136.998C565.42,63.194,446.332-6.079,310.528,11.555C167.244,30.16,46.288,141.785,16.514,285.039
		c-17.24,82.951-0.163,166.525,18.715,223.631C12.657,462.045,0,409.722,0,354.447C0,158.693,158.729,0,354.527,0
		C468.354,0,569.652,53.632,634.518,136.998z" style="opacity: 1;"></path>
	<path class="st6" d="M401.408,637.609c-1.341,0-2.862-0.316-4.652-0.967c-5.121-1.862-14.894-11.043-20.263-16.349
		c-6.477-6.401-14.589-15.192-17.094-19.366c-0.826-1.375-1.672-2.776-2.533-4.191c-0.862,1.417-1.708,2.818-2.533,4.192
		c-2.504,4.173-10.616,12.964-17.094,19.365c-5.37,5.307-15.142,14.487-20.263,16.349c-1.79,0.651-3.312,0.967-4.653,0.967
		c-4.225,0-6.037-2.926-7.79-5.756c-0.755-1.219-1.611-2.601-2.767-4.005c-3.732-4.529-13.461-15.468-17.7-20.216
		c-1.362,1.253-3.244,2.957-5.236,4.678c-7.739,6.681-9.755,7.24-11.157,7.24c-3.188,0-4.797-3.744-7.464-9.947
		c-1.004-2.336-2.628-6.113-3.593-7.322c-4.047-0.045-24.433-0.319-27.606-1.112c-1.144-0.287-2.03-1.046-2.433-2.084
		c-0.767-1.976,0.435-3.789,1.707-5.709c0.101-0.153,0.218-0.329,0.339-0.515c-0.417-0.018-0.843-0.034-1.279-0.051
		c-3.805-0.146-8.542-0.328-15.269-1.633c-1.563-0.304-3.178-0.658-4.802-1.051c-6.046-1.465-16.974-7.162-25.185-12.005
		c-4.567-2.694-8.739-5.379-11.747-7.562c-5.075-3.683-6.033-5.279-6.024-6.935c0.008-1.513,1.047-2.768,2.585-3.123
		c0.515-0.119,1.297-0.356,2.286-0.656c5.597-1.697,18.705-5.67,42.617-5.67c4.023,0,8.235,0.113,12.536,0.335
		c-2.477-0.881-4.959-1.753-7.445-2.618c-5.721-1.99-13.199-3.076-21.858-4.333c-10.199-1.481-21.76-3.158-33.928-6.807
		c-13.637-4.091-27.624-16.866-34.747-24.117c-10.333-10.517-18.595-21.88-20.56-28.275l-0.124-0.402v-0.027
		c-0.068-0.249-0.126-0.484-0.173-0.709l-0.101-0.483l0.07-0.489c0.056-0.395,0.704-3.857,6.044-3.857
		c2.768,0,6.422,0.903,11.17,2.761c7.834,3.064,11.256,3.527,14.879,4.017c2.211,0.299,4.498,0.608,7.741,1.473
		c5.37,1.433,12.419,4.754,19.68,9.118c-2.813-2.727-5.663-5.382-8.268-7.646c-7.86-6.833-14.987-9.934-23.24-13.523
		c-4.823-2.098-9.81-4.267-15.412-7.379c-4.303-2.392-8.893-5.646-13.296-9.424l-0.285-0.244
		c-13.514-11.682-23.163-26.108-25.812-38.589c-0.602-2.838-1.178-5.504-1.717-7.999c-3.195-14.791-4.955-22.939-3.853-27.353
		c0.799-3.193,3.287-3.441,4.031-3.441c2.41,0,4.831,1.969,8.842,5.232c2.399,1.951,5.384,4.38,8.734,6.613
		c2.01,1.34,4.077,2.679,6.075,3.974c6.583,4.266,12.877,8.346,17.99,12.855c-1.402-2.574-2.73-4.873-3.967-6.872
		c-2.675-4.321-6.615-9.793-10.786-15.586c-7.168-9.956-15.292-21.24-20.626-31.549c-5.034-9.729-5.914-28.387-5.06-42.604
		c0.427-7.095,2.488-30.948,11.112-39.982l2.102-2.202l2.023,2.275c1.234,1.388,2.52,2.979,3.822,4.729
		c8.252,11.07,17.463,28.766,21.9,42.076c0.416,1.249,0.814,2.74,1.192,4.428c-0.128-12.089-0.497-22.372-1.451-24.913
		c-3.693-9.844-15.299-43.773-9.6-67.041c3.38-13.798,12.733-29.698,16.596-35.894c3.331-5.341,6.804-10.307,9.778-13.982
		c4.527-5.594,6.546-6.625,7.923-6.895c0.274-0.054,0.549-0.081,0.82-0.081c1.163,0,3.273,0.487,4.332,3.747
		c1.203,3.71,0.985,11.03,0.732,19.505c-0.194,6.51-0.394,13.243,0.001,18.986c0.152,2.201,0.234,4.239,0.26,6.134
		c1.523-5.304,3.423-10.578,5.611-15.504c3.744-8.428,10.127-19.915,19.276-26.775c20.377-15.279,38.34-19.334,39.095-19.499
		l2.657-0.581l0.663,2.637c0.321,1.275,0.356,2.895,0.106,4.95c-0.791,6.44-4.478,17.848-11.954,36.994
		c-8.353,21.399-19.622,37.564-35.466,50.87c-13.734,11.532-17.425,14.631-22.279,23.258c-1.179,2.095-2.543,5.754-3.97,10.381
		c2.492-5.444,5.975-10.687,10.403-15.648c6.248-6.999,14.094-13.099,23.32-18.131c13.042-7.113,18.394-10.792,21.269-12.768
		c1.23-0.845,2.042-1.403,2.856-1.81c0.624-0.311,1.262-0.468,1.899-0.468c1.701,0,3.097,1.068,3.733,2.856l0.162,0.456v0.086
		c0.596,2.365,0.098,5.879-1.376,9.563c-0.564,1.41-1.679,5.082-2.968,9.334c-3.85,12.69-9.667,31.868-15.172,40.335
		c-1.222,1.878-2.232,3.532-3.208,5.132c-3.693,6.05-6.338,10.382-14.01,15.526c0.836,0.478,1.681,1.449,1.925,3.411
		c0.063,0.487,0.094,1.075,0.094,1.787c0,5.863-0.582,23.483-1.122,36.445c-0.523,12.569-2.491,19.457-6.116,26.83l1.387,0.819
		c13.206,7.801,23.294,26.892,26.329,49.821l0.009,0.07c0.062,0.455,0.12,0.913,0.175,1.373c0.929,7.807,1.163,13.697,1.18,17.987
		c0.51-0.135,0.954-0.163,1.232-0.163c1.465,0,3.129,0.613,5.235,1.928c2.034,1.271,3.989,2.412,6.059,3.621
		c6.724,3.926,14.345,8.376,26.137,18.418c8.176,6.965,14.329,17.743,18.783,26.39l0.011,0.017l0.068,0.132
		c1.718,3.346,3.343,6.693,4.914,9.93c2.201,4.536,4.284,8.827,6.338,12.524l0.164,0.293c0.934,1.671,1.803,3.106,2.658,4.387
		c6.679,10.017,14.424,15.357,25.356,17.294c-0.068-0.195-0.136-0.39-0.203-0.584c-1.534-4.432-0.809-9.381,1.939-13.24
		c2.767-3.885,7.09-6.025,12.171-6.025c3.533,0,7.318,1.039,11.248,3.089c11.125,5.803,23.813,16.155,31.329,22.69
		c1.019-1.781,2.94-2.984,5.135-2.984h11.05c1.427,0,2.749,0.5,3.779,1.355c7.374-6.294,19.129-15.684,29.435-21.06
		c3.931-2.05,7.715-3.09,11.248-3.09c5.081,0,9.403,2.14,12.171,6.026c2.749,3.859,3.474,8.808,1.94,13.239
		c-0.067,0.194-0.135,0.389-0.203,0.584c10.931-1.936,18.677-7.277,25.355-17.292c0.856-1.282,1.725-2.717,2.659-4.388l0.192-0.342
		c2.046-3.686,4.119-7.959,6.311-12.475c1.571-3.237,3.195-6.584,4.914-9.93l0.068-0.132l0.011-0.017
		c4.454-8.647,10.607-19.426,18.783-26.39c11.793-10.042,19.414-14.492,26.138-18.418c2.07-1.209,4.025-2.35,6.059-3.621
		c0.141-0.088,0.279-0.172,0.414-0.253l0.061-0.036c0.11-0.065,0.227-0.134,0.341-0.198l0.087-0.048
		c0.115-0.064,0.212-0.118,0.307-0.169l0.13-0.069c0.085-0.044,0.17-0.089,0.254-0.131c0,0,0.303-0.148,0.38-0.184l0.145-0.066
		c0.08-0.036,0.159-0.071,0.236-0.104l0.154-0.064c0.081-0.033,0.154-0.062,0.227-0.09c0.053-0.02,0.106-0.04,0.159-0.059
		c0.072-0.026,0.148-0.053,0.223-0.078c0.054-0.018,0.105-0.035,0.157-0.051c0.077-0.024,0.151-0.046,0.224-0.067
		c0.062-0.018,0.12-0.033,0.177-0.048c0.06-0.016,0.136-0.034,0.21-0.051c0.059-0.013,0.112-0.025,0.164-0.036
		c0.081-0.017,0.159-0.03,0.236-0.043c0.067-0.011,0.121-0.02,0.175-0.027c0.077-0.011,0.154-0.019,0.231-0.027
		c0.062-0.006,0.122-0.012,0.179-0.016c0.073-0.005,0.149-0.008,0.226-0.01c0.071-0.002,0.197-0.003,0.197-0.003
		c0.078,0.001,0.155,0.004,0.231,0.009c0.082,0.004,0.145,0.008,0.207,0.014c0.079,0.008,0.156,0.018,0.233,0.03
		c0.081,0.011,0.151,0.023,0.22,0.036c0.077,0.015,0.157,0.034,0.237,0.055c0.016,0.004,0.033,0.008,0.05,0.012
		c0.017-4.29,0.251-10.178,1.18-17.981c0.056-0.468,0.114-0.932,0.178-1.394l0.007-0.051c3.035-22.93,13.123-42.02,26.329-49.821
		l1.386-0.819c-3.625-7.373-5.593-14.261-6.116-26.83c-0.539-12.962-1.122-30.582-1.122-36.445c0-0.712,0.031-1.3,0.096-1.8
		c0.243-1.953,1.086-2.921,1.921-3.398c-7.669-5.14-10.314-9.473-14.008-15.526c-0.976-1.6-1.986-3.254-3.208-5.131
		c-5.505-8.468-11.323-27.645-15.173-40.335c-1.29-4.252-2.404-7.924-2.968-9.334c-1.475-3.684-1.973-7.198-1.376-9.563v-0.084
		l0.162-0.459c0.636-1.788,2.032-2.856,3.733-2.856c0.637,0,1.274,0.157,1.896,0.467c0.817,0.408,1.629,0.966,2.859,1.811
		c2.875,1.976,8.228,5.654,21.27,12.768c7.903,4.309,14.831,9.435,20.591,15.235c5.675,5.711,10.149,12.056,13.153,18.61
		c-1.434-4.658-2.806-8.343-3.991-10.448c-4.855-8.627-8.546-11.727-22.279-23.258c-7.631-6.41-14.069-13.339-19.681-21.181
		c-6.211-8.675-11.374-18.387-15.785-29.69c-7.476-19.146-11.163-30.554-11.953-36.989c-0.25-2.059-0.215-3.678,0.106-4.954
		l0.663-2.637l2.657,0.581c0.755,0.165,18.718,4.22,39.095,19.499c0.615,0.46,1.232,0.955,1.883,1.51
		c10.473,8.939,18.501,25.082,23.005,40.759c0.021-1.533,0.079-3.158,0.18-4.887c0.026-0.416,0.052-0.822,0.08-1.236
		c0.396-5.746,0.196-12.478,0.002-18.988c-0.253-8.475-0.47-15.794,0.732-19.503c1.059-3.262,3.169-3.748,4.332-3.748
		c0.27,0,0.545,0.027,0.818,0.08c1.441,0.283,3.567,1.397,8.427,7.522c3.234,4.076,6.942,9.493,10.442,15.253
		c4.443,7.31,12.356,21.448,15.43,33.997c5.699,23.268-5.907,57.197-9.6,67.041c-0.952,2.539-1.321,12.803-1.45,24.876
		c0.386-1.703,0.782-3.161,1.192-4.391c4.437-13.31,13.648-31.007,21.901-42.078c1.301-1.748,2.587-3.339,3.821-4.727l2.022-2.275
		l2.102,2.202c5.354,5.607,8.133,16.911,9.522,25.406c1.745,10.673,2.31,23.093,1.552,34.077c-0.49,7.061-1.758,16.8-5.022,23.104
		c-5.334,10.309-13.458,21.593-20.626,31.548c-4.171,5.793-8.111,11.265-10.786,15.586c-1.237,1.998-2.564,4.297-3.967,6.872
		c5.113-4.509,11.408-8.589,17.99-12.855c1.999-1.295,4.066-2.635,6.075-3.974c3.35-2.233,6.336-4.662,8.734-6.613
		c4.01-3.263,6.431-5.232,8.841-5.232c0.744,0,3.232,0.248,4.031,3.44c1.103,4.415-0.657,12.563-3.852,27.354
		c-0.539,2.496-1.115,5.161-1.717,7.999c-2.649,12.481-12.298,26.906-25.812,38.588l-0.277,0.24l-0.008,0.004
		c-4.403,3.778-8.994,7.032-13.295,9.423c-5.603,3.112-10.59,5.282-15.413,7.379c-8.252,3.59-15.38,6.69-23.24,13.523
		c-2.605,2.265-5.454,4.919-8.268,7.646c7.261-4.364,14.31-7.685,19.68-9.118c3.244-0.865,5.53-1.174,7.742-1.473
		c3.623-0.49,7.045-0.953,14.879-4.017c4.739-1.855,8.388-2.758,11.155-2.761c5.352,0,6.002,3.461,6.058,3.856l0.07,0.489
		l-0.102,0.484c-0.047,0.225-0.104,0.46-0.173,0.709v0.024l-0.124,0.405c-1.964,6.395-10.227,17.757-20.56,28.274
		c-7.124,7.251-21.111,20.025-34.747,24.116c-12.169,3.648-23.729,5.326-33.928,6.807c-8.659,1.257-16.137,2.342-21.858,4.332
		c-2.486,0.865-4.968,1.738-7.445,2.618c4.301-0.222,8.514-0.335,12.537-0.335c23.909,0,37.018,3.973,42.617,5.67
		c0.989,0.3,1.771,0.537,2.285,0.655c1.539,0.356,2.578,1.611,2.586,3.123c0.009,1.656-0.948,3.251-6.024,6.935
		c-3.008,2.183-7.18,4.868-11.747,7.562c-8.211,4.843-19.139,10.54-25.185,12.005c-1.623,0.393-3.238,0.747-4.801,1.051
		c-6.729,1.305-11.465,1.487-15.271,1.633c-0.436,0.017-0.862,0.033-1.279,0.051c0.121,0.186,0.238,0.362,0.339,0.515
		c1.272,1.919,2.474,3.732,1.707,5.709c-0.403,1.038-1.289,1.798-2.43,2.084c-3.176,0.793-23.562,1.067-27.609,1.112
		c-0.965,1.208-2.588,4.985-3.593,7.322c-2.666,6.203-4.276,9.947-7.464,9.947c-1.402,0-3.418-0.559-11.157-7.24
		c-1.993-1.72-3.875-3.425-5.236-4.678c-4.242,4.752-13.977,15.698-17.701,20.217c-1.155,1.403-2.011,2.785-2.767,4.005
		C407.445,634.683,405.633,637.609,401.408,637.609z M303.555,608.16c1.445,1.356,2.854,2.658,4.192,3.866
		c6.11,5.516,8.45,6.969,9.236,7.349c0.98-0.479,4.51-2.714,14.565-12.978c4.68-4.777,9.588-10.099,13.341-14.334
		c-10.327,3.988-23.676,9.547-28.128,12.515c-3.973,2.648-7.32,3.882-10.533,3.882C305.325,608.46,304.438,608.362,303.555,608.16z
		 M368.848,592.069c3.802,4.289,8.888,9.81,13.816,14.818c9.689,9.846,13.122,12.018,14.085,12.489
		c0.786-0.381,3.126-1.833,9.236-7.349c1.338-1.208,2.747-2.51,4.192-3.866c-0.883,0.201-1.771,0.3-2.673,0.3
		c-3.213,0-6.56-1.233-10.532-3.881C392.602,601.666,379.736,596.275,368.848,592.069z M447.341,572.671
		c2.46-1.788,5.958-3.981,9.958-6.216c-4.755,1.852-9.476,3.727-14.153,5.622c0.774,0.141,1.547,0.29,2.32,0.448L447.341,572.671z
		 M256.433,566.455c4,2.235,7.497,4.428,9.957,6.216l1.875-0.146c0.773-0.158,1.547-0.308,2.32-0.448
		C265.908,570.182,261.188,568.307,256.433,566.455z M160.937,333.86c-0.956,0.507-1.875,0.991-2.757,1.456
		c-11.943,6.295-16.412,8.651-19.975,16.662c-1.579,3.553-2.562,8.793-3.024,14.604c5.967-13.749,15.12-22.461,21.229-28.274
		c1.072-1.02,2.084-1.983,2.966-2.864C159.924,334.894,160.446,334.363,160.937,333.86z M552.794,333.86
		c0.491,0.503,1.013,1.035,1.563,1.585c0.899,0.897,1.935,1.882,3.031,2.926l0.969,0.923c6.936,6.626,14.754,14.726,20.193,27.287
		c-0.462-5.81-1.446-11.051-3.024-14.603c-3.563-8.01-8.031-10.366-19.974-16.661C554.67,334.851,553.751,334.367,552.794,333.86z" style="opacity: 1;"></path>
	<g>
		<path class="st7" d="M324.217,576.241c-9.502,1.119-21.801,5.589-47.516-5.03c-25.713-10.619-47.516-18.442-60.373-22.914
			c-12.857-4.472-33.541-4.472-55.902-11.177c-21.767-6.531-49.895-39.015-53.431-50.528v-0.003
			c-0.095-0.314-0.174-0.608-0.233-0.889c0,0,0.558-3.912,13.415,1.119c12.859,5.03,14.537,3.354,22.92,5.588
			c8.386,2.238,22.92,10.061,35.779,20.68c1.478,1.22,2.496,1.991,3.124,2.381c4.841,3.009-13.546-16.518-24.928-26.414
			c-12.857-11.177-24.036-12.854-39.13-21.238c-4.201-2.336-8.706-5.532-13.103-9.335l-0.006-0.003
			c-11.398-9.853-22.078-23.742-24.902-37.049c-3.915-18.445-6.709-29.622-5.592-34.091c1.119-4.472,7.267,3.351,17.33,10.058
			c10.063,6.707,20.684,12.856,27.393,20.122c6.389,6.917,11.252,14.847,11.707,15.59c-0.309-0.718-3.402-7.722-7.399-15.644
			c-0.151-0.3-0.306-0.603-0.46-0.908c-2.252-4.425-4.759-9.065-7.202-13.011c-7.267-11.738-22.92-30.74-31.306-46.947
			c-8.386-16.207-6.148-67.066,5.59-79.362c1.189,1.338,2.42,2.863,3.668,4.54c8.142,10.922,17.128,28.206,21.489,41.289
			c4.353,13.061,6.622,54.176,7.157,65.005c-0.135-3.312-0.353-9.458-0.452-16.782v-0.011c-0.031-2.445-0.048-5.025-0.045-7.672
			c0.034-24.549,0.471-57.289-1.632-62.897c-3.354-8.942-15.083-42.601-9.502-65.389c5.281-21.557,27.354-53.753,32.113-54.687
			c0.903-0.177,1.523,0.485,1.944,1.781c1.89,5.832-0.311,24.552,0.603,37.818c1.116,16.207-1.677,23.472-2.238,30.18
			c-0.558,6.707-8.38,22.909-11.735,36.32c0.042-0.067,0.387-0.625,0.956-1.596c3.194-5.462,13.373-23.957,15.252-40.874
			c2.235-20.119,12.627-47.051,27.393-58.124c20.123-15.088,38.011-19.003,38.011-19.003c0.236,0.936,0.247,2.24,0.042,3.928
			c-0.783,6.371-4.709,18.198-11.782,36.312c-8.944,22.914-20.681,38.006-34.657,49.743c-13.976,11.735-17.888,15.088-22.92,24.03
			c-5.032,8.942-12.298,41.359-15.095,60.362c-0.659,4.486-0.477,5.297,0.244,3.732c0-0.003,0.003-0.006,0.003-0.008
			c2.339-5.089,10.315-34.972,13.729-45.641c4.473-13.972,16.211-27.945,34.66-38.005c18.446-10.061,21.801-13.415,24.036-14.53
			c0.827-0.412,1.422-0.064,1.736,0.819c0,0,0,0,0,0.003c0.533,1.514,0.236,4.596-1.175,8.12
			c-2.238,5.588-10.621,38.006-17.888,49.182c-6.93,10.652-7.76,15.214-21.377,22.878c-0.67,0.379-1.369,0.763-2.103,1.155
			c-15.653,8.381-21.801,10.619-26.274,20.677c-4.471,10.061-4.471,31.298-1.677,44.152c0.502,2.302,0.712,3.457,0.766,3.71
			c0.003,0.014,0.006,0.025,0.008,0.039c0,0.005,0.003,0.008,0.003,0.014c0.006,0.017-0.006-0.067-0.028-0.247
			c-0.006-0.048-0.014-0.104-0.022-0.168c-0.064-0.494-0.179-1.413-0.297-2.658c-0.014-0.177-0.031-0.359-0.048-0.547
			c-0.006-0.056-0.008-0.115-0.017-0.174c-0.034-0.421-0.07-0.869-0.101-1.346c-0.014-0.216-0.028-0.44-0.042-0.667
			c-0.017-0.278-0.031-0.561-0.045-0.85c-0.011-0.23-0.022-0.463-0.031-0.701c-0.006-0.115-0.011-0.23-0.014-0.348
			c-0.104-2.868-0.073-6.306,0.297-9.909c0.042-0.412,0.09-0.827,0.14-1.245c0.051-0.415,0.107-0.833,0.168-1.253
			c0.182-1.256,0.412-2.524,0.701-3.777c0.045-0.21,0.095-0.421,0.146-0.628c0.05-0.21,0.104-0.418,0.157-0.628
			c0.053-0.213,0.112-0.426,0.171-0.639c0.098-0.356,0.199-0.712,0.309-1.068c0.02-0.062,0.036-0.123,0.059-0.188
			c0.058-0.166,0.108-0.335,0.16-0.502c0.071-0.227,0.15-0.459,0.23-0.687c0.053-0.151,0.107-0.303,0.163-0.454
			c0.056-0.151,0.112-0.303,0.168-0.452c0.112-0.3,0.23-0.597,0.353-0.894c6.709-16.207,17.888-25.149,24.039-31.296
			c5.52-5.521,7.887-8.788,8.313-5.356c0.05,0.39,0.073,0.869,0.073,1.441c0,5.591-0.561,22.914-1.119,36.329
			c-0.558,13.414-2.796,20.122-7.267,28.503c-4.473,8.384-8.944,21.238-8.944,39.682c0,18.442,8.944,27.945,8.944,27.945
			s-0.898-2.002-1.963-5.527c-3.223-10.655-7.985-35.224,5.876-60.424c12.052,7.119,21.958,24.973,24.975,47.775c0,0,0,0,0,0.003
			c0.064,0.465,0.123,0.934,0.179,1.405c1.097,9.214,1.248,15.845,1.125,21.28c-0.017,0.732-0.036,1.441-0.062,2.134
			c-0.258,7.254-0.872,12.495,0.056,19.622c1.677,12.854,9.424,23.961,16.211,29.619c5.381,4.486,14.109,9.776,14.605,9.596
			c0.412-0.15-5.576-4.968-7.737-6.875c-1.544-1.363-2.96-2.861-4.224-4.486c-3.75-4.819-10.842-15.183-13.265-27.296
			c-1.798-8.981-3.593-16.196-3.5-20.105c0.003-0.095,0.006-0.191,0.011-0.286c0.16-3.152,1.691-3.926,5.727-1.405
			c8.944,5.588,16.769,8.942,31.864,21.795c7.373,6.281,13.148,15.899,18.169,25.657c0.006,0.008,0.011,0.02,0.017,0.028
			c4.176,8.132,7.833,16.356,11.46,22.83c0,0,0,0,0.003,0.003c0.923,1.652,1.845,3.185,2.774,4.576
			c7.435,11.152,17.19,18.439,34.399,19.297c3.492,0.174,7.292,0.081,11.44-0.294C332.603,561.711,333.722,575.123,324.217,576.241z
			" style="opacity: 1;"></path>
		<path class="st7" d="M358.036,586.109c0,0-3.452,5.524-7.598,12.427c-4.142,6.903-28.316,31.761-35.911,34.523
			c-7.598,2.762-7.253-2.072-12.085-7.941c-4.835-5.869-19.683-22.438-19.683-22.438s-13.813,13.117-16.576,13.117
			c-2.763,0-7.253-17.261-10.36-17.261c-3.108,0-24.86-0.345-27.623-1.035c-2.763-0.693,6.215-7.941,1.035-8.286
			c-4.423-0.294-9.6-0.087-18.115-1.739c-1.456-0.283-3.009-0.62-4.675-1.023c-11.395-2.762-44.891-23.13-40.401-24.168
			c4.49-1.035,20.373-7.938,57.666-5.869c10.436,0.58,31.768,11.738,40.056,17.954c0.081,0.059,0.165,0.126,0.252,0.196
			c0.014,0.008,0.031,0.022,0.045,0.034c14.514-1.127,38.031-2.992,38.031-2.992l6.908,5.869l-21.251,19.81
			c12.296,12.082,24.987,24.221,27.811,24.033c5.18-0.345,33.496-31.761,36.258-35.903L358.036,586.109z" style="opacity: 1;"></path>
		<g>
			<path class="st8" d="M152.565,255.221c-2.408-1.206,37.732-65.543,48.971-74.389c0.401,2.413-6.021,10.053-10.436,15.28
				c-4.415,5.227-28.499,45.438-32.915,53.077C153.769,256.83,152.565,255.221,152.565,255.221z" style="opacity: 1;"></path>
			<path class="st8" d="M189.877,266.558c-3.119,6.249-14.23,21.931-23.3,31.017c-7.664,7.678-23.3,31.33-25.177,34.62
				c-1.877,3.29,4.535-9.086,9.852-17.702c3.967-6.428,16.198-21.009,20.963-25.852c1.85-1.881,3.538-3.91,5.053-6.072
				c3.384-4.83,9.303-13.367,10.733-16.012C190.033,262.798,191.284,263.738,189.877,266.558z" style="opacity: 1;"></path>
			<path class="st8" d="M92.569,304.534c1.238,5.374,16.714,64.491,18.571,70.072s3.508,9.302,1.238,5.581
				c-2.27-3.721-8.46-25.631-10.73-33.899c-2.27-8.268-7.428-25.838-8.666-33.073S92.569,304.534,92.569,304.534z" style="opacity: 1;"></path>
			<path class="st8" d="M163.025,339.92c-0.88,5.816-6.158,20.444-10.556,33.31s-8.093,32.252-8.621,38.068
				s0.136-11.309,1.232-18.505c1.583-10.398,10.204-34.544,12.491-39.655c2.287-5.111,5.454-13.747,5.454-13.747" style="opacity: 1;"></path>
			<path class="st8" d="M92.858,407.33c2.459,4.721,30.123,39.002,38.524,47.419c8.402,8.416,9.836,11.29,7.377,9.237
				c-2.459-2.053-26.024-25.659-33.401-36.128s-10.656-14.985-12.09-18.27C91.833,406.303,92.858,407.33,92.858,407.33z" style="opacity: 1;"></path>
			<path class="st8" d="M167.621,417.339c3.953,12.376,7.413,41.336,9.389,54.95c1.977,13.614,5.436,21.535,2.965,17.079
				c-2.471-4.455-8.895-36.138-8.895-44.307s-3.953-21.534-4.942-27.475S167.621,417.339,167.621,417.339z" style="opacity: 1;"></path>
			<path class="st8" d="M201.308,480.994c6.046,9.245,27.367,41.123,38.505,50.367c11.138,9.245,14.32,14.664,10.82,11.795
				s-13.047-9.563-24.503-23.271c-11.456-13.708-19.093-26.14-23.23-32.516C198.762,480.994,196.853,475.893,201.308,480.994z" style="opacity: 1;"></path>
			<path class="st8" d="M129.708,502.671c14.469,9.663,54.098,29.009,63.645,32.834c9.547,3.825-19.412-4.463-30.549-10.839
				s-26.094-14.345-31.504-18.489C125.889,502.033,126.844,500.758,129.708,502.671z" style="opacity: 1;"></path>
			<path class="st8" d="M137.166,203.072c0.064-0.356-0.453-0.479-0.555-0.133c-4.09,13.925-13.654,51.2-11.408,81.275
				c0.225,3.01,0.702,4.109,0.887,0.315C127.097,263.965,134.447,218.287,137.166,203.072z" style="opacity: 1;"></path>
		</g>
		<g>
			<path class="st9" d="M202.97,247.875c0,0,0,0,0,0.003c-4.58,4.685-13.65,11.628-20.659,15.013
				c-9.025,4.355-22.098,16.802-28.321,25.202s-9.959,22.09-12.758,29.557c-2.802,7.467-5.915,18.98-9.025,24.58
				c-3.113,5.6-4.047,5.6-3.424,3.112c0.008-0.034,0.017-0.067,0.025-0.101c0-0.003,0.003-0.006,0.003-0.008
				c2.339-5.089,10.315-34.972,13.729-45.641c4.473-13.972,16.211-27.945,34.66-38.005c18.446-10.061,21.801-13.415,24.036-14.53
				C202.061,246.644,202.655,246.991,202.97,247.875z" style="opacity: 1;"></path>
			<g>
				<path class="st9" d="M213.016,171.062c-6.644,2.484-17.38,6.547-24.827,11.623c-9.954,6.788-22.171,15.834-27.601,29.406
					c-5.43,13.572-8.599,25.786-9.956,35.74c-1.357,9.952-2.241,12.256-4.776,17.517c-2.533,5.263-11.499,22.216-13.252,26.893
					c-1.579,4.203-1.108-3.401-0.286-7.105c3.194-5.462,13.373-23.957,15.252-40.874c2.235-20.119,12.627-47.051,27.393-58.124
					c20.123-15.088,38.011-19.003,38.011-19.003C213.209,168.07,213.221,169.374,213.016,171.062z" style="opacity: 1;"></path>
				<path class="st9" d="M126.17,397.668c0.331,5.81-3.15-16.218-4.316-26.38v-0.011c-0.031-2.445-0.048-5.025-0.045-7.672
					c0.034-24.549,0.471-57.289-1.632-62.897c-3.354-8.942-15.083-42.601-9.502-65.389c5.281-21.557,27.354-53.753,32.113-54.687
					c0.903-0.177,1.523,0.485,1.944,1.781c-6.723,8.692-17.282,27.92-20.9,32.852c-4.288,5.846-11.109,22.799-10.33,37.22
					c0.78,14.421,5.651,36.834,8.77,45.018c3.119,8.185,2.729,12.276,2.729,17.733c0,5.457-0.78,30.791-1.17,38.976
					C123.441,362.396,125.78,390.849,126.17,397.668z" style="opacity: 1;"></path>
				<path class="st9" d="M136.093,442.039c-2.053-2.257-18.272-22.169-21.147-25.043s-23.612-17.245-27.718-20.119
					c-4.109-2.874-8.215-7.801-9.856-6.362c-1.643,1.436,5.542,35.513,10.47,43.518c3.225,5.241,10.063,15.677,16.991,24.445
					c-11.398-9.853-22.078-23.742-24.902-37.049c-3.915-18.445-6.709-29.622-5.592-34.091c1.119-4.472,7.267,3.351,17.33,10.058
					c10.063,6.707,20.684,12.856,27.393,20.122c6.389,6.917,11.252,14.847,11.707,15.59c-0.309-0.718-3.402-7.722-7.399-15.644
					c-0.151-0.3-0.306-0.603-0.46-0.908c-2.252-4.425-4.759-9.065-7.202-13.011c-7.267-11.738-22.92-30.74-31.306-46.947
					c-8.386-16.207-6.148-67.066,5.59-79.362c1.189,1.338,2.42,2.863,3.668,4.54c-1.251-0.923-2.333-0.928-3.155,0.715
					c-1.557,3.112-8.403,38.894-5.604,56.627c2.802,17.735,6.538,26.136,9.959,30.805c3.424,4.666,16.805,21.468,20.23,27.69
					c2.566,4.669,5.834,11.435,9.278,18.204c1.147,2.254,2.314,4.509,3.481,6.688C132.517,431.215,138.146,444.296,136.093,442.039z
					" style="opacity: 1;"></path>
			</g>
			<path class="st9" d="M168.181,331.123c-4.058,2.995-11.735,9.121-16.244,15.773c-5.494,8.112-11.774,20.147-14.13,28.78
				c-2.356,8.634-2.88,23.809-0.524,29.826c2.356,6.017,5.233,23.284,3.402,27.471c-1.739,3.971-6.302-28.085-7.435-35.182
				c0.137,0.566-2.841-16.917,2.58-30.017c6.709-16.207,17.888-25.149,24.039-31.296
				C165.387,330.958,167.754,327.691,168.181,331.123z" style="opacity: 1;"></path>
			<path class="st9" d="M158.219,440.039c1.001,11.278,5.127,28.079,9.614,38.903c0.196,0.474,0.393,0.937,0.592,1.388
				l-10.52-20.834c-3.223-10.655-7.985-35.224,5.876-60.424c12.052,7.119,21.958,24.973,24.975,47.775
				c-2.838-8.852-9.079-24.863-9.079-24.863s-10.991-18.837-14.393-19.098C161.881,402.625,157.172,428.265,158.219,440.039z" style="opacity: 1;"></path>
			<path class="st9" d="M212.909,538.844c-1.467,0.421-6.498,0.421-10.691-4.192c-4.193-4.61-21.593-16.558-24.527-19.491
				c-2.934-2.933-18.867-12.576-29.768-17.186c-10.902-4.613-11.951-3.143-17.19-4.402c-5.242-1.256-11.112-3.143-15.723-4.82
				c-2.465-0.894-5.466-1.851-8.016-2.162v-0.003c-0.095-0.314-0.174-0.608-0.233-0.889c0,0,0.558-3.912,13.415,1.119
				c12.859,5.03,14.537,3.354,22.92,5.588c8.386,2.238,22.92,10.061,35.779,20.68c1.478,1.22,2.496,1.991,3.124,2.381
				c0.034,0.039,0.065,0.078,0.095,0.115c2.723,3.351,28.72,19.701,31.025,21.168C215.425,538.216,214.379,538.427,212.909,538.844z
				" style="opacity: 1;"></path>
			<path class="st9" d="M247.914,517.506c-3.716-5.686-8.159-11.466-11.171-14.811c-4.695-5.215-19.647-17.556-26.428-21.554
				c-6.779-3.999-14.952-10.95-17.038-10.428c-0.488,0.121-0.853,0.395-1.122,0.746c0.16-3.152,1.691-3.926,5.727-1.405
				c8.944,5.588,16.769,8.942,31.864,21.795C237.119,498.13,242.894,507.748,247.914,517.506z" style="opacity: 1;"></path>
			<path class="st9" d="M298.762,566.845c-2.799,0.468-14.705-0.934-24.507-6.301c-9.286-5.084-14.175-14.982-14.862-20.178
				c0.923,1.652,1.845,3.185,2.774,4.576c7.435,11.152,17.19,18.439,34.399,19.297L298.762,566.845z" style="opacity: 1;"></path>
		</g>
		<path class="st7" d="M350.662,585.416c-3.108,1.037-29.698,11.048-36.948,15.882c-7.253,4.834-11.62,4.142-16.452,0.345
			c-4.835-3.797-2.196-10.355-1.158-14.155c1.035-3.797,2.07-8.286,1.725-11.738c-0.23-2.305-1.231-4.921-2.796-9.077
			c-0.78-2.066-1.697-4.514-2.729-7.495c-3.108-8.976,5.525-21.058,21.411-12.772c12.057,6.289,26.308,18.352,32.469,23.795
			c1.955,1.727,3.096,2.787,3.096,2.787S353.77,584.381,350.662,585.416z" style="opacity: 1;"></path>
		<path class="st8" d="M185.164,566.081c7.053,3.526,30.228,4.029,42.319,4.533c12.091,0.504,24.686,5.541,22.167,5.037
			c-2.519-0.504-12.595-3.022-23.679-3.022c-11.084,0-19.144,0.504-30.228-1.007C184.66,570.111,185.164,566.081,185.164,566.081z" style="opacity: 1;"></path>
		<path class="st9" d="M228.447,596.426c1.606-3.669,23.133-17.961,31.886-20.412c11.47-3.211,22.022-3.899,27.528-3.67
			c5.506,0.229-4.129,0.688-6.423,1.376s-17.664,2.523-25.234,6.192c-7.57,3.67-22.921,14.521-25.463,16.054
			C228.199,597.5,228.447,596.426,228.447,596.426z" style="opacity: 1;"></path>
		<path class="st9" d="M264.03,575.577c0,0-2.347-1.918-2.987-1.918s-10.45-6.612-25.169-11.516
			c-14.716-4.904-38.606-2.134-43.724-1.921c-5.118,0.213-22.185,1.921-20.05,4.907c2.132,2.984,13.224,11.087,18.769,14.073
			c4.398,2.367,13.488,5.942,20.252,8.275c-1.456-0.283-3.009-0.62-4.675-1.023c-11.395-2.762-44.891-23.13-40.401-24.168
			c4.49-1.035,20.373-7.938,57.666-5.869c10.436,0.58,31.768,11.738,40.056,17.954c0.081,0.059,0.165,0.126,0.252,0.196
			C264.447,575.397,264.03,575.577,264.03,575.577z" style="opacity: 1;"></path>
		<polygon class="st8" points="287.751,597.288 282.759,602.68 283.602,603.624 288.653,598.187 		" style="opacity: 1;"></polygon>
		<path class="st9" d="M302.254,546.555c-6.919,0.642-9.452,6.912-9.227,10.268c0.224,3.357,3.581,10.072,3.806,11.752
			c0,0-0.687-0.718-1.801-1.901c-0.78-2.066-1.697-4.514-2.729-7.495c-3.108-8.976,5.525-21.058,21.411-12.772
			c12.057,6.289,26.308,18.352,32.469,23.795c0.639,0.872,1.035,1.461,1.172,1.691C348.001,572.966,311.49,545.694,302.254,546.555z
			" style="opacity: 1;"></path>
		<path class="st8" d="M296.444,572.794c-1.787,8.22-1.787,16.798-1.787,16.798l-2.86,2.502
			C291.797,592.094,291.082,580.3,296.444,572.794z" style="opacity: 1;"></path>
		<path class="st8" d="M348.984,575.874c-4.911-2.364-18.005-2.727-15.277-2.182c2.728,0.546,14.914,3.455,16.369,3.818
			C351.53,577.874,348.984,575.874,348.984,575.874z" style="opacity: 1;"></path>
		<path class="st8" d="M350.621,579.329c-3.819-0.182-15.095,3.455-12.004,3.455s12.549-1.636,12.549-1.636L350.621,579.329z" style="opacity: 1;"></path>
		<path class="st9" d="M126.801,283.635c-1.191-7.146,6.216-53.625,9.638-71.372c0.685-3.556,1.489-7.84,1.695-8.471
			c1.234-3.785,0.053,4.924-0.424,10.166c-0.477,5.242-6.386,51.256-8.685,61.206C126.725,285.113,126.801,283.635,126.801,283.635z
			" style="opacity: 1;"></path>
		<path class="st7" d="M365.633,569.537v16.227c0,1.716-1.394,3.107-3.108,3.107h-11.05c-1.01,0-1.904-0.479-2.474-1.225
			c-0.398-0.522-0.634-1.175-0.634-1.881v-16.227c0-1.716,1.391-3.107,3.108-3.107h11.05c1.47,0,2.704,1.021,3.023,2.395
			C365.605,569.052,365.633,569.293,365.633,569.537z" style="opacity: 1;"></path>
		<path class="st10" d="M365.549,568.825c-0.045,0.017-0.095,0.022-0.154,0.014c-1.125-0.188-7.881-1.127-12.195,0.373
			c-3.837,1.338-2.333,13.941-4.199,18.434c-0.398-0.522-0.634-1.175-0.634-1.881v-16.227c0-1.716,1.391-3.107,3.108-3.107h11.05
			C363.996,566.43,365.23,567.451,365.549,568.825z" style="opacity: 1;"></path>
		<path class="st9" d="M154.43,253.187c0,2.599,0.743,3.713,2.6,0.743c1.857-2.97,25.626-44.556,31.939-52.354
			c6.314-7.797,9.285-13.367,11.884-17.08c2.6-3.713-8.171,8.911-13.37,15.966C182.284,207.517,154.43,253.187,154.43,253.187z" style="opacity: 1;"></path>
		<path class="st9" d="M94.31,308.673c-0.485-4.121,1.811,2.062,2.372,3.557c1.779,4.742,11.266,40.904,14.824,52.167
			s2.965,16.302,2.965,16.302S95.496,318.751,94.31,308.673z" style="opacity: 1;"></path>
		<path class="st9" d="M144.433,412.87c0.871-1.089,8.711-41.369,13.72-53.562c5.009-12.193,5.009-19.596,5.009-18.507
			c0,1.089-10.236,28.305-13.938,45.071C146.432,398.514,144.433,412.87,144.433,412.87z" style="opacity: 1;"></path>
		<path class="st9" d="M93.709,413.181c-2.941-5.078,2.604,1.302,3.907,3.58s26.37,32.548,33.532,39.383
			c7.162,6.835,4.558,7.161,4.558,7.161S104.452,431.734,93.709,413.181z" style="opacity: 1;"></path>
		<path class="st9" d="M234.931,573.763c3.962,1.056,16.859,4.1,11.391,3.189c-5.468-0.911-15.947-1.822-24.149-0.911
			c-8.201,0.911-16.403-0.456-26.429-4.419C193.924,571.485,228.096,571.94,234.931,573.763z" style="opacity: 1;"></path>
		<path class="st7" d="M630.821,421.429c-2.824,13.308-13.504,27.196-24.908,37.052c-4.398,3.802-8.902,6.999-13.103,9.335
			c-15.095,8.384-26.274,10.061-39.13,21.238c-11.381,9.895-29.768,29.423-24.928,26.414c0.628-0.39,1.646-1.161,3.124-2.381
			c12.859-10.619,27.393-18.442,35.779-20.68c8.383-2.235,10.06-0.558,22.92-5.588c12.857-5.031,13.415-1.119,13.415-1.119
			c-0.059,0.28-0.137,0.575-0.233,0.892c-3.537,11.513-31.664,43.998-53.431,50.528c-22.361,6.704-43.046,6.704-55.902,11.177
			c-12.856,4.472-34.66,12.295-60.373,22.914c-25.716,10.619-38.014,6.149-47.516,5.03c-9.505-1.119-8.386-14.53,16.211-12.296
			c4.148,0.376,7.948,0.468,11.44,0.294c17.209-0.858,26.964-8.146,34.399-19.297c0.928-1.391,1.851-2.924,2.777-4.579
			c3.626-6.475,7.284-14.699,11.46-22.83c0.006-0.008,0.011-0.02,0.017-0.028c5.02-9.758,10.795-19.376,18.169-25.657
			c15.095-12.854,22.92-16.207,31.864-21.795c3.812-2.381,5.388-1.823,5.688,0.9c0.017,0.16,0.031,0.328,0.039,0.505
			c0.006,0.095,0.008,0.191,0.011,0.286c0.093,3.909-1.702,11.123-3.5,20.105c-3.354,16.765-15.653,30.18-15.653,30.18
			s-2.235,3.911,5.032-1.119c7.267-5.028,14.534-16.765,16.211-29.619c0.017-0.135,0.034-0.266,0.05-0.398
			c0.855-6.926,0.258-12.105,0.006-19.224c-0.025-0.693-0.045-1.402-0.062-2.134c-0.123-5.434,0.028-12.066,1.125-21.28
			c0.056-0.471,0.115-0.939,0.179-1.408c3.018-22.802,12.924-40.655,24.975-47.775c1.102,2.002,1.523,4.001,2.401,5.989
			c10.153,23.027,3.695,44.499,0.727,54.307c-1.066,3.525,0.784,5.654,0.784,5.654s8.944-9.503,8.944-27.945
			c0-4.228-0.236-8.162-0.651-11.816c-1.399-12.287-4.846-21.406-8.293-27.866c-4.471-8.381-6.709-15.088-7.267-28.503
			c-0.558-13.414-1.119-30.737-1.119-36.329c0-0.572,0.022-1.051,0.073-1.441c0.426-3.432,2.793-0.165,8.313,5.356
			c1.186,1.183,2.555,2.47,4.047,3.895c6.243,5.964,14.576,14.315,19.992,27.401c3.947,9.509,3.101,24.955,2.302,34.952
			c0.222-1.036,1.645-4.841,1.87-5.877c2.793-12.854,1.975-36.899-2.495-46.96c-4.473-10.058-10.621-12.296-26.274-20.677
			c-0.505-0.269-0.99-0.533-1.461-0.794c-0.219-0.123-0.432-0.241-0.642-0.362c-13.617-7.663-14.447-12.225-21.377-22.878
			c-7.267-11.177-15.65-43.594-17.888-49.182c-1.411-3.525-1.708-6.606-1.175-8.123c0.314-0.883,0.909-1.231,1.736-0.819
			c2.235,1.116,5.59,4.47,24.036,14.53c7.89,4.301,14.553,9.32,19.944,14.749c7.216,7.262,12.155,15.259,14.716,23.256
			c3.413,10.669,11.39,40.552,13.729,45.641c0,0.003,0.003,0.006,0.003,0.008c0.721,1.565,0.903,0.754,0.244-3.732
			c-2.796-19.003-10.063-51.42-15.095-60.362c-5.031-8.942-8.944-12.296-22.92-24.03c-6.984-5.866-13.409-12.568-19.203-20.665
			c-5.806-8.109-10.98-17.615-15.454-29.078c-7.073-18.114-11-29.941-11.782-36.312c-0.205-1.688-0.194-2.992,0.042-3.928
			c0,0,17.888,3.914,38.011,19.003c0.589,0.44,1.169,0.908,1.744,1.399c13.838,11.811,23.503,37.408,25.649,56.725
			c1.879,16.917,12.057,35.412,15.252,40.874c0.569,0.97,0.914,1.528,0.956,1.596c-3.354-13.412-11.177-29.613-11.735-36.32
			c-0.547-6.539-3.214-13.605-2.317-28.971c0.025-0.398,0.05-0.799,0.079-1.209c0.914-13.266-1.287-31.985,0.603-37.818
			c0.421-1.295,1.041-1.957,1.944-1.781c2.516,0.494,9.861,9.713,17.01,21.479c6.386,10.507,12.612,23.041,15.103,33.208
			c5.581,22.788-6.148,56.448-9.502,65.389c-2.103,5.608-2.925,39.606-2.891,64.155c0.003,2.647-0.014,5.227-0.045,7.672l0,0
			c-0.098,7.324-0.23,16.966,0.807,15.535c0.404-8.171,1.795-33.589,4.325-51.184c0.822-5.72,1.764-10.616,2.833-13.821
			c4.361-13.084,13.347-30.368,21.489-41.289c1.248-1.677,2.479-3.202,3.668-4.54c8.212,8.6,11.774,36.074,10.304,57.353
			c-0.634,9.141-2.193,17.138-4.715,22.009c-8.386,16.207-24.039,35.21-31.305,46.947c-2.443,3.945-4.95,8.586-7.202,13.011
			c-0.154,0.306-0.308,0.608-0.46,0.908c-3.997,7.921-14.623,28.123-14.931,28.841c0.454-0.743,14.88-21.535,21.269-28.453
			c6.709-7.265,15.3-13.75,25.363-20.457c10.063-6.707,16.211-14.53,17.33-10.058C637.53,391.807,634.737,402.984,630.821,421.429z" style="opacity: 1;"></path>
		<path class="st9" d="M618.945,308.06c-0.044-4.149-1.347,7.478-4.841,20.193c-1.342,4.884-7.247,25.579-10.805,36.843
			c-3.558,11.263-5.37,16.951-5.37,16.951S619.22,334.193,618.945,308.06z" style="opacity: 1;"></path>
		<path class="st9" d="M522.42,267.211c-1.171-2.51-1.004-3.681,0.335-2.342c1.339,1.339,8.535,12.214,10.543,15.058
			c2.008,2.844,6.192,7.864,8.368,10.039s14.058,17.233,17.572,22.086s6.861,12.549,7.866,15.058
			c1.004,2.51-5.667-9.673-7.603-12.616c-1.936-2.944-14.822-17.835-16.663-19.843S522.42,267.211,522.42,267.211z" style="opacity: 1;"></path>
		<path class="st7" d="M352.716,586.109c0,0,3.452,5.524,7.598,12.427c4.142,6.903,28.316,31.761,35.911,34.523
			c7.598,2.762,7.253-2.072,12.085-7.941c4.835-5.869,19.683-22.438,19.683-22.438s13.813,13.117,16.576,13.117
			c2.763,0,7.253-17.261,10.36-17.261s24.86-0.345,27.623-1.035c2.763-0.693-6.215-7.941-1.035-8.286
			c4.423-0.294,9.6-0.087,18.115-1.739c1.456-0.283,3.009-0.62,4.675-1.023c11.395-2.762,44.891-23.13,40.401-24.168
			c-4.49-1.035-20.373-7.938-57.666-5.869c-10.436,0.58-31.768,11.738-40.056,17.954c-0.081,0.059-0.165,0.126-0.252,0.196
			c-0.014,0.008-0.031,0.022-0.045,0.034c-14.514-1.127-38.031-2.992-38.031-2.992l-6.908,5.869L423,597.288
			c-12.296,12.082-24.987,24.221-27.811,24.033c-5.18-0.345-33.496-31.761-36.258-35.903L352.716,586.109z" style="opacity: 1;"></path>
		<g>
			<path class="st9" d="M497.842,538.844c1.467,0.421,6.498,0.421,10.691-4.192c4.193-4.61,21.593-16.558,24.527-19.491
				c2.934-2.933,18.867-12.576,29.768-17.186c10.902-4.613,11.951-3.143,17.19-4.402c5.242-1.256,11.112-3.143,15.723-4.82
				c2.465-0.894,5.466-1.851,8.016-2.162v-0.003c0.095-0.314,0.174-0.608,0.233-0.889c0,0-0.558-3.912-13.415,1.119
				c-12.859,5.03-14.536,3.354-22.92,5.588c-8.386,2.238-22.92,10.061-35.779,20.68c-1.478,1.22-2.496,1.991-3.124,2.381
				c-0.034,0.039-0.065,0.078-0.095,0.115c-2.723,3.351-28.72,19.701-31.025,21.168S496.372,538.427,497.842,538.844z" style="opacity: 1;"></path>
			<path class="st9" d="M462.837,517.506c3.716-5.686,8.159-11.466,11.171-14.811c4.695-5.215,19.647-17.556,26.428-21.554
				c6.779-3.999,14.952-10.95,17.038-10.428c0.488,0.121,0.853,0.395,1.122,0.746c-0.16-3.152-1.691-3.926-5.727-1.405
				c-8.944,5.588-16.769,8.942-31.864,21.795C473.632,498.13,467.858,507.748,462.837,517.506z" style="opacity: 1;"></path>
			<path class="st9" d="M411.989,566.845c2.799,0.468,14.705-0.934,24.507-6.301c9.286-5.084,14.175-14.982,14.862-20.178
				c-0.923,1.652-1.845,3.185-2.774,4.576c-7.435,11.152-17.19,18.439-34.399,19.297L411.989,566.845z" style="opacity: 1;"></path>
		</g>
		<path class="st7" d="M360.089,585.416c3.108,1.037,29.698,11.048,36.948,15.882c7.253,4.834,11.62,4.142,16.452,0.345
			c4.835-3.797,2.196-10.355,1.158-14.155c-1.035-3.797-2.07-8.286-1.725-11.738c0.23-2.305,1.231-4.921,2.796-9.077
			c0.78-2.066,1.697-4.514,2.729-7.495c3.108-8.976-5.525-21.058-21.411-12.772c-12.057,6.289-26.308,18.352-32.469,23.795
			c-1.955,1.727-3.096,2.787-3.096,2.787S356.981,584.381,360.089,585.416z" style="opacity: 1;"></path>
		<path class="st8" d="M525.587,566.081c-7.053,3.526-30.228,4.029-42.319,4.533c-12.091,0.504-24.686,5.541-22.167,5.037
			c2.519-0.504,12.595-3.022,23.679-3.022c11.084,0,19.144,0.504,30.228-1.007C526.091,570.111,525.587,566.081,525.587,566.081z" style="opacity: 1;"></path>
		<path class="st9" d="M482.304,596.426c-1.606-3.669-23.133-17.961-31.886-20.412c-11.47-3.211-22.022-3.899-27.528-3.67
			c-5.506,0.229,4.129,0.688,6.423,1.376s17.664,2.523,25.234,6.192s22.921,14.521,25.463,16.054S482.304,596.426,482.304,596.426z" style="opacity: 1;"></path>
		<path class="st9" d="M446.722,575.577c0,0,2.347-1.918,2.987-1.918s10.45-6.612,25.169-11.516
			c14.716-4.904,38.606-2.134,43.724-1.921c5.118,0.213,22.185,1.921,20.05,4.907c-2.132,2.984-13.224,11.087-18.769,14.073
			c-4.398,2.367-13.487,5.942-20.252,8.275c1.456-0.283,3.009-0.62,4.675-1.023c11.395-2.762,44.891-23.13,40.401-24.168
			c-4.49-1.035-20.373-7.938-57.666-5.869c-10.436,0.58-31.768,11.738-40.056,17.954c-0.081,0.059-0.165,0.126-0.252,0.196
			C446.304,575.397,446.722,575.577,446.722,575.577z" style="opacity: 1;"></path>
		<polygon class="st8" points="423,597.288 427.992,602.68 427.149,603.624 422.099,598.187 		" style="opacity: 1;"></polygon>
		<path class="st9" d="M408.497,546.555c6.919,0.642,9.452,6.912,9.227,10.268c-0.224,3.357-3.581,10.072-3.806,11.752
			c0,0,0.687-0.718,1.801-1.901c0.78-2.066,1.697-4.514,2.729-7.495c3.108-8.976-5.525-21.058-21.411-12.772
			c-12.057,6.289-26.308,18.352-32.469,23.795c-0.639,0.872-1.035,1.461-1.172,1.691
			C362.751,572.966,399.262,545.694,408.497,546.555z" style="opacity: 1;"></path>
		<path class="st8" d="M414.307,572.794c1.787,8.22,1.787,16.798,1.787,16.798l2.86,2.502
			C418.955,592.094,419.67,580.3,414.307,572.794z" style="opacity: 1;"></path>
		<path class="st8" d="M361.767,575.874c4.911-2.364,18.005-2.727,15.277-2.182c-2.728,0.546-14.914,3.455-16.369,3.818
			C359.221,577.874,361.767,575.874,361.767,575.874z" style="opacity: 1;"></path>
		<path class="st8" d="M360.131,579.329c3.819-0.182,15.095,3.455,12.004,3.455s-12.549-1.636-12.549-1.636L360.131,579.329z" style="opacity: 1;"></path>
		<path class="st9" d="M585.372,286.782c1.506-12.716-4.184-52.035-7.363-70.105c-0.628-3.566-3.192-12.888-3.18-13.552
			c0.075-3.98,4.281,8.567,5.355,13.72c1.074,5.153,6.156,42.35,6.861,52.537C587.751,279.569,585.372,286.782,585.372,286.782z" style="opacity: 1;"></path>
		<path class="st9" d="M558.664,250.51c0,2.599-0.743,3.713-2.6,0.743s-25.626-44.556-31.939-52.354s-9.285-13.367-11.884-17.08
			c-2.6-3.713,8.171,8.911,13.37,15.966C530.81,204.84,558.664,250.51,558.664,250.51z" style="opacity: 1;"></path>
		<path class="st9" d="M566.904,411.298c1.662-1.229-5.406-41.402-11.844-53.516c-6.186-11.64-7.333-19.48-7.333-18.391
			c0,1.089,12.545,19.71,18.275,45.705C568.789,397.74,566.904,411.298,566.904,411.298z" style="opacity: 1;"></path>
		<path class="st9" d="M617.043,413.181c2.941-5.078-2.604,1.302-3.907,3.58c-1.302,2.278-26.37,32.548-33.532,39.383
			c-7.162,6.835-4.558,7.161-4.558,7.161S606.3,431.734,617.043,413.181z" style="opacity: 1;"></path>
		<path class="st9" d="M475.82,573.763c-3.962,1.056-16.859,4.1-11.391,3.189s15.947-1.822,24.149-0.911
			c8.201,0.911,16.403-0.456,26.429-4.419C516.828,571.485,482.655,571.94,475.82,573.763z" style="opacity: 1;"></path>
		<path class="st9" d="M509.517,207.374c-7.073-18.114-11-29.941-11.782-36.312c-0.205-1.688-0.194-2.992,0.042-3.928
			c0,0,17.888,3.914,38.011,19.003c0.589,0.44,1.169,0.908,1.744,1.399c-10.091-5.773-21.495-10.703-23.175-11.541
			c-2.586-1.293-10.991-4.955-11.639-2.369c-0.645,2.585,4.095,18.1,5.604,22.626c1.509,4.526,10.562,27.151,12.716,31.029
			c1.029,1.856,2.356,5.381,3.932,9.172C519.166,228.342,513.991,218.836,509.517,207.374z" style="opacity: 1;"></path>
		<path class="st9" d="M526.845,305.18c-7.267-11.177-15.65-43.594-17.888-49.182c-1.411-3.525-1.708-6.606-1.175-8.12
			c0-0.003,0-0.003,0-0.003c0.314-0.883,0.909-1.231,1.736-0.819c2.235,1.116,5.59,4.47,24.036,14.53
			c7.89,4.301,14.553,9.32,19.944,14.749c-10.383-8.266-23.475-14.937-25.777-16.087c-3.015-1.509-14.87-7.543-16.379-7.975
			c-1.509-0.429,0,5.602,2.802,12.713c2.802,7.111,7.76,26.719,10.562,32.538c2.802,5.818,10.991,17.887,17.456,24.134
			c2.047,1.98,4.42,4.391,6.703,6.76c-0.219-0.123-0.432-0.241-0.642-0.362C534.605,320.395,533.775,315.833,526.845,305.18z" style="opacity: 1;"></path>
		<path class="st9" d="M546.971,399.073c1.102,2.002,1.523,4.001,2.401,5.989c-0.323-0.252-0.651-0.471-0.987-0.673
			c-2.468-1.48-4.375-0.987-15.229,16.774c-10.857,17.758-9.376,36.012-9.376,48.344c0,7.464-1.265,15.834-3.032,21.386
			c0.855-6.926,0.258-12.105,0.006-19.224c-0.025-0.693-0.045-1.402-0.062-2.134c-0.123-5.434,0.028-12.066,1.125-21.28
			c0.056-0.471,0.115-0.939,0.179-1.405c0-0.003,0-0.003,0-0.003C525.013,424.045,534.919,406.192,546.971,399.073z" style="opacity: 1;"></path>
		<path class="st9" d="M554.661,401.821c5.121,11.09,7.073,31.739,7.11,32.162c-0.048-0.177-1.083-3.886-2.594-8.72
			c-1.399-12.287-4.846-21.406-8.293-27.866c-4.471-8.381-6.709-15.088-7.267-28.503c-0.558-13.414-1.119-30.737-1.119-36.329
			c0-0.572,0.022-1.051,0.073-1.441c0.426-3.432,2.793-0.165,8.313,5.356c1.186,1.183,2.555,2.47,4.047,3.895
			c-3.217-1.741-6.282-3.513-6.95-4.276c-1.509-1.724-3.018-2.801-3.447-0.861c-0.432,1.938,0,26.072,0.861,36.632
			C546.256,382.425,549.489,390.613,554.661,401.821z" style="opacity: 1;"></path>
		<path class="st9" d="M584.974,202.11c-4.325-4.601-12.447-14.227-15.008-14.912c-3.234-0.861-1.941,8.406-2.373,14.87
			c-0.339,5.064-1.47,16.883-2.255,19.37c0.025-0.398,0.05-0.799,0.079-1.209c0.914-13.266-1.287-31.985,0.603-37.818
			c0.421-1.295,1.041-1.957,1.944-1.781C570.479,181.125,577.825,190.345,584.974,202.11z" style="opacity: 1;"></path>
		<g>
			<path class="st8" d="M558.186,255.221c2.408-1.206-37.732-65.543-48.971-74.389c-0.401,2.413,6.021,10.053,10.436,15.28
				c4.415,5.227,28.499,45.438,32.915,53.077C556.982,256.83,558.186,255.221,558.186,255.221z" style="opacity: 1;"></path>
			<path class="st8" d="M520.875,266.558c3.119,6.249,14.23,21.931,23.3,31.017c7.664,7.678,23.3,31.33,25.177,34.62
				c1.877,3.29-4.535-9.086-9.852-17.702c-3.967-6.428-16.198-21.009-20.963-25.852c-1.851-1.881-3.539-3.91-5.053-6.072
				c-3.384-4.83-9.303-13.367-10.733-16.012C520.718,262.798,519.467,263.738,520.875,266.558z" style="opacity: 1;"></path>
			<path class="st8" d="M618.182,304.534c-1.238,5.374-16.714,64.491-18.571,70.072c-1.857,5.581-3.508,9.302-1.238,5.581
				c2.27-3.721,8.46-25.631,10.73-33.899c2.27-8.268,7.428-25.838,8.666-33.073S618.182,304.534,618.182,304.534z" style="opacity: 1;"></path>
			<path class="st8" d="M547.727,339.92c0.88,5.816,6.158,20.444,10.556,33.31c4.398,12.866,8.093,32.252,8.621,38.068
				c0.528,5.816-0.136-11.309-1.232-18.505c-1.583-10.398-10.204-34.544-12.491-39.655c-2.287-5.111-5.454-13.747-5.454-13.747
				V339.92z" style="opacity: 1;"></path>
			<path class="st8" d="M617.894,407.33c-2.459,4.721-30.123,39.002-38.524,47.419c-8.402,8.416-9.836,11.29-7.377,9.237
				c2.459-2.053,26.024-25.659,33.401-36.128c7.377-10.469,10.656-14.985,12.09-18.27
				C618.918,406.303,617.894,407.33,617.894,407.33z" style="opacity: 1;"></path>
			<path class="st8" d="M543.13,417.339c-3.953,12.376-7.413,41.336-9.389,54.95c-1.977,13.614-5.436,21.535-2.965,17.079
				s8.895-36.138,8.895-44.307s3.953-21.534,4.942-27.475C545.601,411.646,543.13,417.339,543.13,417.339z" style="opacity: 1;"></path>
			<path class="st8" d="M509.444,480.994c-6.046,9.245-27.367,41.123-38.505,50.367s-14.32,14.664-10.82,11.795
				s13.047-9.563,24.503-23.271c11.456-13.708,19.093-26.14,23.23-32.516C511.989,480.994,513.899,475.893,509.444,480.994z" style="opacity: 1;"></path>
			<path class="st8" d="M581.044,502.671c-14.469,9.663-54.098,29.009-63.645,32.834c-9.547,3.825,19.412-4.463,30.549-10.839
				s26.094-14.345,31.504-18.489C584.862,502.033,583.908,500.758,581.044,502.671z" style="opacity: 1;"></path>
			<path class="st8" d="M573.585,203.072c-0.064-0.356,0.453-0.479,0.555-0.133c4.09,13.925,13.654,51.2,11.408,81.275
				c-0.225,3.01-0.702,4.109-0.887,0.315C583.654,263.965,576.305,218.287,573.585,203.072z" style="opacity: 1;"></path>
		</g>
		<path class="st9" d="M631.065,334.589c-0.569-8.258-1.172-17.362-1.54-23.77c-0.844-14.771-5.912-30.813-8.865-29.125
			c-1.478,0.847-9.816,15.038-16.045,27.861c-6.226,12.82-10.344,24.269-11.398,26.59c-0.171,0.376-0.32,0.62-0.446,0.74
			c0.822-5.72,1.764-10.616,2.833-13.821c4.361-13.084,13.347-30.368,21.489-41.289c1.248-1.677,2.479-3.202,3.668-4.54
			C628.973,285.835,632.535,313.309,631.065,334.589z" style="opacity: 1;"></path>
	</g>
	<g>
		<g>
			<path class="st6" d="M313.316,345.973c-0.296-0.373-0.596-0.821-0.867-1.297c-0.414-0.727-0.767-1.544-0.997-2.309
				c-0.226-0.742-0.283-1.322-0.282-1.539V117.124h-57.675l-1.058,8.044c-0.172,1.295-0.498,2.541-0.998,3.807
				c-0.41,1.037-0.946,2.09-1.592,3.128c-1.055,1.693-2.414,3.359-4.043,4.958c-2.412,2.378-4.978,4.17-6.704,5.253
				c-1.066,0.667-1.87,1.11-2.25,1.312c-0.25,0.132-0.436,0.228-0.575,0.297l-0.098,0.049l-5.316,2.469v56.312l12.442-4.562
				c3.202-1.173,6.392-2.668,9.502-4.452v148.863c-0.001,0.168-0.017,0.262-0.035,0.333c-0.021,0.07-0.048,0.132-0.089,0.21
				c-0.065,0.122-0.226,0.379-0.583,0.726c-0.256,0.251-0.584,0.516-0.952,0.77c-0.548,0.38-1.231,0.766-1.935,1.092
				c-0.697,0.326-1.331,0.558-1.742,0.695l-6.309,2.12v16.308h78.965v-16.391l-6.182-1.805
				C313.806,346.534,313.576,346.305,313.316,345.973z M270.967,346.349c0.234-1.221,0.351-2.468,0.349-3.729V149.859
				l-16.245,18.803c-0.018,0.021-1.863,2.109-5.114,4.691c-0.194,0.154-0.389,0.307-0.585,0.458v-16.098
				c1.536-0.983,3.02-2.029,4.428-3.12c1.834-1.419,3.561-2.928,5.135-4.488c2.978-2.957,5.451-6.132,7.351-9.434
				c0.943-1.637,1.756-3.329,2.425-5.041h23.949v205.198c0,1.237,0.11,2.474,0.336,3.786c0.1,0.576,0.222,1.154,0.365,1.735H270.967
				z" style="opacity: 1;"></path>
			<path class="st6" d="M416.385,153.556c-2.794-1.89-5.837-3.357-9.044-4.361c-3.316-1.038-6.761-1.564-10.24-1.564h-0.047
				c-4.64,0-9.156,0.92-13.424,2.733c-6.166,2.621-11.417,6.947-15.183,12.51c-1.893,2.795-3.362,5.836-4.366,9.043
				c-1.037,3.324-1.563,6.777-1.563,10.262v113.989c0,4.655,0.92,9.178,2.734,13.44c2.618,6.159,6.945,11.409,12.514,15.184
				c2.793,1.89,5.836,3.357,9.044,4.361c3.316,1.038,6.769,1.564,10.262,1.564c0,0,0.023,0,0.023,0c4.641,0,9.158-0.92,13.425-2.733
				c6.166-2.621,11.416-6.947,15.183-12.51c1.895-2.798,3.363-5.84,4.362-9.04c1.04-3.321,1.567-6.775,1.567-10.265V182.179
				c0-4.648-0.92-9.169-2.734-13.44C426.279,162.576,421.952,157.326,416.385,153.556z M413.122,296.165
				c-0.002,2.151-0.427,4.239-1.261,6.207c-1.201,2.832-3.28,5.352-5.852,7.094c-1.297,0.877-2.709,1.559-4.195,2.025
				c-0.713,0.223-1.455,0.398-2.199,0.518c-0.837,0.133-1.692,0.201-2.541,0.201c-2.15,0-4.237-0.424-6.206-1.261
				c-2.836-1.202-5.354-3.279-7.093-5.851c-0.882-1.303-1.563-2.713-2.025-4.195c-0.479-1.525-0.721-3.118-0.721-4.735V182.182
				c0.002-2.156,0.426-4.245,1.261-6.209c1.201-2.831,3.281-5.35,5.853-7.092c1.297-0.877,2.708-1.558,4.192-2.024
				c1.53-0.477,3.125-0.719,4.74-0.719c2.148,0,4.237,0.423,6.206,1.257c2.839,1.206,5.359,3.285,7.096,5.855
				c0.883,1.305,1.564,2.714,2.025,4.191c0.479,1.528,0.722,3.123,0.722,4.739V296.165z" style="opacity: 1;"></path>
			<path class="st6" d="M455.849,153.362c-5.104-12.006-13.534-22.232-24.38-29.574c-5.44-3.682-11.359-6.538-17.595-8.489
				c-6.453-2.016-13.168-3.038-19.959-3.038c-4.536,0-9.084,0.462-13.518,1.373c-4.313,0.889-8.559,2.214-12.619,3.94
				c-12.008,5.103-22.237,13.53-29.581,24.372c-3.682,5.437-6.538,11.356-8.491,17.593c-2.016,6.451-3.039,13.165-3.039,19.954
				v121.377c0,6.972,1.078,13.856,3.203,20.462c0.615,1.91,1.325,3.816,2.111,5.666c5.102,12.004,13.532,22.231,24.377,29.574
				c5.438,3.681,11.358,6.537,17.596,8.489c6.445,2.016,13.151,3.039,19.933,3.039h0.046c9.031,0,17.817-1.786,26.117-5.31
				c12.002-5.1,22.23-13.528,29.58-24.374c3.685-5.442,6.541-11.362,8.488-17.592c2.019-6.449,3.042-13.162,3.042-19.952V179.493
				C461.163,170.445,459.375,161.653,455.849,153.362z M442.652,300.869c-0.003,6.546-1.295,12.903-3.841,18.895
				c-3.703,8.718-9.83,16.146-17.72,21.484c-3.942,2.669-8.23,4.738-12.743,6.151c-4.658,1.456-9.513,2.194-14.432,2.194
				c-3.296,0-6.587-0.334-9.784-0.994c-3.11-0.639-6.176-1.596-9.114-2.843c-2.629-1.116-5.174-2.474-7.569-4.038
				c-5.534-3.607-10.218-8.209-13.922-13.677c-2.672-3.947-4.741-8.234-6.15-12.743c-1.458-4.653-2.197-9.507-2.197-14.427V179.493
				c0-6.54,1.291-12.897,3.838-18.894c3.701-8.716,9.828-16.146,17.719-21.486c3.948-2.671,8.236-4.739,12.745-6.149
				c4.657-1.457,9.513-2.197,14.434-2.197c3.296,0,6.587,0.334,9.782,0.994c3.108,0.639,6.176,1.595,9.116,2.843
				c8.716,3.701,16.147,9.827,21.491,17.716c2.671,3.947,4.741,8.234,6.15,12.741c1.177,3.766,1.889,7.677,2.118,11.622
				c0.053,0.925,0.08,1.87,0.08,2.81V300.869z" style="opacity: 1;"></path>
		</g>
		<g>
			<g>
				<path class="st7" d="M311.88,348.662c-0.028-0.014-0.129-0.067-0.283-0.179c-0.317-0.224-0.819-0.69-1.318-1.326
					c-0.379-0.477-0.76-1.043-1.108-1.654c-0.522-0.917-0.959-1.937-1.242-2.88c-0.286-0.939-0.407-1.803-0.404-2.355V128.155
					c0-1.525,0-2.339,0-2.339v-6.449h-52.41l-0.738,5.608c-0.208,1.567-0.609,3.048-1.17,4.47c-0.491,1.242-1.108,2.437-1.82,3.581
					c-1.248,2.002-2.802,3.85-4.454,5.471c-2.474,2.44-5.161,4.363-7.185,5.633c-1.012,0.634-1.857,1.11-2.426,1.413
					c-0.286,0.151-0.499,0.261-0.631,0.325c-0.067,0.034-0.112,0.056-0.135,0.067l-3.73,1.733v50.509l2.44-0.894l6.232-2.285
					c3.803-1.394,7.216-3.121,10.201-4.915c1.08-0.65,2.103-1.309,3.071-1.966v153.943c-0.003,0.418-0.053,0.749-0.135,1.057
					c-0.076,0.266-0.177,0.519-0.314,0.777c-0.238,0.451-0.6,0.934-1.102,1.422c-0.373,0.365-0.822,0.729-1.313,1.068
					c-0.735,0.51-1.565,0.967-2.347,1.329c-0.78,0.364-1.509,0.637-2.036,0.813l-4.398,1.478v11.488h73.355v-11.485L311.88,348.662z
					 M266.355,348.592c0.135-0.317,0.264-0.642,0.381-0.976c0.597-1.702,0.937-3.592,0.934-5.557v-87.639
					c0-40.742,0-80.251,0-80.251v-17.334l-11.325,13.109c-0.109,0.126-2.098,2.355-5.483,5.044
					c-1.467,1.167-3.195,2.417-5.135,3.626v-23.018c1.545-0.934,3.458-2.184,5.517-3.78c1.573-1.217,3.231-2.63,4.874-4.259
					c2.46-2.442,4.897-5.367,6.897-8.844c1.001-1.738,1.89-3.617,2.603-5.63c0.095-0.269,0.188-0.541,0.278-0.816h28.728v208.002
					c0,1.133,0.109,2.232,0.294,3.306c0.303,1.741,0.805,3.412,1.453,5.019H266.355z" style="opacity: 1;"></path>
				<path class="st7" d="M425.476,169.275c-2.423-5.7-6.445-10.532-11.505-13.958c-2.533-1.713-5.326-3.073-8.31-4.007
					c-2.984-0.934-6.159-1.438-9.429-1.436c-4.358-0.003-8.546,0.894-12.346,2.51c-5.699,2.423-10.531,6.441-13.959,11.502
					c-1.714,2.529-3.077,5.322-4.011,8.305c-0.931,2.984-1.436,6.158-1.436,9.427v113.989c0,4.36,0.895,8.547,2.51,12.343
					c2.423,5.701,6.445,10.529,11.505,13.958c2.533,1.713,5.326,3.073,8.31,4.007c2.984,0.934,6.159,1.436,9.426,1.436
					c4.361,0.003,8.549-0.894,12.349-2.51c5.699-2.423,10.531-6.441,13.959-11.502c1.714-2.529,3.077-5.322,4.008-8.306
					c0.934-2.984,1.439-6.158,1.439-9.427V181.619C427.986,177.258,427.089,173.072,425.476,169.275z M396.232,314.453
					c-2.597,0-5.051-0.527-7.301-1.483c-3.374-1.43-6.28-3.842-8.321-6.861c-1.021-1.509-1.829-3.166-2.378-4.927
					c-0.553-1.761-0.85-3.626-0.85-5.574V181.619c0.003-2.596,0.527-5.05,1.484-7.302c1.43-3.37,3.845-6.275,6.863-8.319
					c1.509-1.021,3.166-1.825,4.928-2.378c1.761-0.55,3.629-0.847,5.576-0.847c2.6,0,5.051,0.527,7.303,1.481
					c3.371,1.433,6.28,3.844,8.321,6.864c1.021,1.509,1.829,3.163,2.378,4.924c0.553,1.764,0.85,3.628,0.85,5.577v113.989
					c-0.003,2.597-0.53,5.05-1.484,7.299c-1.43,3.373-3.845,6.278-6.863,8.322c-1.509,1.021-3.166,1.826-4.928,2.378
					c-0.841,0.264-1.708,0.468-2.597,0.611C398.243,314.372,397.25,314.453,396.232,314.453z" style="opacity: 1;"></path>
				<path class="st7" d="M452.426,153.898c-4.914-11.558-13.089-21.389-23.371-28.349c-5.141-3.48-10.809-6.242-16.859-8.134
					c-6.05-1.89-12.481-2.911-19.122-2.911c-4.426,0-8.762,0.454-12.952,1.315c-4.19,0.864-8.234,2.137-12.088,3.774
					c-11.561,4.913-21.394,13.086-28.355,23.363c-3.481,5.14-6.243,10.809-8.136,16.858c-1.89,6.048-2.911,12.478-2.911,19.118
					V300.31c0,6.819,1.077,13.414,3.068,19.603c0.595,1.848,1.271,3.659,2.022,5.429c4.914,11.561,13.089,21.389,23.368,28.349
					c5.141,3.48,10.812,6.242,16.862,8.134c6.05,1.893,12.481,2.913,19.122,2.911h0.02c8.849,0,17.319-1.817,25.02-5.087
					c11.561-4.913,21.391-13.089,28.355-23.366c3.481-5.14,6.243-10.807,8.133-16.858c1.893-6.048,2.914-12.478,2.914-19.115
					V178.932C457.517,170.08,455.702,161.601,452.426,153.898z M350.362,329.051c-2.788-4.119-4.995-8.65-6.504-13.476
					c-1.512-4.826-2.325-9.949-2.325-15.265V178.932c0-7.091,1.447-13.835,4.061-19.99c3.921-9.234,10.492-17.138,18.729-22.712
					c4.12-2.787,8.652-4.994,13.479-6.502c4.83-1.511,9.951-2.325,15.271-2.325c3.545,0,7.006,0.362,10.346,1.051
					c3.343,0.687,6.569,1.702,9.648,3.009c9.233,3.92,17.139,10.49,22.718,18.725c2.788,4.119,4.995,8.65,6.504,13.476
					c1.226,3.923,1.994,8.039,2.241,12.298c0.056,0.981,0.084,1.971,0.084,2.969V300.31c-0.003,7.089-1.447,13.832-4.064,19.99
					c-3.921,9.231-10.489,17.135-18.729,22.71c-4.117,2.787-8.65,4.994-13.479,6.505c-4.827,1.509-9.948,2.322-15.268,2.322
					c-3.545,0-7.006-0.362-10.349-1.051c-3.343-0.687-6.569-1.702-9.645-3.009c-2.802-1.189-5.477-2.619-8.004-4.271
					C359.267,339.72,354.249,334.791,350.362,329.051z" style="opacity: 1;"></path>
			</g>
			<path class="st9" d="M307.524,119.367v2.504h-49.182c-3.169,17.191-23.077,29.86-23.077,29.86v45.551l-2.44,0.894v-50.509
				l3.73-1.733c0.022-0.011,0.067-0.034,0.135-0.067c0.132-0.064,0.345-0.174,0.631-0.325c0.569-0.303,1.414-0.78,2.426-1.413
				c2.025-1.27,4.712-3.194,7.185-5.633c1.652-1.621,3.206-3.468,4.454-5.471c0.712-1.144,1.329-2.339,1.82-3.581
				c0.561-1.422,0.962-2.902,1.17-4.47l0.738-5.608H307.524z" style="opacity: 1;"></path>
			<path class="st9" d="M297.708,132.265v218.062h-28.506l-0.869-1.736h28.038c-0.648-1.607-1.15-3.278-1.453-5.019
				c-0.185-1.074-0.294-2.173-0.294-3.306V132.265H297.708z" style="opacity: 1;"></path>
			<path class="st9" d="M256.078,199.231c0,0,0,141.146,0,145.668c0,3.614-9.236,7.515-12.955,8.939v-3.836l4.398-1.478
				c0.527-0.177,1.256-0.449,2.036-0.813c0.783-0.362,1.613-0.819,2.347-1.329c0.491-0.339,0.94-0.704,1.313-1.068
				c0.502-0.488,0.864-0.97,1.102-1.422c0.137-0.258,0.238-0.51,0.314-0.777c0.081-0.308,0.132-0.639,0.135-1.057V194.974
				L256.078,199.231z" style="opacity: 1;"></path>
			<path class="st9" d="M457.517,178.932v17.534c-0.547-4.593-1.015-9.738-1.192-14.884c-0.541-15.708-6.501-30.878-14.088-42.254
				c-7.587-11.376-28.717-24.378-59.06-20.043c-30.343,4.332-51.477,34.128-51.477,56.882v143.745
				c-1.991-6.189-3.068-12.783-3.068-19.603V178.932c0-6.64,1.021-13.069,2.911-19.118c1.893-6.048,4.656-11.718,8.136-16.858
				c6.961-10.277,16.794-18.45,28.355-23.363c3.854-1.638,7.898-2.911,12.088-3.774c4.19-0.861,8.526-1.315,12.952-1.315
				c6.641,0,13.072,1.021,19.122,2.911c6.05,1.893,11.718,4.655,16.859,8.134c10.282,6.96,18.457,16.79,23.371,28.349
				C455.702,161.601,457.517,170.08,457.517,178.932z" style="opacity: 1;"></path>
			<path class="st9" d="M427.986,181.619v5.953c-0.303,0.104-0.564-0.578-0.746-2.403c-0.998-10.005-3.001-13.339-5.668-18.675
				c-2.67-5.336-9.339-14.006-25.017-14.34c-15.675-0.334-29.351,15.341-29.351,28.346c0,13.005,0,79.031,0,79.031l-2.723,22.858
				V181.619c0-3.269,0.505-6.444,1.436-9.427c0.934-2.983,2.297-5.776,4.011-8.305c3.427-5.061,8.26-9.079,13.959-11.502
				c3.8-1.615,7.988-2.512,12.346-2.51c3.27-0.003,6.445,0.502,9.429,1.436c2.984,0.934,5.778,2.294,8.31,4.007
				c5.06,3.426,9.081,8.258,11.505,13.958C427.089,173.072,427.986,177.258,427.986,181.619z" style="opacity: 1;"></path>
			<path class="st9" d="M416.569,188.836c0,0,0,96.04,0,105.378c0,9.337-4.002,18.007-12.01,20.007
				c-2.059,0.516-3.831,0.435-5.346-0.003c0.889-0.143,1.756-0.348,2.597-0.611c1.761-0.552,3.419-1.357,4.928-2.378
				c3.018-2.044,5.433-4.949,6.863-8.322c0.954-2.249,1.481-4.702,1.484-7.299V186.54
				C415.926,187.849,416.569,188.836,416.569,188.836z" style="opacity: 1;"></path>
			<path class="st9" d="M447.271,192.639v119.675c0,14.889-17.756,33.786-37.801,41.802c-16.051,6.418-34.668-3.679-44.395-10.61
				c2.527,1.651,5.203,3.082,8.004,4.271c3.077,1.307,6.302,2.322,9.645,3.009c3.343,0.69,6.804,1.051,10.349,1.051
				c5.32,0,10.442-0.813,15.268-2.322c4.83-1.511,9.362-3.718,13.479-6.505c8.24-5.574,14.809-13.479,18.729-22.71
				c2.617-6.158,4.061-12.901,4.064-19.99V178.932c0-0.998-0.694-10.823-0.75-11.805
				C445.281,171.819,447.271,176.006,447.271,192.639z" style="opacity: 1;"></path>
		</g>
	</g>
	<path class="st9" d="M521.506,495.09c-0.252,5.793-4.786,15.615-8.313,20.652c-3.527,5.037-8.565,8.815-14.611,10.83
		c-6.046,2.015,1.511-3.022,1.511-3.022s20.404-12.089,20.908-34.755C521.506,466.127,523.269,489.045,521.506,495.09z" style="opacity: 1;"></path>
	<path class="st5" d="M679.019,368.957C671.426,541.573,529.055,679.19,354.528,679.19c-122.808,0-229.693-68.141-284.905-168.667
		c15.132,32.496,37.361,64.993,67.195,91.27c61.32,54.008,198.035,120.728,351.334,56.503
		C634.519,596.975,687.02,438.787,679.019,368.957z" style="opacity: 1;"></path>
	<g>
		<g>
			<path class="st6" d="M273.966,417.827c-8.206-4.657-17.768-13.132-23.807-21.022c0.007-0.029,1.157-5.246,1.157-5.246
				l-14.441-1.171l-1.419,2.69c-4.664,8.844-15.039,19.407-25.232,25.687l-4.82,2.97l3.886,4.117c0.586,0.62,1.491,1.969,1.91,2.761
				l2.346,4.438l0.379-0.243v6.94h17.238v26.465h13.545v-13.647l0.715,1.46c0.451,0.922,0.998,2.361,1.168,3.326l0.671,3.809h3.869
				c5.049,0,8.698,0,11.556-1.099c3.677-1.414,5.465-4.4,5.465-9.13v-19.977l2.471,1.554l2.323-4.394
				c0.587-1.111,1.452-2.38,2.204-3.233l3.749-4.255L273.966,417.827z M241.929,408.189c1.153,1.408,2.404,2.837,3.737,4.271h-7.258
				C239.667,411.029,240.846,409.599,241.929,408.189z M254.606,447.46c-0.609-0.003-1.279-0.016-1.984-0.031
				c-0.921-0.019-1.966-0.04-3.06-0.04h-4.855v-7.643h9.899V447.46z M223.749,426.119c0.089-0.068,0.178-0.134,0.268-0.202v0.172
				h36.174v-0.535c0.256,0.193,0.51,0.377,0.765,0.565H223.749z" style="opacity: 1;"></path>
			<path class="st7" d="M271.213,419.888c-9.092-5.16-19.709-14.776-25.834-23.312c0.271-0.323,0.465-0.708,0.558-1.137l0.114-0.508
				l0.265-1.204l-8.898-0.721l-0.468,0.893c-4.896,9.281-15.729,20.333-26.343,26.873l-1.596,0.983l1.01,1.075l0.277,0.293
				c0.81,0.856,1.873,2.449,2.394,3.435l0.776,1.472l1.402-0.903c3.719-2.39,7.462-5.255,10.996-8.36v3.626h30.009v-3.878
				c3.583,3.049,7.324,5.846,10.947,8.123l1.396,0.878l0.77-1.457c0.702-1.328,1.704-2.794,2.616-3.829l1.245-1.411L271.213,419.888
				z M230.008,414.923c4.172-4.091,7.863-8.412,10.602-12.5c2.939,4.06,6.88,8.406,11.246,12.5H230.008z" style="opacity: 1;"></path>
			<path class="st7" d="M263.837,428.584v21.732c0,7.149-4.658,7.149-13.938,7.149h-1.285l-0.222-1.263
				c-0.231-1.312-0.887-3.028-1.436-4.146l-1.075-2.203h2.449c1.051,0,2.04,0.022,2.998,0.04c0.81,0.015,1.574,0.031,2.268,0.031
				c1.189,0,2.255,0,2.859-0.046v-13.828h-16.061v26.463h-7.382v-26.463h-17.238v-7.467H263.837z" style="opacity: 1;"></path>
			<path class="st6" d="M297.109,466.141v-17.177c-1.134,1.811-2.263,3.41-3.357,4.746l-5.092,6.217l-2.796-7.534
				c-0.339-0.912-1.209-2.422-1.809-3.26l-2.091-2.921l2.323-2.741c3.351-3.953,6.999-10.518,9.771-17.454h-10.049v-13.699h13.101
				v-2.344c-2.204,0.498-4.347,0.942-6.331,1.311l-4.576,0.852l-0.808-4.583c-0.092-0.52-0.476-1.634-0.852-2.346l-2.88-5.446
				l6.04-1.224c10.186-2.065,18.692-4.689,22.753-7.021l2.983-1.713l9.378,8.926h25.323v64.921h-13.545v-4.98h-6.702v5.549h-13.357
				v-15.275l-0.87,1.294l-3.262-5.244v21.147H297.109z M334.594,444.829v-32.258h-6.702v32.258H334.594z M312.366,426.017
				c0.702,0.786,1.438,1.621,2.169,2.456v-2.456H312.366z M314.535,412.317v-7.458c-1.269,0.52-2.649,1.028-4.132,1.521v5.937
				H314.535z" style="opacity: 1;"></path>
			<path class="st7" d="M316.384,401.194v13.587H306.09v-11.274c3.309-0.998,6.137-2.064,8.42-3.17
				c0.792-0.009,1.291-0.071,1.886-0.579l0.031-0.028l1.263-1.072l-4.243-4.038l-1.701-1.617l-0.989,0.567
				c-4.397,2.526-13.026,5.212-23.674,7.368l-2.006,0.407l0.906,1.716l0.049,0.092c0.496,0.936,1.008,2.363,1.165,3.25l0.268,1.519
				l1.516-0.283c3.084-0.573,6.498-1.318,9.976-2.175v9.318h-13.1v7.538h11.394c-2.949,8.643-7.582,17.496-11.847,22.526
				l-0.77,0.909l0.693,0.97c0.718,1.004,1.732,2.738,2.194,3.98l0.927,2.501l1.688-2.064c2.89-3.53,6.017-9.001,8.821-15.34v26.642
				h7.133v-27.701c2.591,3.401,4.332,5.816,5.195,7.205l1.248,2.005l3.851-5.72v22.292h7.194v-5.551h12.863v4.981h7.385v-58.76
				H316.384z M316.384,436.236c-1.491-1.885-7.391-8.733-10.294-11.791v-2.125h10.294V436.236z M336.441,447.294h-12.863v-38.421
				h12.863V447.294z" style="opacity: 1;"></path>
			<rect x="360.297" y="446.75" class="st6" width="64.319" height="14.055" style="opacity: 1;"></rect>
			<rect x="362.146" y="449.213" class="st7" width="58.157" height="7.895" style="opacity: 1;"></rect>
			<rect x="363.933" y="397.876" class="st6" width="57.173" height="14.055" style="opacity: 1;"></rect>
			<rect x="365.782" y="400.341" class="st7" width="51.009" height="7.895" style="opacity: 1;"></rect>
			<rect x="368.008" y="421.566" class="st6" width="48.209" height="14.055" style="opacity: 1;"></rect>
			<rect x="369.855" y="424.028" class="st7" width="42.05" height="7.895" style="opacity: 1;"></rect>
			<path class="st6" d="M464.168,466.212V449.92h-29.712v-13.913h10.531v-8.113l-2.566,2.657l-3.304-3.749
				c-0.648-0.735-2.005-2.001-2.593-2.418l-4.507-3.197l3.954-3.86c5.173-5.05,10.326-14.071,13.448-23.543l1.483-4.5l14.243,5.134
				l-1.728,4.41c-0.177,0.452-0.403,0.871-0.672,1.252h35.34v13.913H477.65v2.45h19.056v13.771H477.65v5.793h23.444v13.913H477.65
				v16.291H464.168z M464.168,436.007v-5.793h-5.699v5.793H464.168z M464.168,416.443v-2.45h-8.847
				c-0.48,0.836-0.966,1.653-1.459,2.45H464.168z" style="opacity: 1;"></path>
			<path class="st7" d="M473.337,438.472v-11.955h19.056v-7.608h-19.056v-8.613h20.433v-7.75h-37.776
				c0.564-1.306,1.075-2.587,1.544-3.872c0.813-0.197,1.454-0.761,1.778-1.583l0.573-1.463l-5.518-1.99l-2.767-0.998l-0.493,1.494
				c-3.266,9.912-8.716,19.409-14.219,24.781l-1.312,1.281l1.494,1.06c0.025,0.019,0.049,0.037,0.077,0.055
				c0.872,0.638,2.329,2.027,3.047,2.837l1.094,1.244l1.152-1.192c1.467-1.519,2.942-3.29,4.39-5.267v19.539h-10.531v7.753h29.713
				v16.289h7.32v-16.289h23.443v-7.753H473.337z M466.016,438.472h-11.862v-11.955h11.862V438.472z M466.016,418.909h-19.164
				c1.87-2.554,3.697-5.452,5.432-8.613h13.732V418.909z" style="opacity: 1;"></path>
		</g>
		<path class="st9" d="M246.315,393.727l-0.265,1.204c-2.557-0.243-5.635-0.477-7.906-0.477
			c-4.939,12.629-20.609,23.857-28.124,28.376l-1.01-1.075l1.596-0.983c10.614-6.539,21.447-17.592,26.343-26.873l0.468-0.893
			L246.315,393.727z" style="opacity: 1;"></path>
		<rect x="215.773" y="428.704" class="st9" width="48.064" height="1.201" style="opacity: 1;"></rect>
		<path class="st9" d="M311.747,393.003l1.701,1.617c-8.71,5.529-20.624,7.648-27.464,8.44l-0.906-1.716l2.006-0.407
			c10.648-2.156,19.278-4.842,23.674-7.368L311.747,393.003z" style="opacity: 1;"></path>
		<rect x="316.384" y="401.194" class="st9" width="27.443" height="1.897" style="opacity: 1;"></rect>
		<rect x="365.782" y="400.341" class="st9" width="51.009" height="1.99" style="opacity: 1;"></rect>
		<rect x="369.855" y="424.028" class="st9" width="42.05" height="2.852" style="opacity: 1;"></rect>
		<rect x="362.146" y="449.213" class="st9" width="58.157" height="2.218" style="opacity: 1;"></rect>
		<path class="st9" d="M454.37,393.638c-3.478,11.752-13.02,23.084-17.22,27.674c-0.028-0.018-0.052-0.037-0.077-0.055l-1.494-1.06
			l1.312-1.281c5.503-5.372,10.953-14.869,14.219-24.781l0.493-1.494L454.37,393.638z" style="opacity: 1;"></path>
		<polygon class="st9" points="493.77,402.546 493.77,404.696 459.851,404.696 460.871,402.546 		" style="opacity: 1;"></polygon>
		<polygon class="st9" points="465.828,418.909 465.828,420.357 451.194,420.357 449.601,418.909 		" style="opacity: 1;"></polygon>
		<polygon class="st9" points="492.393,418.909 492.393,420.15 473.66,420.15 473.744,418.909 		" style="opacity: 1;"></polygon>
		<polygon class="st9" points="448.103,426.332 448.103,439.522 437.591,439.522 437.591,446.225 436.303,446.225 436.303,438.472 
			446.834,438.472 446.834,425.381 		" style="opacity: 1;"></polygon>
	</g>
</g>
</svg>
