<!--?xml version="1.0" encoding="utf-8"?-->
<!-- Generator: Adobe Illustrator 22.1.0, SVG Export Plug-In . SVG Version: 6.00 Build 0)  -->
<svg version="1.1" id="_x35_" xmlns="http://www.w3.org/2000/svg" xmlns:xlink="http://www.w3.org/1999/xlink" x="0px" y="0px" viewBox="0 0 720 388" style="enable-background:new 0 0 720 388;" xml:space="preserve">
<style type="text/css">
	.st0{fill:#EAE4DF;}
	.st1{fill:#D8D1C6;}
	.st2{fill:#C1B7AC;}
	.st3{fill:#A89F94;}
	.st4{fill:#CECAC4;}
</style>
<g>
	<rect class="st0" width="720" height="388" style="opacity: 1;"></rect>
	<path class="st1" d="M640.805,193.995c0-31.376,21.722-57.672,50.957-64.743V28.205H28.238v101.646
		c28.07,7.863,48.665,33.594,48.665,64.144c0,30.559-20.594,56.292-48.665,64.155v101.645h663.525V258.75
		C662.527,251.678,640.805,225.38,640.805,193.995z" style="opacity: 1;"></path>
	<ellipse class="st2" cx="340.438" cy="194" rx="111.987" ry="125.2" style="opacity: 1;"></ellipse>
	<ellipse class="st0" cx="340.438" cy="194" rx="101.126" ry="114.352" style="opacity: 1;"></ellipse>
	<g>
		<ellipse class="st2" cx="28.238" cy="194" rx="11.704" ry="11.691" style="opacity: 1;"></ellipse>
		<ellipse class="st2" cx="691.762" cy="194" rx="11.704" ry="11.691" style="opacity: 1;"></ellipse>
	</g>
	<path class="st2" d="M186.901,300.818H113.9c-8.895,0-16.172-7.277-16.172-16.172v-9.412c0-8.895,7.277-16.172,16.172-16.172
		h73.001c8.895,0,16.172,7.277,16.172,16.172v9.412C203.073,293.54,195.796,300.818,186.901,300.818z" style="opacity: 1;"></path>
	<rect x="62.613" y="332.642" class="st2" width="357.839" height="7.226" style="opacity: 1;"></rect>
	<rect x="292.555" y="46.684" class="st2" width="357.839" height="7.226" style="opacity: 1;"></rect>
	<g>
		<path class="st3" d="M55.14,98.428h7.689v3.121c0,2.241,1.013,3.36,3.043,3.36h0.881c2.295,0,3.444-1.12,3.444-3.36V88.427
			c0-2.505-1.069-3.76-3.204-3.76H55.38v-30.24h21.706v7.12H62.589v16.161h6.087c6.14,0,9.211,3.388,9.211,10.16v13.84
			c0,6.774-3.071,10.16-9.211,10.16h-4.325c-6.141,0-9.21-3.253-9.21-9.76V98.428z" style="opacity: 1;"></path>
		<path class="st3" d="M93.905,111.869c-6.141,0-9.211-3.28-9.211-9.841V64.267c0-6.561,3.07-9.84,9.211-9.84h5.367
			c6.139,0,9.21,3.279,9.21,9.84v37.761c0,6.561-3.071,9.841-9.21,9.841H93.905z M95.427,61.388c-2.03,0-3.044,1.12-3.044,3.36
			v36.801c0,2.241,1.148,3.36,3.445,3.36h1.922c2.029,0,3.043-1.12,3.043-3.36V64.748c0-2.241-1.148-3.36-3.444-3.36H95.427z" style="opacity: 1;"></path>
		<path class="st3" d="M124.901,111.869c-6.141,0-9.211-3.28-9.211-9.841V64.267c0-6.561,3.07-9.84,9.211-9.84h5.367
			c6.139,0,9.21,3.279,9.21,9.84v37.761c0,6.561-3.071,9.841-9.21,9.841H124.901z M126.423,61.388c-2.03,0-3.044,1.12-3.044,3.36
			v36.801c0,2.241,1.148,3.36,3.445,3.36h1.922c2.029,0,3.043-1.12,3.043-3.36V64.748c0-2.241-1.148-3.36-3.444-3.36H126.423z" style="opacity: 1;"></path>
		<path class="st3" d="M155.897,111.869c-6.141,0-9.211-3.28-9.211-9.841V64.267c0-6.561,3.07-9.84,9.211-9.84h5.367
			c6.139,0,9.21,3.279,9.21,9.84v37.761c0,6.561-3.071,9.841-9.21,9.841H155.897z M157.419,61.388c-2.03,0-3.044,1.12-3.044,3.36
			v36.801c0,2.241,1.148,3.36,3.445,3.36h1.922c2.029,0,3.043-1.12,3.043-3.36V64.748c0-2.241-1.148-3.36-3.444-3.36H157.419z" style="opacity: 1;"></path>
	</g>
	<g>
		<path class="st3" d="M516.062,216.486c-3.554,2.028-14.216,13.185-17.262,17.749c-3.046,4.564-4.569,6.085-4.569,6.085
			s-8.534,7.804-18.785,17.242c-13.55,12.475-26.781,28.267-28.811,48.044s167.757,16.248,194.157,10.163
			c26.4-6.085,24.588-15.244,13.566-32.181c-10.459-16.073-22.032-27.04-24.57-30.082s-15.231-17.242-20.308-19.778
			c-5.077-2.536-10.154-3.55-10.154-3.55s-2.031-20.285-25.385-23.835C550.586,202.794,516.062,216.486,516.062,216.486z" style="opacity: 1;"></path>
		<path class="st4" d="M495.247,161.717c0,9.128,3.046,42.091,15.739,57.812s43.154,16.735,55.339,3.043
			c-1.015,5.578-13.2,18.763-26.908,18.763c-13.708,0-23.862-11.157-25.893-14.199c-2.031-3.043,12.185,36.513,20.816,42.091
			c8.631,5.578,45.185-38.541,44.17-42.091c-1.015-3.55,1.523-30.427,3.554-30.934c2.031-0.507,10.154-4.057,14.723-16.228
			c4.569-12.171,0-26.37,0-26.37s-9.139-36.005-39.093-41.077c-29.954-5.071-46.201,2.028-53.308,12.171
			C497.277,134.84,495.247,161.717,495.247,161.717z" style="opacity: 1;"></path>
		<path class="st3" d="M491.185,173.381c-5.585-2.028-13.2-7.1-14.216-13.692c-1.015-6.593,7.615-47.162,37.57-58.826
			c6.092-8.621,3.554-23.835,29.954-23.835s24.37,18.763,35.031,23.327s30.97,33.47,31.985,52.74s-12.693,22.313-12.693,22.313
			l0.508-11.157c0,0-15.739,7.607-16.754,5.071c-1.015-2.536-7.108-23.835-6.092-31.441s-5.585-18.256-36.554-18.256
			c-30.97,0-37.062,12.678-39.601,24.342c-2.538,11.664-4.062,33.977-4.062,33.977L491.185,173.381z" style="opacity: 1;"></path>
		<path class="st4" d="M495.438,252.252c6.572,14.323,30.472,51.325,25.094,48.938c-5.377-2.387-29.874-45.357-29.874-49.534
			C490.658,247.478,492.45,245.091,495.438,252.252z" style="opacity: 1;"></path>
		<path class="st4" d="M551.601,296.416c5.975-4.774,44.288-53.122,46.006-59.68c1.718-6.558,6.572,1.194,2.987,7.162
			s-39.434,51.325-49.591,58.486C540.846,309.545,551.601,296.416,551.601,296.416z" style="opacity: 1;"></path>
	</g>
</g>
</svg>
