<?xml version="1.0" standalone="no"?>
<!DOCTYPE svg PUBLIC "-//W3C//DTD SVG 20010904//EN"
 "http://www.w3.org/TR/2001/REC-SVG-20010904/DTD/svg10.dtd">
<svg version="1.0" xmlns="http://www.w3.org/2000/svg"
 width="500.000000pt" height="239.000000pt" viewBox="0 0 500.000000 239.000000"
 preserveAspectRatio="xMidYMid meet">

<g transform="translate(0.000000,239.000000) scale(0.100000,-0.100000)"
fill="#000000" stroke="none">
<path d="M221 2261 c-12 -8 -21 -56 -22 -126 -2 -60 1 -76 14 -79 6 -3 33 -10
59 -17 26 -7 50 -19 53 -27 6 -17 -12 -52 -28 -53 -27 -3 -53 4 -68 17 -18 16
-55 19 -64 5 -12 -21 18 -57 62 -75 42 -17 50 -18 86 -5 43 15 75 56 76 97 1
29 -35 82 -55 82 -25 0 -79 35 -82 53 -2 15 6 17 58 17 54 0 62 3 69 23 13 34
-3 46 -59 40 -45 -4 -50 -3 -50 16 0 24 -30 43 -49 32z"/>
<path d="M3948 2262 c-21 -4 -36 -51 -39 -117 -2 -64 8 -93 35 -100 102 -27
108 -33 81 -72 -13 -18 -20 -20 -47 -12 -17 5 -36 13 -42 19 -5 5 -20 10 -33
10 -19 0 -23 -5 -23 -30 0 -23 6 -33 24 -40 13 -5 27 -13 30 -19 10 -16 96 -5
124 16 33 25 54 89 38 118 -15 28 -36 43 -76 56 -19 6 -41 16 -48 22 -22 17 7
37 54 37 52 0 79 22 62 49 -9 14 -20 17 -59 13 -43 -4 -49 -2 -49 14 0 27 -12
40 -32 36z"/>
<path d="M719 2212 c-38 -7 -71 -132 -54 -202 13 -52 60 -92 98 -83 41 9 87
34 96 52 14 26 15 100 3 147 -14 47 -54 89 -76 81 -9 -4 -16 -3 -16 1 0 8 -23
10 -51 4z m69 -70 c7 -5 15 -34 18 -65 6 -64 -9 -91 -48 -85 -28 4 -39 51 -26
113 10 45 26 56 56 37z"/>
<path d="M465 2202 c-39 -6 -59 -50 -60 -130 -1 -48 3 -76 12 -84 7 -6 13 -16
13 -22 0 -24 59 -48 100 -41 22 4 40 11 40 16 0 5 9 18 21 30 12 12 22 26 23
33 1 6 5 17 9 24 11 16 0 81 -18 109 -33 50 -83 74 -140 65z m89 -102 c21 -36
13 -73 -21 -100 -35 -27 -42 -25 -59 16 -16 39 -11 113 9 126 16 10 52 -11 71
-42z"/>
<path d="M976 2203 c-26 -7 -52 -33 -61 -63 -13 -40 -13 -112 0 -145 17 -43
39 -57 88 -58 83 -2 127 76 103 183 -12 52 -81 96 -130 83z m70 -99 c9 -48 -3
-102 -24 -106 -48 -11 -72 34 -53 99 14 47 18 51 46 46 19 -4 26 -13 31 -39z"/>
<path d="M4170 2198 c0 -4 -9 -9 -19 -13 -13 -4 -21 -19 -26 -48 -4 -23 -9
-55 -11 -71 -6 -38 32 -119 65 -138 47 -27 111 5 146 73 9 16 13 34 10 39 -3
5 -1 11 4 15 19 11 -41 125 -66 125 -6 0 -13 6 -16 13 -4 12 -87 18 -87 5z
m74 -71 c14 -8 23 -17 19 -20 -3 -4 -1 -13 6 -21 23 -28 -14 -106 -50 -106
-26 0 -50 57 -43 99 11 68 18 73 68 48z"/>
<path d="M4417 2201 c-10 -4 -18 -9 -17 -11 1 -3 -4 -18 -10 -35 -29 -73 -21
-158 19 -204 29 -33 100 -29 140 8 31 29 34 39 33 119 -1 59 -36 118 -75 126
-37 8 -67 7 -90 -3z m98 -103 c12 -43 13 -54 1 -77 -9 -16 -23 -27 -39 -29
-34 -2 -47 31 -36 94 13 69 15 73 38 67 15 -4 25 -21 36 -55z"/>
<path d="M4673 2200 c-53 -22 -78 -166 -39 -227 12 -18 28 -33 36 -34 63 -7
137 22 146 57 8 33 -1 136 -15 165 -8 17 -27 31 -51 38 -43 13 -47 13 -77 1z
m86 -98 c18 -56 3 -96 -37 -100 -38 -4 -52 21 -45 83 9 72 61 82 82 17z"/>
<path d="M2045 2183 c-18 -15 -19 -15 -1 -9 15 5 17 4 7 -8 -7 -9 -23 -12 -41
-9 -18 2 -30 0 -30 -6 0 -6 -6 -11 -14 -11 -8 0 -21 -9 -29 -20 -8 -11 -17
-17 -21 -13 -4 4 -9 -3 -13 -15 -5 -21 -23 -31 -23 -13 0 11 -70 20 -76 9 -3
-5 5 -12 18 -17 13 -6 16 -10 8 -10 -25 -1 -64 35 -57 53 5 12 0 16 -23 16
-16 0 -32 4 -35 10 -3 6 1 7 12 4 12 -4 11 -1 -4 8 -28 17 -109 18 -106 1 4
-18 -38 -28 -48 -12 -6 9 -9 10 -9 2 0 -6 14 -18 31 -27 25 -13 30 -13 26 -2
-3 8 0 17 8 20 9 3 12 0 8 -10 -4 -12 0 -15 18 -13 13 1 40 -7 59 -19 19 -12
40 -22 47 -22 6 0 13 -4 15 -9 2 -6 16 -12 32 -15 16 -3 31 -8 34 -10 3 -3 11
-1 19 5 7 6 23 9 35 6 14 -4 27 0 35 11 8 9 12 11 8 5 -4 -9 -1 -11 9 -7 9 3
16 11 16 17 0 6 3 7 7 4 7 -8 33 11 33 25 0 5 -4 6 -10 3 -19 -12 -32 7 -13
20 16 11 37 12 134 6 14 0 34 -9 45 -19 21 -20 55 -25 65 -9 12 17 31 -5 26
-29 -2 -13 0 -24 4 -24 5 0 9 13 9 28 0 20 -8 32 -30 45 -16 10 -36 25 -45 33
-13 13 -15 13 -15 1 0 -8 10 -17 22 -21 19 -4 20 -8 10 -18 -11 -11 -16 -9
-28 7 -8 11 -19 20 -24 20 -4 0 -12 4 -17 8 -4 5 -3 7 2 5 6 -1 12 2 15 7 3 6
-13 11 -35 13 -22 2 -42 7 -45 12 -3 5 -14 1 -25 -7z m-285 -80 c0 -11 -3 -14
-8 -7 -4 6 -14 14 -22 17 -10 4 -8 6 8 6 15 1 22 -5 22 -16z m190 -15 c0 -4
-9 -8 -20 -8 -11 0 -20 4 -20 8 0 4 9 8 20 8 11 0 20 -4 20 -8z"/>
<path d="M2533 2173 c9 -2 17 -9 17 -14 0 -6 8 -6 19 1 11 6 22 6 25 1 7 -10
-29 -24 -59 -22 -17 1 -16 -1 5 -10 13 -5 33 -9 45 -7 11 2 26 -4 33 -12 8 -8
11 -10 8 -3 -8 15 4 44 15 37 5 -3 9 -3 9 1 0 10 -54 27 -95 30 -22 1 -32 1
-22 -2z"/>
<path d="M2480 2159 c0 -5 9 -9 20 -9 11 0 20 2 20 4 0 2 -9 6 -20 9 -11 3
-20 1 -20 -4z"/>
<path d="M2868 2159 c-38 -6 -110 -48 -102 -60 2 -4 -3 -9 -11 -13 -10 -3 -15
1 -15 11 0 16 -14 10 -16 -8 -1 -5 -2 -13 -3 -19 0 -5 -5 -10 -10 -10 -4 0 -6
11 -4 24 7 35 -29 54 -55 28 -11 -10 -11 -16 -2 -27 7 -8 17 -15 23 -15 7 0 7
4 -1 12 -17 17 -15 24 7 24 15 0 18 -6 15 -28 -3 -26 0 -28 31 -28 19 0 34 3
34 8 -3 19 2 26 10 13 7 -11 15 -9 40 10 18 13 27 25 22 27 -12 4 -15 32 -3
33 4 0 19 2 35 4 15 2 27 -1 27 -7 0 -7 4 -7 13 1 16 12 27 5 27 -18 0 -18 61
-61 85 -61 8 0 15 -5 15 -12 0 -6 9 -2 20 10 24 26 45 29 36 6 -3 -9 -6 -18
-6 -20 0 -3 -5 -2 -12 2 -7 4 -8 3 -4 -4 5 -8 15 -8 32 -2 17 7 23 7 19 0 -9
-14 9 -12 23 2 10 10 8 16 -10 31 -13 10 -17 15 -9 11 10 -5 12 -3 7 5 -5 8
-12 9 -20 2 -12 -10 -74 13 -87 32 -4 5 -16 6 -28 2 -14 -4 -21 -2 -21 6 0 7
-3 9 -7 6 -3 -4 2 -16 12 -27 10 -11 14 -20 8 -20 -11 0 -41 30 -43 44 -1 5 4
12 10 16 17 11 -37 17 -82 9z m-72 -64 c-9 -9 -16 -13 -16 -8 0 12 22 34 28
28 2 -2 -3 -11 -12 -20z m224 -15 c0 -5 -7 -10 -16 -10 -8 0 -12 5 -9 10 3 6
10 10 16 10 5 0 9 -4 9 -10z"/>
<path d="M2434 2150 c-29 -12 -40 -30 -23 -41 11 -7 11 -9 1 -9 -7 0 -10 -4
-7 -10 10 -15 35 -12 35 5 0 8 9 15 20 15 11 0 20 4 20 10 0 5 -7 7 -15 4 -8
-4 -15 -1 -15 5 0 6 5 11 10 11 6 0 10 5 10 10 0 12 -7 12 -36 0z m6 -20 c0
-5 -2 -10 -4 -10 -3 0 -8 5 -11 10 -3 6 -1 10 4 10 6 0 11 -4 11 -10z"/>
<path d="M3178 2133 c-18 -15 -35 -28 -37 -30 -3 -2 5 -12 17 -23 21 -20 22
-20 22 -2 0 10 11 28 25 40 14 12 25 18 25 14 0 -4 -9 -15 -20 -25 -25 -21
-28 -45 -2 -26 24 19 32 31 32 50 0 29 -28 29 -62 2z"/>
<path d="M2490 2131 c0 -5 7 -11 14 -14 10 -4 13 -1 9 9 -6 15 -23 19 -23 5z"/>
<path d="M2373 2104 c-3 -8 -1 -20 6 -27 8 -8 11 -4 9 16 -3 31 -6 34 -15 11z"/>
<path d="M1559 2093 c0 -11 -3 -13 -6 -5 -7 18 -37 15 -56 -6 -21 -23 -21 -36
-3 -51 10 -9 21 -4 47 19 19 16 40 30 47 30 6 0 12 5 12 11 0 5 -4 7 -10 4 -5
-3 -10 -1 -10 4 0 19 -20 12 -21 -6z"/>
<path d="M2280 2080 c0 -5 5 -10 10 -10 6 0 10 5 10 10 0 6 -4 10 -10 10 -5 0
-10 -4 -10 -10z"/>
<path d="M2307 2077 c-3 -8 4 -19 15 -26 27 -17 30 -11 8 16 -13 16 -19 19
-23 10z"/>
<path d="M2215 2070 c-3 -5 -2 -10 4 -10 5 0 13 5 16 10 3 6 2 10 -4 10 -5 0
-13 -4 -16 -10z"/>
<path d="M3610 2069 c0 -5 -6 -6 -14 -3 -8 3 -17 0 -21 -5 -3 -6 -11 -9 -16
-5 -17 10 -99 -52 -99 -75 0 -5 -16 -27 -35 -48 -26 -28 -43 -38 -70 -40 -20
-1 -42 -7 -49 -12 -7 -6 -16 -8 -19 -4 -4 3 -7 1 -7 -6 0 -7 -6 -11 -14 -8 -8
3 -34 -7 -59 -24 -56 -37 -78 -89 -79 -191 -1 -75 24 -150 58 -179 12 -10 16
-8 21 12 9 32 103 219 111 220 4 1 21 2 38 4 18 1 39 5 48 8 8 3 18 2 21 -3 3
-5 11 -7 18 -5 41 16 230 11 342 -9 11 -2 25 -4 32 -5 24 -2 44 -34 43 -70 -2
-53 7 -85 39 -139 15 -26 34 -66 40 -88 18 -58 33 -84 48 -84 7 0 13 4 13 8 0
5 16 13 36 18 33 8 38 14 58 75 30 90 26 215 -9 279 -8 14 -18 34 -24 46 -13
29 -102 101 -134 109 -28 7 -57 39 -57 62 0 27 -87 116 -135 138 -40 18 -125
35 -125 24z"/>
<path d="M2275 2050 c-3 -4 4 -10 15 -13 11 -3 22 -2 25 3 3 4 -4 10 -15 13
-11 3 -22 2 -25 -3z"/>
<path d="M4538 1762 c-10 -2 -15 -9 -11 -18 3 -9 13 -12 29 -8 20 5 23 3 18
-11 -4 -9 -10 -12 -13 -7 -3 5 -15 6 -26 1 -11 -4 -14 -8 -7 -8 7 -1 11 -5 8
-10 -3 -5 -16 -7 -29 -4 -18 4 -19 3 -7 -6 13 -9 12 -11 -6 -11 -36 0 -47 24
-22 46 12 10 18 13 14 7 -4 -7 -2 -13 3 -13 6 0 11 9 11 20 0 14 -7 20 -21 20
-11 0 -18 -4 -14 -9 9 -16 -13 -23 -36 -11 -18 10 -19 10 -10 -8 16 -31 58
-67 78 -67 10 0 23 6 29 14 6 7 23 14 37 14 15 0 30 4 34 10 3 6 1 7 -5 3 -7
-4 -12 -1 -12 8 0 8 5 18 10 21 6 4 8 11 4 16 -3 5 -10 6 -16 3 -6 -4 -13 -2
-17 3 -3 5 -14 7 -23 5z"/>
<path d="M510 1694 c0 -8 -7 -17 -15 -20 -8 -4 -15 -10 -15 -16 0 -5 5 -6 10
-3 6 3 10 1 10 -6 0 -7 9 -9 23 -6 21 6 21 5 4 -8 -26 -19 -67 -1 -60 26 6 22
-23 37 -39 21 -9 -9 -7 -17 7 -32 15 -16 15 -20 3 -20 -8 0 -15 -7 -15 -15 0
-19 7 -19 22 2 7 10 17 13 25 8 10 -6 7 -12 -11 -26 -13 -10 -19 -19 -13 -19
5 0 15 5 22 12 9 9 12 9 12 -2 1 -11 3 -10 11 3 7 12 17 15 34 11 20 -5 25 -1
31 20 3 14 10 26 16 26 5 0 7 4 4 9 -3 5 1 14 9 21 13 11 18 10 29 -6 8 -10
12 -22 10 -25 -2 -4 3 -12 11 -19 8 -7 13 -16 10 -20 -3 -5 -2 -11 3 -14 14
-9 10 28 -4 39 -10 7 -11 15 -4 25 7 11 10 11 10 2 0 -7 5 -10 10 -7 15 9 1
26 -18 23 -9 -2 -16 3 -14 10 1 6 -4 12 -12 12 -8 0 -22 3 -32 7 -12 4 -15 3
-10 -5 9 -14 9 -14 -32 -3 -26 8 -32 7 -32 -5z m-50 -36 c0 -13 -23 -5 -28 10
-2 7 2 10 12 6 9 -3 16 -11 16 -16z"/>
<path d="M682 1696 c4 -4 2 -19 -3 -33 -11 -29 -4 -44 16 -36 18 6 20 30 3 36
-7 2 -10 8 -6 12 8 8 47 -33 48 -50 0 -5 -4 -4 -9 3 -6 10 -10 10 -21 -3 -10
-12 -10 -15 1 -15 30 0 59 13 59 25 0 8 12 23 26 34 25 20 26 21 5 21 -11 0
-21 -4 -21 -10 0 -5 -4 -10 -10 -10 -5 0 -10 7 -10 15 0 17 -25 20 -35 5 -3
-5 -1 -10 6 -10 7 0 10 -3 7 -6 -4 -3 -19 2 -35 12 -15 10 -25 14 -21 10z"/>
<path d="M805 1662 c-6 -4 -11 -14 -13 -22 -3 -12 0 -12 14 2 18 18 17 33 -1
20z"/>
<path d="M4586 1633 c-4 -9 -3 -20 2 -25 4 -4 9 4 10 17 2 29 -3 32 -12 8z"/>
<path d="M570 1629 c0 -5 5 -7 10 -4 6 3 10 8 10 11 0 2 -4 4 -10 4 -5 0 -10
-5 -10 -11z"/>
<path d="M4510 1630 c0 -5 5 -10 10 -10 6 0 10 5 10 10 0 6 -4 10 -10 10 -5 0
-10 -4 -10 -10z"/>
<path d="M595 1600 c-4 -6 -19 -10 -36 -10 -24 0 -29 -4 -29 -26 0 -14 4 -23
10 -19 5 3 7 12 3 20 -7 20 11 19 27 0 10 -12 16 -13 26 -4 8 6 11 15 8 20 -3
5 2 6 10 3 9 -3 16 -2 16 4 0 14 -28 23 -35 12z m5 -24 c0 -3 -4 -8 -10 -11
-5 -3 -10 -1 -10 4 0 6 5 11 10 11 6 0 10 -2 10 -4z"/>
<path d="M4540 1597 c-29 -23 -3 -75 29 -57 20 11 23 40 5 40 -9 0 -12 -4 -9
-10 3 -6 -1 -7 -9 -4 -20 8 -21 24 -1 24 8 0 15 5 15 10 0 13 -11 12 -30 -3z"/>
<path d="M428 1537 c4 -14 7 -16 13 -5 12 19 11 25 -5 25 -8 0 -11 -8 -8 -20z"/>
<path d="M478 1549 c-33 -19 -21 -36 23 -33 52 3 59 10 20 19 -17 4 -29 11
-25 16 7 11 4 11 -18 -2z m12 -13 c0 -3 -4 -8 -10 -11 -5 -3 -10 -1 -10 4 0 6
5 11 10 11 6 0 10 -2 10 -4z"/>
<path d="M3695 1541 c-3 -6 1 -11 11 -11 13 0 14 -3 5 -14 -9 -11 -6 -12 14
-8 14 2 25 5 23 6 -2 1 -13 9 -25 19 -14 12 -23 15 -28 8z"/>
<path d="M3365 1526 c-25 -18 -12 -34 25 -31 36 3 53 15 21 15 -12 0 -20 4
-16 9 9 16 -11 21 -30 7z"/>
<path d="M3420 1535 c0 -16 28 -33 41 -25 7 5 11 11 9 13 -10 9 -50 18 -50 12z"/>
<path d="M4572 1532 c-7 -5 -10 -17 -6 -28 4 -14 3 -15 -4 -5 -6 8 -12 9 -16
3 -9 -14 8 -24 29 -16 9 4 14 13 11 20 -3 8 -1 14 4 14 6 0 10 5 10 10 0 12
-10 13 -28 2z"/>
<path d="M3670 1520 c0 -5 5 -10 11 -10 5 0 7 5 4 10 -3 6 -8 10 -11 10 -2 0
-4 -4 -4 -10z"/>
<path d="M3785 1521 c3 -5 0 -11 -7 -13 -14 -5 -2 -28 15 -28 7 0 6 4 -3 10
-13 8 -12 10 3 10 21 0 22 16 1 24 -8 3 -13 2 -9 -3z"/>
<path d="M486 1494 c-5 -14 -4 -15 9 -4 17 14 19 20 6 20 -5 0 -12 -7 -15 -16z"/>
<path d="M448 1463 c7 -3 16 -2 19 1 4 3 -2 6 -13 5 -11 0 -14 -3 -6 -6z"/>
<path d="M4556 1458 c5 -7 9 -17 10 -23 0 -5 2 -16 2 -23 3 -20 22 -4 22 18 0
11 -10 24 -21 31 -17 9 -20 8 -13 -3z"/>
<path d="M3362 1441 c-13 -8 -6 -41 8 -41 12 0 22 32 13 41 -5 5 -14 5 -21 0z"/>
<path d="M1210 1415 c-81 -51 -142 -85 -149 -85 -13 0 -19 -36 -9 -54 8 -15
12 -15 46 0 20 9 42 18 47 20 6 2 11 -14 12 -36 l1 -40 -78 1 c-85 2 -100 -3
-100 -31 0 -24 19 -30 100 -30 38 0 72 -4 75 -10 6 -9 14 -60 20 -120 1 -14 3
-31 3 -38 1 -9 9 -11 25 -6 12 3 24 8 26 10 4 3 3 68 -2 129 l-2 30 75 1 c44
1 76 6 78 13 2 6 7 11 10 11 7 0 8 -9 12 -117 2 -43 6 -54 23 -59 28 -9 48 20
40 60 -3 17 -6 33 -5 36 1 64 3 68 27 72 14 3 25 1 25 -3 0 -5 6 -6 14 -3 7 3
60 6 116 7 94 2 103 1 110 -18 4 -11 4 -32 -1 -48 -9 -31 -1 -95 12 -103 5 -3
18 -3 28 1 14 4 18 15 18 48 0 23 0 94 1 157 0 137 -1 160 -14 181 -10 17 -72
31 -80 18 -2 -4 -17 -4 -33 1 -35 10 -251 7 -268 -3 -9 -6 -13 -37 -13 -100
l0 -92 -81 1 c-44 1 -84 5 -89 10 -5 5 -10 32 -11 61 -2 46 0 55 23 72 14 11
27 18 30 16 3 -3 9 5 15 18 7 16 7 25 -1 32 -18 16 -39 13 -76 -10z m361 -95
c-2 -19 -5 -43 -6 -52 -2 -27 -12 -32 -60 -34 -49 -3 -52 2 -47 72 4 41 5 43
40 46 77 7 77 6 73 -32z m168 11 c4 -9 9 -35 9 -58 l2 -42 -60 2 -60 2 1 57
c2 56 2 57 33 60 43 4 65 -2 75 -21z"/>
<path d="M3645 1432 c-3 -3 -5 -20 -5 -38 0 -27 3 -32 16 -27 9 3 20 0 26 -8
7 -10 8 -7 4 11 -3 14 -6 34 -6 46 0 19 -22 29 -35 16z m25 -33 c0 -5 -4 -9
-10 -9 -5 0 -10 7 -10 16 0 8 5 12 10 9 6 -3 10 -10 10 -16z"/>
<path d="M635 1411 c-31 -5 -41 -11 -43 -28 -4 -28 13 -37 73 -38 l50 0 0 -52
1 -53 -58 0 c-44 0 -60 -4 -65 -16 -10 -28 22 -48 72 -45 45 2 45 2 46 -31 0
-18 2 -41 4 -51 5 -25 -30 -40 -79 -33 -50 7 -68 -3 -63 -35 4 -23 6 -24 103
-25 54 -1 156 -4 227 -7 113 -4 129 -3 137 12 17 33 -10 48 -92 50 -22 1 -28
6 -28 24 -3 144 -4 146 -90 150 l-51 2 3 53 c3 57 1 55 84 52 44 -1 68 17 58
44 -4 10 -18 16 -38 17 -41 1 -154 8 -186 12 -14 2 -43 1 -65 -2z m211 -244
c5 -3 10 -27 9 -54 l0 -48 -40 0 c-39 0 -40 1 -42 35 -4 60 3 75 35 74 16 0
33 -3 38 -7z"/>
<path d="M3361 1352 c12 -56 55 -73 57 -22 1 26 -3 30 -26 30 -19 0 -23 3 -14
9 11 6 9 9 -6 13 -17 5 -19 2 -11 -30z"/>
<path d="M3414 1373 c10 -11 37 -12 30 -2 -3 5 -12 9 -21 9 -9 0 -13 -3 -9 -7z"/>
<path d="M3710 1370 c0 -6 7 -13 15 -16 10 -4 14 -14 10 -28 -5 -17 -4 -18 4
-6 16 23 13 38 -9 50 -14 8 -20 8 -20 0z"/>
<path d="M3430 1335 c0 -8 2 -15 4 -15 2 0 6 7 10 15 3 8 1 15 -4 15 -6 0 -10
-7 -10 -15z"/>
<path d="M3660 1329 c0 -20 10 -28 40 -34 29 -6 25 4 -7 17 l-28 11 25 7 25 6
-27 6 c-22 4 -28 2 -28 -13z"/>
<path d="M4600 1250 c0 -5 5 -10 10 -10 6 0 10 5 10 10 0 6 -4 10 -10 10 -5 0
-10 -4 -10 -10z"/>
<path d="M3542 1238 c-18 -18 -15 -23 13 -24 21 -2 23 1 14 17 -12 22 -12 22
-27 7z"/>
<path d="M4562 1219 c-7 -11 -10 -29 -7 -40 4 -11 2 -19 -4 -19 -6 0 -11 5
-11 12 0 6 -7 3 -15 -8 -17 -23 -19 -34 -4 -34 5 0 7 6 3 13 -4 6 -4 9 1 5 16
-15 45 12 41 37 -4 19 0 25 14 25 17 0 18 -4 8 -31 -6 -17 -21 -34 -34 -39
-13 -5 -24 -14 -24 -20 0 -6 -4 -8 -10 -5 -5 3 -12 -6 -16 -21 -6 -21 -2 -31
16 -46 12 -10 26 -15 31 -12 5 3 9 -5 9 -17 0 -20 -1 -21 -25 -5 -14 9 -25 12
-25 6 0 -5 5 -10 10 -10 6 0 10 -6 10 -14 0 -14 22 -27 53 -31 20 -2 43 -22
35 -30 -3 -3 -13 2 -22 11 -9 9 -20 13 -24 9 -4 -3 1 -11 10 -16 10 -6 15 -16
11 -25 -3 -9 0 -20 8 -25 10 -6 10 -9 2 -9 -8 0 -11 -11 -8 -32 3 -18 3 -27
-1 -20 -3 6 -13 12 -22 12 -15 0 -15 2 -2 10 8 5 11 10 5 10 -5 0 -26 -17 -46
-38 -31 -32 -36 -43 -34 -79 3 -63 4 -66 21 -59 11 4 14 1 9 -13 -6 -20 15
-34 38 -26 13 5 37 -38 37 -68 0 -10 -10 -27 -22 -38 -15 -12 -17 -17 -7 -13
10 3 20 1 24 -5 3 -6 2 -11 -4 -11 -6 0 -8 -7 -4 -16 5 -15 7 -15 15 0 5 9 7
24 4 34 -5 15 -1 18 21 18 26 -1 28 2 26 34 -1 19 -9 40 -17 46 -9 6 -13 14
-9 17 3 4 -6 7 -22 7 -25 0 -26 2 -14 18 13 15 12 16 -4 3 -9 -8 -21 -10 -25
-6 -4 4 -2 10 5 12 8 3 7 10 -5 24 -27 31 -17 89 15 89 5 0 21 14 37 32 22 26
27 40 24 70 -2 21 0 38 4 38 4 0 3 11 -4 25 -6 13 -15 22 -19 19 -5 -3 -9 2
-9 10 0 8 -4 18 -10 21 -5 3 -7 0 -4 -8 3 -8 -1 -14 -9 -14 -9 0 -13 9 -11 23
1 13 -4 28 -12 35 -8 7 -12 20 -9 30 5 15 3 17 -11 12 -11 -4 -15 -2 -13 6 3
7 8 11 12 9 4 -2 20 18 36 45 15 26 36 54 47 63 10 8 14 13 8 10 -7 -3 -17 1
-24 9 -17 21 -33 19 -48 -6z m-8 -394 c-4 -8 -2 -15 4 -15 6 0 13 6 15 13 3 7
6 5 6 -5 1 -10 -5 -18 -13 -18 -18 0 -29 16 -21 30 9 15 15 12 9 -5z m-14 -35
c0 -5 -5 -10 -11 -10 -5 0 -7 5 -4 10 3 6 8 10 11 10 2 0 4 -4 4 -10z m5 -91
c11 -17 2 -18 -19 -3 -17 12 -17 14 -4 14 9 0 20 -5 23 -11z m93 -97 c2 -7 -2
-10 -12 -6 -9 3 -16 11 -16 16 0 13 23 5 28 -10z m-3 -32 c-3 -5 -11 -10 -16
-10 -6 0 -7 5 -4 10 3 6 11 10 16 10 6 0 7 -4 4 -10z"/>
<path d="M3484 1093 c0 -9 9 -25 19 -35 18 -19 32 -24 22 -8 -9 15 11 12 24
-4 9 -11 9 -15 -1 -19 -9 -4 -7 -6 4 -6 9 -1 20 4 24 10 3 6 15 9 25 6 10 -3
24 2 31 11 11 13 11 15 -2 7 -12 -6 -13 -5 -2 6 17 18 15 29 -5 30 -12 1 -10
4 7 10 l25 8 -25 -2 c-19 -2 -24 -7 -22 -23 2 -15 -4 -23 -19 -27 -27 -7 -79
18 -79 38 0 8 -6 15 -14 15 -8 0 -13 -8 -12 -17z"/>
<path d="M340 1079 c0 -5 5 -7 10 -4 6 3 10 8 10 11 0 2 -4 4 -10 4 -5 0 -10
-5 -10 -11z"/>
<path d="M301 1018 c-31 -70 -40 -127 -38 -232 2 -87 4 -99 20 -102 13 -2 16
2 12 17 -5 15 -1 19 19 19 26 0 36 23 16 35 -5 3 -10 17 -10 31 0 14 -4 22
-10 19 -5 -3 -10 1 -10 9 0 9 -7 16 -15 16 -8 0 -15 5 -15 12 0 6 3 8 7 5 3
-4 12 -2 20 4 10 9 13 7 13 -10 0 -11 4 -21 8 -21 5 0 8 15 8 34 -1 22 -5 32
-13 29 -8 -3 -10 4 -7 23 5 25 3 26 -12 13 -16 -12 -17 -12 -9 1 5 8 10 21 12
29 2 15 22 31 38 30 6 0 5 -3 -1 -5 -7 -3 -10 -14 -7 -25 3 -10 0 -26 -7 -34
-8 -10 -9 -15 -1 -15 6 0 13 12 16 28 4 15 15 50 25 77 l18 51 -29 2 c-25 2
-31 -3 -48 -40z m24 2 c-3 -5 2 -10 11 -10 14 0 15 -3 6 -12 -10 -10 -15 -10
-22 2 -13 20 -12 30 1 30 5 0 7 -4 4 -10z m-25 -255 c0 -8 -4 -15 -10 -15 -5
0 -7 7 -4 15 4 8 8 15 10 15 2 0 4 -7 4 -15z"/>
<path d="M3830 965 c-14 -14 -39 -33 -57 -42 -18 -8 -33 -20 -33 -26 0 -12
-71 -121 -82 -125 -4 -2 -8 -10 -8 -17 0 -8 -10 -21 -22 -29 -20 -14 -23 -14
-38 2 -31 34 -88 118 -94 139 -4 12 -19 26 -35 31 -26 9 -28 8 -23 -15 4 -23
6 -23 15 -8 7 14 11 15 18 4 5 -8 3 -17 -4 -21 -9 -6 -9 -10 2 -17 11 -7 9
-10 -8 -16 -15 -4 -29 -1 -42 11 -33 30 -22 -6 12 -38 29 -28 29 -30 12 -43
-11 -8 -24 -10 -34 -4 -9 4 -19 6 -22 2 -8 -7 18 -33 35 -33 10 0 10 -2 -1 -9
-8 -5 -21 -7 -29 -3 -9 3 -13 0 -11 -7 3 -7 7 -11 10 -9 3 2 14 -4 24 -12 17
-14 18 -13 12 3 -9 25 10 21 28 -7 22 -33 15 -80 -13 -84 -23 -4 -30 -30 -12
-48 7 -7 1 -10 -18 -9 -15 0 -35 -4 -45 -10 -16 -9 -15 -11 5 -27 13 -9 20
-20 16 -23 -10 -10 -49 5 -43 16 4 5 3 9 -2 9 -4 0 -8 11 -8 23 0 19 4 23 19
19 15 -4 18 -1 14 16 -6 22 10 26 24 7 4 -5 7 8 5 30 -2 36 0 40 21 39 14 0
19 3 13 9 -11 11 -51 0 -51 -14 0 -6 -14 0 -32 12 -24 18 -30 19 -25 7 3 -9 0
-19 -8 -21 -10 -4 -12 7 -10 47 2 61 13 86 26 65 7 -11 9 -10 9 4 0 9 -7 17
-15 17 -8 0 -15 -5 -15 -11 0 -5 -4 -8 -10 -4 -5 3 -7 12 -3 20 3 8 0 15 -7
15 -6 0 -9 -4 -6 -9 3 -5 -1 -14 -8 -21 -8 -6 -18 -26 -21 -43 -4 -18 -13 -45
-20 -62 -33 -74 -52 -292 -27 -317 4 -3 30 -8 57 -10 43 -3 50 -1 47 14 -4 24
11 23 33 -2 10 -11 25 -20 34 -19 14 0 14 1 1 6 -15 6 -72 63 -64 63 3 0 16
-7 29 -16 20 -13 28 -14 40 -4 12 10 18 10 30 0 13 -11 18 -10 30 6 13 18 14
16 15 -18 0 -29 -3 -36 -14 -32 -8 3 -21 2 -30 -3 -12 -7 124 -7 382 -1 34 1
62 6 62 11 0 11 26 37 38 37 5 0 7 11 4 25 -2 14 -8 23 -12 20 -5 -3 -6 5 -2
17 4 16 7 18 10 8 3 -8 11 -18 18 -23 7 -4 11 -15 8 -25 -5 -14 -4 -15 5 -2
10 13 12 13 21 0 6 -8 9 -28 8 -45 l-3 -30 75 0 75 0 1 108 c0 59 -4 107 -9
107 -5 0 -7 6 -4 14 3 8 -4 42 -15 77 -11 35 -20 70 -21 77 0 6 -4 12 -9 12
-4 0 -8 6 -8 13 0 18 -29 77 -48 99 -11 13 -18 15 -28 7 -22 -18 -38 0 -18 22
16 18 16 19 -1 19 -15 0 -15 2 -5 16 11 13 10 16 -9 21 -14 4 -20 11 -17 22 3
9 -5 23 -19 34 -23 17 -25 17 -36 -4 -10 -20 -9 -21 15 -15 15 4 26 2 26 -4 0
-5 -7 -10 -16 -10 -12 0 -14 -3 -6 -12 8 -10 4 -13 -14 -14 -13 -1 -24 2 -24
7 0 5 -4 9 -9 9 -5 0 -7 -9 -4 -20 4 -15 0 -20 -16 -20 -12 0 -24 -7 -27 -15
-8 -20 -24 -19 -24 1 0 8 4 13 9 10 5 -3 15 1 22 10 10 13 10 17 -2 25 -12 8
-12 10 1 8 25 -4 50 12 50 31 0 10 5 20 12 22 6 2 9 10 7 17 -3 8 -13 3 -29
-14z m60 -122 c0 -7 -6 -10 -15 -7 -9 4 -15 0 -15 -10 0 -9 5 -16 10 -16 6 0
10 -5 10 -11 0 -8 -4 -9 -13 0 -8 6 -16 9 -19 6 -3 -3 -5 8 -6 25 0 17 4 28 9
25 5 -4 9 4 9 17 1 22 1 22 15 4 8 -11 15 -26 15 -33z m17 15 c-3 -8 -6 -5 -6
6 -1 11 2 17 5 13 3 -3 4 -12 1 -19z m-77 -12 c0 -3 -4 -8 -10 -11 -5 -3 -10
-1 -10 4 0 6 5 11 10 11 6 0 10 -2 10 -4z m-35 -26 c-3 -5 -10 -10 -16 -10 -5
0 -9 5 -9 10 0 6 7 10 16 10 8 0 12 -4 9 -10z m185 -31 c0 -13 -4 -18 -12 -13
-8 5 -9 2 -5 -9 3 -10 2 -17 -3 -17 -6 0 -11 5 -11 10 -1 6 -2 16 -3 23 -1 10
12 21 32 26 1 1 2 -8 2 -20z m-517 -68 c-4 -16 -8 -19 -14 -10 -4 7 -3 19 3
26 14 18 19 12 11 -16z m467 10 c0 -5 -7 -11 -15 -15 -26 -10 4 -48 33 -43 28
5 40 -17 24 -44 -7 -10 -9 -25 -6 -33 3 -8 1 -23 -6 -33 -10 -16 -11 -15 -7 9
4 25 2 27 -25 24 -27 -3 -52 -16 -31 -16 14 0 9 -63 -6 -68 -21 -7 -11 -23 12
-17 17 5 18 4 7 -4 -8 -5 -12 -12 -9 -15 3 -3 16 2 28 11 18 12 20 17 10 24
-11 7 -10 9 4 9 9 0 17 -7 17 -15 0 -8 -4 -15 -10 -15 -5 0 -6 -8 -3 -17 5
-12 2 -15 -10 -10 -9 3 -17 2 -17 -2 0 -5 -18 -7 -40 -4 -30 4 -40 2 -40 -8 0
-11 -2 -11 -11 1 -8 12 -10 12 -7 1 4 -16 38 -25 38 -10 0 5 5 9 10 9 6 0 10
-6 10 -13 0 -7 -14 -14 -32 -15 -18 -2 -34 -5 -37 -8 -7 -6 21 -24 29 -19 4 2
5 -9 2 -24 -2 -16 -10 -28 -19 -28 -10 0 -13 8 -10 23 2 14 -2 25 -9 28 -16 6
-19 36 -3 36 5 0 8 4 5 8 -8 13 23 52 40 52 8 0 14 8 14 17 0 13 -3 14 -12 5
-15 -15 -28 -15 -28 0 0 6 3 9 6 5 9 -9 38 23 39 44 1 14 -5 19 -23 19 -15 0
-26 7 -29 20 -3 11 -10 20 -16 20 -6 0 -7 3 -3 7 4 4 15 -3 25 -16 l18 -23 21
23 c18 19 22 20 22 6 0 -9 8 -17 17 -17 13 0 14 3 5 12 -16 16 -15 25 3 25 8
0 12 -4 9 -9 -8 -13 10 -10 25 5 11 10 13 10 7 0 -4 -7 -2 -13 3 -13 14 0 14
30 1 31 -5 1 -14 3 -20 4 -5 1 -15 3 -21 4 -5 0 -7 6 -4 11 11 18 -11 11 -34
-11 -17 -16 -31 -20 -56 -16 -18 3 -38 0 -45 -6 -10 -9 -11 -9 -6 1 4 6 3 12
-2 12 -5 0 -8 10 -7 23 1 12 3 31 5 42 1 11 4 15 7 8 2 -7 9 -13 15 -13 6 0
17 -8 24 -17 12 -16 15 -16 23 -3 6 8 13 11 18 7 9 -10 -18 -28 -33 -23 -6 2
-17 0 -25 -5 -9 -6 -1 -9 27 -9 45 0 64 21 43 47 -7 7 -8 17 -4 21 4 4 10 1
12 -5 4 -10 10 -9 26 2 24 17 37 19 37 6z m17 -13 c-3 -8 -6 -5 -6 6 -1 11 2
17 5 13 3 -3 4 -12 1 -19z m28 -8 c3 -5 1 -10 -4 -10 -6 0 -11 5 -11 10 0 6 2
10 4 10 3 0 8 -4 11 -10z m-187 -111 c7 -12 11 -23 8 -26 -3 -3 -8 2 -12 11
-3 9 -12 16 -20 16 -8 0 -14 5 -14 10 0 18 25 11 38 -11z m-448 1 c0 -5 -6
-10 -14 -10 -8 0 -18 5 -21 10 -3 6 3 10 14 10 12 0 21 -4 21 -10z m14 -36 c3
-8 2 -12 -4 -9 -6 3 -10 10 -10 16 0 14 7 11 14 -7z m491 -4 c-3 -5 -12 -10
-18 -10 -7 0 -6 4 3 10 19 12 23 12 15 0z m-527 -54 c-1 -14 -5 -23 -9 -20 -7
4 0 44 7 44 2 0 3 -11 2 -24z m146 -6 c-6 -6 -15 -6 -24 0 -13 8 -12 10 3 10
12 0 16 5 11 13 -6 10 -4 10 7 0 8 -8 10 -16 3 -23z m-52 -65 c-9 -13 -24 -20
-32 -18 -13 4 -13 4 0 -6 18 -13 57 -14 64 -2 4 5 7 21 8 34 1 14 5 24 9 22
11 -7 -3 -59 -20 -72 -24 -18 -39 -16 -69 12 -17 16 -28 21 -31 13 -2 -6 6
-20 19 -30 27 -22 21 -23 -25 -4 -33 14 -34 17 -23 40 6 15 16 26 22 26 6 0 4
5 -4 11 -12 8 -11 9 5 6 11 -2 19 -10 17 -18 -3 -11 -1 -12 9 -1 14 13 30 16
28 5 -3 -19 2 -23 15 -11 7 7 11 20 9 28 -4 13 -3 13 5 1 7 -10 6 -21 -6 -36z
m378 12 c0 -4 -3 -6 -7 -4 -5 2 -16 7 -26 10 -10 4 -16 11 -12 17 7 11 45 -9
45 -23z m168 -21 c-1 -14 -5 -23 -9 -20 -7 4 0 44 7 44 2 0 3 -11 2 -24z
m-518 -6 c0 -5 -8 -10 -17 -10 -15 0 -16 2 -3 10 19 12 20 12 20 0z m331 -34
c6 3 7 -5 3 -23 -10 -42 -25 -53 -20 -15 2 18 -1 35 -5 38 -5 3 -6 11 -2 17 5
8 9 6 11 -6 2 -9 8 -15 13 -11z m94 -16 c3 -5 1 -10 -4 -10 -6 0 -11 5 -11 10
0 6 2 10 4 10 3 0 8 -4 11 -10z m-58 -25 c9 -21 9 -25 -4 -25 -8 0 -11 5 -8
10 3 6 1 10 -4 10 -6 0 -11 7 -11 15 0 23 14 18 27 -10z"/>
<path d="M3361 888 c-1 -18 -8 -29 -21 -33 -11 -3 -20 -11 -20 -16 0 -6 4 -8
9 -4 6 3 13 -1 18 -9 7 -12 10 -12 21 0 11 12 10 14 -5 14 -16 0 -16 1 1 13
13 10 15 18 7 37 l-10 25 0 -27z"/>
<path d="M3380 901 c0 -11 26 -22 34 -14 12 12 5 23 -14 23 -11 0 -20 -4 -20
-9z"/>
<path d="M521 848 c6 -13 17 -27 23 -31 8 -6 8 -10 0 -13 -7 -3 -9 -14 -6 -26
4 -15 2 -19 -7 -13 -8 4 -10 17 -7 31 4 15 2 24 -5 24 -7 0 -10 3 -6 6 8 8
-18 34 -33 34 -7 0 -23 -8 -36 -19 -22 -18 -23 -19 -5 -35 9 -9 24 -16 32 -16
16 0 49 -34 49 -51 0 -5 5 -7 10 -4 6 3 10 2 10 -4 0 -5 -5 -11 -12 -13 -22
-8 -1 -37 22 -31 13 3 19 11 16 19 -3 8 -1 14 4 14 5 0 9 25 9 56 -1 37 -4 52
-10 43 -7 -11 -9 -11 -9 2 0 9 -12 24 -26 34 -25 16 -25 16 -13 -7z m-16 -38
c3 -5 1 -10 -4 -10 -6 0 -11 5 -11 10 0 6 2 10 4 10 3 0 8 -4 11 -10z"/>
<path d="M3313 805 c-10 -11 -9 -15 7 -20 11 -3 25 -3 31 1 8 5 9 3 4 -6 -5
-8 -3 -11 6 -8 8 3 22 1 32 -4 12 -6 17 -5 17 5 0 8 -10 17 -22 21 -19 5 -21
8 -8 16 22 14 3 12 -20 -2 -15 -10 -22 -10 -28 -2 -5 9 -10 8 -19 -1z"/>
<path d="M3420 764 c0 -8 5 -12 10 -9 6 3 10 10 10 16 0 5 -4 9 -10 9 -5 0
-10 -7 -10 -16z"/>
<path d="M1478 740 c-29 -25 -32 -32 -32 -83 0 -45 4 -61 21 -77 25 -23 43
-26 43 -7 0 8 3 8 9 -2 8 -12 16 -13 49 -3 46 14 61 29 68 68 3 15 7 31 10 35
9 15 -16 61 -31 55 -9 -3 -15 0 -15 8 0 16 -24 28 -62 31 -18 1 -40 -9 -60
-25z m62 -6 c0 -7 -4 -16 -10 -19 -5 -3 -10 -2 -10 4 0 6 -8 7 -17 4 -15 -6
-16 -4 -6 8 15 19 43 21 43 3z m35 -43 c-3 -6 -11 -11 -17 -11 -6 0 -6 6 2 15
14 17 26 13 15 -4z m35 9 c0 -5 -5 -10 -11 -10 -5 0 -7 5 -4 10 3 6 8 10 11
10 2 0 4 -4 4 -10z m-140 -54 c0 -3 -4 -8 -10 -11 -5 -3 -10 -1 -10 4 0 6 5
11 10 11 6 0 10 -2 10 -4z m125 -56 c-3 -5 -12 -10 -18 -10 -7 0 -6 4 3 10 19
12 23 12 15 0z"/>
<path d="M3356 733 c2 -38 2 -39 15 -26 11 11 4 53 -10 53 -4 0 -6 -12 -5 -27z"/>
<path d="M320 698 c0 -8 7 -15 15 -15 18 0 15 19 -3 25 -7 2 -12 -3 -12 -10z"/>
<path d="M3320 706 c0 -2 7 -7 16 -10 8 -3 12 -2 9 4 -6 10 -25 14 -25 6z"/>
<path d="M360 670 c0 -7 -8 -9 -19 -5 -11 3 -22 1 -26 -4 -3 -7 0 -8 10 -5 11
5 14 2 9 -9 -4 -12 -11 -14 -30 -7 -13 5 -24 6 -24 1 0 -13 26 -32 34 -24 4 4
11 1 16 -7 9 -15 20 -17 89 -21 33 -2 45 1 43 10 -2 8 4 10 18 6 11 -4 20 -2
20 4 0 6 -9 11 -20 11 -11 0 -20 5 -20 10 0 6 -7 10 -16 10 -9 0 -32 9 -50 21
-20 12 -34 16 -34 9z m35 -20 c3 -5 2 -10 -4 -10 -5 0 -13 5 -16 10 -3 6 -2
10 4 10 5 0 13 -4 16 -10z m-35 -4 c0 -3 -4 -8 -10 -11 -5 -3 -10 -1 -10 4 0
6 5 11 10 11 6 0 10 -2 10 -4z m80 -26 c0 -5 -4 -10 -10 -10 -5 0 -10 5 -10
10 0 6 5 10 10 10 6 0 10 -4 10 -10z"/>
<path d="M500 670 c-9 -6 -10 -10 -3 -10 6 0 15 5 18 10 8 12 4 12 -15 0z"/>
<path d="M544 673 c3 -4 -4 -13 -16 -20 -22 -12 -22 -12 -2 -13 20 0 44 17 44
32 0 4 -7 8 -17 8 -9 0 -13 -3 -9 -7z"/>
<path d="M1012 638 c20 -17 29 -65 12 -72 -6 -2 -23 -2 -36 1 -13 3 -18 1 -11
-4 21 -15 19 -46 -4 -58 -13 -7 -20 -15 -16 -19 4 -4 -1 -4 -10 0 -20 7 -10
24 17 28 9 1 16 6 16 12 0 8 -10 9 -39 5 -16 -2 -22 -33 -10 -48 10 -12 8 -13
-17 -8 -35 8 -111 7 -139 -2 -26 -8 -48 -31 -40 -43 4 -6 3 -10 -2 -9 -20 3
-23 -2 -12 -22 8 -15 8 -19 0 -15 -6 4 -11 3 -11 -3 0 -19 20 -22 27 -4 9 25
51 64 58 53 3 -5 -7 -18 -22 -30 -20 -16 -24 -23 -14 -29 10 -6 8 -10 -6 -16
-10 -5 -25 -7 -33 -6 -9 2 -3 -8 13 -23 15 -14 36 -26 45 -26 15 0 15 2 2 10
-13 8 -13 10 1 10 9 0 22 -6 28 -13 7 -9 26 -12 56 -10 40 4 46 2 56 -20 6
-14 20 -27 30 -30 13 -4 16 -11 12 -28 -5 -18 -3 -21 10 -16 9 3 19 2 22 -3 3
-4 -1 -10 -7 -13 -23 -7 10 -36 35 -30 32 7 67 25 67 35 0 4 -10 8 -22 8 -19
0 -20 2 -8 10 13 9 13 11 0 21 -13 9 -12 10 3 5 13 -4 20 0 24 14 3 11 9 20
14 20 11 0 7 44 -5 52 -6 4 -7 10 -3 14 4 4 14 -1 23 -12 8 -10 12 -13 8 -5
-4 9 -2 12 7 9 8 -3 22 -1 32 4 13 7 17 5 17 -9 0 -15 2 -16 10 -3 5 8 10 11
10 6 0 -5 7 -3 15 4 11 9 19 10 26 3 10 -10 73 -2 86 11 12 12 -7 34 -31 34
-18 0 -28 -8 -34 -26 -8 -26 -9 -26 -14 -4 -4 12 -2 22 3 22 5 0 9 5 9 10 0 6
-10 10 -22 10 -19 0 -20 2 -8 10 13 8 13 10 -1 10 -19 0 -33 -41 -17 -51 6 -4
7 -12 4 -18 -9 -15 -37 12 -33 31 2 7 2 10 0 6 -2 -4 -11 -4 -20 -1 -13 5 -15
2 -11 -15 4 -12 1 -25 -4 -29 -7 -3 -8 -1 -4 5 5 8 -1 12 -16 12 -22 1 -22 1
-4 15 16 12 17 18 8 27 -9 9 -12 9 -12 -1 0 -7 -4 -9 -10 -6 -18 11 -32 -5
-19 -22 11 -12 9 -13 -14 -8 -17 5 -27 3 -27 -4 0 -6 5 -11 11 -11 6 0 9 -8 7
-17 -2 -9 -7 -16 -13 -16 -5 1 -19 -4 -29 -9 -15 -8 -23 -6 -38 13 -12 16 -16
18 -12 6 6 -17 5 -17 -26 0 -25 14 -34 15 -37 5 -3 -6 -9 -10 -13 -7 -22 13 3
32 38 29 20 -1 42 2 49 8 9 7 13 7 13 -1 0 -17 22 -36 43 -37 23 -2 22 5 -4
14 -21 8 -21 9 -3 27 24 24 24 36 -1 58 -20 18 -20 18 5 3 27 -17 60 -21 60
-7 0 5 11 8 25 7 17 -1 23 -6 20 -14 -3 -8 0 -12 7 -9 7 2 12 10 11 16 -2 6 2
11 8 11 5 0 7 5 4 10 -13 21 43 9 69 -15 21 -19 31 -22 49 -15 12 5 17 9 11 9
-7 1 -14 11 -18 24 -5 21 -10 23 -74 23 -57 -1 -68 -4 -64 -16 3 -9 -4 -5 -17
8 -12 12 -27 22 -34 21 -9 0 -9 -2 1 -6 6 -2 12 -9 12 -14 0 -6 -4 -8 -9 -4
-5 3 -13 0 -17 -6 -4 -8 -3 -9 4 -5 7 4 12 3 12 -3 0 -18 -23 -24 -34 -9 -6 9
-20 18 -31 21 -17 4 -17 5 -2 6 11 1 20 12 24 31 3 17 9 33 14 35 4 3 6 -4 4
-15 -3 -17 0 -19 21 -14 14 4 24 2 24 -5 0 -6 8 -11 17 -11 13 0 14 3 5 12 -8
8 -8 17 -1 30 6 11 7 27 3 36 -3 9 -7 27 -8 39 -1 13 -10 31 -19 40 -21 21
-77 25 -70 6 3 -8 14 -11 28 -7 30 7 41 -12 21 -35 -18 -20 -21 -41 -5 -41 5
0 7 -5 4 -10 -4 -6 -14 -9 -23 -8 -11 2 -18 -5 -20 -19 -2 -13 -8 -23 -14 -23
-5 0 -8 6 -5 13 2 6 -3 18 -12 24 -14 11 -14 14 -2 22 8 5 19 8 25 6 12 -4 61
53 53 61 -3 3 -15 -5 -27 -18 -16 -15 -21 -18 -17 -7 5 16 -29 59 -48 59 -5 0
-2 -6 7 -12z m103 -118 c3 -5 1 -10 -4 -10 -6 0 -11 5 -11 10 0 6 2 10 4 10 3
0 8 -4 11 -10z m-130 -59 c-3 -6 -11 -11 -17 -11 -6 0 -6 6 2 15 14 17 26 13
15 -4z m-52 -13 c9 2 17 -1 17 -7 0 -6 -5 -10 -12 -8 -6 1 -14 -7 -16 -18 -5
-24 -28 -39 -64 -41 -21 -1 -24 1 -15 11 9 9 16 10 25 3 7 -6 16 -8 19 -4 4 4
2 11 -6 15 -7 5 -12 11 -12 15 3 19 0 27 -8 21 -5 -3 -12 -1 -15 4 -3 5 2 12
11 15 9 4 20 1 25 -6 5 -9 8 -7 8 7 1 17 2 18 13 5 7 -9 20 -14 30 -12z m-116
-20 c-3 -8 -6 -5 -6 6 -1 11 2 17 5 13 3 -3 4 -12 1 -19z m178 -8 c-3 -4 0
-10 5 -12 13 -4 -26 -48 -42 -48 -7 0 -3 7 8 15 11 8 14 15 7 15 -7 0 -13 5
-13 10 0 15 23 39 33 33 4 -2 5 -8 2 -13z m-52 -20 c3 -11 1 -18 -4 -14 -5 3
-9 12 -9 20 0 20 7 17 13 -6z m-113 5 c0 -2 -9 -9 -20 -15 -12 -6 -20 -7 -20
-1 0 5 8 12 18 14 9 3 18 5 20 6 1 0 2 -1 2 -4z m44 -60 c6 -17 4 -18 -18 -9
-20 8 -21 24 -2 24 8 0 16 -7 20 -15z m431 5 c-3 -5 -12 -10 -18 -10 -7 0 -6
4 3 10 19 12 23 12 15 0z m-525 -5 c0 -2 -9 -9 -20 -15 -16 -9 -18 -8 -14 5 5
13 34 22 34 10z m45 -14 c3 -5 1 -12 -4 -15 -5 -3 -11 1 -15 9 -6 16 9 21 19
6z m125 -35 c0 -3 -4 -8 -10 -11 -5 -3 -10 -1 -10 4 0 6 5 11 10 11 6 0 10 -2
10 -4z m104 -23 c19 -10 19 -11 -2 -22 -15 -8 -22 -8 -22 -1 0 5 -3 9 -7 8
-11 -2 -43 13 -43 21 0 10 53 6 74 -6z m-50 -32 c17 -19 17 -19 -3 -14 -12 3
-21 12 -21 19 0 18 4 18 24 -5z m25 -62 c-9 -5 -15 -4 -18 2 -2 6 3 15 10 20
9 5 15 4 18 -2 2 -6 -3 -15 -10 -20z"/>
<path d="M1020 276 c0 -2 7 -7 16 -10 8 -3 12 -2 9 4 -6 10 -25 14 -25 6z"/>
<path d="M970 609 c-7 -16 -16 -29 -21 -29 -5 0 -9 -8 -9 -17 0 -15 2 -14 15
3 9 14 23 20 40 19 30 -4 32 8 6 34 -19 19 -19 19 -31 -10z"/>
<path d="M3408 613 c7 -3 16 -2 19 1 4 3 -2 6 -13 5 -11 0 -14 -3 -6 -6z"/>
<path d="M4531 477 c-13 -41 -10 -77 6 -77 7 0 13 -4 13 -9 0 -13 28 -22 35
-10 4 5 1 8 -7 7 -7 -2 -12 3 -10 10 1 8 -2 11 -7 8 -5 -3 -12 2 -16 12 -16
35 -14 42 11 36 19 -5 24 -2 24 12 -1 47 -35 55 -49 11z"/>
<path d="M1270 478 c8 -7 25 -23 38 -36 l23 -23 -7 25 c-3 15 -2 26 4 26 16 0
23 -30 11 -52 -10 -18 -9 -20 6 -15 9 4 21 7 26 7 16 0 10 20 -15 46 -14 16
-38 28 -62 31 -33 4 -37 3 -24 -9z"/>
<path d="M1160 470 c0 -5 5 -10 10 -10 6 0 10 5 10 10 0 6 -4 10 -10 10 -5 0
-10 -4 -10 -10z"/>
<path d="M4565 430 c-3 -5 -1 -10 4 -10 6 0 11 5 11 10 0 6 -2 10 -4 10 -3 0
-8 -4 -11 -10z"/>
<path d="M1185 419 c-11 -17 1 -21 15 -4 8 9 8 15 2 15 -6 0 -14 -5 -17 -11z"/>
<path d="M1340 380 c0 -5 5 -10 10 -10 6 0 10 5 10 10 0 6 -4 10 -10 10 -5 0
-10 -4 -10 -10z"/>
<path d="M2068 370 c-49 -6 -66 -15 -54 -27 4 -4 10 -3 14 3 6 9 13 10 51 6 7
-1 11 -8 7 -17 -3 -8 -2 -15 2 -16 4 0 14 -2 22 -3 8 -2 25 7 38 20 l22 24
-32 -6 c-23 -4 -29 -3 -19 4 20 14 1 19 -51 12z"/>
<path d="M2502 373 c-6 -2 -10 -9 -6 -14 3 -5 -3 -12 -13 -15 -54 -19 -112
-48 -107 -56 3 -4 1 -8 -5 -8 -6 0 -8 -6 -5 -14 4 -9 0 -14 -10 -12 -19 3 -34
16 -17 16 7 0 9 5 5 11 -3 6 -17 9 -30 6 -13 -2 -22 1 -21 7 1 7 -14 10 -42 8
-29 -3 -41 0 -36 7 3 6 1 11 -4 11 -6 0 -11 7 -11 16 0 14 -2 14 -15 0 -18
-17 -20 -30 -3 -20 8 5 9 2 5 -9 -4 -11 -1 -17 8 -17 8 0 24 -9 35 -20 12 -12
26 -17 36 -13 13 5 15 3 9 -7 -6 -10 -2 -11 19 -6 14 3 26 2 26 -3 0 -17 65
-6 86 14 25 24 21 53 -5 33 -14 -12 -15 -11 -2 5 16 21 31 22 31 3 0 -8 7 -16
15 -20 8 -3 15 -1 15 4 0 6 9 10 20 10 11 0 20 4 20 10 0 13 47 24 93 22 22
-1 35 3 32 8 -4 6 -1 10 4 10 6 0 11 -4 11 -9 0 -13 39 -21 47 -9 3 7 1 8 -5
4 -11 -6 -17 13 -13 37 1 5 -3 6 -9 2 -5 -3 -10 -2 -10 3 0 5 -7 9 -15 9 -8 0
-15 -6 -15 -13 0 -7 -9 -18 -20 -24 -11 -6 -20 -7 -20 -2 0 5 -7 9 -15 9 -8 0
-15 -4 -15 -9 0 -5 -9 -4 -21 2 -12 7 -18 18 -15 26 3 8 4 14 3 13 -1 0 -8 -3
-15 -6z m-10 -55 c-19 -20 -24 -21 -32 -8 -7 12 -3 16 18 21 15 4 29 7 32 8 2
0 -6 -9 -18 -21z"/>
<path d="M2540 369 c0 -6 9 -8 20 -4 11 4 20 2 20 -4 0 -16 17 -13 24 4 4 12
-3 15 -29 15 -19 0 -35 -5 -35 -11z"/>
<path d="M4537 362 c11 -41 65 -75 108 -68 18 3 21 8 17 36 -2 12 -32 13 -32
1 0 -5 -6 -11 -13 -14 -10 -4 -13 2 -9 21 3 15 2 24 -2 20 -4 -3 -23 0 -41 8
-30 12 -33 12 -28 -4z m43 -32 c0 -5 -2 -10 -4 -10 -3 0 -8 5 -11 10 -3 6 -1
10 4 10 6 0 11 -4 11 -10z"/>
<path d="M1659 358 c-11 -8 -11 -9 1 -5 8 2 25 0 38 -4 13 -5 21 -5 18 0 -9
14 -43 19 -57 9z"/>
<path d="M1600 350 c-12 -8 -11 -10 8 -10 12 0 22 5 22 10 0 13 -11 13 -30 0z"/>
<path d="M1742 343 c-6 -3 -9 -9 -6 -15 4 -7 -5 -8 -27 -4 -33 6 -33 5 -6 -5
15 -6 25 -15 21 -20 -3 -5 2 -9 11 -9 9 0 26 -11 38 -24 35 -37 144 -51 173
-21 7 7 10 16 6 20 -4 4 0 5 8 3 9 -1 29 7 44 20 24 18 27 25 16 35 -10 9 -11
9 -6 0 5 -9 0 -13 -15 -13 -18 0 -19 2 -9 15 9 10 9 15 1 15 -6 0 -11 -4 -11
-10 0 -5 -7 -10 -15 -10 -8 0 -15 -4 -15 -10 0 -5 -5 -10 -11 -10 -6 0 -17 -7
-26 -15 -8 -9 -23 -13 -33 -10 -10 3 -21 1 -25 -4 -3 -7 0 -8 9 -5 9 3 16 1
16 -6 0 -6 5 -8 12 -4 6 4 8 3 5 -4 -4 -5 -19 -8 -35 -6 -15 3 -37 5 -49 5
-23 -1 -28 11 -24 53 1 15 -1 16 -13 7 -12 -10 -14 -9 -9 7 5 22 -5 32 -25 25z
m242 -49 c4 -10 1 -14 -6 -12 -15 5 -23 28 -10 28 5 0 13 -7 16 -16z m-44 -30
c0 -8 -4 -12 -10 -9 -5 3 -10 10 -10 16 0 5 5 9 10 9 6 0 10 -7 10 -16z"/>
<path d="M2051 337 c-6 -8 -8 -17 -4 -20 11 -12 19 -7 20 13 2 24 -1 25 -16 7z"/>
<path d="M3879 329 c-11 -22 -9 -22 26 -9 17 7 24 7 20 0 -3 -6 -1 -10 5 -10
6 0 10 8 8 18 -4 23 -46 24 -59 1z"/>
<path d="M1562 329 c3 -8 0 -23 -8 -34 -13 -18 -14 -18 -14 3 0 20 -3 21 -21
12 -25 -14 -41 -52 -25 -62 19 -13 46 -9 46 7 0 8 6 15 13 15 6 0 17 11 23 23
8 18 7 26 -5 37 -13 12 -14 12 -9 -1z m-37 -77 c-3 -3 -5 0 -5 7 0 7 -4 10 -9
7 -5 -4 -7 4 -3 16 l5 22 9 -24 c5 -12 6 -25 3 -28z"/>
<path d="M2226 326 c10 -8 21 -12 24 -10 5 6 -21 24 -34 24 -6 0 -1 -6 10 -14z"/>
<path d="M1610 318 c0 -4 11 -7 25 -6 33 3 33 16 0 14 -14 0 -25 -4 -25 -8z"/>
<path d="M2701 316 c-9 -11 -9 -16 0 -22 8 -4 9 -3 5 4 -5 8 1 12 14 12 15 0
20 -5 18 -17 -2 -10 -11 -17 -21 -17 -23 2 -22 -1 9 -21 27 -17 27 -17 21 5
-4 16 -2 20 10 16 8 -3 18 -6 21 -6 4 0 0 -5 -8 -10 -11 -7 -4 -10 27 -10 32
0 41 -3 37 -14 -4 -9 3 -13 22 -13 22 0 24 1 11 9 -10 5 -17 15 -17 22 0 11
-40 26 -82 30 -4 1 -15 11 -23 24 -19 26 -28 27 -44 8z"/>
<path d="M2954 314 c3 -9 2 -12 -5 -9 -13 9 -50 -25 -42 -38 4 -6 12 -3 20 8
13 18 13 18 26 0 10 -12 16 -14 21 -7 4 7 4 12 0 12 -4 0 5 11 20 25 26 24 26
25 6 25 -12 0 -18 -4 -15 -10 3 -5 1 -10 -4 -10 -6 0 -11 5 -11 10 0 6 -5 10
-11 10 -6 0 -8 -7 -5 -16z"/>
<path d="M1123 283 c3 -13 0 -21 -5 -20 -6 1 -13 -4 -16 -12 -3 -10 0 -12 10
-8 10 3 19 -3 26 -17 8 -18 7 -27 -6 -41 -16 -16 -16 -17 8 -5 33 17 51 41 46
62 -2 9 1 19 7 21 14 4 0 27 -16 26 -9 0 -8 -2 1 -6 13 -5 7 -23 -8 -23 -5 0
-19 10 -31 23 l-22 22 6 -22z"/>
<path d="M1792 289 c6 -17 37 -24 49 -12 6 6 5 10 -3 10 -7 0 -21 4 -32 8 -14
6 -17 4 -14 -6z"/>
<path d="M2865 269 c-4 -6 -4 -13 -1 -16 3 -4 6 -1 6 6 0 7 5 9 12 5 7 -4 8
-3 4 4 -9 15 -13 15 -21 1z"/>
<path d="M2918 243 c7 -3 16 -2 19 1 4 3 -2 6 -13 5 -11 0 -14 -3 -6 -6z"/>
<path d="M941 224 c0 -11 3 -14 6 -6 3 7 2 16 -1 19 -3 4 -6 -2 -5 -13z"/>
<path d="M2795 230 c4 -6 11 -8 16 -5 14 9 11 15 -7 15 -8 0 -12 -5 -9 -10z"/>
<path d="M1095 221 c-3 -5 -1 -12 5 -16 12 -7 30 2 30 16 0 12 -27 12 -35 0z"/>
</g>
</svg>
