<!--?xml version="1.0" encoding="utf-8"?-->
<!-- Generator: Adobe Illustrator 22.1.0, SVG Export Plug-In . SVG Version: 6.00 Build 0)  -->
<svg version="1.1" id="_x35_" xmlns="http://www.w3.org/2000/svg" xmlns:xlink="http://www.w3.org/1999/xlink" x="0px" y="0px" viewBox="0 0 720 388" style="enable-background:new 0 0 720 388;" xml:space="preserve">
<style type="text/css">
	.st0{fill:#EAE4DF;}
	.st1{fill:#D8CCB7;}
	.st2{fill:#C9BAA7;}
	.st3{fill:#AD9A86;}
</style>
<g>
	<rect class="st0" width="720" height="388" style="opacity: 1;"></rect>
	<path class="st1" d="M640.805,193.995c0-31.376,21.722-57.672,50.957-64.743V28.205H28.238v101.646
		c28.07,7.863,48.665,33.594,48.665,64.144c0,30.559-20.594,56.292-48.665,64.155v101.645h663.525V258.75
		C662.527,251.678,640.805,225.38,640.805,193.995z" style="opacity: 1;"></path>
	<ellipse class="st2" cx="340.438" cy="194" rx="111.987" ry="125.2" style="opacity: 1;"></ellipse>
	<ellipse class="st0" cx="340.438" cy="194" rx="101.126" ry="114.352" style="opacity: 1;"></ellipse>
	<g>
		<path class="st3" d="M510.699,219.688l-13.556,16.898c0,0-40.601,32.587-40.601,86c0,0,30.698,3.022,97.047,3.022
			c66.348,0,84.173-7.511,84.173-7.511s3.961-48.87-4.951-70.631c-8.912-21.761-48.523-32.642-48.523-32.642l-10.893-9.891
			L510.699,219.688z" style="opacity: 1;"></path>
		<path class="st3" d="M494.973,156.612c-11.736-7.453-21.711-54.301,12.909-75.063c24.709-14.818,44.009,0,44.009,0
			c22.885-10.647,37.554,12.244,43.422,27.683c5.868,15.439-2.347,28.215-9.975,39.395c-7.628,11.18-56.331,35.668-56.331,35.668
			L494.973,156.612z" style="opacity: 1;"></path>
		<polygon class="st2" points="577.035,170.357 577.035,202.916 537.342,251.754 510.699,219.688 510.699,191.076 523.925,186.945 
					" style="opacity: 1;"></polygon>
		<path class="st3" d="M575.404,184.17c-2.175,17.266-36.974,36.012-52.743,33.545c-5.22-0.814-9.135-2.232-11.962-4.144v-16.082
			l13.226-4.131C543.391,190.139,571.23,185.428,575.404,184.17z" style="opacity: 1;"></path>
		<path class="st2" d="M534.084,95.367c-20.661,0-36.973,13.327-36.973,33.552c0,21.211-6.525,24.171-2.175,37.983
			s9.553,33.481,27.186,39.957c22.836,8.386,40.779-9.373,47.847-16.772c7.068-7.399,13.593-22.691,13.593-22.691
			s5.981,3.453,10.874-9.866c4.893-13.319,1.631-21.211-4.35-20.718c-5.981,0.493-12.505,0.493-13.049-5.426
			C576.494,125.466,581.931,95.367,534.084,95.367z" style="opacity: 1;"></path>
	</g>
	<g>
		<g>
			<path class="st3" d="M69.825,50.578c2.152,0,3.228,0.638,3.228,1.915v52.19h0.107l5.597-0.456
				c0.358,1.583,0.538,2.965,0.538,4.151c0,1.187-0.467,1.78-1.399,1.78h-17.22l-5.597,0.457c-0.36-1.582-0.538-2.965-0.538-4.152
				c0-1.187,0.466-1.78,1.399-1.78h9.041V57.237l-3.013,0.457c-2.513,0.365-4.557,1.004-6.135,1.916
				c-1.005-0.973-1.687-2.403-2.045-4.288c0-0.182,0-0.334,0-0.457c0-0.668,0.431-1.094,1.291-1.277l13.669-2.92
				C69.107,50.608,69.464,50.578,69.825,50.578z" style="opacity: 1;"></path>
			<path class="st3" d="M84.03,101.763V59.61c0-3.04,1.112-5.413,3.337-7.117c2.223-1.702,5.236-2.555,9.041-2.555
				c3.802,0,6.761,0.792,8.879,2.373c2.115,1.583,3.174,3.893,3.174,6.935v42.153c0,3.043-1.13,5.415-3.39,7.117
				c-2.26,1.701-5.292,2.554-9.095,2.554c-3.804,0-6.745-0.791-8.825-2.372C85.069,107.117,84.03,104.806,84.03,101.763z
				 M92.102,59.246v42.518c0,1.035,0.393,1.903,1.184,2.601c0.789,0.7,1.775,1.05,2.96,1.05c1.184,0,2.169-0.35,2.959-1.05
				c0.789-0.698,1.184-1.566,1.184-2.601V59.246c0-1.034-0.395-1.901-1.184-2.601c-0.79-0.698-1.775-1.05-2.959-1.05
				c-1.185,0-2.171,0.352-2.96,1.05C92.495,57.345,92.102,58.212,92.102,59.246z" style="opacity: 1;"></path>
			<path class="st3" d="M116.209,101.763V59.61c0-3.04,1.112-5.413,3.337-7.117c2.223-1.702,5.236-2.555,9.041-2.555
				c3.802,0,6.761,0.792,8.879,2.373c2.115,1.583,3.174,3.893,3.174,6.935v42.153c0,3.043-1.13,5.415-3.39,7.117
				c-2.26,1.701-5.292,2.554-9.095,2.554c-3.804,0-6.745-0.791-8.825-2.372C117.249,107.117,116.209,104.806,116.209,101.763z
				 M124.281,59.246v42.518c0,1.035,0.393,1.903,1.184,2.601c0.789,0.7,1.775,1.05,2.96,1.05c1.184,0,2.169-0.35,2.959-1.05
				c0.789-0.698,1.184-1.566,1.184-2.601V59.246c0-1.034-0.395-1.901-1.184-2.601c-0.79-0.698-1.775-1.05-2.959-1.05
				c-1.185,0-2.171,0.352-2.96,1.05C124.675,57.345,124.281,58.212,124.281,59.246z" style="opacity: 1;"></path>
			<path class="st3" d="M148.389,101.763V59.61c0-3.04,1.112-5.413,3.337-7.117c2.223-1.702,5.236-2.555,9.041-2.555
				c3.802,0,6.761,0.792,8.879,2.373c2.115,1.583,3.174,3.893,3.174,6.935v42.153c0,3.043-1.13,5.415-3.39,7.117
				c-2.26,1.701-5.292,2.554-9.095,2.554c-3.804,0-6.745-0.791-8.825-2.372C149.428,107.117,148.389,104.806,148.389,101.763z
				 M156.461,59.246v42.518c0,1.035,0.393,1.903,1.184,2.601c0.789,0.7,1.775,1.05,2.96,1.05c1.184,0,2.169-0.35,2.959-1.05
				c0.789-0.698,1.184-1.566,1.184-2.601V59.246c0-1.034-0.395-1.901-1.184-2.601c-0.79-0.698-1.775-1.05-2.959-1.05
				c-1.185,0-2.171,0.352-2.96,1.05C156.855,57.345,156.461,58.212,156.461,59.246z" style="opacity: 1;"></path>
			<path class="st3" d="M180.569,101.763V59.61c0-3.04,1.112-5.413,3.337-7.117c2.223-1.702,5.236-2.555,9.041-2.555
				c3.802,0,6.761,0.792,8.879,2.373c2.115,1.583,3.174,3.893,3.174,6.935v42.153c0,3.043-1.13,5.415-3.39,7.117
				c-2.26,1.701-5.292,2.554-9.095,2.554c-3.804,0-6.745-0.791-8.825-2.372C181.608,107.117,180.569,104.806,180.569,101.763z
				 M188.641,59.246v42.518c0,1.035,0.393,1.903,1.184,2.601c0.789,0.7,1.775,1.05,2.96,1.05c1.184,0,2.169-0.35,2.959-1.05
				c0.789-0.698,1.184-1.566,1.184-2.601V59.246c0-1.034-0.395-1.901-1.184-2.601c-0.79-0.698-1.775-1.05-2.959-1.05
				c-1.185,0-2.171,0.352-2.96,1.05C189.034,57.345,188.641,58.212,188.641,59.246z" style="opacity: 1;"></path>
		</g>
	</g>
	<g>
		<ellipse class="st2" cx="28.238" cy="194" rx="11.704" ry="11.691" style="opacity: 1;"></ellipse>
		<ellipse class="st2" cx="691.762" cy="194" rx="11.704" ry="11.691" style="opacity: 1;"></ellipse>
	</g>
	<path class="st2" d="M186.901,300.818H113.9c-8.895,0-16.172-7.277-16.172-16.172v-9.412c0-8.895,7.277-16.172,16.172-16.172
		h73.001c8.895,0,16.172,7.277,16.172,16.172v9.412C203.073,293.54,195.796,300.818,186.901,300.818z" style="opacity: 1;"></path>
	<rect x="62.613" y="332.642" class="st2" width="357.839" height="7.226" style="opacity: 1;"></rect>
	<rect x="292.555" y="46.684" class="st2" width="357.839" height="7.226" style="opacity: 1;"></rect>
</g>
</svg>
