<?xml version="1.0" standalone="no"?>
<!DOCTYPE svg PUBLIC "-//W3C//DTD SVG 20010904//EN"
 "http://www.w3.org/TR/2001/REC-SVG-20010904/DTD/svg10.dtd">
<svg version="1.0" xmlns="http://www.w3.org/2000/svg"
 width="500.000000pt" height="235.000000pt" viewBox="0 0 500.000000 235.000000"
 preserveAspectRatio="xMidYMid meet">

<g transform="translate(0.000000,235.000000) scale(0.100000,-0.100000)"
fill="#000000" stroke="none">
<path d="M227 2178 c-14 -22 -17 -49 -21 -188 -2 -78 1 -90 24 -90 22 0 29 37
28 130 -1 36 2 83 6 106 5 31 4 44 -8 53 -12 10 -17 8 -29 -11z"/>
<path d="M755 2177 c-16 -5 -31 -11 -33 -12 -8 -7 -17 -74 -17 -126 1 -44 6
-62 25 -87 33 -40 44 -44 92 -32 46 13 68 52 68 122 0 34 -25 103 -45 126 -10
12 -65 17 -90 9z m65 -79 c18 -41 18 -66 2 -100 -14 -32 -24 -34 -46 -12 -16
16 -22 96 -10 128 10 27 38 18 54 -16z"/>
<path d="M3970 2165 c-6 -14 -11 -53 -13 -86 -2 -45 -8 -64 -20 -70 -9 -6 -17
-15 -17 -21 0 -6 6 -5 16 3 14 11 15 10 12 -11 -2 -15 -9 -24 -18 -22 -11 2
-11 -1 3 -11 9 -8 17 -21 17 -29 0 -23 46 -40 60 -23 6 8 9 19 5 24 -3 6 -1
19 5 30 5 11 6 22 1 25 -5 3 -7 53 -5 111 4 100 3 105 -16 105 -13 0 -24 -10
-30 -25z"/>
<path d="M527 2166 c-20 -15 -37 -66 -37 -108 0 -15 -5 -30 -10 -33 -6 -4 -9
-3 -8 2 7 24 -15 93 -36 116 -33 36 -67 34 -104 -4 -24 -25 -31 -40 -30 -72 1
-89 39 -147 96 -147 37 0 72 29 72 61 0 20 24 23 26 3 1 -21 27 -61 46 -73 29
-18 74 -4 105 34 23 28 28 43 27 88 -1 78 -18 112 -65 131 -47 19 -59 19 -82
2z m73 -61 c18 -22 21 -106 5 -128 -17 -24 -51 -15 -59 16 -6 25 0 102 9 117
9 15 31 12 45 -5z m-196 -4 c10 -15 15 -106 8 -118 -6 -10 -13 -9 -30 3 -17
11 -22 25 -22 58 0 50 27 85 44 57z"/>
<path d="M967 2169 c-41 -24 -58 -98 -43 -186 8 -46 32 -73 67 -75 31 -2 79
12 79 22 0 5 8 16 17 25 10 10 18 39 21 72 4 45 1 60 -17 83 -11 16 -21 33
-21 39 0 9 -53 31 -74 31 -6 0 -19 -5 -29 -11z m69 -71 c20 -38 21 -73 2 -108
-13 -26 -55 -36 -50 -12 1 6 -3 12 -9 12 -15 0 -5 106 12 126 17 21 27 17 45
-18z"/>
<path d="M4305 2171 c-40 -6 -40 -6 -53 -69 -8 -35 -17 -60 -21 -57 -3 4 -6
10 -7 13 -5 60 -34 97 -83 107 -26 5 -80 -47 -81 -78 -3 -100 8 -131 59 -158
30 -16 37 -17 62 -3 20 10 32 27 40 57 l12 42 9 -35 c6 -19 23 -47 40 -63 30
-29 42 -30 101 -8 41 16 57 121 32 202 -3 9 -17 21 -30 27 -14 6 -25 16 -25
22 0 5 -3 9 -7 9 -5 -1 -26 -5 -48 -8z m57 -75 c11 -16 10 -80 -2 -110 -21
-57 -74 -7 -63 61 11 71 13 74 36 67 12 -4 25 -12 29 -18z m-204 -3 c13 -26
15 -110 3 -117 -6 -4 -19 2 -30 13 -14 14 -18 30 -16 60 5 61 25 81 43 44z"/>
<path d="M4476 2146 c-13 -31 -19 -85 -17 -142 1 -12 14 -36 30 -53 36 -39 89
-43 121 -9 11 12 20 24 21 27 0 3 3 15 6 26 21 73 -16 168 -68 179 -63 12 -78
8 -93 -28z m93 -34 c19 -35 24 -93 11 -118 -17 -30 -35 -31 -55 0 -17 26 -17
116 0 128 17 13 34 9 44 -10z"/>
<path d="M4707 2155 c-13 -11 -22 -25 -20 -32 2 -6 -1 -14 -6 -18 -18 -11 -13
-127 6 -155 24 -35 33 -40 76 -40 38 0 81 31 86 62 10 64 11 128 2 128 -6 0
-11 6 -11 13 0 6 -9 23 -20 37 -24 32 -80 35 -113 5z m82 -56 c37 -40 12 -139
-35 -139 -25 0 -37 91 -19 148 6 19 32 14 54 -9z"/>
<path d="M1664 2138 c-3 -4 2 -8 10 -8 9 0 16 -5 16 -11 0 -5 -6 -7 -12 -3 -8
5 -7 1 2 -10 13 -17 14 -17 21 1 3 10 2 20 -2 21 -5 2 -7 7 -5 11 3 4 -2 8
-10 8 -8 0 -17 -4 -20 -9z"/>
<path d="M1760 2140 c0 -5 4 -10 9 -10 6 0 13 5 16 10 3 6 -1 10 -9 10 -9 0
-16 -4 -16 -10z"/>
<path d="M1805 2140 c3 -5 10 -10 16 -10 5 0 9 5 9 10 0 6 -7 10 -16 10 -8 0
-12 -4 -9 -10z"/>
<path d="M1856 2141 c-4 -5 3 -7 14 -4 23 6 26 13 6 13 -8 0 -17 -4 -20 -9z"/>
<path d="M2430 2140 c0 -5 5 -10 10 -10 6 0 10 5 10 10 0 6 -4 10 -10 10 -5 0
-10 -4 -10 -10z"/>
<path d="M2485 2140 c-5 -9 -4 -11 3 -6 7 4 12 1 12 -8 0 -19 9 -20 30 -5 13
9 13 10 0 6 -8 -2 -20 3 -26 11 -9 12 -13 12 -19 2z"/>
<path d="M2528 2143 c7 -3 16 -2 19 1 4 3 -2 6 -13 5 -11 0 -14 -3 -6 -6z"/>
<path d="M2560 2146 c0 -3 9 -10 20 -16 11 -6 20 -8 20 -6 0 3 -9 10 -20 16
-11 6 -20 8 -20 6z"/>
<path d="M1438 2128 c9 -9 15 -9 24 0 9 9 7 12 -12 12 -19 0 -21 -3 -12 -12z"/>
<path d="M1530 2120 c12 -22 25 -26 36 -8 4 7 3 8 -5 4 -6 -4 -14 0 -17 8 -3
9 -10 16 -15 16 -6 0 -5 -9 1 -20z"/>
<path d="M2365 2130 c-3 -5 -1 -10 4 -10 6 0 11 5 11 10 0 6 -2 10 -4 10 -3 0
-8 -4 -11 -10z"/>
<path d="M2625 2130 c3 -5 8 -10 11 -10 2 0 4 5 4 10 0 6 -5 10 -11 10 -5 0
-7 -4 -4 -10z"/>
<path d="M2653 2126 c0 -8 8 -11 19 -8 10 2 15 8 12 13 -8 14 -31 11 -31 -5z"/>
<path d="M2722 2126 c7 -8 17 -12 22 -9 4 3 2 9 -5 14 -22 13 -31 11 -17 -5z"/>
<path d="M2448 2113 c7 -3 16 -2 19 1 4 3 -2 6 -13 5 -11 0 -14 -3 -6 -6z"/>
<path d="M2550 2110 c0 -14 15 -19 29 -11 9 6 7 10 -8 14 -12 3 -21 1 -21 -3z"/>
<path d="M2977 2113 c16 -3 20 -9 16 -21 -7 -18 -5 -17 16 11 12 15 10 17 -20
16 -23 -1 -27 -3 -12 -6z"/>
<path d="M1641 2094 c6 -8 18 -14 26 -14 20 0 8 16 -17 23 -17 4 -19 3 -9 -9z"/>
<path d="M3050 2100 c0 -5 5 -10 11 -10 5 0 7 5 4 10 -3 6 -8 10 -11 10 -2 0
-4 -4 -4 -10z"/>
<path d="M2480 2093 c0 -5 5 -15 10 -23 7 -12 9 -10 7 8 -1 19 -17 33 -17 15z"/>
<path d="M2947 2086 c-4 -10 -1 -13 8 -9 8 3 12 9 9 14 -7 12 -11 11 -17 -5z"/>
<path d="M2600 2075 c-9 -10 -9 -15 -1 -15 6 0 11 -7 11 -15 0 -19 20 -19 56
0 l29 15 -25 1 c-14 1 -34 0 -44 -1 -13 -1 -17 3 -13 14 8 20 3 20 -13 1z m50
-25 c0 -5 -5 -10 -11 -10 -5 0 -7 5 -4 10 3 6 8 10 11 10 2 0 4 -4 4 -10z"/>
<path d="M2415 2070 c-4 -6 3 -10 14 -10 25 0 27 6 6 13 -8 4 -17 2 -20 -3z"/>
<path d="M2460 2064 c0 -8 5 -12 10 -9 6 4 8 11 5 16 -9 14 -15 11 -15 -7z"/>
<path d="M1425 2050 c3 -5 11 -10 16 -10 6 0 7 5 4 10 -3 6 -11 10 -16 10 -6
0 -7 -4 -4 -10z"/>
<path d="M1680 2050 c0 -5 7 -7 15 -4 8 4 15 8 15 10 0 2 -7 4 -15 4 -8 0 -15
-4 -15 -10z"/>
<path d="M2531 2044 c0 -11 3 -14 6 -6 3 7 2 16 -1 19 -3 4 -6 -2 -5 -13z"/>
<path d="M2560 2050 c0 -5 5 -10 11 -10 5 0 7 5 4 10 -3 6 -8 10 -11 10 -2 0
-4 -4 -4 -10z"/>
<path d="M2845 2050 c-3 -5 -1 -10 4 -10 6 0 11 5 11 10 0 6 -2 10 -4 10 -3 0
-8 -4 -11 -10z"/>
<path d="M2952 2048 c2 -6 10 -14 16 -16 7 -2 10 2 6 12 -7 18 -28 22 -22 4z"/>
<path d="M3100 2035 c0 -9 6 -12 15 -9 8 4 15 7 15 9 0 2 -7 5 -15 9 -9 3 -15
0 -15 -9z"/>
<path d="M2562 2015 c-7 -8 -9 -15 -4 -15 5 0 15 7 22 15 16 19 -1 19 -18 0z"/>
<path d="M2827 2010 c-3 -11 -2 -20 2 -20 3 0 12 9 19 20 10 16 10 20 -2 20
-7 0 -16 -9 -19 -20z"/>
<path d="M3030 2016 c0 -8 4 -17 9 -20 5 -4 7 3 4 14 -6 23 -13 26 -13 6z"/>
<path d="M1710 2010 c0 -13 18 -22 24 -11 3 5 -1 11 -9 15 -8 3 -15 1 -15 -4z"/>
<path d="M2516 2012 c-3 -6 -1 -14 5 -17 14 -9 20 -2 10 14 -6 8 -11 9 -15 3z"/>
<path d="M2610 2011 c0 -5 7 -11 14 -14 10 -4 13 -1 9 9 -6 15 -23 19 -23 5z"/>
<path d="M2956 2005 c-3 -8 -1 -15 3 -15 5 0 11 7 15 15 3 8 1 15 -3 15 -5 0
-11 -7 -15 -15z"/>
<path d="M3126 2009 c4 -8 -1 -9 -17 -5 -19 6 -21 5 -7 -4 18 -11 51 -3 42 11
-3 5 -10 9 -15 9 -6 0 -7 -5 -3 -11z"/>
<path d="M3842 1997 c-5 -7 -6 -21 -1 -32 4 -11 8 -14 8 -7 1 6 11 13 24 13
17 1 18 2 4 6 -9 2 -15 8 -12 13 9 14 -12 21 -23 7z"/>
<path d="M1520 1990 c13 -8 13 -10 -2 -11 -10 -1 -23 -2 -30 -3 -6 0 -13 -7
-16 -14 -3 -11 0 -12 17 -3 12 7 25 10 29 8 4 -3 12 1 19 8 10 10 9 14 -3 19
-24 9 -31 7 -14 -4z"/>
<path d="M1820 1986 c-9 -12 -8 -15 8 -13 12 0 18 6 15 14 -6 16 -8 16 -23 -1z"/>
<path d="M2376 1985 c-3 -8 -1 -15 4 -15 6 0 10 7 10 15 0 8 -2 15 -4 15 -2 0
-6 -7 -10 -15z"/>
<path d="M2434 1992 c3 -6 0 -12 -6 -15 -8 -2 -9 -8 -4 -13 5 -5 11 -4 13 3 3
9 10 10 23 3 19 -10 39 4 26 17 -3 4 -6 1 -6 -6 0 -10 -7 -9 -26 4 -15 9 -24
12 -20 7z"/>
<path d="M3561 1984 c0 -11 3 -14 6 -6 3 7 2 16 -1 19 -3 4 -6 -2 -5 -13z"/>
<path d="M2892 1970 c7 -11 17 -20 22 -20 5 0 1 9 -9 20 -10 11 -20 20 -22 20
-2 0 2 -9 9 -20z"/>
<path d="M2625 1970 c-3 -5 3 -10 14 -10 11 0 23 5 26 10 3 6 -3 10 -14 10
-11 0 -23 -4 -26 -10z"/>
<path d="M3008 1953 c7 -3 16 -2 19 1 4 3 -2 6 -13 5 -11 0 -14 -3 -6 -6z"/>
<path d="M3340 1913 c-14 -7 -18 -13 -10 -13 17 0 47 17 40 23 -3 2 -16 -2
-30 -10z"/>
<path d="M3476 1913 c-6 -14 -5 -15 5 -6 7 7 10 15 7 18 -3 3 -9 -2 -12 -12z"/>
<path d="M3868 1923 c7 -3 16 -2 19 1 4 3 -2 6 -13 5 -11 0 -14 -3 -6 -6z"/>
<path d="M3420 1890 c-9 -6 -10 -10 -3 -10 6 0 15 5 18 10 8 12 4 12 -15 0z"/>
<path d="M3380 1881 c0 -6 4 -13 10 -16 6 -3 7 1 4 9 -7 18 -14 21 -14 7z"/>
<path d="M4528 1823 c7 -3 16 -2 19 1 4 3 -2 6 -13 5 -11 0 -14 -3 -6 -6z"/>
<path d="M4050 1811 c0 -6 4 -13 10 -16 6 -3 7 1 4 9 -7 18 -14 21 -14 7z"/>
<path d="M490 1781 c0 -5 -3 -18 -6 -28 -5 -16 -4 -16 10 1 18 23 20 36 6 36
-5 0 -10 -4 -10 -9z"/>
<path d="M4761 1774 c0 -11 3 -14 6 -6 3 7 2 16 -1 19 -3 4 -6 -2 -5 -13z"/>
<path d="M385 1700 c-3 -5 -1 -10 4 -10 6 0 11 5 11 10 0 6 -2 10 -4 10 -3 0
-8 -4 -11 -10z"/>
<path d="M425 1700 c-3 -5 -1 -10 4 -10 6 0 11 5 11 10 0 6 -2 10 -4 10 -3 0
-8 -4 -11 -10z"/>
<path d="M332 1676 c13 -14 28 -12 28 5 0 5 -9 9 -20 9 -17 0 -19 -2 -8 -14z"/>
<path d="M3740 1670 c-20 -12 -7 -45 20 -48 13 -2 53 -1 88 3 57 6 63 9 60 28
-3 20 -9 22 -80 23 -42 0 -82 -2 -88 -6z"/>
<path d="M3415 1652 c-3 -3 -5 -16 -5 -29 0 -22 3 -23 79 -23 83 0 99 6 78 33
-12 15 -140 31 -152 19z"/>
<path d="M4081 1644 c0 -11 3 -14 6 -6 3 7 2 16 -1 19 -3 4 -6 -2 -5 -13z"/>
<path d="M4487 1623 c-10 -9 -9 -23 1 -23 5 0 9 7 9 15 0 17 -1 18 -10 8z"/>
<path d="M4494 1578 c-4 -6 -3 -8 4 -4 5 3 13 0 15 -6 3 -8 6 -6 6 5 1 19 -14
23 -25 5z"/>
<path d="M336 1567 c3 -10 9 -15 12 -12 3 3 0 11 -7 18 -10 9 -11 8 -5 -6z"/>
<path d="M4090 1559 c0 -11 4 -18 10 -14 5 3 7 12 3 20 -7 21 -13 19 -13 -6z"/>
<path d="M4740 1551 c0 -5 7 -11 15 -15 8 -3 15 -1 15 3 0 5 -7 11 -15 15 -8
3 -15 1 -15 -3z"/>
<path d="M298 1525 c-6 -29 -5 -30 16 -9 9 8 14 20 11 25 -11 16 -23 9 -27
-16z"/>
<path d="M602 1538 c-7 -7 -12 -22 -12 -35 0 -20 -6 -23 -37 -25 -21 -1 -57
-1 -80 0 -33 2 -44 -1 -52 -17 -16 -29 4 -38 94 -40 43 -1 81 -4 84 -7 13 -13
-25 -28 -69 -27 -40 1 -53 -3 -61 -18 -5 -11 -7 -24 -4 -29 4 -6 65 -10 143
-10 129 0 138 1 151 21 17 29 0 39 -56 35 -30 -2 -44 1 -48 12 -8 21 -3 23 67
28 70 5 88 15 72 42 -9 14 -24 17 -78 14 -63 -2 -66 -1 -66 21 0 21 -16 47
-30 47 -3 0 -11 -5 -18 -12z"/>
<path d="M4675 1510 c-2 -3 7 -7 21 -8 13 -1 24 2 24 7 0 10 -39 11 -45 1z"/>
<path d="M3612 1498 c-5 -7 -17 -29 -27 -48 -10 -19 -21 -37 -24 -40 -4 -3
-13 -25 -20 -50 -7 -25 -16 -57 -20 -71 -5 -15 -5 -33 -1 -40 10 -15 160 -24
160 -9 0 22 -7 25 -62 25 -31 0 -59 3 -63 6 -3 4 1 26 9 50 9 24 16 52 16 61
0 9 4 18 8 20 12 5 52 77 52 94 0 17 -14 18 -28 2z"/>
<path d="M1037 1413 c-4 -3 -37 -5 -74 -4 -75 1 -97 -7 -91 -35 3 -16 13 -19
66 -20 34 0 67 -5 72 -10 5 -5 5 -26 0 -49 -5 -22 -14 -62 -20 -90 -6 -27 -25
-78 -43 -113 -31 -61 -31 -64 -13 -77 32 -24 49 0 96 130 18 48 20 50 57 50
76 1 116 -40 94 -97 -5 -14 -7 -28 -5 -31 3 -3 -3 -10 -14 -16 -14 -7 -24 -7
-38 4 -13 9 -23 10 -31 3 -36 -30 7 -72 67 -66 42 4 70 41 81 105 11 69 -5
107 -55 130 -46 21 -44 20 -92 22 l-37 1 7 43 c4 23 11 46 16 51 4 4 52 8 105
8 l96 0 -3 27 -3 26 -105 0 c-58 1 -110 4 -116 8 -6 3 -14 4 -17 0z m-5 -225
c-7 -7 -12 -8 -12 -2 0 14 12 26 19 19 2 -3 -1 -11 -7 -17z"/>
<path d="M1335 1394 c-13 -14 -15 -31 -9 -108 4 -50 7 -132 8 -183 1 -99 10
-119 46 -108 20 6 21 11 14 63 -14 117 -15 115 39 114 26 0 87 -1 136 -1 l90
-1 -5 -47 c-3 -27 -9 -52 -13 -56 -5 -4 -6 -19 -3 -33 3 -17 11 -24 28 -24 18
0 24 7 28 33 3 17 10 60 15 95 6 34 8 68 6 75 -2 7 -6 42 -9 79 -2 37 -7 72
-10 77 -9 14 -73 23 -204 27 -68 2 -127 6 -132 9 -4 3 -16 -2 -25 -11z m151
-77 c-3 -12 -5 -37 -5 -54 -1 -33 -2 -33 -49 -33 l-48 0 -1 54 -1 54 54 1 c50
0 53 -1 50 -22z m145 14 c20 -1 31 -56 17 -86 -7 -17 -18 -21 -54 -20 -51 0
-66 15 -54 56 5 15 6 30 3 33 -13 12 11 25 40 22 18 -2 39 -4 48 -5z"/>
<path d="M4698 1383 c7 -3 16 -2 19 1 4 3 -2 6 -13 5 -11 0 -14 -3 -6 -6z"/>
<path d="M428 1302 c-14 -3 -18 -14 -19 -45 -2 -155 -6 -184 -27 -226 -24 -49
-21 -81 7 -81 12 0 24 17 39 53 28 70 44 135 36 148 -3 6 -3 29 0 52 l6 42
159 3 158 3 1 -58 c2 -185 33 -276 78 -231 12 12 14 21 7 30 -14 18 -33 145
-33 225 0 37 -4 73 -8 80 -8 12 -350 12 -370 -1 -6 -3 -12 -3 -14 2 -1 4 -11
6 -20 4z"/>
<path d="M3732 1262 c-13 -4 -17 -32 -4 -32 15 0 43 -83 45 -132 1 -51 21 -84
33 -55 6 16 0 78 -12 131 -9 40 -47 93 -62 88z"/>
<path d="M3452 1221 c-23 -32 -41 -154 -23 -165 15 -9 25 14 27 60 1 23 11 59
23 81 18 37 19 53 1 53 -3 0 -16 -13 -28 -29z"/>
<path d="M504 1205 c-11 -46 -9 -122 5 -148 10 -19 26 -29 59 -36 67 -14 202
11 202 37 0 5 -6 17 -14 27 -11 15 -17 17 -28 8 -7 -7 -45 -14 -84 -17 -61 -4
-72 -2 -82 14 -15 25 -5 31 65 31 94 1 113 7 113 36 0 23 -3 24 -42 23 -111
-5 -138 -1 -138 19 0 17 -18 31 -41 31 -5 0 -11 -11 -15 -25z"/>
<path d="M3539 1114 c-13 -7 -23 -15 -22 -19 2 -4 47 -7 100 -8 81 0 99 3 101
15 2 12 -7 15 -45 14 -26 -1 -62 1 -79 5 -19 4 -41 1 -55 -7z"/>
<path d="M4747 1061 c-4 -17 -3 -21 5 -13 5 5 8 16 6 23 -3 8 -7 3 -11 -10z"/>
<path d="M3498 893 c7 -3 16 -2 19 1 4 3 -2 6 -13 5 -11 0 -14 -3 -6 -6z"/>
<path d="M3311 818 c-33 -34 -63 -70 -67 -80 -3 -10 -9 -18 -13 -18 -4 0 -8
-6 -9 -12 -1 -7 -13 -53 -27 -103 -14 -49 -25 -106 -25 -125 l0 -35 84 0 c47
-1 82 3 80 7 -3 4 -1 8 4 8 5 0 8 27 8 60 -1 55 1 59 19 54 19 -5 19 -4 3 9
-15 12 -17 31 -16 135 0 67 5 119 9 116 5 -3 6 3 2 12 -4 12 -3 15 5 10 7 -4
12 -1 12 8 0 9 -2 16 -4 16 -2 0 -31 -28 -65 -62z"/>
<path d="M4028 848 c-2 -13 -3 -52 -1 -88 4 -75 5 -231 3 -245 -2 -6 -2 -24
-1 -42 l1 -32 90 0 c107 0 122 4 116 33 -24 116 -108 315 -133 316 -7 0 -13 7
-13 14 0 14 -41 66 -53 66 -2 0 -7 -10 -9 -22z"/>
<path d="M3531 828 c3 -62 -4 -138 -13 -138 -5 0 -7 -10 -5 -22 2 -13 2 -17 0
-11 -3 10 -9 10 -25 2 -18 -9 -20 -9 -15 4 4 12 2 14 -11 10 -18 -7 -32 -22
-32 -35 0 -5 16 -8 36 -8 21 0 33 -4 29 -10 -3 -5 -2 -10 4 -10 6 0 8 -6 5
-14 -3 -8 -1 -17 5 -21 12 -7 15 -48 4 -59 -12 -12 -10 -46 4 -57 13 -11 113
-19 113 -9 0 3 47 4 105 4 58 -1 108 2 111 7 3 5 1 9 -4 9 -5 0 -9 6 -9 13 0
6 -3 44 -7 84 -5 50 -4 73 4 78 9 6 9 9 0 15 -7 5 -13 28 -14 53 -1 25 3 43 8
39 6 -3 6 3 2 14 -5 10 -10 36 -13 57 -3 20 -8 37 -10 37 -3 0 -36 -32 -74
-72 l-69 -72 -34 35 c-19 19 -32 37 -29 41 2 5 0 8 -4 8 -5 0 -17 14 -26 30
-24 39 -37 38 -36 -2z"/>
<path d="M3381 829 c-31 -33 -26 -48 6 -17 15 15 24 30 21 33 -3 4 -15 -4 -27
-16z"/>
<path d="M1633 763 c-12 -2 -27 -11 -33 -19 -7 -8 -18 -14 -25 -14 -16 0 -30
-51 -27 -100 1 -25 10 -42 29 -57 16 -13 33 -23 38 -23 6 0 3 5 -5 10 -13 8
-12 10 3 10 9 0 17 -6 17 -14 0 -33 107 -35 142 -3 37 34 38 115 2 154 -24 26
-25 27 -21 6 6 -28 -9 -39 -28 -23 -21 18 -20 51 2 43 11 -4 14 -3 9 6 -5 7
-16 9 -28 5 -14 -4 -18 -2 -14 5 4 6 3 11 -3 11 -5 0 -15 2 -23 4 -7 2 -23 1
-35 -1z m47 -174 c0 -6 -4 -7 -10 -4 -5 3 -10 11 -10 16 0 6 5 7 10 4 6 -3 10
-11 10 -16z"/>
<path d="M3435 760 c4 -6 11 -8 16 -5 14 9 11 15 -7 15 -8 0 -12 -5 -9 -10z"/>
<path d="M954 663 c1 -18 14 -33 29 -33 10 0 4 22 -10 37 -16 18 -21 16 -19
-4z"/>
<path d="M1011 664 c-7 -8 -10 -18 -7 -21 3 -3 1 -12 -5 -20 -8 -8 -8 -13 -1
-13 6 0 17 -2 24 -5 11 -4 13 3 10 32 l-5 38 22 -20 c19 -16 20 -20 7 -25 -10
-3 -12 -10 -7 -19 7 -11 11 -9 21 9 10 18 9 24 -1 31 -8 5 -9 9 -4 9 6 0 3 5
-5 10 -21 13 -33 12 -49 -6z"/>
<path d="M3399 653 c-5 -14 -8 -31 -5 -37 3 -7 5 -6 5 2 1 9 7 8 25 -4 14 -8
23 -21 20 -28 -3 -7 2 -13 11 -13 22 0 19 12 -15 44 -27 25 -42 51 -22 39 5
-3 9 1 9 9 0 24 -17 17 -28 -12z"/>
<path d="M750 636 c0 -2 8 -10 18 -17 15 -13 16 -12 3 4 -13 16 -21 21 -21 13z"/>
<path d="M621 611 c-8 -6 -9 -11 -3 -15 6 -3 14 -1 17 5 9 14 2 20 -14 10z"/>
<path d="M1085 610 c-3 -5 -1 -10 4 -10 6 0 11 5 11 10 0 6 -2 10 -4 10 -3 0
-8 -4 -11 -10z"/>
<path d="M1120 590 c0 -5 1 -12 3 -14 1 -2 -7 -14 -18 -26 l-20 -23 23 14 c19
12 33 59 17 59 -3 0 -5 -4 -5 -10z"/>
<path d="M913 574 c0 -16 13 -19 21 -5 3 5 0 11 -7 14 -8 3 -14 -1 -14 -9z"/>
<path d="M1001 565 c0 -21 17 -67 18 -50 1 6 5 5 9 -2 5 -7 13 -9 21 -4 11 7
9 11 -8 21 -12 6 -26 21 -31 33 -8 20 -9 21 -9 2z"/>
<path d="M1080 569 c0 -5 5 -7 10 -4 6 3 10 8 10 11 0 2 -4 4 -10 4 -5 0 -10
-5 -10 -11z"/>
<path d="M510 560 c8 -5 20 -10 25 -10 6 0 3 5 -5 10 -8 5 -19 10 -25 10 -5 0
-3 -5 5 -10z"/>
<path d="M1020 560 c0 -5 5 -10 11 -10 5 0 7 5 4 10 -3 6 -8 10 -11 10 -2 0
-4 -4 -4 -10z"/>
<path d="M634 550 c-22 -9 -38 -46 -23 -55 4 -3 15 8 23 24 9 16 26 32 38 34
19 4 20 4 3 5 -11 0 -30 -3 -41 -8z"/>
<path d="M1071 534 c0 -11 3 -14 6 -6 3 7 2 16 -1 19 -3 4 -6 -2 -5 -13z"/>
<path d="M3864 538 c-4 -6 -3 -8 4 -4 5 3 13 0 15 -6 3 -8 6 -6 6 5 1 19 -14
23 -25 5z"/>
<path d="M690 525 c-7 -8 -8 -15 -2 -15 5 0 15 7 22 15 7 8 8 15 2 15 -5 0
-15 -7 -22 -15z"/>
<path d="M965 529 c-9 -14 -2 -20 14 -10 8 6 9 11 3 15 -6 3 -14 1 -17 -5z"/>
<path d="M926 515 c-3 -8 -1 -15 4 -15 13 0 22 18 11 24 -5 3 -11 -1 -15 -9z"/>
<path d="M3955 520 c-3 -5 -2 -10 4 -10 5 0 13 5 16 10 3 6 2 10 -4 10 -5 0
-13 -4 -16 -10z"/>
<path d="M640 499 c0 -5 5 -7 10 -4 6 3 10 8 10 11 0 2 -4 4 -10 4 -5 0 -10
-5 -10 -11z"/>
<path d="M3875 500 c4 -6 11 -8 16 -5 14 9 11 15 -7 15 -8 0 -12 -5 -9 -10z"/>
<path d="M820 480 c0 -5 5 -10 11 -10 5 0 7 5 4 10 -3 6 -8 10 -11 10 -2 0 -4
-4 -4 -10z"/>
<path d="M955 480 c3 -5 11 -10 16 -10 6 0 7 5 4 10 -3 6 -11 10 -16 10 -6 0
-7 -4 -4 -10z"/>
<path d="M887 473 c-10 -10 -8 -23 4 -23 5 0 8 4 4 9 -3 5 3 12 12 14 14 4 15
5 2 6 -9 0 -19 -2 -22 -6z"/>
<path d="M806 445 c-3 -8 -1 -15 4 -15 13 0 22 18 11 24 -5 3 -11 -1 -15 -9z"/>
<path d="M4756 447 c3 -10 9 -15 12 -12 3 3 0 11 -7 18 -10 9 -11 8 -5 -6z"/>
<path d="M911 396 c0 -12 3 -15 6 -8 2 6 13 12 23 12 10 0 21 4 24 8 3 5 -8 9
-24 9 -24 0 -30 -5 -29 -21z"/>
<path d="M851 407 c2 -1 13 -9 24 -17 19 -14 19 -14 6 3 -7 9 -18 17 -24 17
-6 0 -8 -1 -6 -3z"/>
<path d="M1204 378 c-4 -6 -3 -8 4 -4 5 3 13 0 15 -6 3 -8 6 -6 6 5 1 19 -14
23 -25 5z"/>
<path d="M1295 379 c-4 -6 -5 -12 -2 -15 2 -3 7 2 10 11 7 17 1 20 -8 4z"/>
<path d="M1767 373 c3 -7 9 -13 14 -13 5 0 9 6 9 13 0 8 -6 14 -14 14 -8 0
-12 -6 -9 -14z"/>
<path d="M1965 380 c3 -5 12 -7 20 -3 21 7 19 13 -6 13 -11 0 -18 -4 -14 -10z"/>
<path d="M2100 380 c0 -5 5 -10 11 -10 5 0 7 5 4 10 -3 6 -8 10 -11 10 -2 0
-4 -4 -4 -10z"/>
<path d="M2630 386 c0 -2 7 -7 16 -10 8 -3 12 -2 9 4 -6 10 -25 14 -25 6z"/>
<path d="M2775 380 c-3 -5 -2 -10 4 -10 5 0 13 5 16 10 3 6 2 10 -4 10 -5 0
-13 -4 -16 -10z"/>
<path d="M2358 368 c7 -9 9 -18 3 -20 -5 -1 -3 -8 4 -15 10 -9 14 -8 18 6 2
11 -4 23 -17 31 -19 12 -20 11 -8 -2z"/>
<path d="M2993 359 c-25 -9 -30 -19 -10 -19 15 0 43 17 37 23 -3 3 -15 1 -27
-4z"/>
<path d="M4526 355 c-3 -9 0 -15 9 -15 9 0 12 6 9 15 -4 8 -7 15 -9 15 -2 0
-5 -7 -9 -15z"/>
<path d="M2298 353 c6 -2 12 -10 12 -17 0 -7 11 -18 25 -24 17 -8 25 -8 25 -1
0 6 -9 13 -19 16 -11 3 -22 11 -25 19 -3 8 -11 14 -18 13 -10 0 -10 -2 0 -6z"/>
<path d="M2428 353 c7 -3 16 -2 19 1 4 3 -2 6 -13 5 -11 0 -14 -3 -6 -6z"/>
<path d="M3407 353 c-4 -3 -7 -16 -6 -27 0 -19 1 -19 10 3 10 24 8 36 -4 24z"/>
<path d="M3450 351 c0 -6 4 -13 10 -16 6 -3 7 1 4 9 -7 18 -14 21 -14 7z"/>
<path d="M1610 341 c0 -5 6 -11 13 -14 8 -3 14 1 14 9 0 8 -6 14 -14 14 -7 0
-13 -4 -13 -9z"/>
<path d="M2219 337 c7 -7 14 -8 21 -1 6 6 2 10 -12 11 -16 2 -18 -1 -9 -10z"/>
<path d="M1243 320 c-1 -11 -1 -20 0 -20 2 0 10 9 20 20 16 19 16 20 -1 20
-11 0 -18 -8 -19 -20z"/>
<path d="M1575 330 c3 -5 0 -7 -8 -4 -8 3 -18 1 -21 -4 -3 -5 7 -12 22 -14 22
-3 28 0 28 14 0 10 -6 18 -14 18 -7 0 -10 -4 -7 -10z"/>
<path d="M1870 330 c-10 -6 -11 -10 -2 -10 6 0 12 -5 12 -11 0 -5 -4 -7 -10
-4 -5 3 -10 1 -10 -4 0 -6 8 -11 18 -11 9 0 27 -3 40 -6 13 -4 22 -2 22 5 0 6
-11 11 -25 11 -29 0 -35 26 -7 33 14 4 14 5 -3 6 -11 0 -27 -4 -35 -9z"/>
<path d="M2640 330 c0 -5 5 -10 11 -10 5 0 7 5 4 10 -3 6 -8 10 -11 10 -2 0
-4 -4 -4 -10z"/>
<path d="M3286 327 c3 -10 9 -15 12 -12 3 3 0 11 -7 18 -10 9 -11 8 -5 -6z"/>
<path d="M4347 329 c7 -7 15 -10 18 -7 3 3 -2 9 -12 12 -14 6 -15 5 -6 -5z"/>
<path d="M4630 328 c0 -9 5 -20 11 -23 17 -11 18 -2 3 19 -12 17 -14 17 -14 4z"/>
<path d="M3361 314 c0 -11 3 -14 6 -6 3 7 2 16 -1 19 -3 4 -6 -2 -5 -13z"/>
<path d="M1361 317 c2 -1 13 -9 24 -17 19 -14 19 -14 6 3 -7 9 -18 17 -24 17
-6 0 -8 -1 -6 -3z"/>
<path d="M1650 309 c0 -5 5 -7 10 -4 6 3 10 8 10 11 0 2 -4 4 -10 4 -5 0 -10
-5 -10 -11z"/>
<path d="M3015 310 c-14 -7 -8 -8 20 -3 22 3 42 7 44 9 9 8 -45 2 -64 -6z"/>
<path d="M3094 295 c-10 -21 -9 -21 17 -12 15 6 25 16 23 22 -8 19 -29 13 -40
-10z"/>
<path d="M3436 305 c-3 -8 -1 -15 3 -15 5 0 11 7 15 15 3 8 1 15 -3 15 -5 0
-11 -7 -15 -15z"/>
<path d="M3175 301 c-3 -5 -1 -12 5 -16 5 -3 10 1 10 9 0 18 -6 21 -15 7z"/>
<path d="M3255 302 c-13 -9 -37 -52 -29 -52 9 0 36 30 27 30 -4 0 -1 4 7 10 8
5 12 11 9 14 -2 3 -9 2 -14 -2z"/>
<path d="M1414 289 c-3 -6 -1 -16 5 -22 8 -8 11 -5 11 11 0 24 -5 28 -16 11z"/>
<path d="M3540 291 c0 -6 4 -13 10 -16 6 -3 7 1 4 9 -7 18 -14 21 -14 7z"/>
<path d="M3780 290 c0 -5 5 -10 11 -10 5 0 7 5 4 10 -3 6 -8 10 -11 10 -2 0
-4 -4 -4 -10z"/>
<path d="M4025 291 c-3 -5 -1 -12 5 -16 5 -3 10 1 10 9 0 18 -6 21 -15 7z"/>
<path d="M1620 280 c0 -5 5 -10 11 -10 5 0 7 5 4 10 -3 6 -8 10 -11 10 -2 0
-4 -4 -4 -10z"/>
<path d="M2360 281 c0 -5 9 -7 20 -4 11 3 20 7 20 9 0 2 -9 4 -20 4 -11 0 -20
-4 -20 -9z"/>
<path d="M3320 274 c0 -8 5 -12 10 -9 6 4 8 11 5 16 -9 14 -15 11 -15 -7z"/>
<path d="M1513 273 c4 -3 2 -12 -3 -19 -8 -9 -4 -12 15 -10 24 1 37 16 14 16
-5 0 -7 5 -4 10 3 6 -2 10 -11 10 -10 0 -14 -3 -11 -7z"/>
<path d="M2107 273 c-15 -14 -6 -33 16 -32 16 1 17 3 5 6 -10 2 -15 10 -11 19
5 15 1 18 -10 7z"/>
<path d="M2981 264 c0 -11 3 -14 6 -6 3 7 2 16 -1 19 -3 4 -6 -2 -5 -13z"/>
<path d="M3355 271 c-3 -2 -5 -8 -5 -12 0 -8 38 0 44 10 5 7 -32 9 -39 2z"/>
<path d="M1141 254 c0 -11 3 -14 6 -6 3 7 2 16 -1 19 -3 4 -6 -2 -5 -13z"/>
<path d="M3258 249 l-23 -20 27 16 c15 10 29 12 32 6 3 -5 0 -11 -6 -13 -7 -3
2 -5 20 -5 17 0 31 1 30 2 -2 0 -15 9 -30 18 -25 16 -28 15 -50 -4z"/>
<path d="M1466 245 c-3 -8 -1 -15 4 -15 13 0 22 18 11 24 -5 3 -11 -1 -15 -9z"/>
<path d="M1890 252 c0 -5 -10 -14 -22 -20 -22 -10 -22 -11 5 -11 16 -1 26 3
23 8 -4 5 -1 11 6 13 9 3 9 6 0 12 -7 4 -12 3 -12 -2z"/>
<path d="M3670 249 c0 -5 9 -9 20 -9 11 0 20 2 20 4 0 2 -9 6 -20 9 -11 3 -20
1 -20 -4z"/>
<path d="M1400 239 c0 -5 5 -7 10 -4 6 3 10 8 10 11 0 2 -4 4 -10 4 -5 0 -10
-5 -10 -11z"/>
<path d="M1600 240 c0 -5 5 -10 11 -10 5 0 7 5 4 10 -3 6 -8 10 -11 10 -2 0
-4 -4 -4 -10z"/>
<path d="M1635 240 c-3 -5 -1 -10 4 -10 6 0 11 5 11 10 0 6 -2 10 -4 10 -3 0
-8 -4 -11 -10z"/>
<path d="M1933 243 c9 -2 23 -2 30 0 6 3 -1 5 -18 5 -16 0 -22 -2 -12 -5z"/>
<path d="M2040 245 c0 -7 30 -13 34 -7 3 4 -4 9 -15 9 -10 1 -19 0 -19 -2z"/>
<path d="M2168 243 c7 -3 16 -2 19 1 4 3 -2 6 -13 5 -11 0 -14 -3 -6 -6z"/>
<path d="M3047 244 c-10 -10 2 -24 19 -24 8 0 12 5 9 10 -3 6 -1 10 4 10 6 0
11 -4 11 -10 0 -5 5 -10 10 -10 6 0 10 6 10 13 0 13 -52 22 -63 11z"/>
<path d="M3400 240 c-9 -6 -10 -10 -3 -10 6 0 15 5 18 10 8 12 4 12 -15 0z"/>
<path d="M2878 233 c6 -2 18 -2 25 0 6 3 1 5 -13 5 -14 0 -19 -2 -12 -5z"/>
<path d="M2968 233 c12 -2 30 -2 40 0 9 3 -1 5 -23 4 -22 0 -30 -2 -17 -4z"/>
<path d="M3140 230 c-9 -6 -10 -10 -3 -10 6 0 15 5 18 10 8 12 4 12 -15 0z"/>
</g>
</svg>
