<?xml version="1.0" encoding="iso-8859-1"?>
<!-- Generator: Adobe Illustrator 15.0.0, SVG Export Plug-In . SVG Version: 6.00 Build 0)  -->
<!DOCTYPE svg PUBLIC "-//W3C//DTD SVG 1.1//EN" "http://www.w3.org/Graphics/SVG/1.1/DTD/svg11.dtd">
<svg version="1.1" id="&#x30EC;&#x30A4;&#x30E4;&#x30FC;1"
	 xmlns="http://www.w3.org/2000/svg" xmlns:xlink="http://www.w3.org/1999/xlink" x="0px" y="0px" width="141.732px"
	 height="141.732px" viewBox="0 0 141.732 141.732" style="enable-background:new 0 0 141.732 141.732;" xml:space="preserve">
<g>
	<path style="fill-rule:evenodd;clip-rule:evenodd;fill:#F5F0DA;" d="M43.664,55.374c9.172-6.144,41.305-17.045,43.417-17.954
		c2.111-0.909,32.095-7.552,32.095-7.552l2.967,48.278L42.253,106.2l-24.527-7.403L9.341,86.628
		C9.341,86.628,19.762,71.372,43.664,55.374z"/>
	<polygon style="fill-rule:evenodd;clip-rule:evenodd;fill:#F9F6E8;" points="96.005,45.071 113.081,30.191 132.111,37.773 
		126.233,75.669 	"/>
	<polygon style="fill-rule:evenodd;clip-rule:evenodd;fill:#F3EDD1;" points="9.417,86.489 9.406,86.506 17.726,98.797 
		23.722,100.911 51.21,99.452 74.162,94.993 98.044,86.606 121.794,72.471 121.198,62.804 95.712,50.635 34.219,85.157 	"/>
	<g>
		<path style="fill-rule:evenodd;clip-rule:evenodd;fill:#ECD180;" d="M84.921,42.657l-4.202,2.419c0,0-3.394,3.957-3.746,4.871
			c-0.356,0.914-1.474,7.029-1.265,7.962c0.207,0.931,0.005,1.508,1.234,3.156c1.227,1.648,1.185,2.864,2.49,3.636
			c1.305,0.768,3.279,2.746,4.561,3.325c1.278,0.577,2.066,0.661,4.79,0.931c2.718,0.271,4.013,0.271,5.251-0.2
			c1.238-0.469,3.339-1.019,4.798-1.904c1.46-0.885,2.687-2.063,3.938-3.107c1.251-1.042,2.169-3.751,2.449-5.224
			c0.277-1.47,0.593-1.896-0.011-4.572c-0.602-2.675-0.696-3.425-1.362-4.377c-0.669-0.955-1.618-2.724-2.344-3.385
			c-0.723-0.66-4.167-3.228-4.857-3.606c-0.693-0.38-2.077-1.141-3.198-1.27c-1.125-0.129-3.558-0.364-4.194-0.275
			C88.615,41.125,84.921,42.657,84.921,42.657z"/>
		<path style="fill-rule:evenodd;clip-rule:evenodd;fill:#EACB6C;" d="M75.759,56.469c-0.076,0.685-0.103,1.214-0.051,1.44
			c0.207,0.931,0.005,1.508,1.234,3.156c1.227,1.648,1.185,2.864,2.49,3.636c1.305,0.768,3.279,2.746,4.561,3.325
			c1.278,0.577,2.066,0.661,4.79,0.931c2.718,0.271,4.013,0.271,5.251-0.2c1.238-0.469,3.339-1.019,4.798-1.904
			c1.46-0.885,2.687-2.063,3.938-3.107c1.251-1.042,2.169-3.751,2.449-5.224c0.237-1.249,0.499-1.745,0.202-3.509
			c-0.291,0.636-0.736,1.467-1.222,1.942c-0.86,0.838-1.284,0.757-2.028,1.437c-0.744,0.683-1.254,1.041-1.998,1.724
			c-0.744,0.68-2.258,0.758-3.736,1.116c-1.478,0.359-3.112,0.597-4.048,0.877c-0.938,0.28-3.482-0.067-4.709,0.111
			c-1.232,0.18-3.698-0.612-4.28-0.814c-0.582-0.206-2.004-0.429-3.188-0.977c-1.188-0.55-1.856-1.462-2.477-1.947
			c-0.617-0.488-1.254-1.117-1.583-1.502C76.063,56.874,75.918,56.685,75.759,56.469z"/>
		<path style="fill-rule:evenodd;clip-rule:evenodd;fill:#F1C078;" d="M87.491,54.417c-0.373,0.361-1.432,1.941-0.969,2.578
			c0.461,0.636,1.643,1.47,1.643,1.47s0.853-0.176,1.041-0.545c0.189-0.372,0.491-1.127,0.478-1.542
			c-0.017-0.416-0.141-0.844-0.054-1.527C89.716,54.171,88.48,53.459,87.491,54.417z"/>
		<path style="fill-rule:evenodd;clip-rule:evenodd;fill:#EACA7F;" d="M90.703,49.492c0.72,0.461,1.823,0.537,1.86,1.195
			c0.035,0.658-0.035,1.823,1.276,1.848c1.311,0.027,2.454,0.059,1.771-1.322c-0.682-1.384-0.946-2.171-1.903-2.458
			c-0.958-0.285-1.576-1.539-2.444-0.544C90.396,49.206,89.983,49.03,90.703,49.492z"/>
		<path style="fill-rule:evenodd;clip-rule:evenodd;fill:#EACA7F;" d="M81.261,51.76c-1.263,0.637-2.102,2.832-2.102,2.832
			s1.915,0.69,2.218,0.475c0.302-0.216,0.272-0.758,1.06-1.141c0.787-0.386,0.453-2.775,0.453-2.775S82.521,51.12,81.261,51.76z"/>
		<path style="fill-rule:evenodd;clip-rule:evenodd;fill:#EACA7F;" d="M99.685,51.9c0.444,0.671,0.525,1.095,1.38,1.723
			c0.855,0.628,0.95,1.448,1.352,0.841c0.399-0.609,0.575-0.162-0.048-1.329c-0.621-1.168-1.149-2.53-1.411-2.611
			c-0.264-0.081-1.038-0.606-1.318,0.046C99.355,51.226,99.236,51.226,99.685,51.9z"/>
		<path style="fill-rule:evenodd;clip-rule:evenodd;fill:#EACA7F;" d="M88.845,44.06c-0.879,0.222-3.31,0.461-3.422,0.931
			c-0.114,0.472,0.361,1.251,0.824,1.591c0.464,0.337,0.828,0.286,1.149-0.041s1.402-1.076,1.872-1.281
			C89.74,45.055,89.722,43.841,88.845,44.06z"/>
	</g>
	<g>
		<path style="fill-rule:evenodd;clip-rule:evenodd;fill:#ECD180;" d="M60.248,54.616l-4.194,2.414c0,0-3.385,3.951-3.739,4.863
			c-0.353,0.915-1.467,7.021-1.262,7.951c0.208,0.93,0.008,1.507,1.232,3.155c1.228,1.645,1.182,2.861,2.487,3.63
			c1.3,0.769,3.271,2.746,4.55,3.323c1.276,0.58,2.061,0.666,4.779,0.936c2.713,0.27,4.005,0.27,5.24-0.199
			c1.235-0.467,3.331-1.014,4.788-1.898c1.456-0.883,2.678-2.059,3.93-3.1c1.248-1.041,2.163-3.748,2.443-5.219
			c0.277-1.467,0.591-1.893-0.011-4.565c-0.602-2.676-0.693-3.423-1.359-4.375c-0.667-0.952-1.615-2.722-2.339-3.382
			c-0.723-0.658-4.158-3.225-4.85-3.605c-0.689-0.38-2.071-1.141-3.19-1.271c-1.122-0.129-3.549-0.364-4.183-0.275
			C63.935,53.087,60.248,54.616,60.248,54.616z"/>
		<path style="fill-rule:evenodd;clip-rule:evenodd;fill:#EACB6C;" d="M51.107,68.406c-0.075,0.685-0.102,1.213-0.054,1.438
			c0.208,0.93,0.008,1.507,1.232,3.155c1.228,1.645,1.182,2.861,2.487,3.63c1.3,0.769,3.271,2.746,4.55,3.323
			c1.276,0.58,2.061,0.666,4.779,0.936c2.713,0.27,4.005,0.27,5.24-0.199c1.235-0.467,3.331-1.014,4.788-1.898
			c1.456-0.883,2.678-2.059,3.93-3.1c1.248-1.041,2.163-3.748,2.443-5.219c0.234-1.245,0.499-1.742,0.202-3.503
			c-0.294,0.634-0.733,1.465-1.22,1.937c-0.859,0.839-1.283,0.758-2.024,1.438c-0.742,0.68-1.249,1.038-1.993,1.718
			c-0.745,0.68-2.252,0.755-3.728,1.114c-1.476,0.358-3.104,0.593-4.041,0.873c-0.936,0.281-3.471-0.069-4.698,0.108
			c-1.23,0.178-3.69-0.612-4.27-0.817c-0.582-0.202-2.001-0.429-3.182-0.976c-1.185-0.548-1.853-1.46-2.471-1.948
			c-0.618-0.485-1.251-1.114-1.578-1.499C51.41,68.811,51.267,68.622,51.107,68.406z"/>
		<path style="fill-rule:evenodd;clip-rule:evenodd;fill:#EACA7F;" d="M62.815,66.364c-0.375,0.359-1.429,1.937-0.968,2.573
			c0.461,0.636,1.64,1.47,1.64,1.47s0.85-0.175,1.038-0.545c0.187-0.369,0.491-1.127,0.475-1.54
			c-0.013-0.415-0.138-0.844-0.054-1.523C65.033,66.116,63.803,65.407,62.815,66.364z"/>
		<path style="fill-rule:evenodd;clip-rule:evenodd;fill:#EACA7F;" d="M66.017,61.445c0.721,0.461,1.821,0.537,1.856,1.194
			c0.038,0.658-0.033,1.82,1.276,1.848c1.308,0.027,2.449,0.059,1.769-1.321c-0.682-1.382-0.947-2.171-1.901-2.455
			c-0.955-0.286-1.573-1.539-2.438-0.547C65.709,61.159,65.299,60.984,66.017,61.445z"/>
		<path style="fill-rule:evenodd;clip-rule:evenodd;fill:#EACA7F;" d="M56.596,63.705c-1.26,0.637-2.096,2.826-2.096,2.826
			s1.91,0.69,2.212,0.475c0.299-0.213,0.27-0.752,1.057-1.138c0.787-0.383,0.45-2.77,0.45-2.77S57.853,63.065,56.596,63.705z"/>
		<path style="fill-rule:evenodd;clip-rule:evenodd;fill:#EACA7F;" d="M74.979,63.854c0.444,0.674,0.525,1.095,1.378,1.724
			s0.949,1.448,1.349,0.841c0.399-0.61,0.572-0.159-0.049-1.327c-0.618-1.168-1.146-2.53-1.408-2.608
			c-0.264-0.081-1.035-0.61-1.316,0.043C74.649,63.179,74.534,63.182,74.979,63.854z"/>
		<path style="fill-rule:evenodd;clip-rule:evenodd;fill:#EACA7F;" d="M64.161,56.019c-0.874,0.218-3.298,0.458-3.412,0.928
			c-0.114,0.469,0.359,1.251,0.822,1.589c0.462,0.34,0.826,0.285,1.147-0.041c0.32-0.324,1.399-1.071,1.869-1.276
			C65.057,57.014,65.038,55.8,64.161,56.019z"/>
	</g>
	<g>
		<path style="fill-rule:evenodd;clip-rule:evenodd;fill:#ECD180;" d="M35.012,65.971l-4.183,2.408c0,0-3.377,3.943-3.73,4.855
			c-0.351,0.911-1.465,7.012-1.257,7.942c0.205,0.928,0.005,1.505,1.23,3.149c1.221,1.646,1.179,2.859,2.479,3.631
			c1.3,0.769,3.266,2.74,4.542,3.319c1.273,0.58,2.055,0.667,4.769,0.937c2.708,0.272,3.997,0.272,5.229-0.194
			c1.23-0.469,3.323-1.014,4.776-1.893c1.451-0.883,2.673-2.059,3.919-3.097s2.161-3.743,2.438-5.211
			c0.277-1.467,0.59-1.891-0.011-4.561c-0.601-2.673-0.69-3.42-1.356-4.372c-0.664-0.952-1.613-2.719-2.333-3.377
			c-0.72-0.66-4.151-3.226-4.838-3.605c-0.688-0.38-2.066-1.139-3.186-1.271c-1.116-0.129-3.538-0.367-4.172-0.278
			C38.693,64.444,35.012,65.971,35.012,65.971z"/>
		<path style="fill-rule:evenodd;clip-rule:evenodd;fill:#EACB6C;" d="M25.893,79.741c-0.075,0.684-0.102,1.209-0.051,1.436
			c0.205,0.928,0.005,1.505,1.23,3.149c1.221,1.646,1.179,2.859,2.479,3.631c1.3,0.769,3.266,2.74,4.542,3.319
			c1.273,0.58,2.055,0.667,4.769,0.937c2.708,0.272,3.997,0.272,5.229-0.194c1.23-0.469,3.323-1.014,4.776-1.893
			c1.451-0.883,2.673-2.059,3.919-3.097s2.161-3.743,2.438-5.211c0.234-1.246,0.496-1.739,0.202-3.5
			c-0.292,0.634-0.733,1.461-1.217,1.936c-0.857,0.837-1.281,0.756-2.02,1.433c-0.742,0.68-1.249,1.038-1.99,1.715
			c-0.742,0.68-2.247,0.756-3.717,1.111c-1.473,0.356-3.099,0.594-4.032,0.871s-3.466-0.069-4.69,0.105
			c-1.224,0.178-3.679-0.615-4.258-0.817c-0.58-0.202-1.996-0.429-3.174-0.979c-1.181-0.548-1.85-1.456-2.465-1.945
			c-0.618-0.485-1.251-1.113-1.575-1.499C26.195,80.144,26.052,79.955,25.893,79.741z"/>
		<path style="fill-rule:evenodd;clip-rule:evenodd;fill:#EACA7F;" d="M37.574,77.706c-0.372,0.358-1.424,1.934-0.965,2.569
			c0.461,0.637,1.637,1.468,1.637,1.468s0.85-0.173,1.036-0.542c0.188-0.37,0.491-1.125,0.475-1.54
			c-0.014-0.413-0.138-0.839-0.054-1.521C39.788,77.46,38.558,76.751,37.574,77.706z"/>
		<path style="fill-rule:evenodd;clip-rule:evenodd;fill:#EACA7F;" d="M40.77,72.794c0.718,0.459,1.815,0.54,1.853,1.195
			c0.038,0.654-0.032,1.817,1.273,1.844c1.302,0.027,2.443,0.063,1.764-1.318c-0.683-1.381-0.944-2.168-1.899-2.451
			c-0.952-0.286-1.567-1.541-2.433-0.548C40.465,72.508,40.053,72.333,40.77,72.794z"/>
		<path style="fill-rule:evenodd;clip-rule:evenodd;fill:#F1C078;" d="M31.371,75.046c-1.257,0.637-2.09,2.824-2.09,2.824
			s1.907,0.69,2.207,0.475c0.299-0.213,0.27-0.752,1.054-1.136c0.785-0.383,0.451-2.77,0.451-2.77S32.625,74.41,31.371,75.046z"/>
		<path style="fill-rule:evenodd;clip-rule:evenodd;fill:#EACA7F;" d="M49.713,75.205c0.443,0.672,0.526,1.096,1.376,1.724
			c0.85,0.626,0.946,1.445,1.343,0.839c0.399-0.606,0.572-0.159-0.046-1.327c-0.618-1.165-1.144-2.523-1.408-2.605
			c-0.261-0.081-1.03-0.606-1.313,0.043C49.384,74.531,49.268,74.531,49.713,75.205z"/>
		<path style="fill-rule:evenodd;clip-rule:evenodd;fill:#EACA7F;" d="M38.92,67.373c-0.874,0.218-3.293,0.456-3.407,0.925
			c-0.111,0.469,0.359,1.249,0.82,1.588c0.464,0.337,0.825,0.286,1.146-0.04c0.318-0.327,1.397-1.071,1.863-1.276
			C39.813,68.365,39.793,67.154,38.92,67.373z"/>
	</g>
	<path style="fill-rule:evenodd;clip-rule:evenodd;fill:#834927;" d="M92.395,40.656c0,0,2.249,0.45,2.696,0.809
		c0.451,0.359,2.25,0.898,2.967,1.348c0.721,0.451,2.158,1.349,2.697,2.158s1.979,2.069,2.428,2.697
		c0.45,0.628,0.809,1.529,0.809,2.158s0.361,1.888-0.27,2.697c-0.629,0.809-1.707,1.707-1.618,2.697c0.092,0.99,0.092,2.247,0,2.967
		c-0.089,0.72,0.27,3.236-0.27,3.506c-0.54,0.27-1.257,0.451-1.888,0c-0.629-0.45-2.066-0.628-2.428-2.158
		c-0.359-1.529-0.809-3.775-0.809-3.775s-3.146-3.687-5.396-3.776c-2.246-0.089-2.065-1.168-3.505,0
		c-1.438,1.168-2.697,2.068-2.967,2.697c-0.271,0.629-1.349,4.046-1.889,4.854c-0.539,0.81-0.539,1.708-2.427,1.349
		c-1.889-0.359-2.605-0.359-2.697-1.619c-0.089-1.259-0.089-2.338,0-3.506c0.092-1.168-0.089-2.608-0.54-2.967
		c-0.447-0.359-0.628-1.079-0.539-1.888c0.092-0.809,0.27-1.707,0.539-2.427c0.271-0.72,0.81-2.878,1.619-3.506
		c0.809-0.628,2.967-2.427,4.045-2.967c1.079-0.539,2.878-1.618,4.585-1.888C89.249,39.847,92.395,40.656,92.395,40.656z"/>
	<path style="fill-rule:evenodd;clip-rule:evenodd;fill:#834927;" d="M41.862,63.042c0,0,2.338-0.27,3.506,0.54
		c1.171,0.809,3.329,1.708,3.776,2.158c0.451,0.451,0.092,0.628,1.349,1.618c1.259,0.99,3.058,2.247,3.237,2.697
		c0.18,0.45,0.809,1.348,0.809,1.348l0.27,1.349c0,0-1.079,0.99-1.349,2.157c-0.27,1.168-0.448,2.428-0.54,3.237
		c-0.089,0.81-0.27,1.887-0.54,2.696c-0.27,0.81-3.865,1.889-4.584,1.349c-0.718-0.539-1.079-2.158-1.888-2.967
		s-1.349-2.068-2.697-1.618c-1.348,0.45-2.786,1.529-3.236,2.157c-0.448,0.629-1.168,2.428-1.348,3.236
		c-0.178,0.81-0.359,2.069-1.079,2.158c-0.717,0.089-1.618-0.27-2.428-0.539c-0.809-0.27-2.157-3.506-2.157-3.506
		s0.092-1.799,0-2.428c-0.089-0.629,0.092-1.707,0-2.696c-0.089-0.991-0.089-2.429-0.539-2.698c-0.448-0.27-0.988-0.809-1.888-0.27
		c-0.898,0.539-1.438,1.618-1.888,1.888c-0.447,0.271-1.168,0.81-1.618,0.271c-0.448-0.54-0.81-0.898-0.539-1.349
		c0.27-0.45,2.427-4.227,3.236-5.395c0.809-1.168,0.809-1.888,4.045-3.776C37.007,62.772,38.806,63.492,41.862,63.042z"/>
	<path style="fill-rule:evenodd;clip-rule:evenodd;fill:#834927;" d="M64.965,52.793c-0.674,0.404-3.776,0.944-5.125,1.618
		s-1.483,0.944-2.697,1.618s-2.023,0.809-2.697,1.618c-0.674,0.81-2.427,3.102-2.696,4.045c-0.27,0.944-0.135,2.292,0,2.697
		c0.134,0.405,0.539,1.349,0.809,1.888c0.27,0.539,1.079,1.213,1.888,2.157c0.81,0.944,1.483,1.888,1.619,2.428
		c0.135,0.539,2.562,1.888,4.315,2.157c1.754,0.27,3.372-3.506,5.125-4.854c1.753-1.349,1.619-2.292,4.045-2.697
		c2.428-0.404,2.832-0.134,3.776-0.27c0.943-0.135,5.528-1.079,5.934-1.888c0.404-0.81,0.404-1.753-0.271-2.697
		c-0.674-0.944-1.213-2.157-2.427-3.236s-1.349-1.483-3.506-2.697c-2.158-1.213-5.529-2.697-6.743-2.427
		C65.1,52.523,65.64,52.388,64.965,52.793z"/>
	<g>
		<path style="fill-rule:evenodd;clip-rule:evenodd;fill:#ECD180;" d="M102.214,52.663l-4.544,2.601c0,0-3.671,4.253-4.054,5.235
			c-0.384,0.984-1.592,7.557-1.368,8.557c0.225,1.004,0.006,1.624,1.336,3.398c1.326,1.77,1.278,3.078,2.69,3.908
			c1.411,0.828,3.547,2.951,4.932,3.576c1.383,0.623,2.232,0.713,5.18,1.004c2.943,0.291,4.343,0.291,5.683-0.213
			c1.338-0.505,3.612-1.096,5.189-2.045c1.578-0.949,2.905-2.22,4.259-3.339c1.354-1.122,2.35-4.038,2.651-5.618
			c0.303-1.581,0.642-2.039-0.011-4.917c-0.65-2.877-0.75-3.684-1.473-4.709c-0.72-1.024-1.75-2.929-2.532-3.638
			c-0.785-0.712-4.51-3.472-5.257-3.882c-0.747-0.41-2.244-1.227-3.461-1.367c-1.213-0.137-3.843-0.391-4.533-0.294
			C106.214,51.016,102.214,52.663,102.214,52.663z"/>
		<path style="fill-rule:evenodd;clip-rule:evenodd;fill:#EACB6C;" d="M92.306,67.511c-0.084,0.736-0.111,1.305-0.058,1.545
			c0.225,1.004,0.006,1.624,1.336,3.398c1.326,1.77,1.278,3.078,2.69,3.908c1.411,0.828,3.547,2.951,4.932,3.576
			c1.383,0.623,2.232,0.713,5.18,1.004c2.943,0.291,4.343,0.291,5.683-0.213c1.338-0.505,3.612-1.096,5.189-2.045
			c1.578-0.949,2.905-2.22,4.259-3.339c1.354-1.122,2.35-4.038,2.651-5.618c0.257-1.343,0.542-1.877,0.222-3.773
			c-0.318,0.683-0.796,1.578-1.322,2.088c-0.934,0.903-1.391,0.814-2.197,1.545c-0.805,0.731-1.354,1.12-2.16,1.85
			c-0.807,0.733-2.441,0.814-4.041,1.2s-3.365,0.643-4.38,0.941c-1.014,0.302-3.765-0.072-5.095,0.118
			c-1.33,0.192-3.997-0.66-4.626-0.879c-0.631-0.219-2.171-0.461-3.451-1.052c-1.281-0.588-2.007-1.57-2.676-2.093
			c-0.669-0.523-1.356-1.2-1.711-1.615C92.632,67.945,92.478,67.742,92.306,67.511z"/>
		<path style="fill-rule:evenodd;clip-rule:evenodd;fill:#EACA7F;" d="M104.995,65.307c-0.405,0.388-1.549,2.088-1.05,2.772
			c0.499,0.685,1.777,1.581,1.777,1.581s0.923-0.188,1.125-0.585c0.205-0.399,0.531-1.214,0.515-1.659
			c-0.014-0.448-0.147-0.906-0.057-1.64C107.397,65.043,106.064,64.279,104.995,65.307z"/>
		<path style="fill-rule:evenodd;clip-rule:evenodd;fill:#EACA7F;" d="M108.468,60.013c0.78,0.497,1.973,0.58,2.013,1.287
			s-0.035,1.958,1.381,1.988c1.419,0.027,2.657,0.062,1.917-1.424c-0.738-1.486-1.023-2.335-2.061-2.641
			c-1.035-0.307-1.701-1.655-2.643-0.587C108.134,59.705,107.688,59.517,108.468,60.013z"/>
		<path style="fill-rule:evenodd;clip-rule:evenodd;fill:#F1C078;" d="M98.255,62.448c-1.365,0.685-2.271,3.045-2.271,3.045
			s2.072,0.742,2.395,0.51c0.327-0.232,0.295-0.812,1.146-1.228c0.853-0.412,0.492-2.982,0.492-2.982S99.62,61.761,98.255,62.448z"
			/>
		<path style="fill-rule:evenodd;clip-rule:evenodd;fill:#EACA7F;" d="M118.184,62.604c0.482,0.726,0.568,1.179,1.494,1.855
			c0.922,0.674,1.027,1.557,1.459,0.903c0.435-0.655,0.623-0.172-0.048-1.429c-0.672-1.256-1.244-2.721-1.53-2.807
			c-0.286-0.086-1.119-0.656-1.427,0.048C117.827,61.879,117.7,61.879,118.184,62.604z"/>
		<path style="fill-rule:evenodd;clip-rule:evenodd;fill:#EACA7F;" d="M106.459,54.174c-0.949,0.234-3.579,0.49-3.7,0.998
			c-0.121,0.507,0.389,1.346,0.89,1.709c0.503,0.364,0.896,0.308,1.243-0.043c0.349-0.35,1.519-1.154,2.029-1.375
			C107.428,55.242,107.409,53.937,106.459,54.174z"/>
	</g>
	<g>
		<path style="fill-rule:evenodd;clip-rule:evenodd;fill:#ECD180;" d="M77.507,64.62l-4.536,2.591c0,0-3.664,4.248-4.044,5.229
			c-0.383,0.982-1.591,7.549-1.367,8.55c0.224,0.998,0.008,1.621,1.333,3.394c1.324,1.769,1.275,3.074,2.686,3.902
			c1.408,0.828,3.542,2.953,4.923,3.576c1.377,0.623,2.228,0.715,5.167,1.006c2.938,0.292,4.334,0.292,5.669-0.21
			c1.336-0.505,3.604-1.093,5.182-2.039c1.572-0.949,2.896-2.214,4.248-3.334c1.351-1.119,2.344-4.029,2.646-5.609
			c0.3-1.577,0.639-2.036-0.011-4.911c-0.65-2.875-0.75-3.682-1.471-4.704c-0.72-1.024-1.747-2.926-2.529-3.638
			c-0.779-0.709-4.496-3.468-5.243-3.878c-0.747-0.407-2.238-1.228-3.452-1.365c-1.213-0.14-3.838-0.394-4.523-0.299
			C81.495,62.974,77.507,64.62,77.507,64.62z"/>
		<path style="fill-rule:evenodd;clip-rule:evenodd;fill:#EACB6C;" d="M67.616,79.445c-0.081,0.733-0.111,1.303-0.057,1.545
			c0.224,0.998,0.008,1.621,1.333,3.394c1.324,1.769,1.275,3.074,2.686,3.902c1.408,0.828,3.542,2.953,4.923,3.576
			c1.377,0.623,2.228,0.715,5.167,1.006c2.938,0.292,4.334,0.292,5.669-0.21c1.336-0.505,3.604-1.093,5.182-2.039
			c1.572-0.949,2.896-2.214,4.248-3.334c1.351-1.119,2.344-4.029,2.646-5.609c0.256-1.341,0.539-1.874,0.218-3.769
			c-0.315,0.68-0.793,1.576-1.318,2.082c-0.931,0.904-1.387,0.815-2.189,1.543c-0.805,0.731-1.354,1.117-2.158,1.849
			c-0.804,0.733-2.436,0.813-4.029,1.196c-1.598,0.384-3.361,0.64-4.372,0.938c-1.011,0.3-3.757-0.075-5.084,0.116
			s-3.989-0.663-4.618-0.882c-0.627-0.218-2.162-0.461-3.44-1.052c-1.279-0.59-2.001-1.569-2.67-2.093s-1.354-1.2-1.708-1.612
			C67.943,79.877,67.789,79.675,67.616,79.445z"/>
		<path style="fill-rule:evenodd;clip-rule:evenodd;fill:#F1C078;" d="M80.278,77.25c-0.401,0.388-1.545,2.085-1.046,2.77
			c0.499,0.686,1.772,1.578,1.772,1.578s0.922-0.187,1.124-0.583c0.202-0.398,0.531-1.211,0.515-1.658
			c-0.016-0.445-0.15-0.904-0.059-1.638C82.68,76.988,81.348,76.222,80.278,77.25z"/>
		<path style="fill-rule:evenodd;clip-rule:evenodd;fill:#EACA7F;" d="M83.744,71.964c0.78,0.493,1.97,0.579,2.01,1.286
			s-0.038,1.955,1.378,1.985c1.413,0.029,2.648,0.064,1.912-1.422c-0.736-1.483-1.021-2.333-2.055-2.637
			c-1.033-0.308-1.699-1.657-2.638-0.588S82.968,71.468,83.744,71.964z"/>
		<path style="fill-rule:evenodd;clip-rule:evenodd;fill:#EACA7F;" d="M73.556,74.391c-1.362,0.686-2.269,3.04-2.269,3.04
			s2.065,0.741,2.393,0.513c0.326-0.232,0.294-0.812,1.143-1.225c0.851-0.413,0.488-2.98,0.488-2.98S74.914,73.706,73.556,74.391z"
			/>
		<path style="fill-rule:evenodd;clip-rule:evenodd;fill:#EACA7F;" d="M93.438,74.559c0.482,0.723,0.568,1.176,1.491,1.853
			c0.922,0.677,1.024,1.556,1.456,0.903c0.435-0.655,0.62-0.172-0.049-1.427c-0.672-1.257-1.24-2.719-1.523-2.805
			c-0.286-0.086-1.12-0.656-1.425,0.049C93.081,73.833,92.958,73.833,93.438,74.559z"/>
		<path style="fill-rule:evenodd;clip-rule:evenodd;fill:#EACA7F;" d="M81.741,66.13c-0.947,0.234-3.572,0.488-3.692,0.995
			c-0.122,0.504,0.388,1.343,0.887,1.707c0.502,0.364,0.896,0.308,1.241-0.04c0.348-0.351,1.516-1.155,2.022-1.376
			C82.706,67.198,82.688,65.895,81.741,66.13z"/>
	</g>
	<g>
		<path style="fill-rule:evenodd;clip-rule:evenodd;fill:#ECD180;" d="M52.232,75.969l-4.526,2.589c0,0-3.652,4.243-4.035,5.222
			c-0.38,0.979-1.586,7.538-1.362,8.539c0.225,0.997,0.008,1.618,1.33,3.388c1.321,1.769,1.272,3.074,2.681,3.902
			c1.405,0.828,3.53,2.95,4.911,3.574c1.376,0.623,2.223,0.714,5.157,1.008c2.929,0.291,4.323,0.295,5.656-0.21
			c1.332-0.502,3.595-1.087,5.167-2.033c1.569-0.947,2.891-2.209,4.239-3.329c1.349-1.113,2.339-4.023,2.638-5.6
			c0.303-1.577,0.642-2.035-0.008-4.905c-0.65-2.872-0.75-3.676-1.467-4.7c-0.721-1.023-1.745-2.924-2.524-3.634
			c-0.78-0.709-4.488-3.468-5.232-3.876c-0.745-0.409-2.233-1.227-3.444-1.367c-1.211-0.14-3.827-0.396-4.515-0.302
			C56.213,74.329,52.232,75.969,52.232,75.969z"/>
		<path style="fill-rule:evenodd;clip-rule:evenodd;fill:#EACB6C;" d="M42.366,90.772c-0.081,0.736-0.11,1.303-0.057,1.546
			c0.225,0.997,0.008,1.618,1.33,3.388c1.321,1.769,1.272,3.074,2.681,3.902c1.405,0.828,3.53,2.95,4.911,3.574
			c1.376,0.623,2.223,0.714,5.157,1.008c2.929,0.291,4.323,0.295,5.656-0.21c1.332-0.502,3.595-1.087,5.167-2.033
			c1.569-0.947,2.891-2.209,4.239-3.329c1.349-1.113,2.339-4.023,2.638-5.6c0.257-1.34,0.539-1.871,0.221-3.764
			c-0.314,0.68-0.792,1.572-1.314,2.078c-0.929,0.901-1.387,0.813-2.188,1.541c-0.801,0.73-1.348,1.116-2.149,1.845
			c-0.804,0.73-2.43,0.812-4.024,1.194c-1.591,0.383-3.353,0.634-4.361,0.934c-1.009,0.3-3.747-0.076-5.071,0.113
			c-1.327,0.191-3.981-0.664-4.607-0.883c-0.628-0.218-2.16-0.461-3.436-1.052c-1.276-0.59-1.999-1.569-2.665-2.093
			c-0.667-0.522-1.351-1.197-1.705-1.612C42.693,91.207,42.539,91.005,42.366,90.772z"/>
		<path style="fill-rule:evenodd;clip-rule:evenodd;fill:#F1C078;" d="M55.002,88.588c-0.404,0.389-1.542,2.08-1.046,2.765
			c0.499,0.685,1.77,1.58,1.77,1.58s0.919-0.186,1.122-0.585c0.202-0.396,0.529-1.208,0.513-1.653
			c-0.017-0.447-0.148-0.906-0.057-1.637S56.067,87.563,55.002,88.588z"/>
		<path style="fill-rule:evenodd;clip-rule:evenodd;fill:#EACA7F;" d="M58.46,83.31c0.776,0.493,1.963,0.58,2.004,1.284
			c0.038,0.707-0.038,1.956,1.373,1.985c1.413,0.029,2.646,0.067,1.909-1.419c-0.736-1.483-1.02-2.33-2.05-2.638
			c-1.033-0.305-1.696-1.653-2.632-0.588C58.128,83.003,57.683,82.814,58.46,83.31z"/>
		<path style="fill-rule:evenodd;clip-rule:evenodd;fill:#EACA7F;" d="M48.292,85.729c-1.359,0.682-2.263,3.034-2.263,3.034
			s2.063,0.744,2.387,0.513c0.323-0.232,0.292-0.813,1.141-1.223c0.85-0.412,0.488-2.977,0.488-2.977S49.648,85.044,48.292,85.729z"
			/>
		<path style="fill-rule:evenodd;clip-rule:evenodd;fill:#EACA7F;" d="M68.131,85.904c0.48,0.724,0.566,1.177,1.486,1.853
			c0.92,0.676,1.025,1.557,1.457,0.904c0.429-0.652,0.618-0.17-0.051-1.427c-0.668-1.254-1.237-2.716-1.521-2.803
			c-0.282-0.086-1.116-0.652-1.421,0.049S67.651,85.182,68.131,85.904z"/>
		<path style="fill-rule:evenodd;clip-rule:evenodd;fill:#EACA7F;" d="M56.459,77.479c-0.944,0.234-3.563,0.487-3.685,0.994
			c-0.121,0.505,0.386,1.344,0.887,1.708c0.499,0.364,0.89,0.308,1.238-0.044c0.345-0.348,1.51-1.151,2.017-1.369
			C57.424,78.547,57.402,77.247,56.459,77.479z"/>
	</g>
	<path style="fill-rule:evenodd;clip-rule:evenodd;fill:#F0EAC6;" d="M17.497,98.643c0,0,34.627-0.426,40.005-0.453
		c5.378-0.024,21.374-5.283,25.708-6.646c4.335-1.359,15.23-7.09,18.189-8.568c7.355-3.679,13.887-9.035,15.041-9.444
		c1.152-0.408,8.828-9.4,9.667-13.184c0.839-3.787,6.284-22.574,6.284-22.574l-6.203,40.102c0,0-21.374,28.088-71.473,33.983
		C53.988,112.198,17.497,98.643,17.497,98.643z"/>
	<path style="fill-rule:evenodd;clip-rule:evenodd;fill:#834927;" d="M81.417,62.502c0,0-2.246,0.451-2.697,0.81
		c-0.45,0.358-2.247,0.897-2.967,1.348s-2.157,1.349-2.696,2.158c-0.54,0.809-1.978,2.069-2.428,2.697
		c-0.451,0.628-0.809,1.529-0.809,2.158c0,0.628-0.359,1.887,0.27,2.696c0.628,0.81,1.707,1.707,1.618,2.697
		c-0.089,0.989-0.089,2.247,0,2.966c0.089,0.721-0.27,3.237,0.27,3.507s1.26,0.45,1.888,0c0.629-0.45,2.069-0.628,2.428-2.157
		s0.809-3.776,0.809-3.776s3.147-3.687,5.395-3.775s2.068-1.168,3.506,0c1.438,1.167,2.697,2.068,2.967,2.696
		c0.27,0.629,1.349,4.046,1.888,4.855c0.54,0.809,0.54,1.707,2.428,1.349s2.608-0.358,2.696-1.618c0.09-1.26,0.09-2.339,0-3.507
		c-0.088-1.167,0.09-2.608,0.54-2.967c0.451-0.358,0.629-1.079,0.539-1.888c-0.088-0.809-0.27-1.707-0.539-2.427
		s-0.809-2.877-1.618-3.506c-0.81-0.628-2.967-2.427-4.046-2.966c-1.078-0.54-2.877-1.619-4.584-1.888
		C84.564,61.693,81.417,62.502,81.417,62.502z"/>
	<path style="fill-rule:evenodd;clip-rule:evenodd;fill:#834927;" d="M57.144,73.021c0,0-2.338-0.27-3.506,0.539
		c-1.168,0.81-3.326,1.708-3.776,2.158c-0.451,0.45-0.089,0.629-1.349,1.618c-1.259,0.99-3.056,2.247-3.237,2.696
		c-0.18,0.451-0.809,1.35-0.809,1.35l-0.27,1.349c0,0,1.079,0.989,1.349,2.157s0.451,2.428,0.54,3.236s0.27,1.889,0.54,2.697
		c0.27,0.81,3.865,1.888,4.584,1.349c0.72-0.539,1.079-2.157,1.888-2.967s1.348-2.068,2.697-1.618
		c1.348,0.45,2.786,1.529,3.236,2.157c0.45,0.628,1.167,2.428,1.348,3.236c0.181,0.81,0.359,2.069,1.079,2.158
		s1.618-0.271,2.428-0.54c0.809-0.27,2.157-3.506,2.157-3.506s-0.089-1.799,0-2.427c0.089-0.629-0.089-1.708,0-2.698
		c0.089-0.989,0.089-2.427,0.539-2.696c0.451-0.271,0.99-0.81,1.888-0.271c0.898,0.54,1.438,1.619,1.888,1.889
		c0.45,0.27,1.168,0.81,1.618,0.27c0.451-0.539,0.81-0.897,0.539-1.349c-0.27-0.45-2.427-4.226-3.236-5.394
		c-0.809-1.168-0.809-1.889-4.045-3.776S60.199,73.471,57.144,73.021z"/>
	<path style="fill-rule:evenodd;clip-rule:evenodd;fill:#834927;" d="M109.288,49.557c0,0,2.339-0.27,3.507,0.539
		c1.171,0.809,3.328,1.707,3.775,2.158c0.45,0.45,0.092,0.628,1.349,1.618c1.26,0.99,3.059,2.247,3.236,2.697
		c0.181,0.451,0.81,1.349,0.81,1.349l0.27,1.348c0,0-1.079,0.99-1.349,2.158c-0.27,1.168-0.447,2.428-0.539,3.236
		c-0.089,0.809-0.271,1.888-0.539,2.697c-0.271,0.809-3.865,1.888-4.586,1.349c-0.717-0.54-1.078-2.158-1.888-2.967
		c-0.809-0.809-1.349-2.069-2.697-1.618c-1.349,0.45-2.786,1.529-3.235,2.158c-0.449,0.628-1.168,2.427-1.35,3.236
		c-0.178,0.809-0.358,2.068-1.079,2.158c-0.717,0.088-1.618-0.271-2.427-0.54s-2.158-3.506-2.158-3.506s0.092-1.799,0-2.427
		c-0.088-0.628,0.092-1.707,0-2.697c-0.088-0.989-0.088-2.427-0.539-2.697c-0.447-0.27-0.987-0.809-1.888-0.27
		c-0.897,0.54-1.438,1.619-1.889,1.888c-0.447,0.27-1.167,0.809-1.617,0.27c-0.448-0.539-0.81-0.898-0.54-1.348
		c0.27-0.451,2.428-4.227,3.236-5.394c0.81-1.168,0.81-1.888,4.046-3.776C104.435,49.287,106.233,50.007,109.288,49.557z"/>
	<path style="fill-rule:evenodd;clip-rule:evenodd;fill:#F9F6E8;" d="M33.949,64.121c0.442,0.31,2.608,0.809,3.776,2.158
		c1.167,1.348,1.348,1.888,2.158,2.697c0.809,0.809,1.529,1.888,2.157,2.967c0.628,1.078,1.529,2.516,2.427,3.506
		c0.898,0.99,2.428,1.888,2.428,1.888s3.147-1.799,3.776-1.888c0.628-0.089,1.888-0.27,2.697,0.54
		c0.809,0.809,1.168,0.269,2.428,2.157c1.259,1.887,1.079,1.707,1.887,2.967c0.81,1.26,1.349,3.236,1.619,4.045
		c0.27,0.809,0.27,1.889,0.809,2.697c0.539,0.81,1.26,2.428,1.619,2.428s0.539-0.181,1.348-0.27c0.81-0.09,1.349-0.629,1.619-1.619
		c0.27-0.989,0.088-3.506,0-4.045c-0.089-0.54-0.809-2.517-1.08-3.507c-0.27-0.989-1.167-3.506-1.618-4.315
		c-0.451-0.809-2.967-2.967-4.316-3.236c-1.348-0.27-3.775,0-3.775,0l-1.888,0.27c0,0,0-1.259-0.54-2.157
		c-0.54-0.898-0.898-1.438-1.349-2.427c-0.451-0.99-1.888-3.236-1.888-3.236l-0.809-1.349c0,0-0.898-0.628-1.618-1.079
		c-0.72-0.451-1.349-0.359-1.619-0.27c-0.27,0.089-0.72-0.089-0.27,0.54c0.45,0.628,0.539,0.809,1.079,1.349
		c0.54,0.539,1.26,0.99,1.619,1.618c0.358,0.628,0.628,0.99,1.079,1.618s0.72,0.809,1.079,1.618
		c0.358,0.809,0.897,1.707,1.079,2.158c0.18,0.45,0.72,0.72,0.809,1.348c0.089,0.629,0,1.079,0,1.079s-1.438,0.99-1.618,1.079
		s-1.349,0.809-1.349,0.809s-0.898-2.067-1.079-2.427c-0.181-0.359-1.26-0.629-1.888-1.618c-0.628-0.99-1.529-2.428-1.888-2.967
		c-0.359-0.54-1.529-2.158-1.888-2.697s-0.628-0.99-1.079-1.349c-0.451-0.359-1.438-1.438-2.158-1.618
		c-0.72-0.181-0.451-0.72-1.349-0.54C35.478,63.223,33.051,63.492,33.949,64.121z M52.693,73.83c0,0,2.293-0.404,2.832-0.271
		c0.54,0.136,1.888,1.079,2.697,1.349c0.809,0.271,1.079,1.08,1.618,1.618c0.539,0.54,2.158,4.721,2.427,5.125
		s1.079,4.314,1.079,4.854s-1.079,0.81-1.079,0.81s-0.539-1.079-0.539-1.35c0-0.269-0.27-0.943-0.54-1.617s-0.405-2.022-0.54-2.427
		c-0.134-0.405-0.943-1.754-1.348-2.429c-0.405-0.674-0.539-1.078-0.809-1.618c-0.27-0.539-0.81-1.078-1.079-1.349
		c-0.27-0.27-1.348-1.078-1.348-1.078L52.693,73.83z"/>
	<path style="fill-rule:evenodd;clip-rule:evenodd;fill:#F9F6E8;" d="M61.459,52.793c0.442,0.31,2.608,0.809,3.776,2.158
		c1.168,1.348,1.348,1.888,2.158,2.697c0.809,0.81,1.529,1.888,2.157,2.967c0.628,1.079,1.529,2.517,2.428,3.506
		s2.428,1.888,2.428,1.888s3.147-1.799,3.775-1.888c0.629-0.089,1.888-0.27,2.696,0.539c0.81,0.809,1.169,0.27,2.429,2.158
		c1.259,1.888,1.078,1.708,1.888,2.967c0.809,1.26,1.349,3.236,1.617,4.046c0.271,0.809,0.271,1.888,0.81,2.696
		c0.54,0.81,1.26,2.429,1.618,2.429c0.359,0,0.54-0.182,1.349-0.271c0.81-0.089,1.349-0.629,1.618-1.618
		c0.271-0.99,0.089-3.507,0-4.046s-0.809-2.516-1.078-3.506c-0.271-0.99-1.168-3.506-1.618-4.315
		c-0.451-0.809-2.967-2.967-4.315-3.236c-1.349-0.27-3.776,0-3.776,0l-1.888,0.27c0,0,0-1.259-0.54-2.158
		c-0.539-0.898-0.897-1.438-1.348-2.427c-0.451-0.99-1.889-3.236-1.889-3.236l-0.809-1.349c0,0-0.898-0.628-1.618-1.079
		c-0.721-0.451-1.349-0.359-1.618-0.27s-0.721-0.089-0.27,0.54c0.45,0.628,0.539,0.809,1.078,1.348c0.54,0.54,1.26,0.99,1.619,1.619
		c0.358,0.628,0.628,0.99,1.078,1.618s0.721,0.809,1.079,1.619c0.358,0.809,0.897,1.707,1.079,2.157
		c0.181,0.451,0.72,0.72,0.809,1.349s0,1.079,0,1.079s-1.438,0.99-1.618,1.079c-0.181,0.088-1.349,0.809-1.349,0.809
		s-0.898-2.069-1.078-2.428c-0.182-0.358-1.26-0.628-1.889-1.618c-0.628-0.99-1.529-2.427-1.888-2.967
		C70,57.378,68.83,55.76,68.471,55.22s-0.628-0.99-1.079-1.349c-0.451-0.359-1.438-1.438-2.158-1.618s-0.451-0.72-1.348-0.54
		C62.988,51.895,60.561,52.165,61.459,52.793z M80.203,62.502c0,0,2.293-0.404,2.832-0.27c0.54,0.135,1.888,1.079,2.697,1.349
		c0.81,0.27,1.078,1.079,1.618,1.618c0.539,0.54,2.158,4.72,2.428,5.125s1.078,4.315,1.078,4.855c0,0.539-1.078,0.81-1.078,0.81
		s-0.54-1.08-0.54-1.35s-0.27-0.943-0.539-1.618c-0.27-0.674-0.405-2.022-0.539-2.427c-0.136-0.405-0.944-1.753-1.35-2.427
		c-0.404-0.674-0.538-1.079-0.809-1.618c-0.27-0.54-0.809-1.079-1.079-1.349c-0.27-0.27-1.348-1.079-1.348-1.079L80.203,62.502z"/>
	<path style="fill-rule:evenodd;clip-rule:evenodd;fill:#F9F6E8;" d="M83.306,41.195c0.441,0.31,2.607,0.809,3.775,2.158
		s1.349,1.888,2.157,2.697c0.81,0.809,1.53,1.888,2.158,2.967c0.628,1.079,1.529,2.516,2.427,3.506
		c0.898,0.989,2.428,1.888,2.428,1.888s3.147-1.799,3.775-1.888c0.629-0.089,1.888-0.27,2.697,0.539s1.168,0.27,2.428,2.158
		c1.259,1.888,1.078,1.707,1.888,2.967c0.809,1.259,1.349,3.236,1.618,4.045s0.27,1.888,0.81,2.697
		c0.539,0.809,1.259,2.427,1.618,2.427c0.358,0,0.539-0.181,1.349-0.27c0.809-0.089,1.348-0.628,1.618-1.619
		c0.27-0.989,0.089-3.506,0-4.045c-0.09-0.539-0.81-2.517-1.079-3.506c-0.27-0.99-1.168-3.506-1.618-4.316
		c-0.451-0.809-2.967-2.966-4.315-3.236c-1.349-0.27-3.775,0-3.775,0l-1.888,0.27c0,0,0-1.259-0.54-2.158s-0.898-1.438-1.349-2.427
		S97.6,42.813,97.6,42.813l-0.81-1.348c0,0-0.897-0.629-1.618-1.079c-0.72-0.45-1.349-0.358-1.618-0.27s-0.72-0.089-0.27,0.54
		c0.451,0.628,0.539,0.809,1.078,1.348c0.54,0.54,1.26,0.99,1.618,1.619c0.359,0.628,0.629,0.989,1.079,1.618
		c0.451,0.628,0.721,0.809,1.079,1.618s0.898,1.707,1.079,2.158c0.181,0.45,0.72,0.72,0.809,1.349c0.09,0.628,0,1.079,0,1.079
		s-1.438,0.99-1.617,1.079c-0.182,0.089-1.35,0.809-1.35,0.809s-0.897-2.068-1.079-2.427c-0.18-0.359-1.259-0.628-1.888-1.618
		c-0.628-0.99-1.529-2.427-1.888-2.967s-1.528-2.158-1.888-2.697c-0.358-0.54-0.629-0.99-1.079-1.349s-1.437-1.438-2.157-1.618
		c-0.721-0.181-0.451-0.72-1.349-0.54S82.406,40.567,83.306,41.195z M102.05,50.905c0,0,2.293-0.404,2.831-0.27
		c0.54,0.135,1.889,1.079,2.697,1.349c0.81,0.27,1.079,1.079,1.618,1.618c0.54,0.54,2.158,4.72,2.428,5.125
		c0.27,0.404,1.079,4.315,1.079,4.854s-1.079,0.809-1.079,0.809s-0.539-1.079-0.539-1.349c0-0.27-0.271-0.944-0.54-1.618
		s-0.404-2.022-0.539-2.427s-0.944-1.753-1.349-2.428c-0.404-0.674-0.539-1.078-0.81-1.618c-0.27-0.54-0.809-1.079-1.078-1.349
		c-0.27-0.27-1.349-1.078-1.349-1.078L102.05,50.905z"/>
	<path style="fill-rule:evenodd;clip-rule:evenodd;fill:#F9F6E8;" d="M80.877,43.083c0,0,0.944,0.674,1.619,1.079
		c0.674,0.405,4.585,5.395,4.854,5.664s1.079,1.213,1.349,1.888s1.214,1.753,1.349,2.158c0.135,0.405,1.888,2.023,2.157,2.427
		c0.271,0.405,1.079,1.349,1.349,1.619c0.27,0.27,0.485,1.221,0.485,1.221l1.941-3.109c0,0,0.136-0.135,0.81,0
		s3.776,2.158,3.776,2.158s1.079,0.809,1.618,1.348c0.539,0.54,1.213,1.753,1.888,2.428s1.214,1.214,1.888,2.427
		c0.675,1.214,1.483,2.562,1.888,3.506c0.405,0.944,1.214,1.618,1.079,2.158c-0.135,0.539,0.675,1.753-0.27,1.888
		c-0.943,0.135-0.943,0.27-1.349-0.54c-0.404-0.809-1.483-2.832-1.888-3.236c-0.404-0.404-2.023-4.181-2.428-4.585
		s-0.539-1.213-1.348-1.888c-0.81-0.674-1.215-1.213-2.158-1.888c-0.944-0.674-2.158-1.214-2.428-1.348
		c-0.27-0.135-1.882-0.4-1.882-0.4l-1.5,2.4c0,0-1.742-2.136-2.012-2.54c-0.27-0.405-1.079-1.753-1.618-2.427
		c-0.539-0.675-2.023-2.158-2.967-2.967c-0.944-0.81-2.697-2.833-2.967-3.237c-0.27-0.405-0.944-1.618-1.618-2.427
		c-0.675-0.809-0.405-0.809-1.619-1.349c-1.213-0.54-1.617-0.674-1.888-0.809C78.72,44.567,78.854,43.083,80.877,43.083z"/>
	<path style="fill-rule:evenodd;clip-rule:evenodd;fill:#F9F6E8;" d="M56.334,55.22c0,0,0.944,0.674,1.619,1.079
		c0.674,0.405,4.584,5.394,4.854,5.664c0.27,0.27,1.08,1.214,1.349,1.888c0.27,0.674,1.213,1.753,1.348,2.157
		c0.135,0.405,1.888,2.023,2.158,2.427c0.27,0.405,1.079,1.349,1.349,1.619c0.27,0.27,0.485,1.221,0.485,1.221l1.942-3.109
		c0,0,0.135-0.135,0.809,0c0.674,0.135,3.775,2.158,3.775,2.158s1.079,0.809,1.619,1.349c0.539,0.539,1.213,1.753,1.888,2.427
		c0.674,0.675,1.214,1.214,1.888,2.427c0.674,1.215,1.483,2.563,1.889,3.506c0.404,0.945,1.213,1.619,1.078,2.158
		c-0.135,0.54,0.674,1.754-0.27,1.889c-0.944,0.135-0.944,0.27-1.349-0.54c-0.405-0.809-1.483-2.831-1.889-3.236
		c-0.403-0.404-2.022-4.181-2.427-4.585s-0.539-1.213-1.349-1.888c-0.809-0.675-1.213-1.214-2.157-1.888
		c-0.944-0.675-2.157-1.214-2.428-1.349c-0.27-0.135-1.882-0.399-1.882-0.399l-1.5,2.4c0,0-1.742-2.136-2.012-2.541
		c-0.27-0.405-1.079-1.753-1.619-2.428c-0.539-0.674-2.022-2.158-2.967-2.967c-0.944-0.809-2.697-2.832-2.966-3.236
		c-0.27-0.404-0.944-1.618-1.618-2.427c-0.674-0.809-0.405-0.809-1.619-1.349s-1.619-0.674-1.888-0.809S54.312,55.22,56.334,55.22z"
		/>
	<g>
		<path style="fill-rule:evenodd;clip-rule:evenodd;fill:#D7BF95;" d="M102.149,52.2c-0.404-0.413-0.949-0.68-0.936-1.211
			c0.011-0.531-0.014-0.988,0-1.516c0.011-0.531,0.45-1.464,0.469-1.365c0.016,0.1,0.742,0.545,1.563,0.758
			c0.816,0.213,0.401,0.246,0.465,0.758c0.068,0.512,0.105,1.281,0.158,1.516s0.469,0.758,0.469,0.758S102.554,52.615,102.149,52.2z
			"/>
		<path style="fill-rule:evenodd;clip-rule:evenodd;fill:#D7BF95;" d="M116.411,59.535c-0.502,0.249-0.92,0.664-1.408,0.505
			c-0.492-0.162-0.933-0.268-1.442-0.432c-0.515-0.167-1.311-0.869-1.206-0.852c0.108,0.016,0.785-0.54,1.263-1.252
			c0.478-0.714,0.375-0.302,0.896-0.197c0.512,0.105,1.251,0.316,1.486,0.343c0.231,0.026,0.847-0.194,0.847-0.194
			S116.91,59.29,116.411,59.535z"/>
		<path style="fill-rule:evenodd;clip-rule:evenodd;fill:#D7BF95;" d="M116.889,50.894c-0.556,0.205-1.024,0.591-1.534,0.372
			c-0.51-0.215-0.958-0.372-1.465-0.588c-0.51-0.218-1.244-0.977-1.141-0.955c0.104,0.024,0.814-0.456,1.335-1.111
			c0.521-0.655,0.394-0.267,0.914-0.129c0.518,0.14,1.278,0.404,1.524,0.45c0.248,0.043,0.913-0.13,0.913-0.13
			S117.444,50.689,116.889,50.894z"/>
		<path style="fill-rule:evenodd;clip-rule:evenodd;fill:#DFCCAC;" d="M106.502,47.865c-0.056,0.966-0.482,2.114-0.482,2.114
			s-0.997,0.494,0.243,0.704c1.24,0.21,1.683-0.234,1.683-0.234s0.478-0.982,0.723-1.643c0.243-0.664,0.479-1.645,0.479-1.645
			S106.56,46.9,106.502,47.865z"/>
		<path style="fill-rule:evenodd;clip-rule:evenodd;fill:#E6D7BD;" d="M106.181,51.908c0,0-1.41-0.06-2.311-0.407
			c-0.903-0.351-1.427,1.322-1.427,1.322s2.393,0.396,3.322,0.512C106.696,53.454,106.181,51.908,106.181,51.908z"/>
		<path style="fill-rule:evenodd;clip-rule:evenodd;fill:#E6D7BD;" d="M103.55,56.846c0,0-1.309,0.518-2.261,0.561
			c-0.954,0.041-0.804,1.796-0.804,1.796s2.33-0.602,3.223-0.871S103.55,56.846,103.55,56.846z"/>
		<path style="fill-rule:evenodd;clip-rule:evenodd;fill:#D7BF95;" d="M109.098,54.567c-0.443,0.404-0.721,0.939-1.273,0.928
			c-0.54-0.013-0.989,0.011-1.505,0c-0.502-0.011-1.365-0.407-1.276-0.42c0.092-0.017,0.488-0.685,0.68-1.44
			c0.188-0.769,0.228-0.383,0.715-0.472c0.499-0.089,1.276-0.17,1.519-0.235c0.242-0.065,0.796-0.51,0.796-0.51
			S109.55,54.155,109.098,54.567z"/>
		<path style="fill-rule:evenodd;clip-rule:evenodd;fill:#D7BF95;" d="M95.528,56.04c0.372-0.45,0.566-0.993,1.098-1.06
			c0.518-0.067,0.946-0.154,1.442-0.219c0.486-0.063,1.395,0.187,1.312,0.213c-0.087,0.027-0.352,0.726-0.396,1.491
			c-0.047,0.796-0.154,0.416-0.627,0.575c-0.484,0.162-1.245,0.354-1.475,0.453c-0.234,0.1-0.72,0.634-0.72,0.634
			S95.146,56.504,95.528,56.04z"/>
		<path style="fill-rule:evenodd;clip-rule:evenodd;fill:#DFCCAC;" d="M110.022,50.997c0.846,0.289,1.804,0.982,1.804,0.982
			s0.179,1.06,0.774-0.021c0.625-1.136,0.307-1.681,0.307-1.681s-0.847-0.69-1.418-1.063c-0.556-0.359-1.381-0.761-1.381-0.761
			S109.218,50.722,110.022,50.997z"/>
		<path style="fill-rule:evenodd;clip-rule:evenodd;fill:#DFCCAC;" d="M112.824,56.286c0.153-0.869,0.685-1.891,0.685-1.891
			s0.996-0.313-0.148-0.733c-1.227-0.453-1.73-0.073-1.73-0.073s-0.578,0.922-0.877,1.545c-0.291,0.61-0.585,1.505-0.585,1.505
			S112.679,57.119,112.824,56.286z"/>
		<path style="fill-rule:evenodd;clip-rule:evenodd;fill:#DFCCAC;" d="M99.636,51.441c-0.85-0.251-1.828-0.922-1.828-0.922
			s-0.217-1.114-0.785,0.067c-0.577,1.2-0.235,1.734-0.235,1.734s0.86,0.64,1.431,0.971c0.544,0.321,1.346,0.658,1.346,0.658
			S100.434,51.676,99.636,51.441z"/>
		<path style="fill-rule:evenodd;clip-rule:evenodd;fill:#DFCCAC;" d="M118.888,53.643c-0.815,0.391-1.967,0.547-1.967,0.547
			s-0.83-0.68-0.531,0.566c0.311,1.289,0.893,1.478,0.893,1.478s1.058-0.064,1.716-0.18c0.647-0.113,1.526-0.391,1.526-0.391
			S119.672,53.265,118.888,53.643z"/>
		<path style="fill-rule:evenodd;clip-rule:evenodd;fill:#DFCCAC;" d="M102.71,55.732c0.346-0.812,1.128-1.715,1.128-1.715
			s1.151-0.114,0.017-0.771c-1.152-0.669-1.729-0.38-1.729-0.38s-0.739,0.785-1.138,1.313c-0.383,0.507-0.818,1.265-0.818,1.265
			S102.384,56.499,102.71,55.732z"/>
		<path style="fill-rule:evenodd;clip-rule:evenodd;fill:#E6D7BD;" d="M112.587,52.731c0,0,0.914,1.051,1.262,1.936
			c0.349,0.882,1.975,0.122,1.975,0.122s-1.332-2.006-1.883-2.764C113.391,51.269,112.587,52.731,112.587,52.731z"/>
		<path style="fill-rule:evenodd;clip-rule:evenodd;fill:#E6D7BD;" d="M108.94,54.044c0,0,1.222-0.806,2.149-1.06
			c0.894-0.243,0.412-1.869,0.412-1.869s-2.225,1.049-3.117,1.516C107.462,53.111,108.94,54.044,108.94,54.044z"/>
	</g>
	<g>
		<path style="fill-rule:evenodd;clip-rule:evenodd;fill:#D7BF95;" d="M76.527,65.145c-0.405-0.412-0.949-0.679-0.937-1.211
			c0.012-0.531-0.013-0.987,0-1.515c0.012-0.532,0.451-1.465,0.47-1.365c0.017,0.1,0.741,0.545,1.562,0.758
			c0.817,0.213,0.402,0.246,0.467,0.758c0.067,0.512,0.104,1.281,0.156,1.516c0.055,0.235,0.47,0.758,0.47,0.758
			S76.932,65.561,76.527,65.145z"/>
		<path style="fill-rule:evenodd;clip-rule:evenodd;fill:#D7BF95;" d="M90.789,72.481c-0.502,0.248-0.919,0.663-1.407,0.504
			c-0.494-0.161-0.934-0.267-1.443-0.432c-0.516-0.167-1.311-0.868-1.205-0.852c0.107,0.017,0.785-0.54,1.262-1.252
			c0.478-0.714,0.375-0.302,0.896-0.197c0.513,0.105,1.251,0.316,1.485,0.343c0.232,0.027,0.847-0.194,0.847-0.194
			S91.288,72.235,90.789,72.481z"/>
		<path style="fill-rule:evenodd;clip-rule:evenodd;fill:#D7BF95;" d="M91.267,63.84c-0.555,0.205-1.025,0.591-1.534,0.372
			c-0.51-0.215-0.958-0.372-1.465-0.588c-0.51-0.218-1.243-0.976-1.142-0.954c0.105,0.023,0.815-0.457,1.336-1.112
			c0.521-0.655,0.394-0.267,0.914-0.129c0.518,0.14,1.278,0.404,1.523,0.45c0.249,0.043,0.914-0.129,0.914-0.129
			S91.822,63.635,91.267,63.84z"/>
		<path style="fill-rule:evenodd;clip-rule:evenodd;fill:#DFCCAC;" d="M80.88,60.812c-0.057,0.965-0.482,2.114-0.482,2.114
			s-0.998,0.494,0.242,0.704c1.241,0.21,1.684-0.235,1.684-0.235s0.478-0.982,0.723-1.643c0.243-0.664,0.48-1.645,0.48-1.645
			S80.937,59.846,80.88,60.812z"/>
		<path style="fill-rule:evenodd;clip-rule:evenodd;fill:#E6D7BD;" d="M80.56,64.854c0,0-1.41-0.059-2.312-0.407
			c-0.903-0.351-1.427,1.321-1.427,1.321s2.393,0.397,3.322,0.513C81.074,66.399,80.56,64.854,80.56,64.854z"/>
		<path style="fill-rule:evenodd;clip-rule:evenodd;fill:#E6D7BD;" d="M77.927,69.792c0,0-1.308,0.519-2.26,0.562
			c-0.955,0.04-0.804,1.796-0.804,1.796s2.33-0.602,3.224-0.871C78.979,71.009,77.927,69.792,77.927,69.792z"/>
		<path style="fill-rule:evenodd;clip-rule:evenodd;fill:#D7BF95;" d="M83.475,67.513c-0.442,0.405-0.72,0.939-1.272,0.928
			c-0.54-0.013-0.99,0.011-1.505,0c-0.502-0.011-1.365-0.407-1.276-0.42c0.093-0.016,0.488-0.685,0.68-1.44
			c0.188-0.769,0.227-0.383,0.715-0.472c0.499-0.089,1.275-0.17,1.519-0.235s0.796-0.51,0.796-0.51S83.929,67.101,83.475,67.513z"/>
		<path style="fill-rule:evenodd;clip-rule:evenodd;fill:#D7BF95;" d="M69.906,68.986c0.373-0.45,0.566-0.992,1.098-1.06
			c0.518-0.067,0.946-0.153,1.442-0.218c0.486-0.062,1.395,0.186,1.311,0.213c-0.086,0.027-0.35,0.726-0.396,1.491
			c-0.046,0.795-0.154,0.415-0.626,0.575c-0.486,0.162-1.246,0.353-1.475,0.453c-0.235,0.1-0.72,0.634-0.72,0.634
			S69.523,69.45,69.906,68.986z"/>
		<path style="fill-rule:evenodd;clip-rule:evenodd;fill:#DFCCAC;" d="M84.399,63.942c0.848,0.289,1.805,0.982,1.805,0.982
			s0.178,1.06,0.774-0.022c0.626-1.135,0.308-1.68,0.308-1.68s-0.847-0.691-1.419-1.063c-0.556-0.359-1.381-0.76-1.381-0.76
			S83.597,63.667,84.399,63.942z"/>
		<path style="fill-rule:evenodd;clip-rule:evenodd;fill:#DFCCAC;" d="M87.202,69.231c0.154-0.868,0.685-1.891,0.685-1.891
			s0.995-0.313-0.147-0.734c-1.228-0.453-1.732-0.073-1.732-0.073s-0.576,0.923-0.876,1.545c-0.291,0.609-0.585,1.505-0.585,1.505
			S87.057,70.065,87.202,69.231z"/>
		<path style="fill-rule:evenodd;clip-rule:evenodd;fill:#DFCCAC;" d="M74.014,64.388c-0.85-0.251-1.828-0.922-1.828-0.922
			s-0.216-1.114-0.785,0.067c-0.577,1.2-0.235,1.734-0.235,1.734s0.861,0.64,1.429,0.971c0.545,0.321,1.346,0.658,1.346,0.658
			S74.812,64.622,74.014,64.388z"/>
		<path style="fill-rule:evenodd;clip-rule:evenodd;fill:#DFCCAC;" d="M93.266,66.588c-0.815,0.392-1.967,0.548-1.967,0.548
			s-0.83-0.68-0.53,0.567c0.31,1.289,0.892,1.478,0.892,1.478s1.058-0.065,1.716-0.181c0.646-0.113,1.526-0.391,1.526-0.391
			S94.05,66.211,93.266,66.588z"/>
		<path style="fill-rule:evenodd;clip-rule:evenodd;fill:#DFCCAC;" d="M77.089,68.678c0.345-0.812,1.127-1.715,1.127-1.715
			s1.151-0.114,0.016-0.771c-1.151-0.669-1.729-0.38-1.729-0.38s-0.738,0.785-1.138,1.313c-0.384,0.507-0.817,1.265-0.817,1.265
			S76.762,69.445,77.089,68.678z"/>
		<path style="fill-rule:evenodd;clip-rule:evenodd;fill:#E6D7BD;" d="M86.965,65.677c0,0,0.915,1.052,1.263,1.937
			c0.348,0.882,1.974,0.121,1.974,0.121s-1.333-2.006-1.883-2.764C87.769,64.215,86.965,65.677,86.965,65.677z"/>
		<path style="fill-rule:evenodd;clip-rule:evenodd;fill:#E6D7BD;" d="M83.318,66.99c0,0,1.222-0.807,2.149-1.061
			c0.893-0.242,0.412-1.869,0.412-1.869s-2.225,1.049-3.117,1.516C81.841,66.057,83.318,66.99,83.318,66.99z"/>
	</g>
	<g>
		<path style="fill-rule:evenodd;clip-rule:evenodd;fill:#D7BF95;" d="M50.905,75.934c-0.404-0.413-0.949-0.68-0.936-1.211
			c0.011-0.531-0.014-0.987,0-1.516c0.011-0.531,0.45-1.465,0.469-1.364c0.016,0.1,0.741,0.544,1.561,0.757
			c0.818,0.214,0.402,0.245,0.467,0.758c0.067,0.513,0.105,1.281,0.156,1.517c0.054,0.234,0.47,0.758,0.47,0.758
			S51.31,76.349,50.905,75.934z"/>
		<path style="fill-rule:evenodd;clip-rule:evenodd;fill:#D7BF95;" d="M65.167,83.27c-0.502,0.248-0.92,0.663-1.408,0.504
			c-0.494-0.161-0.934-0.267-1.443-0.431c-0.515-0.168-1.311-0.869-1.206-0.853c0.108,0.017,0.785-0.54,1.262-1.251
			c0.478-0.715,0.375-0.303,0.896-0.197c0.513,0.105,1.252,0.315,1.486,0.342c0.232,0.027,0.847-0.193,0.847-0.193
			S65.666,83.024,65.167,83.27z"/>
		<path style="fill-rule:evenodd;clip-rule:evenodd;fill:#D7BF95;" d="M65.645,74.628C65.089,74.833,64.62,75.219,64.11,75
			c-0.51-0.215-0.958-0.372-1.465-0.587c-0.51-0.219-1.243-0.977-1.141-0.955c0.105,0.023,0.814-0.456,1.335-1.111
			c0.521-0.656,0.394-0.267,0.914-0.13c0.518,0.141,1.279,0.405,1.524,0.451c0.249,0.043,0.915-0.13,0.915-0.13
			S66.201,74.423,65.645,74.628z"/>
		<path style="fill-rule:evenodd;clip-rule:evenodd;fill:#DFCCAC;" d="M55.258,71.6c-0.056,0.966-0.482,2.114-0.482,2.114
			s-0.998,0.494,0.243,0.704c1.24,0.21,1.683-0.235,1.683-0.235s0.478-0.981,0.723-1.643c0.243-0.663,0.48-1.645,0.48-1.645
			S55.315,70.634,55.258,71.6z"/>
		<path style="fill-rule:evenodd;clip-rule:evenodd;fill:#E6D7BD;" d="M54.938,75.643c0,0-1.411-0.06-2.312-0.407
			c-0.903-0.351-1.427,1.321-1.427,1.321s2.393,0.396,3.323,0.513C55.453,77.188,54.938,75.643,54.938,75.643z"/>
		<path style="fill-rule:evenodd;clip-rule:evenodd;fill:#E6D7BD;" d="M52.305,80.581c0,0-1.308,0.518-2.26,0.561
			c-0.955,0.041-0.804,1.796-0.804,1.796s2.331-0.601,3.223-0.871C53.357,81.797,52.305,80.581,52.305,80.581z"/>
		<path style="fill-rule:evenodd;clip-rule:evenodd;fill:#D7BF95;" d="M57.853,78.302c-0.442,0.404-0.72,0.938-1.273,0.928
			c-0.54-0.014-0.99,0.011-1.505,0c-0.501-0.011-1.364-0.407-1.275-0.421c0.091-0.016,0.488-0.685,0.679-1.44
			c0.189-0.768,0.226-0.383,0.715-0.472c0.499-0.089,1.276-0.17,1.519-0.234c0.242-0.065,0.795-0.511,0.795-0.511
			S58.306,77.889,57.853,78.302z"/>
		<path style="fill-rule:evenodd;clip-rule:evenodd;fill:#D7BF95;" d="M44.284,79.774c0.372-0.45,0.566-0.992,1.098-1.061
			c0.518-0.066,0.947-0.153,1.443-0.219c0.486-0.062,1.394,0.188,1.311,0.214c-0.086,0.027-0.351,0.726-0.396,1.491
			c-0.046,0.796-0.154,0.416-0.626,0.574c-0.485,0.162-1.246,0.354-1.475,0.453c-0.235,0.1-0.72,0.635-0.72,0.635
			S43.901,80.238,44.284,79.774z"/>
		<path style="fill-rule:evenodd;clip-rule:evenodd;fill:#DFCCAC;" d="M58.778,74.73c0.847,0.289,1.804,0.981,1.804,0.981
			s0.178,1.061,0.774-0.021c0.626-1.135,0.307-1.68,0.307-1.68s-0.846-0.69-1.418-1.063c-0.555-0.359-1.381-0.761-1.381-0.761
			S57.975,74.456,58.778,74.73z"/>
		<path style="fill-rule:evenodd;clip-rule:evenodd;fill:#DFCCAC;" d="M61.58,80.02c0.154-0.868,0.685-1.891,0.685-1.891
			s0.996-0.313-0.148-0.733c-1.228-0.453-1.732-0.073-1.732-0.073s-0.577,0.923-0.876,1.546c-0.292,0.609-0.585,1.505-0.585,1.505
			S61.435,80.853,61.58,80.02z"/>
		<path style="fill-rule:evenodd;clip-rule:evenodd;fill:#DFCCAC;" d="M48.392,75.176c-0.85-0.251-1.828-0.923-1.828-0.923
			s-0.216-1.113-0.785,0.068c-0.577,1.199-0.235,1.733-0.235,1.733s0.861,0.64,1.429,0.972c0.545,0.32,1.346,0.658,1.346,0.658
			S49.19,75.411,48.392,75.176z"/>
		<path style="fill-rule:evenodd;clip-rule:evenodd;fill:#DFCCAC;" d="M67.643,77.377c-0.814,0.391-1.966,0.547-1.966,0.547
			s-0.831-0.68-0.531,0.566c0.311,1.289,0.893,1.479,0.893,1.479s1.058-0.065,1.715-0.181c0.647-0.113,1.526-0.392,1.526-0.392
			S68.428,76.999,67.643,77.377z"/>
		<path style="fill-rule:evenodd;clip-rule:evenodd;fill:#DFCCAC;" d="M51.467,79.467c0.345-0.812,1.127-1.715,1.127-1.715
			s1.152-0.114,0.017-0.771c-1.152-0.669-1.729-0.38-1.729-0.38s-0.739,0.784-1.138,1.313c-0.383,0.507-0.817,1.265-0.817,1.265
			S51.14,80.232,51.467,79.467z"/>
		<path style="fill-rule:evenodd;clip-rule:evenodd;fill:#E6D7BD;" d="M61.343,76.465c0,0,0.915,1.052,1.263,1.937
			c0.348,0.882,1.974,0.121,1.974,0.121s-1.333-2.006-1.882-2.765C62.146,75.003,61.343,76.465,61.343,76.465z"/>
		<path style="fill-rule:evenodd;clip-rule:evenodd;fill:#E6D7BD;" d="M57.696,77.778c0,0,1.222-0.807,2.15-1.06
			c0.893-0.243,0.413-1.869,0.413-1.869s-2.225,1.049-3.118,1.516C56.218,76.845,57.696,77.778,57.696,77.778z"/>
	</g>
	<g>
		<path style="fill-rule:evenodd;clip-rule:evenodd;fill:#D7BF95;" d="M33.914,66.224c-0.404-0.413-0.949-0.68-0.936-1.211
			c0.011-0.532-0.013-0.987,0-1.516c0.011-0.532,0.45-1.464,0.469-1.365c0.016,0.1,0.742,0.545,1.562,0.758
			c0.817,0.213,0.402,0.245,0.466,0.758c0.068,0.513,0.105,1.281,0.157,1.516c0.053,0.234,0.469,0.758,0.469,0.758
			S34.318,66.64,33.914,66.224z"/>
		<path style="fill-rule:evenodd;clip-rule:evenodd;fill:#D7BF95;" d="M48.176,73.56c-0.501,0.248-0.92,0.664-1.408,0.505
			c-0.494-0.161-0.933-0.267-1.443-0.431c-0.515-0.168-1.311-0.869-1.206-0.854c0.108,0.017,0.785-0.539,1.262-1.251
			c0.477-0.715,0.375-0.302,0.896-0.197c0.512,0.105,1.251,0.315,1.486,0.343c0.232,0.027,0.847-0.194,0.847-0.194
			S48.675,73.315,48.176,73.56z"/>
		<path style="fill-rule:evenodd;clip-rule:evenodd;fill:#D7BF95;" d="M48.653,64.919c-0.555,0.205-1.025,0.59-1.535,0.372
			c-0.509-0.216-0.958-0.372-1.464-0.588c-0.51-0.219-1.244-0.977-1.141-0.955c0.105,0.024,0.815-0.455,1.335-1.111
			c0.521-0.655,0.394-0.267,0.915-0.129c0.518,0.14,1.278,0.404,1.523,0.45c0.249,0.043,0.915-0.129,0.915-0.129
			S49.209,64.714,48.653,64.919z"/>
		<path style="fill-rule:evenodd;clip-rule:evenodd;fill:#DFCCAC;" d="M38.267,61.89c-0.057,0.966-0.483,2.115-0.483,2.115
			s-0.998,0.494,0.243,0.704c1.241,0.21,1.683-0.235,1.683-0.235s0.478-0.981,0.723-1.643c0.243-0.664,0.48-1.646,0.48-1.646
			S38.324,60.925,38.267,61.89z"/>
		<path style="fill-rule:evenodd;clip-rule:evenodd;fill:#E6D7BD;" d="M37.946,65.933c0,0-1.41-0.059-2.311-0.407
			c-0.903-0.351-1.427,1.322-1.427,1.322s2.393,0.396,3.322,0.512C38.461,67.479,37.946,65.933,37.946,65.933z"/>
		<path style="fill-rule:evenodd;clip-rule:evenodd;fill:#E6D7BD;" d="M35.314,70.871c0,0-1.309,0.518-2.26,0.562
			c-0.955,0.04-0.804,1.796-0.804,1.796s2.33-0.602,3.223-0.871S35.314,70.871,35.314,70.871z"/>
		<path style="fill-rule:evenodd;clip-rule:evenodd;fill:#D7BF95;" d="M40.861,68.592c-0.442,0.404-0.72,0.938-1.272,0.927
			c-0.54-0.014-0.99,0.011-1.505,0c-0.502-0.011-1.365-0.407-1.276-0.42c0.091-0.016,0.488-0.685,0.679-1.44
			c0.189-0.769,0.227-0.383,0.715-0.472c0.499-0.089,1.276-0.17,1.519-0.235c0.243-0.064,0.795-0.509,0.795-0.509
			S41.314,68.179,40.861,68.592z"/>
		<path style="fill-rule:evenodd;clip-rule:evenodd;fill:#D7BF95;" d="M27.292,70.065c0.373-0.451,0.566-0.993,1.098-1.06
			c0.518-0.067,0.947-0.154,1.443-0.219c0.486-0.062,1.395,0.186,1.311,0.213c-0.086,0.027-0.351,0.726-0.396,1.492
			c-0.045,0.795-0.154,0.416-0.626,0.574c-0.485,0.162-1.246,0.354-1.475,0.454c-0.235,0.1-0.72,0.634-0.72,0.634
			S26.91,70.529,27.292,70.065z"/>
		<path style="fill-rule:evenodd;clip-rule:evenodd;fill:#DFCCAC;" d="M41.787,65.021c0.847,0.289,1.804,0.981,1.804,0.981
			s0.178,1.06,0.774-0.021c0.626-1.136,0.308-1.681,0.308-1.681s-0.847-0.69-1.418-1.062c-0.556-0.359-1.381-0.761-1.381-0.761
			S40.983,64.746,41.787,65.021z"/>
		<path style="fill-rule:evenodd;clip-rule:evenodd;fill:#DFCCAC;" d="M44.589,70.311c0.154-0.869,0.685-1.891,0.685-1.891
			s0.995-0.313-0.148-0.733c-1.227-0.453-1.732-0.073-1.732-0.073s-0.577,0.922-0.876,1.545c-0.291,0.609-0.585,1.505-0.585,1.505
			S44.443,71.144,44.589,70.311z"/>
		<path style="fill-rule:evenodd;clip-rule:evenodd;fill:#DFCCAC;" d="M31.4,65.466c-0.85-0.251-1.829-0.922-1.829-0.922
			s-0.216-1.114-0.785,0.067c-0.577,1.2-0.235,1.734-0.235,1.734s0.86,0.64,1.43,0.971c0.544,0.321,1.345,0.658,1.345,0.658
			S32.198,65.701,31.4,65.466z"/>
		<path style="fill-rule:evenodd;clip-rule:evenodd;fill:#DFCCAC;" d="M50.652,67.667c-0.814,0.392-1.966,0.548-1.966,0.548
			s-0.831-0.68-0.532,0.566c0.311,1.29,0.893,1.478,0.893,1.478s1.058-0.064,1.716-0.18c0.647-0.114,1.526-0.391,1.526-0.391
			S51.437,67.29,50.652,67.667z"/>
		<path style="fill-rule:evenodd;clip-rule:evenodd;fill:#DFCCAC;" d="M34.475,69.757c0.345-0.812,1.127-1.715,1.127-1.715
			s1.152-0.113,0.017-0.771c-1.151-0.669-1.729-0.38-1.729-0.38s-0.739,0.785-1.138,1.313c-0.383,0.507-0.818,1.265-0.818,1.265
			S34.148,70.523,34.475,69.757z"/>
		<path style="fill-rule:evenodd;clip-rule:evenodd;fill:#E6D7BD;" d="M44.352,66.756c0,0,0.914,1.051,1.262,1.936
			c0.348,0.882,1.974,0.122,1.974,0.122s-1.333-2.007-1.882-2.765C45.155,65.294,44.352,66.756,44.352,66.756z"/>
		<path style="fill-rule:evenodd;clip-rule:evenodd;fill:#E6D7BD;" d="M40.705,68.069c0,0,1.222-0.807,2.149-1.06
			c0.893-0.243,0.413-1.869,0.413-1.869s-2.225,1.049-3.118,1.515C39.227,67.136,40.705,68.069,40.705,68.069z"/>
	</g>
	<g>
		<path style="fill-rule:evenodd;clip-rule:evenodd;fill:#D7BF95;" d="M59.806,54.896c-0.404-0.413-0.949-0.68-0.936-1.211
			c0.011-0.531-0.014-0.987,0-1.516c0.011-0.531,0.45-1.465,0.469-1.365c0.016,0.1,0.741,0.545,1.561,0.758
			c0.817,0.213,0.402,0.246,0.467,0.757c0.067,0.513,0.105,1.281,0.156,1.517c0.054,0.234,0.47,0.758,0.47,0.758
			S60.21,55.312,59.806,54.896z"/>
		<path style="fill-rule:evenodd;clip-rule:evenodd;fill:#D7BF95;" d="M74.067,62.232c-0.502,0.248-0.92,0.664-1.408,0.505
			c-0.493-0.162-0.933-0.268-1.442-0.432c-0.515-0.167-1.311-0.868-1.206-0.852c0.108,0.016,0.785-0.539,1.262-1.251
			c0.478-0.715,0.374-0.302,0.896-0.197c0.513,0.105,1.252,0.315,1.486,0.343c0.232,0.026,0.847-0.194,0.847-0.194
			S74.566,61.987,74.067,62.232z"/>
		<path style="fill-rule:evenodd;clip-rule:evenodd;fill:#D7BF95;" d="M74.545,53.591c-0.556,0.205-1.024,0.591-1.534,0.373
			c-0.51-0.215-0.958-0.373-1.465-0.588c-0.51-0.218-1.243-0.977-1.141-0.955c0.105,0.024,0.814-0.456,1.335-1.111
			s0.394-0.267,0.914-0.13c0.518,0.141,1.278,0.405,1.524,0.451c0.248,0.043,0.914-0.129,0.914-0.129S75.101,53.386,74.545,53.591z"
			/>
		<path style="fill-rule:evenodd;clip-rule:evenodd;fill:#DFCCAC;" d="M64.158,50.563c-0.056,0.965-0.482,2.114-0.482,2.114
			s-0.998,0.494,0.243,0.704c1.24,0.21,1.683-0.234,1.683-0.234s0.478-0.982,0.723-1.643c0.243-0.664,0.48-1.645,0.48-1.645
			S64.215,49.597,64.158,50.563z"/>
		<path style="fill-rule:evenodd;clip-rule:evenodd;fill:#E6D7BD;" d="M63.838,54.605c0,0-1.411-0.059-2.312-0.407
			C60.623,53.847,60.1,55.52,60.1,55.52s2.392,0.396,3.323,0.513C64.353,56.15,63.838,54.605,63.838,54.605z"/>
		<path style="fill-rule:evenodd;clip-rule:evenodd;fill:#E6D7BD;" d="M61.205,59.543c0,0-1.308,0.518-2.26,0.561
			c-0.955,0.041-0.804,1.796-0.804,1.796s2.33-0.601,3.223-0.871C62.257,60.76,61.205,59.543,61.205,59.543z"/>
		<path style="fill-rule:evenodd;clip-rule:evenodd;fill:#D7BF95;" d="M66.753,57.265c-0.443,0.404-0.72,0.938-1.273,0.928
			c-0.539-0.013-0.99,0.011-1.505,0c-0.501-0.011-1.364-0.407-1.276-0.421c0.092-0.016,0.488-0.685,0.68-1.44
			c0.189-0.769,0.226-0.383,0.715-0.472c0.499-0.089,1.275-0.17,1.518-0.235c0.243-0.065,0.796-0.51,0.796-0.51
			S67.206,56.852,66.753,57.265z"/>
		<path style="fill-rule:evenodd;clip-rule:evenodd;fill:#D7BF95;" d="M53.185,58.737c0.372-0.45,0.566-0.993,1.098-1.061
			c0.518-0.067,0.947-0.153,1.443-0.218c0.486-0.062,1.394,0.186,1.311,0.213c-0.086,0.027-0.351,0.726-0.397,1.491
			c-0.046,0.796-0.154,0.416-0.625,0.575c-0.485,0.162-1.246,0.353-1.476,0.453c-0.234,0.1-0.72,0.634-0.72,0.634
			S52.801,59.201,53.185,58.737z"/>
		<path style="fill-rule:evenodd;clip-rule:evenodd;fill:#DFCCAC;" d="M67.678,53.694c0.847,0.289,1.805,0.981,1.805,0.981
			s0.178,1.061,0.774-0.021c0.625-1.135,0.307-1.68,0.307-1.68s-0.847-0.69-1.418-1.063c-0.556-0.359-1.381-0.761-1.381-0.761
			S66.875,53.418,67.678,53.694z"/>
		<path style="fill-rule:evenodd;clip-rule:evenodd;fill:#DFCCAC;" d="M70.48,58.982c0.154-0.868,0.685-1.891,0.685-1.891
			s0.996-0.313-0.148-0.733c-1.228-0.453-1.732-0.073-1.732-0.073s-0.577,0.922-0.876,1.545c-0.292,0.609-0.585,1.505-0.585,1.505
			S70.335,59.816,70.48,58.982z"/>
		<path style="fill-rule:evenodd;clip-rule:evenodd;fill:#DFCCAC;" d="M57.292,54.139c-0.85-0.251-1.829-0.922-1.829-0.922
			s-0.216-1.115-0.785,0.067c-0.577,1.2-0.235,1.734-0.235,1.734s0.86,0.639,1.429,0.971c0.545,0.321,1.346,0.658,1.346,0.658
			S58.09,54.373,57.292,54.139z"/>
		<path style="fill-rule:evenodd;clip-rule:evenodd;fill:#DFCCAC;" d="M76.543,56.339c-0.814,0.391-1.966,0.548-1.966,0.548
			s-0.83-0.68-0.531,0.566c0.31,1.289,0.893,1.478,0.893,1.478s1.058-0.065,1.716-0.181c0.647-0.113,1.526-0.391,1.526-0.391
			S77.328,55.962,76.543,56.339z"/>
		<path style="fill-rule:evenodd;clip-rule:evenodd;fill:#DFCCAC;" d="M60.366,58.43c0.346-0.812,1.128-1.715,1.128-1.715
			s1.151-0.113,0.016-0.771c-1.151-0.668-1.729-0.38-1.729-0.38s-0.739,0.785-1.138,1.313c-0.383,0.508-0.817,1.265-0.817,1.265
			S60.04,59.196,60.366,58.43z"/>
		<path style="fill-rule:evenodd;clip-rule:evenodd;fill:#E6D7BD;" d="M70.243,55.428c0,0,0.915,1.052,1.263,1.937
			c0.348,0.882,1.974,0.122,1.974,0.122s-1.332-2.007-1.882-2.765C71.047,53.966,70.243,55.428,70.243,55.428z"/>
		<path style="fill-rule:evenodd;clip-rule:evenodd;fill:#E6D7BD;" d="M66.597,56.741c0,0,1.222-0.807,2.15-1.06
			c0.893-0.243,0.413-1.869,0.413-1.869s-2.225,1.049-3.118,1.516C65.119,55.808,66.597,56.741,66.597,56.741z"/>
	</g>
	<g>
		<path style="fill-rule:evenodd;clip-rule:evenodd;fill:#D7BF95;" d="M83.539,43.029c-0.404-0.413-0.948-0.68-0.936-1.211
			c0.011-0.531-0.013-0.987,0-1.516c0.011-0.531,0.451-1.464,0.47-1.364c0.016,0.099,0.741,0.544,1.562,0.757
			c0.817,0.213,0.401,0.246,0.466,0.758c0.068,0.512,0.105,1.281,0.157,1.516c0.054,0.234,0.469,0.758,0.469,0.758
			S83.944,43.444,83.539,43.029z"/>
		<path style="fill-rule:evenodd;clip-rule:evenodd;fill:#D7BF95;" d="M97.802,50.366c-0.502,0.248-0.92,0.663-1.408,0.504
			c-0.493-0.162-0.934-0.268-1.443-0.432c-0.515-0.167-1.311-0.869-1.205-0.853c0.108,0.017,0.785-0.539,1.263-1.251
			c0.478-0.715,0.374-0.302,0.896-0.197c0.512,0.105,1.251,0.315,1.485,0.343c0.232,0.026,0.848-0.194,0.848-0.194
			S98.301,50.12,97.802,50.366z"/>
		<path style="fill-rule:evenodd;clip-rule:evenodd;fill:#D7BF95;" d="M98.279,41.724c-0.556,0.205-1.024,0.59-1.534,0.372
			c-0.511-0.215-0.958-0.372-1.465-0.588c-0.51-0.218-1.244-0.976-1.142-0.955c0.105,0.024,0.815-0.456,1.335-1.111
			c0.521-0.655,0.395-0.267,0.915-0.129c0.518,0.14,1.278,0.404,1.524,0.45c0.247,0.043,0.913-0.129,0.913-0.129
			S98.835,41.519,98.279,41.724z"/>
		<path style="fill-rule:evenodd;clip-rule:evenodd;fill:#DFCCAC;" d="M87.893,38.695c-0.056,0.965-0.483,2.115-0.483,2.115
			s-0.997,0.494,0.244,0.704c1.24,0.21,1.683-0.234,1.683-0.234s0.478-0.982,0.722-1.643c0.243-0.664,0.48-1.645,0.48-1.645
			S87.949,37.73,87.893,38.695z"/>
		<path style="fill-rule:evenodd;clip-rule:evenodd;fill:#E6D7BD;" d="M87.571,42.738c0,0-1.41-0.06-2.311-0.407
			c-0.904-0.351-1.428,1.321-1.428,1.321s2.393,0.396,3.323,0.513C88.087,44.284,87.571,42.738,87.571,42.738z"/>
		<path style="fill-rule:evenodd;clip-rule:evenodd;fill:#E6D7BD;" d="M84.939,47.677c0,0-1.309,0.518-2.26,0.561
			c-0.955,0.041-0.804,1.796-0.804,1.796s2.33-0.602,3.223-0.871C85.991,48.893,84.939,47.677,84.939,47.677z"/>
		<path style="fill-rule:evenodd;clip-rule:evenodd;fill:#D7BF95;" d="M90.487,45.397c-0.442,0.404-0.721,0.939-1.273,0.928
			c-0.539-0.014-0.989,0.011-1.504,0c-0.502-0.011-1.365-0.408-1.276-0.421c0.092-0.016,0.488-0.685,0.68-1.44
			c0.188-0.769,0.227-0.383,0.715-0.472c0.498-0.089,1.275-0.17,1.519-0.235c0.242-0.064,0.795-0.509,0.795-0.509
			S90.94,44.985,90.487,45.397z"/>
		<path style="fill-rule:evenodd;clip-rule:evenodd;fill:#D7BF95;" d="M76.918,46.87c0.372-0.45,0.567-0.993,1.099-1.06
			c0.518-0.068,0.946-0.154,1.442-0.219c0.485-0.061,1.394,0.186,1.311,0.213c-0.086,0.027-0.351,0.726-0.396,1.491
			c-0.046,0.796-0.153,0.416-0.626,0.575c-0.484,0.162-1.246,0.353-1.475,0.453c-0.234,0.1-0.72,0.634-0.72,0.634
			S76.535,47.333,76.918,46.87z"/>
		<path style="fill-rule:evenodd;clip-rule:evenodd;fill:#DFCCAC;" d="M91.413,41.827c0.846,0.289,1.804,0.982,1.804,0.982
			s0.178,1.06,0.774-0.022c0.625-1.135,0.307-1.68,0.307-1.68s-0.847-0.69-1.418-1.063c-0.556-0.359-1.381-0.761-1.381-0.761
			S90.608,41.552,91.413,41.827z"/>
		<path style="fill-rule:evenodd;clip-rule:evenodd;fill:#DFCCAC;" d="M94.214,47.116c0.154-0.869,0.686-1.891,0.686-1.891
			s0.995-0.313-0.148-0.733c-1.227-0.453-1.731-0.073-1.731-0.073s-0.577,0.922-0.876,1.545c-0.292,0.609-0.586,1.505-0.586,1.505
			S94.068,47.949,94.214,47.116z"/>
		<path style="fill-rule:evenodd;clip-rule:evenodd;fill:#DFCCAC;" d="M81.026,42.271c-0.85-0.25-1.829-0.922-1.829-0.922
			s-0.216-1.114-0.785,0.067c-0.577,1.2-0.234,1.735-0.234,1.735s0.86,0.639,1.43,0.971c0.545,0.321,1.346,0.658,1.346,0.658
			S81.824,42.506,81.026,42.271z"/>
		<path style="fill-rule:evenodd;clip-rule:evenodd;fill:#DFCCAC;" d="M100.278,44.472c-0.815,0.392-1.967,0.548-1.967,0.548
			s-0.831-0.679-0.531,0.566c0.311,1.289,0.893,1.478,0.893,1.478s1.057-0.064,1.715-0.18c0.647-0.114,1.526-0.392,1.526-0.392
			S101.063,44.095,100.278,44.472z"/>
		<path style="fill-rule:evenodd;clip-rule:evenodd;fill:#DFCCAC;" d="M84.101,46.563c0.346-0.812,1.128-1.715,1.128-1.715
			s1.151-0.114,0.016-0.771c-1.151-0.669-1.729-0.381-1.729-0.381s-0.738,0.785-1.138,1.314c-0.383,0.507-0.817,1.265-0.817,1.265
			S83.774,47.329,84.101,46.563z"/>
		<path style="fill-rule:evenodd;clip-rule:evenodd;fill:#E6D7BD;" d="M93.977,43.561c0,0,0.915,1.052,1.263,1.937
			c0.348,0.882,1.975,0.122,1.975,0.122s-1.332-2.006-1.883-2.764C94.78,42.099,93.977,43.561,93.977,43.561z"/>
		<path style="fill-rule:evenodd;clip-rule:evenodd;fill:#E6D7BD;" d="M90.331,44.874c0,0,1.222-0.806,2.149-1.06
			c0.893-0.242,0.413-1.869,0.413-1.869s-2.226,1.049-3.118,1.516C88.853,43.941,90.331,44.874,90.331,44.874z"/>
	</g>
	<g>
		<polygon style="fill-rule:evenodd;clip-rule:evenodd;fill:#929A2C;" points="104.576,49.77 103.269,50.417 104.14,51.933 
			105.663,51.067 		"/>
		<polygon style="fill-rule:evenodd;clip-rule:evenodd;fill:#929A2C;" points="120.298,55.347 121.603,54.762 120.867,53.24 
			119.324,54.031 		"/>
		<polygon style="fill-rule:evenodd;clip-rule:evenodd;fill:#929A2C;" points="110.721,55.565 112.022,54.98 111.287,53.457 
			109.747,54.249 		"/>
		<polygon style="fill-rule:evenodd;clip-rule:evenodd;fill:#929A2C;" points="111.638,50.84 110.237,50.417 109.822,51.938 
			111.548,52.345 		"/>
		<polygon style="fill-rule:evenodd;clip-rule:evenodd;fill:#929A2C;" points="108.013,49.807 106.753,50.417 107.641,51.925 
			109.138,51.261 		"/>
		<polygon style="fill-rule:evenodd;clip-rule:evenodd;fill:#929A2C;" points="102.098,53.187 100.873,52.582 100.026,54.322 
			101.756,54.935 		"/>
		<polygon style="fill-rule:evenodd;clip-rule:evenodd;fill:#929A2C;" points="114.148,53.502 115.607,53.457 115.468,51.56 
			113.72,51.933 		"/>
		<polygon style="fill-rule:evenodd;clip-rule:evenodd;fill:#929A2C;" points="98.775,56.199 100.234,56.153 100.095,54.257 
			98.347,54.629 		"/>
		<polygon style="fill-rule:evenodd;clip-rule:evenodd;fill:#929A2C;" points="102.529,57.06 103.991,57.197 104.056,55.447 
			102.271,55.393 		"/>
		<polygon style="fill-rule:evenodd;clip-rule:evenodd;fill:#929A2C;" points="107.101,57.275 108.563,57.413 108.63,55.663 
			106.846,55.608 		"/>
		<polygon style="fill-rule:evenodd;clip-rule:evenodd;fill:#929A2C;" points="114.505,56.625 115.964,56.766 116.031,55.016 
			114.245,54.959 		"/>
		<polygon style="fill-rule:evenodd;clip-rule:evenodd;fill:#7B8325;" points="107.954,51.391 107.517,52.841 109.291,53.225 
			109.649,51.566 		"/>
		<polygon style="fill-rule:evenodd;clip-rule:evenodd;fill:#7B8325;" points="101.48,50.042 101.043,51.493 102.818,51.876 
			103.177,50.217 		"/>
		<polygon style="fill-rule:evenodd;clip-rule:evenodd;fill:#7B8325;" points="96.355,54.357 95.919,55.808 97.694,56.191 
			98.052,54.533 		"/>
		<polygon style="fill-rule:evenodd;clip-rule:evenodd;fill:#7B8325;" points="104.034,53.337 103.598,54.789 105.372,55.172 
			105.731,53.513 		"/>
		<polygon style="fill-rule:evenodd;clip-rule:evenodd;fill:#7B8325;" points="99.72,56.035 99.282,57.486 101.057,57.869 
			101.415,56.21 		"/>
		<polygon style="fill-rule:evenodd;clip-rule:evenodd;fill:#7B8325;" points="117.965,53.402 118.48,51.971 116.731,51.501 
			116.288,53.154 		"/>
		<polygon style="fill-rule:evenodd;clip-rule:evenodd;fill:#7B8325;" points="113.534,53.626 112.484,54.708 113.847,55.881 
			114.898,54.567 		"/>
		<polygon style="fill-rule:evenodd;clip-rule:evenodd;fill:#7B8325;" points="97.891,50.929 96.842,52.011 98.204,53.184 
			99.255,51.871 		"/>
		<polygon style="fill-rule:evenodd;clip-rule:evenodd;fill:#7B8325;" points="113.308,51.099 114.435,50.039 113.075,48.747 
			111.932,50.055 		"/>
		<polygon style="fill-rule:evenodd;clip-rule:evenodd;fill:#7B8325;" points="109.173,58.457 110.298,57.396 108.938,56.105 
			107.794,57.413 		"/>
	</g>
	<g>
		<polygon style="fill-rule:evenodd;clip-rule:evenodd;fill:#929A2C;" points="85.428,41.139 84.12,41.786 84.991,43.302 
			86.514,42.437 		"/>
		<polygon style="fill-rule:evenodd;clip-rule:evenodd;fill:#929A2C;" points="101.148,46.717 102.454,46.131 101.718,44.61 
			100.175,45.4 		"/>
		<polygon style="fill-rule:evenodd;clip-rule:evenodd;fill:#929A2C;" points="91.571,46.935 92.874,46.35 92.138,44.826 
			90.598,45.619 		"/>
		<polygon style="fill-rule:evenodd;clip-rule:evenodd;fill:#929A2C;" points="92.488,42.209 91.089,41.786 90.673,43.307 
			92.399,43.715 		"/>
		<polygon style="fill-rule:evenodd;clip-rule:evenodd;fill:#929A2C;" points="88.864,41.177 87.604,41.786 88.491,43.294 
			89.988,42.63 		"/>
		<polygon style="fill-rule:evenodd;clip-rule:evenodd;fill:#929A2C;" points="82.948,44.556 81.725,43.952 80.877,45.691 
			82.606,46.304 		"/>
		<polygon style="fill-rule:evenodd;clip-rule:evenodd;fill:#929A2C;" points="94.999,44.871 96.459,44.826 96.318,42.93 
			94.571,43.302 		"/>
		<polygon style="fill-rule:evenodd;clip-rule:evenodd;fill:#929A2C;" points="79.626,47.568 81.085,47.523 80.945,45.627 
			79.197,45.999 		"/>
		<polygon style="fill-rule:evenodd;clip-rule:evenodd;fill:#929A2C;" points="83.381,48.429 84.843,48.566 84.907,46.816 
			83.122,46.762 		"/>
		<polygon style="fill-rule:evenodd;clip-rule:evenodd;fill:#929A2C;" points="87.952,48.645 89.414,48.782 89.48,47.032 
			87.696,46.978 		"/>
		<polygon style="fill-rule:evenodd;clip-rule:evenodd;fill:#929A2C;" points="95.355,47.995 96.814,48.135 96.882,46.385 
			95.097,46.328 		"/>
		<polygon style="fill-rule:evenodd;clip-rule:evenodd;fill:#7B8325;" points="88.805,42.76 88.368,44.211 90.142,44.594 
			90.501,42.935 		"/>
		<polygon style="fill-rule:evenodd;clip-rule:evenodd;fill:#7B8325;" points="82.331,41.411 81.895,42.862 83.669,43.245 
			84.027,41.587 		"/>
		<polygon style="fill-rule:evenodd;clip-rule:evenodd;fill:#7B8325;" points="77.207,45.727 76.771,47.178 78.545,47.561 
			78.903,45.902 		"/>
		<polygon style="fill-rule:evenodd;clip-rule:evenodd;fill:#7B8325;" points="84.886,44.707 84.448,46.158 86.223,46.541 
			86.582,44.883 		"/>
		<polygon style="fill-rule:evenodd;clip-rule:evenodd;fill:#7B8325;" points="80.569,47.404 80.134,48.855 81.908,49.238 
			82.267,47.579 		"/>
		<polygon style="fill-rule:evenodd;clip-rule:evenodd;fill:#7B8325;" points="98.815,44.771 99.331,43.34 97.583,42.87 
			97.139,44.524 		"/>
		<polygon style="fill-rule:evenodd;clip-rule:evenodd;fill:#7B8325;" points="94.385,44.996 93.335,46.077 94.697,47.25 
			95.749,45.937 		"/>
		<polygon style="fill-rule:evenodd;clip-rule:evenodd;fill:#7B8325;" points="78.742,42.298 77.692,43.38 79.055,44.554 
			80.106,43.24 		"/>
		<polygon style="fill-rule:evenodd;clip-rule:evenodd;fill:#7B8325;" points="94.158,42.469 95.285,41.409 93.926,40.117 
			92.782,41.425 		"/>
		<polygon style="fill-rule:evenodd;clip-rule:evenodd;fill:#7B8325;" points="90.023,49.826 91.148,48.767 89.788,47.474 
			88.646,48.782 		"/>
	</g>
	<g>
		<polygon style="fill-rule:evenodd;clip-rule:evenodd;fill:#929A2C;" points="61.154,53.275 59.846,53.923 60.717,55.438 
			62.241,54.573 		"/>
		<polygon style="fill-rule:evenodd;clip-rule:evenodd;fill:#929A2C;" points="76.876,58.853 78.181,58.268 77.444,56.747 
			75.901,57.537 		"/>
		<polygon style="fill-rule:evenodd;clip-rule:evenodd;fill:#929A2C;" points="67.298,59.072 68.601,58.486 67.864,56.962 
			66.324,57.755 		"/>
		<polygon style="fill-rule:evenodd;clip-rule:evenodd;fill:#929A2C;" points="68.215,54.347 66.815,53.923 66.4,55.444 
			68.126,55.852 		"/>
		<polygon style="fill-rule:evenodd;clip-rule:evenodd;fill:#929A2C;" points="64.59,53.313 63.331,53.923 64.218,55.431 
			65.715,54.767 		"/>
		<polygon style="fill-rule:evenodd;clip-rule:evenodd;fill:#929A2C;" points="58.675,56.693 57.451,56.089 56.604,57.828 
			58.333,58.44 		"/>
		<polygon style="fill-rule:evenodd;clip-rule:evenodd;fill:#929A2C;" points="70.726,57.008 72.186,56.962 72.045,55.066 
			70.297,55.438 		"/>
		<polygon style="fill-rule:evenodd;clip-rule:evenodd;fill:#929A2C;" points="55.353,59.705 56.812,59.66 56.672,57.764 
			54.924,58.136 		"/>
		<polygon style="fill-rule:evenodd;clip-rule:evenodd;fill:#929A2C;" points="59.107,60.566 60.569,60.703 60.634,58.953 
			58.848,58.899 		"/>
		<polygon style="fill-rule:evenodd;clip-rule:evenodd;fill:#929A2C;" points="63.679,60.781 65.14,60.919 65.208,59.169 
			63.422,59.114 		"/>
		<polygon style="fill-rule:evenodd;clip-rule:evenodd;fill:#929A2C;" points="71.082,60.131 72.541,60.272 72.608,58.521 
			70.823,58.465 		"/>
		<polygon style="fill-rule:evenodd;clip-rule:evenodd;fill:#7B8325;" points="64.531,54.896 64.094,56.348 65.869,56.73 
			66.228,55.072 		"/>
		<polygon style="fill-rule:evenodd;clip-rule:evenodd;fill:#7B8325;" points="58.058,53.548 57.621,54.999 59.396,55.382 
			59.755,53.724 		"/>
		<polygon style="fill-rule:evenodd;clip-rule:evenodd;fill:#7B8325;" points="52.934,57.863 52.497,59.314 54.271,59.697 
			54.63,58.039 		"/>
		<polygon style="fill-rule:evenodd;clip-rule:evenodd;fill:#7B8325;" points="60.612,56.844 60.175,58.295 61.95,58.678 
			62.309,57.019 		"/>
		<polygon style="fill-rule:evenodd;clip-rule:evenodd;fill:#7B8325;" points="56.297,59.541 55.859,60.992 57.635,61.375 
			57.993,59.716 		"/>
		<polygon style="fill-rule:evenodd;clip-rule:evenodd;fill:#7B8325;" points="74.542,56.909 75.058,55.477 73.31,55.007 
			72.864,56.66 		"/>
		<polygon style="fill-rule:evenodd;clip-rule:evenodd;fill:#7B8325;" points="70.111,57.132 69.062,58.214 70.424,59.387 
			71.476,58.074 		"/>
		<polygon style="fill-rule:evenodd;clip-rule:evenodd;fill:#7B8325;" points="54.468,54.435 53.419,55.517 54.781,56.69 
			55.833,55.376 		"/>
		<polygon style="fill-rule:evenodd;clip-rule:evenodd;fill:#7B8325;" points="69.884,54.605 71.012,53.545 69.652,52.253 
			68.509,53.562 		"/>
		<polygon style="fill-rule:evenodd;clip-rule:evenodd;fill:#7B8325;" points="65.75,61.963 66.875,60.903 65.515,59.611 
			64.372,60.919 		"/>
	</g>
	<g>
		<polygon style="fill-rule:evenodd;clip-rule:evenodd;fill:#929A2C;" points="80.304,63.255 78.995,63.902 79.866,65.417 
			81.39,64.552 		"/>
		<polygon style="fill-rule:evenodd;clip-rule:evenodd;fill:#929A2C;" points="96.024,68.832 97.329,68.247 96.593,66.726 
			95.051,67.516 		"/>
		<polygon style="fill-rule:evenodd;clip-rule:evenodd;fill:#929A2C;" points="86.447,69.051 87.749,68.465 87.014,66.941 
			85.474,67.734 		"/>
		<polygon style="fill-rule:evenodd;clip-rule:evenodd;fill:#929A2C;" points="87.364,64.325 85.964,63.902 85.549,65.423 
			87.275,65.831 		"/>
		<polygon style="fill-rule:evenodd;clip-rule:evenodd;fill:#929A2C;" points="83.739,63.293 82.479,63.902 83.367,65.41 
			84.864,64.746 		"/>
		<polygon style="fill-rule:evenodd;clip-rule:evenodd;fill:#929A2C;" points="77.824,66.672 76.601,66.067 75.753,67.807 
			77.482,68.419 		"/>
		<polygon style="fill-rule:evenodd;clip-rule:evenodd;fill:#929A2C;" points="89.875,66.987 91.335,66.941 91.194,65.046 
			89.446,65.417 		"/>
		<polygon style="fill-rule:evenodd;clip-rule:evenodd;fill:#929A2C;" points="74.502,69.685 75.961,69.639 75.821,67.742 
			74.072,68.115 		"/>
		<polygon style="fill-rule:evenodd;clip-rule:evenodd;fill:#929A2C;" points="78.256,70.545 79.718,70.683 79.782,68.932 
			77.997,68.878 		"/>
		<polygon style="fill-rule:evenodd;clip-rule:evenodd;fill:#929A2C;" points="82.828,70.761 84.289,70.898 84.356,69.148 
			82.571,69.094 		"/>
		<polygon style="fill-rule:evenodd;clip-rule:evenodd;fill:#929A2C;" points="90.23,70.11 91.69,70.251 91.758,68.5 89.972,68.444 
					"/>
		<polygon style="fill-rule:evenodd;clip-rule:evenodd;fill:#7B8325;" points="83.681,64.875 83.243,66.327 85.018,66.709 
			85.376,65.051 		"/>
		<polygon style="fill-rule:evenodd;clip-rule:evenodd;fill:#7B8325;" points="77.207,63.527 76.771,64.979 78.545,65.361 
			78.903,63.702 		"/>
		<polygon style="fill-rule:evenodd;clip-rule:evenodd;fill:#7B8325;" points="72.083,67.842 71.646,69.293 73.421,69.676 
			73.778,68.018 		"/>
		<polygon style="fill-rule:evenodd;clip-rule:evenodd;fill:#7B8325;" points="79.761,66.823 79.324,68.274 81.099,68.657 
			81.458,66.998 		"/>
		<polygon style="fill-rule:evenodd;clip-rule:evenodd;fill:#7B8325;" points="75.445,69.52 75.009,70.971 76.784,71.354 
			77.142,69.695 		"/>
		<polygon style="fill-rule:evenodd;clip-rule:evenodd;fill:#7B8325;" points="93.691,66.888 94.206,65.456 92.458,64.986 
			92.014,66.64 		"/>
		<polygon style="fill-rule:evenodd;clip-rule:evenodd;fill:#7B8325;" points="89.261,67.112 88.211,68.193 89.572,69.366 
			90.624,68.053 		"/>
		<polygon style="fill-rule:evenodd;clip-rule:evenodd;fill:#7B8325;" points="73.618,64.415 72.567,65.496 73.931,66.669 
			74.981,65.355 		"/>
		<polygon style="fill-rule:evenodd;clip-rule:evenodd;fill:#7B8325;" points="89.034,64.584 90.161,63.524 88.802,62.232 
			87.657,63.541 		"/>
		<polygon style="fill-rule:evenodd;clip-rule:evenodd;fill:#7B8325;" points="84.899,71.942 86.024,70.882 84.664,69.59 
			83.521,70.898 		"/>
	</g>
	<g>
		<polygon style="fill-rule:evenodd;clip-rule:evenodd;fill:#929A2C;" points="53.872,73.503 52.564,74.151 53.435,75.667 
			54.959,74.801 		"/>
		<polygon style="fill-rule:evenodd;clip-rule:evenodd;fill:#929A2C;" points="69.593,79.081 70.898,78.495 70.162,76.975 
			68.619,77.765 		"/>
		<polygon style="fill-rule:evenodd;clip-rule:evenodd;fill:#929A2C;" points="60.016,79.3 61.318,78.714 60.583,77.19 
			59.042,77.983 		"/>
		<polygon style="fill-rule:evenodd;clip-rule:evenodd;fill:#929A2C;" points="60.933,74.574 59.533,74.151 59.118,75.672 
			60.844,76.079 		"/>
		<polygon style="fill-rule:evenodd;clip-rule:evenodd;fill:#929A2C;" points="57.309,73.542 56.049,74.151 56.936,75.659 
			58.433,74.995 		"/>
		<polygon style="fill-rule:evenodd;clip-rule:evenodd;fill:#929A2C;" points="51.394,76.921 50.169,76.316 49.322,78.056 
			51.051,78.669 		"/>
		<polygon style="fill-rule:evenodd;clip-rule:evenodd;fill:#929A2C;" points="63.444,77.236 64.903,77.19 64.763,75.294 
			63.015,75.667 		"/>
		<polygon style="fill-rule:evenodd;clip-rule:evenodd;fill:#929A2C;" points="48.071,79.934 49.53,79.888 49.39,77.991 
			47.642,78.364 		"/>
		<polygon style="fill-rule:evenodd;clip-rule:evenodd;fill:#929A2C;" points="51.825,80.794 53.287,80.931 53.352,79.181 
			51.566,79.127 		"/>
		<polygon style="fill-rule:evenodd;clip-rule:evenodd;fill:#929A2C;" points="56.397,81.01 57.858,81.147 57.926,79.396 
			56.141,79.343 		"/>
		<polygon style="fill-rule:evenodd;clip-rule:evenodd;fill:#929A2C;" points="63.8,80.359 65.259,80.5 65.327,78.749 
			63.541,78.692 		"/>
		<polygon style="fill-rule:evenodd;clip-rule:evenodd;fill:#7B8325;" points="57.249,75.124 56.812,76.576 58.587,76.959 
			58.945,75.3 		"/>
		<polygon style="fill-rule:evenodd;clip-rule:evenodd;fill:#7B8325;" points="50.776,73.776 50.339,75.228 52.114,75.61 
			52.472,73.951 		"/>
		<polygon style="fill-rule:evenodd;clip-rule:evenodd;fill:#7B8325;" points="45.651,78.091 45.215,79.543 46.989,79.925 
			47.348,78.267 		"/>
		<polygon style="fill-rule:evenodd;clip-rule:evenodd;fill:#7B8325;" points="53.33,77.072 52.893,78.522 54.668,78.906 
			55.026,77.247 		"/>
		<polygon style="fill-rule:evenodd;clip-rule:evenodd;fill:#7B8325;" points="49.015,79.769 48.578,81.22 50.353,81.603 
			50.711,79.944 		"/>
		<polygon style="fill-rule:evenodd;clip-rule:evenodd;fill:#7B8325;" points="67.26,77.136 67.775,75.705 66.027,75.235 
			65.583,76.889 		"/>
		<polygon style="fill-rule:evenodd;clip-rule:evenodd;fill:#7B8325;" points="62.829,77.36 61.779,78.441 63.142,79.615 
			64.193,78.302 		"/>
		<polygon style="fill-rule:evenodd;clip-rule:evenodd;fill:#7B8325;" points="47.187,74.663 46.137,75.745 47.499,76.918 
			48.551,75.604 		"/>
		<polygon style="fill-rule:evenodd;clip-rule:evenodd;fill:#7B8325;" points="62.603,74.833 63.73,73.772 62.371,72.481 
			61.227,73.789 		"/>
		<polygon style="fill-rule:evenodd;clip-rule:evenodd;fill:#7B8325;" points="58.468,82.19 59.593,81.131 58.233,79.839 
			57.09,81.147 		"/>
	</g>
	<g>
		<polygon style="fill-rule:evenodd;clip-rule:evenodd;fill:#929A2C;" points="36.611,63.255 35.303,63.902 36.174,65.417 
			37.698,64.552 		"/>
		<polygon style="fill-rule:evenodd;clip-rule:evenodd;fill:#929A2C;" points="52.332,68.832 53.638,68.247 52.901,66.726 
			51.358,67.516 		"/>
		<polygon style="fill-rule:evenodd;clip-rule:evenodd;fill:#929A2C;" points="42.755,69.051 44.058,68.465 43.321,66.941 
			41.781,67.734 		"/>
		<polygon style="fill-rule:evenodd;clip-rule:evenodd;fill:#929A2C;" points="43.672,64.325 42.272,63.902 41.857,65.423 
			43.583,65.831 		"/>
		<polygon style="fill-rule:evenodd;clip-rule:evenodd;fill:#929A2C;" points="40.047,63.293 38.788,63.902 39.675,65.41 
			41.172,64.746 		"/>
		<polygon style="fill-rule:evenodd;clip-rule:evenodd;fill:#929A2C;" points="34.132,66.672 32.908,66.067 32.061,67.807 
			33.79,68.419 		"/>
		<polygon style="fill-rule:evenodd;clip-rule:evenodd;fill:#929A2C;" points="46.183,66.987 47.642,66.941 47.502,65.046 
			45.754,65.417 		"/>
		<polygon style="fill-rule:evenodd;clip-rule:evenodd;fill:#929A2C;" points="30.81,69.685 32.269,69.639 32.129,67.742 
			30.381,68.115 		"/>
		<polygon style="fill-rule:evenodd;clip-rule:evenodd;fill:#929A2C;" points="34.563,70.545 36.025,70.683 36.09,68.932 
			34.305,68.878 		"/>
		<polygon style="fill-rule:evenodd;clip-rule:evenodd;fill:#929A2C;" points="39.135,70.761 40.597,70.898 40.665,69.148 
			38.879,69.094 		"/>
		<polygon style="fill-rule:evenodd;clip-rule:evenodd;fill:#929A2C;" points="46.539,70.11 47.998,70.251 48.065,68.5 
			46.28,68.444 		"/>
		<polygon style="fill-rule:evenodd;clip-rule:evenodd;fill:#7B8325;" points="39.987,64.875 39.551,66.327 41.325,66.709 
			41.684,65.051 		"/>
		<polygon style="fill-rule:evenodd;clip-rule:evenodd;fill:#7B8325;" points="33.515,63.527 33.078,64.979 34.853,65.361 
			35.211,63.702 		"/>
		<polygon style="fill-rule:evenodd;clip-rule:evenodd;fill:#7B8325;" points="28.39,67.842 27.954,69.293 29.728,69.676 
			30.087,68.018 		"/>
		<polygon style="fill-rule:evenodd;clip-rule:evenodd;fill:#7B8325;" points="36.069,66.823 35.632,68.274 37.407,68.657 
			37.766,66.998 		"/>
		<polygon style="fill-rule:evenodd;clip-rule:evenodd;fill:#7B8325;" points="31.754,69.52 31.316,70.971 33.091,71.354 
			33.45,69.695 		"/>
		<polygon style="fill-rule:evenodd;clip-rule:evenodd;fill:#7B8325;" points="49.999,66.888 50.515,65.456 48.767,64.986 
			48.322,66.64 		"/>
		<polygon style="fill-rule:evenodd;clip-rule:evenodd;fill:#7B8325;" points="45.568,67.112 44.519,68.193 45.881,69.366 
			46.933,68.053 		"/>
		<polygon style="fill-rule:evenodd;clip-rule:evenodd;fill:#7B8325;" points="29.925,64.415 28.876,65.496 30.238,66.669 
			31.29,65.355 		"/>
		<polygon style="fill-rule:evenodd;clip-rule:evenodd;fill:#7B8325;" points="45.341,64.584 46.469,63.524 45.109,62.232 
			43.966,63.541 		"/>
		<polygon style="fill-rule:evenodd;clip-rule:evenodd;fill:#7B8325;" points="41.207,71.942 42.332,70.882 40.972,69.59 
			39.828,70.898 		"/>
	</g>
	<g>
		<path style="fill-rule:evenodd;clip-rule:evenodd;fill:#D8C2A5;" d="M26.969,35.173c0.356-0.14,0.736,0.032,0.852,0.388
			l8.962,27.753c0.113,0.353-0.081,0.755-0.44,0.895c-0.355,0.144-0.736-0.032-0.852-0.385l-8.962-27.755
			C26.416,35.715,26.61,35.313,26.969,35.173z"/>
		<polygon style="fill-rule:evenodd;clip-rule:evenodd;fill:#CFB58F;" points="27.649,39.539 28.94,39.03 29.191,39.801 
			27.899,40.308 		"/>
		<polygon style="fill-rule:evenodd;clip-rule:evenodd;fill:#CFB58F;" points="28.231,41.339 29.523,40.829 29.771,41.6 
			28.479,42.107 		"/>
	</g>
	<g>
		<path style="fill-rule:evenodd;clip-rule:evenodd;fill:#D8C2A5;" d="M18.578,40.251c0.319-0.224,0.731-0.135,0.92,0.2
			L33.951,65.94c0.181,0.319,0.07,0.745-0.245,0.953c-0.315,0.205-0.717,0.116-0.898-0.2L18.347,41.258
			C18.155,40.926,18.26,40.473,18.578,40.251z"/>
		<polygon style="fill-rule:evenodd;clip-rule:evenodd;fill:#CFB58F;" points="20.194,44.51 21.348,43.712 21.756,44.432 
			20.604,45.23 		"/>
		<polygon style="fill-rule:evenodd;clip-rule:evenodd;fill:#CFB58F;" points="21.148,46.188 22.301,45.392 22.708,46.109 
			21.556,46.905 		"/>
	</g>
	<path style="fill-rule:evenodd;clip-rule:evenodd;fill:#956344;" d="M34.489,75.988c0,0,0.062,2.084,0,2.967
		c-0.063,0.882,0.188,2.675,0.539,2.967c0.351,0.29,0.604,0.945,1.348,0.538c0.745-0.407,1.319-0.323,1.349-1.078
		s0.896-3.088,1.888-3.507c0.993-0.417,1.705-1.774,1.349-1.887c-0.356-0.114-1.519-0.521-1.888,0
		c-0.369,0.521-1.41,4.813-2.157,3.774c-0.748-1.038-0.777-2.203-1.079-2.966C35.535,76.033,34.489,75.988,34.489,75.988z"/>
	<path style="fill-rule:evenodd;clip-rule:evenodd;fill:#956344;" d="M53.368,64.66c0,0,1.427,2.037,1.619,2.428
		c0.191,0.391,1.653,1.928,2.427,2.427c0.774,0.499,1.48,1.405,2.158,1.349c0.677-0.057,1.041-0.135,1.888-0.809
		c0.469-0.375,1.917-2.271,0.906-1.947c-1.009,0.323,0.172-1.02,0.172-1.02l-2.697,2.427l-1.079-1.079c0,0-0.286,0.383-1.619-1.079
		c-1.332-1.462-1.114-1.901-1.618-2.158C55.021,64.943,53.141,64.377,53.368,64.66z"/>
	<path style="fill-rule:evenodd;clip-rule:evenodd;fill:#956344;" d="M47.165,85.966c0,0,0.014,1.512,0.27,2.158
		c0.256,0.647-0.18,1.252,0.54,1.618c0.72,0.367,1.216,1.252,1.888,0.81c0.671-0.442,0.852-0.713,1.348-1.079
		c0.496-0.367,0.696-1.027,1.349-1.618c0.652-0.59,1.618-1.618,1.618-1.618s-1.1-0.563-1.618-0.271
		c-0.518,0.295-1.006,1.066-1.349,1.35c-0.342,0.283-0.143,0.906-1.079,1.349c-0.936,0.441-0.887,0.561-1.079,0
		c-0.192-0.562-0.81-2.698-0.81-2.698S47.143,85.338,47.165,85.966z"/>
	<path style="fill-rule:evenodd;clip-rule:evenodd;fill:#956344;" d="M119.176,62.505c0,0-0.011,1.47-0.218,2.101
		c-0.206,0.628,0.145,1.219-0.436,1.575c-0.582,0.358-0.981,1.219-1.526,0.787c-0.542-0.429-0.687-0.693-1.089-1.049
		c-0.399-0.359-0.562-1-1.087-1.575c-0.529-0.574-0.462-1.181-0.462-1.181s0.041-0.944,0.462-0.658
		c0.418,0.286,0.812,1.036,1.087,1.313c0.277,0.275,0.116,0.882,0.871,1.313c0.758,0.429,0.717,0.548,0.873,0
		c0.154-0.547,0.653-2.627,0.653-2.627S119.194,61.893,119.176,62.505z"/>
	<path style="fill-rule:evenodd;clip-rule:evenodd;fill:#956344;" d="M72.517,76.797c0,0,0.081,1.065,0,1.618
		s-0.429,1.418-0.27,1.888s0.432,1.729,0.54,1.888c0.107,0.159,0.868,0.098,1.349,0c0.479-0.097,0.506-0.178,0.809-0.539
		c0.302-0.361,0.744-1.13,0.809-1.349c0.064-0.218,0.049-0.992,0-1.079c-0.048-0.086-0.398-0.288-0.539,0
		c-0.141,0.289-0.024,0.693-0.27,1.079c-0.246,0.386-0.146,0.833-0.539,0.81c-0.395-0.024-0.308,0.173-0.81-0.271
		c-0.502-0.442-0.491-0.518-0.539-0.81c-0.049-0.291,0.216-0.803,0.27-1.077c0.054-0.276,0.003-0.681,0-1.08
		c-0.003-0.398-0.194-0.639-0.27-1.078C72.98,76.357,72.538,76.327,72.517,76.797z"/>
	<path style="fill-rule:evenodd;clip-rule:evenodd;fill:#956344;" d="M91.396,79.493c0.034,0.268,0.954,1.414,1.349,1.619
		c0.394,0.205,0.161,0.504,0.809,0.27c0.646-0.234,0.34-0.24,0.809-0.54c0.47-0.299,0.777-0.345,0.81-0.81
		c0.032-0.463,0.141-0.771,0-1.348c-0.14-0.577,0.146-1.068-0.27-0.81c-0.415,0.26-0.577,0.362-0.54,0.54
		c0.039,0.178,0.076,0.494,0,0.809c-0.074,0.316-0.061,0.699-0.27,0.809c-0.207,0.111-0.239-0.051-0.539,0
		c-0.3,0.053-0.005,0.435-0.54,0c-0.533-0.434-0.849-0.695-1.078-0.809S91.323,78.914,91.396,79.493z"/>
	<path style="fill-rule:evenodd;clip-rule:evenodd;fill:#956344;" d="M78.989,53.872c-0.037,0.537,0.035,1.214,0,1.619
		c-0.031,0.404-0.167,1.566,0,1.888c0.168,0.321,0.06,0.782,0.54,1.079c0.479,0.296,0.323,0.531,1.079,0.539
		c0.755,0.008,1.038,0.118,1.348-0.539c0.311-0.658,0.744-0.974,1.079-1.619c0.335-0.644,0.831-1.049,0.81-1.348
		c-0.022-0.299-0.203-0.443-0.539-0.27c-0.338,0.172-0.58,0.442-0.81,0.809s-0.148,0.299-0.54,0.809
		c-0.391,0.51-0.561,0.758-1.079,0.809c-0.517,0.051-0.55,0.062-0.809-0.27c-0.259-0.332-0.229-0.372-0.27-1.079
		c-0.04-0.706-0.399-1.715-0.27-1.888C79.658,54.238,79.058,52.938,78.989,53.872z"/>
</g>
</svg>
