<?xml version="1.0" encoding="UTF-8"?>
<!DOCTYPE svg PUBLIC "-//W3C//DTD SVG 1.1//EN" "http://www.w3.org/Graphics/SVG/1.1/DTD/svg11.dtd">
<svg xmlns="http://www.w3.org/2000/svg" version="1.1" width="517px" height="263px" style="shape-rendering:geometricPrecision; text-rendering:geometricPrecision; image-rendering:optimizeQuality; fill-rule:evenodd; clip-rule:evenodd" xmlns:xlink="http://www.w3.org/1999/xlink">
<g><path style="opacity:0.994" fill="#f27f7c" d="M -0.5,-0.5 C 171.833,-0.5 344.167,-0.5 516.5,-0.5C 516.5,87.1667 516.5,174.833 516.5,262.5C 344.167,262.5 171.833,262.5 -0.5,262.5C -0.5,174.833 -0.5,87.1667 -0.5,-0.5 Z"/></g>
<g><path style="opacity:1" fill="#f69797" d="M 8.5,7.5 C 13.544,7.17252 18.544,7.50585 23.5,8.5C 18.8485,13.6519 14.0151,18.6519 9,23.5C 8.50065,18.1771 8.33398,12.8437 8.5,7.5 Z"/></g>
<g><path style="opacity:1" fill="#f69898" d="M 31.5,7.5 C 36.544,7.17252 41.544,7.50585 46.5,8.5C 34.5,21.1667 22.1667,33.5 9.5,45.5C 8.33772,40.533 8.17105,35.533 9,30.5C 16.7025,22.9649 24.2025,15.2983 31.5,7.5 Z"/></g>
<g><path style="opacity:1" fill="#f69898" d="M 54.5,7.5 C 59.544,7.17252 64.544,7.50585 69.5,8.5C 57.3475,21.1527 45.0142,33.6527 32.5,46C 27.1667,46.6667 21.8333,46.6667 16.5,46C 29.3686,33.2985 42.0353,20.4652 54.5,7.5 Z"/></g>
<g><path style="opacity:1" fill="#f69898" d="M 77.5,7.5 C 82.544,7.17252 87.544,7.50585 92.5,8.5C 80.3475,21.1527 68.0142,33.6527 55.5,46C 50.1667,46.6667 44.8333,46.6667 39.5,46C 52.3686,33.2985 65.0353,20.4652 77.5,7.5 Z"/></g>
<g><path style="opacity:1" fill="#f69898" d="M 100.5,7.5 C 105.544,7.17252 110.544,7.50585 115.5,8.5C 103.348,21.1527 91.0142,33.6527 78.5,46C 73.1667,46.6667 67.8333,46.6667 62.5,46C 75.3686,33.2985 88.0353,20.4652 100.5,7.5 Z"/></g>
<g><path style="opacity:1" fill="#f69898" d="M 123.5,7.5 C 128.544,7.17252 133.544,7.50585 138.5,8.5C 126.348,21.1527 114.014,33.6527 101.5,46C 96.1667,46.6667 90.8333,46.6667 85.5,46C 98.3686,33.2985 111.035,20.4652 123.5,7.5 Z"/></g>
<g><path style="opacity:1" fill="#f69898" d="M 146.5,7.5 C 151.544,7.17252 156.544,7.50585 161.5,8.5C 149.348,21.1527 137.014,33.6527 124.5,46C 119.167,46.6667 113.833,46.6667 108.5,46C 121.369,33.2985 134.035,20.4652 146.5,7.5 Z"/></g>
<g><path style="opacity:1" fill="#f69898" d="M 169.5,7.5 C 174.544,7.17252 179.544,7.50585 184.5,8.5C 172.348,21.1527 160.014,33.6527 147.5,46C 142.167,46.6667 136.833,46.6667 131.5,46C 144.369,33.2985 157.035,20.4652 169.5,7.5 Z"/></g>
<g><path style="opacity:1" fill="#f69898" d="M 192.5,7.5 C 197.544,7.17252 202.544,7.50585 207.5,8.5C 195.348,21.1527 183.014,33.6527 170.5,46C 165.167,46.6667 159.833,46.6667 154.5,46C 167.369,33.2985 180.035,20.4652 192.5,7.5 Z"/></g>
<g><path style="opacity:1" fill="#f69898" d="M 215.5,7.5 C 220.544,7.17252 225.544,7.50585 230.5,8.5C 218.348,21.1527 206.014,33.6527 193.5,46C 188.167,46.6667 182.833,46.6667 177.5,46C 190.369,33.2985 203.035,20.4652 215.5,7.5 Z"/></g>
<g><path style="opacity:1" fill="#f69898" d="M 238.5,7.5 C 243.544,7.17252 248.544,7.50585 253.5,8.5C 241.348,21.1527 229.014,33.6527 216.5,46C 211.167,46.6667 205.833,46.6667 200.5,46C 213.369,33.2985 226.035,20.4652 238.5,7.5 Z"/></g>
<g><path style="opacity:1" fill="#f69898" d="M 261.5,7.5 C 266.544,7.17252 271.544,7.50585 276.5,8.5C 264.348,21.1527 252.014,33.6527 239.5,46C 234.167,46.6667 228.833,46.6667 223.5,46C 236.369,33.2985 249.035,20.4652 261.5,7.5 Z"/></g>
<g><path style="opacity:1" fill="#f69898" d="M 284.5,7.5 C 289.544,7.17252 294.544,7.50585 299.5,8.5C 287.348,21.1527 275.014,33.6527 262.5,46C 257.167,46.6667 251.833,46.6667 246.5,46C 259.369,33.2985 272.035,20.4652 284.5,7.5 Z"/></g>
<g><path style="opacity:1" fill="#f69898" d="M 307.5,7.5 C 312.544,7.17252 317.544,7.50585 322.5,8.5C 310.348,21.1527 298.014,33.6527 285.5,46C 280.167,46.6667 274.833,46.6667 269.5,46C 282.369,33.2985 295.035,20.4652 307.5,7.5 Z"/></g>
<g><path style="opacity:1" fill="#f69898" d="M 330.5,7.5 C 335.544,7.17252 340.544,7.50585 345.5,8.5C 333.348,21.1527 321.014,33.6527 308.5,46C 303.167,46.6667 297.833,46.6667 292.5,46C 305.369,33.2985 318.035,20.4652 330.5,7.5 Z"/></g>
<g><path style="opacity:1" fill="#f69898" d="M 353.5,7.5 C 358.544,7.17252 363.544,7.50585 368.5,8.5C 356.348,21.1527 344.014,33.6527 331.5,46C 326.167,46.6667 320.833,46.6667 315.5,46C 328.369,33.2985 341.035,20.4652 353.5,7.5 Z"/></g>
<g><path style="opacity:1" fill="#f69898" d="M 376.5,7.5 C 381.544,7.17252 386.544,7.50585 391.5,8.5C 379.348,21.1527 367.014,33.6527 354.5,46C 349.167,46.6667 343.833,46.6667 338.5,46C 351.369,33.2985 364.035,20.4652 376.5,7.5 Z"/></g>
<g><path style="opacity:1" fill="#f69898" d="M 399.5,7.5 C 404.544,7.17252 409.544,7.50585 414.5,8.5C 402.348,21.1527 390.014,33.6527 377.5,46C 372.167,46.6667 366.833,46.6667 361.5,46C 374.369,33.2985 387.035,20.4652 399.5,7.5 Z"/></g>
<g><path style="opacity:1" fill="#f69898" d="M 422.5,7.5 C 427.544,7.17252 432.544,7.50585 437.5,8.5C 425.348,21.1527 413.014,33.6527 400.5,46C 395.167,46.6667 389.833,46.6667 384.5,46C 397.369,33.2985 410.035,20.4652 422.5,7.5 Z"/></g>
<g><path style="opacity:1" fill="#f69898" d="M 445.5,7.5 C 450.544,7.17252 455.544,7.50585 460.5,8.5C 448.348,21.1527 436.014,33.6527 423.5,46C 418.167,46.6667 412.833,46.6667 407.5,46C 420.369,33.2985 433.035,20.4652 445.5,7.5 Z"/></g>
<g><path style="opacity:1" fill="#f69898" d="M 468.5,7.5 C 473.544,7.17252 478.544,7.50585 483.5,8.5C 471.348,21.1527 459.014,33.6527 446.5,46C 441.167,46.6667 435.833,46.6667 430.5,46C 443.369,33.2985 456.035,20.4652 468.5,7.5 Z"/></g>
<g><path style="opacity:1" fill="#f69898" d="M 491.5,7.5 C 496.544,7.17252 501.544,7.50585 506.5,8.5C 494.348,21.1527 482.014,33.6527 469.5,46C 464.167,46.6667 458.833,46.6667 453.5,46C 466.369,33.2985 479.035,20.4652 491.5,7.5 Z"/></g>
<g><path style="opacity:1" fill="#f69898" d="M 507.5,14.5 C 508.651,19.6503 508.817,24.9836 508,30.5C 502.833,35.6667 497.667,40.8333 492.5,46C 487.167,46.6667 481.833,46.6667 476.5,46C 487.035,35.6317 497.369,25.1317 507.5,14.5 Z"/></g>
<g><path style="opacity:1" fill="#f69695" d="M 507.5,37.5 C 508.477,40.2869 508.81,43.2869 508.5,46.5C 505.482,46.6646 502.482,46.498 499.5,46C 502.371,43.2972 505.038,40.4639 507.5,37.5 Z"/></g>
<g><path style="opacity:1" fill="#fefcfc" d="M 282.5,70.5 C 308.537,68.7066 325.037,80.3733 332,105.5C 335.59,123.573 335.257,141.573 331,159.5C 322.052,185.392 304.219,195.225 277.5,189C 259.865,179.602 250.365,164.768 249,144.5C 245.302,123.354 248.968,103.688 260,85.5C 266.088,78.2218 273.588,73.2218 282.5,70.5 Z"/></g>
<g><path style="opacity:1" fill="#fefcfc" d="M 377.5,70.5 C 405.705,69.195 422.205,82.5283 427,110.5C 430.306,130.009 428.639,149.009 422,167.5C 411.903,186.628 396.07,194.128 374.5,190C 364.256,186.425 356.423,179.925 351,170.5C 342.931,154.046 340.264,136.713 343,118.5C 343.632,102.407 349.799,88.907 361.5,78C 366.542,74.6426 371.876,72.1426 377.5,70.5 Z"/></g>
<g><path style="opacity:1" fill="#fefcfc" d="M 239.5,191.5 C 224.167,191.5 208.833,191.5 193.5,191.5C 193.5,186.5 193.5,181.5 193.5,176.5C 199.026,176.821 204.36,176.488 209.5,175.5C 209.667,150.164 209.5,124.831 209,99.5C 208.283,100.044 207.783,100.711 207.5,101.5C 202.869,105.63 198.369,109.963 194,114.5C 190.118,110.954 186.618,107.121 183.5,103C 192.457,93.0417 201.79,83.375 211.5,74C 216.114,71.5977 220.281,72.0977 224,75.5C 225.486,108.746 225.986,142.08 225.5,175.5C 230.167,175.5 234.833,175.5 239.5,175.5C 239.5,180.833 239.5,186.167 239.5,191.5 Z"/></g>
<g><path style="opacity:1" fill="#fefcfc" d="M 141.5,140.5 C 151.653,141.494 161.986,141.828 172.5,141.5C 172.5,146.833 172.5,152.167 172.5,157.5C 161.986,157.172 151.653,157.506 141.5,158.5C 141.5,169.167 141.5,179.833 141.5,190.5C 134.833,190.5 128.167,190.5 121.5,190.5C 121.5,179.833 121.5,169.167 121.5,158.5C 111.167,158.5 100.833,158.5 90.5,158.5C 90.5,152.5 90.5,146.5 90.5,140.5C 100.833,140.5 111.167,140.5 121.5,140.5C 122.473,138.052 122.806,135.385 122.5,132.5C 111.833,132.5 101.167,132.5 90.5,132.5C 90.5,126.833 90.5,121.167 90.5,115.5C 97.5316,115.83 104.532,115.497 111.5,114.5C 104.364,102.866 97.0307,91.3661 89.5,80C 96.856,79.1687 104.189,79.3354 111.5,80.5C 118.135,91.6327 124.969,102.633 132,113.5C 138.457,102.083 145.29,90.9163 152.5,80C 159.524,79.1689 166.524,79.3356 173.5,80.5C 166.042,91.9153 158.709,103.415 151.5,115C 158.826,115.5 166.159,115.666 173.5,115.5C 173.5,121.167 173.5,126.833 173.5,132.5C 162.833,132.5 152.167,132.5 141.5,132.5C 141.5,135.167 141.5,137.833 141.5,140.5 Z"/></g>
<g><path style="opacity:1" fill="#f27f7c" d="M 285.5,86.5 C 304.074,85.8979 314.574,94.8979 317,113.5C 321.084,132.598 318.417,150.598 309,167.5C 306.441,170.531 303.274,172.698 299.5,174C 287.942,177.241 278.775,174.074 272,164.5C 266.132,153.409 263.632,141.576 264.5,129C 263.078,113.704 267.745,100.704 278.5,90C 280.925,88.7874 283.259,87.6207 285.5,86.5 Z"/></g>
<g><path style="opacity:1" fill="#f27f7c" d="M 379.5,86.5 C 394.129,84.7281 403.963,90.7281 409,104.5C 414.165,123.718 413.498,142.718 407,161.5C 400.456,173.025 390.622,177.192 377.5,174C 370.974,170.472 366.141,165.305 363,158.5C 357.389,140.608 357.056,122.608 362,104.5C 365.379,95.9561 371.212,89.9561 379.5,86.5 Z"/></g>
<g><path style="opacity:1" fill="#f59f9d" d="M 209.5,175.5 C 209.167,175.5 208.833,175.5 208.5,175.5C 208.831,150.661 208.498,125.994 207.5,101.5C 207.783,100.711 208.283,100.044 209,99.5C 209.5,124.831 209.667,150.164 209.5,175.5 Z"/></g>
<g><path style="opacity:1" fill="#f5a4a2" d="M 90.5,132.5 C 101.167,132.5 111.833,132.5 122.5,132.5C 122.806,135.385 122.473,138.052 121.5,140.5C 121.5,138.167 121.5,135.833 121.5,133.5C 110.986,133.828 100.653,133.494 90.5,132.5 Z"/></g>
<g><path style="opacity:1" fill="#f8bebd" d="M 141.5,140.5 C 152.167,140.5 162.833,140.5 173.5,140.5C 173.5,146.5 173.5,152.5 173.5,158.5C 162.833,158.5 152.167,158.5 141.5,158.5C 151.653,157.506 161.986,157.172 172.5,157.5C 172.5,152.167 172.5,146.833 172.5,141.5C 161.986,141.828 151.653,141.494 141.5,140.5 Z"/></g>
<g><path style="opacity:1" fill="#f8bebd" d="M 208.5,175.5 C 208.833,175.5 209.167,175.5 209.5,175.5C 204.36,176.488 199.026,176.821 193.5,176.5C 193.5,181.5 193.5,186.5 193.5,191.5C 208.833,191.5 224.167,191.5 239.5,191.5C 224.009,192.496 208.342,192.83 192.5,192.5C 192.5,186.833 192.5,181.167 192.5,175.5C 197.833,175.5 203.167,175.5 208.5,175.5 Z"/></g>
<g><path style="opacity:1" fill="#f69897" d="M 8.5,215.5 C 13.2137,215.173 17.8804,215.507 22.5,216.5C 18.1819,221.319 13.6819,225.985 9,230.5C 8.50074,225.511 8.33407,220.511 8.5,215.5 Z"/></g>
<g><path style="opacity:1" fill="#f69898" d="M 30.5,215.5 C 35.544,215.173 40.544,215.506 45.5,216.5C 33.5142,228.986 21.3475,241.319 9,253.5C 8.33333,248.167 8.33333,242.833 9,237.5C 16.3692,230.298 23.5359,222.965 30.5,215.5 Z"/></g>
<g><path style="opacity:1" fill="#f69999" d="M 53.5,215.5 C 58.544,215.173 63.544,215.506 68.5,216.5C 56.6809,228.819 44.6809,240.986 32.5,253C 27.1667,253.667 21.8333,253.667 16.5,253C 29.0353,240.632 41.3686,228.132 53.5,215.5 Z"/></g>
<g><path style="opacity:1" fill="#f69999" d="M 76.5,215.5 C 81.544,215.173 86.544,215.506 91.5,216.5C 79.6809,228.819 67.6809,240.986 55.5,253C 50.1667,253.667 44.8333,253.667 39.5,253C 52.0353,240.632 64.3686,228.132 76.5,215.5 Z"/></g>
<g><path style="opacity:1" fill="#f69999" d="M 99.5,215.5 C 104.544,215.173 109.544,215.506 114.5,216.5C 102.681,228.819 90.6809,240.986 78.5,253C 73.1667,253.667 67.8333,253.667 62.5,253C 75.0353,240.632 87.3686,228.132 99.5,215.5 Z"/></g>
<g><path style="opacity:1" fill="#f69999" d="M 122.5,215.5 C 127.544,215.173 132.544,215.506 137.5,216.5C 125.681,228.819 113.681,240.986 101.5,253C 96.1667,253.667 90.8333,253.667 85.5,253C 98.0353,240.632 110.369,228.132 122.5,215.5 Z"/></g>
<g><path style="opacity:1" fill="#f69999" d="M 145.5,215.5 C 150.544,215.173 155.544,215.506 160.5,216.5C 148.681,228.819 136.681,240.986 124.5,253C 119.167,253.667 113.833,253.667 108.5,253C 121.035,240.632 133.369,228.132 145.5,215.5 Z"/></g>
<g><path style="opacity:1" fill="#f69999" d="M 168.5,215.5 C 173.544,215.173 178.544,215.506 183.5,216.5C 171.681,228.819 159.681,240.986 147.5,253C 142.167,253.667 136.833,253.667 131.5,253C 144.035,240.632 156.369,228.132 168.5,215.5 Z"/></g>
<g><path style="opacity:1" fill="#f69999" d="M 191.5,215.5 C 196.544,215.173 201.544,215.506 206.5,216.5C 194.681,228.819 182.681,240.986 170.5,253C 165.167,253.667 159.833,253.667 154.5,253C 167.035,240.632 179.369,228.132 191.5,215.5 Z"/></g>
<g><path style="opacity:1" fill="#f69999" d="M 214.5,215.5 C 219.544,215.173 224.544,215.506 229.5,216.5C 217.681,228.819 205.681,240.986 193.5,253C 188.167,253.667 182.833,253.667 177.5,253C 190.035,240.632 202.369,228.132 214.5,215.5 Z"/></g>
<g><path style="opacity:1" fill="#f69999" d="M 237.5,215.5 C 242.544,215.173 247.544,215.506 252.5,216.5C 240.681,228.819 228.681,240.986 216.5,253C 211.167,253.667 205.833,253.667 200.5,253C 213.035,240.632 225.369,228.132 237.5,215.5 Z"/></g>
<g><path style="opacity:1" fill="#f69999" d="M 260.5,215.5 C 265.544,215.173 270.544,215.506 275.5,216.5C 263.681,228.819 251.681,240.986 239.5,253C 234.167,253.667 228.833,253.667 223.5,253C 236.035,240.632 248.369,228.132 260.5,215.5 Z"/></g>
<g><path style="opacity:1" fill="#f69999" d="M 283.5,215.5 C 288.544,215.173 293.544,215.506 298.5,216.5C 286.681,228.819 274.681,240.986 262.5,253C 257.167,253.667 251.833,253.667 246.5,253C 259.035,240.632 271.369,228.132 283.5,215.5 Z"/></g>
<g><path style="opacity:1" fill="#f69999" d="M 306.5,215.5 C 311.544,215.173 316.544,215.506 321.5,216.5C 309.681,228.819 297.681,240.986 285.5,253C 280.167,253.667 274.833,253.667 269.5,253C 282.035,240.632 294.369,228.132 306.5,215.5 Z"/></g>
<g><path style="opacity:1" fill="#f69999" d="M 329.5,215.5 C 334.544,215.173 339.544,215.506 344.5,216.5C 332.681,228.819 320.681,240.986 308.5,253C 303.167,253.667 297.833,253.667 292.5,253C 305.035,240.632 317.369,228.132 329.5,215.5 Z"/></g>
<g><path style="opacity:1" fill="#f69999" d="M 352.5,215.5 C 357.544,215.173 362.544,215.506 367.5,216.5C 355.681,228.819 343.681,240.986 331.5,253C 326.167,253.667 320.833,253.667 315.5,253C 328.035,240.632 340.369,228.132 352.5,215.5 Z"/></g>
<g><path style="opacity:1" fill="#f69999" d="M 375.5,215.5 C 380.544,215.173 385.544,215.506 390.5,216.5C 378.681,228.819 366.681,240.986 354.5,253C 349.167,253.667 343.833,253.667 338.5,253C 351.035,240.632 363.369,228.132 375.5,215.5 Z"/></g>
<g><path style="opacity:1" fill="#f69999" d="M 398.5,215.5 C 403.544,215.173 408.544,215.506 413.5,216.5C 401.681,228.819 389.681,240.986 377.5,253C 372.167,253.667 366.833,253.667 361.5,253C 374.035,240.632 386.369,228.132 398.5,215.5 Z"/></g>
<g><path style="opacity:1" fill="#f69999" d="M 421.5,215.5 C 426.544,215.173 431.544,215.506 436.5,216.5C 424.681,228.819 412.681,240.986 400.5,253C 395.167,253.667 389.833,253.667 384.5,253C 397.035,240.632 409.369,228.132 421.5,215.5 Z"/></g>
<g><path style="opacity:1" fill="#f69999" d="M 444.5,215.5 C 449.544,215.173 454.544,215.506 459.5,216.5C 447.681,228.819 435.681,240.986 423.5,253C 418.167,253.667 412.833,253.667 407.5,253C 420.035,240.632 432.369,228.132 444.5,215.5 Z"/></g>
<g><path style="opacity:1" fill="#f69999" d="M 467.5,215.5 C 472.544,215.173 477.544,215.506 482.5,216.5C 470.681,228.819 458.681,240.986 446.5,253C 441.167,253.667 435.833,253.667 430.5,253C 443.035,240.632 455.369,228.132 467.5,215.5 Z"/></g>
<g><path style="opacity:1" fill="#f69999" d="M 490.5,215.5 C 495.544,215.173 500.544,215.506 505.5,216.5C 493.681,228.819 481.681,240.986 469.5,253C 464.167,253.667 458.833,253.667 453.5,253C 466.035,240.632 478.369,228.132 490.5,215.5 Z"/></g>
<g><path style="opacity:1" fill="#f69999" d="M 507.5,221.5 C 508.651,226.65 508.817,231.984 508,237.5C 502.833,242.667 497.667,247.833 492.5,253C 487.167,253.667 481.833,253.667 476.5,253C 487.035,242.632 497.369,232.132 507.5,221.5 Z"/></g>
<g><path style="opacity:1" fill="#f69898" d="M 507.5,244.5 C 508.477,247.287 508.81,250.287 508.5,253.5C 505.482,253.665 502.482,253.498 499.5,253C 502.371,250.297 505.038,247.464 507.5,244.5 Z"/></g>
</svg>
